<?xml version="1.0" encoding="utf-8"?>
<svg xmlns="http://www.w3.org/2000/svg" xmlns:xlink="http://www.w3.org/1999/xlink" width="600" height="400" viewBox="0 0 2400 1600">
<defs>
  <clipPath id="clip900">
    <rect x="0" y="0" width="2400" height="1600"/>
  </clipPath>
</defs>
<path clip-path="url(#clip900)" d="M0 1600 L2400 1600 L2400 8.88178e-14 L0 8.88178e-14  Z" fill="#ffffff" fill-rule="evenodd" fill-opacity="1"/>
<defs>
  <clipPath id="clip901">
    <rect x="480" y="0" width="1681" height="1600"/>
  </clipPath>
</defs>
<path clip-path="url(#clip900)" d="M209.029 1486.45 L2352.76 1486.45 L2352.76 47.2441 L209.029 47.2441  Z" fill="#ffffff" fill-rule="evenodd" fill-opacity="1"/>
<defs>
  <clipPath id="clip902">
    <rect x="209" y="47" width="2145" height="1440"/>
  </clipPath>
</defs>
<polyline clip-path="url(#clip900)" style="stroke:#000000; stroke-linecap:round; stroke-linejoin:round; stroke-width:4; stroke-opacity:1; fill:none" points="209.029,1486.45 2352.76,1486.45 "/>
<polyline clip-path="url(#clip900)" style="stroke:#000000; stroke-linecap:round; stroke-linejoin:round; stroke-width:4; stroke-opacity:1; fill:none" points="255.151,1486.45 255.151,1467.55 "/>
<polyline clip-path="url(#clip900)" style="stroke:#000000; stroke-linecap:round; stroke-linejoin:round; stroke-width:4; stroke-opacity:1; fill:none" points="618.889,1486.45 618.889,1467.55 "/>
<polyline clip-path="url(#clip900)" style="stroke:#000000; stroke-linecap:round; stroke-linejoin:round; stroke-width:4; stroke-opacity:1; fill:none" points="982.627,1486.45 982.627,1467.55 "/>
<polyline clip-path="url(#clip900)" style="stroke:#000000; stroke-linecap:round; stroke-linejoin:round; stroke-width:4; stroke-opacity:1; fill:none" points="1346.37,1486.45 1346.37,1467.55 "/>
<polyline clip-path="url(#clip900)" style="stroke:#000000; stroke-linecap:round; stroke-linejoin:round; stroke-width:4; stroke-opacity:1; fill:none" points="1710.1,1486.45 1710.1,1467.55 "/>
<polyline clip-path="url(#clip900)" style="stroke:#000000; stroke-linecap:round; stroke-linejoin:round; stroke-width:4; stroke-opacity:1; fill:none" points="2073.84,1486.45 2073.84,1467.55 "/>
<path clip-path="url(#clip900)" d="M255.151 1517.37 Q251.539 1517.37 249.711 1520.93 Q247.905 1524.47 247.905 1531.6 Q247.905 1538.71 249.711 1542.27 Q251.539 1545.82 255.151 1545.82 Q258.785 1545.82 260.59 1542.27 Q262.419 1538.71 262.419 1531.6 Q262.419 1524.47 260.59 1520.93 Q258.785 1517.37 255.151 1517.37 M255.151 1513.66 Q260.961 1513.66 264.016 1518.27 Q267.095 1522.85 267.095 1531.6 Q267.095 1540.33 264.016 1544.94 Q260.961 1549.52 255.151 1549.52 Q249.34 1549.52 246.262 1544.94 Q243.206 1540.33 243.206 1531.6 Q243.206 1522.85 246.262 1518.27 Q249.34 1513.66 255.151 1513.66 Z" fill="#000000" fill-rule="nonzero" fill-opacity="1" /><path clip-path="url(#clip900)" d="M598.16 1544.91 L614.479 1544.91 L614.479 1548.85 L592.535 1548.85 L592.535 1544.91 Q595.197 1542.16 599.78 1537.53 Q604.386 1532.88 605.567 1531.53 Q607.812 1529.01 608.692 1527.27 Q609.595 1525.51 609.595 1523.82 Q609.595 1521.07 607.65 1519.33 Q605.729 1517.6 602.627 1517.6 Q600.428 1517.6 597.974 1518.36 Q595.544 1519.13 592.766 1520.68 L592.766 1515.95 Q595.59 1514.82 598.044 1514.24 Q600.498 1513.66 602.535 1513.66 Q607.905 1513.66 611.099 1516.35 Q614.294 1519.03 614.294 1523.52 Q614.294 1525.65 613.484 1527.57 Q612.697 1529.47 610.59 1532.07 Q610.011 1532.74 606.91 1535.95 Q603.808 1539.15 598.16 1544.91 Z" fill="#000000" fill-rule="nonzero" fill-opacity="1" /><path clip-path="url(#clip900)" d="M624.34 1514.29 L642.696 1514.29 L642.696 1518.22 L628.622 1518.22 L628.622 1526.7 Q629.641 1526.35 630.659 1526.19 Q631.678 1526 632.696 1526 Q638.484 1526 641.863 1529.17 Q645.243 1532.34 645.243 1537.76 Q645.243 1543.34 641.771 1546.44 Q638.298 1549.52 631.979 1549.52 Q629.803 1549.52 627.534 1549.15 Q625.289 1548.78 622.882 1548.04 L622.882 1543.34 Q624.965 1544.47 627.187 1545.03 Q629.409 1545.58 631.886 1545.58 Q635.891 1545.58 638.229 1543.48 Q640.567 1541.37 640.567 1537.76 Q640.567 1534.15 638.229 1532.04 Q635.891 1529.94 631.886 1529.94 Q630.011 1529.94 628.136 1530.35 Q626.284 1530.77 624.34 1531.65 L624.34 1514.29 Z" fill="#000000" fill-rule="nonzero" fill-opacity="1" /><path clip-path="url(#clip900)" d="M957.326 1514.29 L975.682 1514.29 L975.682 1518.22 L961.608 1518.22 L961.608 1526.7 Q962.627 1526.35 963.646 1526.19 Q964.664 1526 965.683 1526 Q971.47 1526 974.849 1529.17 Q978.229 1532.34 978.229 1537.76 Q978.229 1543.34 974.757 1546.44 Q971.284 1549.52 964.965 1549.52 Q962.789 1549.52 960.521 1549.15 Q958.275 1548.78 955.868 1548.04 L955.868 1543.34 Q957.951 1544.47 960.173 1545.03 Q962.396 1545.58 964.872 1545.58 Q968.877 1545.58 971.215 1543.48 Q973.553 1541.37 973.553 1537.76 Q973.553 1534.15 971.215 1532.04 Q968.877 1529.94 964.872 1529.94 Q962.997 1529.94 961.122 1530.35 Q959.271 1530.77 957.326 1531.65 L957.326 1514.29 Z" fill="#000000" fill-rule="nonzero" fill-opacity="1" /><path clip-path="url(#clip900)" d="M997.442 1517.37 Q993.831 1517.37 992.002 1520.93 Q990.196 1524.47 990.196 1531.6 Q990.196 1538.71 992.002 1542.27 Q993.831 1545.82 997.442 1545.82 Q1001.08 1545.82 1002.88 1542.27 Q1004.71 1538.71 1004.71 1531.6 Q1004.71 1524.47 1002.88 1520.93 Q1001.08 1517.37 997.442 1517.37 M997.442 1513.66 Q1003.25 1513.66 1006.31 1518.27 Q1009.39 1522.85 1009.39 1531.6 Q1009.39 1540.33 1006.31 1544.94 Q1003.25 1549.52 997.442 1549.52 Q991.631 1549.52 988.553 1544.94 Q985.497 1540.33 985.497 1531.6 Q985.497 1522.85 988.553 1518.27 Q991.631 1513.66 997.442 1513.66 Z" fill="#000000" fill-rule="nonzero" fill-opacity="1" /><path clip-path="url(#clip900)" d="M1320.22 1514.29 L1342.44 1514.29 L1342.44 1516.28 L1329.9 1548.85 L1325.01 1548.85 L1336.82 1518.22 L1320.22 1518.22 L1320.22 1514.29 Z" fill="#000000" fill-rule="nonzero" fill-opacity="1" /><path clip-path="url(#clip900)" d="M1351.61 1514.29 L1369.96 1514.29 L1369.96 1518.22 L1355.89 1518.22 L1355.89 1526.7 Q1356.91 1526.35 1357.93 1526.19 Q1358.95 1526 1359.96 1526 Q1365.75 1526 1369.13 1529.17 Q1372.51 1532.34 1372.51 1537.76 Q1372.51 1543.34 1369.04 1546.44 Q1365.57 1549.52 1359.25 1549.52 Q1357.07 1549.52 1354.8 1549.15 Q1352.56 1548.78 1350.15 1548.04 L1350.15 1543.34 Q1352.23 1544.47 1354.46 1545.03 Q1356.68 1545.58 1359.15 1545.58 Q1363.16 1545.58 1365.5 1543.48 Q1367.83 1541.37 1367.83 1537.76 Q1367.83 1534.15 1365.5 1532.04 Q1363.16 1529.94 1359.15 1529.94 Q1357.28 1529.94 1355.4 1530.35 Q1353.55 1530.77 1351.61 1531.65 L1351.61 1514.29 Z" fill="#000000" fill-rule="nonzero" fill-opacity="1" /><path clip-path="url(#clip900)" d="M1669.71 1544.91 L1677.35 1544.91 L1677.35 1518.55 L1669.04 1520.21 L1669.04 1515.95 L1677.3 1514.29 L1681.98 1514.29 L1681.98 1544.91 L1689.62 1544.91 L1689.62 1548.85 L1669.71 1548.85 L1669.71 1544.91 Z" fill="#000000" fill-rule="nonzero" fill-opacity="1" /><path clip-path="url(#clip900)" d="M1709.06 1517.37 Q1705.45 1517.37 1703.62 1520.93 Q1701.82 1524.47 1701.82 1531.6 Q1701.82 1538.71 1703.62 1542.27 Q1705.45 1545.82 1709.06 1545.82 Q1712.7 1545.82 1714.5 1542.27 Q1716.33 1538.71 1716.33 1531.6 Q1716.33 1524.47 1714.5 1520.93 Q1712.7 1517.37 1709.06 1517.37 M1709.06 1513.66 Q1714.87 1513.66 1717.93 1518.27 Q1721.01 1522.85 1721.01 1531.6 Q1721.01 1540.33 1717.93 1544.94 Q1714.87 1549.52 1709.06 1549.52 Q1703.25 1549.52 1700.17 1544.94 Q1697.12 1540.33 1697.12 1531.6 Q1697.12 1522.85 1700.17 1518.27 Q1703.25 1513.66 1709.06 1513.66 Z" fill="#000000" fill-rule="nonzero" fill-opacity="1" /><path clip-path="url(#clip900)" d="M1739.22 1517.37 Q1735.61 1517.37 1733.78 1520.93 Q1731.98 1524.47 1731.98 1531.6 Q1731.98 1538.71 1733.78 1542.27 Q1735.61 1545.82 1739.22 1545.82 Q1742.86 1545.82 1744.66 1542.27 Q1746.49 1538.71 1746.49 1531.6 Q1746.49 1524.47 1744.66 1520.93 Q1742.86 1517.37 1739.22 1517.37 M1739.22 1513.66 Q1745.03 1513.66 1748.09 1518.27 Q1751.17 1522.85 1751.17 1531.6 Q1751.17 1540.33 1748.09 1544.94 Q1745.03 1549.52 1739.22 1549.52 Q1733.41 1549.52 1730.33 1544.94 Q1727.28 1540.33 1727.28 1531.6 Q1727.28 1522.85 1730.33 1518.27 Q1733.41 1513.66 1739.22 1513.66 Z" fill="#000000" fill-rule="nonzero" fill-opacity="1" /><path clip-path="url(#clip900)" d="M2033.95 1544.91 L2041.58 1544.91 L2041.58 1518.55 L2033.27 1520.21 L2033.27 1515.95 L2041.54 1514.29 L2046.21 1514.29 L2046.21 1544.91 L2053.85 1544.91 L2053.85 1548.85 L2033.95 1548.85 L2033.95 1544.91 Z" fill="#000000" fill-rule="nonzero" fill-opacity="1" /><path clip-path="url(#clip900)" d="M2067.33 1544.91 L2083.64 1544.91 L2083.64 1548.85 L2061.7 1548.85 L2061.7 1544.91 Q2064.36 1542.16 2068.95 1537.53 Q2073.55 1532.88 2074.73 1531.53 Q2076.98 1529.01 2077.86 1527.27 Q2078.76 1525.51 2078.76 1523.82 Q2078.76 1521.07 2076.82 1519.33 Q2074.89 1517.6 2071.79 1517.6 Q2069.59 1517.6 2067.14 1518.36 Q2064.71 1519.13 2061.93 1520.68 L2061.93 1515.95 Q2064.76 1514.82 2067.21 1514.24 Q2069.66 1513.66 2071.7 1513.66 Q2077.07 1513.66 2080.27 1516.35 Q2083.46 1519.03 2083.46 1523.52 Q2083.46 1525.65 2082.65 1527.57 Q2081.86 1529.47 2079.76 1532.07 Q2079.18 1532.74 2076.08 1535.95 Q2072.97 1539.15 2067.33 1544.91 Z" fill="#000000" fill-rule="nonzero" fill-opacity="1" /><path clip-path="url(#clip900)" d="M2093.51 1514.29 L2111.86 1514.29 L2111.86 1518.22 L2097.79 1518.22 L2097.79 1526.7 Q2098.81 1526.35 2099.83 1526.19 Q2100.84 1526 2101.86 1526 Q2107.65 1526 2111.03 1529.17 Q2114.41 1532.34 2114.41 1537.76 Q2114.41 1543.34 2110.94 1546.44 Q2107.46 1549.52 2101.14 1549.52 Q2098.97 1549.52 2096.7 1549.15 Q2094.45 1548.78 2092.05 1548.04 L2092.05 1543.34 Q2094.13 1544.47 2096.35 1545.03 Q2098.58 1545.58 2101.05 1545.58 Q2105.06 1545.58 2107.39 1543.48 Q2109.73 1541.37 2109.73 1537.76 Q2109.73 1534.15 2107.39 1532.04 Q2105.06 1529.94 2101.05 1529.94 Q2099.18 1529.94 2097.3 1530.35 Q2095.45 1530.77 2093.51 1531.65 L2093.51 1514.29 Z" fill="#000000" fill-rule="nonzero" fill-opacity="1" /><polyline clip-path="url(#clip900)" style="stroke:#000000; stroke-linecap:round; stroke-linejoin:round; stroke-width:4; stroke-opacity:1; fill:none" points="209.029,1486.45 209.029,47.2441 "/>
<polyline clip-path="url(#clip900)" style="stroke:#000000; stroke-linecap:round; stroke-linejoin:round; stroke-width:4; stroke-opacity:1; fill:none" points="209.029,1359.54 227.926,1359.54 "/>
<polyline clip-path="url(#clip900)" style="stroke:#000000; stroke-linecap:round; stroke-linejoin:round; stroke-width:4; stroke-opacity:1; fill:none" points="209.029,1091.55 227.926,1091.55 "/>
<polyline clip-path="url(#clip900)" style="stroke:#000000; stroke-linecap:round; stroke-linejoin:round; stroke-width:4; stroke-opacity:1; fill:none" points="209.029,823.565 227.926,823.565 "/>
<polyline clip-path="url(#clip900)" style="stroke:#000000; stroke-linecap:round; stroke-linejoin:round; stroke-width:4; stroke-opacity:1; fill:none" points="209.029,555.577 227.926,555.577 "/>
<polyline clip-path="url(#clip900)" style="stroke:#000000; stroke-linecap:round; stroke-linejoin:round; stroke-width:4; stroke-opacity:1; fill:none" points="209.029,287.59 227.926,287.59 "/>
<path clip-path="url(#clip900)" d="M50.9921 1359.99 L80.6679 1359.99 L80.6679 1363.93 L50.9921 1363.93 L50.9921 1359.99 Z" fill="#000000" fill-rule="nonzero" fill-opacity="1" /><path clip-path="url(#clip900)" d="M94.7882 1372.88 L111.108 1372.88 L111.108 1376.82 L89.1632 1376.82 L89.1632 1372.88 Q91.8252 1370.13 96.4085 1365.5 Q101.015 1360.85 102.196 1359.5 Q104.441 1356.98 105.321 1355.25 Q106.223 1353.49 106.223 1351.8 Q106.223 1349.04 104.279 1347.31 Q102.358 1345.57 99.2558 1345.57 Q97.0567 1345.57 94.603 1346.33 Q92.1725 1347.1 89.3947 1348.65 L89.3947 1343.93 Q92.2188 1342.79 94.6724 1342.21 Q97.1261 1341.63 99.1632 1341.63 Q104.534 1341.63 107.728 1344.32 Q110.922 1347 110.922 1351.5 Q110.922 1353.62 110.112 1355.55 Q109.325 1357.44 107.219 1360.04 Q106.64 1360.71 103.538 1363.93 Q100.436 1367.12 94.7882 1372.88 Z" fill="#000000" fill-rule="nonzero" fill-opacity="1" /><path clip-path="url(#clip900)" d="M130.922 1345.34 Q127.311 1345.34 125.482 1348.9 Q123.677 1352.44 123.677 1359.57 Q123.677 1366.68 125.482 1370.25 Q127.311 1373.79 130.922 1373.79 Q134.556 1373.79 136.362 1370.25 Q138.191 1366.68 138.191 1359.57 Q138.191 1352.44 136.362 1348.9 Q134.556 1345.34 130.922 1345.34 M130.922 1341.63 Q136.732 1341.63 139.788 1346.24 Q142.867 1350.82 142.867 1359.57 Q142.867 1368.3 139.788 1372.91 Q136.732 1377.49 130.922 1377.49 Q125.112 1377.49 122.033 1372.91 Q118.978 1368.3 118.978 1359.57 Q118.978 1350.82 122.033 1346.24 Q125.112 1341.63 130.922 1341.63 Z" fill="#000000" fill-rule="nonzero" fill-opacity="1" /><path clip-path="url(#clip900)" d="M161.084 1345.34 Q157.473 1345.34 155.644 1348.9 Q153.839 1352.44 153.839 1359.57 Q153.839 1366.68 155.644 1370.25 Q157.473 1373.79 161.084 1373.79 Q164.718 1373.79 166.524 1370.25 Q168.353 1366.68 168.353 1359.57 Q168.353 1352.44 166.524 1348.9 Q164.718 1345.34 161.084 1345.34 M161.084 1341.63 Q166.894 1341.63 169.95 1346.24 Q173.029 1350.82 173.029 1359.57 Q173.029 1368.3 169.95 1372.91 Q166.894 1377.49 161.084 1377.49 Q155.274 1377.49 152.195 1372.91 Q149.14 1368.3 149.14 1359.57 Q149.14 1350.82 152.195 1346.24 Q155.274 1341.63 161.084 1341.63 Z" fill="#000000" fill-rule="nonzero" fill-opacity="1" /><path clip-path="url(#clip900)" d="M161.084 1077.35 Q157.473 1077.35 155.644 1080.92 Q153.839 1084.46 153.839 1091.59 Q153.839 1098.69 155.644 1102.26 Q157.473 1105.8 161.084 1105.8 Q164.718 1105.8 166.524 1102.26 Q168.353 1098.69 168.353 1091.59 Q168.353 1084.46 166.524 1080.92 Q164.718 1077.35 161.084 1077.35 M161.084 1073.65 Q166.894 1073.65 169.95 1078.25 Q173.029 1082.84 173.029 1091.59 Q173.029 1100.31 169.95 1104.92 Q166.894 1109.5 161.084 1109.5 Q155.274 1109.5 152.195 1104.92 Q149.14 1100.31 149.14 1091.59 Q149.14 1082.84 152.195 1078.25 Q155.274 1073.65 161.084 1073.65 Z" fill="#000000" fill-rule="nonzero" fill-opacity="1" /><path clip-path="url(#clip900)" d="M94.7882 836.909 L111.108 836.909 L111.108 840.845 L89.1632 840.845 L89.1632 836.909 Q91.8252 834.155 96.4085 829.525 Q101.015 824.873 102.196 823.53 Q104.441 821.007 105.321 819.271 Q106.223 817.511 106.223 815.822 Q106.223 813.067 104.279 811.331 Q102.358 809.595 99.2558 809.595 Q97.0567 809.595 94.603 810.359 Q92.1725 811.123 89.3947 812.674 L89.3947 807.951 Q92.2188 806.817 94.6724 806.238 Q97.1261 805.66 99.1632 805.66 Q104.534 805.66 107.728 808.345 Q110.922 811.03 110.922 815.521 Q110.922 817.65 110.112 819.572 Q109.325 821.47 107.219 824.062 Q106.64 824.734 103.538 827.951 Q100.436 831.146 94.7882 836.909 Z" fill="#000000" fill-rule="nonzero" fill-opacity="1" /><path clip-path="url(#clip900)" d="M130.922 809.363 Q127.311 809.363 125.482 812.928 Q123.677 816.47 123.677 823.599 Q123.677 830.706 125.482 834.271 Q127.311 837.812 130.922 837.812 Q134.556 837.812 136.362 834.271 Q138.191 830.706 138.191 823.599 Q138.191 816.47 136.362 812.928 Q134.556 809.363 130.922 809.363 M130.922 805.66 Q136.732 805.66 139.788 810.266 Q142.867 814.849 142.867 823.599 Q142.867 832.326 139.788 836.933 Q136.732 841.516 130.922 841.516 Q125.112 841.516 122.033 836.933 Q118.978 832.326 118.978 823.599 Q118.978 814.849 122.033 810.266 Q125.112 805.66 130.922 805.66 Z" fill="#000000" fill-rule="nonzero" fill-opacity="1" /><path clip-path="url(#clip900)" d="M161.084 809.363 Q157.473 809.363 155.644 812.928 Q153.839 816.47 153.839 823.599 Q153.839 830.706 155.644 834.271 Q157.473 837.812 161.084 837.812 Q164.718 837.812 166.524 834.271 Q168.353 830.706 168.353 823.599 Q168.353 816.47 166.524 812.928 Q164.718 809.363 161.084 809.363 M161.084 805.66 Q166.894 805.66 169.95 810.266 Q173.029 814.849 173.029 823.599 Q173.029 832.326 169.95 836.933 Q166.894 841.516 161.084 841.516 Q155.274 841.516 152.195 836.933 Q149.14 832.326 149.14 823.599 Q149.14 814.849 152.195 810.266 Q155.274 805.66 161.084 805.66 Z" fill="#000000" fill-rule="nonzero" fill-opacity="1" /><path clip-path="url(#clip900)" d="M103.608 542.371 L91.8021 560.82 L103.608 560.82 L103.608 542.371 M102.381 538.297 L108.26 538.297 L108.26 560.82 L113.191 560.82 L113.191 564.709 L108.26 564.709 L108.26 572.857 L103.608 572.857 L103.608 564.709 L88.0058 564.709 L88.0058 560.195 L102.381 538.297 Z" fill="#000000" fill-rule="nonzero" fill-opacity="1" /><path clip-path="url(#clip900)" d="M130.922 541.376 Q127.311 541.376 125.482 544.941 Q123.677 548.483 123.677 555.612 Q123.677 562.719 125.482 566.283 Q127.311 569.825 130.922 569.825 Q134.556 569.825 136.362 566.283 Q138.191 562.719 138.191 555.612 Q138.191 548.483 136.362 544.941 Q134.556 541.376 130.922 541.376 M130.922 537.672 Q136.732 537.672 139.788 542.279 Q142.867 546.862 142.867 555.612 Q142.867 564.339 139.788 568.945 Q136.732 573.529 130.922 573.529 Q125.112 573.529 122.033 568.945 Q118.978 564.339 118.978 555.612 Q118.978 546.862 122.033 542.279 Q125.112 537.672 130.922 537.672 Z" fill="#000000" fill-rule="nonzero" fill-opacity="1" /><path clip-path="url(#clip900)" d="M161.084 541.376 Q157.473 541.376 155.644 544.941 Q153.839 548.483 153.839 555.612 Q153.839 562.719 155.644 566.283 Q157.473 569.825 161.084 569.825 Q164.718 569.825 166.524 566.283 Q168.353 562.719 168.353 555.612 Q168.353 548.483 166.524 544.941 Q164.718 541.376 161.084 541.376 M161.084 537.672 Q166.894 537.672 169.95 542.279 Q173.029 546.862 173.029 555.612 Q173.029 564.339 169.95 568.945 Q166.894 573.529 161.084 573.529 Q155.274 573.529 152.195 568.945 Q149.14 564.339 149.14 555.612 Q149.14 546.862 152.195 542.279 Q155.274 537.672 161.084 537.672 Z" fill="#000000" fill-rule="nonzero" fill-opacity="1" /><path clip-path="url(#clip900)" d="M101.339 285.727 Q98.1909 285.727 96.3391 287.879 Q94.5104 290.032 94.5104 293.782 Q94.5104 297.509 96.3391 299.685 Q98.1909 301.838 101.339 301.838 Q104.487 301.838 106.316 299.685 Q108.168 297.509 108.168 293.782 Q108.168 290.032 106.316 287.879 Q104.487 285.727 101.339 285.727 M110.621 271.074 L110.621 275.333 Q108.862 274.5 107.057 274.06 Q105.274 273.62 103.515 273.62 Q98.8854 273.62 96.4317 276.745 Q94.0012 279.87 93.6539 286.19 Q95.0197 284.176 97.0798 283.111 Q99.14 282.023 101.617 282.023 Q106.825 282.023 109.834 285.194 Q112.867 288.342 112.867 293.782 Q112.867 299.106 109.719 302.324 Q106.571 305.541 101.339 305.541 Q95.3437 305.541 92.1725 300.958 Q89.0012 296.352 89.0012 287.625 Q89.0012 279.43 92.89 274.569 Q96.7789 269.685 103.33 269.685 Q105.089 269.685 106.871 270.032 Q108.677 270.38 110.621 271.074 Z" fill="#000000" fill-rule="nonzero" fill-opacity="1" /><path clip-path="url(#clip900)" d="M130.922 273.389 Q127.311 273.389 125.482 276.954 Q123.677 280.495 123.677 287.625 Q123.677 294.731 125.482 298.296 Q127.311 301.838 130.922 301.838 Q134.556 301.838 136.362 298.296 Q138.191 294.731 138.191 287.625 Q138.191 280.495 136.362 276.954 Q134.556 273.389 130.922 273.389 M130.922 269.685 Q136.732 269.685 139.788 274.292 Q142.867 278.875 142.867 287.625 Q142.867 296.352 139.788 300.958 Q136.732 305.541 130.922 305.541 Q125.112 305.541 122.033 300.958 Q118.978 296.352 118.978 287.625 Q118.978 278.875 122.033 274.292 Q125.112 269.685 130.922 269.685 Z" fill="#000000" fill-rule="nonzero" fill-opacity="1" /><path clip-path="url(#clip900)" d="M161.084 273.389 Q157.473 273.389 155.644 276.954 Q153.839 280.495 153.839 287.625 Q153.839 294.731 155.644 298.296 Q157.473 301.838 161.084 301.838 Q164.718 301.838 166.524 298.296 Q168.353 294.731 168.353 287.625 Q168.353 280.495 166.524 276.954 Q164.718 273.389 161.084 273.389 M161.084 269.685 Q166.894 269.685 169.95 274.292 Q173.029 278.875 173.029 287.625 Q173.029 296.352 169.95 300.958 Q166.894 305.541 161.084 305.541 Q155.274 305.541 152.195 300.958 Q149.14 296.352 149.14 287.625 Q149.14 278.875 152.195 274.292 Q155.274 269.685 161.084 269.685 Z" fill="#000000" fill-rule="nonzero" fill-opacity="1" /><path clip-path="url(#clip902)" d="M269.7 1091.97 L284.25 1091.95 L298.799 1091.93 L313.349 1091.9 L327.898 1091.89 L342.448 1091.91 L356.997 1091.85 L371.547 1091.87 L386.096 1091.86 L400.646 1091.95 L415.195 1091.93 L429.745 1091.93 L444.294 1091.92 L458.844 1091.97 L473.393 1091.98 L487.943 1092.01 L502.492 1091.97 L517.042 1092.05 L531.592 1092.11 L546.141 1092.23 L560.691 1092.39 L575.24 1092.52 L589.79 1092.47 L604.339 1092.69 L618.889 1092.77 L633.438 1092.95 L647.988 1093.16 L662.537 1093.26 L677.087 1093.2 L691.636 1093.18 L706.186 1093.49 L720.735 1093.5 L735.285 1094.09 L749.834 1094.19 L764.384 1094.35 L778.934 1095.54 L793.483 1095.78 L808.033 1096.47 L822.582 1096.49 L837.132 1097.02 L851.681 1098 L866.231 1098.73 L880.78 1097.51 L895.33 1095.51 L909.879 1094.81 L924.429 1095 L938.978 1098.02 L953.528 1095.37 L968.077 1098.81 L982.627 1094 L997.176 1094.31 L1011.73 1091.02 L1026.28 1079.11 L1040.83 1067.53 L1055.37 1060.02 L1069.92 1049.02 L1084.47 1037.91 L1099.02 1029.23 L1113.57 1013.29 L1128.12 997.049 L1142.67 979.951 L1157.22 959.704 L1171.77 943.2 L1186.32 924.571 L1200.87 908.299 L1215.42 883.786 L1229.97 854.749 L1244.52 834.747 L1259.07 822.566 L1273.62 808.278 L1288.17 796.876 L1302.72 783.411 L1317.27 772.719 L1331.82 763.25 L1346.37 763.937 L1360.91 759.596 L1375.46 760.721 L1390.01 760.936 L1404.56 764.139 L1419.11 763.173 L1433.66 766.64 L1448.21 771.683 L1462.76 775.89 L1477.31 783.702 L1491.86 791.178 L1506.41 800.761 L1520.96 803.496 L1535.51 812.271 L1550.06 819.1 L1564.61 828.752 L1579.16 831.524 L1593.71 835.804 L1608.26 848.554 L1622.81 861.907 L1637.36 872.689 L1651.91 878.196 L1666.45 888.324 L1681 899.798 L1695.55 906.05 L1710.1 916.966 L1724.65 925.243 L1739.2 935.797 L1753.75 946.908 L1768.3 957.92 L1782.85 968.226 L1797.4 981 L1811.95 990.508 L1826.5 998.894 L1841.05 1010.81 L1855.6 1021.72 L1870.15 1028.82 L1884.7 1033.44 L1899.25 1039.45 L1913.8 1044.85 L1928.35 1050.18 L1942.9 1050.99 L1957.45 1055.29 L1971.99 1059.38 L1986.54 1062.97 L2001.09 1064.74 L2015.64 1069.26 L2030.19 1075.25 L2044.74 1079.32 L2059.29 1083.8 L2073.84 1086.8 L2088.39 1090.9 L2102.94 1094.67 L2117.49 1098.07 L2132.04 1098.72 L2146.59 1102.24 L2161.14 1104.53 L2175.69 1107.58 L2190.24 1108.71 L2204.79 1111 L2219.34 1113.58 L2233.89 1116.91 L2248.44 1120.5 L2262.99 1122.64 L2277.53 1125.36 L2292.08 1127.61 L2292.08 1056.51 L2277.53 1050.2 L2262.99 1045.36 L2248.44 1038.14 L2233.89 1031.47 L2219.34 1025.11 L2204.79 1018.62 L2190.24 1009.69 L2175.69 1000.6 L2161.14 992.135 L2146.59 983.745 L2132.04 975.392 L2117.49 965.471 L2102.94 956.994 L2088.39 947.843 L2073.84 939.906 L2059.29 929.514 L2044.74 921.717 L2030.19 910.799 L2015.64 904.445 L2001.09 895.866 L1986.54 884.227 L1971.99 871.123 L1957.45 860.244 L1942.9 850.613 L1928.35 836.961 L1913.8 821.07 L1899.25 811.905 L1884.7 801.507 L1870.15 786.636 L1855.6 779.138 L1841.05 770.524 L1826.5 764.432 L1811.95 756.534 L1797.4 750.378 L1782.85 744.696 L1768.3 736.711 L1753.75 731.513 L1739.2 722.727 L1724.65 710.932 L1710.1 701.229 L1695.55 689.882 L1681 677.939 L1666.45 667.185 L1651.91 651.814 L1637.36 634.772 L1622.81 623.434 L1608.26 614.814 L1593.71 604.289 L1579.16 593.003 L1564.61 585.944 L1550.06 578.168 L1535.51 567.769 L1520.96 563.075 L1506.41 552.152 L1491.86 549.395 L1477.31 552.937 L1462.76 549.539 L1448.21 537.234 L1433.66 528.639 L1419.11 532.79 L1404.56 520.759 L1390.01 517.106 L1375.46 521.379 L1360.91 524.582 L1346.37 521.3 L1331.82 523.96 L1317.27 530.931 L1302.72 529.035 L1288.17 531.438 L1273.62 530.461 L1259.07 529.249 L1244.52 535.185 L1229.97 544.992 L1215.42 549.5 L1200.87 553.134 L1186.32 562.298 L1171.77 589.932 L1157.22 604.198 L1142.67 633.752 L1128.12 647.767 L1113.57 658.646 L1099.02 681.955 L1084.47 704.839 L1069.92 733.547 L1055.37 753.929 L1040.83 771.758 L1026.28 780.678 L1011.73 791.482 L997.176 824.325 L982.627 855.625 L968.077 879.316 L953.528 915.36 L938.978 933.505 L924.429 957.988 L909.879 976.718 L895.33 989.591 L880.78 998.546 L866.231 1007 L851.681 1017.87 L837.132 1029.17 L822.582 1038.86 L808.033 1045.63 L793.483 1052.07 L778.934 1056.94 L764.384 1063.39 L749.834 1067.41 L735.285 1070.05 L720.735 1074.7 L706.186 1076.93 L691.636 1079.14 L677.087 1081.07 L662.537 1082.33 L647.988 1083.59 L633.438 1084.64 L618.889 1085.92 L604.339 1086.83 L589.79 1087.71 L575.24 1088.03 L560.691 1088.68 L546.141 1089.24 L531.592 1089.6 L517.042 1089.85 L502.492 1090.21 L487.943 1090.28 L473.393 1090.46 L458.844 1090.58 L444.294 1090.79 L429.745 1090.88 L415.195 1090.96 L400.646 1090.98 L386.096 1091.15 L371.547 1091.2 L356.997 1091.24 L342.448 1091.24 L327.898 1091.29 L313.349 1091.3 L298.799 1091.32 L284.25 1091.33 L269.7 1091.34  Z" fill="#009af9" fill-rule="evenodd" fill-opacity="0.5"/>
<polyline clip-path="url(#clip902)" style="stroke:#009af9; stroke-linecap:round; stroke-linejoin:round; stroke-width:4; stroke-opacity:0.2; fill:none" points="269.7,1091.66 284.25,1091.64 298.799,1091.62 313.349,1091.6 327.898,1091.59 342.448,1091.57 356.997,1091.55 371.547,1091.53 386.096,1091.51 400.646,1091.47 415.195,1091.44 429.745,1091.4 444.294,1091.36 458.844,1091.28 473.393,1091.22 487.943,1091.15 502.492,1091.09 517.042,1090.95 531.592,1090.85 546.141,1090.73 560.691,1090.53 575.24,1090.28 589.79,1090.09 604.339,1089.76 618.889,1089.34 633.438,1088.8 647.988,1088.38 662.537,1087.8 677.087,1087.14 691.636,1086.16 706.186,1085.21 720.735,1084.1 735.285,1082.07 749.834,1080.8 764.384,1078.87 778.934,1076.24 793.483,1073.93 808.033,1071.05 822.582,1067.68 837.132,1063.1 851.681,1057.94 866.231,1052.86 880.78,1048.03 895.33,1042.55 909.879,1035.76 924.429,1026.49 938.978,1015.76 953.528,1005.37 968.077,989.062 982.627,974.813 997.176,959.319 1011.73,941.253 1026.28,929.896 1040.83,919.644 1055.37,906.973 1069.92,891.282 1084.47,871.376 1099.02,855.592 1113.57,835.966 1128.12,822.408 1142.67,806.852 1157.22,781.951 1171.77,766.566 1186.32,743.434 1200.87,730.717 1215.42,716.643 1229.97,699.87 1244.52,684.966 1259.07,675.907 1273.62,669.369 1288.17,664.157 1302.72,656.223 1317.27,651.825 1331.82,643.605 1346.37,642.618 1360.91,642.089 1375.46,641.05 1390.01,639.021 1404.56,642.449 1419.11,647.981 1433.66,647.639 1448.21,654.459 1462.76,662.715 1477.31,668.319 1491.86,670.286 1506.41,676.456 1520.96,683.286 1535.51,690.02 1550.06,698.634 1564.61,707.348 1579.16,712.263 1593.71,720.046 1608.26,731.684 1622.81,742.671 1637.36,753.73 1651.91,765.005 1666.45,777.755 1681,788.868 1695.55,797.966 1710.1,809.097 1724.65,818.088 1739.2,829.262 1753.75,839.21 1768.3,847.316 1782.85,856.461 1797.4,865.689 1811.95,873.521 1826.5,881.663 1841.05,890.664 1855.6,900.428 1870.15,907.726 1884.7,917.474 1899.25,925.68 1913.8,932.962 1928.35,943.57 1942.9,950.799 1957.45,957.768 1971.99,965.253 1986.54,973.6 2001.09,980.305 2015.64,986.853 2030.19,993.025 2044.74,1000.52 2059.29,1006.65 2073.84,1013.35 2088.39,1019.37 2102.94,1025.83 2117.49,1031.77 2132.04,1037.06 2146.59,1042.99 2161.14,1048.33 2175.69,1054.09 2190.24,1059.2 2204.79,1064.81 2219.34,1069.35 2233.89,1074.19 2248.44,1079.32 2262.99,1084 2277.53,1087.78 2292.08,1092.06 "/>
<path clip-path="url(#clip902)" d="M269.7 1091.89 L284.25 1091.92 L298.799 1091.93 L313.349 1091.95 L327.898 1091.96 L342.448 1091.99 L356.997 1092 L371.547 1092.01 L386.096 1092.02 L400.646 1092.02 L415.195 1092.03 L429.745 1092.03 L444.294 1092.05 L458.844 1092.06 L473.393 1092.08 L487.943 1092.07 L502.492 1092.08 L517.042 1092.08 L531.592 1092.07 L546.141 1092.05 L560.691 1092.06 L575.24 1092.05 L589.79 1092.02 L604.339 1092 L618.889 1091.98 L633.438 1091.98 L647.988 1091.97 L662.537 1091.9 L677.087 1091.85 L691.636 1091.8 L706.186 1091.77 L720.735 1091.74 L735.285 1091.71 L749.834 1091.66 L764.384 1091.65 L778.934 1091.68 L793.483 1091.66 L808.033 1091.71 L822.582 1091.66 L837.132 1091.64 L851.681 1091.66 L866.231 1091.63 L880.78 1091.44 L895.33 1091.16 L909.879 1091.01 L924.429 1090.63 L938.978 1090.88 L953.528 1090.81 L968.077 1090.87 L982.627 1090.4 L997.176 1090.01 L1011.73 1089.96 L1026.28 1089.32 L1040.83 1089.22 L1055.37 1089.2 L1069.92 1089.09 L1084.47 1087.51 L1099.02 1087.96 L1113.57 1086.44 L1128.12 1086.66 L1142.67 1087.34 L1157.22 1086.47 L1171.77 1087.87 L1186.32 1087.5 L1200.87 1088.84 L1215.42 1088.07 L1229.97 1084.73 L1244.52 1085.9 L1259.07 1092.55 L1273.62 1097.27 L1288.17 1095.81 L1302.72 1092.93 L1317.27 1097.63 L1331.82 1099.19 L1346.37 1102.33 L1360.91 1100.11 L1375.46 1101.37 L1390.01 1102.63 L1404.56 1104.88 L1419.11 1101.07 L1433.66 1102.4 L1448.21 1102 L1462.76 1103.23 L1477.31 1106.87 L1491.86 1107.06 L1506.41 1108.66 L1520.96 1107.92 L1535.51 1109.24 L1550.06 1111.92 L1564.61 1112.49 L1579.16 1109.41 L1593.71 1107.95 L1608.26 1109.72 L1622.81 1113 L1637.36 1113.49 L1651.91 1111.63 L1666.45 1111.04 L1681 1112.57 L1695.55 1110.79 L1710.1 1112.14 L1724.65 1110.6 L1739.2 1111.48 L1753.75 1111.2 L1768.3 1111.28 L1782.85 1112.03 L1797.4 1112.48 L1811.95 1111.66 L1826.5 1112.17 L1841.05 1114.02 L1855.6 1113.86 L1870.15 1114.12 L1884.7 1114.21 L1899.25 1115.99 L1913.8 1117.72 L1928.35 1119.99 L1942.9 1120.84 L1957.45 1121.82 L1971.99 1122.86 L1986.54 1125.36 L2001.09 1126.15 L2015.64 1127.47 L2030.19 1129.36 L2044.74 1132.32 L2059.29 1134.94 L2073.84 1137.22 L2088.39 1139.71 L2102.94 1142.15 L2117.49 1143.93 L2132.04 1144.94 L2146.59 1147.82 L2161.14 1150.19 L2175.69 1151.55 L2190.24 1154.06 L2204.79 1156.99 L2219.34 1158.77 L2233.89 1161.89 L2248.44 1164.81 L2262.99 1166.91 L2277.53 1169.41 L2292.08 1172.51 L2292.08 1125.52 L2277.53 1123.96 L2262.99 1123.08 L2248.44 1121.86 L2233.89 1120.08 L2219.34 1119.5 L2204.79 1117.86 L2190.24 1116.12 L2175.69 1114.89 L2161.14 1112.9 L2146.59 1111.96 L2132.04 1110.85 L2117.49 1109.39 L2102.94 1107.95 L2088.39 1106.44 L2073.84 1105.23 L2059.29 1103.71 L2044.74 1103.03 L2030.19 1101.56 L2015.64 1100.38 L2001.09 1099.15 L1986.54 1097.48 L1971.99 1096.05 L1957.45 1094.91 L1942.9 1093.27 L1928.35 1091.63 L1913.8 1089.85 L1899.25 1089.16 L1884.7 1088.33 L1870.15 1085.93 L1855.6 1083.7 L1841.05 1081.24 L1826.5 1079.84 L1811.95 1078.09 L1797.4 1075.93 L1782.85 1074.07 L1768.3 1072.17 L1753.75 1070.86 L1739.2 1068.64 L1724.65 1067.45 L1710.1 1063.91 L1695.55 1062.1 L1681 1059.36 L1666.45 1057.55 L1651.91 1053.9 L1637.36 1049.97 L1622.81 1046.77 L1608.26 1047.08 L1593.71 1043.18 L1579.16 1040.39 L1564.61 1036.56 L1550.06 1032.38 L1535.51 1032.63 L1520.96 1030.7 L1506.41 1027.19 L1491.86 1024.36 L1477.31 1023.03 L1462.76 1022.57 L1448.21 1022.77 L1433.66 1020.51 L1419.11 1020.88 L1404.56 1018.08 L1390.01 1018.87 L1375.46 1020.01 L1360.91 1020.59 L1346.37 1018.35 L1331.82 1020.22 L1317.27 1022.39 L1302.72 1025.72 L1288.17 1024.55 L1273.62 1023.49 L1259.07 1026.8 L1244.52 1031.92 L1229.97 1034.92 L1215.42 1034.6 L1200.87 1035.58 L1186.32 1037.86 L1171.77 1041.08 L1157.22 1043.87 L1142.67 1047.19 L1128.12 1049.8 L1113.57 1051.55 L1099.02 1053.42 L1084.47 1056.32 L1069.92 1058.34 L1055.37 1060.57 L1040.83 1062.3 L1026.28 1063.58 L1011.73 1063.73 L997.176 1066.75 L982.627 1069.46 L968.077 1071.24 L953.528 1074.16 L938.978 1076.31 L924.429 1078.34 L909.879 1079.84 L895.33 1080.94 L880.78 1081.65 L866.231 1082.23 L851.681 1083.11 L837.132 1084.17 L822.582 1085.07 L808.033 1085.76 L793.483 1086.48 L778.934 1087 L764.384 1087.59 L749.834 1088.11 L735.285 1088.4 L720.735 1088.88 L706.186 1089.2 L691.636 1089.46 L677.087 1089.74 L662.537 1089.92 L647.988 1090.13 L633.438 1090.3 L618.889 1090.5 L604.339 1090.66 L589.79 1090.79 L575.24 1090.87 L560.691 1090.97 L546.141 1091.07 L531.592 1091.13 L517.042 1091.2 L502.492 1091.28 L487.943 1091.3 L473.393 1091.37 L458.844 1091.4 L444.294 1091.44 L429.745 1091.49 L415.195 1091.5 L400.646 1091.49 L386.096 1091.46 L371.547 1091.41 L356.997 1091.35 L342.448 1091.27 L327.898 1091.23 L313.349 1091.17 L298.799 1091.09 L284.25 1090.96 L269.7 1090.87  Z" fill="#e26f46" fill-rule="evenodd" fill-opacity="0.5"/>
<polyline clip-path="url(#clip902)" style="stroke:#e26f46; stroke-linecap:round; stroke-linejoin:round; stroke-width:4; stroke-opacity:0.2; fill:none" points="269.7,1091.38 284.25,1091.44 298.799,1091.51 313.349,1091.56 327.898,1091.6 342.448,1091.63 356.997,1091.67 371.547,1091.71 386.096,1091.74 400.646,1091.75 415.195,1091.77 429.745,1091.76 444.294,1091.75 458.844,1091.73 473.393,1091.72 487.943,1091.69 502.492,1091.68 517.042,1091.64 531.592,1091.6 546.141,1091.56 560.691,1091.52 575.24,1091.46 589.79,1091.41 604.339,1091.33 618.889,1091.24 633.438,1091.14 647.988,1091.05 662.537,1090.91 677.087,1090.79 691.636,1090.63 706.186,1090.49 720.735,1090.31 735.285,1090.06 749.834,1089.88 764.384,1089.62 778.934,1089.34 793.483,1089.07 808.033,1088.73 822.582,1088.37 837.132,1087.9 851.681,1087.39 866.231,1086.93 880.78,1086.55 895.33,1086.05 909.879,1085.43 924.429,1084.48 938.978,1083.6 953.528,1082.48 968.077,1081.06 982.627,1079.93 997.176,1078.38 1011.73,1076.85 1026.28,1076.45 1040.83,1075.76 1055.37,1074.89 1069.92,1073.72 1084.47,1071.92 1099.02,1070.69 1113.57,1068.99 1128.12,1068.23 1142.67,1067.26 1157.22,1065.17 1171.77,1064.47 1186.32,1062.68 1200.87,1062.21 1215.42,1061.33 1229.97,1059.82 1244.52,1058.91 1259.07,1059.68 1273.62,1060.38 1288.17,1060.18 1302.72,1059.32 1317.27,1060.01 1331.82,1059.7 1346.37,1060.34 1360.91,1060.35 1375.46,1060.69 1390.01,1060.75 1404.56,1061.48 1419.11,1060.98 1433.66,1061.46 1448.21,1062.38 1462.76,1062.9 1477.31,1064.95 1491.86,1065.71 1506.41,1067.92 1520.96,1069.31 1535.51,1070.94 1550.06,1072.15 1564.61,1074.53 1579.16,1074.9 1593.71,1075.56 1608.26,1078.4 1622.81,1079.89 1637.36,1081.73 1651.91,1082.77 1666.45,1084.29 1681,1085.97 1695.55,1086.44 1710.1,1088.02 1724.65,1089.02 1739.2,1090.06 1753.75,1091.03 1768.3,1091.72 1782.85,1093.05 1797.4,1094.21 1811.95,1094.87 1826.5,1096 1841.05,1097.63 1855.6,1098.78 1870.15,1100.02 1884.7,1101.27 1899.25,1102.57 1913.8,1103.78 1928.35,1105.81 1942.9,1107.05 1957.45,1108.36 1971.99,1109.45 1986.54,1111.42 2001.09,1112.65 2015.64,1113.93 2030.19,1115.46 2044.74,1117.68 2059.29,1119.33 2073.84,1121.22 2088.39,1123.08 2102.94,1125.05 2117.49,1126.66 2132.04,1127.9 2146.59,1129.89 2161.14,1131.54 2175.69,1133.22 2190.24,1135.09 2204.79,1137.42 2219.34,1139.14 2233.89,1140.98 2248.44,1143.34 2262.99,1145 2277.53,1146.69 2292.08,1149.02 "/>
<circle clip-path="url(#clip902)" cx="269.7" cy="1091.94" r="7.2" fill="#008000" fill-rule="evenodd" fill-opacity="1" stroke="#000000" stroke-opacity="1" stroke-width="3.2"/>
<circle clip-path="url(#clip902)" cx="284.25" cy="1093.29" r="7.2" fill="#008000" fill-rule="evenodd" fill-opacity="1" stroke="#000000" stroke-opacity="1" stroke-width="3.2"/>
<circle clip-path="url(#clip902)" cx="298.799" cy="1093.54" r="7.2" fill="#008000" fill-rule="evenodd" fill-opacity="1" stroke="#000000" stroke-opacity="1" stroke-width="3.2"/>
<circle clip-path="url(#clip902)" cx="313.349" cy="1093.04" r="7.2" fill="#008000" fill-rule="evenodd" fill-opacity="1" stroke="#000000" stroke-opacity="1" stroke-width="3.2"/>
<circle clip-path="url(#clip902)" cx="327.898" cy="1091.85" r="7.2" fill="#008000" fill-rule="evenodd" fill-opacity="1" stroke="#000000" stroke-opacity="1" stroke-width="3.2"/>
<circle clip-path="url(#clip902)" cx="342.448" cy="1090.73" r="7.2" fill="#008000" fill-rule="evenodd" fill-opacity="1" stroke="#000000" stroke-opacity="1" stroke-width="3.2"/>
<circle clip-path="url(#clip902)" cx="356.997" cy="1090.14" r="7.2" fill="#008000" fill-rule="evenodd" fill-opacity="1" stroke="#000000" stroke-opacity="1" stroke-width="3.2"/>
<circle clip-path="url(#clip902)" cx="371.547" cy="1090.14" r="7.2" fill="#008000" fill-rule="evenodd" fill-opacity="1" stroke="#000000" stroke-opacity="1" stroke-width="3.2"/>
<circle clip-path="url(#clip902)" cx="386.096" cy="1090.72" r="7.2" fill="#008000" fill-rule="evenodd" fill-opacity="1" stroke="#000000" stroke-opacity="1" stroke-width="3.2"/>
<circle clip-path="url(#clip902)" cx="400.646" cy="1091.4" r="7.2" fill="#008000" fill-rule="evenodd" fill-opacity="1" stroke="#000000" stroke-opacity="1" stroke-width="3.2"/>
<circle clip-path="url(#clip902)" cx="415.195" cy="1091.72" r="7.2" fill="#008000" fill-rule="evenodd" fill-opacity="1" stroke="#000000" stroke-opacity="1" stroke-width="3.2"/>
<circle clip-path="url(#clip902)" cx="429.745" cy="1091.93" r="7.2" fill="#008000" fill-rule="evenodd" fill-opacity="1" stroke="#000000" stroke-opacity="1" stroke-width="3.2"/>
<circle clip-path="url(#clip902)" cx="444.294" cy="1091.95" r="7.2" fill="#008000" fill-rule="evenodd" fill-opacity="1" stroke="#000000" stroke-opacity="1" stroke-width="3.2"/>
<circle clip-path="url(#clip902)" cx="458.844" cy="1092.13" r="7.2" fill="#008000" fill-rule="evenodd" fill-opacity="1" stroke="#000000" stroke-opacity="1" stroke-width="3.2"/>
<circle clip-path="url(#clip902)" cx="473.393" cy="1092.37" r="7.2" fill="#008000" fill-rule="evenodd" fill-opacity="1" stroke="#000000" stroke-opacity="1" stroke-width="3.2"/>
<circle clip-path="url(#clip902)" cx="487.943" cy="1092.54" r="7.2" fill="#008000" fill-rule="evenodd" fill-opacity="1" stroke="#000000" stroke-opacity="1" stroke-width="3.2"/>
<circle clip-path="url(#clip902)" cx="502.492" cy="1092.61" r="7.2" fill="#008000" fill-rule="evenodd" fill-opacity="1" stroke="#000000" stroke-opacity="1" stroke-width="3.2"/>
<circle clip-path="url(#clip902)" cx="517.042" cy="1092.41" r="7.2" fill="#008000" fill-rule="evenodd" fill-opacity="1" stroke="#000000" stroke-opacity="1" stroke-width="3.2"/>
<circle clip-path="url(#clip902)" cx="531.592" cy="1091.7" r="7.2" fill="#008000" fill-rule="evenodd" fill-opacity="1" stroke="#000000" stroke-opacity="1" stroke-width="3.2"/>
<circle clip-path="url(#clip902)" cx="546.141" cy="1090.88" r="7.2" fill="#008000" fill-rule="evenodd" fill-opacity="1" stroke="#000000" stroke-opacity="1" stroke-width="3.2"/>
<circle clip-path="url(#clip902)" cx="560.691" cy="1090.09" r="7.2" fill="#008000" fill-rule="evenodd" fill-opacity="1" stroke="#000000" stroke-opacity="1" stroke-width="3.2"/>
<circle clip-path="url(#clip902)" cx="575.24" cy="1089.9" r="7.2" fill="#008000" fill-rule="evenodd" fill-opacity="1" stroke="#000000" stroke-opacity="1" stroke-width="3.2"/>
<circle clip-path="url(#clip902)" cx="589.79" cy="1090.42" r="7.2" fill="#008000" fill-rule="evenodd" fill-opacity="1" stroke="#000000" stroke-opacity="1" stroke-width="3.2"/>
<circle clip-path="url(#clip902)" cx="604.339" cy="1091.62" r="7.2" fill="#008000" fill-rule="evenodd" fill-opacity="1" stroke="#000000" stroke-opacity="1" stroke-width="3.2"/>
<circle clip-path="url(#clip902)" cx="618.889" cy="1092.88" r="7.2" fill="#008000" fill-rule="evenodd" fill-opacity="1" stroke="#000000" stroke-opacity="1" stroke-width="3.2"/>
<circle clip-path="url(#clip902)" cx="633.438" cy="1093.36" r="7.2" fill="#008000" fill-rule="evenodd" fill-opacity="1" stroke="#000000" stroke-opacity="1" stroke-width="3.2"/>
<circle clip-path="url(#clip902)" cx="647.988" cy="1092.64" r="7.2" fill="#008000" fill-rule="evenodd" fill-opacity="1" stroke="#000000" stroke-opacity="1" stroke-width="3.2"/>
<circle clip-path="url(#clip902)" cx="662.537" cy="1090.93" r="7.2" fill="#008000" fill-rule="evenodd" fill-opacity="1" stroke="#000000" stroke-opacity="1" stroke-width="3.2"/>
<circle clip-path="url(#clip902)" cx="677.087" cy="1089.17" r="7.2" fill="#008000" fill-rule="evenodd" fill-opacity="1" stroke="#000000" stroke-opacity="1" stroke-width="3.2"/>
<circle clip-path="url(#clip902)" cx="691.636" cy="1088.56" r="7.2" fill="#008000" fill-rule="evenodd" fill-opacity="1" stroke="#000000" stroke-opacity="1" stroke-width="3.2"/>
<circle clip-path="url(#clip902)" cx="706.186" cy="1089.12" r="7.2" fill="#008000" fill-rule="evenodd" fill-opacity="1" stroke="#000000" stroke-opacity="1" stroke-width="3.2"/>
<circle clip-path="url(#clip902)" cx="720.735" cy="1090.78" r="7.2" fill="#008000" fill-rule="evenodd" fill-opacity="1" stroke="#000000" stroke-opacity="1" stroke-width="3.2"/>
<circle clip-path="url(#clip902)" cx="735.285" cy="1092.46" r="7.2" fill="#008000" fill-rule="evenodd" fill-opacity="1" stroke="#000000" stroke-opacity="1" stroke-width="3.2"/>
<circle clip-path="url(#clip902)" cx="749.834" cy="1093.32" r="7.2" fill="#008000" fill-rule="evenodd" fill-opacity="1" stroke="#000000" stroke-opacity="1" stroke-width="3.2"/>
<circle clip-path="url(#clip902)" cx="764.384" cy="1093.4" r="7.2" fill="#008000" fill-rule="evenodd" fill-opacity="1" stroke="#000000" stroke-opacity="1" stroke-width="3.2"/>
<circle clip-path="url(#clip902)" cx="778.934" cy="1092.53" r="7.2" fill="#008000" fill-rule="evenodd" fill-opacity="1" stroke="#000000" stroke-opacity="1" stroke-width="3.2"/>
<circle clip-path="url(#clip902)" cx="793.483" cy="1092.02" r="7.2" fill="#008000" fill-rule="evenodd" fill-opacity="1" stroke="#000000" stroke-opacity="1" stroke-width="3.2"/>
<circle clip-path="url(#clip902)" cx="808.033" cy="1091.87" r="7.2" fill="#008000" fill-rule="evenodd" fill-opacity="1" stroke="#000000" stroke-opacity="1" stroke-width="3.2"/>
<circle clip-path="url(#clip902)" cx="822.582" cy="1092.05" r="7.2" fill="#008000" fill-rule="evenodd" fill-opacity="1" stroke="#000000" stroke-opacity="1" stroke-width="3.2"/>
<circle clip-path="url(#clip902)" cx="837.132" cy="1092.93" r="7.2" fill="#008000" fill-rule="evenodd" fill-opacity="1" stroke="#000000" stroke-opacity="1" stroke-width="3.2"/>
<circle clip-path="url(#clip902)" cx="851.681" cy="1093.32" r="7.2" fill="#008000" fill-rule="evenodd" fill-opacity="1" stroke="#000000" stroke-opacity="1" stroke-width="3.2"/>
<circle clip-path="url(#clip902)" cx="866.231" cy="1092.37" r="7.2" fill="#008000" fill-rule="evenodd" fill-opacity="1" stroke="#000000" stroke-opacity="1" stroke-width="3.2"/>
<circle clip-path="url(#clip902)" cx="880.78" cy="1091.02" r="7.2" fill="#008000" fill-rule="evenodd" fill-opacity="1" stroke="#000000" stroke-opacity="1" stroke-width="3.2"/>
<circle clip-path="url(#clip902)" cx="895.33" cy="1089.78" r="7.2" fill="#008000" fill-rule="evenodd" fill-opacity="1" stroke="#000000" stroke-opacity="1" stroke-width="3.2"/>
<circle clip-path="url(#clip902)" cx="909.879" cy="1087.25" r="7.2" fill="#008000" fill-rule="evenodd" fill-opacity="1" stroke="#000000" stroke-opacity="1" stroke-width="3.2"/>
<circle clip-path="url(#clip902)" cx="924.429" cy="1083.34" r="7.2" fill="#008000" fill-rule="evenodd" fill-opacity="1" stroke="#000000" stroke-opacity="1" stroke-width="3.2"/>
<circle clip-path="url(#clip902)" cx="938.978" cy="1080.21" r="7.2" fill="#008000" fill-rule="evenodd" fill-opacity="1" stroke="#000000" stroke-opacity="1" stroke-width="3.2"/>
<circle clip-path="url(#clip902)" cx="953.528" cy="1075.1" r="7.2" fill="#008000" fill-rule="evenodd" fill-opacity="1" stroke="#000000" stroke-opacity="1" stroke-width="3.2"/>
<circle clip-path="url(#clip902)" cx="968.077" cy="1065.66" r="7.2" fill="#008000" fill-rule="evenodd" fill-opacity="1" stroke="#000000" stroke-opacity="1" stroke-width="3.2"/>
<circle clip-path="url(#clip902)" cx="982.627" cy="1057.53" r="7.2" fill="#008000" fill-rule="evenodd" fill-opacity="1" stroke="#000000" stroke-opacity="1" stroke-width="3.2"/>
<circle clip-path="url(#clip902)" cx="997.176" cy="1045.65" r="7.2" fill="#008000" fill-rule="evenodd" fill-opacity="1" stroke="#000000" stroke-opacity="1" stroke-width="3.2"/>
<circle clip-path="url(#clip902)" cx="1011.73" cy="1030.73" r="7.2" fill="#008000" fill-rule="evenodd" fill-opacity="1" stroke="#000000" stroke-opacity="1" stroke-width="3.2"/>
<circle clip-path="url(#clip902)" cx="1026.28" cy="1015.16" r="7.2" fill="#008000" fill-rule="evenodd" fill-opacity="1" stroke="#000000" stroke-opacity="1" stroke-width="3.2"/>
<circle clip-path="url(#clip902)" cx="1040.83" cy="998.439" r="7.2" fill="#008000" fill-rule="evenodd" fill-opacity="1" stroke="#000000" stroke-opacity="1" stroke-width="3.2"/>
<circle clip-path="url(#clip902)" cx="1055.37" cy="977.96" r="7.2" fill="#008000" fill-rule="evenodd" fill-opacity="1" stroke="#000000" stroke-opacity="1" stroke-width="3.2"/>
<circle clip-path="url(#clip902)" cx="1069.92" cy="949.43" r="7.2" fill="#008000" fill-rule="evenodd" fill-opacity="1" stroke="#000000" stroke-opacity="1" stroke-width="3.2"/>
<circle clip-path="url(#clip902)" cx="1084.47" cy="907.889" r="7.2" fill="#008000" fill-rule="evenodd" fill-opacity="1" stroke="#000000" stroke-opacity="1" stroke-width="3.2"/>
<circle clip-path="url(#clip902)" cx="1099.02" cy="847.911" r="7.2" fill="#008000" fill-rule="evenodd" fill-opacity="1" stroke="#000000" stroke-opacity="1" stroke-width="3.2"/>
<circle clip-path="url(#clip902)" cx="1113.57" cy="768.756" r="7.2" fill="#008000" fill-rule="evenodd" fill-opacity="1" stroke="#000000" stroke-opacity="1" stroke-width="3.2"/>
<circle clip-path="url(#clip902)" cx="1128.12" cy="680.728" r="7.2" fill="#008000" fill-rule="evenodd" fill-opacity="1" stroke="#000000" stroke-opacity="1" stroke-width="3.2"/>
<circle clip-path="url(#clip902)" cx="1142.67" cy="588.224" r="7.2" fill="#008000" fill-rule="evenodd" fill-opacity="1" stroke="#000000" stroke-opacity="1" stroke-width="3.2"/>
<circle clip-path="url(#clip902)" cx="1157.22" cy="507.022" r="7.2" fill="#008000" fill-rule="evenodd" fill-opacity="1" stroke="#000000" stroke-opacity="1" stroke-width="3.2"/>
<circle clip-path="url(#clip902)" cx="1171.77" cy="447.237" r="7.2" fill="#008000" fill-rule="evenodd" fill-opacity="1" stroke="#000000" stroke-opacity="1" stroke-width="3.2"/>
<circle clip-path="url(#clip902)" cx="1186.32" cy="410.789" r="7.2" fill="#008000" fill-rule="evenodd" fill-opacity="1" stroke="#000000" stroke-opacity="1" stroke-width="3.2"/>
<circle clip-path="url(#clip902)" cx="1200.87" cy="393.08" r="7.2" fill="#008000" fill-rule="evenodd" fill-opacity="1" stroke="#000000" stroke-opacity="1" stroke-width="3.2"/>
<circle clip-path="url(#clip902)" cx="1215.42" cy="383.466" r="7.2" fill="#008000" fill-rule="evenodd" fill-opacity="1" stroke="#000000" stroke-opacity="1" stroke-width="3.2"/>
<circle clip-path="url(#clip902)" cx="1229.97" cy="370.953" r="7.2" fill="#008000" fill-rule="evenodd" fill-opacity="1" stroke="#000000" stroke-opacity="1" stroke-width="3.2"/>
<circle clip-path="url(#clip902)" cx="1244.52" cy="345.348" r="7.2" fill="#008000" fill-rule="evenodd" fill-opacity="1" stroke="#000000" stroke-opacity="1" stroke-width="3.2"/>
<circle clip-path="url(#clip902)" cx="1259.07" cy="306.111" r="7.2" fill="#008000" fill-rule="evenodd" fill-opacity="1" stroke="#000000" stroke-opacity="1" stroke-width="3.2"/>
<circle clip-path="url(#clip902)" cx="1273.62" cy="264.944" r="7.2" fill="#008000" fill-rule="evenodd" fill-opacity="1" stroke="#000000" stroke-opacity="1" stroke-width="3.2"/>
<circle clip-path="url(#clip902)" cx="1288.17" cy="225.027" r="7.2" fill="#008000" fill-rule="evenodd" fill-opacity="1" stroke="#000000" stroke-opacity="1" stroke-width="3.2"/>
<circle clip-path="url(#clip902)" cx="1302.72" cy="198.315" r="7.2" fill="#008000" fill-rule="evenodd" fill-opacity="1" stroke="#000000" stroke-opacity="1" stroke-width="3.2"/>
<circle clip-path="url(#clip902)" cx="1317.27" cy="194.601" r="7.2" fill="#008000" fill-rule="evenodd" fill-opacity="1" stroke="#000000" stroke-opacity="1" stroke-width="3.2"/>
<circle clip-path="url(#clip902)" cx="1331.82" cy="206.246" r="7.2" fill="#008000" fill-rule="evenodd" fill-opacity="1" stroke="#000000" stroke-opacity="1" stroke-width="3.2"/>
<circle clip-path="url(#clip902)" cx="1346.37" cy="224.912" r="7.2" fill="#008000" fill-rule="evenodd" fill-opacity="1" stroke="#000000" stroke-opacity="1" stroke-width="3.2"/>
<circle clip-path="url(#clip902)" cx="1360.91" cy="239.914" r="7.2" fill="#008000" fill-rule="evenodd" fill-opacity="1" stroke="#000000" stroke-opacity="1" stroke-width="3.2"/>
<circle clip-path="url(#clip902)" cx="1375.46" cy="238.839" r="7.2" fill="#008000" fill-rule="evenodd" fill-opacity="1" stroke="#000000" stroke-opacity="1" stroke-width="3.2"/>
<circle clip-path="url(#clip902)" cx="1390.01" cy="215.486" r="7.2" fill="#008000" fill-rule="evenodd" fill-opacity="1" stroke="#000000" stroke-opacity="1" stroke-width="3.2"/>
<circle clip-path="url(#clip902)" cx="1404.56" cy="175.113" r="7.2" fill="#008000" fill-rule="evenodd" fill-opacity="1" stroke="#000000" stroke-opacity="1" stroke-width="3.2"/>
<circle clip-path="url(#clip902)" cx="1419.11" cy="132.415" r="7.2" fill="#008000" fill-rule="evenodd" fill-opacity="1" stroke="#000000" stroke-opacity="1" stroke-width="3.2"/>
<circle clip-path="url(#clip902)" cx="1433.66" cy="98.0075" r="7.2" fill="#008000" fill-rule="evenodd" fill-opacity="1" stroke="#000000" stroke-opacity="1" stroke-width="3.2"/>
<circle clip-path="url(#clip902)" cx="1448.21" cy="87.9763" r="7.2" fill="#008000" fill-rule="evenodd" fill-opacity="1" stroke="#000000" stroke-opacity="1" stroke-width="3.2"/>
<circle clip-path="url(#clip902)" cx="1462.76" cy="108.926" r="7.2" fill="#008000" fill-rule="evenodd" fill-opacity="1" stroke="#000000" stroke-opacity="1" stroke-width="3.2"/>
<circle clip-path="url(#clip902)" cx="1477.31" cy="148.755" r="7.2" fill="#008000" fill-rule="evenodd" fill-opacity="1" stroke="#000000" stroke-opacity="1" stroke-width="3.2"/>
<circle clip-path="url(#clip902)" cx="1491.86" cy="197.149" r="7.2" fill="#008000" fill-rule="evenodd" fill-opacity="1" stroke="#000000" stroke-opacity="1" stroke-width="3.2"/>
<circle clip-path="url(#clip902)" cx="1506.41" cy="238.717" r="7.2" fill="#008000" fill-rule="evenodd" fill-opacity="1" stroke="#000000" stroke-opacity="1" stroke-width="3.2"/>
<circle clip-path="url(#clip902)" cx="1520.96" cy="257.432" r="7.2" fill="#008000" fill-rule="evenodd" fill-opacity="1" stroke="#000000" stroke-opacity="1" stroke-width="3.2"/>
<circle clip-path="url(#clip902)" cx="1535.51" cy="254.967" r="7.2" fill="#008000" fill-rule="evenodd" fill-opacity="1" stroke="#000000" stroke-opacity="1" stroke-width="3.2"/>
<circle clip-path="url(#clip902)" cx="1550.06" cy="241.533" r="7.2" fill="#008000" fill-rule="evenodd" fill-opacity="1" stroke="#000000" stroke-opacity="1" stroke-width="3.2"/>
<circle clip-path="url(#clip902)" cx="1564.61" cy="231.503" r="7.2" fill="#008000" fill-rule="evenodd" fill-opacity="1" stroke="#000000" stroke-opacity="1" stroke-width="3.2"/>
<circle clip-path="url(#clip902)" cx="1579.16" cy="235.239" r="7.2" fill="#008000" fill-rule="evenodd" fill-opacity="1" stroke="#000000" stroke-opacity="1" stroke-width="3.2"/>
<circle clip-path="url(#clip902)" cx="1593.71" cy="259.556" r="7.2" fill="#008000" fill-rule="evenodd" fill-opacity="1" stroke="#000000" stroke-opacity="1" stroke-width="3.2"/>
<circle clip-path="url(#clip902)" cx="1608.26" cy="302.814" r="7.2" fill="#008000" fill-rule="evenodd" fill-opacity="1" stroke="#000000" stroke-opacity="1" stroke-width="3.2"/>
<circle clip-path="url(#clip902)" cx="1622.81" cy="350.622" r="7.2" fill="#008000" fill-rule="evenodd" fill-opacity="1" stroke="#000000" stroke-opacity="1" stroke-width="3.2"/>
<circle clip-path="url(#clip902)" cx="1637.36" cy="401.129" r="7.2" fill="#008000" fill-rule="evenodd" fill-opacity="1" stroke="#000000" stroke-opacity="1" stroke-width="3.2"/>
<circle clip-path="url(#clip902)" cx="1651.91" cy="449.43" r="7.2" fill="#008000" fill-rule="evenodd" fill-opacity="1" stroke="#000000" stroke-opacity="1" stroke-width="3.2"/>
<circle clip-path="url(#clip902)" cx="1666.45" cy="487.888" r="7.2" fill="#008000" fill-rule="evenodd" fill-opacity="1" stroke="#000000" stroke-opacity="1" stroke-width="3.2"/>
<circle clip-path="url(#clip902)" cx="1681" cy="520.244" r="7.2" fill="#008000" fill-rule="evenodd" fill-opacity="1" stroke="#000000" stroke-opacity="1" stroke-width="3.2"/>
<circle clip-path="url(#clip902)" cx="1695.55" cy="547.386" r="7.2" fill="#008000" fill-rule="evenodd" fill-opacity="1" stroke="#000000" stroke-opacity="1" stroke-width="3.2"/>
<circle clip-path="url(#clip902)" cx="1710.1" cy="572.471" r="7.2" fill="#008000" fill-rule="evenodd" fill-opacity="1" stroke="#000000" stroke-opacity="1" stroke-width="3.2"/>
<circle clip-path="url(#clip902)" cx="1724.65" cy="601.56" r="7.2" fill="#008000" fill-rule="evenodd" fill-opacity="1" stroke="#000000" stroke-opacity="1" stroke-width="3.2"/>
<circle clip-path="url(#clip902)" cx="1739.2" cy="639.799" r="7.2" fill="#008000" fill-rule="evenodd" fill-opacity="1" stroke="#000000" stroke-opacity="1" stroke-width="3.2"/>
<circle clip-path="url(#clip902)" cx="1753.75" cy="693.239" r="7.2" fill="#008000" fill-rule="evenodd" fill-opacity="1" stroke="#000000" stroke-opacity="1" stroke-width="3.2"/>
<circle clip-path="url(#clip902)" cx="1768.3" cy="756.629" r="7.2" fill="#008000" fill-rule="evenodd" fill-opacity="1" stroke="#000000" stroke-opacity="1" stroke-width="3.2"/>
<circle clip-path="url(#clip902)" cx="1782.85" cy="827.991" r="7.2" fill="#008000" fill-rule="evenodd" fill-opacity="1" stroke="#000000" stroke-opacity="1" stroke-width="3.2"/>
<circle clip-path="url(#clip902)" cx="1797.4" cy="897.654" r="7.2" fill="#008000" fill-rule="evenodd" fill-opacity="1" stroke="#000000" stroke-opacity="1" stroke-width="3.2"/>
<circle clip-path="url(#clip902)" cx="1811.95" cy="952.237" r="7.2" fill="#008000" fill-rule="evenodd" fill-opacity="1" stroke="#000000" stroke-opacity="1" stroke-width="3.2"/>
<circle clip-path="url(#clip902)" cx="1826.5" cy="990.492" r="7.2" fill="#008000" fill-rule="evenodd" fill-opacity="1" stroke="#000000" stroke-opacity="1" stroke-width="3.2"/>
<circle clip-path="url(#clip902)" cx="1841.05" cy="1012.49" r="7.2" fill="#008000" fill-rule="evenodd" fill-opacity="1" stroke="#000000" stroke-opacity="1" stroke-width="3.2"/>
<circle clip-path="url(#clip902)" cx="1855.6" cy="1021.76" r="7.2" fill="#008000" fill-rule="evenodd" fill-opacity="1" stroke="#000000" stroke-opacity="1" stroke-width="3.2"/>
<circle clip-path="url(#clip902)" cx="1870.15" cy="1024.81" r="7.2" fill="#008000" fill-rule="evenodd" fill-opacity="1" stroke="#000000" stroke-opacity="1" stroke-width="3.2"/>
<circle clip-path="url(#clip902)" cx="1884.7" cy="1026.34" r="7.2" fill="#008000" fill-rule="evenodd" fill-opacity="1" stroke="#000000" stroke-opacity="1" stroke-width="3.2"/>
<circle clip-path="url(#clip902)" cx="1899.25" cy="1027.09" r="7.2" fill="#008000" fill-rule="evenodd" fill-opacity="1" stroke="#000000" stroke-opacity="1" stroke-width="3.2"/>
<circle clip-path="url(#clip902)" cx="1913.8" cy="1027.18" r="7.2" fill="#008000" fill-rule="evenodd" fill-opacity="1" stroke="#000000" stroke-opacity="1" stroke-width="3.2"/>
<circle clip-path="url(#clip902)" cx="1928.35" cy="1030.7" r="7.2" fill="#008000" fill-rule="evenodd" fill-opacity="1" stroke="#000000" stroke-opacity="1" stroke-width="3.2"/>
<circle clip-path="url(#clip902)" cx="1942.9" cy="1038.98" r="7.2" fill="#008000" fill-rule="evenodd" fill-opacity="1" stroke="#000000" stroke-opacity="1" stroke-width="3.2"/>
<circle clip-path="url(#clip902)" cx="1957.45" cy="1049.27" r="7.2" fill="#008000" fill-rule="evenodd" fill-opacity="1" stroke="#000000" stroke-opacity="1" stroke-width="3.2"/>
<circle clip-path="url(#clip902)" cx="1971.99" cy="1064.39" r="7.2" fill="#008000" fill-rule="evenodd" fill-opacity="1" stroke="#000000" stroke-opacity="1" stroke-width="3.2"/>
<circle clip-path="url(#clip902)" cx="1986.54" cy="1079.55" r="7.2" fill="#008000" fill-rule="evenodd" fill-opacity="1" stroke="#000000" stroke-opacity="1" stroke-width="3.2"/>
<circle clip-path="url(#clip902)" cx="2001.09" cy="1090.66" r="7.2" fill="#008000" fill-rule="evenodd" fill-opacity="1" stroke="#000000" stroke-opacity="1" stroke-width="3.2"/>
<circle clip-path="url(#clip902)" cx="2015.64" cy="1096.6" r="7.2" fill="#008000" fill-rule="evenodd" fill-opacity="1" stroke="#000000" stroke-opacity="1" stroke-width="3.2"/>
<circle clip-path="url(#clip902)" cx="2030.19" cy="1098.25" r="7.2" fill="#008000" fill-rule="evenodd" fill-opacity="1" stroke="#000000" stroke-opacity="1" stroke-width="3.2"/>
<circle clip-path="url(#clip902)" cx="2044.74" cy="1095.85" r="7.2" fill="#008000" fill-rule="evenodd" fill-opacity="1" stroke="#000000" stroke-opacity="1" stroke-width="3.2"/>
<circle clip-path="url(#clip902)" cx="2059.29" cy="1092.32" r="7.2" fill="#008000" fill-rule="evenodd" fill-opacity="1" stroke="#000000" stroke-opacity="1" stroke-width="3.2"/>
<circle clip-path="url(#clip902)" cx="2073.84" cy="1089.39" r="7.2" fill="#008000" fill-rule="evenodd" fill-opacity="1" stroke="#000000" stroke-opacity="1" stroke-width="3.2"/>
<circle clip-path="url(#clip902)" cx="2088.39" cy="1088.65" r="7.2" fill="#008000" fill-rule="evenodd" fill-opacity="1" stroke="#000000" stroke-opacity="1" stroke-width="3.2"/>
<circle clip-path="url(#clip902)" cx="2102.94" cy="1089.03" r="7.2" fill="#008000" fill-rule="evenodd" fill-opacity="1" stroke="#000000" stroke-opacity="1" stroke-width="3.2"/>
<circle clip-path="url(#clip902)" cx="2117.49" cy="1090.64" r="7.2" fill="#008000" fill-rule="evenodd" fill-opacity="1" stroke="#000000" stroke-opacity="1" stroke-width="3.2"/>
<circle clip-path="url(#clip902)" cx="2132.04" cy="1092.54" r="7.2" fill="#008000" fill-rule="evenodd" fill-opacity="1" stroke="#000000" stroke-opacity="1" stroke-width="3.2"/>
<circle clip-path="url(#clip902)" cx="2146.59" cy="1094.03" r="7.2" fill="#008000" fill-rule="evenodd" fill-opacity="1" stroke="#000000" stroke-opacity="1" stroke-width="3.2"/>
<circle clip-path="url(#clip902)" cx="2161.14" cy="1094.93" r="7.2" fill="#008000" fill-rule="evenodd" fill-opacity="1" stroke="#000000" stroke-opacity="1" stroke-width="3.2"/>
<circle clip-path="url(#clip902)" cx="2175.69" cy="1095.04" r="7.2" fill="#008000" fill-rule="evenodd" fill-opacity="1" stroke="#000000" stroke-opacity="1" stroke-width="3.2"/>
<circle clip-path="url(#clip902)" cx="2190.24" cy="1093.49" r="7.2" fill="#008000" fill-rule="evenodd" fill-opacity="1" stroke="#000000" stroke-opacity="1" stroke-width="3.2"/>
<circle clip-path="url(#clip902)" cx="2204.79" cy="1091.1" r="7.2" fill="#008000" fill-rule="evenodd" fill-opacity="1" stroke="#000000" stroke-opacity="1" stroke-width="3.2"/>
<circle clip-path="url(#clip902)" cx="2219.34" cy="1089.37" r="7.2" fill="#008000" fill-rule="evenodd" fill-opacity="1" stroke="#000000" stroke-opacity="1" stroke-width="3.2"/>
<circle clip-path="url(#clip902)" cx="2233.89" cy="1089.8" r="7.2" fill="#008000" fill-rule="evenodd" fill-opacity="1" stroke="#000000" stroke-opacity="1" stroke-width="3.2"/>
<circle clip-path="url(#clip902)" cx="2248.44" cy="1092.58" r="7.2" fill="#008000" fill-rule="evenodd" fill-opacity="1" stroke="#000000" stroke-opacity="1" stroke-width="3.2"/>
<circle clip-path="url(#clip902)" cx="2262.99" cy="1096.97" r="7.2" fill="#008000" fill-rule="evenodd" fill-opacity="1" stroke="#000000" stroke-opacity="1" stroke-width="3.2"/>
<circle clip-path="url(#clip902)" cx="2277.53" cy="1100.84" r="7.2" fill="#008000" fill-rule="evenodd" fill-opacity="1" stroke="#000000" stroke-opacity="1" stroke-width="3.2"/>
<circle clip-path="url(#clip902)" cx="2292.08" cy="1102.8" r="7.2" fill="#008000" fill-rule="evenodd" fill-opacity="1" stroke="#000000" stroke-opacity="1" stroke-width="3.2"/>
<circle clip-path="url(#clip902)" cx="269.7" cy="1090.64" r="7.2" fill="#008000" fill-rule="evenodd" fill-opacity="1" stroke="#000000" stroke-opacity="1" stroke-width="3.2"/>
<circle clip-path="url(#clip902)" cx="284.25" cy="1090.93" r="7.2" fill="#008000" fill-rule="evenodd" fill-opacity="1" stroke="#000000" stroke-opacity="1" stroke-width="3.2"/>
<circle clip-path="url(#clip902)" cx="298.799" cy="1092.04" r="7.2" fill="#008000" fill-rule="evenodd" fill-opacity="1" stroke="#000000" stroke-opacity="1" stroke-width="3.2"/>
<circle clip-path="url(#clip902)" cx="313.349" cy="1093.04" r="7.2" fill="#008000" fill-rule="evenodd" fill-opacity="1" stroke="#000000" stroke-opacity="1" stroke-width="3.2"/>
<circle clip-path="url(#clip902)" cx="327.898" cy="1093.36" r="7.2" fill="#008000" fill-rule="evenodd" fill-opacity="1" stroke="#000000" stroke-opacity="1" stroke-width="3.2"/>
<circle clip-path="url(#clip902)" cx="342.448" cy="1092.35" r="7.2" fill="#008000" fill-rule="evenodd" fill-opacity="1" stroke="#000000" stroke-opacity="1" stroke-width="3.2"/>
<circle clip-path="url(#clip902)" cx="356.997" cy="1090.71" r="7.2" fill="#008000" fill-rule="evenodd" fill-opacity="1" stroke="#000000" stroke-opacity="1" stroke-width="3.2"/>
<circle clip-path="url(#clip902)" cx="371.547" cy="1089.4" r="7.2" fill="#008000" fill-rule="evenodd" fill-opacity="1" stroke="#000000" stroke-opacity="1" stroke-width="3.2"/>
<circle clip-path="url(#clip902)" cx="386.096" cy="1089.48" r="7.2" fill="#008000" fill-rule="evenodd" fill-opacity="1" stroke="#000000" stroke-opacity="1" stroke-width="3.2"/>
<circle clip-path="url(#clip902)" cx="400.646" cy="1090.65" r="7.2" fill="#008000" fill-rule="evenodd" fill-opacity="1" stroke="#000000" stroke-opacity="1" stroke-width="3.2"/>
<circle clip-path="url(#clip902)" cx="415.195" cy="1092.46" r="7.2" fill="#008000" fill-rule="evenodd" fill-opacity="1" stroke="#000000" stroke-opacity="1" stroke-width="3.2"/>
<circle clip-path="url(#clip902)" cx="429.745" cy="1093.72" r="7.2" fill="#008000" fill-rule="evenodd" fill-opacity="1" stroke="#000000" stroke-opacity="1" stroke-width="3.2"/>
<circle clip-path="url(#clip902)" cx="444.294" cy="1093.66" r="7.2" fill="#008000" fill-rule="evenodd" fill-opacity="1" stroke="#000000" stroke-opacity="1" stroke-width="3.2"/>
<circle clip-path="url(#clip902)" cx="458.844" cy="1092.56" r="7.2" fill="#008000" fill-rule="evenodd" fill-opacity="1" stroke="#000000" stroke-opacity="1" stroke-width="3.2"/>
<circle clip-path="url(#clip902)" cx="473.393" cy="1090.54" r="7.2" fill="#008000" fill-rule="evenodd" fill-opacity="1" stroke="#000000" stroke-opacity="1" stroke-width="3.2"/>
<circle clip-path="url(#clip902)" cx="487.943" cy="1088.79" r="7.2" fill="#008000" fill-rule="evenodd" fill-opacity="1" stroke="#000000" stroke-opacity="1" stroke-width="3.2"/>
<circle clip-path="url(#clip902)" cx="502.492" cy="1087.86" r="7.2" fill="#008000" fill-rule="evenodd" fill-opacity="1" stroke="#000000" stroke-opacity="1" stroke-width="3.2"/>
<circle clip-path="url(#clip902)" cx="517.042" cy="1088.5" r="7.2" fill="#008000" fill-rule="evenodd" fill-opacity="1" stroke="#000000" stroke-opacity="1" stroke-width="3.2"/>
<circle clip-path="url(#clip902)" cx="531.592" cy="1090.83" r="7.2" fill="#008000" fill-rule="evenodd" fill-opacity="1" stroke="#000000" stroke-opacity="1" stroke-width="3.2"/>
<circle clip-path="url(#clip902)" cx="546.141" cy="1094.58" r="7.2" fill="#008000" fill-rule="evenodd" fill-opacity="1" stroke="#000000" stroke-opacity="1" stroke-width="3.2"/>
<circle clip-path="url(#clip902)" cx="560.691" cy="1098.51" r="7.2" fill="#008000" fill-rule="evenodd" fill-opacity="1" stroke="#000000" stroke-opacity="1" stroke-width="3.2"/>
<circle clip-path="url(#clip902)" cx="575.24" cy="1101.22" r="7.2" fill="#008000" fill-rule="evenodd" fill-opacity="1" stroke="#000000" stroke-opacity="1" stroke-width="3.2"/>
<circle clip-path="url(#clip902)" cx="589.79" cy="1101.19" r="7.2" fill="#008000" fill-rule="evenodd" fill-opacity="1" stroke="#000000" stroke-opacity="1" stroke-width="3.2"/>
<circle clip-path="url(#clip902)" cx="604.339" cy="1097.95" r="7.2" fill="#008000" fill-rule="evenodd" fill-opacity="1" stroke="#000000" stroke-opacity="1" stroke-width="3.2"/>
<circle clip-path="url(#clip902)" cx="618.889" cy="1092.6" r="7.2" fill="#008000" fill-rule="evenodd" fill-opacity="1" stroke="#000000" stroke-opacity="1" stroke-width="3.2"/>
<circle clip-path="url(#clip902)" cx="633.438" cy="1087.12" r="7.2" fill="#008000" fill-rule="evenodd" fill-opacity="1" stroke="#000000" stroke-opacity="1" stroke-width="3.2"/>
<circle clip-path="url(#clip902)" cx="647.988" cy="1083.75" r="7.2" fill="#008000" fill-rule="evenodd" fill-opacity="1" stroke="#000000" stroke-opacity="1" stroke-width="3.2"/>
<circle clip-path="url(#clip902)" cx="662.537" cy="1083.07" r="7.2" fill="#008000" fill-rule="evenodd" fill-opacity="1" stroke="#000000" stroke-opacity="1" stroke-width="3.2"/>
<circle clip-path="url(#clip902)" cx="677.087" cy="1084.72" r="7.2" fill="#008000" fill-rule="evenodd" fill-opacity="1" stroke="#000000" stroke-opacity="1" stroke-width="3.2"/>
<circle clip-path="url(#clip902)" cx="691.636" cy="1087.2" r="7.2" fill="#008000" fill-rule="evenodd" fill-opacity="1" stroke="#000000" stroke-opacity="1" stroke-width="3.2"/>
<circle clip-path="url(#clip902)" cx="706.186" cy="1089.47" r="7.2" fill="#008000" fill-rule="evenodd" fill-opacity="1" stroke="#000000" stroke-opacity="1" stroke-width="3.2"/>
<circle clip-path="url(#clip902)" cx="720.735" cy="1091.78" r="7.2" fill="#008000" fill-rule="evenodd" fill-opacity="1" stroke="#000000" stroke-opacity="1" stroke-width="3.2"/>
<circle clip-path="url(#clip902)" cx="735.285" cy="1094.15" r="7.2" fill="#008000" fill-rule="evenodd" fill-opacity="1" stroke="#000000" stroke-opacity="1" stroke-width="3.2"/>
<circle clip-path="url(#clip902)" cx="749.834" cy="1096.86" r="7.2" fill="#008000" fill-rule="evenodd" fill-opacity="1" stroke="#000000" stroke-opacity="1" stroke-width="3.2"/>
<circle clip-path="url(#clip902)" cx="764.384" cy="1099.45" r="7.2" fill="#008000" fill-rule="evenodd" fill-opacity="1" stroke="#000000" stroke-opacity="1" stroke-width="3.2"/>
<circle clip-path="url(#clip902)" cx="778.934" cy="1100.08" r="7.2" fill="#008000" fill-rule="evenodd" fill-opacity="1" stroke="#000000" stroke-opacity="1" stroke-width="3.2"/>
<circle clip-path="url(#clip902)" cx="793.483" cy="1098.13" r="7.2" fill="#008000" fill-rule="evenodd" fill-opacity="1" stroke="#000000" stroke-opacity="1" stroke-width="3.2"/>
<circle clip-path="url(#clip902)" cx="808.033" cy="1093.46" r="7.2" fill="#008000" fill-rule="evenodd" fill-opacity="1" stroke="#000000" stroke-opacity="1" stroke-width="3.2"/>
<circle clip-path="url(#clip902)" cx="822.582" cy="1088.3" r="7.2" fill="#008000" fill-rule="evenodd" fill-opacity="1" stroke="#000000" stroke-opacity="1" stroke-width="3.2"/>
<circle clip-path="url(#clip902)" cx="837.132" cy="1084.77" r="7.2" fill="#008000" fill-rule="evenodd" fill-opacity="1" stroke="#000000" stroke-opacity="1" stroke-width="3.2"/>
<circle clip-path="url(#clip902)" cx="851.681" cy="1085.08" r="7.2" fill="#008000" fill-rule="evenodd" fill-opacity="1" stroke="#000000" stroke-opacity="1" stroke-width="3.2"/>
<circle clip-path="url(#clip902)" cx="866.231" cy="1089.91" r="7.2" fill="#008000" fill-rule="evenodd" fill-opacity="1" stroke="#000000" stroke-opacity="1" stroke-width="3.2"/>
<circle clip-path="url(#clip902)" cx="880.78" cy="1097.43" r="7.2" fill="#008000" fill-rule="evenodd" fill-opacity="1" stroke="#000000" stroke-opacity="1" stroke-width="3.2"/>
<circle clip-path="url(#clip902)" cx="895.33" cy="1105.57" r="7.2" fill="#008000" fill-rule="evenodd" fill-opacity="1" stroke="#000000" stroke-opacity="1" stroke-width="3.2"/>
<circle clip-path="url(#clip902)" cx="909.879" cy="1110.74" r="7.2" fill="#008000" fill-rule="evenodd" fill-opacity="1" stroke="#000000" stroke-opacity="1" stroke-width="3.2"/>
<circle clip-path="url(#clip902)" cx="924.429" cy="1112.32" r="7.2" fill="#008000" fill-rule="evenodd" fill-opacity="1" stroke="#000000" stroke-opacity="1" stroke-width="3.2"/>
<circle clip-path="url(#clip902)" cx="938.978" cy="1111.39" r="7.2" fill="#008000" fill-rule="evenodd" fill-opacity="1" stroke="#000000" stroke-opacity="1" stroke-width="3.2"/>
<circle clip-path="url(#clip902)" cx="953.528" cy="1110.57" r="7.2" fill="#008000" fill-rule="evenodd" fill-opacity="1" stroke="#000000" stroke-opacity="1" stroke-width="3.2"/>
<circle clip-path="url(#clip902)" cx="968.077" cy="1111.85" r="7.2" fill="#008000" fill-rule="evenodd" fill-opacity="1" stroke="#000000" stroke-opacity="1" stroke-width="3.2"/>
<circle clip-path="url(#clip902)" cx="982.627" cy="1117.56" r="7.2" fill="#008000" fill-rule="evenodd" fill-opacity="1" stroke="#000000" stroke-opacity="1" stroke-width="3.2"/>
<circle clip-path="url(#clip902)" cx="997.176" cy="1125.74" r="7.2" fill="#008000" fill-rule="evenodd" fill-opacity="1" stroke="#000000" stroke-opacity="1" stroke-width="3.2"/>
<circle clip-path="url(#clip902)" cx="1011.73" cy="1133.4" r="7.2" fill="#008000" fill-rule="evenodd" fill-opacity="1" stroke="#000000" stroke-opacity="1" stroke-width="3.2"/>
<circle clip-path="url(#clip902)" cx="1026.28" cy="1137.11" r="7.2" fill="#008000" fill-rule="evenodd" fill-opacity="1" stroke="#000000" stroke-opacity="1" stroke-width="3.2"/>
<circle clip-path="url(#clip902)" cx="1040.83" cy="1133.98" r="7.2" fill="#008000" fill-rule="evenodd" fill-opacity="1" stroke="#000000" stroke-opacity="1" stroke-width="3.2"/>
<circle clip-path="url(#clip902)" cx="1055.37" cy="1125.93" r="7.2" fill="#008000" fill-rule="evenodd" fill-opacity="1" stroke="#000000" stroke-opacity="1" stroke-width="3.2"/>
<circle clip-path="url(#clip902)" cx="1069.92" cy="1114.64" r="7.2" fill="#008000" fill-rule="evenodd" fill-opacity="1" stroke="#000000" stroke-opacity="1" stroke-width="3.2"/>
<circle clip-path="url(#clip902)" cx="1084.47" cy="1101.62" r="7.2" fill="#008000" fill-rule="evenodd" fill-opacity="1" stroke="#000000" stroke-opacity="1" stroke-width="3.2"/>
<circle clip-path="url(#clip902)" cx="1099.02" cy="1089.3" r="7.2" fill="#008000" fill-rule="evenodd" fill-opacity="1" stroke="#000000" stroke-opacity="1" stroke-width="3.2"/>
<circle clip-path="url(#clip902)" cx="1113.57" cy="1077.66" r="7.2" fill="#008000" fill-rule="evenodd" fill-opacity="1" stroke="#000000" stroke-opacity="1" stroke-width="3.2"/>
<circle clip-path="url(#clip902)" cx="1128.12" cy="1065.19" r="7.2" fill="#008000" fill-rule="evenodd" fill-opacity="1" stroke="#000000" stroke-opacity="1" stroke-width="3.2"/>
<circle clip-path="url(#clip902)" cx="1142.67" cy="1053.81" r="7.2" fill="#008000" fill-rule="evenodd" fill-opacity="1" stroke="#000000" stroke-opacity="1" stroke-width="3.2"/>
<circle clip-path="url(#clip902)" cx="1157.22" cy="1045.93" r="7.2" fill="#008000" fill-rule="evenodd" fill-opacity="1" stroke="#000000" stroke-opacity="1" stroke-width="3.2"/>
<circle clip-path="url(#clip902)" cx="1171.77" cy="1044.1" r="7.2" fill="#008000" fill-rule="evenodd" fill-opacity="1" stroke="#000000" stroke-opacity="1" stroke-width="3.2"/>
<circle clip-path="url(#clip902)" cx="1186.32" cy="1050.11" r="7.2" fill="#008000" fill-rule="evenodd" fill-opacity="1" stroke="#000000" stroke-opacity="1" stroke-width="3.2"/>
<circle clip-path="url(#clip902)" cx="1200.87" cy="1064.78" r="7.2" fill="#008000" fill-rule="evenodd" fill-opacity="1" stroke="#000000" stroke-opacity="1" stroke-width="3.2"/>
<circle clip-path="url(#clip902)" cx="1215.42" cy="1085.31" r="7.2" fill="#008000" fill-rule="evenodd" fill-opacity="1" stroke="#000000" stroke-opacity="1" stroke-width="3.2"/>
<circle clip-path="url(#clip902)" cx="1229.97" cy="1108.37" r="7.2" fill="#008000" fill-rule="evenodd" fill-opacity="1" stroke="#000000" stroke-opacity="1" stroke-width="3.2"/>
<circle clip-path="url(#clip902)" cx="1244.52" cy="1131.68" r="7.2" fill="#008000" fill-rule="evenodd" fill-opacity="1" stroke="#000000" stroke-opacity="1" stroke-width="3.2"/>
<circle clip-path="url(#clip902)" cx="1259.07" cy="1154.38" r="7.2" fill="#008000" fill-rule="evenodd" fill-opacity="1" stroke="#000000" stroke-opacity="1" stroke-width="3.2"/>
<circle clip-path="url(#clip902)" cx="1273.62" cy="1175" r="7.2" fill="#008000" fill-rule="evenodd" fill-opacity="1" stroke="#000000" stroke-opacity="1" stroke-width="3.2"/>
<circle clip-path="url(#clip902)" cx="1288.17" cy="1195.08" r="7.2" fill="#008000" fill-rule="evenodd" fill-opacity="1" stroke="#000000" stroke-opacity="1" stroke-width="3.2"/>
<circle clip-path="url(#clip902)" cx="1302.72" cy="1212.63" r="7.2" fill="#008000" fill-rule="evenodd" fill-opacity="1" stroke="#000000" stroke-opacity="1" stroke-width="3.2"/>
<circle clip-path="url(#clip902)" cx="1317.27" cy="1227.29" r="7.2" fill="#008000" fill-rule="evenodd" fill-opacity="1" stroke="#000000" stroke-opacity="1" stroke-width="3.2"/>
<circle clip-path="url(#clip902)" cx="1331.82" cy="1238.44" r="7.2" fill="#008000" fill-rule="evenodd" fill-opacity="1" stroke="#000000" stroke-opacity="1" stroke-width="3.2"/>
<circle clip-path="url(#clip902)" cx="1346.37" cy="1248.02" r="7.2" fill="#008000" fill-rule="evenodd" fill-opacity="1" stroke="#000000" stroke-opacity="1" stroke-width="3.2"/>
<circle clip-path="url(#clip902)" cx="1360.91" cy="1258.76" r="7.2" fill="#008000" fill-rule="evenodd" fill-opacity="1" stroke="#000000" stroke-opacity="1" stroke-width="3.2"/>
<circle clip-path="url(#clip902)" cx="1375.46" cy="1271.69" r="7.2" fill="#008000" fill-rule="evenodd" fill-opacity="1" stroke="#000000" stroke-opacity="1" stroke-width="3.2"/>
<circle clip-path="url(#clip902)" cx="1390.01" cy="1288.37" r="7.2" fill="#008000" fill-rule="evenodd" fill-opacity="1" stroke="#000000" stroke-opacity="1" stroke-width="3.2"/>
<circle clip-path="url(#clip902)" cx="1404.56" cy="1306.61" r="7.2" fill="#008000" fill-rule="evenodd" fill-opacity="1" stroke="#000000" stroke-opacity="1" stroke-width="3.2"/>
<circle clip-path="url(#clip902)" cx="1419.11" cy="1322.48" r="7.2" fill="#008000" fill-rule="evenodd" fill-opacity="1" stroke="#000000" stroke-opacity="1" stroke-width="3.2"/>
<circle clip-path="url(#clip902)" cx="1433.66" cy="1337.08" r="7.2" fill="#008000" fill-rule="evenodd" fill-opacity="1" stroke="#000000" stroke-opacity="1" stroke-width="3.2"/>
<circle clip-path="url(#clip902)" cx="1448.21" cy="1348.48" r="7.2" fill="#008000" fill-rule="evenodd" fill-opacity="1" stroke="#000000" stroke-opacity="1" stroke-width="3.2"/>
<circle clip-path="url(#clip902)" cx="1462.76" cy="1358.02" r="7.2" fill="#008000" fill-rule="evenodd" fill-opacity="1" stroke="#000000" stroke-opacity="1" stroke-width="3.2"/>
<circle clip-path="url(#clip902)" cx="1477.31" cy="1369.21" r="7.2" fill="#008000" fill-rule="evenodd" fill-opacity="1" stroke="#000000" stroke-opacity="1" stroke-width="3.2"/>
<circle clip-path="url(#clip902)" cx="1491.86" cy="1383.98" r="7.2" fill="#008000" fill-rule="evenodd" fill-opacity="1" stroke="#000000" stroke-opacity="1" stroke-width="3.2"/>
<circle clip-path="url(#clip902)" cx="1506.41" cy="1402.11" r="7.2" fill="#008000" fill-rule="evenodd" fill-opacity="1" stroke="#000000" stroke-opacity="1" stroke-width="3.2"/>
<circle clip-path="url(#clip902)" cx="1520.96" cy="1420.75" r="7.2" fill="#008000" fill-rule="evenodd" fill-opacity="1" stroke="#000000" stroke-opacity="1" stroke-width="3.2"/>
<circle clip-path="url(#clip902)" cx="1535.51" cy="1436.79" r="7.2" fill="#008000" fill-rule="evenodd" fill-opacity="1" stroke="#000000" stroke-opacity="1" stroke-width="3.2"/>
<circle clip-path="url(#clip902)" cx="1550.06" cy="1445.72" r="7.2" fill="#008000" fill-rule="evenodd" fill-opacity="1" stroke="#000000" stroke-opacity="1" stroke-width="3.2"/>
<circle clip-path="url(#clip902)" cx="1564.61" cy="1443.43" r="7.2" fill="#008000" fill-rule="evenodd" fill-opacity="1" stroke="#000000" stroke-opacity="1" stroke-width="3.2"/>
<circle clip-path="url(#clip902)" cx="1579.16" cy="1432.3" r="7.2" fill="#008000" fill-rule="evenodd" fill-opacity="1" stroke="#000000" stroke-opacity="1" stroke-width="3.2"/>
<circle clip-path="url(#clip902)" cx="1593.71" cy="1413.64" r="7.2" fill="#008000" fill-rule="evenodd" fill-opacity="1" stroke="#000000" stroke-opacity="1" stroke-width="3.2"/>
<circle clip-path="url(#clip902)" cx="1608.26" cy="1391.87" r="7.2" fill="#008000" fill-rule="evenodd" fill-opacity="1" stroke="#000000" stroke-opacity="1" stroke-width="3.2"/>
<circle clip-path="url(#clip902)" cx="1622.81" cy="1374.64" r="7.2" fill="#008000" fill-rule="evenodd" fill-opacity="1" stroke="#000000" stroke-opacity="1" stroke-width="3.2"/>
<circle clip-path="url(#clip902)" cx="1637.36" cy="1363.86" r="7.2" fill="#008000" fill-rule="evenodd" fill-opacity="1" stroke="#000000" stroke-opacity="1" stroke-width="3.2"/>
<circle clip-path="url(#clip902)" cx="1651.91" cy="1361.41" r="7.2" fill="#008000" fill-rule="evenodd" fill-opacity="1" stroke="#000000" stroke-opacity="1" stroke-width="3.2"/>
<circle clip-path="url(#clip902)" cx="1666.45" cy="1367.56" r="7.2" fill="#008000" fill-rule="evenodd" fill-opacity="1" stroke="#000000" stroke-opacity="1" stroke-width="3.2"/>
<circle clip-path="url(#clip902)" cx="1681" cy="1379.66" r="7.2" fill="#008000" fill-rule="evenodd" fill-opacity="1" stroke="#000000" stroke-opacity="1" stroke-width="3.2"/>
<circle clip-path="url(#clip902)" cx="1695.55" cy="1392.43" r="7.2" fill="#008000" fill-rule="evenodd" fill-opacity="1" stroke="#000000" stroke-opacity="1" stroke-width="3.2"/>
<circle clip-path="url(#clip902)" cx="1710.1" cy="1401.3" r="7.2" fill="#008000" fill-rule="evenodd" fill-opacity="1" stroke="#000000" stroke-opacity="1" stroke-width="3.2"/>
<circle clip-path="url(#clip902)" cx="1724.65" cy="1401.79" r="7.2" fill="#008000" fill-rule="evenodd" fill-opacity="1" stroke="#000000" stroke-opacity="1" stroke-width="3.2"/>
<circle clip-path="url(#clip902)" cx="1739.2" cy="1390.17" r="7.2" fill="#008000" fill-rule="evenodd" fill-opacity="1" stroke="#000000" stroke-opacity="1" stroke-width="3.2"/>
<circle clip-path="url(#clip902)" cx="1753.75" cy="1365.87" r="7.2" fill="#008000" fill-rule="evenodd" fill-opacity="1" stroke="#000000" stroke-opacity="1" stroke-width="3.2"/>
<circle clip-path="url(#clip902)" cx="1768.3" cy="1334.26" r="7.2" fill="#008000" fill-rule="evenodd" fill-opacity="1" stroke="#000000" stroke-opacity="1" stroke-width="3.2"/>
<circle clip-path="url(#clip902)" cx="1782.85" cy="1299.02" r="7.2" fill="#008000" fill-rule="evenodd" fill-opacity="1" stroke="#000000" stroke-opacity="1" stroke-width="3.2"/>
<circle clip-path="url(#clip902)" cx="1797.4" cy="1266.88" r="7.2" fill="#008000" fill-rule="evenodd" fill-opacity="1" stroke="#000000" stroke-opacity="1" stroke-width="3.2"/>
<circle clip-path="url(#clip902)" cx="1811.95" cy="1241.99" r="7.2" fill="#008000" fill-rule="evenodd" fill-opacity="1" stroke="#000000" stroke-opacity="1" stroke-width="3.2"/>
<circle clip-path="url(#clip902)" cx="1826.5" cy="1222.75" r="7.2" fill="#008000" fill-rule="evenodd" fill-opacity="1" stroke="#000000" stroke-opacity="1" stroke-width="3.2"/>
<circle clip-path="url(#clip902)" cx="1841.05" cy="1205.72" r="7.2" fill="#008000" fill-rule="evenodd" fill-opacity="1" stroke="#000000" stroke-opacity="1" stroke-width="3.2"/>
<circle clip-path="url(#clip902)" cx="1855.6" cy="1185.67" r="7.2" fill="#008000" fill-rule="evenodd" fill-opacity="1" stroke="#000000" stroke-opacity="1" stroke-width="3.2"/>
<circle clip-path="url(#clip902)" cx="1870.15" cy="1161.85" r="7.2" fill="#008000" fill-rule="evenodd" fill-opacity="1" stroke="#000000" stroke-opacity="1" stroke-width="3.2"/>
<circle clip-path="url(#clip902)" cx="1884.7" cy="1137" r="7.2" fill="#008000" fill-rule="evenodd" fill-opacity="1" stroke="#000000" stroke-opacity="1" stroke-width="3.2"/>
<circle clip-path="url(#clip902)" cx="1899.25" cy="1114.11" r="7.2" fill="#008000" fill-rule="evenodd" fill-opacity="1" stroke="#000000" stroke-opacity="1" stroke-width="3.2"/>
<circle clip-path="url(#clip902)" cx="1913.8" cy="1098.7" r="7.2" fill="#008000" fill-rule="evenodd" fill-opacity="1" stroke="#000000" stroke-opacity="1" stroke-width="3.2"/>
<circle clip-path="url(#clip902)" cx="1928.35" cy="1090.23" r="7.2" fill="#008000" fill-rule="evenodd" fill-opacity="1" stroke="#000000" stroke-opacity="1" stroke-width="3.2"/>
<circle clip-path="url(#clip902)" cx="1942.9" cy="1087.41" r="7.2" fill="#008000" fill-rule="evenodd" fill-opacity="1" stroke="#000000" stroke-opacity="1" stroke-width="3.2"/>
<circle clip-path="url(#clip902)" cx="1957.45" cy="1089.41" r="7.2" fill="#008000" fill-rule="evenodd" fill-opacity="1" stroke="#000000" stroke-opacity="1" stroke-width="3.2"/>
<circle clip-path="url(#clip902)" cx="1971.99" cy="1092.65" r="7.2" fill="#008000" fill-rule="evenodd" fill-opacity="1" stroke="#000000" stroke-opacity="1" stroke-width="3.2"/>
<circle clip-path="url(#clip902)" cx="1986.54" cy="1097.76" r="7.2" fill="#008000" fill-rule="evenodd" fill-opacity="1" stroke="#000000" stroke-opacity="1" stroke-width="3.2"/>
<circle clip-path="url(#clip902)" cx="2001.09" cy="1106.01" r="7.2" fill="#008000" fill-rule="evenodd" fill-opacity="1" stroke="#000000" stroke-opacity="1" stroke-width="3.2"/>
<circle clip-path="url(#clip902)" cx="2015.64" cy="1116.86" r="7.2" fill="#008000" fill-rule="evenodd" fill-opacity="1" stroke="#000000" stroke-opacity="1" stroke-width="3.2"/>
<circle clip-path="url(#clip902)" cx="2030.19" cy="1127.82" r="7.2" fill="#008000" fill-rule="evenodd" fill-opacity="1" stroke="#000000" stroke-opacity="1" stroke-width="3.2"/>
<circle clip-path="url(#clip902)" cx="2044.74" cy="1137.64" r="7.2" fill="#008000" fill-rule="evenodd" fill-opacity="1" stroke="#000000" stroke-opacity="1" stroke-width="3.2"/>
<circle clip-path="url(#clip902)" cx="2059.29" cy="1144.25" r="7.2" fill="#008000" fill-rule="evenodd" fill-opacity="1" stroke="#000000" stroke-opacity="1" stroke-width="3.2"/>
<circle clip-path="url(#clip902)" cx="2073.84" cy="1146.67" r="7.2" fill="#008000" fill-rule="evenodd" fill-opacity="1" stroke="#000000" stroke-opacity="1" stroke-width="3.2"/>
<circle clip-path="url(#clip902)" cx="2088.39" cy="1146.72" r="7.2" fill="#008000" fill-rule="evenodd" fill-opacity="1" stroke="#000000" stroke-opacity="1" stroke-width="3.2"/>
<circle clip-path="url(#clip902)" cx="2102.94" cy="1146.84" r="7.2" fill="#008000" fill-rule="evenodd" fill-opacity="1" stroke="#000000" stroke-opacity="1" stroke-width="3.2"/>
<circle clip-path="url(#clip902)" cx="2117.49" cy="1146.53" r="7.2" fill="#008000" fill-rule="evenodd" fill-opacity="1" stroke="#000000" stroke-opacity="1" stroke-width="3.2"/>
<circle clip-path="url(#clip902)" cx="2132.04" cy="1145.35" r="7.2" fill="#008000" fill-rule="evenodd" fill-opacity="1" stroke="#000000" stroke-opacity="1" stroke-width="3.2"/>
<circle clip-path="url(#clip902)" cx="2146.59" cy="1142.14" r="7.2" fill="#008000" fill-rule="evenodd" fill-opacity="1" stroke="#000000" stroke-opacity="1" stroke-width="3.2"/>
<circle clip-path="url(#clip902)" cx="2161.14" cy="1137.06" r="7.2" fill="#008000" fill-rule="evenodd" fill-opacity="1" stroke="#000000" stroke-opacity="1" stroke-width="3.2"/>
<circle clip-path="url(#clip902)" cx="2175.69" cy="1131.7" r="7.2" fill="#008000" fill-rule="evenodd" fill-opacity="1" stroke="#000000" stroke-opacity="1" stroke-width="3.2"/>
<circle clip-path="url(#clip902)" cx="2190.24" cy="1127.67" r="7.2" fill="#008000" fill-rule="evenodd" fill-opacity="1" stroke="#000000" stroke-opacity="1" stroke-width="3.2"/>
<circle clip-path="url(#clip902)" cx="2204.79" cy="1126.47" r="7.2" fill="#008000" fill-rule="evenodd" fill-opacity="1" stroke="#000000" stroke-opacity="1" stroke-width="3.2"/>
<circle clip-path="url(#clip902)" cx="2219.34" cy="1127.53" r="7.2" fill="#008000" fill-rule="evenodd" fill-opacity="1" stroke="#000000" stroke-opacity="1" stroke-width="3.2"/>
<circle clip-path="url(#clip902)" cx="2233.89" cy="1127.98" r="7.2" fill="#008000" fill-rule="evenodd" fill-opacity="1" stroke="#000000" stroke-opacity="1" stroke-width="3.2"/>
<circle clip-path="url(#clip902)" cx="2248.44" cy="1125.88" r="7.2" fill="#008000" fill-rule="evenodd" fill-opacity="1" stroke="#000000" stroke-opacity="1" stroke-width="3.2"/>
<circle clip-path="url(#clip902)" cx="2262.99" cy="1120.54" r="7.2" fill="#008000" fill-rule="evenodd" fill-opacity="1" stroke="#000000" stroke-opacity="1" stroke-width="3.2"/>
<circle clip-path="url(#clip902)" cx="2277.53" cy="1113.37" r="7.2" fill="#008000" fill-rule="evenodd" fill-opacity="1" stroke="#000000" stroke-opacity="1" stroke-width="3.2"/>
<circle clip-path="url(#clip902)" cx="2292.08" cy="1106.8" r="7.2" fill="#008000" fill-rule="evenodd" fill-opacity="1" stroke="#000000" stroke-opacity="1" stroke-width="3.2"/>
</svg>
