<?xml version="1.0" encoding="utf-8"?>
<svg xmlns="http://www.w3.org/2000/svg" xmlns:xlink="http://www.w3.org/1999/xlink" width="600" height="400" viewBox="0 0 2400 1600">
<defs>
  <clipPath id="clip630">
    <rect x="0" y="0" width="2400" height="1600"/>
  </clipPath>
</defs>
<path clip-path="url(#clip630)" d="M0 1600 L2400 1600 L2400 8.88178e-14 L0 8.88178e-14  Z" fill="#ffffff" fill-rule="evenodd" fill-opacity="1"/>
<defs>
  <clipPath id="clip631">
    <rect x="480" y="0" width="1681" height="1600"/>
  </clipPath>
</defs>
<path clip-path="url(#clip630)" d="M209.029 1486.45 L2352.76 1486.45 L2352.76 47.2441 L209.029 47.2441  Z" fill="#ffffff" fill-rule="evenodd" fill-opacity="1"/>
<defs>
  <clipPath id="clip632">
    <rect x="209" y="47" width="2145" height="1440"/>
  </clipPath>
</defs>
<polyline clip-path="url(#clip630)" style="stroke:#000000; stroke-linecap:round; stroke-linejoin:round; stroke-width:4; stroke-opacity:1; fill:none" points="209.029,1486.45 2352.76,1486.45 "/>
<polyline clip-path="url(#clip630)" style="stroke:#000000; stroke-linecap:round; stroke-linejoin:round; stroke-width:4; stroke-opacity:1; fill:none" points="255.151,1486.45 255.151,1467.55 "/>
<polyline clip-path="url(#clip630)" style="stroke:#000000; stroke-linecap:round; stroke-linejoin:round; stroke-width:4; stroke-opacity:1; fill:none" points="618.889,1486.45 618.889,1467.55 "/>
<polyline clip-path="url(#clip630)" style="stroke:#000000; stroke-linecap:round; stroke-linejoin:round; stroke-width:4; stroke-opacity:1; fill:none" points="982.627,1486.45 982.627,1467.55 "/>
<polyline clip-path="url(#clip630)" style="stroke:#000000; stroke-linecap:round; stroke-linejoin:round; stroke-width:4; stroke-opacity:1; fill:none" points="1346.37,1486.45 1346.37,1467.55 "/>
<polyline clip-path="url(#clip630)" style="stroke:#000000; stroke-linecap:round; stroke-linejoin:round; stroke-width:4; stroke-opacity:1; fill:none" points="1710.1,1486.45 1710.1,1467.55 "/>
<polyline clip-path="url(#clip630)" style="stroke:#000000; stroke-linecap:round; stroke-linejoin:round; stroke-width:4; stroke-opacity:1; fill:none" points="2073.84,1486.45 2073.84,1467.55 "/>
<path clip-path="url(#clip630)" d="M255.151 1517.37 Q251.539 1517.37 249.711 1520.93 Q247.905 1524.47 247.905 1531.6 Q247.905 1538.71 249.711 1542.27 Q251.539 1545.82 255.151 1545.82 Q258.785 1545.82 260.59 1542.27 Q262.419 1538.71 262.419 1531.6 Q262.419 1524.47 260.59 1520.93 Q258.785 1517.37 255.151 1517.37 M255.151 1513.66 Q260.961 1513.66 264.016 1518.27 Q267.095 1522.85 267.095 1531.6 Q267.095 1540.33 264.016 1544.94 Q260.961 1549.52 255.151 1549.52 Q249.34 1549.52 246.262 1544.94 Q243.206 1540.33 243.206 1531.6 Q243.206 1522.85 246.262 1518.27 Q249.34 1513.66 255.151 1513.66 Z" fill="#000000" fill-rule="nonzero" fill-opacity="1" /><path clip-path="url(#clip630)" d="M598.16 1544.91 L614.479 1544.91 L614.479 1548.85 L592.535 1548.85 L592.535 1544.91 Q595.197 1542.16 599.78 1537.53 Q604.386 1532.88 605.567 1531.53 Q607.812 1529.01 608.692 1527.27 Q609.595 1525.51 609.595 1523.82 Q609.595 1521.07 607.65 1519.33 Q605.729 1517.6 602.627 1517.6 Q600.428 1517.6 597.974 1518.36 Q595.544 1519.13 592.766 1520.68 L592.766 1515.95 Q595.59 1514.82 598.044 1514.24 Q600.498 1513.66 602.535 1513.66 Q607.905 1513.66 611.099 1516.35 Q614.294 1519.03 614.294 1523.52 Q614.294 1525.65 613.484 1527.57 Q612.697 1529.47 610.59 1532.07 Q610.011 1532.74 606.91 1535.95 Q603.808 1539.15 598.16 1544.91 Z" fill="#000000" fill-rule="nonzero" fill-opacity="1" /><path clip-path="url(#clip630)" d="M624.34 1514.29 L642.696 1514.29 L642.696 1518.22 L628.622 1518.22 L628.622 1526.7 Q629.641 1526.35 630.659 1526.19 Q631.678 1526 632.696 1526 Q638.484 1526 641.863 1529.17 Q645.243 1532.34 645.243 1537.76 Q645.243 1543.34 641.771 1546.44 Q638.298 1549.52 631.979 1549.52 Q629.803 1549.52 627.534 1549.15 Q625.289 1548.78 622.882 1548.04 L622.882 1543.34 Q624.965 1544.47 627.187 1545.03 Q629.409 1545.58 631.886 1545.58 Q635.891 1545.58 638.229 1543.48 Q640.567 1541.37 640.567 1537.76 Q640.567 1534.15 638.229 1532.04 Q635.891 1529.94 631.886 1529.94 Q630.011 1529.94 628.136 1530.35 Q626.284 1530.77 624.34 1531.65 L624.34 1514.29 Z" fill="#000000" fill-rule="nonzero" fill-opacity="1" /><path clip-path="url(#clip630)" d="M957.326 1514.29 L975.682 1514.29 L975.682 1518.22 L961.608 1518.22 L961.608 1526.7 Q962.627 1526.35 963.646 1526.19 Q964.664 1526 965.683 1526 Q971.47 1526 974.849 1529.17 Q978.229 1532.34 978.229 1537.76 Q978.229 1543.34 974.757 1546.44 Q971.284 1549.52 964.965 1549.52 Q962.789 1549.52 960.521 1549.15 Q958.275 1548.78 955.868 1548.04 L955.868 1543.34 Q957.951 1544.47 960.173 1545.03 Q962.396 1545.58 964.872 1545.58 Q968.877 1545.58 971.215 1543.48 Q973.553 1541.37 973.553 1537.76 Q973.553 1534.15 971.215 1532.04 Q968.877 1529.94 964.872 1529.94 Q962.997 1529.94 961.122 1530.35 Q959.271 1530.77 957.326 1531.65 L957.326 1514.29 Z" fill="#000000" fill-rule="nonzero" fill-opacity="1" /><path clip-path="url(#clip630)" d="M997.442 1517.37 Q993.831 1517.37 992.002 1520.93 Q990.196 1524.47 990.196 1531.6 Q990.196 1538.71 992.002 1542.27 Q993.831 1545.82 997.442 1545.82 Q1001.08 1545.82 1002.88 1542.27 Q1004.71 1538.71 1004.71 1531.6 Q1004.71 1524.47 1002.88 1520.93 Q1001.08 1517.37 997.442 1517.37 M997.442 1513.66 Q1003.25 1513.66 1006.31 1518.27 Q1009.39 1522.85 1009.39 1531.6 Q1009.39 1540.33 1006.31 1544.94 Q1003.25 1549.52 997.442 1549.52 Q991.631 1549.52 988.553 1544.94 Q985.497 1540.33 985.497 1531.6 Q985.497 1522.85 988.553 1518.27 Q991.631 1513.66 997.442 1513.66 Z" fill="#000000" fill-rule="nonzero" fill-opacity="1" /><path clip-path="url(#clip630)" d="M1320.22 1514.29 L1342.44 1514.29 L1342.44 1516.28 L1329.9 1548.85 L1325.01 1548.85 L1336.82 1518.22 L1320.22 1518.22 L1320.22 1514.29 Z" fill="#000000" fill-rule="nonzero" fill-opacity="1" /><path clip-path="url(#clip630)" d="M1351.61 1514.29 L1369.96 1514.29 L1369.96 1518.22 L1355.89 1518.22 L1355.89 1526.7 Q1356.91 1526.35 1357.93 1526.19 Q1358.95 1526 1359.96 1526 Q1365.75 1526 1369.13 1529.17 Q1372.51 1532.34 1372.51 1537.76 Q1372.51 1543.34 1369.04 1546.44 Q1365.57 1549.52 1359.25 1549.52 Q1357.07 1549.52 1354.8 1549.15 Q1352.56 1548.78 1350.15 1548.04 L1350.15 1543.34 Q1352.23 1544.47 1354.46 1545.03 Q1356.68 1545.58 1359.15 1545.58 Q1363.16 1545.58 1365.5 1543.48 Q1367.83 1541.37 1367.83 1537.76 Q1367.83 1534.15 1365.5 1532.04 Q1363.16 1529.94 1359.15 1529.94 Q1357.28 1529.94 1355.4 1530.35 Q1353.55 1530.77 1351.61 1531.65 L1351.61 1514.29 Z" fill="#000000" fill-rule="nonzero" fill-opacity="1" /><path clip-path="url(#clip630)" d="M1669.71 1544.91 L1677.35 1544.91 L1677.35 1518.55 L1669.04 1520.21 L1669.04 1515.95 L1677.3 1514.29 L1681.98 1514.29 L1681.98 1544.91 L1689.62 1544.91 L1689.62 1548.85 L1669.71 1548.85 L1669.71 1544.91 Z" fill="#000000" fill-rule="nonzero" fill-opacity="1" /><path clip-path="url(#clip630)" d="M1709.06 1517.37 Q1705.45 1517.37 1703.62 1520.93 Q1701.82 1524.47 1701.82 1531.6 Q1701.82 1538.71 1703.62 1542.27 Q1705.45 1545.82 1709.06 1545.82 Q1712.7 1545.82 1714.5 1542.27 Q1716.33 1538.71 1716.33 1531.6 Q1716.33 1524.47 1714.5 1520.93 Q1712.7 1517.37 1709.06 1517.37 M1709.06 1513.66 Q1714.87 1513.66 1717.93 1518.27 Q1721.01 1522.85 1721.01 1531.6 Q1721.01 1540.33 1717.93 1544.94 Q1714.87 1549.52 1709.06 1549.52 Q1703.25 1549.52 1700.17 1544.94 Q1697.12 1540.33 1697.12 1531.6 Q1697.12 1522.85 1700.17 1518.27 Q1703.25 1513.66 1709.06 1513.66 Z" fill="#000000" fill-rule="nonzero" fill-opacity="1" /><path clip-path="url(#clip630)" d="M1739.22 1517.37 Q1735.61 1517.37 1733.78 1520.93 Q1731.98 1524.47 1731.98 1531.6 Q1731.98 1538.71 1733.78 1542.27 Q1735.61 1545.82 1739.22 1545.82 Q1742.86 1545.82 1744.66 1542.27 Q1746.49 1538.71 1746.49 1531.6 Q1746.49 1524.47 1744.66 1520.93 Q1742.86 1517.37 1739.22 1517.37 M1739.22 1513.66 Q1745.03 1513.66 1748.09 1518.27 Q1751.17 1522.85 1751.17 1531.6 Q1751.17 1540.33 1748.09 1544.94 Q1745.03 1549.52 1739.22 1549.52 Q1733.41 1549.52 1730.33 1544.94 Q1727.28 1540.33 1727.28 1531.6 Q1727.28 1522.85 1730.33 1518.27 Q1733.41 1513.66 1739.22 1513.66 Z" fill="#000000" fill-rule="nonzero" fill-opacity="1" /><path clip-path="url(#clip630)" d="M2033.95 1544.91 L2041.58 1544.91 L2041.58 1518.55 L2033.27 1520.21 L2033.27 1515.95 L2041.54 1514.29 L2046.21 1514.29 L2046.21 1544.91 L2053.85 1544.91 L2053.85 1548.85 L2033.95 1548.85 L2033.95 1544.91 Z" fill="#000000" fill-rule="nonzero" fill-opacity="1" /><path clip-path="url(#clip630)" d="M2067.33 1544.91 L2083.64 1544.91 L2083.64 1548.85 L2061.7 1548.85 L2061.7 1544.91 Q2064.36 1542.16 2068.95 1537.53 Q2073.55 1532.88 2074.73 1531.53 Q2076.98 1529.01 2077.86 1527.27 Q2078.76 1525.51 2078.76 1523.82 Q2078.76 1521.07 2076.82 1519.33 Q2074.89 1517.6 2071.79 1517.6 Q2069.59 1517.6 2067.14 1518.36 Q2064.71 1519.13 2061.93 1520.68 L2061.93 1515.95 Q2064.76 1514.82 2067.21 1514.24 Q2069.66 1513.66 2071.7 1513.66 Q2077.07 1513.66 2080.27 1516.35 Q2083.46 1519.03 2083.46 1523.52 Q2083.46 1525.65 2082.65 1527.57 Q2081.86 1529.47 2079.76 1532.07 Q2079.18 1532.74 2076.08 1535.95 Q2072.97 1539.15 2067.33 1544.91 Z" fill="#000000" fill-rule="nonzero" fill-opacity="1" /><path clip-path="url(#clip630)" d="M2093.51 1514.29 L2111.86 1514.29 L2111.86 1518.22 L2097.79 1518.22 L2097.79 1526.7 Q2098.81 1526.35 2099.83 1526.19 Q2100.84 1526 2101.86 1526 Q2107.65 1526 2111.03 1529.17 Q2114.41 1532.34 2114.41 1537.76 Q2114.41 1543.34 2110.94 1546.44 Q2107.46 1549.52 2101.14 1549.52 Q2098.97 1549.52 2096.7 1549.15 Q2094.45 1548.78 2092.05 1548.04 L2092.05 1543.34 Q2094.13 1544.47 2096.35 1545.03 Q2098.58 1545.58 2101.05 1545.58 Q2105.06 1545.58 2107.39 1543.48 Q2109.73 1541.37 2109.73 1537.76 Q2109.73 1534.15 2107.39 1532.04 Q2105.06 1529.94 2101.05 1529.94 Q2099.18 1529.94 2097.3 1530.35 Q2095.45 1530.77 2093.51 1531.65 L2093.51 1514.29 Z" fill="#000000" fill-rule="nonzero" fill-opacity="1" /><polyline clip-path="url(#clip630)" style="stroke:#000000; stroke-linecap:round; stroke-linejoin:round; stroke-width:4; stroke-opacity:1; fill:none" points="209.029,1486.45 209.029,47.2441 "/>
<polyline clip-path="url(#clip630)" style="stroke:#000000; stroke-linecap:round; stroke-linejoin:round; stroke-width:4; stroke-opacity:1; fill:none" points="209.029,1249.96 227.926,1249.96 "/>
<polyline clip-path="url(#clip630)" style="stroke:#000000; stroke-linecap:round; stroke-linejoin:round; stroke-width:4; stroke-opacity:1; fill:none" points="209.029,986.474 227.926,986.474 "/>
<polyline clip-path="url(#clip630)" style="stroke:#000000; stroke-linecap:round; stroke-linejoin:round; stroke-width:4; stroke-opacity:1; fill:none" points="209.029,722.991 227.926,722.991 "/>
<polyline clip-path="url(#clip630)" style="stroke:#000000; stroke-linecap:round; stroke-linejoin:round; stroke-width:4; stroke-opacity:1; fill:none" points="209.029,459.508 227.926,459.508 "/>
<polyline clip-path="url(#clip630)" style="stroke:#000000; stroke-linecap:round; stroke-linejoin:round; stroke-width:4; stroke-opacity:1; fill:none" points="209.029,196.025 227.926,196.025 "/>
<path clip-path="url(#clip630)" d="M50.9921 1250.41 L80.6679 1250.41 L80.6679 1254.34 L50.9921 1254.34 L50.9921 1250.41 Z" fill="#000000" fill-rule="nonzero" fill-opacity="1" /><path clip-path="url(#clip630)" d="M101.339 1248.09 Q98.1909 1248.09 96.3391 1250.25 Q94.5104 1252.4 94.5104 1256.15 Q94.5104 1259.88 96.3391 1262.05 Q98.1909 1264.2 101.339 1264.2 Q104.487 1264.2 106.316 1262.05 Q108.168 1259.88 108.168 1256.15 Q108.168 1252.4 106.316 1250.25 Q104.487 1248.09 101.339 1248.09 M110.621 1233.44 L110.621 1237.7 Q108.862 1236.87 107.057 1236.43 Q105.274 1235.99 103.515 1235.99 Q98.8854 1235.99 96.4317 1239.11 Q94.0012 1242.24 93.6539 1248.56 Q95.0197 1246.54 97.0798 1245.48 Q99.14 1244.39 101.617 1244.39 Q106.825 1244.39 109.834 1247.56 Q112.867 1250.71 112.867 1256.15 Q112.867 1261.47 109.719 1264.69 Q106.571 1267.91 101.339 1267.91 Q95.3437 1267.91 92.1725 1263.32 Q89.0012 1258.72 89.0012 1249.99 Q89.0012 1241.8 92.89 1236.94 Q96.7789 1232.05 103.33 1232.05 Q105.089 1232.05 106.871 1232.4 Q108.677 1232.75 110.621 1233.44 Z" fill="#000000" fill-rule="nonzero" fill-opacity="1" /><path clip-path="url(#clip630)" d="M130.922 1235.76 Q127.311 1235.76 125.482 1239.32 Q123.677 1242.86 123.677 1249.99 Q123.677 1257.1 125.482 1260.66 Q127.311 1264.2 130.922 1264.2 Q134.556 1264.2 136.362 1260.66 Q138.191 1257.1 138.191 1249.99 Q138.191 1242.86 136.362 1239.32 Q134.556 1235.76 130.922 1235.76 M130.922 1232.05 Q136.732 1232.05 139.788 1236.66 Q142.867 1241.24 142.867 1249.99 Q142.867 1258.72 139.788 1263.32 Q136.732 1267.91 130.922 1267.91 Q125.112 1267.91 122.033 1263.32 Q118.978 1258.72 118.978 1249.99 Q118.978 1241.24 122.033 1236.66 Q125.112 1232.05 130.922 1232.05 Z" fill="#000000" fill-rule="nonzero" fill-opacity="1" /><path clip-path="url(#clip630)" d="M161.084 1235.76 Q157.473 1235.76 155.644 1239.32 Q153.839 1242.86 153.839 1249.99 Q153.839 1257.1 155.644 1260.66 Q157.473 1264.2 161.084 1264.2 Q164.718 1264.2 166.524 1260.66 Q168.353 1257.1 168.353 1249.99 Q168.353 1242.86 166.524 1239.32 Q164.718 1235.76 161.084 1235.76 M161.084 1232.05 Q166.894 1232.05 169.95 1236.66 Q173.029 1241.24 173.029 1249.99 Q173.029 1258.72 169.95 1263.32 Q166.894 1267.91 161.084 1267.91 Q155.274 1267.91 152.195 1263.32 Q149.14 1258.72 149.14 1249.99 Q149.14 1241.24 152.195 1236.66 Q155.274 1232.05 161.084 1232.05 Z" fill="#000000" fill-rule="nonzero" fill-opacity="1" /><path clip-path="url(#clip630)" d="M50.9921 986.925 L80.6679 986.925 L80.6679 990.86 L50.9921 990.86 L50.9921 986.925 Z" fill="#000000" fill-rule="nonzero" fill-opacity="1" /><path clip-path="url(#clip630)" d="M104.927 985.119 Q108.283 985.837 110.158 988.106 Q112.057 990.374 112.057 993.707 Q112.057 998.823 108.538 1001.62 Q105.02 1004.42 98.5382 1004.42 Q96.3623 1004.42 94.0475 1003.99 Q91.7558 1003.57 89.3021 1002.71 L89.3021 998.198 Q91.2465 999.332 93.5613 999.911 Q95.8761 1000.49 98.3993 1000.49 Q102.797 1000.49 105.089 998.754 Q107.404 997.018 107.404 993.707 Q107.404 990.652 105.251 988.939 Q103.121 987.203 99.3021 987.203 L95.2743 987.203 L95.2743 983.36 L99.4872 983.36 Q102.936 983.36 104.765 981.994 Q106.594 980.606 106.594 978.013 Q106.594 975.351 104.696 973.939 Q102.821 972.504 99.3021 972.504 Q97.3808 972.504 95.1817 972.92 Q92.9826 973.337 90.3438 974.217 L90.3438 970.05 Q93.0058 969.309 95.3206 968.939 Q97.6585 968.569 99.7187 968.569 Q105.043 968.569 108.145 970.999 Q111.246 973.407 111.246 977.527 Q111.246 980.397 109.603 982.388 Q107.959 984.356 104.927 985.119 Z" fill="#000000" fill-rule="nonzero" fill-opacity="1" /><path clip-path="url(#clip630)" d="M130.922 972.272 Q127.311 972.272 125.482 975.837 Q123.677 979.379 123.677 986.508 Q123.677 993.615 125.482 997.18 Q127.311 1000.72 130.922 1000.72 Q134.556 1000.72 136.362 997.18 Q138.191 993.615 138.191 986.508 Q138.191 979.379 136.362 975.837 Q134.556 972.272 130.922 972.272 M130.922 968.569 Q136.732 968.569 139.788 973.175 Q142.867 977.758 142.867 986.508 Q142.867 995.235 139.788 999.842 Q136.732 1004.42 130.922 1004.42 Q125.112 1004.42 122.033 999.842 Q118.978 995.235 118.978 986.508 Q118.978 977.758 122.033 973.175 Q125.112 968.569 130.922 968.569 Z" fill="#000000" fill-rule="nonzero" fill-opacity="1" /><path clip-path="url(#clip630)" d="M161.084 972.272 Q157.473 972.272 155.644 975.837 Q153.839 979.379 153.839 986.508 Q153.839 993.615 155.644 997.18 Q157.473 1000.72 161.084 1000.72 Q164.718 1000.72 166.524 997.18 Q168.353 993.615 168.353 986.508 Q168.353 979.379 166.524 975.837 Q164.718 972.272 161.084 972.272 M161.084 968.569 Q166.894 968.569 169.95 973.175 Q173.029 977.758 173.029 986.508 Q173.029 995.235 169.95 999.842 Q166.894 1004.42 161.084 1004.42 Q155.274 1004.42 152.195 999.842 Q149.14 995.235 149.14 986.508 Q149.14 977.758 152.195 973.175 Q155.274 968.569 161.084 968.569 Z" fill="#000000" fill-rule="nonzero" fill-opacity="1" /><path clip-path="url(#clip630)" d="M161.084 708.789 Q157.473 708.789 155.644 712.354 Q153.839 715.896 153.839 723.025 Q153.839 730.132 155.644 733.697 Q157.473 737.238 161.084 737.238 Q164.718 737.238 166.524 733.697 Q168.353 730.132 168.353 723.025 Q168.353 715.896 166.524 712.354 Q164.718 708.789 161.084 708.789 M161.084 705.086 Q166.894 705.086 169.95 709.692 Q173.029 714.275 173.029 723.025 Q173.029 731.752 169.95 736.359 Q166.894 740.942 161.084 740.942 Q155.274 740.942 152.195 736.359 Q149.14 731.752 149.14 723.025 Q149.14 714.275 152.195 709.692 Q155.274 705.086 161.084 705.086 Z" fill="#000000" fill-rule="nonzero" fill-opacity="1" /><path clip-path="url(#clip630)" d="M104.927 458.154 Q108.283 458.871 110.158 461.14 Q112.057 463.408 112.057 466.741 Q112.057 471.857 108.538 474.658 Q105.02 477.459 98.5382 477.459 Q96.3623 477.459 94.0475 477.019 Q91.7558 476.602 89.3021 475.746 L89.3021 471.232 Q91.2465 472.366 93.5613 472.945 Q95.8761 473.524 98.3993 473.524 Q102.797 473.524 105.089 471.788 Q107.404 470.052 107.404 466.741 Q107.404 463.686 105.251 461.973 Q103.121 460.237 99.3021 460.237 L95.2743 460.237 L95.2743 456.394 L99.4872 456.394 Q102.936 456.394 104.765 455.029 Q106.594 453.64 106.594 451.047 Q106.594 448.385 104.696 446.973 Q102.821 445.538 99.3021 445.538 Q97.3808 445.538 95.1817 445.955 Q92.9826 446.371 90.3438 447.251 L90.3438 443.084 Q93.0058 442.343 95.3206 441.973 Q97.6585 441.603 99.7187 441.603 Q105.043 441.603 108.145 444.033 Q111.246 446.441 111.246 450.561 Q111.246 453.431 109.603 455.422 Q107.959 457.39 104.927 458.154 Z" fill="#000000" fill-rule="nonzero" fill-opacity="1" /><path clip-path="url(#clip630)" d="M130.922 445.306 Q127.311 445.306 125.482 448.871 Q123.677 452.413 123.677 459.542 Q123.677 466.649 125.482 470.214 Q127.311 473.755 130.922 473.755 Q134.556 473.755 136.362 470.214 Q138.191 466.649 138.191 459.542 Q138.191 452.413 136.362 448.871 Q134.556 445.306 130.922 445.306 M130.922 441.603 Q136.732 441.603 139.788 446.209 Q142.867 450.792 142.867 459.542 Q142.867 468.269 139.788 472.876 Q136.732 477.459 130.922 477.459 Q125.112 477.459 122.033 472.876 Q118.978 468.269 118.978 459.542 Q118.978 450.792 122.033 446.209 Q125.112 441.603 130.922 441.603 Z" fill="#000000" fill-rule="nonzero" fill-opacity="1" /><path clip-path="url(#clip630)" d="M161.084 445.306 Q157.473 445.306 155.644 448.871 Q153.839 452.413 153.839 459.542 Q153.839 466.649 155.644 470.214 Q157.473 473.755 161.084 473.755 Q164.718 473.755 166.524 470.214 Q168.353 466.649 168.353 459.542 Q168.353 452.413 166.524 448.871 Q164.718 445.306 161.084 445.306 M161.084 441.603 Q166.894 441.603 169.95 446.209 Q173.029 450.792 173.029 459.542 Q173.029 468.269 169.95 472.876 Q166.894 477.459 161.084 477.459 Q155.274 477.459 152.195 472.876 Q149.14 468.269 149.14 459.542 Q149.14 450.792 152.195 446.209 Q155.274 441.603 161.084 441.603 Z" fill="#000000" fill-rule="nonzero" fill-opacity="1" /><path clip-path="url(#clip630)" d="M101.339 194.161 Q98.1909 194.161 96.3391 196.314 Q94.5104 198.467 94.5104 202.217 Q94.5104 205.944 96.3391 208.12 Q98.1909 210.272 101.339 210.272 Q104.487 210.272 106.316 208.12 Q108.168 205.944 108.168 202.217 Q108.168 198.467 106.316 196.314 Q104.487 194.161 101.339 194.161 M110.621 179.509 L110.621 183.768 Q108.862 182.935 107.057 182.495 Q105.274 182.055 103.515 182.055 Q98.8854 182.055 96.4317 185.18 Q94.0012 188.305 93.6539 194.624 Q95.0197 192.61 97.0798 191.546 Q99.14 190.458 101.617 190.458 Q106.825 190.458 109.834 193.629 Q112.867 196.777 112.867 202.217 Q112.867 207.541 109.719 210.758 Q106.571 213.976 101.339 213.976 Q95.3437 213.976 92.1725 209.393 Q89.0012 204.786 89.0012 196.059 Q89.0012 187.865 92.89 183.004 Q96.7789 178.12 103.33 178.12 Q105.089 178.12 106.871 178.467 Q108.677 178.814 110.621 179.509 Z" fill="#000000" fill-rule="nonzero" fill-opacity="1" /><path clip-path="url(#clip630)" d="M130.922 181.823 Q127.311 181.823 125.482 185.388 Q123.677 188.93 123.677 196.059 Q123.677 203.166 125.482 206.731 Q127.311 210.272 130.922 210.272 Q134.556 210.272 136.362 206.731 Q138.191 203.166 138.191 196.059 Q138.191 188.93 136.362 185.388 Q134.556 181.823 130.922 181.823 M130.922 178.12 Q136.732 178.12 139.788 182.726 Q142.867 187.309 142.867 196.059 Q142.867 204.786 139.788 209.393 Q136.732 213.976 130.922 213.976 Q125.112 213.976 122.033 209.393 Q118.978 204.786 118.978 196.059 Q118.978 187.309 122.033 182.726 Q125.112 178.12 130.922 178.12 Z" fill="#000000" fill-rule="nonzero" fill-opacity="1" /><path clip-path="url(#clip630)" d="M161.084 181.823 Q157.473 181.823 155.644 185.388 Q153.839 188.93 153.839 196.059 Q153.839 203.166 155.644 206.731 Q157.473 210.272 161.084 210.272 Q164.718 210.272 166.524 206.731 Q168.353 203.166 168.353 196.059 Q168.353 188.93 166.524 185.388 Q164.718 181.823 161.084 181.823 M161.084 178.12 Q166.894 178.12 169.95 182.726 Q173.029 187.309 173.029 196.059 Q173.029 204.786 169.95 209.393 Q166.894 213.976 161.084 213.976 Q155.274 213.976 152.195 209.393 Q149.14 204.786 149.14 196.059 Q149.14 187.309 152.195 182.726 Q155.274 178.12 161.084 178.12 Z" fill="#000000" fill-rule="nonzero" fill-opacity="1" /><path clip-path="url(#clip632)" d="M269.7 723.935 L284.25 723.843 L298.799 723.76 L313.349 723.665 L327.898 723.576 L342.448 723.495 L356.997 723.434 L371.547 723.364 L386.096 723.299 L400.646 723.254 L415.195 723.213 L429.745 723.179 L444.294 723.152 L458.844 723.124 L473.393 723.114 L487.943 723.094 L502.492 723.101 L517.042 723.094 L531.592 723.081 L546.141 723.139 L560.691 723.118 L575.24 723.156 L589.79 723.157 L604.339 723.186 L618.889 723.216 L633.438 723.244 L647.988 723.244 L662.537 723.217 L677.087 723.332 L691.636 723.302 L706.186 723.173 L720.735 723.082 L735.285 723.108 L749.834 723.03 L764.384 723.068 L778.934 722.946 L793.483 722.761 L808.033 722.728 L822.582 722.616 L837.132 722.563 L851.681 722.618 L866.231 722.302 L880.78 722.685 L895.33 722.104 L909.879 721.412 L924.429 721.204 L938.978 720.448 L953.528 719.744 L968.077 720.461 L982.627 719.723 L997.176 717.556 L1011.73 716.021 L1026.28 715.248 L1040.83 712.233 L1055.37 705.214 L1069.92 699.914 L1084.47 695.988 L1099.02 690.899 L1113.57 684.073 L1128.12 676.979 L1142.67 667.933 L1157.22 659.594 L1171.77 652.42 L1186.32 642.764 L1200.87 636.835 L1215.42 626.4 L1229.97 620.774 L1244.52 608.691 L1259.07 601.091 L1273.62 595.386 L1288.17 590.95 L1302.72 588.496 L1317.27 585.379 L1331.82 579.529 L1346.37 576.837 L1360.91 577.364 L1375.46 570.369 L1390.01 565.63 L1404.56 565.159 L1419.11 565.318 L1433.66 567.422 L1448.21 561.209 L1462.76 563.902 L1477.31 564.379 L1491.86 560.199 L1506.41 563.016 L1520.96 565.556 L1535.51 566.677 L1550.06 564.586 L1564.61 570.892 L1579.16 575.563 L1593.71 578.175 L1608.26 581.439 L1622.81 585.131 L1637.36 591.208 L1651.91 595.803 L1666.45 603.066 L1681 609.321 L1695.55 610.861 L1710.1 614.698 L1724.65 612.978 L1739.2 616.435 L1753.75 617.591 L1768.3 617.831 L1782.85 624.307 L1797.4 631.503 L1811.95 638.257 L1826.5 639.55 L1841.05 642.923 L1855.6 646.329 L1870.15 649.361 L1884.7 656.013 L1899.25 658.593 L1913.8 660.445 L1928.35 665.879 L1942.9 668.211 L1957.45 671.198 L1971.99 674.856 L1986.54 678.253 L2001.09 677.322 L2015.64 679.599 L2030.19 680.748 L2044.74 682.556 L2059.29 682.301 L2073.84 688.419 L2088.39 691.939 L2102.94 697.634 L2117.49 703.814 L2132.04 705.848 L2146.59 707.479 L2161.14 711.278 L2175.69 714.202 L2190.24 715.273 L2204.79 715.327 L2219.34 717.322 L2233.89 721.648 L2248.44 723.162 L2262.99 725.747 L2277.53 728.034 L2292.08 730.49 L2292.08 628.908 L2277.53 620.891 L2262.99 614.05 L2248.44 609.215 L2233.89 599.183 L2219.34 594.657 L2204.79 586.745 L2190.24 577.862 L2175.69 566.415 L2161.14 559.496 L2146.59 555.019 L2132.04 543.762 L2117.49 535.029 L2102.94 531.926 L2088.39 530.022 L2073.84 522.642 L2059.29 513.114 L2044.74 502.996 L2030.19 494.939 L2015.64 483.742 L2001.09 477.054 L1986.54 469.487 L1971.99 459.543 L1957.45 453.596 L1942.9 449.594 L1928.35 439.522 L1913.8 432.193 L1899.25 427.355 L1884.7 421.311 L1870.15 419.136 L1855.6 408.722 L1841.05 404.115 L1826.5 394.68 L1811.95 392.453 L1797.4 389.781 L1782.85 387.603 L1768.3 381.995 L1753.75 378.972 L1739.2 376.182 L1724.65 372.646 L1710.1 368.536 L1695.55 367.657 L1681 369.417 L1666.45 367.816 L1651.91 368.309 L1637.36 368.133 L1622.81 371.743 L1608.26 373.852 L1593.71 370.165 L1579.16 371.43 L1564.61 372.422 L1550.06 374.376 L1535.51 374.902 L1520.96 375.926 L1506.41 379.024 L1491.86 388.207 L1477.31 393.183 L1462.76 395.615 L1448.21 398.527 L1433.66 397.501 L1419.11 399.983 L1404.56 407.965 L1390.01 414.169 L1375.46 413.665 L1360.91 415.678 L1346.37 422.258 L1331.82 424.094 L1317.27 427.562 L1302.72 438.686 L1288.17 443.696 L1273.62 447.431 L1259.07 452.757 L1244.52 457.244 L1229.97 462.618 L1215.42 466.482 L1200.87 475.07 L1186.32 490.096 L1171.77 500.879 L1157.22 514.268 L1142.67 524.729 L1128.12 535.161 L1113.57 542.515 L1099.02 550.581 L1084.47 560.165 L1069.92 566.314 L1055.37 577.598 L1040.83 585.365 L1026.28 592.805 L1011.73 609.131 L997.176 619.436 L982.627 627.5 L968.077 637.281 L953.528 650.327 L938.978 659.743 L924.429 666.943 L909.879 673.091 L895.33 678.365 L880.78 683.19 L866.231 688.289 L851.681 692.681 L837.132 696.077 L822.582 699.509 L808.033 702.439 L793.483 705.113 L778.934 707.319 L764.384 709.238 L749.834 711.372 L735.285 712.825 L720.735 714.36 L706.186 715.491 L691.636 716.311 L677.087 717.251 L662.537 718.259 L647.988 718.877 L633.438 719.5 L618.889 720.103 L604.339 720.557 L589.79 720.966 L575.24 721.23 L560.691 721.558 L546.141 721.77 L531.592 722.029 L517.042 722.15 L502.492 722.297 L487.943 722.408 L473.393 722.488 L458.844 722.583 L444.294 722.647 L429.745 722.714 L415.195 722.776 L400.646 722.796 L386.096 722.826 L371.547 722.837 L356.997 722.852 L342.448 722.87 L327.898 722.886 L313.349 722.894 L298.799 722.923 L284.25 722.947 L269.7 722.961  Z" fill="#009af9" fill-rule="evenodd" fill-opacity="0.5"/>
<polyline clip-path="url(#clip632)" style="stroke:#009af9; stroke-linecap:round; stroke-linejoin:round; stroke-width:4; stroke-opacity:0.2; fill:none" points="269.7,723.448 284.25,723.395 298.799,723.342 313.349,723.28 327.898,723.231 342.448,723.182 356.997,723.143 371.547,723.1 386.096,723.063 400.646,723.025 415.195,722.994 429.745,722.947 444.294,722.899 458.844,722.854 473.393,722.801 487.943,722.751 502.492,722.699 517.042,722.622 531.592,722.555 546.141,722.454 560.691,722.338 575.24,722.193 589.79,722.062 604.339,721.871 618.889,721.66 633.438,721.372 647.988,721.06 662.537,720.738 677.087,720.291 691.636,719.807 706.186,719.332 720.735,718.721 735.285,717.967 749.834,717.201 764.384,716.153 778.934,715.133 793.483,713.937 808.033,712.584 822.582,711.063 837.132,709.32 851.681,707.65 866.231,705.295 880.78,702.937 895.33,700.235 909.879,697.251 924.429,694.074 938.978,690.095 953.528,685.035 968.077,678.871 982.627,673.611 997.176,668.496 1011.73,662.576 1026.28,654.026 1040.83,648.799 1055.37,641.406 1069.92,633.114 1084.47,628.077 1099.02,620.74 1113.57,613.294 1128.12,606.07 1142.67,596.331 1157.22,586.931 1171.77,576.649 1186.32,566.43 1200.87,555.953 1215.42,546.441 1229.97,541.696 1244.52,532.967 1259.07,526.924 1273.62,521.409 1288.17,517.323 1302.72,513.591 1317.27,506.471 1331.82,501.811 1346.37,499.548 1360.91,496.521 1375.46,492.017 1390.01,489.899 1404.56,486.562 1419.11,482.651 1433.66,482.462 1448.21,479.868 1462.76,479.759 1477.31,478.781 1491.86,474.203 1506.41,471.02 1520.96,470.741 1535.51,470.79 1550.06,469.481 1564.61,471.657 1579.16,473.497 1593.71,474.17 1608.26,477.645 1622.81,478.437 1637.36,479.67 1651.91,482.056 1666.45,485.441 1681,489.369 1695.55,489.259 1710.1,491.617 1724.65,492.812 1739.2,496.309 1753.75,498.281 1768.3,499.913 1782.85,505.955 1797.4,510.642 1811.95,515.355 1826.5,517.115 1841.05,523.519 1855.6,527.526 1870.15,534.248 1884.7,538.662 1899.25,542.974 1913.8,546.319 1928.35,552.701 1942.9,558.903 1957.45,562.397 1971.99,567.199 1986.54,573.87 2001.09,577.188 2015.64,581.671 2030.19,587.844 2044.74,592.776 2059.29,597.707 2073.84,605.53 2088.39,610.98 2102.94,614.78 2117.49,619.421 2132.04,624.805 2146.59,631.249 2161.14,635.387 2175.69,640.308 2190.24,646.567 2204.79,651.036 2219.34,655.989 2233.89,660.416 2248.44,666.189 2262.99,669.899 2277.53,674.462 2292.08,679.699 "/>
<path clip-path="url(#clip632)" d="M269.7 723.255 L284.25 723.264 L298.799 723.272 L313.349 723.275 L327.898 723.273 L342.448 723.271 L356.997 723.278 L371.547 723.275 L386.096 723.279 L400.646 723.282 L415.195 723.281 L429.745 723.284 L444.294 723.297 L458.844 723.3 L473.393 723.308 L487.943 723.314 L502.492 723.324 L517.042 723.322 L531.592 723.321 L546.141 723.347 L560.691 723.34 L575.24 723.361 L589.79 723.364 L604.339 723.37 L618.889 723.396 L633.438 723.416 L647.988 723.436 L662.537 723.407 L677.087 723.507 L691.636 723.497 L706.186 723.408 L720.735 723.374 L735.285 723.401 L749.834 723.36 L764.384 723.346 L778.934 723.324 L793.483 723.263 L808.033 723.239 L822.582 723.266 L837.132 723.298 L851.681 723.319 L866.231 723.283 L880.78 723.468 L895.33 723.375 L909.879 723.226 L924.429 723.366 L938.978 723.206 L953.528 723.171 L968.077 723.338 L982.627 723.218 L997.176 722.928 L1011.73 722.154 L1026.28 721.729 L1040.83 720.828 L1055.37 719.226 L1069.92 717.961 L1084.47 716.934 L1099.02 715.674 L1113.57 714.391 L1128.12 713.339 L1142.67 710.787 L1157.22 708.765 L1171.77 706.581 L1186.32 703.503 L1200.87 700.989 L1215.42 697.724 L1229.97 695.425 L1244.52 691.854 L1259.07 689.153 L1273.62 687.331 L1288.17 686.371 L1302.72 685.55 L1317.27 684.042 L1331.82 682.801 L1346.37 681.716 L1360.91 680.659 L1375.46 679.489 L1390.01 679.093 L1404.56 679.421 L1419.11 679.519 L1433.66 681.435 L1448.21 681.652 L1462.76 683.607 L1477.31 684.959 L1491.86 685.66 L1506.41 686.856 L1520.96 688.363 L1535.51 689.889 L1550.06 690.209 L1564.61 693.025 L1579.16 694.616 L1593.71 697.009 L1608.26 699.498 L1622.81 701.545 L1637.36 705.558 L1651.91 707.019 L1666.45 712.212 L1681 716.81 L1695.55 718.636 L1710.1 723.359 L1724.65 721.276 L1739.2 723.576 L1753.75 722.443 L1768.3 721.458 L1782.85 726.436 L1797.4 729.848 L1811.95 734.315 L1826.5 732.947 L1841.05 734.996 L1855.6 737.619 L1870.15 739.427 L1884.7 741.547 L1899.25 740.925 L1913.8 740.326 L1928.35 741.483 L1942.9 741.121 L1957.45 738.37 L1971.99 738.64 L1986.54 738.765 L2001.09 737.484 L2015.64 737.633 L2030.19 737.417 L2044.74 737.122 L2059.29 735.57 L2073.84 739.218 L2088.39 739.859 L2102.94 740.325 L2117.49 741.193 L2132.04 741.143 L2146.59 741.29 L2161.14 741.82 L2175.69 741.992 L2190.24 742.404 L2204.79 742.572 L2219.34 743.599 L2233.89 745.574 L2248.44 746.938 L2262.99 748.388 L2277.53 749.978 L2292.08 751.959 L2292.08 718.583 L2277.53 716.202 L2262.99 714.483 L2248.44 713.016 L2233.89 710.285 L2219.34 709.035 L2204.79 706.736 L2190.24 704.646 L2175.69 701.721 L2161.14 699.508 L2146.59 698.047 L2132.04 695.104 L2117.49 692.782 L2102.94 691.309 L2088.39 690.178 L2073.84 687.723 L2059.29 686.272 L2044.74 683.295 L2030.19 680.874 L2015.64 677.834 L2001.09 676.474 L1986.54 674.347 L1971.99 672.127 L1957.45 670.178 L1942.9 667.587 L1928.35 665.307 L1913.8 663.037 L1899.25 661.681 L1884.7 659.279 L1870.15 658.567 L1855.6 656.071 L1841.05 655.336 L1826.5 652.417 L1811.95 650.309 L1797.4 650.425 L1782.85 650.445 L1768.3 649.93 L1753.75 647.212 L1739.2 644.695 L1724.65 643.292 L1710.1 640.888 L1695.55 641.737 L1681 640.957 L1666.45 641.355 L1651.91 641.475 L1637.36 640.829 L1622.81 641.786 L1608.26 642.123 L1593.71 641.086 L1579.16 641.091 L1564.61 641.615 L1550.06 642.453 L1535.51 642.715 L1520.96 642.818 L1506.41 643.942 L1491.86 645.246 L1477.31 645.724 L1462.76 645.755 L1448.21 646.271 L1433.66 646.014 L1419.11 646.319 L1404.56 647.003 L1390.01 647.657 L1375.46 647.553 L1360.91 647.335 L1346.37 647.787 L1331.82 648.302 L1317.27 647.948 L1302.72 649.614 L1288.17 650.53 L1273.62 650.127 L1259.07 650.493 L1244.52 651.94 L1229.97 652.106 L1215.42 654.157 L1200.87 656.191 L1186.32 658.236 L1171.77 660 L1157.22 663.302 L1142.67 666.375 L1128.12 668.511 L1113.57 672.092 L1099.02 674.855 L1084.47 677.677 L1069.92 679.578 L1055.37 682.785 L1040.83 685.31 L1026.28 686.895 L1011.73 691.274 L997.176 693.374 L982.627 696.171 L968.077 699.114 L953.528 702.653 L938.978 705.348 L924.429 707.31 L909.879 709.278 L895.33 710.648 L880.78 712.046 L866.231 713.533 L851.681 714.79 L837.132 715.727 L822.582 716.777 L808.033 717.661 L793.483 718.332 L778.934 718.928 L764.384 719.482 L749.834 720.034 L735.285 720.396 L720.735 720.824 L706.186 721.086 L691.636 721.213 L677.087 721.471 L662.537 721.83 L647.988 721.979 L633.438 722.17 L618.889 722.356 L604.339 722.504 L589.79 722.607 L575.24 722.676 L560.691 722.778 L546.141 722.835 L531.592 722.916 L517.042 722.942 L502.492 722.971 L487.943 723.006 L473.393 723.017 L458.844 723.04 L444.294 723.045 L429.745 723.054 L415.195 723.057 L400.646 723.039 L386.096 723.03 L371.547 723.005 L356.997 722.983 L342.448 722.963 L327.898 722.929 L313.349 722.898 L298.799 722.863 L284.25 722.818 L269.7 722.778  Z" fill="#e26f46" fill-rule="evenodd" fill-opacity="0.5"/>
<polyline clip-path="url(#clip632)" style="stroke:#e26f46; stroke-linecap:round; stroke-linejoin:round; stroke-width:4; stroke-opacity:0.2; fill:none" points="269.7,723.016 284.25,723.041 298.799,723.068 313.349,723.086 327.898,723.101 342.448,723.117 356.997,723.131 371.547,723.14 386.096,723.155 400.646,723.161 415.195,723.169 429.745,723.169 444.294,723.171 458.844,723.17 473.393,723.163 487.943,723.16 502.492,723.148 517.042,723.132 531.592,723.119 546.141,723.091 560.691,723.059 575.24,723.018 589.79,722.986 604.339,722.937 618.889,722.876 633.438,722.793 647.988,722.708 662.537,722.618 677.087,722.489 691.636,722.355 706.186,722.247 720.735,722.099 735.285,721.899 749.834,721.697 764.384,721.414 778.934,721.126 793.483,720.797 808.033,720.45 822.582,720.022 837.132,719.513 851.681,719.055 866.231,718.408 880.78,717.757 895.33,717.011 909.879,716.252 924.429,715.338 938.978,714.277 953.528,712.912 968.077,711.226 982.627,709.695 997.176,708.151 1011.73,706.714 1026.28,704.312 1040.83,703.069 1055.37,701.006 1069.92,698.769 1084.47,697.305 1099.02,695.264 1113.57,693.242 1128.12,690.925 1142.67,688.581 1157.22,686.033 1171.77,683.291 1186.32,680.869 1200.87,678.59 1215.42,675.941 1229.97,673.766 1244.52,671.897 1259.07,669.823 1273.62,668.729 1288.17,668.45 1302.72,667.582 1317.27,665.995 1331.82,665.552 1346.37,664.751 1360.91,663.997 1375.46,663.521 1390.01,663.375 1404.56,663.212 1419.11,662.919 1433.66,663.725 1448.21,663.962 1462.76,664.681 1477.31,665.342 1491.86,665.453 1506.41,665.399 1520.96,665.59 1535.51,666.302 1550.06,666.331 1564.61,667.32 1579.16,667.854 1593.71,669.047 1608.26,670.811 1622.81,671.666 1637.36,673.193 1651.91,674.247 1666.45,676.783 1681,678.883 1695.55,680.186 1710.1,682.123 1724.65,682.284 1739.2,684.135 1753.75,684.827 1768.3,685.694 1782.85,688.44 1797.4,690.137 1811.95,692.312 1826.5,692.682 1841.05,695.166 1855.6,696.845 1870.15,698.997 1884.7,700.413 1899.25,701.303 1913.8,701.682 1928.35,703.395 1942.9,704.354 1957.45,704.274 1971.99,705.383 1986.54,706.556 2001.09,706.979 2015.64,707.734 2030.19,709.145 2044.74,710.208 2059.29,710.921 2073.84,713.47 2088.39,715.018 2102.94,715.817 2117.49,716.987 2132.04,718.124 2146.59,719.669 2161.14,720.664 2175.69,721.857 2190.24,723.525 2204.79,724.654 2219.34,726.317 2233.89,727.929 2248.44,729.977 2262.99,731.435 2277.53,733.09 2292.08,735.271 "/>
<circle clip-path="url(#clip632)" cx="269.7" cy="723.906" r="7.2" fill="#008000" fill-rule="evenodd" fill-opacity="1" stroke="#000000" stroke-opacity="1" stroke-width="3.2"/>
<circle clip-path="url(#clip632)" cx="284.25" cy="723.967" r="7.2" fill="#008000" fill-rule="evenodd" fill-opacity="1" stroke="#000000" stroke-opacity="1" stroke-width="3.2"/>
<circle clip-path="url(#clip632)" cx="298.799" cy="723.687" r="7.2" fill="#008000" fill-rule="evenodd" fill-opacity="1" stroke="#000000" stroke-opacity="1" stroke-width="3.2"/>
<circle clip-path="url(#clip632)" cx="313.349" cy="723.103" r="7.2" fill="#008000" fill-rule="evenodd" fill-opacity="1" stroke="#000000" stroke-opacity="1" stroke-width="3.2"/>
<circle clip-path="url(#clip632)" cx="327.898" cy="722.717" r="7.2" fill="#008000" fill-rule="evenodd" fill-opacity="1" stroke="#000000" stroke-opacity="1" stroke-width="3.2"/>
<circle clip-path="url(#clip632)" cx="342.448" cy="722.265" r="7.2" fill="#008000" fill-rule="evenodd" fill-opacity="1" stroke="#000000" stroke-opacity="1" stroke-width="3.2"/>
<circle clip-path="url(#clip632)" cx="356.997" cy="721.969" r="7.2" fill="#008000" fill-rule="evenodd" fill-opacity="1" stroke="#000000" stroke-opacity="1" stroke-width="3.2"/>
<circle clip-path="url(#clip632)" cx="371.547" cy="721.621" r="7.2" fill="#008000" fill-rule="evenodd" fill-opacity="1" stroke="#000000" stroke-opacity="1" stroke-width="3.2"/>
<circle clip-path="url(#clip632)" cx="386.096" cy="721.481" r="7.2" fill="#008000" fill-rule="evenodd" fill-opacity="1" stroke="#000000" stroke-opacity="1" stroke-width="3.2"/>
<circle clip-path="url(#clip632)" cx="400.646" cy="721.774" r="7.2" fill="#008000" fill-rule="evenodd" fill-opacity="1" stroke="#000000" stroke-opacity="1" stroke-width="3.2"/>
<circle clip-path="url(#clip632)" cx="415.195" cy="722.559" r="7.2" fill="#008000" fill-rule="evenodd" fill-opacity="1" stroke="#000000" stroke-opacity="1" stroke-width="3.2"/>
<circle clip-path="url(#clip632)" cx="429.745" cy="723.69" r="7.2" fill="#008000" fill-rule="evenodd" fill-opacity="1" stroke="#000000" stroke-opacity="1" stroke-width="3.2"/>
<circle clip-path="url(#clip632)" cx="444.294" cy="724.656" r="7.2" fill="#008000" fill-rule="evenodd" fill-opacity="1" stroke="#000000" stroke-opacity="1" stroke-width="3.2"/>
<circle clip-path="url(#clip632)" cx="458.844" cy="724.921" r="7.2" fill="#008000" fill-rule="evenodd" fill-opacity="1" stroke="#000000" stroke-opacity="1" stroke-width="3.2"/>
<circle clip-path="url(#clip632)" cx="473.393" cy="724.485" r="7.2" fill="#008000" fill-rule="evenodd" fill-opacity="1" stroke="#000000" stroke-opacity="1" stroke-width="3.2"/>
<circle clip-path="url(#clip632)" cx="487.943" cy="723.656" r="7.2" fill="#008000" fill-rule="evenodd" fill-opacity="1" stroke="#000000" stroke-opacity="1" stroke-width="3.2"/>
<circle clip-path="url(#clip632)" cx="502.492" cy="722.913" r="7.2" fill="#008000" fill-rule="evenodd" fill-opacity="1" stroke="#000000" stroke-opacity="1" stroke-width="3.2"/>
<circle clip-path="url(#clip632)" cx="517.042" cy="722.586" r="7.2" fill="#008000" fill-rule="evenodd" fill-opacity="1" stroke="#000000" stroke-opacity="1" stroke-width="3.2"/>
<circle clip-path="url(#clip632)" cx="531.592" cy="722.48" r="7.2" fill="#008000" fill-rule="evenodd" fill-opacity="1" stroke="#000000" stroke-opacity="1" stroke-width="3.2"/>
<circle clip-path="url(#clip632)" cx="546.141" cy="722.413" r="7.2" fill="#008000" fill-rule="evenodd" fill-opacity="1" stroke="#000000" stroke-opacity="1" stroke-width="3.2"/>
<circle clip-path="url(#clip632)" cx="560.691" cy="722.211" r="7.2" fill="#008000" fill-rule="evenodd" fill-opacity="1" stroke="#000000" stroke-opacity="1" stroke-width="3.2"/>
<circle clip-path="url(#clip632)" cx="575.24" cy="721.94" r="7.2" fill="#008000" fill-rule="evenodd" fill-opacity="1" stroke="#000000" stroke-opacity="1" stroke-width="3.2"/>
<circle clip-path="url(#clip632)" cx="589.79" cy="721.946" r="7.2" fill="#008000" fill-rule="evenodd" fill-opacity="1" stroke="#000000" stroke-opacity="1" stroke-width="3.2"/>
<circle clip-path="url(#clip632)" cx="604.339" cy="722.507" r="7.2" fill="#008000" fill-rule="evenodd" fill-opacity="1" stroke="#000000" stroke-opacity="1" stroke-width="3.2"/>
<circle clip-path="url(#clip632)" cx="618.889" cy="723.456" r="7.2" fill="#008000" fill-rule="evenodd" fill-opacity="1" stroke="#000000" stroke-opacity="1" stroke-width="3.2"/>
<circle clip-path="url(#clip632)" cx="633.438" cy="724.611" r="7.2" fill="#008000" fill-rule="evenodd" fill-opacity="1" stroke="#000000" stroke-opacity="1" stroke-width="3.2"/>
<circle clip-path="url(#clip632)" cx="647.988" cy="725.065" r="7.2" fill="#008000" fill-rule="evenodd" fill-opacity="1" stroke="#000000" stroke-opacity="1" stroke-width="3.2"/>
<circle clip-path="url(#clip632)" cx="662.537" cy="724.789" r="7.2" fill="#008000" fill-rule="evenodd" fill-opacity="1" stroke="#000000" stroke-opacity="1" stroke-width="3.2"/>
<circle clip-path="url(#clip632)" cx="677.087" cy="723.606" r="7.2" fill="#008000" fill-rule="evenodd" fill-opacity="1" stroke="#000000" stroke-opacity="1" stroke-width="3.2"/>
<circle clip-path="url(#clip632)" cx="691.636" cy="722.154" r="7.2" fill="#008000" fill-rule="evenodd" fill-opacity="1" stroke="#000000" stroke-opacity="1" stroke-width="3.2"/>
<circle clip-path="url(#clip632)" cx="706.186" cy="720.981" r="7.2" fill="#008000" fill-rule="evenodd" fill-opacity="1" stroke="#000000" stroke-opacity="1" stroke-width="3.2"/>
<circle clip-path="url(#clip632)" cx="720.735" cy="720.317" r="7.2" fill="#008000" fill-rule="evenodd" fill-opacity="1" stroke="#000000" stroke-opacity="1" stroke-width="3.2"/>
<circle clip-path="url(#clip632)" cx="735.285" cy="720.537" r="7.2" fill="#008000" fill-rule="evenodd" fill-opacity="1" stroke="#000000" stroke-opacity="1" stroke-width="3.2"/>
<circle clip-path="url(#clip632)" cx="749.834" cy="721.427" r="7.2" fill="#008000" fill-rule="evenodd" fill-opacity="1" stroke="#000000" stroke-opacity="1" stroke-width="3.2"/>
<circle clip-path="url(#clip632)" cx="764.384" cy="722.755" r="7.2" fill="#008000" fill-rule="evenodd" fill-opacity="1" stroke="#000000" stroke-opacity="1" stroke-width="3.2"/>
<circle clip-path="url(#clip632)" cx="778.934" cy="723.857" r="7.2" fill="#008000" fill-rule="evenodd" fill-opacity="1" stroke="#000000" stroke-opacity="1" stroke-width="3.2"/>
<circle clip-path="url(#clip632)" cx="793.483" cy="724.415" r="7.2" fill="#008000" fill-rule="evenodd" fill-opacity="1" stroke="#000000" stroke-opacity="1" stroke-width="3.2"/>
<circle clip-path="url(#clip632)" cx="808.033" cy="723.966" r="7.2" fill="#008000" fill-rule="evenodd" fill-opacity="1" stroke="#000000" stroke-opacity="1" stroke-width="3.2"/>
<circle clip-path="url(#clip632)" cx="822.582" cy="722.86" r="7.2" fill="#008000" fill-rule="evenodd" fill-opacity="1" stroke="#000000" stroke-opacity="1" stroke-width="3.2"/>
<circle clip-path="url(#clip632)" cx="837.132" cy="721.938" r="7.2" fill="#008000" fill-rule="evenodd" fill-opacity="1" stroke="#000000" stroke-opacity="1" stroke-width="3.2"/>
<circle clip-path="url(#clip632)" cx="851.681" cy="721.999" r="7.2" fill="#008000" fill-rule="evenodd" fill-opacity="1" stroke="#000000" stroke-opacity="1" stroke-width="3.2"/>
<circle clip-path="url(#clip632)" cx="866.231" cy="723.47" r="7.2" fill="#008000" fill-rule="evenodd" fill-opacity="1" stroke="#000000" stroke-opacity="1" stroke-width="3.2"/>
<circle clip-path="url(#clip632)" cx="880.78" cy="726.188" r="7.2" fill="#008000" fill-rule="evenodd" fill-opacity="1" stroke="#000000" stroke-opacity="1" stroke-width="3.2"/>
<circle clip-path="url(#clip632)" cx="895.33" cy="729.693" r="7.2" fill="#008000" fill-rule="evenodd" fill-opacity="1" stroke="#000000" stroke-opacity="1" stroke-width="3.2"/>
<circle clip-path="url(#clip632)" cx="909.879" cy="732.779" r="7.2" fill="#008000" fill-rule="evenodd" fill-opacity="1" stroke="#000000" stroke-opacity="1" stroke-width="3.2"/>
<circle clip-path="url(#clip632)" cx="924.429" cy="734.526" r="7.2" fill="#008000" fill-rule="evenodd" fill-opacity="1" stroke="#000000" stroke-opacity="1" stroke-width="3.2"/>
<circle clip-path="url(#clip632)" cx="938.978" cy="735.353" r="7.2" fill="#008000" fill-rule="evenodd" fill-opacity="1" stroke="#000000" stroke-opacity="1" stroke-width="3.2"/>
<circle clip-path="url(#clip632)" cx="953.528" cy="735.448" r="7.2" fill="#008000" fill-rule="evenodd" fill-opacity="1" stroke="#000000" stroke-opacity="1" stroke-width="3.2"/>
<circle clip-path="url(#clip632)" cx="968.077" cy="735.376" r="7.2" fill="#008000" fill-rule="evenodd" fill-opacity="1" stroke="#000000" stroke-opacity="1" stroke-width="3.2"/>
<circle clip-path="url(#clip632)" cx="982.627" cy="736.808" r="7.2" fill="#008000" fill-rule="evenodd" fill-opacity="1" stroke="#000000" stroke-opacity="1" stroke-width="3.2"/>
<circle clip-path="url(#clip632)" cx="997.176" cy="739.932" r="7.2" fill="#008000" fill-rule="evenodd" fill-opacity="1" stroke="#000000" stroke-opacity="1" stroke-width="3.2"/>
<circle clip-path="url(#clip632)" cx="1011.73" cy="744.147" r="7.2" fill="#008000" fill-rule="evenodd" fill-opacity="1" stroke="#000000" stroke-opacity="1" stroke-width="3.2"/>
<circle clip-path="url(#clip632)" cx="1026.28" cy="748.934" r="7.2" fill="#008000" fill-rule="evenodd" fill-opacity="1" stroke="#000000" stroke-opacity="1" stroke-width="3.2"/>
<circle clip-path="url(#clip632)" cx="1040.83" cy="754.24" r="7.2" fill="#008000" fill-rule="evenodd" fill-opacity="1" stroke="#000000" stroke-opacity="1" stroke-width="3.2"/>
<circle clip-path="url(#clip632)" cx="1055.37" cy="759.551" r="7.2" fill="#008000" fill-rule="evenodd" fill-opacity="1" stroke="#000000" stroke-opacity="1" stroke-width="3.2"/>
<circle clip-path="url(#clip632)" cx="1069.92" cy="765.836" r="7.2" fill="#008000" fill-rule="evenodd" fill-opacity="1" stroke="#000000" stroke-opacity="1" stroke-width="3.2"/>
<circle clip-path="url(#clip632)" cx="1084.47" cy="772.941" r="7.2" fill="#008000" fill-rule="evenodd" fill-opacity="1" stroke="#000000" stroke-opacity="1" stroke-width="3.2"/>
<circle clip-path="url(#clip632)" cx="1099.02" cy="781.468" r="7.2" fill="#008000" fill-rule="evenodd" fill-opacity="1" stroke="#000000" stroke-opacity="1" stroke-width="3.2"/>
<circle clip-path="url(#clip632)" cx="1113.57" cy="792.427" r="7.2" fill="#008000" fill-rule="evenodd" fill-opacity="1" stroke="#000000" stroke-opacity="1" stroke-width="3.2"/>
<circle clip-path="url(#clip632)" cx="1128.12" cy="805.357" r="7.2" fill="#008000" fill-rule="evenodd" fill-opacity="1" stroke="#000000" stroke-opacity="1" stroke-width="3.2"/>
<circle clip-path="url(#clip632)" cx="1142.67" cy="818.501" r="7.2" fill="#008000" fill-rule="evenodd" fill-opacity="1" stroke="#000000" stroke-opacity="1" stroke-width="3.2"/>
<circle clip-path="url(#clip632)" cx="1157.22" cy="833.194" r="7.2" fill="#008000" fill-rule="evenodd" fill-opacity="1" stroke="#000000" stroke-opacity="1" stroke-width="3.2"/>
<circle clip-path="url(#clip632)" cx="1171.77" cy="846.707" r="7.2" fill="#008000" fill-rule="evenodd" fill-opacity="1" stroke="#000000" stroke-opacity="1" stroke-width="3.2"/>
<circle clip-path="url(#clip632)" cx="1186.32" cy="855.794" r="7.2" fill="#008000" fill-rule="evenodd" fill-opacity="1" stroke="#000000" stroke-opacity="1" stroke-width="3.2"/>
<circle clip-path="url(#clip632)" cx="1200.87" cy="860.285" r="7.2" fill="#008000" fill-rule="evenodd" fill-opacity="1" stroke="#000000" stroke-opacity="1" stroke-width="3.2"/>
<circle clip-path="url(#clip632)" cx="1215.42" cy="860.563" r="7.2" fill="#008000" fill-rule="evenodd" fill-opacity="1" stroke="#000000" stroke-opacity="1" stroke-width="3.2"/>
<circle clip-path="url(#clip632)" cx="1229.97" cy="854.475" r="7.2" fill="#008000" fill-rule="evenodd" fill-opacity="1" stroke="#000000" stroke-opacity="1" stroke-width="3.2"/>
<circle clip-path="url(#clip632)" cx="1244.52" cy="844.352" r="7.2" fill="#008000" fill-rule="evenodd" fill-opacity="1" stroke="#000000" stroke-opacity="1" stroke-width="3.2"/>
<circle clip-path="url(#clip632)" cx="1259.07" cy="830.092" r="7.2" fill="#008000" fill-rule="evenodd" fill-opacity="1" stroke="#000000" stroke-opacity="1" stroke-width="3.2"/>
<circle clip-path="url(#clip632)" cx="1273.62" cy="809.455" r="7.2" fill="#008000" fill-rule="evenodd" fill-opacity="1" stroke="#000000" stroke-opacity="1" stroke-width="3.2"/>
<circle clip-path="url(#clip632)" cx="1288.17" cy="782.802" r="7.2" fill="#008000" fill-rule="evenodd" fill-opacity="1" stroke="#000000" stroke-opacity="1" stroke-width="3.2"/>
<circle clip-path="url(#clip632)" cx="1302.72" cy="749.84" r="7.2" fill="#008000" fill-rule="evenodd" fill-opacity="1" stroke="#000000" stroke-opacity="1" stroke-width="3.2"/>
<circle clip-path="url(#clip632)" cx="1317.27" cy="712.139" r="7.2" fill="#008000" fill-rule="evenodd" fill-opacity="1" stroke="#000000" stroke-opacity="1" stroke-width="3.2"/>
<circle clip-path="url(#clip632)" cx="1331.82" cy="670.888" r="7.2" fill="#008000" fill-rule="evenodd" fill-opacity="1" stroke="#000000" stroke-opacity="1" stroke-width="3.2"/>
<circle clip-path="url(#clip632)" cx="1346.37" cy="627.33" r="7.2" fill="#008000" fill-rule="evenodd" fill-opacity="1" stroke="#000000" stroke-opacity="1" stroke-width="3.2"/>
<circle clip-path="url(#clip632)" cx="1360.91" cy="583.401" r="7.2" fill="#008000" fill-rule="evenodd" fill-opacity="1" stroke="#000000" stroke-opacity="1" stroke-width="3.2"/>
<circle clip-path="url(#clip632)" cx="1375.46" cy="538.692" r="7.2" fill="#008000" fill-rule="evenodd" fill-opacity="1" stroke="#000000" stroke-opacity="1" stroke-width="3.2"/>
<circle clip-path="url(#clip632)" cx="1390.01" cy="495.836" r="7.2" fill="#008000" fill-rule="evenodd" fill-opacity="1" stroke="#000000" stroke-opacity="1" stroke-width="3.2"/>
<circle clip-path="url(#clip632)" cx="1404.56" cy="456.715" r="7.2" fill="#008000" fill-rule="evenodd" fill-opacity="1" stroke="#000000" stroke-opacity="1" stroke-width="3.2"/>
<circle clip-path="url(#clip632)" cx="1419.11" cy="421.718" r="7.2" fill="#008000" fill-rule="evenodd" fill-opacity="1" stroke="#000000" stroke-opacity="1" stroke-width="3.2"/>
<circle clip-path="url(#clip632)" cx="1433.66" cy="395.007" r="7.2" fill="#008000" fill-rule="evenodd" fill-opacity="1" stroke="#000000" stroke-opacity="1" stroke-width="3.2"/>
<circle clip-path="url(#clip632)" cx="1448.21" cy="378.535" r="7.2" fill="#008000" fill-rule="evenodd" fill-opacity="1" stroke="#000000" stroke-opacity="1" stroke-width="3.2"/>
<circle clip-path="url(#clip632)" cx="1462.76" cy="369.943" r="7.2" fill="#008000" fill-rule="evenodd" fill-opacity="1" stroke="#000000" stroke-opacity="1" stroke-width="3.2"/>
<circle clip-path="url(#clip632)" cx="1477.31" cy="363.453" r="7.2" fill="#008000" fill-rule="evenodd" fill-opacity="1" stroke="#000000" stroke-opacity="1" stroke-width="3.2"/>
<circle clip-path="url(#clip632)" cx="1491.86" cy="356.628" r="7.2" fill="#008000" fill-rule="evenodd" fill-opacity="1" stroke="#000000" stroke-opacity="1" stroke-width="3.2"/>
<circle clip-path="url(#clip632)" cx="1506.41" cy="345.548" r="7.2" fill="#008000" fill-rule="evenodd" fill-opacity="1" stroke="#000000" stroke-opacity="1" stroke-width="3.2"/>
<circle clip-path="url(#clip632)" cx="1520.96" cy="326.429" r="7.2" fill="#008000" fill-rule="evenodd" fill-opacity="1" stroke="#000000" stroke-opacity="1" stroke-width="3.2"/>
<circle clip-path="url(#clip632)" cx="1535.51" cy="304.538" r="7.2" fill="#008000" fill-rule="evenodd" fill-opacity="1" stroke="#000000" stroke-opacity="1" stroke-width="3.2"/>
<circle clip-path="url(#clip632)" cx="1550.06" cy="282.182" r="7.2" fill="#008000" fill-rule="evenodd" fill-opacity="1" stroke="#000000" stroke-opacity="1" stroke-width="3.2"/>
<circle clip-path="url(#clip632)" cx="1564.61" cy="257.543" r="7.2" fill="#008000" fill-rule="evenodd" fill-opacity="1" stroke="#000000" stroke-opacity="1" stroke-width="3.2"/>
<circle clip-path="url(#clip632)" cx="1579.16" cy="236.696" r="7.2" fill="#008000" fill-rule="evenodd" fill-opacity="1" stroke="#000000" stroke-opacity="1" stroke-width="3.2"/>
<circle clip-path="url(#clip632)" cx="1593.71" cy="218.696" r="7.2" fill="#008000" fill-rule="evenodd" fill-opacity="1" stroke="#000000" stroke-opacity="1" stroke-width="3.2"/>
<circle clip-path="url(#clip632)" cx="1608.26" cy="201.21" r="7.2" fill="#008000" fill-rule="evenodd" fill-opacity="1" stroke="#000000" stroke-opacity="1" stroke-width="3.2"/>
<circle clip-path="url(#clip632)" cx="1622.81" cy="184.125" r="7.2" fill="#008000" fill-rule="evenodd" fill-opacity="1" stroke="#000000" stroke-opacity="1" stroke-width="3.2"/>
<circle clip-path="url(#clip632)" cx="1637.36" cy="165.762" r="7.2" fill="#008000" fill-rule="evenodd" fill-opacity="1" stroke="#000000" stroke-opacity="1" stroke-width="3.2"/>
<circle clip-path="url(#clip632)" cx="1651.91" cy="145.042" r="7.2" fill="#008000" fill-rule="evenodd" fill-opacity="1" stroke="#000000" stroke-opacity="1" stroke-width="3.2"/>
<circle clip-path="url(#clip632)" cx="1666.45" cy="123.017" r="7.2" fill="#008000" fill-rule="evenodd" fill-opacity="1" stroke="#000000" stroke-opacity="1" stroke-width="3.2"/>
<circle clip-path="url(#clip632)" cx="1681" cy="104.471" r="7.2" fill="#008000" fill-rule="evenodd" fill-opacity="1" stroke="#000000" stroke-opacity="1" stroke-width="3.2"/>
<circle clip-path="url(#clip632)" cx="1695.55" cy="92.4086" r="7.2" fill="#008000" fill-rule="evenodd" fill-opacity="1" stroke="#000000" stroke-opacity="1" stroke-width="3.2"/>
<circle clip-path="url(#clip632)" cx="1710.1" cy="87.9763" r="7.2" fill="#008000" fill-rule="evenodd" fill-opacity="1" stroke="#000000" stroke-opacity="1" stroke-width="3.2"/>
<circle clip-path="url(#clip632)" cx="1724.65" cy="96.0103" r="7.2" fill="#008000" fill-rule="evenodd" fill-opacity="1" stroke="#000000" stroke-opacity="1" stroke-width="3.2"/>
<circle clip-path="url(#clip632)" cx="1739.2" cy="113.508" r="7.2" fill="#008000" fill-rule="evenodd" fill-opacity="1" stroke="#000000" stroke-opacity="1" stroke-width="3.2"/>
<circle clip-path="url(#clip632)" cx="1753.75" cy="134.929" r="7.2" fill="#008000" fill-rule="evenodd" fill-opacity="1" stroke="#000000" stroke-opacity="1" stroke-width="3.2"/>
<circle clip-path="url(#clip632)" cx="1768.3" cy="157.122" r="7.2" fill="#008000" fill-rule="evenodd" fill-opacity="1" stroke="#000000" stroke-opacity="1" stroke-width="3.2"/>
<circle clip-path="url(#clip632)" cx="1782.85" cy="174.585" r="7.2" fill="#008000" fill-rule="evenodd" fill-opacity="1" stroke="#000000" stroke-opacity="1" stroke-width="3.2"/>
<circle clip-path="url(#clip632)" cx="1797.4" cy="184.029" r="7.2" fill="#008000" fill-rule="evenodd" fill-opacity="1" stroke="#000000" stroke-opacity="1" stroke-width="3.2"/>
<circle clip-path="url(#clip632)" cx="1811.95" cy="185.857" r="7.2" fill="#008000" fill-rule="evenodd" fill-opacity="1" stroke="#000000" stroke-opacity="1" stroke-width="3.2"/>
<circle clip-path="url(#clip632)" cx="1826.5" cy="186.226" r="7.2" fill="#008000" fill-rule="evenodd" fill-opacity="1" stroke="#000000" stroke-opacity="1" stroke-width="3.2"/>
<circle clip-path="url(#clip632)" cx="1841.05" cy="189.543" r="7.2" fill="#008000" fill-rule="evenodd" fill-opacity="1" stroke="#000000" stroke-opacity="1" stroke-width="3.2"/>
<circle clip-path="url(#clip632)" cx="1855.6" cy="197.977" r="7.2" fill="#008000" fill-rule="evenodd" fill-opacity="1" stroke="#000000" stroke-opacity="1" stroke-width="3.2"/>
<circle clip-path="url(#clip632)" cx="1870.15" cy="215.537" r="7.2" fill="#008000" fill-rule="evenodd" fill-opacity="1" stroke="#000000" stroke-opacity="1" stroke-width="3.2"/>
<circle clip-path="url(#clip632)" cx="1884.7" cy="239.416" r="7.2" fill="#008000" fill-rule="evenodd" fill-opacity="1" stroke="#000000" stroke-opacity="1" stroke-width="3.2"/>
<circle clip-path="url(#clip632)" cx="1899.25" cy="263.418" r="7.2" fill="#008000" fill-rule="evenodd" fill-opacity="1" stroke="#000000" stroke-opacity="1" stroke-width="3.2"/>
<circle clip-path="url(#clip632)" cx="1913.8" cy="287.422" r="7.2" fill="#008000" fill-rule="evenodd" fill-opacity="1" stroke="#000000" stroke-opacity="1" stroke-width="3.2"/>
<circle clip-path="url(#clip632)" cx="1928.35" cy="304.052" r="7.2" fill="#008000" fill-rule="evenodd" fill-opacity="1" stroke="#000000" stroke-opacity="1" stroke-width="3.2"/>
<circle clip-path="url(#clip632)" cx="1942.9" cy="311.241" r="7.2" fill="#008000" fill-rule="evenodd" fill-opacity="1" stroke="#000000" stroke-opacity="1" stroke-width="3.2"/>
<circle clip-path="url(#clip632)" cx="1957.45" cy="312.146" r="7.2" fill="#008000" fill-rule="evenodd" fill-opacity="1" stroke="#000000" stroke-opacity="1" stroke-width="3.2"/>
<circle clip-path="url(#clip632)" cx="1971.99" cy="310.57" r="7.2" fill="#008000" fill-rule="evenodd" fill-opacity="1" stroke="#000000" stroke-opacity="1" stroke-width="3.2"/>
<circle clip-path="url(#clip632)" cx="1986.54" cy="310.675" r="7.2" fill="#008000" fill-rule="evenodd" fill-opacity="1" stroke="#000000" stroke-opacity="1" stroke-width="3.2"/>
<circle clip-path="url(#clip632)" cx="2001.09" cy="316.32" r="7.2" fill="#008000" fill-rule="evenodd" fill-opacity="1" stroke="#000000" stroke-opacity="1" stroke-width="3.2"/>
<circle clip-path="url(#clip632)" cx="2015.64" cy="330.241" r="7.2" fill="#008000" fill-rule="evenodd" fill-opacity="1" stroke="#000000" stroke-opacity="1" stroke-width="3.2"/>
<circle clip-path="url(#clip632)" cx="2030.19" cy="350.306" r="7.2" fill="#008000" fill-rule="evenodd" fill-opacity="1" stroke="#000000" stroke-opacity="1" stroke-width="3.2"/>
<circle clip-path="url(#clip632)" cx="2044.74" cy="372.679" r="7.2" fill="#008000" fill-rule="evenodd" fill-opacity="1" stroke="#000000" stroke-opacity="1" stroke-width="3.2"/>
<circle clip-path="url(#clip632)" cx="2059.29" cy="397.83" r="7.2" fill="#008000" fill-rule="evenodd" fill-opacity="1" stroke="#000000" stroke-opacity="1" stroke-width="3.2"/>
<circle clip-path="url(#clip632)" cx="2073.84" cy="420.222" r="7.2" fill="#008000" fill-rule="evenodd" fill-opacity="1" stroke="#000000" stroke-opacity="1" stroke-width="3.2"/>
<circle clip-path="url(#clip632)" cx="2088.39" cy="438.444" r="7.2" fill="#008000" fill-rule="evenodd" fill-opacity="1" stroke="#000000" stroke-opacity="1" stroke-width="3.2"/>
<circle clip-path="url(#clip632)" cx="2102.94" cy="455.085" r="7.2" fill="#008000" fill-rule="evenodd" fill-opacity="1" stroke="#000000" stroke-opacity="1" stroke-width="3.2"/>
<circle clip-path="url(#clip632)" cx="2117.49" cy="470.931" r="7.2" fill="#008000" fill-rule="evenodd" fill-opacity="1" stroke="#000000" stroke-opacity="1" stroke-width="3.2"/>
<circle clip-path="url(#clip632)" cx="2132.04" cy="486.32" r="7.2" fill="#008000" fill-rule="evenodd" fill-opacity="1" stroke="#000000" stroke-opacity="1" stroke-width="3.2"/>
<circle clip-path="url(#clip632)" cx="2146.59" cy="502.25" r="7.2" fill="#008000" fill-rule="evenodd" fill-opacity="1" stroke="#000000" stroke-opacity="1" stroke-width="3.2"/>
<circle clip-path="url(#clip632)" cx="2161.14" cy="518.089" r="7.2" fill="#008000" fill-rule="evenodd" fill-opacity="1" stroke="#000000" stroke-opacity="1" stroke-width="3.2"/>
<circle clip-path="url(#clip632)" cx="2175.69" cy="532.041" r="7.2" fill="#008000" fill-rule="evenodd" fill-opacity="1" stroke="#000000" stroke-opacity="1" stroke-width="3.2"/>
<circle clip-path="url(#clip632)" cx="2190.24" cy="542.641" r="7.2" fill="#008000" fill-rule="evenodd" fill-opacity="1" stroke="#000000" stroke-opacity="1" stroke-width="3.2"/>
<circle clip-path="url(#clip632)" cx="2204.79" cy="553.51" r="7.2" fill="#008000" fill-rule="evenodd" fill-opacity="1" stroke="#000000" stroke-opacity="1" stroke-width="3.2"/>
<circle clip-path="url(#clip632)" cx="2219.34" cy="564.933" r="7.2" fill="#008000" fill-rule="evenodd" fill-opacity="1" stroke="#000000" stroke-opacity="1" stroke-width="3.2"/>
<circle clip-path="url(#clip632)" cx="2233.89" cy="579.325" r="7.2" fill="#008000" fill-rule="evenodd" fill-opacity="1" stroke="#000000" stroke-opacity="1" stroke-width="3.2"/>
<circle clip-path="url(#clip632)" cx="2248.44" cy="598.403" r="7.2" fill="#008000" fill-rule="evenodd" fill-opacity="1" stroke="#000000" stroke-opacity="1" stroke-width="3.2"/>
<circle clip-path="url(#clip632)" cx="2262.99" cy="621.442" r="7.2" fill="#008000" fill-rule="evenodd" fill-opacity="1" stroke="#000000" stroke-opacity="1" stroke-width="3.2"/>
<circle clip-path="url(#clip632)" cx="2277.53" cy="645.978" r="7.2" fill="#008000" fill-rule="evenodd" fill-opacity="1" stroke="#000000" stroke-opacity="1" stroke-width="3.2"/>
<circle clip-path="url(#clip632)" cx="2292.08" cy="670.708" r="7.2" fill="#008000" fill-rule="evenodd" fill-opacity="1" stroke="#000000" stroke-opacity="1" stroke-width="3.2"/>
<circle clip-path="url(#clip632)" cx="269.7" cy="720.573" r="7.2" fill="#008000" fill-rule="evenodd" fill-opacity="1" stroke="#000000" stroke-opacity="1" stroke-width="3.2"/>
<circle clip-path="url(#clip632)" cx="284.25" cy="718.068" r="7.2" fill="#008000" fill-rule="evenodd" fill-opacity="1" stroke="#000000" stroke-opacity="1" stroke-width="3.2"/>
<circle clip-path="url(#clip632)" cx="298.799" cy="717.439" r="7.2" fill="#008000" fill-rule="evenodd" fill-opacity="1" stroke="#000000" stroke-opacity="1" stroke-width="3.2"/>
<circle clip-path="url(#clip632)" cx="313.349" cy="718.886" r="7.2" fill="#008000" fill-rule="evenodd" fill-opacity="1" stroke="#000000" stroke-opacity="1" stroke-width="3.2"/>
<circle clip-path="url(#clip632)" cx="327.898" cy="721.842" r="7.2" fill="#008000" fill-rule="evenodd" fill-opacity="1" stroke="#000000" stroke-opacity="1" stroke-width="3.2"/>
<circle clip-path="url(#clip632)" cx="342.448" cy="725.192" r="7.2" fill="#008000" fill-rule="evenodd" fill-opacity="1" stroke="#000000" stroke-opacity="1" stroke-width="3.2"/>
<circle clip-path="url(#clip632)" cx="356.997" cy="727.616" r="7.2" fill="#008000" fill-rule="evenodd" fill-opacity="1" stroke="#000000" stroke-opacity="1" stroke-width="3.2"/>
<circle clip-path="url(#clip632)" cx="371.547" cy="728.546" r="7.2" fill="#008000" fill-rule="evenodd" fill-opacity="1" stroke="#000000" stroke-opacity="1" stroke-width="3.2"/>
<circle clip-path="url(#clip632)" cx="386.096" cy="727.675" r="7.2" fill="#008000" fill-rule="evenodd" fill-opacity="1" stroke="#000000" stroke-opacity="1" stroke-width="3.2"/>
<circle clip-path="url(#clip632)" cx="400.646" cy="726.008" r="7.2" fill="#008000" fill-rule="evenodd" fill-opacity="1" stroke="#000000" stroke-opacity="1" stroke-width="3.2"/>
<circle clip-path="url(#clip632)" cx="415.195" cy="724.072" r="7.2" fill="#008000" fill-rule="evenodd" fill-opacity="1" stroke="#000000" stroke-opacity="1" stroke-width="3.2"/>
<circle clip-path="url(#clip632)" cx="429.745" cy="722.849" r="7.2" fill="#008000" fill-rule="evenodd" fill-opacity="1" stroke="#000000" stroke-opacity="1" stroke-width="3.2"/>
<circle clip-path="url(#clip632)" cx="444.294" cy="722.388" r="7.2" fill="#008000" fill-rule="evenodd" fill-opacity="1" stroke="#000000" stroke-opacity="1" stroke-width="3.2"/>
<circle clip-path="url(#clip632)" cx="458.844" cy="722.652" r="7.2" fill="#008000" fill-rule="evenodd" fill-opacity="1" stroke="#000000" stroke-opacity="1" stroke-width="3.2"/>
<circle clip-path="url(#clip632)" cx="473.393" cy="723.427" r="7.2" fill="#008000" fill-rule="evenodd" fill-opacity="1" stroke="#000000" stroke-opacity="1" stroke-width="3.2"/>
<circle clip-path="url(#clip632)" cx="487.943" cy="724.083" r="7.2" fill="#008000" fill-rule="evenodd" fill-opacity="1" stroke="#000000" stroke-opacity="1" stroke-width="3.2"/>
<circle clip-path="url(#clip632)" cx="502.492" cy="724.551" r="7.2" fill="#008000" fill-rule="evenodd" fill-opacity="1" stroke="#000000" stroke-opacity="1" stroke-width="3.2"/>
<circle clip-path="url(#clip632)" cx="517.042" cy="724.517" r="7.2" fill="#008000" fill-rule="evenodd" fill-opacity="1" stroke="#000000" stroke-opacity="1" stroke-width="3.2"/>
<circle clip-path="url(#clip632)" cx="531.592" cy="724.326" r="7.2" fill="#008000" fill-rule="evenodd" fill-opacity="1" stroke="#000000" stroke-opacity="1" stroke-width="3.2"/>
<circle clip-path="url(#clip632)" cx="546.141" cy="723.894" r="7.2" fill="#008000" fill-rule="evenodd" fill-opacity="1" stroke="#000000" stroke-opacity="1" stroke-width="3.2"/>
<circle clip-path="url(#clip632)" cx="560.691" cy="723.446" r="7.2" fill="#008000" fill-rule="evenodd" fill-opacity="1" stroke="#000000" stroke-opacity="1" stroke-width="3.2"/>
<circle clip-path="url(#clip632)" cx="575.24" cy="722.706" r="7.2" fill="#008000" fill-rule="evenodd" fill-opacity="1" stroke="#000000" stroke-opacity="1" stroke-width="3.2"/>
<circle clip-path="url(#clip632)" cx="589.79" cy="722.166" r="7.2" fill="#008000" fill-rule="evenodd" fill-opacity="1" stroke="#000000" stroke-opacity="1" stroke-width="3.2"/>
<circle clip-path="url(#clip632)" cx="604.339" cy="721.905" r="7.2" fill="#008000" fill-rule="evenodd" fill-opacity="1" stroke="#000000" stroke-opacity="1" stroke-width="3.2"/>
<circle clip-path="url(#clip632)" cx="618.889" cy="722.218" r="7.2" fill="#008000" fill-rule="evenodd" fill-opacity="1" stroke="#000000" stroke-opacity="1" stroke-width="3.2"/>
<circle clip-path="url(#clip632)" cx="633.438" cy="722.753" r="7.2" fill="#008000" fill-rule="evenodd" fill-opacity="1" stroke="#000000" stroke-opacity="1" stroke-width="3.2"/>
<circle clip-path="url(#clip632)" cx="647.988" cy="723.171" r="7.2" fill="#008000" fill-rule="evenodd" fill-opacity="1" stroke="#000000" stroke-opacity="1" stroke-width="3.2"/>
<circle clip-path="url(#clip632)" cx="662.537" cy="722.92" r="7.2" fill="#008000" fill-rule="evenodd" fill-opacity="1" stroke="#000000" stroke-opacity="1" stroke-width="3.2"/>
<circle clip-path="url(#clip632)" cx="677.087" cy="721.905" r="7.2" fill="#008000" fill-rule="evenodd" fill-opacity="1" stroke="#000000" stroke-opacity="1" stroke-width="3.2"/>
<circle clip-path="url(#clip632)" cx="691.636" cy="720.049" r="7.2" fill="#008000" fill-rule="evenodd" fill-opacity="1" stroke="#000000" stroke-opacity="1" stroke-width="3.2"/>
<circle clip-path="url(#clip632)" cx="706.186" cy="718.14" r="7.2" fill="#008000" fill-rule="evenodd" fill-opacity="1" stroke="#000000" stroke-opacity="1" stroke-width="3.2"/>
<circle clip-path="url(#clip632)" cx="720.735" cy="716.801" r="7.2" fill="#008000" fill-rule="evenodd" fill-opacity="1" stroke="#000000" stroke-opacity="1" stroke-width="3.2"/>
<circle clip-path="url(#clip632)" cx="735.285" cy="716.891" r="7.2" fill="#008000" fill-rule="evenodd" fill-opacity="1" stroke="#000000" stroke-opacity="1" stroke-width="3.2"/>
<circle clip-path="url(#clip632)" cx="749.834" cy="718.632" r="7.2" fill="#008000" fill-rule="evenodd" fill-opacity="1" stroke="#000000" stroke-opacity="1" stroke-width="3.2"/>
<circle clip-path="url(#clip632)" cx="764.384" cy="721.528" r="7.2" fill="#008000" fill-rule="evenodd" fill-opacity="1" stroke="#000000" stroke-opacity="1" stroke-width="3.2"/>
<circle clip-path="url(#clip632)" cx="778.934" cy="724.577" r="7.2" fill="#008000" fill-rule="evenodd" fill-opacity="1" stroke="#000000" stroke-opacity="1" stroke-width="3.2"/>
<circle clip-path="url(#clip632)" cx="793.483" cy="727.118" r="7.2" fill="#008000" fill-rule="evenodd" fill-opacity="1" stroke="#000000" stroke-opacity="1" stroke-width="3.2"/>
<circle clip-path="url(#clip632)" cx="808.033" cy="728.203" r="7.2" fill="#008000" fill-rule="evenodd" fill-opacity="1" stroke="#000000" stroke-opacity="1" stroke-width="3.2"/>
<circle clip-path="url(#clip632)" cx="822.582" cy="727.585" r="7.2" fill="#008000" fill-rule="evenodd" fill-opacity="1" stroke="#000000" stroke-opacity="1" stroke-width="3.2"/>
<circle clip-path="url(#clip632)" cx="837.132" cy="726.454" r="7.2" fill="#008000" fill-rule="evenodd" fill-opacity="1" stroke="#000000" stroke-opacity="1" stroke-width="3.2"/>
<circle clip-path="url(#clip632)" cx="851.681" cy="725.767" r="7.2" fill="#008000" fill-rule="evenodd" fill-opacity="1" stroke="#000000" stroke-opacity="1" stroke-width="3.2"/>
<circle clip-path="url(#clip632)" cx="866.231" cy="725.682" r="7.2" fill="#008000" fill-rule="evenodd" fill-opacity="1" stroke="#000000" stroke-opacity="1" stroke-width="3.2"/>
<circle clip-path="url(#clip632)" cx="880.78" cy="726.553" r="7.2" fill="#008000" fill-rule="evenodd" fill-opacity="1" stroke="#000000" stroke-opacity="1" stroke-width="3.2"/>
<circle clip-path="url(#clip632)" cx="895.33" cy="727.981" r="7.2" fill="#008000" fill-rule="evenodd" fill-opacity="1" stroke="#000000" stroke-opacity="1" stroke-width="3.2"/>
<circle clip-path="url(#clip632)" cx="909.879" cy="729.727" r="7.2" fill="#008000" fill-rule="evenodd" fill-opacity="1" stroke="#000000" stroke-opacity="1" stroke-width="3.2"/>
<circle clip-path="url(#clip632)" cx="924.429" cy="731.629" r="7.2" fill="#008000" fill-rule="evenodd" fill-opacity="1" stroke="#000000" stroke-opacity="1" stroke-width="3.2"/>
<circle clip-path="url(#clip632)" cx="938.978" cy="735.074" r="7.2" fill="#008000" fill-rule="evenodd" fill-opacity="1" stroke="#000000" stroke-opacity="1" stroke-width="3.2"/>
<circle clip-path="url(#clip632)" cx="953.528" cy="740.076" r="7.2" fill="#008000" fill-rule="evenodd" fill-opacity="1" stroke="#000000" stroke-opacity="1" stroke-width="3.2"/>
<circle clip-path="url(#clip632)" cx="968.077" cy="746.572" r="7.2" fill="#008000" fill-rule="evenodd" fill-opacity="1" stroke="#000000" stroke-opacity="1" stroke-width="3.2"/>
<circle clip-path="url(#clip632)" cx="982.627" cy="756.367" r="7.2" fill="#008000" fill-rule="evenodd" fill-opacity="1" stroke="#000000" stroke-opacity="1" stroke-width="3.2"/>
<circle clip-path="url(#clip632)" cx="997.176" cy="768.425" r="7.2" fill="#008000" fill-rule="evenodd" fill-opacity="1" stroke="#000000" stroke-opacity="1" stroke-width="3.2"/>
<circle clip-path="url(#clip632)" cx="1011.73" cy="779.125" r="7.2" fill="#008000" fill-rule="evenodd" fill-opacity="1" stroke="#000000" stroke-opacity="1" stroke-width="3.2"/>
<circle clip-path="url(#clip632)" cx="1026.28" cy="788.039" r="7.2" fill="#008000" fill-rule="evenodd" fill-opacity="1" stroke="#000000" stroke-opacity="1" stroke-width="3.2"/>
<circle clip-path="url(#clip632)" cx="1040.83" cy="795.359" r="7.2" fill="#008000" fill-rule="evenodd" fill-opacity="1" stroke="#000000" stroke-opacity="1" stroke-width="3.2"/>
<circle clip-path="url(#clip632)" cx="1055.37" cy="800.813" r="7.2" fill="#008000" fill-rule="evenodd" fill-opacity="1" stroke="#000000" stroke-opacity="1" stroke-width="3.2"/>
<circle clip-path="url(#clip632)" cx="1069.92" cy="804.642" r="7.2" fill="#008000" fill-rule="evenodd" fill-opacity="1" stroke="#000000" stroke-opacity="1" stroke-width="3.2"/>
<circle clip-path="url(#clip632)" cx="1084.47" cy="812.265" r="7.2" fill="#008000" fill-rule="evenodd" fill-opacity="1" stroke="#000000" stroke-opacity="1" stroke-width="3.2"/>
<circle clip-path="url(#clip632)" cx="1099.02" cy="823.057" r="7.2" fill="#008000" fill-rule="evenodd" fill-opacity="1" stroke="#000000" stroke-opacity="1" stroke-width="3.2"/>
<circle clip-path="url(#clip632)" cx="1113.57" cy="838.7" r="7.2" fill="#008000" fill-rule="evenodd" fill-opacity="1" stroke="#000000" stroke-opacity="1" stroke-width="3.2"/>
<circle clip-path="url(#clip632)" cx="1128.12" cy="863.511" r="7.2" fill="#008000" fill-rule="evenodd" fill-opacity="1" stroke="#000000" stroke-opacity="1" stroke-width="3.2"/>
<circle clip-path="url(#clip632)" cx="1142.67" cy="894.509" r="7.2" fill="#008000" fill-rule="evenodd" fill-opacity="1" stroke="#000000" stroke-opacity="1" stroke-width="3.2"/>
<circle clip-path="url(#clip632)" cx="1157.22" cy="929.576" r="7.2" fill="#008000" fill-rule="evenodd" fill-opacity="1" stroke="#000000" stroke-opacity="1" stroke-width="3.2"/>
<circle clip-path="url(#clip632)" cx="1171.77" cy="967.276" r="7.2" fill="#008000" fill-rule="evenodd" fill-opacity="1" stroke="#000000" stroke-opacity="1" stroke-width="3.2"/>
<circle clip-path="url(#clip632)" cx="1186.32" cy="1006.98" r="7.2" fill="#008000" fill-rule="evenodd" fill-opacity="1" stroke="#000000" stroke-opacity="1" stroke-width="3.2"/>
<circle clip-path="url(#clip632)" cx="1200.87" cy="1047.69" r="7.2" fill="#008000" fill-rule="evenodd" fill-opacity="1" stroke="#000000" stroke-opacity="1" stroke-width="3.2"/>
<circle clip-path="url(#clip632)" cx="1215.42" cy="1090.3" r="7.2" fill="#008000" fill-rule="evenodd" fill-opacity="1" stroke="#000000" stroke-opacity="1" stroke-width="3.2"/>
<circle clip-path="url(#clip632)" cx="1229.97" cy="1136.42" r="7.2" fill="#008000" fill-rule="evenodd" fill-opacity="1" stroke="#000000" stroke-opacity="1" stroke-width="3.2"/>
<circle clip-path="url(#clip632)" cx="1244.52" cy="1182.45" r="7.2" fill="#008000" fill-rule="evenodd" fill-opacity="1" stroke="#000000" stroke-opacity="1" stroke-width="3.2"/>
<circle clip-path="url(#clip632)" cx="1259.07" cy="1227.53" r="7.2" fill="#008000" fill-rule="evenodd" fill-opacity="1" stroke="#000000" stroke-opacity="1" stroke-width="3.2"/>
<circle clip-path="url(#clip632)" cx="1273.62" cy="1270.17" r="7.2" fill="#008000" fill-rule="evenodd" fill-opacity="1" stroke="#000000" stroke-opacity="1" stroke-width="3.2"/>
<circle clip-path="url(#clip632)" cx="1288.17" cy="1303.78" r="7.2" fill="#008000" fill-rule="evenodd" fill-opacity="1" stroke="#000000" stroke-opacity="1" stroke-width="3.2"/>
<circle clip-path="url(#clip632)" cx="1302.72" cy="1329.62" r="7.2" fill="#008000" fill-rule="evenodd" fill-opacity="1" stroke="#000000" stroke-opacity="1" stroke-width="3.2"/>
<circle clip-path="url(#clip632)" cx="1317.27" cy="1349.16" r="7.2" fill="#008000" fill-rule="evenodd" fill-opacity="1" stroke="#000000" stroke-opacity="1" stroke-width="3.2"/>
<circle clip-path="url(#clip632)" cx="1331.82" cy="1365.15" r="7.2" fill="#008000" fill-rule="evenodd" fill-opacity="1" stroke="#000000" stroke-opacity="1" stroke-width="3.2"/>
<circle clip-path="url(#clip632)" cx="1346.37" cy="1380.95" r="7.2" fill="#008000" fill-rule="evenodd" fill-opacity="1" stroke="#000000" stroke-opacity="1" stroke-width="3.2"/>
<circle clip-path="url(#clip632)" cx="1360.91" cy="1400.72" r="7.2" fill="#008000" fill-rule="evenodd" fill-opacity="1" stroke="#000000" stroke-opacity="1" stroke-width="3.2"/>
<circle clip-path="url(#clip632)" cx="1375.46" cy="1422.15" r="7.2" fill="#008000" fill-rule="evenodd" fill-opacity="1" stroke="#000000" stroke-opacity="1" stroke-width="3.2"/>
<circle clip-path="url(#clip632)" cx="1390.01" cy="1438.94" r="7.2" fill="#008000" fill-rule="evenodd" fill-opacity="1" stroke="#000000" stroke-opacity="1" stroke-width="3.2"/>
<circle clip-path="url(#clip632)" cx="1404.56" cy="1445.72" r="7.2" fill="#008000" fill-rule="evenodd" fill-opacity="1" stroke="#000000" stroke-opacity="1" stroke-width="3.2"/>
<circle clip-path="url(#clip632)" cx="1419.11" cy="1440.28" r="7.2" fill="#008000" fill-rule="evenodd" fill-opacity="1" stroke="#000000" stroke-opacity="1" stroke-width="3.2"/>
<circle clip-path="url(#clip632)" cx="1433.66" cy="1418.24" r="7.2" fill="#008000" fill-rule="evenodd" fill-opacity="1" stroke="#000000" stroke-opacity="1" stroke-width="3.2"/>
<circle clip-path="url(#clip632)" cx="1448.21" cy="1384.56" r="7.2" fill="#008000" fill-rule="evenodd" fill-opacity="1" stroke="#000000" stroke-opacity="1" stroke-width="3.2"/>
<circle clip-path="url(#clip632)" cx="1462.76" cy="1347.38" r="7.2" fill="#008000" fill-rule="evenodd" fill-opacity="1" stroke="#000000" stroke-opacity="1" stroke-width="3.2"/>
<circle clip-path="url(#clip632)" cx="1477.31" cy="1309.33" r="7.2" fill="#008000" fill-rule="evenodd" fill-opacity="1" stroke="#000000" stroke-opacity="1" stroke-width="3.2"/>
<circle clip-path="url(#clip632)" cx="1491.86" cy="1274.98" r="7.2" fill="#008000" fill-rule="evenodd" fill-opacity="1" stroke="#000000" stroke-opacity="1" stroke-width="3.2"/>
<circle clip-path="url(#clip632)" cx="1506.41" cy="1246.11" r="7.2" fill="#008000" fill-rule="evenodd" fill-opacity="1" stroke="#000000" stroke-opacity="1" stroke-width="3.2"/>
<circle clip-path="url(#clip632)" cx="1520.96" cy="1218.58" r="7.2" fill="#008000" fill-rule="evenodd" fill-opacity="1" stroke="#000000" stroke-opacity="1" stroke-width="3.2"/>
<circle clip-path="url(#clip632)" cx="1535.51" cy="1188.04" r="7.2" fill="#008000" fill-rule="evenodd" fill-opacity="1" stroke="#000000" stroke-opacity="1" stroke-width="3.2"/>
<circle clip-path="url(#clip632)" cx="1550.06" cy="1152.27" r="7.2" fill="#008000" fill-rule="evenodd" fill-opacity="1" stroke="#000000" stroke-opacity="1" stroke-width="3.2"/>
<circle clip-path="url(#clip632)" cx="1564.61" cy="1111.07" r="7.2" fill="#008000" fill-rule="evenodd" fill-opacity="1" stroke="#000000" stroke-opacity="1" stroke-width="3.2"/>
<circle clip-path="url(#clip632)" cx="1579.16" cy="1065.44" r="7.2" fill="#008000" fill-rule="evenodd" fill-opacity="1" stroke="#000000" stroke-opacity="1" stroke-width="3.2"/>
<circle clip-path="url(#clip632)" cx="1593.71" cy="1019.66" r="7.2" fill="#008000" fill-rule="evenodd" fill-opacity="1" stroke="#000000" stroke-opacity="1" stroke-width="3.2"/>
<circle clip-path="url(#clip632)" cx="1608.26" cy="978.462" r="7.2" fill="#008000" fill-rule="evenodd" fill-opacity="1" stroke="#000000" stroke-opacity="1" stroke-width="3.2"/>
<circle clip-path="url(#clip632)" cx="1622.81" cy="938.113" r="7.2" fill="#008000" fill-rule="evenodd" fill-opacity="1" stroke="#000000" stroke-opacity="1" stroke-width="3.2"/>
<circle clip-path="url(#clip632)" cx="1637.36" cy="902.501" r="7.2" fill="#008000" fill-rule="evenodd" fill-opacity="1" stroke="#000000" stroke-opacity="1" stroke-width="3.2"/>
<circle clip-path="url(#clip632)" cx="1651.91" cy="871.033" r="7.2" fill="#008000" fill-rule="evenodd" fill-opacity="1" stroke="#000000" stroke-opacity="1" stroke-width="3.2"/>
<circle clip-path="url(#clip632)" cx="1666.45" cy="840.836" r="7.2" fill="#008000" fill-rule="evenodd" fill-opacity="1" stroke="#000000" stroke-opacity="1" stroke-width="3.2"/>
<circle clip-path="url(#clip632)" cx="1681" cy="812.708" r="7.2" fill="#008000" fill-rule="evenodd" fill-opacity="1" stroke="#000000" stroke-opacity="1" stroke-width="3.2"/>
<circle clip-path="url(#clip632)" cx="1695.55" cy="787.369" r="7.2" fill="#008000" fill-rule="evenodd" fill-opacity="1" stroke="#000000" stroke-opacity="1" stroke-width="3.2"/>
<circle clip-path="url(#clip632)" cx="1710.1" cy="761.95" r="7.2" fill="#008000" fill-rule="evenodd" fill-opacity="1" stroke="#000000" stroke-opacity="1" stroke-width="3.2"/>
<circle clip-path="url(#clip632)" cx="1724.65" cy="738.023" r="7.2" fill="#008000" fill-rule="evenodd" fill-opacity="1" stroke="#000000" stroke-opacity="1" stroke-width="3.2"/>
<circle clip-path="url(#clip632)" cx="1739.2" cy="715.868" r="7.2" fill="#008000" fill-rule="evenodd" fill-opacity="1" stroke="#000000" stroke-opacity="1" stroke-width="3.2"/>
<circle clip-path="url(#clip632)" cx="1753.75" cy="695.666" r="7.2" fill="#008000" fill-rule="evenodd" fill-opacity="1" stroke="#000000" stroke-opacity="1" stroke-width="3.2"/>
<circle clip-path="url(#clip632)" cx="1768.3" cy="674.173" r="7.2" fill="#008000" fill-rule="evenodd" fill-opacity="1" stroke="#000000" stroke-opacity="1" stroke-width="3.2"/>
<circle clip-path="url(#clip632)" cx="1782.85" cy="654.602" r="7.2" fill="#008000" fill-rule="evenodd" fill-opacity="1" stroke="#000000" stroke-opacity="1" stroke-width="3.2"/>
<circle clip-path="url(#clip632)" cx="1797.4" cy="636.11" r="7.2" fill="#008000" fill-rule="evenodd" fill-opacity="1" stroke="#000000" stroke-opacity="1" stroke-width="3.2"/>
<circle clip-path="url(#clip632)" cx="1811.95" cy="617.264" r="7.2" fill="#008000" fill-rule="evenodd" fill-opacity="1" stroke="#000000" stroke-opacity="1" stroke-width="3.2"/>
<circle clip-path="url(#clip632)" cx="1826.5" cy="599.782" r="7.2" fill="#008000" fill-rule="evenodd" fill-opacity="1" stroke="#000000" stroke-opacity="1" stroke-width="3.2"/>
<circle clip-path="url(#clip632)" cx="1841.05" cy="584.858" r="7.2" fill="#008000" fill-rule="evenodd" fill-opacity="1" stroke="#000000" stroke-opacity="1" stroke-width="3.2"/>
<circle clip-path="url(#clip632)" cx="1855.6" cy="571.951" r="7.2" fill="#008000" fill-rule="evenodd" fill-opacity="1" stroke="#000000" stroke-opacity="1" stroke-width="3.2"/>
<circle clip-path="url(#clip632)" cx="1870.15" cy="564.216" r="7.2" fill="#008000" fill-rule="evenodd" fill-opacity="1" stroke="#000000" stroke-opacity="1" stroke-width="3.2"/>
<circle clip-path="url(#clip632)" cx="1884.7" cy="563.038" r="7.2" fill="#008000" fill-rule="evenodd" fill-opacity="1" stroke="#000000" stroke-opacity="1" stroke-width="3.2"/>
<circle clip-path="url(#clip632)" cx="1899.25" cy="566.935" r="7.2" fill="#008000" fill-rule="evenodd" fill-opacity="1" stroke="#000000" stroke-opacity="1" stroke-width="3.2"/>
<circle clip-path="url(#clip632)" cx="1913.8" cy="573.182" r="7.2" fill="#008000" fill-rule="evenodd" fill-opacity="1" stroke="#000000" stroke-opacity="1" stroke-width="3.2"/>
<circle clip-path="url(#clip632)" cx="1928.35" cy="580.061" r="7.2" fill="#008000" fill-rule="evenodd" fill-opacity="1" stroke="#000000" stroke-opacity="1" stroke-width="3.2"/>
<circle clip-path="url(#clip632)" cx="1942.9" cy="584.331" r="7.2" fill="#008000" fill-rule="evenodd" fill-opacity="1" stroke="#000000" stroke-opacity="1" stroke-width="3.2"/>
<circle clip-path="url(#clip632)" cx="1957.45" cy="585.186" r="7.2" fill="#008000" fill-rule="evenodd" fill-opacity="1" stroke="#000000" stroke-opacity="1" stroke-width="3.2"/>
<circle clip-path="url(#clip632)" cx="1971.99" cy="583.664" r="7.2" fill="#008000" fill-rule="evenodd" fill-opacity="1" stroke="#000000" stroke-opacity="1" stroke-width="3.2"/>
<circle clip-path="url(#clip632)" cx="1986.54" cy="580.975" r="7.2" fill="#008000" fill-rule="evenodd" fill-opacity="1" stroke="#000000" stroke-opacity="1" stroke-width="3.2"/>
<circle clip-path="url(#clip632)" cx="2001.09" cy="578.906" r="7.2" fill="#008000" fill-rule="evenodd" fill-opacity="1" stroke="#000000" stroke-opacity="1" stroke-width="3.2"/>
<circle clip-path="url(#clip632)" cx="2015.64" cy="579.536" r="7.2" fill="#008000" fill-rule="evenodd" fill-opacity="1" stroke="#000000" stroke-opacity="1" stroke-width="3.2"/>
<circle clip-path="url(#clip632)" cx="2030.19" cy="582.975" r="7.2" fill="#008000" fill-rule="evenodd" fill-opacity="1" stroke="#000000" stroke-opacity="1" stroke-width="3.2"/>
<circle clip-path="url(#clip632)" cx="2044.74" cy="588.037" r="7.2" fill="#008000" fill-rule="evenodd" fill-opacity="1" stroke="#000000" stroke-opacity="1" stroke-width="3.2"/>
<circle clip-path="url(#clip632)" cx="2059.29" cy="594.947" r="7.2" fill="#008000" fill-rule="evenodd" fill-opacity="1" stroke="#000000" stroke-opacity="1" stroke-width="3.2"/>
<circle clip-path="url(#clip632)" cx="2073.84" cy="602.416" r="7.2" fill="#008000" fill-rule="evenodd" fill-opacity="1" stroke="#000000" stroke-opacity="1" stroke-width="3.2"/>
<circle clip-path="url(#clip632)" cx="2088.39" cy="610.279" r="7.2" fill="#008000" fill-rule="evenodd" fill-opacity="1" stroke="#000000" stroke-opacity="1" stroke-width="3.2"/>
<circle clip-path="url(#clip632)" cx="2102.94" cy="619.658" r="7.2" fill="#008000" fill-rule="evenodd" fill-opacity="1" stroke="#000000" stroke-opacity="1" stroke-width="3.2"/>
<circle clip-path="url(#clip632)" cx="2117.49" cy="631.319" r="7.2" fill="#008000" fill-rule="evenodd" fill-opacity="1" stroke="#000000" stroke-opacity="1" stroke-width="3.2"/>
<circle clip-path="url(#clip632)" cx="2132.04" cy="646.488" r="7.2" fill="#008000" fill-rule="evenodd" fill-opacity="1" stroke="#000000" stroke-opacity="1" stroke-width="3.2"/>
<circle clip-path="url(#clip632)" cx="2146.59" cy="665.099" r="7.2" fill="#008000" fill-rule="evenodd" fill-opacity="1" stroke="#000000" stroke-opacity="1" stroke-width="3.2"/>
<circle clip-path="url(#clip632)" cx="2161.14" cy="685.727" r="7.2" fill="#008000" fill-rule="evenodd" fill-opacity="1" stroke="#000000" stroke-opacity="1" stroke-width="3.2"/>
<circle clip-path="url(#clip632)" cx="2175.69" cy="706.568" r="7.2" fill="#008000" fill-rule="evenodd" fill-opacity="1" stroke="#000000" stroke-opacity="1" stroke-width="3.2"/>
<circle clip-path="url(#clip632)" cx="2190.24" cy="724.503" r="7.2" fill="#008000" fill-rule="evenodd" fill-opacity="1" stroke="#000000" stroke-opacity="1" stroke-width="3.2"/>
<circle clip-path="url(#clip632)" cx="2204.79" cy="738.807" r="7.2" fill="#008000" fill-rule="evenodd" fill-opacity="1" stroke="#000000" stroke-opacity="1" stroke-width="3.2"/>
<circle clip-path="url(#clip632)" cx="2219.34" cy="748.595" r="7.2" fill="#008000" fill-rule="evenodd" fill-opacity="1" stroke="#000000" stroke-opacity="1" stroke-width="3.2"/>
<circle clip-path="url(#clip632)" cx="2233.89" cy="754.375" r="7.2" fill="#008000" fill-rule="evenodd" fill-opacity="1" stroke="#000000" stroke-opacity="1" stroke-width="3.2"/>
<circle clip-path="url(#clip632)" cx="2248.44" cy="756.75" r="7.2" fill="#008000" fill-rule="evenodd" fill-opacity="1" stroke="#000000" stroke-opacity="1" stroke-width="3.2"/>
<circle clip-path="url(#clip632)" cx="2262.99" cy="756.839" r="7.2" fill="#008000" fill-rule="evenodd" fill-opacity="1" stroke="#000000" stroke-opacity="1" stroke-width="3.2"/>
<circle clip-path="url(#clip632)" cx="2277.53" cy="755.348" r="7.2" fill="#008000" fill-rule="evenodd" fill-opacity="1" stroke="#000000" stroke-opacity="1" stroke-width="3.2"/>
<circle clip-path="url(#clip632)" cx="2292.08" cy="753.668" r="7.2" fill="#008000" fill-rule="evenodd" fill-opacity="1" stroke="#000000" stroke-opacity="1" stroke-width="3.2"/>
</svg>
