<?xml version="1.0" encoding="utf-8"?>
<svg xmlns="http://www.w3.org/2000/svg" xmlns:xlink="http://www.w3.org/1999/xlink" width="600" height="400" viewBox="0 0 2400 1600">
<defs>
  <clipPath id="clip170">
    <rect x="0" y="0" width="2400" height="1600"/>
  </clipPath>
</defs>
<path clip-path="url(#clip170)" d="M0 1600 L2400 1600 L2400 8.88178e-14 L0 8.88178e-14  Z" fill="#ffffff" fill-rule="evenodd" fill-opacity="1"/>
<defs>
  <clipPath id="clip171">
    <rect x="480" y="0" width="1681" height="1600"/>
  </clipPath>
</defs>
<path clip-path="url(#clip170)" d="M239.19 1486.45 L2352.76 1486.45 L2352.76 47.2441 L239.19 47.2441  Z" fill="#ffffff" fill-rule="evenodd" fill-opacity="1"/>
<defs>
  <clipPath id="clip172">
    <rect x="239" y="47" width="2115" height="1440"/>
  </clipPath>
</defs>
<polyline clip-path="url(#clip170)" style="stroke:#000000; stroke-linecap:round; stroke-linejoin:round; stroke-width:4; stroke-opacity:1; fill:none" points="239.19,1486.45 2352.76,1486.45 "/>
<polyline clip-path="url(#clip170)" style="stroke:#000000; stroke-linecap:round; stroke-linejoin:round; stroke-width:4; stroke-opacity:1; fill:none" points="284.663,1486.45 284.663,1467.55 "/>
<polyline clip-path="url(#clip170)" style="stroke:#000000; stroke-linecap:round; stroke-linejoin:round; stroke-width:4; stroke-opacity:1; fill:none" points="643.284,1486.45 643.284,1467.55 "/>
<polyline clip-path="url(#clip170)" style="stroke:#000000; stroke-linecap:round; stroke-linejoin:round; stroke-width:4; stroke-opacity:1; fill:none" points="1001.9,1486.45 1001.9,1467.55 "/>
<polyline clip-path="url(#clip170)" style="stroke:#000000; stroke-linecap:round; stroke-linejoin:round; stroke-width:4; stroke-opacity:1; fill:none" points="1360.52,1486.45 1360.52,1467.55 "/>
<polyline clip-path="url(#clip170)" style="stroke:#000000; stroke-linecap:round; stroke-linejoin:round; stroke-width:4; stroke-opacity:1; fill:none" points="1719.15,1486.45 1719.15,1467.55 "/>
<polyline clip-path="url(#clip170)" style="stroke:#000000; stroke-linecap:round; stroke-linejoin:round; stroke-width:4; stroke-opacity:1; fill:none" points="2077.77,1486.45 2077.77,1467.55 "/>
<path clip-path="url(#clip170)" d="M284.663 1517.37 Q281.052 1517.37 279.224 1520.93 Q277.418 1524.47 277.418 1531.6 Q277.418 1538.71 279.224 1542.27 Q281.052 1545.82 284.663 1545.82 Q288.298 1545.82 290.103 1542.27 Q291.932 1538.71 291.932 1531.6 Q291.932 1524.47 290.103 1520.93 Q288.298 1517.37 284.663 1517.37 M284.663 1513.66 Q290.474 1513.66 293.529 1518.27 Q296.608 1522.85 296.608 1531.6 Q296.608 1540.33 293.529 1544.94 Q290.474 1549.52 284.663 1549.52 Q278.853 1549.52 275.775 1544.94 Q272.719 1540.33 272.719 1531.6 Q272.719 1522.85 275.775 1518.27 Q278.853 1513.66 284.663 1513.66 Z" fill="#000000" fill-rule="nonzero" fill-opacity="1" /><path clip-path="url(#clip170)" d="M622.555 1544.91 L638.874 1544.91 L638.874 1548.85 L616.93 1548.85 L616.93 1544.91 Q619.592 1542.16 624.175 1537.53 Q628.782 1532.88 629.962 1531.53 Q632.208 1529.01 633.087 1527.27 Q633.99 1525.51 633.99 1523.82 Q633.99 1521.07 632.046 1519.33 Q630.124 1517.6 627.022 1517.6 Q624.823 1517.6 622.37 1518.36 Q619.939 1519.13 617.161 1520.68 L617.161 1515.95 Q619.985 1514.82 622.439 1514.24 Q624.893 1513.66 626.93 1513.66 Q632.3 1513.66 635.495 1516.35 Q638.689 1519.03 638.689 1523.52 Q638.689 1525.65 637.879 1527.57 Q637.092 1529.47 634.985 1532.07 Q634.407 1532.74 631.305 1535.95 Q628.203 1539.15 622.555 1544.91 Z" fill="#000000" fill-rule="nonzero" fill-opacity="1" /><path clip-path="url(#clip170)" d="M648.735 1514.29 L667.092 1514.29 L667.092 1518.22 L653.018 1518.22 L653.018 1526.7 Q654.036 1526.35 655.055 1526.19 Q656.073 1526 657.092 1526 Q662.879 1526 666.258 1529.17 Q669.638 1532.34 669.638 1537.76 Q669.638 1543.34 666.166 1546.44 Q662.694 1549.52 656.374 1549.52 Q654.198 1549.52 651.93 1549.15 Q649.684 1548.78 647.277 1548.04 L647.277 1543.34 Q649.36 1544.47 651.582 1545.03 Q653.805 1545.58 656.282 1545.58 Q660.286 1545.58 662.624 1543.48 Q664.962 1541.37 664.962 1537.76 Q664.962 1534.15 662.624 1532.04 Q660.286 1529.94 656.282 1529.94 Q654.407 1529.94 652.532 1530.35 Q650.68 1530.77 648.735 1531.65 L648.735 1514.29 Z" fill="#000000" fill-rule="nonzero" fill-opacity="1" /><path clip-path="url(#clip170)" d="M976.604 1514.29 L994.96 1514.29 L994.96 1518.22 L980.886 1518.22 L980.886 1526.7 Q981.904 1526.35 982.923 1526.19 Q983.942 1526 984.96 1526 Q990.747 1526 994.127 1529.17 Q997.506 1532.34 997.506 1537.76 Q997.506 1543.34 994.034 1546.44 Q990.562 1549.52 984.242 1549.52 Q982.067 1549.52 979.798 1549.15 Q977.553 1548.78 975.145 1548.04 L975.145 1543.34 Q977.229 1544.47 979.451 1545.03 Q981.673 1545.58 984.15 1545.58 Q988.154 1545.58 990.492 1543.48 Q992.83 1541.37 992.83 1537.76 Q992.83 1534.15 990.492 1532.04 Q988.154 1529.94 984.15 1529.94 Q982.275 1529.94 980.4 1530.35 Q978.548 1530.77 976.604 1531.65 L976.604 1514.29 Z" fill="#000000" fill-rule="nonzero" fill-opacity="1" /><path clip-path="url(#clip170)" d="M1016.72 1517.37 Q1013.11 1517.37 1011.28 1520.93 Q1009.47 1524.47 1009.47 1531.6 Q1009.47 1538.71 1011.28 1542.27 Q1013.11 1545.82 1016.72 1545.82 Q1020.35 1545.82 1022.16 1542.27 Q1023.99 1538.71 1023.99 1531.6 Q1023.99 1524.47 1022.16 1520.93 Q1020.35 1517.37 1016.72 1517.37 M1016.72 1513.66 Q1022.53 1513.66 1025.58 1518.27 Q1028.66 1522.85 1028.66 1531.6 Q1028.66 1540.33 1025.58 1544.94 Q1022.53 1549.52 1016.72 1549.52 Q1010.91 1549.52 1007.83 1544.94 Q1004.77 1540.33 1004.77 1531.6 Q1004.77 1522.85 1007.83 1518.27 Q1010.91 1513.66 1016.72 1513.66 Z" fill="#000000" fill-rule="nonzero" fill-opacity="1" /><path clip-path="url(#clip170)" d="M1334.38 1514.29 L1356.6 1514.29 L1356.6 1516.28 L1344.06 1548.85 L1339.17 1548.85 L1350.98 1518.22 L1334.38 1518.22 L1334.38 1514.29 Z" fill="#000000" fill-rule="nonzero" fill-opacity="1" /><path clip-path="url(#clip170)" d="M1365.77 1514.29 L1384.12 1514.29 L1384.12 1518.22 L1370.05 1518.22 L1370.05 1526.7 Q1371.07 1526.35 1372.09 1526.19 Q1373.11 1526 1374.12 1526 Q1379.91 1526 1383.29 1529.17 Q1386.67 1532.34 1386.67 1537.76 Q1386.67 1543.34 1383.2 1546.44 Q1379.73 1549.52 1373.41 1549.52 Q1371.23 1549.52 1368.96 1549.15 Q1366.72 1548.78 1364.31 1548.04 L1364.31 1543.34 Q1366.39 1544.47 1368.62 1545.03 Q1370.84 1545.58 1373.31 1545.58 Q1377.32 1545.58 1379.66 1543.48 Q1381.99 1541.37 1381.99 1537.76 Q1381.99 1534.15 1379.66 1532.04 Q1377.32 1529.94 1373.31 1529.94 Q1371.44 1529.94 1369.56 1530.35 Q1367.71 1530.77 1365.77 1531.65 L1365.77 1514.29 Z" fill="#000000" fill-rule="nonzero" fill-opacity="1" /><path clip-path="url(#clip170)" d="M1678.75 1544.91 L1686.39 1544.91 L1686.39 1518.55 L1678.08 1520.21 L1678.08 1515.95 L1686.34 1514.29 L1691.02 1514.29 L1691.02 1544.91 L1698.66 1544.91 L1698.66 1548.85 L1678.75 1548.85 L1678.75 1544.91 Z" fill="#000000" fill-rule="nonzero" fill-opacity="1" /><path clip-path="url(#clip170)" d="M1718.1 1517.37 Q1714.49 1517.37 1712.66 1520.93 Q1710.86 1524.47 1710.86 1531.6 Q1710.86 1538.71 1712.66 1542.27 Q1714.49 1545.82 1718.1 1545.82 Q1721.74 1545.82 1723.54 1542.27 Q1725.37 1538.71 1725.37 1531.6 Q1725.37 1524.47 1723.54 1520.93 Q1721.74 1517.37 1718.1 1517.37 M1718.1 1513.66 Q1723.91 1513.66 1726.97 1518.27 Q1730.05 1522.85 1730.05 1531.6 Q1730.05 1540.33 1726.97 1544.94 Q1723.91 1549.52 1718.1 1549.52 Q1712.29 1549.52 1709.21 1544.94 Q1706.16 1540.33 1706.16 1531.6 Q1706.16 1522.85 1709.21 1518.27 Q1712.29 1513.66 1718.1 1513.66 Z" fill="#000000" fill-rule="nonzero" fill-opacity="1" /><path clip-path="url(#clip170)" d="M1748.27 1517.37 Q1744.65 1517.37 1742.83 1520.93 Q1741.02 1524.47 1741.02 1531.6 Q1741.02 1538.71 1742.83 1542.27 Q1744.65 1545.82 1748.27 1545.82 Q1751.9 1545.82 1753.71 1542.27 Q1755.53 1538.71 1755.53 1531.6 Q1755.53 1524.47 1753.71 1520.93 Q1751.9 1517.37 1748.27 1517.37 M1748.27 1513.66 Q1754.08 1513.66 1757.13 1518.27 Q1760.21 1522.85 1760.21 1531.6 Q1760.21 1540.33 1757.13 1544.94 Q1754.08 1549.52 1748.27 1549.52 Q1742.46 1549.52 1739.38 1544.94 Q1736.32 1540.33 1736.32 1531.6 Q1736.32 1522.85 1739.38 1518.27 Q1742.46 1513.66 1748.27 1513.66 Z" fill="#000000" fill-rule="nonzero" fill-opacity="1" /><path clip-path="url(#clip170)" d="M2037.87 1544.91 L2045.51 1544.91 L2045.51 1518.55 L2037.2 1520.21 L2037.2 1515.95 L2045.46 1514.29 L2050.14 1514.29 L2050.14 1544.91 L2057.78 1544.91 L2057.78 1548.85 L2037.87 1548.85 L2037.87 1544.91 Z" fill="#000000" fill-rule="nonzero" fill-opacity="1" /><path clip-path="url(#clip170)" d="M2071.25 1544.91 L2087.57 1544.91 L2087.57 1548.85 L2065.62 1548.85 L2065.62 1544.91 Q2068.29 1542.16 2072.87 1537.53 Q2077.48 1532.88 2078.66 1531.53 Q2080.9 1529.01 2081.78 1527.27 Q2082.68 1525.51 2082.68 1523.82 Q2082.68 1521.07 2080.74 1519.33 Q2078.82 1517.6 2075.72 1517.6 Q2073.52 1517.6 2071.06 1518.36 Q2068.63 1519.13 2065.86 1520.68 L2065.86 1515.95 Q2068.68 1514.82 2071.13 1514.24 Q2073.59 1513.66 2075.62 1513.66 Q2080.99 1513.66 2084.19 1516.35 Q2087.38 1519.03 2087.38 1523.52 Q2087.38 1525.65 2086.57 1527.57 Q2085.79 1529.47 2083.68 1532.07 Q2083.1 1532.74 2080 1535.95 Q2076.9 1539.15 2071.25 1544.91 Z" fill="#000000" fill-rule="nonzero" fill-opacity="1" /><path clip-path="url(#clip170)" d="M2097.43 1514.29 L2115.79 1514.29 L2115.79 1518.22 L2101.71 1518.22 L2101.71 1526.7 Q2102.73 1526.35 2103.75 1526.19 Q2104.77 1526 2105.79 1526 Q2111.57 1526 2114.95 1529.17 Q2118.33 1532.34 2118.33 1537.76 Q2118.33 1543.34 2114.86 1546.44 Q2111.39 1549.52 2105.07 1549.52 Q2102.89 1549.52 2100.62 1549.15 Q2098.38 1548.78 2095.97 1548.04 L2095.97 1543.34 Q2098.05 1544.47 2100.28 1545.03 Q2102.5 1545.58 2104.98 1545.58 Q2108.98 1545.58 2111.32 1543.48 Q2113.66 1541.37 2113.66 1537.76 Q2113.66 1534.15 2111.32 1532.04 Q2108.98 1529.94 2104.98 1529.94 Q2103.1 1529.94 2101.23 1530.35 Q2099.37 1530.77 2097.43 1531.65 L2097.43 1514.29 Z" fill="#000000" fill-rule="nonzero" fill-opacity="1" /><polyline clip-path="url(#clip170)" style="stroke:#000000; stroke-linecap:round; stroke-linejoin:round; stroke-width:4; stroke-opacity:1; fill:none" points="239.19,1486.45 239.19,47.2441 "/>
<polyline clip-path="url(#clip170)" style="stroke:#000000; stroke-linecap:round; stroke-linejoin:round; stroke-width:4; stroke-opacity:1; fill:none" points="239.19,1456.16 258.088,1456.16 "/>
<polyline clip-path="url(#clip170)" style="stroke:#000000; stroke-linecap:round; stroke-linejoin:round; stroke-width:4; stroke-opacity:1; fill:none" points="239.19,1137.59 258.088,1137.59 "/>
<polyline clip-path="url(#clip170)" style="stroke:#000000; stroke-linecap:round; stroke-linejoin:round; stroke-width:4; stroke-opacity:1; fill:none" points="239.19,819.017 258.088,819.017 "/>
<polyline clip-path="url(#clip170)" style="stroke:#000000; stroke-linecap:round; stroke-linejoin:round; stroke-width:4; stroke-opacity:1; fill:none" points="239.19,500.445 258.088,500.445 "/>
<polyline clip-path="url(#clip170)" style="stroke:#000000; stroke-linecap:round; stroke-linejoin:round; stroke-width:4; stroke-opacity:1; fill:none" points="239.19,181.872 258.088,181.872 "/>
<path clip-path="url(#clip170)" d="M50.9921 1456.61 L80.6679 1456.61 L80.6679 1460.55 L50.9921 1460.55 L50.9921 1456.61 Z" fill="#000000" fill-rule="nonzero" fill-opacity="1" /><path clip-path="url(#clip170)" d="M91.5706 1469.51 L99.2095 1469.51 L99.2095 1443.14 L90.8993 1444.81 L90.8993 1440.55 L99.1632 1438.88 L103.839 1438.88 L103.839 1469.51 L111.478 1469.51 L111.478 1473.44 L91.5706 1473.44 L91.5706 1469.51 Z" fill="#000000" fill-rule="nonzero" fill-opacity="1" /><path clip-path="url(#clip170)" d="M130.922 1441.96 Q127.311 1441.96 125.482 1445.53 Q123.677 1449.07 123.677 1456.2 Q123.677 1463.3 125.482 1466.87 Q127.311 1470.41 130.922 1470.41 Q134.556 1470.41 136.362 1466.87 Q138.191 1463.3 138.191 1456.2 Q138.191 1449.07 136.362 1445.53 Q134.556 1441.96 130.922 1441.96 M130.922 1438.26 Q136.732 1438.26 139.788 1442.86 Q142.867 1447.45 142.867 1456.2 Q142.867 1464.92 139.788 1469.53 Q136.732 1474.11 130.922 1474.11 Q125.112 1474.11 122.033 1469.53 Q118.978 1464.92 118.978 1456.2 Q118.978 1447.45 122.033 1442.86 Q125.112 1438.26 130.922 1438.26 Z" fill="#000000" fill-rule="nonzero" fill-opacity="1" /><path clip-path="url(#clip170)" d="M161.084 1441.96 Q157.473 1441.96 155.644 1445.53 Q153.839 1449.07 153.839 1456.2 Q153.839 1463.3 155.644 1466.87 Q157.473 1470.41 161.084 1470.41 Q164.718 1470.41 166.524 1466.87 Q168.353 1463.3 168.353 1456.2 Q168.353 1449.07 166.524 1445.53 Q164.718 1441.96 161.084 1441.96 M161.084 1438.26 Q166.894 1438.26 169.95 1442.86 Q173.029 1447.45 173.029 1456.2 Q173.029 1464.92 169.95 1469.53 Q166.894 1474.11 161.084 1474.11 Q155.274 1474.11 152.195 1469.53 Q149.14 1464.92 149.14 1456.2 Q149.14 1447.45 152.195 1442.86 Q155.274 1438.26 161.084 1438.26 Z" fill="#000000" fill-rule="nonzero" fill-opacity="1" /><path clip-path="url(#clip170)" d="M191.246 1441.96 Q187.635 1441.96 185.806 1445.53 Q184.001 1449.07 184.001 1456.2 Q184.001 1463.3 185.806 1466.87 Q187.635 1470.41 191.246 1470.41 Q194.88 1470.41 196.686 1466.87 Q198.514 1463.3 198.514 1456.2 Q198.514 1449.07 196.686 1445.53 Q194.88 1441.96 191.246 1441.96 M191.246 1438.26 Q197.056 1438.26 200.112 1442.86 Q203.19 1447.45 203.19 1456.2 Q203.19 1464.92 200.112 1469.53 Q197.056 1474.11 191.246 1474.11 Q185.436 1474.11 182.357 1469.53 Q179.302 1464.92 179.302 1456.2 Q179.302 1447.45 182.357 1442.86 Q185.436 1438.26 191.246 1438.26 Z" fill="#000000" fill-rule="nonzero" fill-opacity="1" /><path clip-path="url(#clip170)" d="M81.154 1138.04 L110.83 1138.04 L110.83 1141.98 L81.154 1141.98 L81.154 1138.04 Z" fill="#000000" fill-rule="nonzero" fill-opacity="1" /><path clip-path="url(#clip170)" d="M120.969 1120.31 L139.325 1120.31 L139.325 1124.24 L125.251 1124.24 L125.251 1132.72 Q126.27 1132.37 127.288 1132.21 Q128.307 1132.02 129.325 1132.02 Q135.112 1132.02 138.492 1135.19 Q141.871 1138.36 141.871 1143.78 Q141.871 1149.36 138.399 1152.46 Q134.927 1155.54 128.607 1155.54 Q126.432 1155.54 124.163 1155.17 Q121.918 1154.8 119.51 1154.06 L119.51 1149.36 Q121.594 1150.49 123.816 1151.05 Q126.038 1151.61 128.515 1151.61 Q132.519 1151.61 134.857 1149.5 Q137.195 1147.39 137.195 1143.78 Q137.195 1140.17 134.857 1138.06 Q132.519 1135.96 128.515 1135.96 Q126.64 1135.96 124.765 1136.37 Q122.913 1136.79 120.969 1137.67 L120.969 1120.31 Z" fill="#000000" fill-rule="nonzero" fill-opacity="1" /><path clip-path="url(#clip170)" d="M161.084 1123.39 Q157.473 1123.39 155.644 1126.95 Q153.839 1130.49 153.839 1137.62 Q153.839 1144.73 155.644 1148.3 Q157.473 1151.84 161.084 1151.84 Q164.718 1151.84 166.524 1148.3 Q168.353 1144.73 168.353 1137.62 Q168.353 1130.49 166.524 1126.95 Q164.718 1123.39 161.084 1123.39 M161.084 1119.68 Q166.894 1119.68 169.95 1124.29 Q173.029 1128.87 173.029 1137.62 Q173.029 1146.35 169.95 1150.96 Q166.894 1155.54 161.084 1155.54 Q155.274 1155.54 152.195 1150.96 Q149.14 1146.35 149.14 1137.62 Q149.14 1128.87 152.195 1124.29 Q155.274 1119.68 161.084 1119.68 Z" fill="#000000" fill-rule="nonzero" fill-opacity="1" /><path clip-path="url(#clip170)" d="M191.246 1123.39 Q187.635 1123.39 185.806 1126.95 Q184.001 1130.49 184.001 1137.62 Q184.001 1144.73 185.806 1148.3 Q187.635 1151.84 191.246 1151.84 Q194.88 1151.84 196.686 1148.3 Q198.514 1144.73 198.514 1137.62 Q198.514 1130.49 196.686 1126.95 Q194.88 1123.39 191.246 1123.39 M191.246 1119.68 Q197.056 1119.68 200.112 1124.29 Q203.19 1128.87 203.19 1137.62 Q203.19 1146.35 200.112 1150.96 Q197.056 1155.54 191.246 1155.54 Q185.436 1155.54 182.357 1150.96 Q179.302 1146.35 179.302 1137.62 Q179.302 1128.87 182.357 1124.29 Q185.436 1119.68 191.246 1119.68 Z" fill="#000000" fill-rule="nonzero" fill-opacity="1" /><path clip-path="url(#clip170)" d="M191.246 804.816 Q187.635 804.816 185.806 808.38 Q184.001 811.922 184.001 819.052 Q184.001 826.158 185.806 829.723 Q187.635 833.265 191.246 833.265 Q194.88 833.265 196.686 829.723 Q198.514 826.158 198.514 819.052 Q198.514 811.922 196.686 808.38 Q194.88 804.816 191.246 804.816 M191.246 801.112 Q197.056 801.112 200.112 805.718 Q203.19 810.302 203.19 819.052 Q203.19 827.778 200.112 832.385 Q197.056 836.968 191.246 836.968 Q185.436 836.968 182.357 832.385 Q179.302 827.778 179.302 819.052 Q179.302 810.302 182.357 805.718 Q185.436 801.112 191.246 801.112 Z" fill="#000000" fill-rule="nonzero" fill-opacity="1" /><path clip-path="url(#clip170)" d="M120.969 483.165 L139.325 483.165 L139.325 487.1 L125.251 487.1 L125.251 495.572 Q126.27 495.225 127.288 495.063 Q128.307 494.877 129.325 494.877 Q135.112 494.877 138.492 498.049 Q141.871 501.22 141.871 506.637 Q141.871 512.215 138.399 515.317 Q134.927 518.396 128.607 518.396 Q126.432 518.396 124.163 518.025 Q121.918 517.655 119.51 516.914 L119.51 512.215 Q121.594 513.35 123.816 513.905 Q126.038 514.461 128.515 514.461 Q132.519 514.461 134.857 512.354 Q137.195 510.248 137.195 506.637 Q137.195 503.026 134.857 500.919 Q132.519 498.813 128.515 498.813 Q126.64 498.813 124.765 499.229 Q122.913 499.646 120.969 500.526 L120.969 483.165 Z" fill="#000000" fill-rule="nonzero" fill-opacity="1" /><path clip-path="url(#clip170)" d="M161.084 486.243 Q157.473 486.243 155.644 489.808 Q153.839 493.35 153.839 500.479 Q153.839 507.586 155.644 511.151 Q157.473 514.692 161.084 514.692 Q164.718 514.692 166.524 511.151 Q168.353 507.586 168.353 500.479 Q168.353 493.35 166.524 489.808 Q164.718 486.243 161.084 486.243 M161.084 482.54 Q166.894 482.54 169.95 487.146 Q173.029 491.729 173.029 500.479 Q173.029 509.206 169.95 513.813 Q166.894 518.396 161.084 518.396 Q155.274 518.396 152.195 513.813 Q149.14 509.206 149.14 500.479 Q149.14 491.729 152.195 487.146 Q155.274 482.54 161.084 482.54 Z" fill="#000000" fill-rule="nonzero" fill-opacity="1" /><path clip-path="url(#clip170)" d="M191.246 486.243 Q187.635 486.243 185.806 489.808 Q184.001 493.35 184.001 500.479 Q184.001 507.586 185.806 511.151 Q187.635 514.692 191.246 514.692 Q194.88 514.692 196.686 511.151 Q198.514 507.586 198.514 500.479 Q198.514 493.35 196.686 489.808 Q194.88 486.243 191.246 486.243 M191.246 482.54 Q197.056 482.54 200.112 487.146 Q203.19 491.729 203.19 500.479 Q203.19 509.206 200.112 513.813 Q197.056 518.396 191.246 518.396 Q185.436 518.396 182.357 513.813 Q179.302 509.206 179.302 500.479 Q179.302 491.729 182.357 487.146 Q185.436 482.54 191.246 482.54 Z" fill="#000000" fill-rule="nonzero" fill-opacity="1" /><path clip-path="url(#clip170)" d="M91.5706 195.217 L99.2095 195.217 L99.2095 168.851 L90.8993 170.518 L90.8993 166.259 L99.1632 164.592 L103.839 164.592 L103.839 195.217 L111.478 195.217 L111.478 199.152 L91.5706 199.152 L91.5706 195.217 Z" fill="#000000" fill-rule="nonzero" fill-opacity="1" /><path clip-path="url(#clip170)" d="M130.922 167.671 Q127.311 167.671 125.482 171.236 Q123.677 174.777 123.677 181.907 Q123.677 189.013 125.482 192.578 Q127.311 196.12 130.922 196.12 Q134.556 196.12 136.362 192.578 Q138.191 189.013 138.191 181.907 Q138.191 174.777 136.362 171.236 Q134.556 167.671 130.922 167.671 M130.922 163.967 Q136.732 163.967 139.788 168.574 Q142.867 173.157 142.867 181.907 Q142.867 190.634 139.788 195.24 Q136.732 199.823 130.922 199.823 Q125.112 199.823 122.033 195.24 Q118.978 190.634 118.978 181.907 Q118.978 173.157 122.033 168.574 Q125.112 163.967 130.922 163.967 Z" fill="#000000" fill-rule="nonzero" fill-opacity="1" /><path clip-path="url(#clip170)" d="M161.084 167.671 Q157.473 167.671 155.644 171.236 Q153.839 174.777 153.839 181.907 Q153.839 189.013 155.644 192.578 Q157.473 196.12 161.084 196.12 Q164.718 196.12 166.524 192.578 Q168.353 189.013 168.353 181.907 Q168.353 174.777 166.524 171.236 Q164.718 167.671 161.084 167.671 M161.084 163.967 Q166.894 163.967 169.95 168.574 Q173.029 173.157 173.029 181.907 Q173.029 190.634 169.95 195.24 Q166.894 199.823 161.084 199.823 Q155.274 199.823 152.195 195.24 Q149.14 190.634 149.14 181.907 Q149.14 173.157 152.195 168.574 Q155.274 163.967 161.084 163.967 Z" fill="#000000" fill-rule="nonzero" fill-opacity="1" /><path clip-path="url(#clip170)" d="M191.246 167.671 Q187.635 167.671 185.806 171.236 Q184.001 174.777 184.001 181.907 Q184.001 189.013 185.806 192.578 Q187.635 196.12 191.246 196.12 Q194.88 196.12 196.686 192.578 Q198.514 189.013 198.514 181.907 Q198.514 174.777 196.686 171.236 Q194.88 167.671 191.246 167.671 M191.246 163.967 Q197.056 163.967 200.112 168.574 Q203.19 173.157 203.19 181.907 Q203.19 190.634 200.112 195.24 Q197.056 199.823 191.246 199.823 Q185.436 199.823 182.357 195.24 Q179.302 190.634 179.302 181.907 Q179.302 173.157 182.357 168.574 Q185.436 163.967 191.246 163.967 Z" fill="#000000" fill-rule="nonzero" fill-opacity="1" /><path clip-path="url(#clip172)" d="M299.008 819.312 L313.353 819.294 L327.698 819.275 L342.043 819.258 L356.388 819.229 L370.732 819.216 L385.077 819.19 L399.422 819.173 L413.767 819.164 L428.112 819.162 L442.456 819.165 L456.801 819.172 L471.146 819.183 L485.491 819.186 L499.836 819.196 L514.181 819.218 L528.525 819.241 L542.87 819.276 L557.215 819.31 L571.56 819.347 L585.905 819.399 L600.249 819.456 L614.594 819.506 L628.939 819.578 L643.284 819.76 L657.629 819.896 L671.974 820.14 L686.318 820.384 L700.663 820.688 L715.008 821.064 L729.353 821.761 L743.698 822.777 L758.042 823.649 L772.387 824.606 L786.732 825.906 L801.077 827.177 L815.422 828.606 L829.767 830.166 L844.111 832.148 L858.456 834.951 L872.801 837.735 L887.146 840.836 L901.491 843.909 L915.835 845.785 L930.18 847.782 L944.525 849.804 L958.87 850.806 L973.215 852.789 L987.56 854.269 L1001.9 853.852 L1016.25 855.029 L1030.59 855.354 L1044.94 855.267 L1059.28 852.778 L1073.63 851.328 L1087.97 849.552 L1102.32 848.86 L1116.66 844.566 L1131.01 842.259 L1145.35 839.463 L1159.7 834.423 L1174.04 827.162 L1188.39 822.221 L1202.73 817.282 L1217.08 811.178 L1231.42 802.926 L1245.77 793.603 L1260.11 781.537 L1274.46 773.773 L1288.8 764.517 L1303.15 752.221 L1317.49 740.416 L1331.84 731.255 L1346.18 718.252 L1360.52 704.847 L1374.87 686.856 L1389.21 672.716 L1403.56 659.955 L1417.9 645.759 L1432.25 630.498 L1446.59 617.524 L1460.94 603.5 L1475.28 594.07 L1489.63 582.805 L1503.97 576.034 L1518.32 569.263 L1532.66 559.219 L1547.01 549.658 L1561.35 540.647 L1575.7 534.999 L1590.04 526.498 L1604.39 519.598 L1618.73 517.68 L1633.08 516.451 L1647.42 518.435 L1661.77 518.397 L1676.11 517.932 L1690.46 521.727 L1704.8 525.129 L1719.15 525.526 L1733.49 530.316 L1747.83 535.142 L1762.18 538.995 L1776.52 544.013 L1790.87 547.043 L1805.21 552.2 L1819.56 561.055 L1833.9 569.693 L1848.25 580.374 L1862.59 598.697 L1876.94 613.377 L1891.28 627.658 L1905.63 641.167 L1919.97 655.883 L1934.32 667.825 L1948.66 682.327 L1963.01 698.958 L1977.35 714.048 L1991.7 728.743 L2006.04 739.835 L2020.39 754.604 L2034.73 770.814 L2049.08 785.417 L2063.42 799.307 L2077.77 812.441 L2092.11 826.35 L2106.46 839.702 L2120.8 850.802 L2135.15 863.14 L2149.49 873.915 L2163.83 886.801 L2178.18 895.376 L2192.52 905.43 L2206.87 918.182 L2221.21 923.211 L2235.56 931.332 L2249.9 938.719 L2264.25 945.105 L2278.59 946.751 L2292.94 948.626 L2292.94 785.348 L2278.59 773.454 L2264.25 759.345 L2249.9 749.786 L2235.56 737.574 L2221.21 723.902 L2206.87 711.053 L2192.52 697.591 L2178.18 685.243 L2163.83 675.166 L2149.49 665.361 L2135.15 651.856 L2120.8 638.15 L2106.46 624.42 L2092.11 608.385 L2077.77 593.819 L2063.42 576.92 L2049.08 559.093 L2034.73 542.008 L2020.39 531.132 L2006.04 515.179 L1991.7 501.376 L1977.35 486.692 L1963.01 474.865 L1948.66 464.727 L1934.32 454.424 L1919.97 445.634 L1905.63 429.867 L1891.28 421.069 L1876.94 417.177 L1862.59 414.351 L1848.25 409.167 L1833.9 407.086 L1819.56 406.815 L1805.21 402.643 L1790.87 402.8 L1776.52 399.624 L1762.18 395.13 L1747.83 391.705 L1733.49 386.468 L1719.15 387.51 L1704.8 386.896 L1690.46 379.799 L1676.11 373.87 L1661.77 370.083 L1647.42 360.976 L1633.08 355.713 L1618.73 352.02 L1604.39 346.443 L1590.04 344.09 L1575.7 347.931 L1561.35 351.228 L1547.01 356.037 L1532.66 357.203 L1518.32 365.075 L1503.97 378.109 L1489.63 393.304 L1475.28 405.712 L1460.94 417.503 L1446.59 426.908 L1432.25 441.857 L1417.9 458.129 L1403.56 479.217 L1389.21 492.99 L1374.87 511.187 L1360.52 529.02 L1346.18 546.632 L1331.84 566.364 L1317.49 594.495 L1303.15 614.067 L1288.8 633.08 L1274.46 648.925 L1260.11 661.937 L1245.77 674.788 L1231.42 686.085 L1217.08 696.302 L1202.73 704.337 L1188.39 715.588 L1174.04 726.626 L1159.7 736.628 L1145.35 746.23 L1131.01 755.585 L1116.66 766.127 L1102.32 773.857 L1087.97 781.311 L1073.63 787.691 L1059.28 791.851 L1044.94 796.126 L1030.59 800.84 L1016.25 804.163 L1001.9 807.465 L987.56 809.655 L973.215 811.637 L958.87 812.987 L944.525 814.088 L930.18 814.659 L915.835 815.91 L901.491 816.566 L887.146 817.034 L872.801 817.602 L858.456 817.957 L844.111 818.273 L829.767 818.394 L815.422 818.475 L801.077 818.507 L786.732 818.367 L772.387 818.407 L758.042 818.405 L743.698 818.368 L729.353 818.315 L715.008 818.301 L700.663 818.262 L686.318 818.203 L671.974 818.157 L657.629 818.132 L643.284 818.083 L628.939 818.161 L614.594 818.191 L600.249 818.214 L585.905 818.245 L571.56 818.296 L557.215 818.354 L542.87 818.428 L528.525 818.485 L514.181 818.541 L499.836 818.616 L485.491 818.66 L471.146 818.684 L456.801 818.73 L442.456 818.765 L428.112 818.81 L413.767 818.844 L399.422 818.859 L385.077 818.863 L370.732 818.858 L356.388 818.862 L342.043 818.839 L327.698 818.815 L313.353 818.793 L299.008 818.759  Z" fill="#009af9" fill-rule="evenodd" fill-opacity="0.5"/>
<polyline clip-path="url(#clip172)" style="stroke:#009af9; stroke-linecap:round; stroke-linejoin:round; stroke-width:4; stroke-opacity:0.2; fill:none" points="299.008,819.036 313.353,819.043 327.698,819.045 342.043,819.048 356.388,819.046 370.732,819.037 385.077,819.027 399.422,819.016 413.767,819.004 428.112,818.986 442.456,818.965 456.801,818.951 471.146,818.934 485.491,818.923 499.836,818.906 514.181,818.879 528.525,818.863 542.87,818.852 557.215,818.832 571.56,818.821 585.905,818.822 600.249,818.835 614.594,818.848 628.939,818.869 643.284,818.921 657.629,819.014 671.974,819.149 686.318,819.294 700.663,819.475 715.008,819.683 729.353,820.038 743.698,820.572 758.042,821.027 772.387,821.506 786.732,822.137 801.077,822.842 815.422,823.54 829.767,824.28 844.111,825.21 858.456,826.454 872.801,827.669 887.146,828.935 901.491,830.238 915.835,830.847 930.18,831.221 944.525,831.946 958.87,831.897 973.215,832.213 987.56,831.962 1001.9,830.659 1016.25,829.596 1030.59,828.097 1044.94,825.697 1059.28,822.314 1073.63,819.51 1087.97,815.431 1102.32,811.358 1116.66,805.347 1131.01,798.922 1145.35,792.846 1159.7,785.526 1174.04,776.894 1188.39,768.904 1202.73,760.81 1217.08,753.74 1231.42,744.506 1245.77,734.196 1260.11,721.737 1274.46,711.349 1288.8,698.798 1303.15,683.144 1317.49,667.455 1331.84,648.809 1346.18,632.442 1360.52,616.934 1374.87,599.022 1389.21,582.853 1403.56,569.586 1417.9,551.944 1432.25,536.177 1446.59,522.216 1460.94,510.501 1475.28,499.891 1489.63,488.054 1503.97,477.071 1518.32,467.169 1532.66,458.211 1547.01,452.847 1561.35,445.937 1575.7,441.465 1590.04,435.294 1604.39,433.021 1618.73,434.85 1633.08,436.082 1647.42,439.705 1661.77,444.24 1676.11,445.901 1690.46,450.763 1704.8,456.012 1719.15,456.518 1733.49,458.392 1747.83,463.424 1762.18,467.063 1776.52,471.818 1790.87,474.922 1805.21,477.421 1819.56,483.935 1833.9,488.389 1848.25,494.771 1862.59,506.524 1876.94,515.277 1891.28,524.364 1905.63,535.517 1919.97,550.758 1934.32,561.124 1948.66,573.527 1963.01,586.912 1977.35,600.37 1991.7,615.059 2006.04,627.507 2020.39,642.868 2034.73,656.411 2049.08,672.255 2063.42,688.114 2077.77,703.13 2092.11,717.368 2106.46,732.061 2120.8,744.476 2135.15,757.498 2149.49,769.638 2163.83,780.983 2178.18,790.309 2192.52,801.51 2206.87,814.618 2221.21,823.557 2235.56,834.453 2249.9,844.253 2264.25,852.225 2278.59,860.102 2292.94,866.987 "/>
<path clip-path="url(#clip172)" d="M299.008 819.295 L313.353 819.286 L327.698 819.281 L342.043 819.28 L356.388 819.279 L370.732 819.282 L385.077 819.288 L399.422 819.292 L413.767 819.298 L428.112 819.305 L442.456 819.317 L456.801 819.325 L471.146 819.334 L485.491 819.338 L499.836 819.352 L514.181 819.392 L528.525 819.454 L542.87 819.536 L557.215 819.654 L571.56 819.799 L585.905 819.895 L600.249 820.132 L614.594 820.301 L628.939 820.55 L643.284 821.121 L657.629 821.59 L671.974 822.477 L686.318 823.482 L700.663 824.447 L715.008 825.443 L729.353 827.526 L743.698 830.912 L758.042 834.513 L772.387 837.627 L786.732 842.416 L801.077 846.642 L815.422 853.106 L829.767 859.522 L844.111 868.977 L858.456 881.125 L872.801 894.266 L887.146 909.752 L901.491 926.456 L915.835 944.317 L930.18 965.463 L944.525 993.013 L958.87 1010.19 L973.215 1027.94 L987.56 1049.04 L1001.9 1069.74 L1016.25 1093.2 L1030.59 1120.5 L1044.94 1148.66 L1059.28 1174.34 L1073.63 1195.54 L1087.97 1214.57 L1102.32 1230.88 L1116.66 1256.4 L1131.01 1272.15 L1145.35 1287.37 L1159.7 1308.44 L1174.04 1327.24 L1188.39 1340.99 L1202.73 1356.87 L1217.08 1373.67 L1231.42 1388.05 L1245.77 1403.69 L1260.11 1416.6 L1274.46 1422.04 L1288.8 1420.96 L1303.15 1423.07 L1317.49 1425.35 L1331.84 1422.18 L1346.18 1414.21 L1360.52 1420.85 L1374.87 1425.68 L1389.21 1421.03 L1403.56 1397.89 L1417.9 1386.14 L1432.25 1379.2 L1446.59 1359.61 L1460.94 1338.18 L1475.28 1314.81 L1489.63 1292.79 L1503.97 1263.26 L1518.32 1226.7 L1532.66 1186.74 L1547.01 1156.53 L1561.35 1123.13 L1575.7 1096.17 L1590.04 1064.25 L1604.39 1023.81 L1618.73 988.572 L1633.08 942.682 L1647.42 908.119 L1661.77 873.429 L1676.11 845.944 L1690.46 817.28 L1704.8 787.173 L1719.15 760.422 L1733.49 730.982 L1747.83 708.954 L1762.18 689.029 L1776.52 667.047 L1790.87 645.837 L1805.21 624.071 L1819.56 608.923 L1833.9 593.356 L1848.25 575.468 L1862.59 567.91 L1876.94 556.221 L1891.28 542.421 L1905.63 528.342 L1919.97 519.087 L1934.32 505.986 L1948.66 496.575 L1963.01 483.799 L1977.35 477.441 L1991.7 468.823 L2006.04 462.556 L2020.39 457.158 L2034.73 455.243 L2049.08 454.411 L2063.42 456.338 L2077.77 459.125 L2092.11 459.643 L2106.46 465.689 L2120.8 466.965 L2135.15 466.694 L2149.49 474.533 L2163.83 485.882 L2178.18 499.6 L2192.52 505.39 L2206.87 519.504 L2221.21 535.68 L2235.56 555.41 L2249.9 569.589 L2264.25 600.778 L2278.59 634.515 L2292.94 656.162 L2292.94 89.3749 L2278.59 87.9763 L2264.25 95.3421 L2249.9 108.804 L2235.56 110.312 L2221.21 116.506 L2206.87 131.508 L2192.52 145.156 L2178.18 160.611 L2163.83 174.919 L2149.49 184.814 L2135.15 192.112 L2120.8 204.144 L2106.46 213.213 L2092.11 223.272 L2077.77 235.159 L2063.42 237.983 L2049.08 242.259 L2034.73 255.635 L2020.39 271.243 L2006.04 283.866 L1991.7 297.387 L1977.35 302.171 L1963.01 306.298 L1948.66 310.664 L1934.32 324.941 L1919.97 334.947 L1905.63 345.425 L1891.28 355.892 L1876.94 369.879 L1862.59 386.675 L1848.25 401.694 L1833.9 418.136 L1819.56 435.579 L1805.21 455.361 L1790.87 472.213 L1776.52 488.63 L1762.18 507.527 L1747.83 534.33 L1733.49 550.408 L1719.15 563.915 L1704.8 582.066 L1690.46 597.213 L1676.11 611.528 L1661.77 633.54 L1647.42 650.866 L1633.08 668.719 L1618.73 686.937 L1604.39 706.668 L1590.04 732.069 L1575.7 754.935 L1561.35 778.771 L1547.01 802.595 L1532.66 826.054 L1518.32 849.204 L1503.97 868.96 L1489.63 893.446 L1475.28 919.941 L1460.94 948.511 L1446.59 968.366 L1432.25 989.701 L1417.9 1010.76 L1403.56 1027.38 L1389.21 1042.21 L1374.87 1058.91 L1360.52 1063.09 L1346.18 1068.54 L1331.84 1066.4 L1317.49 1067.22 L1303.15 1061.41 L1288.8 1057.37 L1274.46 1048.44 L1260.11 1041.6 L1245.77 1022.77 L1231.42 1011.8 L1217.08 994.498 L1202.73 979.343 L1188.39 971.131 L1174.04 957.816 L1159.7 946.645 L1145.35 933.566 L1131.01 918.683 L1116.66 909.008 L1102.32 896.178 L1087.97 886.119 L1073.63 877.377 L1059.28 868.316 L1044.94 860.56 L1030.59 852.126 L1016.25 845.791 L1001.9 837.541 L987.56 833.218 L973.215 829.165 L958.87 825.413 L944.525 823.463 L930.18 820.711 L915.835 820.296 L901.491 819.938 L887.146 818.54 L872.801 817.785 L858.456 817.035 L844.111 817.033 L829.767 817.337 L815.422 817.351 L801.077 817.659 L786.732 816.915 L772.387 816.966 L758.042 816.988 L743.698 817.517 L729.353 817.817 L715.008 817.993 L700.663 817.896 L686.318 817.944 L671.974 818.083 L657.629 818.183 L643.284 818.163 L628.939 818.282 L614.594 818.288 L600.249 818.334 L585.905 818.402 L571.56 818.433 L557.215 818.51 L542.87 818.6 L528.525 818.654 L514.181 818.702 L499.836 818.762 L485.491 818.8 L471.146 818.821 L456.801 818.868 L442.456 818.909 L428.112 818.971 L413.767 819.019 L399.422 819.052 L385.077 819.082 L370.732 819.116 L356.388 819.137 L342.043 819.148 L327.698 819.145 L313.353 819.14 L299.008 819.121  Z" fill="#e26f46" fill-rule="evenodd" fill-opacity="0.5"/>
<polyline clip-path="url(#clip172)" style="stroke:#e26f46; stroke-linecap:round; stroke-linejoin:round; stroke-width:4; stroke-opacity:0.2; fill:none" points="299.008,819.208 313.353,819.213 327.698,819.213 342.043,819.214 356.388,819.208 370.732,819.199 385.077,819.185 399.422,819.172 413.767,819.158 428.112,819.138 442.456,819.113 456.801,819.096 471.146,819.077 485.491,819.069 499.836,819.057 514.181,819.047 528.525,819.054 542.87,819.068 557.215,819.082 571.56,819.116 585.905,819.149 600.249,819.233 614.594,819.295 628.939,819.416 643.284,819.642 657.629,819.887 671.974,820.28 686.318,820.713 700.663,821.171 715.008,821.718 729.353,822.672 743.698,824.215 758.042,825.75 772.387,827.297 786.732,829.666 801.077,832.151 815.422,835.228 829.767,838.429 844.111,843.005 858.456,849.08 872.801,856.026 887.146,864.146 901.491,873.197 915.835,882.307 930.18,893.087 944.525,908.238 958.87,917.799 973.215,928.552 987.56,941.128 1001.9,953.643 1016.25,969.497 1030.59,986.314 1044.94,1004.61 1059.28,1021.33 1073.63,1036.46 1087.97,1050.35 1102.32,1063.53 1116.66,1082.7 1131.01,1095.41 1145.35,1110.47 1159.7,1127.54 1174.04,1142.53 1188.39,1156.06 1202.73,1168.11 1217.08,1184.08 1231.42,1199.92 1245.77,1213.23 1260.11,1229.1 1274.46,1235.24 1288.8,1239.17 1303.15,1242.24 1317.49,1246.28 1331.84,1244.29 1346.18,1241.38 1360.52,1241.97 1374.87,1242.29 1389.21,1231.62 1403.56,1212.64 1417.9,1198.45 1432.25,1184.45 1446.59,1163.99 1460.94,1143.35 1475.28,1117.38 1489.63,1093.12 1503.97,1066.11 1518.32,1037.95 1532.66,1006.4 1547.01,979.563 1561.35,950.948 1575.7,925.555 1590.04,898.161 1604.39,865.238 1618.73,837.755 1633.08,805.701 1647.42,779.492 1661.77,753.485 1676.11,728.736 1690.46,707.247 1704.8,684.62 1719.15,662.169 1733.49,640.695 1747.83,621.642 1762.18,598.278 1776.52,577.839 1790.87,559.025 1805.21,539.716 1819.56,522.251 1833.9,505.746 1848.25,488.581 1862.59,477.293 1876.94,463.05 1891.28,449.156 1905.63,436.883 1919.97,427.017 1934.32,415.463 1948.66,403.619 1963.01,395.048 1977.35,389.806 1991.7,383.105 2006.04,373.211 2020.39,364.201 2034.73,355.439 2049.08,348.335 2063.42,347.161 2077.77,347.142 2092.11,341.457 2106.46,339.451 2120.8,335.555 2135.15,329.403 2149.49,329.674 2163.83,330.4 2178.18,330.105 2192.52,325.273 2206.87,325.506 2221.21,326.093 2235.56,332.861 2249.9,339.196 2264.25,348.06 2278.59,361.246 2292.94,372.769 "/>
<circle clip-path="url(#clip172)" cx="299.008" cy="818.556" r="7.2" fill="#008000" fill-rule="evenodd" fill-opacity="1" stroke="#000000" stroke-opacity="1" stroke-width="3.2"/>
<circle clip-path="url(#clip172)" cx="313.353" cy="817.548" r="7.2" fill="#008000" fill-rule="evenodd" fill-opacity="1" stroke="#000000" stroke-opacity="1" stroke-width="3.2"/>
<circle clip-path="url(#clip172)" cx="327.698" cy="816.966" r="7.2" fill="#008000" fill-rule="evenodd" fill-opacity="1" stroke="#000000" stroke-opacity="1" stroke-width="3.2"/>
<circle clip-path="url(#clip172)" cx="342.043" cy="817.064" r="7.2" fill="#008000" fill-rule="evenodd" fill-opacity="1" stroke="#000000" stroke-opacity="1" stroke-width="3.2"/>
<circle clip-path="url(#clip172)" cx="356.388" cy="818.044" r="7.2" fill="#008000" fill-rule="evenodd" fill-opacity="1" stroke="#000000" stroke-opacity="1" stroke-width="3.2"/>
<circle clip-path="url(#clip172)" cx="370.732" cy="819.381" r="7.2" fill="#008000" fill-rule="evenodd" fill-opacity="1" stroke="#000000" stroke-opacity="1" stroke-width="3.2"/>
<circle clip-path="url(#clip172)" cx="385.077" cy="820.468" r="7.2" fill="#008000" fill-rule="evenodd" fill-opacity="1" stroke="#000000" stroke-opacity="1" stroke-width="3.2"/>
<circle clip-path="url(#clip172)" cx="399.422" cy="820.887" r="7.2" fill="#008000" fill-rule="evenodd" fill-opacity="1" stroke="#000000" stroke-opacity="1" stroke-width="3.2"/>
<circle clip-path="url(#clip172)" cx="413.767" cy="820.406" r="7.2" fill="#008000" fill-rule="evenodd" fill-opacity="1" stroke="#000000" stroke-opacity="1" stroke-width="3.2"/>
<circle clip-path="url(#clip172)" cx="428.112" cy="819.5" r="7.2" fill="#008000" fill-rule="evenodd" fill-opacity="1" stroke="#000000" stroke-opacity="1" stroke-width="3.2"/>
<circle clip-path="url(#clip172)" cx="442.456" cy="818.754" r="7.2" fill="#008000" fill-rule="evenodd" fill-opacity="1" stroke="#000000" stroke-opacity="1" stroke-width="3.2"/>
<circle clip-path="url(#clip172)" cx="456.801" cy="818.631" r="7.2" fill="#008000" fill-rule="evenodd" fill-opacity="1" stroke="#000000" stroke-opacity="1" stroke-width="3.2"/>
<circle clip-path="url(#clip172)" cx="471.146" cy="819.187" r="7.2" fill="#008000" fill-rule="evenodd" fill-opacity="1" stroke="#000000" stroke-opacity="1" stroke-width="3.2"/>
<circle clip-path="url(#clip172)" cx="485.491" cy="820.004" r="7.2" fill="#008000" fill-rule="evenodd" fill-opacity="1" stroke="#000000" stroke-opacity="1" stroke-width="3.2"/>
<circle clip-path="url(#clip172)" cx="499.836" cy="820.444" r="7.2" fill="#008000" fill-rule="evenodd" fill-opacity="1" stroke="#000000" stroke-opacity="1" stroke-width="3.2"/>
<circle clip-path="url(#clip172)" cx="514.181" cy="820.31" r="7.2" fill="#008000" fill-rule="evenodd" fill-opacity="1" stroke="#000000" stroke-opacity="1" stroke-width="3.2"/>
<circle clip-path="url(#clip172)" cx="528.525" cy="819.605" r="7.2" fill="#008000" fill-rule="evenodd" fill-opacity="1" stroke="#000000" stroke-opacity="1" stroke-width="3.2"/>
<circle clip-path="url(#clip172)" cx="542.87" cy="818.734" r="7.2" fill="#008000" fill-rule="evenodd" fill-opacity="1" stroke="#000000" stroke-opacity="1" stroke-width="3.2"/>
<circle clip-path="url(#clip172)" cx="557.215" cy="818.212" r="7.2" fill="#008000" fill-rule="evenodd" fill-opacity="1" stroke="#000000" stroke-opacity="1" stroke-width="3.2"/>
<circle clip-path="url(#clip172)" cx="571.56" cy="818.179" r="7.2" fill="#008000" fill-rule="evenodd" fill-opacity="1" stroke="#000000" stroke-opacity="1" stroke-width="3.2"/>
<circle clip-path="url(#clip172)" cx="585.905" cy="818.587" r="7.2" fill="#008000" fill-rule="evenodd" fill-opacity="1" stroke="#000000" stroke-opacity="1" stroke-width="3.2"/>
<circle clip-path="url(#clip172)" cx="600.249" cy="819.131" r="7.2" fill="#008000" fill-rule="evenodd" fill-opacity="1" stroke="#000000" stroke-opacity="1" stroke-width="3.2"/>
<circle clip-path="url(#clip172)" cx="614.594" cy="819.43" r="7.2" fill="#008000" fill-rule="evenodd" fill-opacity="1" stroke="#000000" stroke-opacity="1" stroke-width="3.2"/>
<circle clip-path="url(#clip172)" cx="628.939" cy="819.431" r="7.2" fill="#008000" fill-rule="evenodd" fill-opacity="1" stroke="#000000" stroke-opacity="1" stroke-width="3.2"/>
<circle clip-path="url(#clip172)" cx="643.284" cy="819.129" r="7.2" fill="#008000" fill-rule="evenodd" fill-opacity="1" stroke="#000000" stroke-opacity="1" stroke-width="3.2"/>
<circle clip-path="url(#clip172)" cx="657.629" cy="818.808" r="7.2" fill="#008000" fill-rule="evenodd" fill-opacity="1" stroke="#000000" stroke-opacity="1" stroke-width="3.2"/>
<circle clip-path="url(#clip172)" cx="671.974" cy="818.606" r="7.2" fill="#008000" fill-rule="evenodd" fill-opacity="1" stroke="#000000" stroke-opacity="1" stroke-width="3.2"/>
<circle clip-path="url(#clip172)" cx="686.318" cy="818.605" r="7.2" fill="#008000" fill-rule="evenodd" fill-opacity="1" stroke="#000000" stroke-opacity="1" stroke-width="3.2"/>
<circle clip-path="url(#clip172)" cx="700.663" cy="818.646" r="7.2" fill="#008000" fill-rule="evenodd" fill-opacity="1" stroke="#000000" stroke-opacity="1" stroke-width="3.2"/>
<circle clip-path="url(#clip172)" cx="715.008" cy="818.632" r="7.2" fill="#008000" fill-rule="evenodd" fill-opacity="1" stroke="#000000" stroke-opacity="1" stroke-width="3.2"/>
<circle clip-path="url(#clip172)" cx="729.353" cy="818.607" r="7.2" fill="#008000" fill-rule="evenodd" fill-opacity="1" stroke="#000000" stroke-opacity="1" stroke-width="3.2"/>
<circle clip-path="url(#clip172)" cx="743.698" cy="818.529" r="7.2" fill="#008000" fill-rule="evenodd" fill-opacity="1" stroke="#000000" stroke-opacity="1" stroke-width="3.2"/>
<circle clip-path="url(#clip172)" cx="758.042" cy="818.656" r="7.2" fill="#008000" fill-rule="evenodd" fill-opacity="1" stroke="#000000" stroke-opacity="1" stroke-width="3.2"/>
<circle clip-path="url(#clip172)" cx="772.387" cy="818.964" r="7.2" fill="#008000" fill-rule="evenodd" fill-opacity="1" stroke="#000000" stroke-opacity="1" stroke-width="3.2"/>
<circle clip-path="url(#clip172)" cx="786.732" cy="819.498" r="7.2" fill="#008000" fill-rule="evenodd" fill-opacity="1" stroke="#000000" stroke-opacity="1" stroke-width="3.2"/>
<circle clip-path="url(#clip172)" cx="801.077" cy="819.79" r="7.2" fill="#008000" fill-rule="evenodd" fill-opacity="1" stroke="#000000" stroke-opacity="1" stroke-width="3.2"/>
<circle clip-path="url(#clip172)" cx="815.422" cy="819.612" r="7.2" fill="#008000" fill-rule="evenodd" fill-opacity="1" stroke="#000000" stroke-opacity="1" stroke-width="3.2"/>
<circle clip-path="url(#clip172)" cx="829.767" cy="818.951" r="7.2" fill="#008000" fill-rule="evenodd" fill-opacity="1" stroke="#000000" stroke-opacity="1" stroke-width="3.2"/>
<circle clip-path="url(#clip172)" cx="844.111" cy="818.316" r="7.2" fill="#008000" fill-rule="evenodd" fill-opacity="1" stroke="#000000" stroke-opacity="1" stroke-width="3.2"/>
<circle clip-path="url(#clip172)" cx="858.456" cy="818.588" r="7.2" fill="#008000" fill-rule="evenodd" fill-opacity="1" stroke="#000000" stroke-opacity="1" stroke-width="3.2"/>
<circle clip-path="url(#clip172)" cx="872.801" cy="819.212" r="7.2" fill="#008000" fill-rule="evenodd" fill-opacity="1" stroke="#000000" stroke-opacity="1" stroke-width="3.2"/>
<circle clip-path="url(#clip172)" cx="887.146" cy="819.906" r="7.2" fill="#008000" fill-rule="evenodd" fill-opacity="1" stroke="#000000" stroke-opacity="1" stroke-width="3.2"/>
<circle clip-path="url(#clip172)" cx="901.491" cy="820.47" r="7.2" fill="#008000" fill-rule="evenodd" fill-opacity="1" stroke="#000000" stroke-opacity="1" stroke-width="3.2"/>
<circle clip-path="url(#clip172)" cx="915.835" cy="819.454" r="7.2" fill="#008000" fill-rule="evenodd" fill-opacity="1" stroke="#000000" stroke-opacity="1" stroke-width="3.2"/>
<circle clip-path="url(#clip172)" cx="930.18" cy="816.068" r="7.2" fill="#008000" fill-rule="evenodd" fill-opacity="1" stroke="#000000" stroke-opacity="1" stroke-width="3.2"/>
<circle clip-path="url(#clip172)" cx="944.525" cy="811.551" r="7.2" fill="#008000" fill-rule="evenodd" fill-opacity="1" stroke="#000000" stroke-opacity="1" stroke-width="3.2"/>
<circle clip-path="url(#clip172)" cx="958.87" cy="807.513" r="7.2" fill="#008000" fill-rule="evenodd" fill-opacity="1" stroke="#000000" stroke-opacity="1" stroke-width="3.2"/>
<circle clip-path="url(#clip172)" cx="973.215" cy="805.707" r="7.2" fill="#008000" fill-rule="evenodd" fill-opacity="1" stroke="#000000" stroke-opacity="1" stroke-width="3.2"/>
<circle clip-path="url(#clip172)" cx="987.56" cy="808.638" r="7.2" fill="#008000" fill-rule="evenodd" fill-opacity="1" stroke="#000000" stroke-opacity="1" stroke-width="3.2"/>
<circle clip-path="url(#clip172)" cx="1001.9" cy="815.795" r="7.2" fill="#008000" fill-rule="evenodd" fill-opacity="1" stroke="#000000" stroke-opacity="1" stroke-width="3.2"/>
<circle clip-path="url(#clip172)" cx="1016.25" cy="827.027" r="7.2" fill="#008000" fill-rule="evenodd" fill-opacity="1" stroke="#000000" stroke-opacity="1" stroke-width="3.2"/>
<circle clip-path="url(#clip172)" cx="1030.59" cy="840.352" r="7.2" fill="#008000" fill-rule="evenodd" fill-opacity="1" stroke="#000000" stroke-opacity="1" stroke-width="3.2"/>
<circle clip-path="url(#clip172)" cx="1044.94" cy="854.014" r="7.2" fill="#008000" fill-rule="evenodd" fill-opacity="1" stroke="#000000" stroke-opacity="1" stroke-width="3.2"/>
<circle clip-path="url(#clip172)" cx="1059.28" cy="867.664" r="7.2" fill="#008000" fill-rule="evenodd" fill-opacity="1" stroke="#000000" stroke-opacity="1" stroke-width="3.2"/>
<circle clip-path="url(#clip172)" cx="1073.63" cy="882.454" r="7.2" fill="#008000" fill-rule="evenodd" fill-opacity="1" stroke="#000000" stroke-opacity="1" stroke-width="3.2"/>
<circle clip-path="url(#clip172)" cx="1087.97" cy="897.467" r="7.2" fill="#008000" fill-rule="evenodd" fill-opacity="1" stroke="#000000" stroke-opacity="1" stroke-width="3.2"/>
<circle clip-path="url(#clip172)" cx="1102.32" cy="912.063" r="7.2" fill="#008000" fill-rule="evenodd" fill-opacity="1" stroke="#000000" stroke-opacity="1" stroke-width="3.2"/>
<circle clip-path="url(#clip172)" cx="1116.66" cy="925.99" r="7.2" fill="#008000" fill-rule="evenodd" fill-opacity="1" stroke="#000000" stroke-opacity="1" stroke-width="3.2"/>
<circle clip-path="url(#clip172)" cx="1131.01" cy="935.48" r="7.2" fill="#008000" fill-rule="evenodd" fill-opacity="1" stroke="#000000" stroke-opacity="1" stroke-width="3.2"/>
<circle clip-path="url(#clip172)" cx="1145.35" cy="937.702" r="7.2" fill="#008000" fill-rule="evenodd" fill-opacity="1" stroke="#000000" stroke-opacity="1" stroke-width="3.2"/>
<circle clip-path="url(#clip172)" cx="1159.7" cy="934.22" r="7.2" fill="#008000" fill-rule="evenodd" fill-opacity="1" stroke="#000000" stroke-opacity="1" stroke-width="3.2"/>
<circle clip-path="url(#clip172)" cx="1174.04" cy="925.721" r="7.2" fill="#008000" fill-rule="evenodd" fill-opacity="1" stroke="#000000" stroke-opacity="1" stroke-width="3.2"/>
<circle clip-path="url(#clip172)" cx="1188.39" cy="912.764" r="7.2" fill="#008000" fill-rule="evenodd" fill-opacity="1" stroke="#000000" stroke-opacity="1" stroke-width="3.2"/>
<circle clip-path="url(#clip172)" cx="1202.73" cy="897.321" r="7.2" fill="#008000" fill-rule="evenodd" fill-opacity="1" stroke="#000000" stroke-opacity="1" stroke-width="3.2"/>
<circle clip-path="url(#clip172)" cx="1217.08" cy="880.463" r="7.2" fill="#008000" fill-rule="evenodd" fill-opacity="1" stroke="#000000" stroke-opacity="1" stroke-width="3.2"/>
<circle clip-path="url(#clip172)" cx="1231.42" cy="861.34" r="7.2" fill="#008000" fill-rule="evenodd" fill-opacity="1" stroke="#000000" stroke-opacity="1" stroke-width="3.2"/>
<circle clip-path="url(#clip172)" cx="1245.77" cy="839.072" r="7.2" fill="#008000" fill-rule="evenodd" fill-opacity="1" stroke="#000000" stroke-opacity="1" stroke-width="3.2"/>
<circle clip-path="url(#clip172)" cx="1260.11" cy="812.725" r="7.2" fill="#008000" fill-rule="evenodd" fill-opacity="1" stroke="#000000" stroke-opacity="1" stroke-width="3.2"/>
<circle clip-path="url(#clip172)" cx="1274.46" cy="780.242" r="7.2" fill="#008000" fill-rule="evenodd" fill-opacity="1" stroke="#000000" stroke-opacity="1" stroke-width="3.2"/>
<circle clip-path="url(#clip172)" cx="1288.8" cy="744.103" r="7.2" fill="#008000" fill-rule="evenodd" fill-opacity="1" stroke="#000000" stroke-opacity="1" stroke-width="3.2"/>
<circle clip-path="url(#clip172)" cx="1303.15" cy="704.246" r="7.2" fill="#008000" fill-rule="evenodd" fill-opacity="1" stroke="#000000" stroke-opacity="1" stroke-width="3.2"/>
<circle clip-path="url(#clip172)" cx="1317.49" cy="664.288" r="7.2" fill="#008000" fill-rule="evenodd" fill-opacity="1" stroke="#000000" stroke-opacity="1" stroke-width="3.2"/>
<circle clip-path="url(#clip172)" cx="1331.84" cy="626.422" r="7.2" fill="#008000" fill-rule="evenodd" fill-opacity="1" stroke="#000000" stroke-opacity="1" stroke-width="3.2"/>
<circle clip-path="url(#clip172)" cx="1346.18" cy="592.513" r="7.2" fill="#008000" fill-rule="evenodd" fill-opacity="1" stroke="#000000" stroke-opacity="1" stroke-width="3.2"/>
<circle clip-path="url(#clip172)" cx="1360.52" cy="563.928" r="7.2" fill="#008000" fill-rule="evenodd" fill-opacity="1" stroke="#000000" stroke-opacity="1" stroke-width="3.2"/>
<circle clip-path="url(#clip172)" cx="1374.87" cy="538.591" r="7.2" fill="#008000" fill-rule="evenodd" fill-opacity="1" stroke="#000000" stroke-opacity="1" stroke-width="3.2"/>
<circle clip-path="url(#clip172)" cx="1389.21" cy="517.15" r="7.2" fill="#008000" fill-rule="evenodd" fill-opacity="1" stroke="#000000" stroke-opacity="1" stroke-width="3.2"/>
<circle clip-path="url(#clip172)" cx="1403.56" cy="501.241" r="7.2" fill="#008000" fill-rule="evenodd" fill-opacity="1" stroke="#000000" stroke-opacity="1" stroke-width="3.2"/>
<circle clip-path="url(#clip172)" cx="1417.9" cy="489.634" r="7.2" fill="#008000" fill-rule="evenodd" fill-opacity="1" stroke="#000000" stroke-opacity="1" stroke-width="3.2"/>
<circle clip-path="url(#clip172)" cx="1432.25" cy="485.622" r="7.2" fill="#008000" fill-rule="evenodd" fill-opacity="1" stroke="#000000" stroke-opacity="1" stroke-width="3.2"/>
<circle clip-path="url(#clip172)" cx="1446.59" cy="491.018" r="7.2" fill="#008000" fill-rule="evenodd" fill-opacity="1" stroke="#000000" stroke-opacity="1" stroke-width="3.2"/>
<circle clip-path="url(#clip172)" cx="1460.94" cy="502.634" r="7.2" fill="#008000" fill-rule="evenodd" fill-opacity="1" stroke="#000000" stroke-opacity="1" stroke-width="3.2"/>
<circle clip-path="url(#clip172)" cx="1475.28" cy="514.433" r="7.2" fill="#008000" fill-rule="evenodd" fill-opacity="1" stroke="#000000" stroke-opacity="1" stroke-width="3.2"/>
<circle clip-path="url(#clip172)" cx="1489.63" cy="521.928" r="7.2" fill="#008000" fill-rule="evenodd" fill-opacity="1" stroke="#000000" stroke-opacity="1" stroke-width="3.2"/>
<circle clip-path="url(#clip172)" cx="1503.97" cy="520.22" r="7.2" fill="#008000" fill-rule="evenodd" fill-opacity="1" stroke="#000000" stroke-opacity="1" stroke-width="3.2"/>
<circle clip-path="url(#clip172)" cx="1518.32" cy="506.92" r="7.2" fill="#008000" fill-rule="evenodd" fill-opacity="1" stroke="#000000" stroke-opacity="1" stroke-width="3.2"/>
<circle clip-path="url(#clip172)" cx="1532.66" cy="487.307" r="7.2" fill="#008000" fill-rule="evenodd" fill-opacity="1" stroke="#000000" stroke-opacity="1" stroke-width="3.2"/>
<circle clip-path="url(#clip172)" cx="1547.01" cy="467.504" r="7.2" fill="#008000" fill-rule="evenodd" fill-opacity="1" stroke="#000000" stroke-opacity="1" stroke-width="3.2"/>
<circle clip-path="url(#clip172)" cx="1561.35" cy="449.961" r="7.2" fill="#008000" fill-rule="evenodd" fill-opacity="1" stroke="#000000" stroke-opacity="1" stroke-width="3.2"/>
<circle clip-path="url(#clip172)" cx="1575.7" cy="439.564" r="7.2" fill="#008000" fill-rule="evenodd" fill-opacity="1" stroke="#000000" stroke-opacity="1" stroke-width="3.2"/>
<circle clip-path="url(#clip172)" cx="1590.04" cy="436.232" r="7.2" fill="#008000" fill-rule="evenodd" fill-opacity="1" stroke="#000000" stroke-opacity="1" stroke-width="3.2"/>
<circle clip-path="url(#clip172)" cx="1604.39" cy="435.949" r="7.2" fill="#008000" fill-rule="evenodd" fill-opacity="1" stroke="#000000" stroke-opacity="1" stroke-width="3.2"/>
<circle clip-path="url(#clip172)" cx="1618.73" cy="437.974" r="7.2" fill="#008000" fill-rule="evenodd" fill-opacity="1" stroke="#000000" stroke-opacity="1" stroke-width="3.2"/>
<circle clip-path="url(#clip172)" cx="1633.08" cy="439.81" r="7.2" fill="#008000" fill-rule="evenodd" fill-opacity="1" stroke="#000000" stroke-opacity="1" stroke-width="3.2"/>
<circle clip-path="url(#clip172)" cx="1647.42" cy="440.068" r="7.2" fill="#008000" fill-rule="evenodd" fill-opacity="1" stroke="#000000" stroke-opacity="1" stroke-width="3.2"/>
<circle clip-path="url(#clip172)" cx="1661.77" cy="440.256" r="7.2" fill="#008000" fill-rule="evenodd" fill-opacity="1" stroke="#000000" stroke-opacity="1" stroke-width="3.2"/>
<circle clip-path="url(#clip172)" cx="1676.11" cy="441.991" r="7.2" fill="#008000" fill-rule="evenodd" fill-opacity="1" stroke="#000000" stroke-opacity="1" stroke-width="3.2"/>
<circle clip-path="url(#clip172)" cx="1690.46" cy="447.35" r="7.2" fill="#008000" fill-rule="evenodd" fill-opacity="1" stroke="#000000" stroke-opacity="1" stroke-width="3.2"/>
<circle clip-path="url(#clip172)" cx="1704.8" cy="455.126" r="7.2" fill="#008000" fill-rule="evenodd" fill-opacity="1" stroke="#000000" stroke-opacity="1" stroke-width="3.2"/>
<circle clip-path="url(#clip172)" cx="1719.15" cy="466.67" r="7.2" fill="#008000" fill-rule="evenodd" fill-opacity="1" stroke="#000000" stroke-opacity="1" stroke-width="3.2"/>
<circle clip-path="url(#clip172)" cx="1733.49" cy="481.384" r="7.2" fill="#008000" fill-rule="evenodd" fill-opacity="1" stroke="#000000" stroke-opacity="1" stroke-width="3.2"/>
<circle clip-path="url(#clip172)" cx="1747.83" cy="495.464" r="7.2" fill="#008000" fill-rule="evenodd" fill-opacity="1" stroke="#000000" stroke-opacity="1" stroke-width="3.2"/>
<circle clip-path="url(#clip172)" cx="1762.18" cy="508.953" r="7.2" fill="#008000" fill-rule="evenodd" fill-opacity="1" stroke="#000000" stroke-opacity="1" stroke-width="3.2"/>
<circle clip-path="url(#clip172)" cx="1776.52" cy="519.659" r="7.2" fill="#008000" fill-rule="evenodd" fill-opacity="1" stroke="#000000" stroke-opacity="1" stroke-width="3.2"/>
<circle clip-path="url(#clip172)" cx="1790.87" cy="525.766" r="7.2" fill="#008000" fill-rule="evenodd" fill-opacity="1" stroke="#000000" stroke-opacity="1" stroke-width="3.2"/>
<circle clip-path="url(#clip172)" cx="1805.21" cy="527.673" r="7.2" fill="#008000" fill-rule="evenodd" fill-opacity="1" stroke="#000000" stroke-opacity="1" stroke-width="3.2"/>
<circle clip-path="url(#clip172)" cx="1819.56" cy="527.658" r="7.2" fill="#008000" fill-rule="evenodd" fill-opacity="1" stroke="#000000" stroke-opacity="1" stroke-width="3.2"/>
<circle clip-path="url(#clip172)" cx="1833.9" cy="527.072" r="7.2" fill="#008000" fill-rule="evenodd" fill-opacity="1" stroke="#000000" stroke-opacity="1" stroke-width="3.2"/>
<circle clip-path="url(#clip172)" cx="1848.25" cy="527.436" r="7.2" fill="#008000" fill-rule="evenodd" fill-opacity="1" stroke="#000000" stroke-opacity="1" stroke-width="3.2"/>
<circle clip-path="url(#clip172)" cx="1862.59" cy="531.184" r="7.2" fill="#008000" fill-rule="evenodd" fill-opacity="1" stroke="#000000" stroke-opacity="1" stroke-width="3.2"/>
<circle clip-path="url(#clip172)" cx="1876.94" cy="537.831" r="7.2" fill="#008000" fill-rule="evenodd" fill-opacity="1" stroke="#000000" stroke-opacity="1" stroke-width="3.2"/>
<circle clip-path="url(#clip172)" cx="1891.28" cy="545.184" r="7.2" fill="#008000" fill-rule="evenodd" fill-opacity="1" stroke="#000000" stroke-opacity="1" stroke-width="3.2"/>
<circle clip-path="url(#clip172)" cx="1905.63" cy="554.894" r="7.2" fill="#008000" fill-rule="evenodd" fill-opacity="1" stroke="#000000" stroke-opacity="1" stroke-width="3.2"/>
<circle clip-path="url(#clip172)" cx="1919.97" cy="564.226" r="7.2" fill="#008000" fill-rule="evenodd" fill-opacity="1" stroke="#000000" stroke-opacity="1" stroke-width="3.2"/>
<circle clip-path="url(#clip172)" cx="1934.32" cy="571.418" r="7.2" fill="#008000" fill-rule="evenodd" fill-opacity="1" stroke="#000000" stroke-opacity="1" stroke-width="3.2"/>
<circle clip-path="url(#clip172)" cx="1948.66" cy="577.84" r="7.2" fill="#008000" fill-rule="evenodd" fill-opacity="1" stroke="#000000" stroke-opacity="1" stroke-width="3.2"/>
<circle clip-path="url(#clip172)" cx="1963.01" cy="584.562" r="7.2" fill="#008000" fill-rule="evenodd" fill-opacity="1" stroke="#000000" stroke-opacity="1" stroke-width="3.2"/>
<circle clip-path="url(#clip172)" cx="1977.35" cy="592.557" r="7.2" fill="#008000" fill-rule="evenodd" fill-opacity="1" stroke="#000000" stroke-opacity="1" stroke-width="3.2"/>
<circle clip-path="url(#clip172)" cx="1991.7" cy="603.113" r="7.2" fill="#008000" fill-rule="evenodd" fill-opacity="1" stroke="#000000" stroke-opacity="1" stroke-width="3.2"/>
<circle clip-path="url(#clip172)" cx="2006.04" cy="617.024" r="7.2" fill="#008000" fill-rule="evenodd" fill-opacity="1" stroke="#000000" stroke-opacity="1" stroke-width="3.2"/>
<circle clip-path="url(#clip172)" cx="2020.39" cy="633.424" r="7.2" fill="#008000" fill-rule="evenodd" fill-opacity="1" stroke="#000000" stroke-opacity="1" stroke-width="3.2"/>
<circle clip-path="url(#clip172)" cx="2034.73" cy="649.797" r="7.2" fill="#008000" fill-rule="evenodd" fill-opacity="1" stroke="#000000" stroke-opacity="1" stroke-width="3.2"/>
<circle clip-path="url(#clip172)" cx="2049.08" cy="666.661" r="7.2" fill="#008000" fill-rule="evenodd" fill-opacity="1" stroke="#000000" stroke-opacity="1" stroke-width="3.2"/>
<circle clip-path="url(#clip172)" cx="2063.42" cy="682.334" r="7.2" fill="#008000" fill-rule="evenodd" fill-opacity="1" stroke="#000000" stroke-opacity="1" stroke-width="3.2"/>
<circle clip-path="url(#clip172)" cx="2077.77" cy="695.457" r="7.2" fill="#008000" fill-rule="evenodd" fill-opacity="1" stroke="#000000" stroke-opacity="1" stroke-width="3.2"/>
<circle clip-path="url(#clip172)" cx="2092.11" cy="707.577" r="7.2" fill="#008000" fill-rule="evenodd" fill-opacity="1" stroke="#000000" stroke-opacity="1" stroke-width="3.2"/>
<circle clip-path="url(#clip172)" cx="2106.46" cy="719.128" r="7.2" fill="#008000" fill-rule="evenodd" fill-opacity="1" stroke="#000000" stroke-opacity="1" stroke-width="3.2"/>
<circle clip-path="url(#clip172)" cx="2120.8" cy="730.279" r="7.2" fill="#008000" fill-rule="evenodd" fill-opacity="1" stroke="#000000" stroke-opacity="1" stroke-width="3.2"/>
<circle clip-path="url(#clip172)" cx="2135.15" cy="741.553" r="7.2" fill="#008000" fill-rule="evenodd" fill-opacity="1" stroke="#000000" stroke-opacity="1" stroke-width="3.2"/>
<circle clip-path="url(#clip172)" cx="2149.49" cy="752.372" r="7.2" fill="#008000" fill-rule="evenodd" fill-opacity="1" stroke="#000000" stroke-opacity="1" stroke-width="3.2"/>
<circle clip-path="url(#clip172)" cx="2163.83" cy="761.851" r="7.2" fill="#008000" fill-rule="evenodd" fill-opacity="1" stroke="#000000" stroke-opacity="1" stroke-width="3.2"/>
<circle clip-path="url(#clip172)" cx="2178.18" cy="769.44" r="7.2" fill="#008000" fill-rule="evenodd" fill-opacity="1" stroke="#000000" stroke-opacity="1" stroke-width="3.2"/>
<circle clip-path="url(#clip172)" cx="2192.52" cy="777.361" r="7.2" fill="#008000" fill-rule="evenodd" fill-opacity="1" stroke="#000000" stroke-opacity="1" stroke-width="3.2"/>
<circle clip-path="url(#clip172)" cx="2206.87" cy="786.301" r="7.2" fill="#008000" fill-rule="evenodd" fill-opacity="1" stroke="#000000" stroke-opacity="1" stroke-width="3.2"/>
<circle clip-path="url(#clip172)" cx="2221.21" cy="796.875" r="7.2" fill="#008000" fill-rule="evenodd" fill-opacity="1" stroke="#000000" stroke-opacity="1" stroke-width="3.2"/>
<circle clip-path="url(#clip172)" cx="2235.56" cy="809.847" r="7.2" fill="#008000" fill-rule="evenodd" fill-opacity="1" stroke="#000000" stroke-opacity="1" stroke-width="3.2"/>
<circle clip-path="url(#clip172)" cx="2249.9" cy="823.439" r="7.2" fill="#008000" fill-rule="evenodd" fill-opacity="1" stroke="#000000" stroke-opacity="1" stroke-width="3.2"/>
<circle clip-path="url(#clip172)" cx="2264.25" cy="835.299" r="7.2" fill="#008000" fill-rule="evenodd" fill-opacity="1" stroke="#000000" stroke-opacity="1" stroke-width="3.2"/>
<circle clip-path="url(#clip172)" cx="2278.59" cy="843.965" r="7.2" fill="#008000" fill-rule="evenodd" fill-opacity="1" stroke="#000000" stroke-opacity="1" stroke-width="3.2"/>
<circle clip-path="url(#clip172)" cx="2292.94" cy="848.4" r="7.2" fill="#008000" fill-rule="evenodd" fill-opacity="1" stroke="#000000" stroke-opacity="1" stroke-width="3.2"/>
<circle clip-path="url(#clip172)" cx="299.008" cy="823.616" r="7.2" fill="#008000" fill-rule="evenodd" fill-opacity="1" stroke="#000000" stroke-opacity="1" stroke-width="3.2"/>
<circle clip-path="url(#clip172)" cx="313.353" cy="823.625" r="7.2" fill="#008000" fill-rule="evenodd" fill-opacity="1" stroke="#000000" stroke-opacity="1" stroke-width="3.2"/>
<circle clip-path="url(#clip172)" cx="327.698" cy="822.922" r="7.2" fill="#008000" fill-rule="evenodd" fill-opacity="1" stroke="#000000" stroke-opacity="1" stroke-width="3.2"/>
<circle clip-path="url(#clip172)" cx="342.043" cy="821.803" r="7.2" fill="#008000" fill-rule="evenodd" fill-opacity="1" stroke="#000000" stroke-opacity="1" stroke-width="3.2"/>
<circle clip-path="url(#clip172)" cx="356.388" cy="820.69" r="7.2" fill="#008000" fill-rule="evenodd" fill-opacity="1" stroke="#000000" stroke-opacity="1" stroke-width="3.2"/>
<circle clip-path="url(#clip172)" cx="370.732" cy="819.571" r="7.2" fill="#008000" fill-rule="evenodd" fill-opacity="1" stroke="#000000" stroke-opacity="1" stroke-width="3.2"/>
<circle clip-path="url(#clip172)" cx="385.077" cy="818.821" r="7.2" fill="#008000" fill-rule="evenodd" fill-opacity="1" stroke="#000000" stroke-opacity="1" stroke-width="3.2"/>
<circle clip-path="url(#clip172)" cx="399.422" cy="818.441" r="7.2" fill="#008000" fill-rule="evenodd" fill-opacity="1" stroke="#000000" stroke-opacity="1" stroke-width="3.2"/>
<circle clip-path="url(#clip172)" cx="413.767" cy="818.567" r="7.2" fill="#008000" fill-rule="evenodd" fill-opacity="1" stroke="#000000" stroke-opacity="1" stroke-width="3.2"/>
<circle clip-path="url(#clip172)" cx="428.112" cy="819.024" r="7.2" fill="#008000" fill-rule="evenodd" fill-opacity="1" stroke="#000000" stroke-opacity="1" stroke-width="3.2"/>
<circle clip-path="url(#clip172)" cx="442.456" cy="819.484" r="7.2" fill="#008000" fill-rule="evenodd" fill-opacity="1" stroke="#000000" stroke-opacity="1" stroke-width="3.2"/>
<circle clip-path="url(#clip172)" cx="456.801" cy="819.848" r="7.2" fill="#008000" fill-rule="evenodd" fill-opacity="1" stroke="#000000" stroke-opacity="1" stroke-width="3.2"/>
<circle clip-path="url(#clip172)" cx="471.146" cy="819.924" r="7.2" fill="#008000" fill-rule="evenodd" fill-opacity="1" stroke="#000000" stroke-opacity="1" stroke-width="3.2"/>
<circle clip-path="url(#clip172)" cx="485.491" cy="819.745" r="7.2" fill="#008000" fill-rule="evenodd" fill-opacity="1" stroke="#000000" stroke-opacity="1" stroke-width="3.2"/>
<circle clip-path="url(#clip172)" cx="499.836" cy="819.355" r="7.2" fill="#008000" fill-rule="evenodd" fill-opacity="1" stroke="#000000" stroke-opacity="1" stroke-width="3.2"/>
<circle clip-path="url(#clip172)" cx="514.181" cy="819.059" r="7.2" fill="#008000" fill-rule="evenodd" fill-opacity="1" stroke="#000000" stroke-opacity="1" stroke-width="3.2"/>
<circle clip-path="url(#clip172)" cx="528.525" cy="818.878" r="7.2" fill="#008000" fill-rule="evenodd" fill-opacity="1" stroke="#000000" stroke-opacity="1" stroke-width="3.2"/>
<circle clip-path="url(#clip172)" cx="542.87" cy="818.876" r="7.2" fill="#008000" fill-rule="evenodd" fill-opacity="1" stroke="#000000" stroke-opacity="1" stroke-width="3.2"/>
<circle clip-path="url(#clip172)" cx="557.215" cy="818.839" r="7.2" fill="#008000" fill-rule="evenodd" fill-opacity="1" stroke="#000000" stroke-opacity="1" stroke-width="3.2"/>
<circle clip-path="url(#clip172)" cx="571.56" cy="818.797" r="7.2" fill="#008000" fill-rule="evenodd" fill-opacity="1" stroke="#000000" stroke-opacity="1" stroke-width="3.2"/>
<circle clip-path="url(#clip172)" cx="585.905" cy="818.812" r="7.2" fill="#008000" fill-rule="evenodd" fill-opacity="1" stroke="#000000" stroke-opacity="1" stroke-width="3.2"/>
<circle clip-path="url(#clip172)" cx="600.249" cy="818.885" r="7.2" fill="#008000" fill-rule="evenodd" fill-opacity="1" stroke="#000000" stroke-opacity="1" stroke-width="3.2"/>
<circle clip-path="url(#clip172)" cx="614.594" cy="818.988" r="7.2" fill="#008000" fill-rule="evenodd" fill-opacity="1" stroke="#000000" stroke-opacity="1" stroke-width="3.2"/>
<circle clip-path="url(#clip172)" cx="628.939" cy="819.063" r="7.2" fill="#008000" fill-rule="evenodd" fill-opacity="1" stroke="#000000" stroke-opacity="1" stroke-width="3.2"/>
<circle clip-path="url(#clip172)" cx="643.284" cy="818.997" r="7.2" fill="#008000" fill-rule="evenodd" fill-opacity="1" stroke="#000000" stroke-opacity="1" stroke-width="3.2"/>
<circle clip-path="url(#clip172)" cx="657.629" cy="818.941" r="7.2" fill="#008000" fill-rule="evenodd" fill-opacity="1" stroke="#000000" stroke-opacity="1" stroke-width="3.2"/>
<circle clip-path="url(#clip172)" cx="671.974" cy="818.811" r="7.2" fill="#008000" fill-rule="evenodd" fill-opacity="1" stroke="#000000" stroke-opacity="1" stroke-width="3.2"/>
<circle clip-path="url(#clip172)" cx="686.318" cy="818.867" r="7.2" fill="#008000" fill-rule="evenodd" fill-opacity="1" stroke="#000000" stroke-opacity="1" stroke-width="3.2"/>
<circle clip-path="url(#clip172)" cx="700.663" cy="818.808" r="7.2" fill="#008000" fill-rule="evenodd" fill-opacity="1" stroke="#000000" stroke-opacity="1" stroke-width="3.2"/>
<circle clip-path="url(#clip172)" cx="715.008" cy="818.54" r="7.2" fill="#008000" fill-rule="evenodd" fill-opacity="1" stroke="#000000" stroke-opacity="1" stroke-width="3.2"/>
<circle clip-path="url(#clip172)" cx="729.353" cy="817.999" r="7.2" fill="#008000" fill-rule="evenodd" fill-opacity="1" stroke="#000000" stroke-opacity="1" stroke-width="3.2"/>
<circle clip-path="url(#clip172)" cx="743.698" cy="817.337" r="7.2" fill="#008000" fill-rule="evenodd" fill-opacity="1" stroke="#000000" stroke-opacity="1" stroke-width="3.2"/>
<circle clip-path="url(#clip172)" cx="758.042" cy="816.986" r="7.2" fill="#008000" fill-rule="evenodd" fill-opacity="1" stroke="#000000" stroke-opacity="1" stroke-width="3.2"/>
<circle clip-path="url(#clip172)" cx="772.387" cy="817.259" r="7.2" fill="#008000" fill-rule="evenodd" fill-opacity="1" stroke="#000000" stroke-opacity="1" stroke-width="3.2"/>
<circle clip-path="url(#clip172)" cx="786.732" cy="818.254" r="7.2" fill="#008000" fill-rule="evenodd" fill-opacity="1" stroke="#000000" stroke-opacity="1" stroke-width="3.2"/>
<circle clip-path="url(#clip172)" cx="801.077" cy="819.64" r="7.2" fill="#008000" fill-rule="evenodd" fill-opacity="1" stroke="#000000" stroke-opacity="1" stroke-width="3.2"/>
<circle clip-path="url(#clip172)" cx="815.422" cy="820.825" r="7.2" fill="#008000" fill-rule="evenodd" fill-opacity="1" stroke="#000000" stroke-opacity="1" stroke-width="3.2"/>
<circle clip-path="url(#clip172)" cx="829.767" cy="820.722" r="7.2" fill="#008000" fill-rule="evenodd" fill-opacity="1" stroke="#000000" stroke-opacity="1" stroke-width="3.2"/>
<circle clip-path="url(#clip172)" cx="844.111" cy="820.005" r="7.2" fill="#008000" fill-rule="evenodd" fill-opacity="1" stroke="#000000" stroke-opacity="1" stroke-width="3.2"/>
<circle clip-path="url(#clip172)" cx="858.456" cy="819.7" r="7.2" fill="#008000" fill-rule="evenodd" fill-opacity="1" stroke="#000000" stroke-opacity="1" stroke-width="3.2"/>
<circle clip-path="url(#clip172)" cx="872.801" cy="819.285" r="7.2" fill="#008000" fill-rule="evenodd" fill-opacity="1" stroke="#000000" stroke-opacity="1" stroke-width="3.2"/>
<circle clip-path="url(#clip172)" cx="887.146" cy="818.973" r="7.2" fill="#008000" fill-rule="evenodd" fill-opacity="1" stroke="#000000" stroke-opacity="1" stroke-width="3.2"/>
<circle clip-path="url(#clip172)" cx="901.491" cy="819.184" r="7.2" fill="#008000" fill-rule="evenodd" fill-opacity="1" stroke="#000000" stroke-opacity="1" stroke-width="3.2"/>
<circle clip-path="url(#clip172)" cx="915.835" cy="818.842" r="7.2" fill="#008000" fill-rule="evenodd" fill-opacity="1" stroke="#000000" stroke-opacity="1" stroke-width="3.2"/>
<circle clip-path="url(#clip172)" cx="930.18" cy="816.915" r="7.2" fill="#008000" fill-rule="evenodd" fill-opacity="1" stroke="#000000" stroke-opacity="1" stroke-width="3.2"/>
<circle clip-path="url(#clip172)" cx="944.525" cy="816.151" r="7.2" fill="#008000" fill-rule="evenodd" fill-opacity="1" stroke="#000000" stroke-opacity="1" stroke-width="3.2"/>
<circle clip-path="url(#clip172)" cx="958.87" cy="818.015" r="7.2" fill="#008000" fill-rule="evenodd" fill-opacity="1" stroke="#000000" stroke-opacity="1" stroke-width="3.2"/>
<circle clip-path="url(#clip172)" cx="973.215" cy="822.71" r="7.2" fill="#008000" fill-rule="evenodd" fill-opacity="1" stroke="#000000" stroke-opacity="1" stroke-width="3.2"/>
<circle clip-path="url(#clip172)" cx="987.56" cy="834.23" r="7.2" fill="#008000" fill-rule="evenodd" fill-opacity="1" stroke="#000000" stroke-opacity="1" stroke-width="3.2"/>
<circle clip-path="url(#clip172)" cx="1001.9" cy="851.517" r="7.2" fill="#008000" fill-rule="evenodd" fill-opacity="1" stroke="#000000" stroke-opacity="1" stroke-width="3.2"/>
<circle clip-path="url(#clip172)" cx="1016.25" cy="871.475" r="7.2" fill="#008000" fill-rule="evenodd" fill-opacity="1" stroke="#000000" stroke-opacity="1" stroke-width="3.2"/>
<circle clip-path="url(#clip172)" cx="1030.59" cy="891.889" r="7.2" fill="#008000" fill-rule="evenodd" fill-opacity="1" stroke="#000000" stroke-opacity="1" stroke-width="3.2"/>
<circle clip-path="url(#clip172)" cx="1044.94" cy="912.693" r="7.2" fill="#008000" fill-rule="evenodd" fill-opacity="1" stroke="#000000" stroke-opacity="1" stroke-width="3.2"/>
<circle clip-path="url(#clip172)" cx="1059.28" cy="934.001" r="7.2" fill="#008000" fill-rule="evenodd" fill-opacity="1" stroke="#000000" stroke-opacity="1" stroke-width="3.2"/>
<circle clip-path="url(#clip172)" cx="1073.63" cy="956.673" r="7.2" fill="#008000" fill-rule="evenodd" fill-opacity="1" stroke="#000000" stroke-opacity="1" stroke-width="3.2"/>
<circle clip-path="url(#clip172)" cx="1087.97" cy="985.127" r="7.2" fill="#008000" fill-rule="evenodd" fill-opacity="1" stroke="#000000" stroke-opacity="1" stroke-width="3.2"/>
<circle clip-path="url(#clip172)" cx="1102.32" cy="1019.25" r="7.2" fill="#008000" fill-rule="evenodd" fill-opacity="1" stroke="#000000" stroke-opacity="1" stroke-width="3.2"/>
<circle clip-path="url(#clip172)" cx="1116.66" cy="1056.41" r="7.2" fill="#008000" fill-rule="evenodd" fill-opacity="1" stroke="#000000" stroke-opacity="1" stroke-width="3.2"/>
<circle clip-path="url(#clip172)" cx="1131.01" cy="1097.9" r="7.2" fill="#008000" fill-rule="evenodd" fill-opacity="1" stroke="#000000" stroke-opacity="1" stroke-width="3.2"/>
<circle clip-path="url(#clip172)" cx="1145.35" cy="1136.64" r="7.2" fill="#008000" fill-rule="evenodd" fill-opacity="1" stroke="#000000" stroke-opacity="1" stroke-width="3.2"/>
<circle clip-path="url(#clip172)" cx="1159.7" cy="1171.37" r="7.2" fill="#008000" fill-rule="evenodd" fill-opacity="1" stroke="#000000" stroke-opacity="1" stroke-width="3.2"/>
<circle clip-path="url(#clip172)" cx="1174.04" cy="1201.26" r="7.2" fill="#008000" fill-rule="evenodd" fill-opacity="1" stroke="#000000" stroke-opacity="1" stroke-width="3.2"/>
<circle clip-path="url(#clip172)" cx="1188.39" cy="1227.62" r="7.2" fill="#008000" fill-rule="evenodd" fill-opacity="1" stroke="#000000" stroke-opacity="1" stroke-width="3.2"/>
<circle clip-path="url(#clip172)" cx="1202.73" cy="1253.92" r="7.2" fill="#008000" fill-rule="evenodd" fill-opacity="1" stroke="#000000" stroke-opacity="1" stroke-width="3.2"/>
<circle clip-path="url(#clip172)" cx="1217.08" cy="1285.07" r="7.2" fill="#008000" fill-rule="evenodd" fill-opacity="1" stroke="#000000" stroke-opacity="1" stroke-width="3.2"/>
<circle clip-path="url(#clip172)" cx="1231.42" cy="1322.43" r="7.2" fill="#008000" fill-rule="evenodd" fill-opacity="1" stroke="#000000" stroke-opacity="1" stroke-width="3.2"/>
<circle clip-path="url(#clip172)" cx="1245.77" cy="1362.66" r="7.2" fill="#008000" fill-rule="evenodd" fill-opacity="1" stroke="#000000" stroke-opacity="1" stroke-width="3.2"/>
<circle clip-path="url(#clip172)" cx="1260.11" cy="1400.24" r="7.2" fill="#008000" fill-rule="evenodd" fill-opacity="1" stroke="#000000" stroke-opacity="1" stroke-width="3.2"/>
<circle clip-path="url(#clip172)" cx="1274.46" cy="1430.71" r="7.2" fill="#008000" fill-rule="evenodd" fill-opacity="1" stroke="#000000" stroke-opacity="1" stroke-width="3.2"/>
<circle clip-path="url(#clip172)" cx="1288.8" cy="1445.72" r="7.2" fill="#008000" fill-rule="evenodd" fill-opacity="1" stroke="#000000" stroke-opacity="1" stroke-width="3.2"/>
<circle clip-path="url(#clip172)" cx="1303.15" cy="1442.96" r="7.2" fill="#008000" fill-rule="evenodd" fill-opacity="1" stroke="#000000" stroke-opacity="1" stroke-width="3.2"/>
<circle clip-path="url(#clip172)" cx="1317.49" cy="1426.64" r="7.2" fill="#008000" fill-rule="evenodd" fill-opacity="1" stroke="#000000" stroke-opacity="1" stroke-width="3.2"/>
<circle clip-path="url(#clip172)" cx="1331.84" cy="1400.17" r="7.2" fill="#008000" fill-rule="evenodd" fill-opacity="1" stroke="#000000" stroke-opacity="1" stroke-width="3.2"/>
<circle clip-path="url(#clip172)" cx="1346.18" cy="1369.17" r="7.2" fill="#008000" fill-rule="evenodd" fill-opacity="1" stroke="#000000" stroke-opacity="1" stroke-width="3.2"/>
<circle clip-path="url(#clip172)" cx="1360.52" cy="1340.15" r="7.2" fill="#008000" fill-rule="evenodd" fill-opacity="1" stroke="#000000" stroke-opacity="1" stroke-width="3.2"/>
<circle clip-path="url(#clip172)" cx="1374.87" cy="1315.53" r="7.2" fill="#008000" fill-rule="evenodd" fill-opacity="1" stroke="#000000" stroke-opacity="1" stroke-width="3.2"/>
<circle clip-path="url(#clip172)" cx="1389.21" cy="1293.77" r="7.2" fill="#008000" fill-rule="evenodd" fill-opacity="1" stroke="#000000" stroke-opacity="1" stroke-width="3.2"/>
<circle clip-path="url(#clip172)" cx="1403.56" cy="1272.73" r="7.2" fill="#008000" fill-rule="evenodd" fill-opacity="1" stroke="#000000" stroke-opacity="1" stroke-width="3.2"/>
<circle clip-path="url(#clip172)" cx="1417.9" cy="1250.47" r="7.2" fill="#008000" fill-rule="evenodd" fill-opacity="1" stroke="#000000" stroke-opacity="1" stroke-width="3.2"/>
<circle clip-path="url(#clip172)" cx="1432.25" cy="1223.81" r="7.2" fill="#008000" fill-rule="evenodd" fill-opacity="1" stroke="#000000" stroke-opacity="1" stroke-width="3.2"/>
<circle clip-path="url(#clip172)" cx="1446.59" cy="1191.1" r="7.2" fill="#008000" fill-rule="evenodd" fill-opacity="1" stroke="#000000" stroke-opacity="1" stroke-width="3.2"/>
<circle clip-path="url(#clip172)" cx="1460.94" cy="1157.75" r="7.2" fill="#008000" fill-rule="evenodd" fill-opacity="1" stroke="#000000" stroke-opacity="1" stroke-width="3.2"/>
<circle clip-path="url(#clip172)" cx="1475.28" cy="1122.26" r="7.2" fill="#008000" fill-rule="evenodd" fill-opacity="1" stroke="#000000" stroke-opacity="1" stroke-width="3.2"/>
<circle clip-path="url(#clip172)" cx="1489.63" cy="1088.56" r="7.2" fill="#008000" fill-rule="evenodd" fill-opacity="1" stroke="#000000" stroke-opacity="1" stroke-width="3.2"/>
<circle clip-path="url(#clip172)" cx="1503.97" cy="1060.38" r="7.2" fill="#008000" fill-rule="evenodd" fill-opacity="1" stroke="#000000" stroke-opacity="1" stroke-width="3.2"/>
<circle clip-path="url(#clip172)" cx="1518.32" cy="1034.26" r="7.2" fill="#008000" fill-rule="evenodd" fill-opacity="1" stroke="#000000" stroke-opacity="1" stroke-width="3.2"/>
<circle clip-path="url(#clip172)" cx="1532.66" cy="1008.84" r="7.2" fill="#008000" fill-rule="evenodd" fill-opacity="1" stroke="#000000" stroke-opacity="1" stroke-width="3.2"/>
<circle clip-path="url(#clip172)" cx="1547.01" cy="983.26" r="7.2" fill="#008000" fill-rule="evenodd" fill-opacity="1" stroke="#000000" stroke-opacity="1" stroke-width="3.2"/>
<circle clip-path="url(#clip172)" cx="1561.35" cy="953.527" r="7.2" fill="#008000" fill-rule="evenodd" fill-opacity="1" stroke="#000000" stroke-opacity="1" stroke-width="3.2"/>
<circle clip-path="url(#clip172)" cx="1575.7" cy="920.536" r="7.2" fill="#008000" fill-rule="evenodd" fill-opacity="1" stroke="#000000" stroke-opacity="1" stroke-width="3.2"/>
<circle clip-path="url(#clip172)" cx="1590.04" cy="887.991" r="7.2" fill="#008000" fill-rule="evenodd" fill-opacity="1" stroke="#000000" stroke-opacity="1" stroke-width="3.2"/>
<circle clip-path="url(#clip172)" cx="1604.39" cy="859.113" r="7.2" fill="#008000" fill-rule="evenodd" fill-opacity="1" stroke="#000000" stroke-opacity="1" stroke-width="3.2"/>
<circle clip-path="url(#clip172)" cx="1618.73" cy="831.066" r="7.2" fill="#008000" fill-rule="evenodd" fill-opacity="1" stroke="#000000" stroke-opacity="1" stroke-width="3.2"/>
<circle clip-path="url(#clip172)" cx="1633.08" cy="804.953" r="7.2" fill="#008000" fill-rule="evenodd" fill-opacity="1" stroke="#000000" stroke-opacity="1" stroke-width="3.2"/>
<circle clip-path="url(#clip172)" cx="1647.42" cy="780.646" r="7.2" fill="#008000" fill-rule="evenodd" fill-opacity="1" stroke="#000000" stroke-opacity="1" stroke-width="3.2"/>
<circle clip-path="url(#clip172)" cx="1661.77" cy="753.667" r="7.2" fill="#008000" fill-rule="evenodd" fill-opacity="1" stroke="#000000" stroke-opacity="1" stroke-width="3.2"/>
<circle clip-path="url(#clip172)" cx="1676.11" cy="725.476" r="7.2" fill="#008000" fill-rule="evenodd" fill-opacity="1" stroke="#000000" stroke-opacity="1" stroke-width="3.2"/>
<circle clip-path="url(#clip172)" cx="1690.46" cy="698.487" r="7.2" fill="#008000" fill-rule="evenodd" fill-opacity="1" stroke="#000000" stroke-opacity="1" stroke-width="3.2"/>
<circle clip-path="url(#clip172)" cx="1704.8" cy="671.317" r="7.2" fill="#008000" fill-rule="evenodd" fill-opacity="1" stroke="#000000" stroke-opacity="1" stroke-width="3.2"/>
<circle clip-path="url(#clip172)" cx="1719.15" cy="647.085" r="7.2" fill="#008000" fill-rule="evenodd" fill-opacity="1" stroke="#000000" stroke-opacity="1" stroke-width="3.2"/>
<circle clip-path="url(#clip172)" cx="1733.49" cy="627.353" r="7.2" fill="#008000" fill-rule="evenodd" fill-opacity="1" stroke="#000000" stroke-opacity="1" stroke-width="3.2"/>
<circle clip-path="url(#clip172)" cx="1747.83" cy="611.116" r="7.2" fill="#008000" fill-rule="evenodd" fill-opacity="1" stroke="#000000" stroke-opacity="1" stroke-width="3.2"/>
<circle clip-path="url(#clip172)" cx="1762.18" cy="594.813" r="7.2" fill="#008000" fill-rule="evenodd" fill-opacity="1" stroke="#000000" stroke-opacity="1" stroke-width="3.2"/>
<circle clip-path="url(#clip172)" cx="1776.52" cy="577.742" r="7.2" fill="#008000" fill-rule="evenodd" fill-opacity="1" stroke="#000000" stroke-opacity="1" stroke-width="3.2"/>
<circle clip-path="url(#clip172)" cx="1790.87" cy="559.441" r="7.2" fill="#008000" fill-rule="evenodd" fill-opacity="1" stroke="#000000" stroke-opacity="1" stroke-width="3.2"/>
<circle clip-path="url(#clip172)" cx="1805.21" cy="537.099" r="7.2" fill="#008000" fill-rule="evenodd" fill-opacity="1" stroke="#000000" stroke-opacity="1" stroke-width="3.2"/>
<circle clip-path="url(#clip172)" cx="1819.56" cy="514.008" r="7.2" fill="#008000" fill-rule="evenodd" fill-opacity="1" stroke="#000000" stroke-opacity="1" stroke-width="3.2"/>
<circle clip-path="url(#clip172)" cx="1833.9" cy="494.672" r="7.2" fill="#008000" fill-rule="evenodd" fill-opacity="1" stroke="#000000" stroke-opacity="1" stroke-width="3.2"/>
<circle clip-path="url(#clip172)" cx="1848.25" cy="478.127" r="7.2" fill="#008000" fill-rule="evenodd" fill-opacity="1" stroke="#000000" stroke-opacity="1" stroke-width="3.2"/>
<circle clip-path="url(#clip172)" cx="1862.59" cy="468.433" r="7.2" fill="#008000" fill-rule="evenodd" fill-opacity="1" stroke="#000000" stroke-opacity="1" stroke-width="3.2"/>
<circle clip-path="url(#clip172)" cx="1876.94" cy="466.999" r="7.2" fill="#008000" fill-rule="evenodd" fill-opacity="1" stroke="#000000" stroke-opacity="1" stroke-width="3.2"/>
<circle clip-path="url(#clip172)" cx="1891.28" cy="469.801" r="7.2" fill="#008000" fill-rule="evenodd" fill-opacity="1" stroke="#000000" stroke-opacity="1" stroke-width="3.2"/>
<circle clip-path="url(#clip172)" cx="1905.63" cy="472.21" r="7.2" fill="#008000" fill-rule="evenodd" fill-opacity="1" stroke="#000000" stroke-opacity="1" stroke-width="3.2"/>
<circle clip-path="url(#clip172)" cx="1919.97" cy="469.854" r="7.2" fill="#008000" fill-rule="evenodd" fill-opacity="1" stroke="#000000" stroke-opacity="1" stroke-width="3.2"/>
<circle clip-path="url(#clip172)" cx="1934.32" cy="459.379" r="7.2" fill="#008000" fill-rule="evenodd" fill-opacity="1" stroke="#000000" stroke-opacity="1" stroke-width="3.2"/>
<circle clip-path="url(#clip172)" cx="1948.66" cy="438.628" r="7.2" fill="#008000" fill-rule="evenodd" fill-opacity="1" stroke="#000000" stroke-opacity="1" stroke-width="3.2"/>
<circle clip-path="url(#clip172)" cx="1963.01" cy="412.383" r="7.2" fill="#008000" fill-rule="evenodd" fill-opacity="1" stroke="#000000" stroke-opacity="1" stroke-width="3.2"/>
<circle clip-path="url(#clip172)" cx="1977.35" cy="387.142" r="7.2" fill="#008000" fill-rule="evenodd" fill-opacity="1" stroke="#000000" stroke-opacity="1" stroke-width="3.2"/>
<circle clip-path="url(#clip172)" cx="1991.7" cy="364.26" r="7.2" fill="#008000" fill-rule="evenodd" fill-opacity="1" stroke="#000000" stroke-opacity="1" stroke-width="3.2"/>
<circle clip-path="url(#clip172)" cx="2006.04" cy="349.761" r="7.2" fill="#008000" fill-rule="evenodd" fill-opacity="1" stroke="#000000" stroke-opacity="1" stroke-width="3.2"/>
<circle clip-path="url(#clip172)" cx="2020.39" cy="344.16" r="7.2" fill="#008000" fill-rule="evenodd" fill-opacity="1" stroke="#000000" stroke-opacity="1" stroke-width="3.2"/>
<circle clip-path="url(#clip172)" cx="2034.73" cy="342.788" r="7.2" fill="#008000" fill-rule="evenodd" fill-opacity="1" stroke="#000000" stroke-opacity="1" stroke-width="3.2"/>
<circle clip-path="url(#clip172)" cx="2049.08" cy="343.265" r="7.2" fill="#008000" fill-rule="evenodd" fill-opacity="1" stroke="#000000" stroke-opacity="1" stroke-width="3.2"/>
<circle clip-path="url(#clip172)" cx="2063.42" cy="340.612" r="7.2" fill="#008000" fill-rule="evenodd" fill-opacity="1" stroke="#000000" stroke-opacity="1" stroke-width="3.2"/>
<circle clip-path="url(#clip172)" cx="2077.77" cy="331.218" r="7.2" fill="#008000" fill-rule="evenodd" fill-opacity="1" stroke="#000000" stroke-opacity="1" stroke-width="3.2"/>
<circle clip-path="url(#clip172)" cx="2092.11" cy="315.154" r="7.2" fill="#008000" fill-rule="evenodd" fill-opacity="1" stroke="#000000" stroke-opacity="1" stroke-width="3.2"/>
<circle clip-path="url(#clip172)" cx="2106.46" cy="296.366" r="7.2" fill="#008000" fill-rule="evenodd" fill-opacity="1" stroke="#000000" stroke-opacity="1" stroke-width="3.2"/>
<circle clip-path="url(#clip172)" cx="2120.8" cy="279.992" r="7.2" fill="#008000" fill-rule="evenodd" fill-opacity="1" stroke="#000000" stroke-opacity="1" stroke-width="3.2"/>
<circle clip-path="url(#clip172)" cx="2135.15" cy="267.861" r="7.2" fill="#008000" fill-rule="evenodd" fill-opacity="1" stroke="#000000" stroke-opacity="1" stroke-width="3.2"/>
<circle clip-path="url(#clip172)" cx="2149.49" cy="265.531" r="7.2" fill="#008000" fill-rule="evenodd" fill-opacity="1" stroke="#000000" stroke-opacity="1" stroke-width="3.2"/>
<circle clip-path="url(#clip172)" cx="2163.83" cy="273.047" r="7.2" fill="#008000" fill-rule="evenodd" fill-opacity="1" stroke="#000000" stroke-opacity="1" stroke-width="3.2"/>
<circle clip-path="url(#clip172)" cx="2178.18" cy="285.088" r="7.2" fill="#008000" fill-rule="evenodd" fill-opacity="1" stroke="#000000" stroke-opacity="1" stroke-width="3.2"/>
<circle clip-path="url(#clip172)" cx="2192.52" cy="299.739" r="7.2" fill="#008000" fill-rule="evenodd" fill-opacity="1" stroke="#000000" stroke-opacity="1" stroke-width="3.2"/>
<circle clip-path="url(#clip172)" cx="2206.87" cy="312.242" r="7.2" fill="#008000" fill-rule="evenodd" fill-opacity="1" stroke="#000000" stroke-opacity="1" stroke-width="3.2"/>
<circle clip-path="url(#clip172)" cx="2221.21" cy="318.707" r="7.2" fill="#008000" fill-rule="evenodd" fill-opacity="1" stroke="#000000" stroke-opacity="1" stroke-width="3.2"/>
<circle clip-path="url(#clip172)" cx="2235.56" cy="320.15" r="7.2" fill="#008000" fill-rule="evenodd" fill-opacity="1" stroke="#000000" stroke-opacity="1" stroke-width="3.2"/>
<circle clip-path="url(#clip172)" cx="2249.9" cy="320.476" r="7.2" fill="#008000" fill-rule="evenodd" fill-opacity="1" stroke="#000000" stroke-opacity="1" stroke-width="3.2"/>
<circle clip-path="url(#clip172)" cx="2264.25" cy="323.92" r="7.2" fill="#008000" fill-rule="evenodd" fill-opacity="1" stroke="#000000" stroke-opacity="1" stroke-width="3.2"/>
<circle clip-path="url(#clip172)" cx="2278.59" cy="332.252" r="7.2" fill="#008000" fill-rule="evenodd" fill-opacity="1" stroke="#000000" stroke-opacity="1" stroke-width="3.2"/>
<circle clip-path="url(#clip172)" cx="2292.94" cy="348.906" r="7.2" fill="#008000" fill-rule="evenodd" fill-opacity="1" stroke="#000000" stroke-opacity="1" stroke-width="3.2"/>
</svg>
