<?xml version="1.0" encoding="utf-8"?>
<svg xmlns="http://www.w3.org/2000/svg" xmlns:xlink="http://www.w3.org/1999/xlink" width="600" height="400" viewBox="0 0 2400 1600">
<defs>
  <clipPath id="clip720">
    <rect x="0" y="0" width="2400" height="1600"/>
  </clipPath>
</defs>
<path clip-path="url(#clip720)" d="M0 1600 L2400 1600 L2400 8.88178e-14 L0 8.88178e-14  Z" fill="#ffffff" fill-rule="evenodd" fill-opacity="1"/>
<defs>
  <clipPath id="clip721">
    <rect x="480" y="0" width="1681" height="1600"/>
  </clipPath>
</defs>
<path clip-path="url(#clip720)" d="M209.029 1486.45 L2352.76 1486.45 L2352.76 47.2441 L209.029 47.2441  Z" fill="#ffffff" fill-rule="evenodd" fill-opacity="1"/>
<defs>
  <clipPath id="clip722">
    <rect x="209" y="47" width="2145" height="1440"/>
  </clipPath>
</defs>
<polyline clip-path="url(#clip720)" style="stroke:#000000; stroke-linecap:round; stroke-linejoin:round; stroke-width:4; stroke-opacity:1; fill:none" points="209.029,1486.45 2352.76,1486.45 "/>
<polyline clip-path="url(#clip720)" style="stroke:#000000; stroke-linecap:round; stroke-linejoin:round; stroke-width:4; stroke-opacity:1; fill:none" points="255.151,1486.45 255.151,1467.55 "/>
<polyline clip-path="url(#clip720)" style="stroke:#000000; stroke-linecap:round; stroke-linejoin:round; stroke-width:4; stroke-opacity:1; fill:none" points="618.889,1486.45 618.889,1467.55 "/>
<polyline clip-path="url(#clip720)" style="stroke:#000000; stroke-linecap:round; stroke-linejoin:round; stroke-width:4; stroke-opacity:1; fill:none" points="982.627,1486.45 982.627,1467.55 "/>
<polyline clip-path="url(#clip720)" style="stroke:#000000; stroke-linecap:round; stroke-linejoin:round; stroke-width:4; stroke-opacity:1; fill:none" points="1346.37,1486.45 1346.37,1467.55 "/>
<polyline clip-path="url(#clip720)" style="stroke:#000000; stroke-linecap:round; stroke-linejoin:round; stroke-width:4; stroke-opacity:1; fill:none" points="1710.1,1486.45 1710.1,1467.55 "/>
<polyline clip-path="url(#clip720)" style="stroke:#000000; stroke-linecap:round; stroke-linejoin:round; stroke-width:4; stroke-opacity:1; fill:none" points="2073.84,1486.45 2073.84,1467.55 "/>
<path clip-path="url(#clip720)" d="M255.151 1517.37 Q251.539 1517.37 249.711 1520.93 Q247.905 1524.47 247.905 1531.6 Q247.905 1538.71 249.711 1542.27 Q251.539 1545.82 255.151 1545.82 Q258.785 1545.82 260.59 1542.27 Q262.419 1538.71 262.419 1531.6 Q262.419 1524.47 260.59 1520.93 Q258.785 1517.37 255.151 1517.37 M255.151 1513.66 Q260.961 1513.66 264.016 1518.27 Q267.095 1522.85 267.095 1531.6 Q267.095 1540.33 264.016 1544.94 Q260.961 1549.52 255.151 1549.52 Q249.34 1549.52 246.262 1544.94 Q243.206 1540.33 243.206 1531.6 Q243.206 1522.85 246.262 1518.27 Q249.34 1513.66 255.151 1513.66 Z" fill="#000000" fill-rule="nonzero" fill-opacity="1" /><path clip-path="url(#clip720)" d="M598.16 1544.91 L614.479 1544.91 L614.479 1548.85 L592.535 1548.85 L592.535 1544.91 Q595.197 1542.16 599.78 1537.53 Q604.386 1532.88 605.567 1531.53 Q607.812 1529.01 608.692 1527.27 Q609.595 1525.51 609.595 1523.82 Q609.595 1521.07 607.65 1519.33 Q605.729 1517.6 602.627 1517.6 Q600.428 1517.6 597.974 1518.36 Q595.544 1519.13 592.766 1520.68 L592.766 1515.95 Q595.59 1514.82 598.044 1514.24 Q600.498 1513.66 602.535 1513.66 Q607.905 1513.66 611.099 1516.35 Q614.294 1519.03 614.294 1523.52 Q614.294 1525.65 613.484 1527.57 Q612.697 1529.47 610.59 1532.07 Q610.011 1532.74 606.91 1535.95 Q603.808 1539.15 598.16 1544.91 Z" fill="#000000" fill-rule="nonzero" fill-opacity="1" /><path clip-path="url(#clip720)" d="M624.34 1514.29 L642.696 1514.29 L642.696 1518.22 L628.622 1518.22 L628.622 1526.7 Q629.641 1526.35 630.659 1526.19 Q631.678 1526 632.696 1526 Q638.484 1526 641.863 1529.17 Q645.243 1532.34 645.243 1537.76 Q645.243 1543.34 641.771 1546.44 Q638.298 1549.52 631.979 1549.52 Q629.803 1549.52 627.534 1549.15 Q625.289 1548.78 622.882 1548.04 L622.882 1543.34 Q624.965 1544.47 627.187 1545.03 Q629.409 1545.58 631.886 1545.58 Q635.891 1545.58 638.229 1543.48 Q640.567 1541.37 640.567 1537.76 Q640.567 1534.15 638.229 1532.04 Q635.891 1529.94 631.886 1529.94 Q630.011 1529.94 628.136 1530.35 Q626.284 1530.77 624.34 1531.65 L624.34 1514.29 Z" fill="#000000" fill-rule="nonzero" fill-opacity="1" /><path clip-path="url(#clip720)" d="M957.326 1514.29 L975.682 1514.29 L975.682 1518.22 L961.608 1518.22 L961.608 1526.7 Q962.627 1526.35 963.646 1526.19 Q964.664 1526 965.683 1526 Q971.47 1526 974.849 1529.17 Q978.229 1532.34 978.229 1537.76 Q978.229 1543.34 974.757 1546.44 Q971.284 1549.52 964.965 1549.52 Q962.789 1549.52 960.521 1549.15 Q958.275 1548.78 955.868 1548.04 L955.868 1543.34 Q957.951 1544.47 960.173 1545.03 Q962.396 1545.58 964.872 1545.58 Q968.877 1545.58 971.215 1543.48 Q973.553 1541.37 973.553 1537.76 Q973.553 1534.15 971.215 1532.04 Q968.877 1529.94 964.872 1529.94 Q962.997 1529.94 961.122 1530.35 Q959.271 1530.77 957.326 1531.65 L957.326 1514.29 Z" fill="#000000" fill-rule="nonzero" fill-opacity="1" /><path clip-path="url(#clip720)" d="M997.442 1517.37 Q993.831 1517.37 992.002 1520.93 Q990.196 1524.47 990.196 1531.6 Q990.196 1538.71 992.002 1542.27 Q993.831 1545.82 997.442 1545.82 Q1001.08 1545.82 1002.88 1542.27 Q1004.71 1538.71 1004.71 1531.6 Q1004.71 1524.47 1002.88 1520.93 Q1001.08 1517.37 997.442 1517.37 M997.442 1513.66 Q1003.25 1513.66 1006.31 1518.27 Q1009.39 1522.85 1009.39 1531.6 Q1009.39 1540.33 1006.31 1544.94 Q1003.25 1549.52 997.442 1549.52 Q991.631 1549.52 988.553 1544.94 Q985.497 1540.33 985.497 1531.6 Q985.497 1522.85 988.553 1518.27 Q991.631 1513.66 997.442 1513.66 Z" fill="#000000" fill-rule="nonzero" fill-opacity="1" /><path clip-path="url(#clip720)" d="M1320.22 1514.29 L1342.44 1514.29 L1342.44 1516.28 L1329.9 1548.85 L1325.01 1548.85 L1336.82 1518.22 L1320.22 1518.22 L1320.22 1514.29 Z" fill="#000000" fill-rule="nonzero" fill-opacity="1" /><path clip-path="url(#clip720)" d="M1351.61 1514.29 L1369.96 1514.29 L1369.96 1518.22 L1355.89 1518.22 L1355.89 1526.7 Q1356.91 1526.35 1357.93 1526.19 Q1358.95 1526 1359.96 1526 Q1365.75 1526 1369.13 1529.17 Q1372.51 1532.34 1372.51 1537.76 Q1372.51 1543.34 1369.04 1546.44 Q1365.57 1549.52 1359.25 1549.52 Q1357.07 1549.52 1354.8 1549.15 Q1352.56 1548.78 1350.15 1548.04 L1350.15 1543.34 Q1352.23 1544.47 1354.46 1545.03 Q1356.68 1545.58 1359.15 1545.58 Q1363.16 1545.58 1365.5 1543.48 Q1367.83 1541.37 1367.83 1537.76 Q1367.83 1534.15 1365.5 1532.04 Q1363.16 1529.94 1359.15 1529.94 Q1357.28 1529.94 1355.4 1530.35 Q1353.55 1530.77 1351.61 1531.65 L1351.61 1514.29 Z" fill="#000000" fill-rule="nonzero" fill-opacity="1" /><path clip-path="url(#clip720)" d="M1669.71 1544.91 L1677.35 1544.91 L1677.35 1518.55 L1669.04 1520.21 L1669.04 1515.95 L1677.3 1514.29 L1681.98 1514.29 L1681.98 1544.91 L1689.62 1544.91 L1689.62 1548.85 L1669.71 1548.85 L1669.71 1544.91 Z" fill="#000000" fill-rule="nonzero" fill-opacity="1" /><path clip-path="url(#clip720)" d="M1709.06 1517.37 Q1705.45 1517.37 1703.62 1520.93 Q1701.82 1524.47 1701.82 1531.6 Q1701.82 1538.71 1703.62 1542.27 Q1705.45 1545.82 1709.06 1545.82 Q1712.7 1545.82 1714.5 1542.27 Q1716.33 1538.71 1716.33 1531.6 Q1716.33 1524.47 1714.5 1520.93 Q1712.7 1517.37 1709.06 1517.37 M1709.06 1513.66 Q1714.87 1513.66 1717.93 1518.27 Q1721.01 1522.85 1721.01 1531.6 Q1721.01 1540.33 1717.93 1544.94 Q1714.87 1549.52 1709.06 1549.52 Q1703.25 1549.52 1700.17 1544.94 Q1697.12 1540.33 1697.12 1531.6 Q1697.12 1522.85 1700.17 1518.27 Q1703.25 1513.66 1709.06 1513.66 Z" fill="#000000" fill-rule="nonzero" fill-opacity="1" /><path clip-path="url(#clip720)" d="M1739.22 1517.37 Q1735.61 1517.37 1733.78 1520.93 Q1731.98 1524.47 1731.98 1531.6 Q1731.98 1538.71 1733.78 1542.27 Q1735.61 1545.82 1739.22 1545.82 Q1742.86 1545.82 1744.66 1542.27 Q1746.49 1538.71 1746.49 1531.6 Q1746.49 1524.47 1744.66 1520.93 Q1742.86 1517.37 1739.22 1517.37 M1739.22 1513.66 Q1745.03 1513.66 1748.09 1518.27 Q1751.17 1522.85 1751.17 1531.6 Q1751.17 1540.33 1748.09 1544.94 Q1745.03 1549.52 1739.22 1549.52 Q1733.41 1549.52 1730.33 1544.94 Q1727.28 1540.33 1727.28 1531.6 Q1727.28 1522.85 1730.33 1518.27 Q1733.41 1513.66 1739.22 1513.66 Z" fill="#000000" fill-rule="nonzero" fill-opacity="1" /><path clip-path="url(#clip720)" d="M2033.95 1544.91 L2041.58 1544.91 L2041.58 1518.55 L2033.27 1520.21 L2033.27 1515.95 L2041.54 1514.29 L2046.21 1514.29 L2046.21 1544.91 L2053.85 1544.91 L2053.85 1548.85 L2033.95 1548.85 L2033.95 1544.91 Z" fill="#000000" fill-rule="nonzero" fill-opacity="1" /><path clip-path="url(#clip720)" d="M2067.33 1544.91 L2083.64 1544.91 L2083.64 1548.85 L2061.7 1548.85 L2061.7 1544.91 Q2064.36 1542.16 2068.95 1537.53 Q2073.55 1532.88 2074.73 1531.53 Q2076.98 1529.01 2077.86 1527.27 Q2078.76 1525.51 2078.76 1523.82 Q2078.76 1521.07 2076.82 1519.33 Q2074.89 1517.6 2071.79 1517.6 Q2069.59 1517.6 2067.14 1518.36 Q2064.71 1519.13 2061.93 1520.68 L2061.93 1515.95 Q2064.76 1514.82 2067.21 1514.24 Q2069.66 1513.66 2071.7 1513.66 Q2077.07 1513.66 2080.27 1516.35 Q2083.46 1519.03 2083.46 1523.52 Q2083.46 1525.65 2082.65 1527.57 Q2081.86 1529.47 2079.76 1532.07 Q2079.18 1532.74 2076.08 1535.95 Q2072.97 1539.15 2067.33 1544.91 Z" fill="#000000" fill-rule="nonzero" fill-opacity="1" /><path clip-path="url(#clip720)" d="M2093.51 1514.29 L2111.86 1514.29 L2111.86 1518.22 L2097.79 1518.22 L2097.79 1526.7 Q2098.81 1526.35 2099.83 1526.19 Q2100.84 1526 2101.86 1526 Q2107.65 1526 2111.03 1529.17 Q2114.41 1532.34 2114.41 1537.76 Q2114.41 1543.34 2110.94 1546.44 Q2107.46 1549.52 2101.14 1549.52 Q2098.97 1549.52 2096.7 1549.15 Q2094.45 1548.78 2092.05 1548.04 L2092.05 1543.34 Q2094.13 1544.47 2096.35 1545.03 Q2098.58 1545.58 2101.05 1545.58 Q2105.06 1545.58 2107.39 1543.48 Q2109.73 1541.37 2109.73 1537.76 Q2109.73 1534.15 2107.39 1532.04 Q2105.06 1529.94 2101.05 1529.94 Q2099.18 1529.94 2097.3 1530.35 Q2095.45 1530.77 2093.51 1531.65 L2093.51 1514.29 Z" fill="#000000" fill-rule="nonzero" fill-opacity="1" /><polyline clip-path="url(#clip720)" style="stroke:#000000; stroke-linecap:round; stroke-linejoin:round; stroke-width:4; stroke-opacity:1; fill:none" points="209.029,1486.45 209.029,47.2441 "/>
<polyline clip-path="url(#clip720)" style="stroke:#000000; stroke-linecap:round; stroke-linejoin:round; stroke-width:4; stroke-opacity:1; fill:none" points="209.029,1359.54 227.926,1359.54 "/>
<polyline clip-path="url(#clip720)" style="stroke:#000000; stroke-linecap:round; stroke-linejoin:round; stroke-width:4; stroke-opacity:1; fill:none" points="209.029,1091.55 227.926,1091.55 "/>
<polyline clip-path="url(#clip720)" style="stroke:#000000; stroke-linecap:round; stroke-linejoin:round; stroke-width:4; stroke-opacity:1; fill:none" points="209.029,823.565 227.926,823.565 "/>
<polyline clip-path="url(#clip720)" style="stroke:#000000; stroke-linecap:round; stroke-linejoin:round; stroke-width:4; stroke-opacity:1; fill:none" points="209.029,555.577 227.926,555.577 "/>
<polyline clip-path="url(#clip720)" style="stroke:#000000; stroke-linecap:round; stroke-linejoin:round; stroke-width:4; stroke-opacity:1; fill:none" points="209.029,287.59 227.926,287.59 "/>
<path clip-path="url(#clip720)" d="M50.9921 1359.99 L80.6679 1359.99 L80.6679 1363.93 L50.9921 1363.93 L50.9921 1359.99 Z" fill="#000000" fill-rule="nonzero" fill-opacity="1" /><path clip-path="url(#clip720)" d="M94.7882 1372.88 L111.108 1372.88 L111.108 1376.82 L89.1632 1376.82 L89.1632 1372.88 Q91.8252 1370.13 96.4085 1365.5 Q101.015 1360.85 102.196 1359.5 Q104.441 1356.98 105.321 1355.25 Q106.223 1353.49 106.223 1351.8 Q106.223 1349.04 104.279 1347.31 Q102.358 1345.57 99.2558 1345.57 Q97.0567 1345.57 94.603 1346.33 Q92.1725 1347.1 89.3947 1348.65 L89.3947 1343.93 Q92.2188 1342.79 94.6724 1342.21 Q97.1261 1341.63 99.1632 1341.63 Q104.534 1341.63 107.728 1344.32 Q110.922 1347 110.922 1351.5 Q110.922 1353.62 110.112 1355.55 Q109.325 1357.44 107.219 1360.04 Q106.64 1360.71 103.538 1363.93 Q100.436 1367.12 94.7882 1372.88 Z" fill="#000000" fill-rule="nonzero" fill-opacity="1" /><path clip-path="url(#clip720)" d="M130.922 1345.34 Q127.311 1345.34 125.482 1348.9 Q123.677 1352.44 123.677 1359.57 Q123.677 1366.68 125.482 1370.25 Q127.311 1373.79 130.922 1373.79 Q134.556 1373.79 136.362 1370.25 Q138.191 1366.68 138.191 1359.57 Q138.191 1352.44 136.362 1348.9 Q134.556 1345.34 130.922 1345.34 M130.922 1341.63 Q136.732 1341.63 139.788 1346.24 Q142.867 1350.82 142.867 1359.57 Q142.867 1368.3 139.788 1372.91 Q136.732 1377.49 130.922 1377.49 Q125.112 1377.49 122.033 1372.91 Q118.978 1368.3 118.978 1359.57 Q118.978 1350.82 122.033 1346.24 Q125.112 1341.63 130.922 1341.63 Z" fill="#000000" fill-rule="nonzero" fill-opacity="1" /><path clip-path="url(#clip720)" d="M161.084 1345.34 Q157.473 1345.34 155.644 1348.9 Q153.839 1352.44 153.839 1359.57 Q153.839 1366.68 155.644 1370.25 Q157.473 1373.79 161.084 1373.79 Q164.718 1373.79 166.524 1370.25 Q168.353 1366.68 168.353 1359.57 Q168.353 1352.44 166.524 1348.9 Q164.718 1345.34 161.084 1345.34 M161.084 1341.63 Q166.894 1341.63 169.95 1346.24 Q173.029 1350.82 173.029 1359.57 Q173.029 1368.3 169.95 1372.91 Q166.894 1377.49 161.084 1377.49 Q155.274 1377.49 152.195 1372.91 Q149.14 1368.3 149.14 1359.57 Q149.14 1350.82 152.195 1346.24 Q155.274 1341.63 161.084 1341.63 Z" fill="#000000" fill-rule="nonzero" fill-opacity="1" /><path clip-path="url(#clip720)" d="M161.084 1077.35 Q157.473 1077.35 155.644 1080.92 Q153.839 1084.46 153.839 1091.59 Q153.839 1098.69 155.644 1102.26 Q157.473 1105.8 161.084 1105.8 Q164.718 1105.8 166.524 1102.26 Q168.353 1098.69 168.353 1091.59 Q168.353 1084.46 166.524 1080.92 Q164.718 1077.35 161.084 1077.35 M161.084 1073.65 Q166.894 1073.65 169.95 1078.25 Q173.029 1082.84 173.029 1091.59 Q173.029 1100.31 169.95 1104.92 Q166.894 1109.5 161.084 1109.5 Q155.274 1109.5 152.195 1104.92 Q149.14 1100.31 149.14 1091.59 Q149.14 1082.84 152.195 1078.25 Q155.274 1073.65 161.084 1073.65 Z" fill="#000000" fill-rule="nonzero" fill-opacity="1" /><path clip-path="url(#clip720)" d="M94.7882 836.909 L111.108 836.909 L111.108 840.845 L89.1632 840.845 L89.1632 836.909 Q91.8252 834.155 96.4085 829.525 Q101.015 824.873 102.196 823.53 Q104.441 821.007 105.321 819.271 Q106.223 817.511 106.223 815.822 Q106.223 813.067 104.279 811.331 Q102.358 809.595 99.2558 809.595 Q97.0567 809.595 94.603 810.359 Q92.1725 811.123 89.3947 812.674 L89.3947 807.951 Q92.2188 806.817 94.6724 806.238 Q97.1261 805.66 99.1632 805.66 Q104.534 805.66 107.728 808.345 Q110.922 811.03 110.922 815.521 Q110.922 817.65 110.112 819.572 Q109.325 821.47 107.219 824.062 Q106.64 824.734 103.538 827.951 Q100.436 831.146 94.7882 836.909 Z" fill="#000000" fill-rule="nonzero" fill-opacity="1" /><path clip-path="url(#clip720)" d="M130.922 809.363 Q127.311 809.363 125.482 812.928 Q123.677 816.47 123.677 823.599 Q123.677 830.706 125.482 834.271 Q127.311 837.812 130.922 837.812 Q134.556 837.812 136.362 834.271 Q138.191 830.706 138.191 823.599 Q138.191 816.47 136.362 812.928 Q134.556 809.363 130.922 809.363 M130.922 805.66 Q136.732 805.66 139.788 810.266 Q142.867 814.849 142.867 823.599 Q142.867 832.326 139.788 836.933 Q136.732 841.516 130.922 841.516 Q125.112 841.516 122.033 836.933 Q118.978 832.326 118.978 823.599 Q118.978 814.849 122.033 810.266 Q125.112 805.66 130.922 805.66 Z" fill="#000000" fill-rule="nonzero" fill-opacity="1" /><path clip-path="url(#clip720)" d="M161.084 809.363 Q157.473 809.363 155.644 812.928 Q153.839 816.47 153.839 823.599 Q153.839 830.706 155.644 834.271 Q157.473 837.812 161.084 837.812 Q164.718 837.812 166.524 834.271 Q168.353 830.706 168.353 823.599 Q168.353 816.47 166.524 812.928 Q164.718 809.363 161.084 809.363 M161.084 805.66 Q166.894 805.66 169.95 810.266 Q173.029 814.849 173.029 823.599 Q173.029 832.326 169.95 836.933 Q166.894 841.516 161.084 841.516 Q155.274 841.516 152.195 836.933 Q149.14 832.326 149.14 823.599 Q149.14 814.849 152.195 810.266 Q155.274 805.66 161.084 805.66 Z" fill="#000000" fill-rule="nonzero" fill-opacity="1" /><path clip-path="url(#clip720)" d="M103.608 542.371 L91.8021 560.82 L103.608 560.82 L103.608 542.371 M102.381 538.297 L108.26 538.297 L108.26 560.82 L113.191 560.82 L113.191 564.709 L108.26 564.709 L108.26 572.857 L103.608 572.857 L103.608 564.709 L88.0058 564.709 L88.0058 560.195 L102.381 538.297 Z" fill="#000000" fill-rule="nonzero" fill-opacity="1" /><path clip-path="url(#clip720)" d="M130.922 541.376 Q127.311 541.376 125.482 544.941 Q123.677 548.483 123.677 555.612 Q123.677 562.719 125.482 566.283 Q127.311 569.825 130.922 569.825 Q134.556 569.825 136.362 566.283 Q138.191 562.719 138.191 555.612 Q138.191 548.483 136.362 544.941 Q134.556 541.376 130.922 541.376 M130.922 537.672 Q136.732 537.672 139.788 542.279 Q142.867 546.862 142.867 555.612 Q142.867 564.339 139.788 568.945 Q136.732 573.529 130.922 573.529 Q125.112 573.529 122.033 568.945 Q118.978 564.339 118.978 555.612 Q118.978 546.862 122.033 542.279 Q125.112 537.672 130.922 537.672 Z" fill="#000000" fill-rule="nonzero" fill-opacity="1" /><path clip-path="url(#clip720)" d="M161.084 541.376 Q157.473 541.376 155.644 544.941 Q153.839 548.483 153.839 555.612 Q153.839 562.719 155.644 566.283 Q157.473 569.825 161.084 569.825 Q164.718 569.825 166.524 566.283 Q168.353 562.719 168.353 555.612 Q168.353 548.483 166.524 544.941 Q164.718 541.376 161.084 541.376 M161.084 537.672 Q166.894 537.672 169.95 542.279 Q173.029 546.862 173.029 555.612 Q173.029 564.339 169.95 568.945 Q166.894 573.529 161.084 573.529 Q155.274 573.529 152.195 568.945 Q149.14 564.339 149.14 555.612 Q149.14 546.862 152.195 542.279 Q155.274 537.672 161.084 537.672 Z" fill="#000000" fill-rule="nonzero" fill-opacity="1" /><path clip-path="url(#clip720)" d="M101.339 285.727 Q98.1909 285.727 96.3391 287.879 Q94.5104 290.032 94.5104 293.782 Q94.5104 297.509 96.3391 299.685 Q98.1909 301.838 101.339 301.838 Q104.487 301.838 106.316 299.685 Q108.168 297.509 108.168 293.782 Q108.168 290.032 106.316 287.879 Q104.487 285.727 101.339 285.727 M110.621 271.074 L110.621 275.333 Q108.862 274.5 107.057 274.06 Q105.274 273.62 103.515 273.62 Q98.8854 273.62 96.4317 276.745 Q94.0012 279.87 93.6539 286.19 Q95.0197 284.176 97.0798 283.111 Q99.14 282.023 101.617 282.023 Q106.825 282.023 109.834 285.194 Q112.867 288.342 112.867 293.782 Q112.867 299.106 109.719 302.324 Q106.571 305.541 101.339 305.541 Q95.3437 305.541 92.1725 300.958 Q89.0012 296.352 89.0012 287.625 Q89.0012 279.43 92.89 274.569 Q96.7789 269.685 103.33 269.685 Q105.089 269.685 106.871 270.032 Q108.677 270.38 110.621 271.074 Z" fill="#000000" fill-rule="nonzero" fill-opacity="1" /><path clip-path="url(#clip720)" d="M130.922 273.389 Q127.311 273.389 125.482 276.954 Q123.677 280.495 123.677 287.625 Q123.677 294.731 125.482 298.296 Q127.311 301.838 130.922 301.838 Q134.556 301.838 136.362 298.296 Q138.191 294.731 138.191 287.625 Q138.191 280.495 136.362 276.954 Q134.556 273.389 130.922 273.389 M130.922 269.685 Q136.732 269.685 139.788 274.292 Q142.867 278.875 142.867 287.625 Q142.867 296.352 139.788 300.958 Q136.732 305.541 130.922 305.541 Q125.112 305.541 122.033 300.958 Q118.978 296.352 118.978 287.625 Q118.978 278.875 122.033 274.292 Q125.112 269.685 130.922 269.685 Z" fill="#000000" fill-rule="nonzero" fill-opacity="1" /><path clip-path="url(#clip720)" d="M161.084 273.389 Q157.473 273.389 155.644 276.954 Q153.839 280.495 153.839 287.625 Q153.839 294.731 155.644 298.296 Q157.473 301.838 161.084 301.838 Q164.718 301.838 166.524 298.296 Q168.353 294.731 168.353 287.625 Q168.353 280.495 166.524 276.954 Q164.718 273.389 161.084 273.389 M161.084 269.685 Q166.894 269.685 169.95 274.292 Q173.029 278.875 173.029 287.625 Q173.029 296.352 169.95 300.958 Q166.894 305.541 161.084 305.541 Q155.274 305.541 152.195 300.958 Q149.14 296.352 149.14 287.625 Q149.14 278.875 152.195 274.292 Q155.274 269.685 161.084 269.685 Z" fill="#000000" fill-rule="nonzero" fill-opacity="1" /><path clip-path="url(#clip722)" d="M269.7 1091.99 L284.25 1091.96 L298.799 1091.92 L313.349 1091.91 L327.898 1091.88 L342.448 1091.87 L356.997 1091.86 L371.547 1091.83 L386.096 1091.81 L400.646 1091.81 L415.195 1091.81 L429.745 1091.85 L444.294 1091.87 L458.844 1091.96 L473.393 1091.99 L487.943 1092.05 L502.492 1092.14 L517.042 1092.22 L531.592 1092.36 L546.141 1092.54 L560.691 1092.56 L575.24 1092.64 L589.79 1092.62 L604.339 1092.51 L618.889 1092.76 L633.438 1092.94 L647.988 1093.26 L662.537 1092.91 L677.087 1092.8 L691.636 1092.99 L706.186 1093.17 L720.735 1093.01 L735.285 1093.38 L749.834 1093.18 L764.384 1092.79 L778.934 1092.58 L793.483 1092.82 L808.033 1092.47 L822.582 1092.63 L837.132 1092.99 L851.681 1092.97 L866.231 1092.1 L880.78 1092.3 L895.33 1091.36 L909.879 1088.29 L924.429 1085.39 L938.978 1082.62 L953.528 1076.88 L968.077 1071.3 L982.627 1069 L997.176 1064.98 L1011.73 1059.65 L1026.28 1050.86 L1040.83 1043.15 L1055.37 1034.73 L1069.92 1026.18 L1084.47 1018.09 L1099.02 1010.51 L1113.57 1011.61 L1128.12 996.436 L1142.67 988.218 L1157.22 973.655 L1171.77 961.602 L1186.32 950.085 L1200.87 936.813 L1215.42 929.024 L1229.97 927.548 L1244.52 924.953 L1259.07 920.857 L1273.62 918.434 L1288.17 913.741 L1302.72 907.346 L1317.27 902.109 L1331.82 889.16 L1346.37 881.597 L1360.91 879.96 L1375.46 882.519 L1390.01 886.142 L1404.56 898.328 L1419.11 906.511 L1433.66 908.657 L1448.21 906.907 L1462.76 909.398 L1477.31 913.142 L1491.86 921.679 L1506.41 930.843 L1520.96 937.017 L1535.51 942.692 L1550.06 958.27 L1564.61 973.177 L1579.16 983.107 L1593.71 993.179 L1608.26 1001.68 L1622.81 1015.75 L1637.36 1011.62 L1651.91 1007.67 L1666.45 1013.78 L1681 1021.95 L1695.55 1025.49 L1710.1 1033.2 L1724.65 1030.63 L1739.2 1034.73 L1753.75 1020.61 L1768.3 995.969 L1782.85 996.644 L1797.4 993.795 L1811.95 994.893 L1826.5 997.324 L1841.05 997.908 L1855.6 994.852 L1870.15 991.831 L1884.7 994.553 L1899.25 993.544 L1913.8 994.747 L1928.35 1001.14 L1942.9 1009.84 L1957.45 1014.02 L1971.99 1016.09 L1986.54 1020.4 L2001.09 1026.2 L2015.64 1030.44 L2030.19 1031.95 L2044.74 1032.34 L2059.29 1036.94 L2073.84 1039.82 L2088.39 1045.5 L2102.94 1050.51 L2117.49 1053.46 L2132.04 1057.39 L2146.59 1062.61 L2161.14 1064.73 L2175.69 1067.59 L2190.24 1072.27 L2204.79 1075.9 L2219.34 1079.28 L2233.89 1083.95 L2248.44 1087.55 L2262.99 1091.7 L2277.53 1094.98 L2292.08 1099.61 L2292.08 1051.54 L2277.53 1046.19 L2262.99 1042.07 L2248.44 1035.61 L2233.89 1030.16 L2219.34 1024.89 L2204.79 1018.89 L2190.24 1013.06 L2175.69 1005.98 L2161.14 999.764 L2146.59 992.254 L2132.04 983.899 L2117.49 979.758 L2102.94 974.63 L2088.39 967.279 L2073.84 957.98 L2059.29 949.234 L2044.74 941.554 L2030.19 931.174 L2015.64 924.435 L2001.09 917.535 L1986.54 908.747 L1971.99 899.495 L1957.45 884.996 L1942.9 873.628 L1928.35 866.742 L1913.8 853.033 L1899.25 842.664 L1884.7 833.269 L1870.15 821.679 L1855.6 808.326 L1841.05 791.928 L1826.5 779.326 L1811.95 763.662 L1797.4 748.142 L1782.85 730.798 L1768.3 710.673 L1753.75 682.288 L1739.2 657.683 L1724.65 635.925 L1710.1 621.26 L1695.55 606.514 L1681 585.557 L1666.45 568.523 L1651.91 551.903 L1637.36 529.865 L1622.81 511.303 L1608.26 500.966 L1593.71 488.047 L1579.16 475.693 L1564.61 462.296 L1550.06 445.744 L1535.51 431.821 L1520.96 415.366 L1506.41 397.339 L1491.86 378.591 L1477.31 361.331 L1462.76 344.344 L1448.21 331.491 L1433.66 326.911 L1419.11 312.341 L1404.56 300.43 L1390.01 303.45 L1375.46 320.532 L1360.91 326.932 L1346.37 329.06 L1331.82 330.825 L1317.27 332.226 L1302.72 332.754 L1288.17 335.579 L1273.62 338.318 L1259.07 345.803 L1244.52 353.484 L1229.97 394.525 L1215.42 438.538 L1200.87 476.929 L1186.32 508.747 L1171.77 536.897 L1157.22 562.083 L1142.67 606.079 L1128.12 633.59 L1113.57 665.196 L1099.02 731.892 L1084.47 780.066 L1069.92 818.591 L1055.37 848.331 L1040.83 872.085 L1026.28 891.137 L1011.73 903.491 L997.176 926.96 L982.627 942.058 L968.077 957.556 L953.528 971.21 L938.978 979.253 L924.429 988.936 L909.879 998.04 L895.33 1006.24 L880.78 1012.79 L866.231 1020.72 L851.681 1027.58 L837.132 1035.88 L822.582 1043.68 L808.033 1050.28 L793.483 1055.96 L778.934 1061.28 L764.384 1064.93 L749.834 1067.33 L735.285 1070.32 L720.735 1073.15 L706.186 1074.63 L691.636 1077 L677.087 1079.21 L662.537 1080.85 L647.988 1082.06 L633.438 1083.73 L618.889 1085.26 L604.339 1086.43 L589.79 1086.86 L575.24 1087.38 L560.691 1087.95 L546.141 1088.38 L531.592 1089.01 L517.042 1089.54 L502.492 1089.93 L487.943 1090.29 L473.393 1090.48 L458.844 1090.66 L444.294 1090.87 L429.745 1090.96 L415.195 1091.09 L400.646 1091.15 L386.096 1091.25 L371.547 1091.3 L356.997 1091.32 L342.448 1091.33 L327.898 1091.36 L313.349 1091.36 L298.799 1091.38 L284.25 1091.38 L269.7 1091.41  Z" fill="#009af9" fill-rule="evenodd" fill-opacity="0.5"/>
<polyline clip-path="url(#clip722)" style="stroke:#009af9; stroke-linecap:round; stroke-linejoin:round; stroke-width:4; stroke-opacity:0.2; fill:none" points="269.7,1091.7 284.25,1091.67 298.799,1091.65 313.349,1091.63 327.898,1091.62 342.448,1091.6 356.997,1091.59 371.547,1091.57 386.096,1091.53 400.646,1091.48 415.195,1091.45 429.745,1091.4 444.294,1091.37 458.844,1091.31 473.393,1091.23 487.943,1091.17 502.492,1091.03 517.042,1090.88 531.592,1090.69 546.141,1090.46 560.691,1090.26 575.24,1090.01 589.79,1089.74 604.339,1089.47 618.889,1089.01 633.438,1088.34 647.988,1087.66 662.537,1086.88 677.087,1086.01 691.636,1084.99 706.186,1083.9 720.735,1083.08 735.285,1081.85 749.834,1080.26 764.384,1078.86 778.934,1076.93 793.483,1074.39 808.033,1071.37 822.582,1068.15 837.132,1064.43 851.681,1060.27 866.231,1056.41 880.78,1052.55 895.33,1048.8 909.879,1043.17 924.429,1037.16 938.978,1030.94 953.528,1024.05 968.077,1014.43 982.627,1005.53 997.176,995.968 1011.73,981.568 1026.28,970.996 1040.83,957.62 1055.37,941.53 1069.92,922.383 1084.47,899.078 1099.02,871.199 1113.57,838.403 1128.12,815.013 1142.67,797.149 1157.22,767.869 1171.77,749.25 1186.32,729.416 1200.87,706.871 1215.42,683.781 1229.97,661.036 1244.52,639.218 1259.07,633.33 1273.62,628.376 1288.17,624.66 1302.72,620.05 1317.27,617.168 1331.82,609.993 1346.37,605.328 1360.91,603.446 1375.46,601.525 1390.01,594.796 1404.56,599.379 1419.11,609.426 1433.66,617.784 1448.21,619.199 1462.76,626.871 1477.31,637.237 1491.86,650.135 1506.41,664.091 1520.96,676.192 1535.51,687.257 1550.06,702.007 1564.61,717.737 1579.16,729.4 1593.71,740.613 1608.26,751.321 1622.81,763.526 1637.36,770.743 1651.91,779.789 1666.45,791.152 1681,803.754 1695.55,816 1710.1,827.23 1724.65,833.277 1739.2,846.209 1753.75,851.448 1768.3,853.321 1782.85,863.721 1797.4,870.969 1811.95,879.278 1826.5,888.325 1841.05,894.918 1855.6,901.589 1870.15,906.755 1884.7,913.911 1899.25,918.104 1913.8,923.89 1928.35,933.94 1942.9,941.733 1957.45,949.508 1971.99,957.793 1986.54,964.572 2001.09,971.869 2015.64,977.436 2030.19,981.564 2044.74,986.947 2059.29,993.087 2073.84,998.898 2088.39,1006.39 2102.94,1012.57 2117.49,1016.61 2132.04,1020.65 2146.59,1027.43 2161.14,1032.25 2175.69,1036.78 2190.24,1042.66 2204.79,1047.39 2219.34,1052.08 2233.89,1057.05 2248.44,1061.58 2262.99,1066.89 2277.53,1070.59 2292.08,1075.57 "/>
<path clip-path="url(#clip722)" d="M269.7 1092.02 L284.25 1092.02 L298.799 1092.04 L313.349 1092.06 L327.898 1092.07 L342.448 1092.09 L356.997 1092.1 L371.547 1092.11 L386.096 1092.13 L400.646 1092.15 L415.195 1092.15 L429.745 1092.16 L444.294 1092.17 L458.844 1092.2 L473.393 1092.19 L487.943 1092.19 L502.492 1092.2 L517.042 1092.21 L531.592 1092.21 L546.141 1092.23 L560.691 1092.21 L575.24 1092.22 L589.79 1092.22 L604.339 1092.19 L618.889 1092.23 L633.438 1092.28 L647.988 1092.34 L662.537 1092.32 L677.087 1092.41 L691.636 1092.45 L706.186 1092.39 L720.735 1092.25 L735.285 1092.24 L749.834 1092.1 L764.384 1091.96 L778.934 1091.83 L793.483 1091.71 L808.033 1091.57 L822.582 1091.46 L837.132 1091.23 L851.681 1091.15 L866.231 1090.85 L880.78 1090.57 L895.33 1090.24 L909.879 1089.77 L924.429 1089.08 L938.978 1088.55 L953.528 1087.99 L968.077 1087.09 L982.627 1086.79 L997.176 1086.27 L1011.73 1084.91 L1026.28 1083.78 L1040.83 1082.56 L1055.37 1081.34 L1069.92 1079.25 L1084.47 1077.66 L1099.02 1076.29 L1113.57 1075.42 L1128.12 1072.48 L1142.67 1070.37 L1157.22 1067.26 L1171.77 1065.35 L1186.32 1063.06 L1200.87 1060.44 L1215.42 1059.16 L1229.97 1058.41 L1244.52 1058.51 L1259.07 1057.97 L1273.62 1058.09 L1288.17 1058.3 L1302.72 1056.4 L1317.27 1056.45 L1331.82 1055.9 L1346.37 1056.62 L1360.91 1059.9 L1375.46 1064.28 L1390.01 1065.75 L1404.56 1072.05 L1419.11 1079.82 L1433.66 1084.2 L1448.21 1085.52 L1462.76 1088.38 L1477.31 1091.98 L1491.86 1098.12 L1506.41 1107.01 L1520.96 1117.86 L1535.51 1125.56 L1550.06 1135.09 L1564.61 1149.12 L1579.16 1159.17 L1593.71 1171.67 L1608.26 1182.39 L1622.81 1197.18 L1637.36 1198.92 L1651.91 1194.91 L1666.45 1203.7 L1681 1204.55 L1695.55 1212.45 L1710.1 1220.04 L1724.65 1222.74 L1739.2 1224.53 L1753.75 1213.83 L1768.3 1192.83 L1782.85 1188.67 L1797.4 1180.58 L1811.95 1175.13 L1826.5 1170.06 L1841.05 1165.08 L1855.6 1156.35 L1870.15 1146.96 L1884.7 1144.03 L1899.25 1133.68 L1913.8 1129.26 L1928.35 1131.4 L1942.9 1131.39 L1957.45 1129.71 L1971.99 1126.68 L1986.54 1124.44 L2001.09 1124.81 L2015.64 1123.41 L2030.19 1120.41 L2044.74 1116.94 L2059.29 1116.72 L2073.84 1115.47 L2088.39 1116.87 L2102.94 1116.33 L2117.49 1114.69 L2132.04 1115.52 L2146.59 1117.68 L2161.14 1117.56 L2175.69 1118.49 L2190.24 1121.05 L2204.79 1123.22 L2219.34 1125.1 L2233.89 1127.45 L2248.44 1129.7 L2262.99 1133.07 L2277.53 1134.97 L2292.08 1138.69 L2292.08 1107.78 L2277.53 1106.06 L2262.99 1104.85 L2248.44 1103.26 L2233.89 1101.44 L2219.34 1099.36 L2204.79 1097.71 L2190.24 1096.45 L2175.69 1094.97 L2161.14 1093.35 L2146.59 1091.51 L2132.04 1089.28 L2117.49 1087.89 L2102.94 1084.63 L2088.39 1081.8 L2073.84 1079.35 L2059.29 1076.24 L2044.74 1073.17 L2030.19 1068.99 L2015.64 1065.8 L2001.09 1063.21 L1986.54 1060.74 L1971.99 1057.35 L1957.45 1052.8 L1942.9 1049.08 L1928.35 1046.74 L1913.8 1044.39 L1899.25 1040.06 L1884.7 1033.94 L1870.15 1030.41 L1855.6 1024.22 L1841.05 1017.69 L1826.5 1013.55 L1811.95 1008.45 L1797.4 1002.52 L1782.85 995.323 L1768.3 989.259 L1753.75 974.921 L1739.2 965.493 L1724.65 961.532 L1710.1 961.265 L1695.55 961.021 L1681 960.764 L1666.45 956.724 L1651.91 958.929 L1637.36 951.806 L1622.81 948.611 L1608.26 954.045 L1593.71 955.957 L1579.16 957.313 L1564.61 958.122 L1550.06 962.285 L1535.51 962.712 L1520.96 962.578 L1506.41 963.992 L1491.86 963.033 L1477.31 963.203 L1462.76 960.883 L1448.21 958.167 L1433.66 958.468 L1419.11 954.863 L1404.56 954.234 L1390.01 955.348 L1375.46 959.244 L1360.91 961.657 L1346.37 963.138 L1331.82 962.556 L1317.27 961.609 L1302.72 959.71 L1288.17 959.767 L1273.62 961.579 L1259.07 963.758 L1244.52 963.934 L1229.97 970.168 L1215.42 976.655 L1200.87 982.763 L1186.32 988.241 L1171.77 992.047 L1157.22 996.586 L1142.67 1003.18 L1128.12 1008.19 L1113.57 1012.46 L1099.02 1022.58 L1084.47 1030.97 L1069.92 1038.46 L1055.37 1043.3 L1040.83 1048.02 L1026.28 1051.54 L1011.73 1054.63 L997.176 1058.32 L982.627 1061.74 L968.077 1065.17 L953.528 1067.97 L938.978 1070.52 L924.429 1072.27 L909.879 1073.56 L895.33 1075.52 L880.78 1076.53 L866.231 1077.7 L851.681 1078.92 L837.132 1080.5 L822.582 1081.65 L808.033 1082.83 L793.483 1083.9 L778.934 1084.85 L764.384 1085.52 L749.834 1085.99 L735.285 1086.51 L720.735 1086.99 L706.186 1087.18 L691.636 1087.59 L677.087 1088.15 L662.537 1088.71 L647.988 1089.13 L633.438 1089.53 L618.889 1089.97 L604.339 1090.26 L589.79 1090.42 L575.24 1090.56 L560.691 1090.73 L546.141 1090.83 L531.592 1090.97 L517.042 1091.11 L502.492 1091.23 L487.943 1091.32 L473.393 1091.38 L458.844 1091.43 L444.294 1091.5 L429.745 1091.52 L415.195 1091.55 L400.646 1091.56 L386.096 1091.57 L371.547 1091.56 L356.997 1091.53 L342.448 1091.51 L327.898 1091.47 L313.349 1091.44 L298.799 1091.41 L284.25 1091.36 L269.7 1091.3  Z" fill="#e26f46" fill-rule="evenodd" fill-opacity="0.5"/>
<polyline clip-path="url(#clip722)" style="stroke:#e26f46; stroke-linecap:round; stroke-linejoin:round; stroke-width:4; stroke-opacity:0.2; fill:none" points="269.7,1091.66 284.25,1091.69 298.799,1091.72 313.349,1091.75 327.898,1091.77 342.448,1091.8 356.997,1091.81 371.547,1091.83 386.096,1091.85 400.646,1091.85 415.195,1091.85 429.745,1091.84 444.294,1091.84 458.844,1091.82 473.393,1091.78 487.943,1091.76 502.492,1091.72 517.042,1091.66 531.592,1091.59 546.141,1091.53 560.691,1091.47 575.24,1091.39 589.79,1091.32 604.339,1091.23 618.889,1091.1 633.438,1090.91 647.988,1090.73 662.537,1090.52 677.087,1090.28 691.636,1090.02 706.186,1089.78 720.735,1089.62 735.285,1089.37 749.834,1089.04 764.384,1088.74 778.934,1088.34 793.483,1087.8 808.033,1087.2 822.582,1086.55 837.132,1085.87 851.681,1085.04 866.231,1084.28 880.78,1083.55 895.33,1082.88 909.879,1081.66 924.429,1080.68 938.978,1079.53 953.528,1077.98 968.077,1076.13 982.627,1074.27 997.176,1072.29 1011.73,1069.77 1026.28,1067.66 1040.83,1065.29 1055.37,1062.32 1069.92,1058.86 1084.47,1054.31 1099.02,1049.43 1113.57,1043.94 1128.12,1040.34 1142.67,1036.77 1157.22,1031.92 1171.77,1028.7 1186.32,1025.65 1200.87,1021.6 1215.42,1017.91 1229.97,1014.29 1244.52,1011.22 1259.07,1010.86 1273.62,1009.83 1288.17,1009.03 1302.72,1008.06 1317.27,1009.03 1331.82,1009.23 1346.37,1009.88 1360.91,1010.78 1375.46,1011.76 1390.01,1010.55 1404.56,1013.14 1419.11,1017.34 1433.66,1021.34 1448.21,1021.84 1462.76,1024.63 1477.31,1027.59 1491.86,1030.58 1506.41,1035.5 1520.96,1040.22 1535.51,1044.14 1550.06,1048.69 1564.61,1053.62 1579.16,1058.24 1593.71,1063.81 1608.26,1068.22 1622.81,1072.89 1637.36,1075.36 1651.91,1076.92 1666.45,1080.21 1681,1082.66 1695.55,1086.73 1710.1,1090.65 1724.65,1092.14 1739.2,1095.01 1753.75,1094.38 1768.3,1091.04 1782.85,1092 1797.4,1091.55 1811.95,1091.79 1826.5,1091.8 1841.05,1091.38 1855.6,1090.29 1870.15,1088.69 1884.7,1088.99 1899.25,1086.87 1913.8,1086.83 1928.35,1089.07 1942.9,1090.23 1957.45,1091.25 1971.99,1092.02 1986.54,1092.59 2001.09,1094.01 2015.64,1094.61 2030.19,1094.7 2044.74,1095.05 2059.29,1096.48 2073.84,1097.41 2088.39,1099.33 2102.94,1100.48 2117.49,1101.29 2132.04,1102.4 2146.59,1104.6 2161.14,1105.46 2175.69,1106.73 2190.24,1108.75 2204.79,1110.46 2219.34,1112.23 2233.89,1114.45 2248.44,1116.48 2262.99,1118.96 2277.53,1120.52 2292.08,1123.23 "/>
<circle clip-path="url(#clip722)" cx="269.7" cy="1091.94" r="7.2" fill="#008000" fill-rule="evenodd" fill-opacity="1" stroke="#000000" stroke-opacity="1" stroke-width="3.2"/>
<circle clip-path="url(#clip722)" cx="284.25" cy="1093.29" r="7.2" fill="#008000" fill-rule="evenodd" fill-opacity="1" stroke="#000000" stroke-opacity="1" stroke-width="3.2"/>
<circle clip-path="url(#clip722)" cx="298.799" cy="1093.54" r="7.2" fill="#008000" fill-rule="evenodd" fill-opacity="1" stroke="#000000" stroke-opacity="1" stroke-width="3.2"/>
<circle clip-path="url(#clip722)" cx="313.349" cy="1093.04" r="7.2" fill="#008000" fill-rule="evenodd" fill-opacity="1" stroke="#000000" stroke-opacity="1" stroke-width="3.2"/>
<circle clip-path="url(#clip722)" cx="327.898" cy="1091.85" r="7.2" fill="#008000" fill-rule="evenodd" fill-opacity="1" stroke="#000000" stroke-opacity="1" stroke-width="3.2"/>
<circle clip-path="url(#clip722)" cx="342.448" cy="1090.73" r="7.2" fill="#008000" fill-rule="evenodd" fill-opacity="1" stroke="#000000" stroke-opacity="1" stroke-width="3.2"/>
<circle clip-path="url(#clip722)" cx="356.997" cy="1090.14" r="7.2" fill="#008000" fill-rule="evenodd" fill-opacity="1" stroke="#000000" stroke-opacity="1" stroke-width="3.2"/>
<circle clip-path="url(#clip722)" cx="371.547" cy="1090.14" r="7.2" fill="#008000" fill-rule="evenodd" fill-opacity="1" stroke="#000000" stroke-opacity="1" stroke-width="3.2"/>
<circle clip-path="url(#clip722)" cx="386.096" cy="1090.72" r="7.2" fill="#008000" fill-rule="evenodd" fill-opacity="1" stroke="#000000" stroke-opacity="1" stroke-width="3.2"/>
<circle clip-path="url(#clip722)" cx="400.646" cy="1091.4" r="7.2" fill="#008000" fill-rule="evenodd" fill-opacity="1" stroke="#000000" stroke-opacity="1" stroke-width="3.2"/>
<circle clip-path="url(#clip722)" cx="415.195" cy="1091.72" r="7.2" fill="#008000" fill-rule="evenodd" fill-opacity="1" stroke="#000000" stroke-opacity="1" stroke-width="3.2"/>
<circle clip-path="url(#clip722)" cx="429.745" cy="1091.93" r="7.2" fill="#008000" fill-rule="evenodd" fill-opacity="1" stroke="#000000" stroke-opacity="1" stroke-width="3.2"/>
<circle clip-path="url(#clip722)" cx="444.294" cy="1091.95" r="7.2" fill="#008000" fill-rule="evenodd" fill-opacity="1" stroke="#000000" stroke-opacity="1" stroke-width="3.2"/>
<circle clip-path="url(#clip722)" cx="458.844" cy="1092.13" r="7.2" fill="#008000" fill-rule="evenodd" fill-opacity="1" stroke="#000000" stroke-opacity="1" stroke-width="3.2"/>
<circle clip-path="url(#clip722)" cx="473.393" cy="1092.37" r="7.2" fill="#008000" fill-rule="evenodd" fill-opacity="1" stroke="#000000" stroke-opacity="1" stroke-width="3.2"/>
<circle clip-path="url(#clip722)" cx="487.943" cy="1092.54" r="7.2" fill="#008000" fill-rule="evenodd" fill-opacity="1" stroke="#000000" stroke-opacity="1" stroke-width="3.2"/>
<circle clip-path="url(#clip722)" cx="502.492" cy="1092.61" r="7.2" fill="#008000" fill-rule="evenodd" fill-opacity="1" stroke="#000000" stroke-opacity="1" stroke-width="3.2"/>
<circle clip-path="url(#clip722)" cx="517.042" cy="1092.41" r="7.2" fill="#008000" fill-rule="evenodd" fill-opacity="1" stroke="#000000" stroke-opacity="1" stroke-width="3.2"/>
<circle clip-path="url(#clip722)" cx="531.592" cy="1091.7" r="7.2" fill="#008000" fill-rule="evenodd" fill-opacity="1" stroke="#000000" stroke-opacity="1" stroke-width="3.2"/>
<circle clip-path="url(#clip722)" cx="546.141" cy="1090.88" r="7.2" fill="#008000" fill-rule="evenodd" fill-opacity="1" stroke="#000000" stroke-opacity="1" stroke-width="3.2"/>
<circle clip-path="url(#clip722)" cx="560.691" cy="1090.09" r="7.2" fill="#008000" fill-rule="evenodd" fill-opacity="1" stroke="#000000" stroke-opacity="1" stroke-width="3.2"/>
<circle clip-path="url(#clip722)" cx="575.24" cy="1089.9" r="7.2" fill="#008000" fill-rule="evenodd" fill-opacity="1" stroke="#000000" stroke-opacity="1" stroke-width="3.2"/>
<circle clip-path="url(#clip722)" cx="589.79" cy="1090.42" r="7.2" fill="#008000" fill-rule="evenodd" fill-opacity="1" stroke="#000000" stroke-opacity="1" stroke-width="3.2"/>
<circle clip-path="url(#clip722)" cx="604.339" cy="1091.62" r="7.2" fill="#008000" fill-rule="evenodd" fill-opacity="1" stroke="#000000" stroke-opacity="1" stroke-width="3.2"/>
<circle clip-path="url(#clip722)" cx="618.889" cy="1092.88" r="7.2" fill="#008000" fill-rule="evenodd" fill-opacity="1" stroke="#000000" stroke-opacity="1" stroke-width="3.2"/>
<circle clip-path="url(#clip722)" cx="633.438" cy="1093.36" r="7.2" fill="#008000" fill-rule="evenodd" fill-opacity="1" stroke="#000000" stroke-opacity="1" stroke-width="3.2"/>
<circle clip-path="url(#clip722)" cx="647.988" cy="1092.64" r="7.2" fill="#008000" fill-rule="evenodd" fill-opacity="1" stroke="#000000" stroke-opacity="1" stroke-width="3.2"/>
<circle clip-path="url(#clip722)" cx="662.537" cy="1090.93" r="7.2" fill="#008000" fill-rule="evenodd" fill-opacity="1" stroke="#000000" stroke-opacity="1" stroke-width="3.2"/>
<circle clip-path="url(#clip722)" cx="677.087" cy="1089.17" r="7.2" fill="#008000" fill-rule="evenodd" fill-opacity="1" stroke="#000000" stroke-opacity="1" stroke-width="3.2"/>
<circle clip-path="url(#clip722)" cx="691.636" cy="1088.56" r="7.2" fill="#008000" fill-rule="evenodd" fill-opacity="1" stroke="#000000" stroke-opacity="1" stroke-width="3.2"/>
<circle clip-path="url(#clip722)" cx="706.186" cy="1089.12" r="7.2" fill="#008000" fill-rule="evenodd" fill-opacity="1" stroke="#000000" stroke-opacity="1" stroke-width="3.2"/>
<circle clip-path="url(#clip722)" cx="720.735" cy="1090.78" r="7.2" fill="#008000" fill-rule="evenodd" fill-opacity="1" stroke="#000000" stroke-opacity="1" stroke-width="3.2"/>
<circle clip-path="url(#clip722)" cx="735.285" cy="1092.46" r="7.2" fill="#008000" fill-rule="evenodd" fill-opacity="1" stroke="#000000" stroke-opacity="1" stroke-width="3.2"/>
<circle clip-path="url(#clip722)" cx="749.834" cy="1093.32" r="7.2" fill="#008000" fill-rule="evenodd" fill-opacity="1" stroke="#000000" stroke-opacity="1" stroke-width="3.2"/>
<circle clip-path="url(#clip722)" cx="764.384" cy="1093.4" r="7.2" fill="#008000" fill-rule="evenodd" fill-opacity="1" stroke="#000000" stroke-opacity="1" stroke-width="3.2"/>
<circle clip-path="url(#clip722)" cx="778.934" cy="1092.53" r="7.2" fill="#008000" fill-rule="evenodd" fill-opacity="1" stroke="#000000" stroke-opacity="1" stroke-width="3.2"/>
<circle clip-path="url(#clip722)" cx="793.483" cy="1092.02" r="7.2" fill="#008000" fill-rule="evenodd" fill-opacity="1" stroke="#000000" stroke-opacity="1" stroke-width="3.2"/>
<circle clip-path="url(#clip722)" cx="808.033" cy="1091.87" r="7.2" fill="#008000" fill-rule="evenodd" fill-opacity="1" stroke="#000000" stroke-opacity="1" stroke-width="3.2"/>
<circle clip-path="url(#clip722)" cx="822.582" cy="1092.05" r="7.2" fill="#008000" fill-rule="evenodd" fill-opacity="1" stroke="#000000" stroke-opacity="1" stroke-width="3.2"/>
<circle clip-path="url(#clip722)" cx="837.132" cy="1092.93" r="7.2" fill="#008000" fill-rule="evenodd" fill-opacity="1" stroke="#000000" stroke-opacity="1" stroke-width="3.2"/>
<circle clip-path="url(#clip722)" cx="851.681" cy="1093.32" r="7.2" fill="#008000" fill-rule="evenodd" fill-opacity="1" stroke="#000000" stroke-opacity="1" stroke-width="3.2"/>
<circle clip-path="url(#clip722)" cx="866.231" cy="1092.37" r="7.2" fill="#008000" fill-rule="evenodd" fill-opacity="1" stroke="#000000" stroke-opacity="1" stroke-width="3.2"/>
<circle clip-path="url(#clip722)" cx="880.78" cy="1091.02" r="7.2" fill="#008000" fill-rule="evenodd" fill-opacity="1" stroke="#000000" stroke-opacity="1" stroke-width="3.2"/>
<circle clip-path="url(#clip722)" cx="895.33" cy="1089.78" r="7.2" fill="#008000" fill-rule="evenodd" fill-opacity="1" stroke="#000000" stroke-opacity="1" stroke-width="3.2"/>
<circle clip-path="url(#clip722)" cx="909.879" cy="1087.25" r="7.2" fill="#008000" fill-rule="evenodd" fill-opacity="1" stroke="#000000" stroke-opacity="1" stroke-width="3.2"/>
<circle clip-path="url(#clip722)" cx="924.429" cy="1083.34" r="7.2" fill="#008000" fill-rule="evenodd" fill-opacity="1" stroke="#000000" stroke-opacity="1" stroke-width="3.2"/>
<circle clip-path="url(#clip722)" cx="938.978" cy="1080.21" r="7.2" fill="#008000" fill-rule="evenodd" fill-opacity="1" stroke="#000000" stroke-opacity="1" stroke-width="3.2"/>
<circle clip-path="url(#clip722)" cx="953.528" cy="1075.1" r="7.2" fill="#008000" fill-rule="evenodd" fill-opacity="1" stroke="#000000" stroke-opacity="1" stroke-width="3.2"/>
<circle clip-path="url(#clip722)" cx="968.077" cy="1065.66" r="7.2" fill="#008000" fill-rule="evenodd" fill-opacity="1" stroke="#000000" stroke-opacity="1" stroke-width="3.2"/>
<circle clip-path="url(#clip722)" cx="982.627" cy="1057.53" r="7.2" fill="#008000" fill-rule="evenodd" fill-opacity="1" stroke="#000000" stroke-opacity="1" stroke-width="3.2"/>
<circle clip-path="url(#clip722)" cx="997.176" cy="1045.65" r="7.2" fill="#008000" fill-rule="evenodd" fill-opacity="1" stroke="#000000" stroke-opacity="1" stroke-width="3.2"/>
<circle clip-path="url(#clip722)" cx="1011.73" cy="1030.73" r="7.2" fill="#008000" fill-rule="evenodd" fill-opacity="1" stroke="#000000" stroke-opacity="1" stroke-width="3.2"/>
<circle clip-path="url(#clip722)" cx="1026.28" cy="1015.16" r="7.2" fill="#008000" fill-rule="evenodd" fill-opacity="1" stroke="#000000" stroke-opacity="1" stroke-width="3.2"/>
<circle clip-path="url(#clip722)" cx="1040.83" cy="998.439" r="7.2" fill="#008000" fill-rule="evenodd" fill-opacity="1" stroke="#000000" stroke-opacity="1" stroke-width="3.2"/>
<circle clip-path="url(#clip722)" cx="1055.37" cy="977.96" r="7.2" fill="#008000" fill-rule="evenodd" fill-opacity="1" stroke="#000000" stroke-opacity="1" stroke-width="3.2"/>
<circle clip-path="url(#clip722)" cx="1069.92" cy="949.43" r="7.2" fill="#008000" fill-rule="evenodd" fill-opacity="1" stroke="#000000" stroke-opacity="1" stroke-width="3.2"/>
<circle clip-path="url(#clip722)" cx="1084.47" cy="907.889" r="7.2" fill="#008000" fill-rule="evenodd" fill-opacity="1" stroke="#000000" stroke-opacity="1" stroke-width="3.2"/>
<circle clip-path="url(#clip722)" cx="1099.02" cy="847.911" r="7.2" fill="#008000" fill-rule="evenodd" fill-opacity="1" stroke="#000000" stroke-opacity="1" stroke-width="3.2"/>
<circle clip-path="url(#clip722)" cx="1113.57" cy="768.756" r="7.2" fill="#008000" fill-rule="evenodd" fill-opacity="1" stroke="#000000" stroke-opacity="1" stroke-width="3.2"/>
<circle clip-path="url(#clip722)" cx="1128.12" cy="680.728" r="7.2" fill="#008000" fill-rule="evenodd" fill-opacity="1" stroke="#000000" stroke-opacity="1" stroke-width="3.2"/>
<circle clip-path="url(#clip722)" cx="1142.67" cy="588.224" r="7.2" fill="#008000" fill-rule="evenodd" fill-opacity="1" stroke="#000000" stroke-opacity="1" stroke-width="3.2"/>
<circle clip-path="url(#clip722)" cx="1157.22" cy="507.022" r="7.2" fill="#008000" fill-rule="evenodd" fill-opacity="1" stroke="#000000" stroke-opacity="1" stroke-width="3.2"/>
<circle clip-path="url(#clip722)" cx="1171.77" cy="447.237" r="7.2" fill="#008000" fill-rule="evenodd" fill-opacity="1" stroke="#000000" stroke-opacity="1" stroke-width="3.2"/>
<circle clip-path="url(#clip722)" cx="1186.32" cy="410.789" r="7.2" fill="#008000" fill-rule="evenodd" fill-opacity="1" stroke="#000000" stroke-opacity="1" stroke-width="3.2"/>
<circle clip-path="url(#clip722)" cx="1200.87" cy="393.08" r="7.2" fill="#008000" fill-rule="evenodd" fill-opacity="1" stroke="#000000" stroke-opacity="1" stroke-width="3.2"/>
<circle clip-path="url(#clip722)" cx="1215.42" cy="383.466" r="7.2" fill="#008000" fill-rule="evenodd" fill-opacity="1" stroke="#000000" stroke-opacity="1" stroke-width="3.2"/>
<circle clip-path="url(#clip722)" cx="1229.97" cy="370.953" r="7.2" fill="#008000" fill-rule="evenodd" fill-opacity="1" stroke="#000000" stroke-opacity="1" stroke-width="3.2"/>
<circle clip-path="url(#clip722)" cx="1244.52" cy="345.348" r="7.2" fill="#008000" fill-rule="evenodd" fill-opacity="1" stroke="#000000" stroke-opacity="1" stroke-width="3.2"/>
<circle clip-path="url(#clip722)" cx="1259.07" cy="306.111" r="7.2" fill="#008000" fill-rule="evenodd" fill-opacity="1" stroke="#000000" stroke-opacity="1" stroke-width="3.2"/>
<circle clip-path="url(#clip722)" cx="1273.62" cy="264.944" r="7.2" fill="#008000" fill-rule="evenodd" fill-opacity="1" stroke="#000000" stroke-opacity="1" stroke-width="3.2"/>
<circle clip-path="url(#clip722)" cx="1288.17" cy="225.027" r="7.2" fill="#008000" fill-rule="evenodd" fill-opacity="1" stroke="#000000" stroke-opacity="1" stroke-width="3.2"/>
<circle clip-path="url(#clip722)" cx="1302.72" cy="198.315" r="7.2" fill="#008000" fill-rule="evenodd" fill-opacity="1" stroke="#000000" stroke-opacity="1" stroke-width="3.2"/>
<circle clip-path="url(#clip722)" cx="1317.27" cy="194.601" r="7.2" fill="#008000" fill-rule="evenodd" fill-opacity="1" stroke="#000000" stroke-opacity="1" stroke-width="3.2"/>
<circle clip-path="url(#clip722)" cx="1331.82" cy="206.246" r="7.2" fill="#008000" fill-rule="evenodd" fill-opacity="1" stroke="#000000" stroke-opacity="1" stroke-width="3.2"/>
<circle clip-path="url(#clip722)" cx="1346.37" cy="224.912" r="7.2" fill="#008000" fill-rule="evenodd" fill-opacity="1" stroke="#000000" stroke-opacity="1" stroke-width="3.2"/>
<circle clip-path="url(#clip722)" cx="1360.91" cy="239.914" r="7.2" fill="#008000" fill-rule="evenodd" fill-opacity="1" stroke="#000000" stroke-opacity="1" stroke-width="3.2"/>
<circle clip-path="url(#clip722)" cx="1375.46" cy="238.839" r="7.2" fill="#008000" fill-rule="evenodd" fill-opacity="1" stroke="#000000" stroke-opacity="1" stroke-width="3.2"/>
<circle clip-path="url(#clip722)" cx="1390.01" cy="215.486" r="7.2" fill="#008000" fill-rule="evenodd" fill-opacity="1" stroke="#000000" stroke-opacity="1" stroke-width="3.2"/>
<circle clip-path="url(#clip722)" cx="1404.56" cy="175.113" r="7.2" fill="#008000" fill-rule="evenodd" fill-opacity="1" stroke="#000000" stroke-opacity="1" stroke-width="3.2"/>
<circle clip-path="url(#clip722)" cx="1419.11" cy="132.415" r="7.2" fill="#008000" fill-rule="evenodd" fill-opacity="1" stroke="#000000" stroke-opacity="1" stroke-width="3.2"/>
<circle clip-path="url(#clip722)" cx="1433.66" cy="98.0075" r="7.2" fill="#008000" fill-rule="evenodd" fill-opacity="1" stroke="#000000" stroke-opacity="1" stroke-width="3.2"/>
<circle clip-path="url(#clip722)" cx="1448.21" cy="87.9763" r="7.2" fill="#008000" fill-rule="evenodd" fill-opacity="1" stroke="#000000" stroke-opacity="1" stroke-width="3.2"/>
<circle clip-path="url(#clip722)" cx="1462.76" cy="108.926" r="7.2" fill="#008000" fill-rule="evenodd" fill-opacity="1" stroke="#000000" stroke-opacity="1" stroke-width="3.2"/>
<circle clip-path="url(#clip722)" cx="1477.31" cy="148.755" r="7.2" fill="#008000" fill-rule="evenodd" fill-opacity="1" stroke="#000000" stroke-opacity="1" stroke-width="3.2"/>
<circle clip-path="url(#clip722)" cx="1491.86" cy="197.149" r="7.2" fill="#008000" fill-rule="evenodd" fill-opacity="1" stroke="#000000" stroke-opacity="1" stroke-width="3.2"/>
<circle clip-path="url(#clip722)" cx="1506.41" cy="238.717" r="7.2" fill="#008000" fill-rule="evenodd" fill-opacity="1" stroke="#000000" stroke-opacity="1" stroke-width="3.2"/>
<circle clip-path="url(#clip722)" cx="1520.96" cy="257.432" r="7.2" fill="#008000" fill-rule="evenodd" fill-opacity="1" stroke="#000000" stroke-opacity="1" stroke-width="3.2"/>
<circle clip-path="url(#clip722)" cx="1535.51" cy="254.967" r="7.2" fill="#008000" fill-rule="evenodd" fill-opacity="1" stroke="#000000" stroke-opacity="1" stroke-width="3.2"/>
<circle clip-path="url(#clip722)" cx="1550.06" cy="241.533" r="7.2" fill="#008000" fill-rule="evenodd" fill-opacity="1" stroke="#000000" stroke-opacity="1" stroke-width="3.2"/>
<circle clip-path="url(#clip722)" cx="1564.61" cy="231.503" r="7.2" fill="#008000" fill-rule="evenodd" fill-opacity="1" stroke="#000000" stroke-opacity="1" stroke-width="3.2"/>
<circle clip-path="url(#clip722)" cx="1579.16" cy="235.239" r="7.2" fill="#008000" fill-rule="evenodd" fill-opacity="1" stroke="#000000" stroke-opacity="1" stroke-width="3.2"/>
<circle clip-path="url(#clip722)" cx="1593.71" cy="259.556" r="7.2" fill="#008000" fill-rule="evenodd" fill-opacity="1" stroke="#000000" stroke-opacity="1" stroke-width="3.2"/>
<circle clip-path="url(#clip722)" cx="1608.26" cy="302.814" r="7.2" fill="#008000" fill-rule="evenodd" fill-opacity="1" stroke="#000000" stroke-opacity="1" stroke-width="3.2"/>
<circle clip-path="url(#clip722)" cx="1622.81" cy="350.622" r="7.2" fill="#008000" fill-rule="evenodd" fill-opacity="1" stroke="#000000" stroke-opacity="1" stroke-width="3.2"/>
<circle clip-path="url(#clip722)" cx="1637.36" cy="401.129" r="7.2" fill="#008000" fill-rule="evenodd" fill-opacity="1" stroke="#000000" stroke-opacity="1" stroke-width="3.2"/>
<circle clip-path="url(#clip722)" cx="1651.91" cy="449.43" r="7.2" fill="#008000" fill-rule="evenodd" fill-opacity="1" stroke="#000000" stroke-opacity="1" stroke-width="3.2"/>
<circle clip-path="url(#clip722)" cx="1666.45" cy="487.888" r="7.2" fill="#008000" fill-rule="evenodd" fill-opacity="1" stroke="#000000" stroke-opacity="1" stroke-width="3.2"/>
<circle clip-path="url(#clip722)" cx="1681" cy="520.244" r="7.2" fill="#008000" fill-rule="evenodd" fill-opacity="1" stroke="#000000" stroke-opacity="1" stroke-width="3.2"/>
<circle clip-path="url(#clip722)" cx="1695.55" cy="547.386" r="7.2" fill="#008000" fill-rule="evenodd" fill-opacity="1" stroke="#000000" stroke-opacity="1" stroke-width="3.2"/>
<circle clip-path="url(#clip722)" cx="1710.1" cy="572.471" r="7.2" fill="#008000" fill-rule="evenodd" fill-opacity="1" stroke="#000000" stroke-opacity="1" stroke-width="3.2"/>
<circle clip-path="url(#clip722)" cx="1724.65" cy="601.56" r="7.2" fill="#008000" fill-rule="evenodd" fill-opacity="1" stroke="#000000" stroke-opacity="1" stroke-width="3.2"/>
<circle clip-path="url(#clip722)" cx="1739.2" cy="639.799" r="7.2" fill="#008000" fill-rule="evenodd" fill-opacity="1" stroke="#000000" stroke-opacity="1" stroke-width="3.2"/>
<circle clip-path="url(#clip722)" cx="1753.75" cy="693.239" r="7.2" fill="#008000" fill-rule="evenodd" fill-opacity="1" stroke="#000000" stroke-opacity="1" stroke-width="3.2"/>
<circle clip-path="url(#clip722)" cx="1768.3" cy="756.629" r="7.2" fill="#008000" fill-rule="evenodd" fill-opacity="1" stroke="#000000" stroke-opacity="1" stroke-width="3.2"/>
<circle clip-path="url(#clip722)" cx="1782.85" cy="827.991" r="7.2" fill="#008000" fill-rule="evenodd" fill-opacity="1" stroke="#000000" stroke-opacity="1" stroke-width="3.2"/>
<circle clip-path="url(#clip722)" cx="1797.4" cy="897.654" r="7.2" fill="#008000" fill-rule="evenodd" fill-opacity="1" stroke="#000000" stroke-opacity="1" stroke-width="3.2"/>
<circle clip-path="url(#clip722)" cx="1811.95" cy="952.237" r="7.2" fill="#008000" fill-rule="evenodd" fill-opacity="1" stroke="#000000" stroke-opacity="1" stroke-width="3.2"/>
<circle clip-path="url(#clip722)" cx="1826.5" cy="990.492" r="7.2" fill="#008000" fill-rule="evenodd" fill-opacity="1" stroke="#000000" stroke-opacity="1" stroke-width="3.2"/>
<circle clip-path="url(#clip722)" cx="1841.05" cy="1012.49" r="7.2" fill="#008000" fill-rule="evenodd" fill-opacity="1" stroke="#000000" stroke-opacity="1" stroke-width="3.2"/>
<circle clip-path="url(#clip722)" cx="1855.6" cy="1021.76" r="7.2" fill="#008000" fill-rule="evenodd" fill-opacity="1" stroke="#000000" stroke-opacity="1" stroke-width="3.2"/>
<circle clip-path="url(#clip722)" cx="1870.15" cy="1024.81" r="7.2" fill="#008000" fill-rule="evenodd" fill-opacity="1" stroke="#000000" stroke-opacity="1" stroke-width="3.2"/>
<circle clip-path="url(#clip722)" cx="1884.7" cy="1026.34" r="7.2" fill="#008000" fill-rule="evenodd" fill-opacity="1" stroke="#000000" stroke-opacity="1" stroke-width="3.2"/>
<circle clip-path="url(#clip722)" cx="1899.25" cy="1027.09" r="7.2" fill="#008000" fill-rule="evenodd" fill-opacity="1" stroke="#000000" stroke-opacity="1" stroke-width="3.2"/>
<circle clip-path="url(#clip722)" cx="1913.8" cy="1027.18" r="7.2" fill="#008000" fill-rule="evenodd" fill-opacity="1" stroke="#000000" stroke-opacity="1" stroke-width="3.2"/>
<circle clip-path="url(#clip722)" cx="1928.35" cy="1030.7" r="7.2" fill="#008000" fill-rule="evenodd" fill-opacity="1" stroke="#000000" stroke-opacity="1" stroke-width="3.2"/>
<circle clip-path="url(#clip722)" cx="1942.9" cy="1038.98" r="7.2" fill="#008000" fill-rule="evenodd" fill-opacity="1" stroke="#000000" stroke-opacity="1" stroke-width="3.2"/>
<circle clip-path="url(#clip722)" cx="1957.45" cy="1049.27" r="7.2" fill="#008000" fill-rule="evenodd" fill-opacity="1" stroke="#000000" stroke-opacity="1" stroke-width="3.2"/>
<circle clip-path="url(#clip722)" cx="1971.99" cy="1064.39" r="7.2" fill="#008000" fill-rule="evenodd" fill-opacity="1" stroke="#000000" stroke-opacity="1" stroke-width="3.2"/>
<circle clip-path="url(#clip722)" cx="1986.54" cy="1079.55" r="7.2" fill="#008000" fill-rule="evenodd" fill-opacity="1" stroke="#000000" stroke-opacity="1" stroke-width="3.2"/>
<circle clip-path="url(#clip722)" cx="2001.09" cy="1090.66" r="7.2" fill="#008000" fill-rule="evenodd" fill-opacity="1" stroke="#000000" stroke-opacity="1" stroke-width="3.2"/>
<circle clip-path="url(#clip722)" cx="2015.64" cy="1096.6" r="7.2" fill="#008000" fill-rule="evenodd" fill-opacity="1" stroke="#000000" stroke-opacity="1" stroke-width="3.2"/>
<circle clip-path="url(#clip722)" cx="2030.19" cy="1098.25" r="7.2" fill="#008000" fill-rule="evenodd" fill-opacity="1" stroke="#000000" stroke-opacity="1" stroke-width="3.2"/>
<circle clip-path="url(#clip722)" cx="2044.74" cy="1095.85" r="7.2" fill="#008000" fill-rule="evenodd" fill-opacity="1" stroke="#000000" stroke-opacity="1" stroke-width="3.2"/>
<circle clip-path="url(#clip722)" cx="2059.29" cy="1092.32" r="7.2" fill="#008000" fill-rule="evenodd" fill-opacity="1" stroke="#000000" stroke-opacity="1" stroke-width="3.2"/>
<circle clip-path="url(#clip722)" cx="2073.84" cy="1089.39" r="7.2" fill="#008000" fill-rule="evenodd" fill-opacity="1" stroke="#000000" stroke-opacity="1" stroke-width="3.2"/>
<circle clip-path="url(#clip722)" cx="2088.39" cy="1088.65" r="7.2" fill="#008000" fill-rule="evenodd" fill-opacity="1" stroke="#000000" stroke-opacity="1" stroke-width="3.2"/>
<circle clip-path="url(#clip722)" cx="2102.94" cy="1089.03" r="7.2" fill="#008000" fill-rule="evenodd" fill-opacity="1" stroke="#000000" stroke-opacity="1" stroke-width="3.2"/>
<circle clip-path="url(#clip722)" cx="2117.49" cy="1090.64" r="7.2" fill="#008000" fill-rule="evenodd" fill-opacity="1" stroke="#000000" stroke-opacity="1" stroke-width="3.2"/>
<circle clip-path="url(#clip722)" cx="2132.04" cy="1092.54" r="7.2" fill="#008000" fill-rule="evenodd" fill-opacity="1" stroke="#000000" stroke-opacity="1" stroke-width="3.2"/>
<circle clip-path="url(#clip722)" cx="2146.59" cy="1094.03" r="7.2" fill="#008000" fill-rule="evenodd" fill-opacity="1" stroke="#000000" stroke-opacity="1" stroke-width="3.2"/>
<circle clip-path="url(#clip722)" cx="2161.14" cy="1094.93" r="7.2" fill="#008000" fill-rule="evenodd" fill-opacity="1" stroke="#000000" stroke-opacity="1" stroke-width="3.2"/>
<circle clip-path="url(#clip722)" cx="2175.69" cy="1095.04" r="7.2" fill="#008000" fill-rule="evenodd" fill-opacity="1" stroke="#000000" stroke-opacity="1" stroke-width="3.2"/>
<circle clip-path="url(#clip722)" cx="2190.24" cy="1093.49" r="7.2" fill="#008000" fill-rule="evenodd" fill-opacity="1" stroke="#000000" stroke-opacity="1" stroke-width="3.2"/>
<circle clip-path="url(#clip722)" cx="2204.79" cy="1091.1" r="7.2" fill="#008000" fill-rule="evenodd" fill-opacity="1" stroke="#000000" stroke-opacity="1" stroke-width="3.2"/>
<circle clip-path="url(#clip722)" cx="2219.34" cy="1089.37" r="7.2" fill="#008000" fill-rule="evenodd" fill-opacity="1" stroke="#000000" stroke-opacity="1" stroke-width="3.2"/>
<circle clip-path="url(#clip722)" cx="2233.89" cy="1089.8" r="7.2" fill="#008000" fill-rule="evenodd" fill-opacity="1" stroke="#000000" stroke-opacity="1" stroke-width="3.2"/>
<circle clip-path="url(#clip722)" cx="2248.44" cy="1092.58" r="7.2" fill="#008000" fill-rule="evenodd" fill-opacity="1" stroke="#000000" stroke-opacity="1" stroke-width="3.2"/>
<circle clip-path="url(#clip722)" cx="2262.99" cy="1096.97" r="7.2" fill="#008000" fill-rule="evenodd" fill-opacity="1" stroke="#000000" stroke-opacity="1" stroke-width="3.2"/>
<circle clip-path="url(#clip722)" cx="2277.53" cy="1100.84" r="7.2" fill="#008000" fill-rule="evenodd" fill-opacity="1" stroke="#000000" stroke-opacity="1" stroke-width="3.2"/>
<circle clip-path="url(#clip722)" cx="2292.08" cy="1102.8" r="7.2" fill="#008000" fill-rule="evenodd" fill-opacity="1" stroke="#000000" stroke-opacity="1" stroke-width="3.2"/>
<circle clip-path="url(#clip722)" cx="269.7" cy="1090.64" r="7.2" fill="#008000" fill-rule="evenodd" fill-opacity="1" stroke="#000000" stroke-opacity="1" stroke-width="3.2"/>
<circle clip-path="url(#clip722)" cx="284.25" cy="1090.93" r="7.2" fill="#008000" fill-rule="evenodd" fill-opacity="1" stroke="#000000" stroke-opacity="1" stroke-width="3.2"/>
<circle clip-path="url(#clip722)" cx="298.799" cy="1092.04" r="7.2" fill="#008000" fill-rule="evenodd" fill-opacity="1" stroke="#000000" stroke-opacity="1" stroke-width="3.2"/>
<circle clip-path="url(#clip722)" cx="313.349" cy="1093.04" r="7.2" fill="#008000" fill-rule="evenodd" fill-opacity="1" stroke="#000000" stroke-opacity="1" stroke-width="3.2"/>
<circle clip-path="url(#clip722)" cx="327.898" cy="1093.36" r="7.2" fill="#008000" fill-rule="evenodd" fill-opacity="1" stroke="#000000" stroke-opacity="1" stroke-width="3.2"/>
<circle clip-path="url(#clip722)" cx="342.448" cy="1092.35" r="7.2" fill="#008000" fill-rule="evenodd" fill-opacity="1" stroke="#000000" stroke-opacity="1" stroke-width="3.2"/>
<circle clip-path="url(#clip722)" cx="356.997" cy="1090.71" r="7.2" fill="#008000" fill-rule="evenodd" fill-opacity="1" stroke="#000000" stroke-opacity="1" stroke-width="3.2"/>
<circle clip-path="url(#clip722)" cx="371.547" cy="1089.4" r="7.2" fill="#008000" fill-rule="evenodd" fill-opacity="1" stroke="#000000" stroke-opacity="1" stroke-width="3.2"/>
<circle clip-path="url(#clip722)" cx="386.096" cy="1089.48" r="7.2" fill="#008000" fill-rule="evenodd" fill-opacity="1" stroke="#000000" stroke-opacity="1" stroke-width="3.2"/>
<circle clip-path="url(#clip722)" cx="400.646" cy="1090.65" r="7.2" fill="#008000" fill-rule="evenodd" fill-opacity="1" stroke="#000000" stroke-opacity="1" stroke-width="3.2"/>
<circle clip-path="url(#clip722)" cx="415.195" cy="1092.46" r="7.2" fill="#008000" fill-rule="evenodd" fill-opacity="1" stroke="#000000" stroke-opacity="1" stroke-width="3.2"/>
<circle clip-path="url(#clip722)" cx="429.745" cy="1093.72" r="7.2" fill="#008000" fill-rule="evenodd" fill-opacity="1" stroke="#000000" stroke-opacity="1" stroke-width="3.2"/>
<circle clip-path="url(#clip722)" cx="444.294" cy="1093.66" r="7.2" fill="#008000" fill-rule="evenodd" fill-opacity="1" stroke="#000000" stroke-opacity="1" stroke-width="3.2"/>
<circle clip-path="url(#clip722)" cx="458.844" cy="1092.56" r="7.2" fill="#008000" fill-rule="evenodd" fill-opacity="1" stroke="#000000" stroke-opacity="1" stroke-width="3.2"/>
<circle clip-path="url(#clip722)" cx="473.393" cy="1090.54" r="7.2" fill="#008000" fill-rule="evenodd" fill-opacity="1" stroke="#000000" stroke-opacity="1" stroke-width="3.2"/>
<circle clip-path="url(#clip722)" cx="487.943" cy="1088.79" r="7.2" fill="#008000" fill-rule="evenodd" fill-opacity="1" stroke="#000000" stroke-opacity="1" stroke-width="3.2"/>
<circle clip-path="url(#clip722)" cx="502.492" cy="1087.86" r="7.2" fill="#008000" fill-rule="evenodd" fill-opacity="1" stroke="#000000" stroke-opacity="1" stroke-width="3.2"/>
<circle clip-path="url(#clip722)" cx="517.042" cy="1088.5" r="7.2" fill="#008000" fill-rule="evenodd" fill-opacity="1" stroke="#000000" stroke-opacity="1" stroke-width="3.2"/>
<circle clip-path="url(#clip722)" cx="531.592" cy="1090.83" r="7.2" fill="#008000" fill-rule="evenodd" fill-opacity="1" stroke="#000000" stroke-opacity="1" stroke-width="3.2"/>
<circle clip-path="url(#clip722)" cx="546.141" cy="1094.58" r="7.2" fill="#008000" fill-rule="evenodd" fill-opacity="1" stroke="#000000" stroke-opacity="1" stroke-width="3.2"/>
<circle clip-path="url(#clip722)" cx="560.691" cy="1098.51" r="7.2" fill="#008000" fill-rule="evenodd" fill-opacity="1" stroke="#000000" stroke-opacity="1" stroke-width="3.2"/>
<circle clip-path="url(#clip722)" cx="575.24" cy="1101.22" r="7.2" fill="#008000" fill-rule="evenodd" fill-opacity="1" stroke="#000000" stroke-opacity="1" stroke-width="3.2"/>
<circle clip-path="url(#clip722)" cx="589.79" cy="1101.19" r="7.2" fill="#008000" fill-rule="evenodd" fill-opacity="1" stroke="#000000" stroke-opacity="1" stroke-width="3.2"/>
<circle clip-path="url(#clip722)" cx="604.339" cy="1097.95" r="7.2" fill="#008000" fill-rule="evenodd" fill-opacity="1" stroke="#000000" stroke-opacity="1" stroke-width="3.2"/>
<circle clip-path="url(#clip722)" cx="618.889" cy="1092.6" r="7.2" fill="#008000" fill-rule="evenodd" fill-opacity="1" stroke="#000000" stroke-opacity="1" stroke-width="3.2"/>
<circle clip-path="url(#clip722)" cx="633.438" cy="1087.12" r="7.2" fill="#008000" fill-rule="evenodd" fill-opacity="1" stroke="#000000" stroke-opacity="1" stroke-width="3.2"/>
<circle clip-path="url(#clip722)" cx="647.988" cy="1083.75" r="7.2" fill="#008000" fill-rule="evenodd" fill-opacity="1" stroke="#000000" stroke-opacity="1" stroke-width="3.2"/>
<circle clip-path="url(#clip722)" cx="662.537" cy="1083.07" r="7.2" fill="#008000" fill-rule="evenodd" fill-opacity="1" stroke="#000000" stroke-opacity="1" stroke-width="3.2"/>
<circle clip-path="url(#clip722)" cx="677.087" cy="1084.72" r="7.2" fill="#008000" fill-rule="evenodd" fill-opacity="1" stroke="#000000" stroke-opacity="1" stroke-width="3.2"/>
<circle clip-path="url(#clip722)" cx="691.636" cy="1087.2" r="7.2" fill="#008000" fill-rule="evenodd" fill-opacity="1" stroke="#000000" stroke-opacity="1" stroke-width="3.2"/>
<circle clip-path="url(#clip722)" cx="706.186" cy="1089.47" r="7.2" fill="#008000" fill-rule="evenodd" fill-opacity="1" stroke="#000000" stroke-opacity="1" stroke-width="3.2"/>
<circle clip-path="url(#clip722)" cx="720.735" cy="1091.78" r="7.2" fill="#008000" fill-rule="evenodd" fill-opacity="1" stroke="#000000" stroke-opacity="1" stroke-width="3.2"/>
<circle clip-path="url(#clip722)" cx="735.285" cy="1094.15" r="7.2" fill="#008000" fill-rule="evenodd" fill-opacity="1" stroke="#000000" stroke-opacity="1" stroke-width="3.2"/>
<circle clip-path="url(#clip722)" cx="749.834" cy="1096.86" r="7.2" fill="#008000" fill-rule="evenodd" fill-opacity="1" stroke="#000000" stroke-opacity="1" stroke-width="3.2"/>
<circle clip-path="url(#clip722)" cx="764.384" cy="1099.45" r="7.2" fill="#008000" fill-rule="evenodd" fill-opacity="1" stroke="#000000" stroke-opacity="1" stroke-width="3.2"/>
<circle clip-path="url(#clip722)" cx="778.934" cy="1100.08" r="7.2" fill="#008000" fill-rule="evenodd" fill-opacity="1" stroke="#000000" stroke-opacity="1" stroke-width="3.2"/>
<circle clip-path="url(#clip722)" cx="793.483" cy="1098.13" r="7.2" fill="#008000" fill-rule="evenodd" fill-opacity="1" stroke="#000000" stroke-opacity="1" stroke-width="3.2"/>
<circle clip-path="url(#clip722)" cx="808.033" cy="1093.46" r="7.2" fill="#008000" fill-rule="evenodd" fill-opacity="1" stroke="#000000" stroke-opacity="1" stroke-width="3.2"/>
<circle clip-path="url(#clip722)" cx="822.582" cy="1088.3" r="7.2" fill="#008000" fill-rule="evenodd" fill-opacity="1" stroke="#000000" stroke-opacity="1" stroke-width="3.2"/>
<circle clip-path="url(#clip722)" cx="837.132" cy="1084.77" r="7.2" fill="#008000" fill-rule="evenodd" fill-opacity="1" stroke="#000000" stroke-opacity="1" stroke-width="3.2"/>
<circle clip-path="url(#clip722)" cx="851.681" cy="1085.08" r="7.2" fill="#008000" fill-rule="evenodd" fill-opacity="1" stroke="#000000" stroke-opacity="1" stroke-width="3.2"/>
<circle clip-path="url(#clip722)" cx="866.231" cy="1089.91" r="7.2" fill="#008000" fill-rule="evenodd" fill-opacity="1" stroke="#000000" stroke-opacity="1" stroke-width="3.2"/>
<circle clip-path="url(#clip722)" cx="880.78" cy="1097.43" r="7.2" fill="#008000" fill-rule="evenodd" fill-opacity="1" stroke="#000000" stroke-opacity="1" stroke-width="3.2"/>
<circle clip-path="url(#clip722)" cx="895.33" cy="1105.57" r="7.2" fill="#008000" fill-rule="evenodd" fill-opacity="1" stroke="#000000" stroke-opacity="1" stroke-width="3.2"/>
<circle clip-path="url(#clip722)" cx="909.879" cy="1110.74" r="7.2" fill="#008000" fill-rule="evenodd" fill-opacity="1" stroke="#000000" stroke-opacity="1" stroke-width="3.2"/>
<circle clip-path="url(#clip722)" cx="924.429" cy="1112.32" r="7.2" fill="#008000" fill-rule="evenodd" fill-opacity="1" stroke="#000000" stroke-opacity="1" stroke-width="3.2"/>
<circle clip-path="url(#clip722)" cx="938.978" cy="1111.39" r="7.2" fill="#008000" fill-rule="evenodd" fill-opacity="1" stroke="#000000" stroke-opacity="1" stroke-width="3.2"/>
<circle clip-path="url(#clip722)" cx="953.528" cy="1110.57" r="7.2" fill="#008000" fill-rule="evenodd" fill-opacity="1" stroke="#000000" stroke-opacity="1" stroke-width="3.2"/>
<circle clip-path="url(#clip722)" cx="968.077" cy="1111.85" r="7.2" fill="#008000" fill-rule="evenodd" fill-opacity="1" stroke="#000000" stroke-opacity="1" stroke-width="3.2"/>
<circle clip-path="url(#clip722)" cx="982.627" cy="1117.56" r="7.2" fill="#008000" fill-rule="evenodd" fill-opacity="1" stroke="#000000" stroke-opacity="1" stroke-width="3.2"/>
<circle clip-path="url(#clip722)" cx="997.176" cy="1125.74" r="7.2" fill="#008000" fill-rule="evenodd" fill-opacity="1" stroke="#000000" stroke-opacity="1" stroke-width="3.2"/>
<circle clip-path="url(#clip722)" cx="1011.73" cy="1133.4" r="7.2" fill="#008000" fill-rule="evenodd" fill-opacity="1" stroke="#000000" stroke-opacity="1" stroke-width="3.2"/>
<circle clip-path="url(#clip722)" cx="1026.28" cy="1137.11" r="7.2" fill="#008000" fill-rule="evenodd" fill-opacity="1" stroke="#000000" stroke-opacity="1" stroke-width="3.2"/>
<circle clip-path="url(#clip722)" cx="1040.83" cy="1133.98" r="7.2" fill="#008000" fill-rule="evenodd" fill-opacity="1" stroke="#000000" stroke-opacity="1" stroke-width="3.2"/>
<circle clip-path="url(#clip722)" cx="1055.37" cy="1125.93" r="7.2" fill="#008000" fill-rule="evenodd" fill-opacity="1" stroke="#000000" stroke-opacity="1" stroke-width="3.2"/>
<circle clip-path="url(#clip722)" cx="1069.92" cy="1114.64" r="7.2" fill="#008000" fill-rule="evenodd" fill-opacity="1" stroke="#000000" stroke-opacity="1" stroke-width="3.2"/>
<circle clip-path="url(#clip722)" cx="1084.47" cy="1101.62" r="7.2" fill="#008000" fill-rule="evenodd" fill-opacity="1" stroke="#000000" stroke-opacity="1" stroke-width="3.2"/>
<circle clip-path="url(#clip722)" cx="1099.02" cy="1089.3" r="7.2" fill="#008000" fill-rule="evenodd" fill-opacity="1" stroke="#000000" stroke-opacity="1" stroke-width="3.2"/>
<circle clip-path="url(#clip722)" cx="1113.57" cy="1077.66" r="7.2" fill="#008000" fill-rule="evenodd" fill-opacity="1" stroke="#000000" stroke-opacity="1" stroke-width="3.2"/>
<circle clip-path="url(#clip722)" cx="1128.12" cy="1065.19" r="7.2" fill="#008000" fill-rule="evenodd" fill-opacity="1" stroke="#000000" stroke-opacity="1" stroke-width="3.2"/>
<circle clip-path="url(#clip722)" cx="1142.67" cy="1053.81" r="7.2" fill="#008000" fill-rule="evenodd" fill-opacity="1" stroke="#000000" stroke-opacity="1" stroke-width="3.2"/>
<circle clip-path="url(#clip722)" cx="1157.22" cy="1045.93" r="7.2" fill="#008000" fill-rule="evenodd" fill-opacity="1" stroke="#000000" stroke-opacity="1" stroke-width="3.2"/>
<circle clip-path="url(#clip722)" cx="1171.77" cy="1044.1" r="7.2" fill="#008000" fill-rule="evenodd" fill-opacity="1" stroke="#000000" stroke-opacity="1" stroke-width="3.2"/>
<circle clip-path="url(#clip722)" cx="1186.32" cy="1050.11" r="7.2" fill="#008000" fill-rule="evenodd" fill-opacity="1" stroke="#000000" stroke-opacity="1" stroke-width="3.2"/>
<circle clip-path="url(#clip722)" cx="1200.87" cy="1064.78" r="7.2" fill="#008000" fill-rule="evenodd" fill-opacity="1" stroke="#000000" stroke-opacity="1" stroke-width="3.2"/>
<circle clip-path="url(#clip722)" cx="1215.42" cy="1085.31" r="7.2" fill="#008000" fill-rule="evenodd" fill-opacity="1" stroke="#000000" stroke-opacity="1" stroke-width="3.2"/>
<circle clip-path="url(#clip722)" cx="1229.97" cy="1108.37" r="7.2" fill="#008000" fill-rule="evenodd" fill-opacity="1" stroke="#000000" stroke-opacity="1" stroke-width="3.2"/>
<circle clip-path="url(#clip722)" cx="1244.52" cy="1131.68" r="7.2" fill="#008000" fill-rule="evenodd" fill-opacity="1" stroke="#000000" stroke-opacity="1" stroke-width="3.2"/>
<circle clip-path="url(#clip722)" cx="1259.07" cy="1154.38" r="7.2" fill="#008000" fill-rule="evenodd" fill-opacity="1" stroke="#000000" stroke-opacity="1" stroke-width="3.2"/>
<circle clip-path="url(#clip722)" cx="1273.62" cy="1175" r="7.2" fill="#008000" fill-rule="evenodd" fill-opacity="1" stroke="#000000" stroke-opacity="1" stroke-width="3.2"/>
<circle clip-path="url(#clip722)" cx="1288.17" cy="1195.08" r="7.2" fill="#008000" fill-rule="evenodd" fill-opacity="1" stroke="#000000" stroke-opacity="1" stroke-width="3.2"/>
<circle clip-path="url(#clip722)" cx="1302.72" cy="1212.63" r="7.2" fill="#008000" fill-rule="evenodd" fill-opacity="1" stroke="#000000" stroke-opacity="1" stroke-width="3.2"/>
<circle clip-path="url(#clip722)" cx="1317.27" cy="1227.29" r="7.2" fill="#008000" fill-rule="evenodd" fill-opacity="1" stroke="#000000" stroke-opacity="1" stroke-width="3.2"/>
<circle clip-path="url(#clip722)" cx="1331.82" cy="1238.44" r="7.2" fill="#008000" fill-rule="evenodd" fill-opacity="1" stroke="#000000" stroke-opacity="1" stroke-width="3.2"/>
<circle clip-path="url(#clip722)" cx="1346.37" cy="1248.02" r="7.2" fill="#008000" fill-rule="evenodd" fill-opacity="1" stroke="#000000" stroke-opacity="1" stroke-width="3.2"/>
<circle clip-path="url(#clip722)" cx="1360.91" cy="1258.76" r="7.2" fill="#008000" fill-rule="evenodd" fill-opacity="1" stroke="#000000" stroke-opacity="1" stroke-width="3.2"/>
<circle clip-path="url(#clip722)" cx="1375.46" cy="1271.69" r="7.2" fill="#008000" fill-rule="evenodd" fill-opacity="1" stroke="#000000" stroke-opacity="1" stroke-width="3.2"/>
<circle clip-path="url(#clip722)" cx="1390.01" cy="1288.37" r="7.2" fill="#008000" fill-rule="evenodd" fill-opacity="1" stroke="#000000" stroke-opacity="1" stroke-width="3.2"/>
<circle clip-path="url(#clip722)" cx="1404.56" cy="1306.61" r="7.2" fill="#008000" fill-rule="evenodd" fill-opacity="1" stroke="#000000" stroke-opacity="1" stroke-width="3.2"/>
<circle clip-path="url(#clip722)" cx="1419.11" cy="1322.48" r="7.2" fill="#008000" fill-rule="evenodd" fill-opacity="1" stroke="#000000" stroke-opacity="1" stroke-width="3.2"/>
<circle clip-path="url(#clip722)" cx="1433.66" cy="1337.08" r="7.2" fill="#008000" fill-rule="evenodd" fill-opacity="1" stroke="#000000" stroke-opacity="1" stroke-width="3.2"/>
<circle clip-path="url(#clip722)" cx="1448.21" cy="1348.48" r="7.2" fill="#008000" fill-rule="evenodd" fill-opacity="1" stroke="#000000" stroke-opacity="1" stroke-width="3.2"/>
<circle clip-path="url(#clip722)" cx="1462.76" cy="1358.02" r="7.2" fill="#008000" fill-rule="evenodd" fill-opacity="1" stroke="#000000" stroke-opacity="1" stroke-width="3.2"/>
<circle clip-path="url(#clip722)" cx="1477.31" cy="1369.21" r="7.2" fill="#008000" fill-rule="evenodd" fill-opacity="1" stroke="#000000" stroke-opacity="1" stroke-width="3.2"/>
<circle clip-path="url(#clip722)" cx="1491.86" cy="1383.98" r="7.2" fill="#008000" fill-rule="evenodd" fill-opacity="1" stroke="#000000" stroke-opacity="1" stroke-width="3.2"/>
<circle clip-path="url(#clip722)" cx="1506.41" cy="1402.11" r="7.2" fill="#008000" fill-rule="evenodd" fill-opacity="1" stroke="#000000" stroke-opacity="1" stroke-width="3.2"/>
<circle clip-path="url(#clip722)" cx="1520.96" cy="1420.75" r="7.2" fill="#008000" fill-rule="evenodd" fill-opacity="1" stroke="#000000" stroke-opacity="1" stroke-width="3.2"/>
<circle clip-path="url(#clip722)" cx="1535.51" cy="1436.79" r="7.2" fill="#008000" fill-rule="evenodd" fill-opacity="1" stroke="#000000" stroke-opacity="1" stroke-width="3.2"/>
<circle clip-path="url(#clip722)" cx="1550.06" cy="1445.72" r="7.2" fill="#008000" fill-rule="evenodd" fill-opacity="1" stroke="#000000" stroke-opacity="1" stroke-width="3.2"/>
<circle clip-path="url(#clip722)" cx="1564.61" cy="1443.43" r="7.2" fill="#008000" fill-rule="evenodd" fill-opacity="1" stroke="#000000" stroke-opacity="1" stroke-width="3.2"/>
<circle clip-path="url(#clip722)" cx="1579.16" cy="1432.3" r="7.2" fill="#008000" fill-rule="evenodd" fill-opacity="1" stroke="#000000" stroke-opacity="1" stroke-width="3.2"/>
<circle clip-path="url(#clip722)" cx="1593.71" cy="1413.64" r="7.2" fill="#008000" fill-rule="evenodd" fill-opacity="1" stroke="#000000" stroke-opacity="1" stroke-width="3.2"/>
<circle clip-path="url(#clip722)" cx="1608.26" cy="1391.87" r="7.2" fill="#008000" fill-rule="evenodd" fill-opacity="1" stroke="#000000" stroke-opacity="1" stroke-width="3.2"/>
<circle clip-path="url(#clip722)" cx="1622.81" cy="1374.64" r="7.2" fill="#008000" fill-rule="evenodd" fill-opacity="1" stroke="#000000" stroke-opacity="1" stroke-width="3.2"/>
<circle clip-path="url(#clip722)" cx="1637.36" cy="1363.86" r="7.2" fill="#008000" fill-rule="evenodd" fill-opacity="1" stroke="#000000" stroke-opacity="1" stroke-width="3.2"/>
<circle clip-path="url(#clip722)" cx="1651.91" cy="1361.41" r="7.2" fill="#008000" fill-rule="evenodd" fill-opacity="1" stroke="#000000" stroke-opacity="1" stroke-width="3.2"/>
<circle clip-path="url(#clip722)" cx="1666.45" cy="1367.56" r="7.2" fill="#008000" fill-rule="evenodd" fill-opacity="1" stroke="#000000" stroke-opacity="1" stroke-width="3.2"/>
<circle clip-path="url(#clip722)" cx="1681" cy="1379.66" r="7.2" fill="#008000" fill-rule="evenodd" fill-opacity="1" stroke="#000000" stroke-opacity="1" stroke-width="3.2"/>
<circle clip-path="url(#clip722)" cx="1695.55" cy="1392.43" r="7.2" fill="#008000" fill-rule="evenodd" fill-opacity="1" stroke="#000000" stroke-opacity="1" stroke-width="3.2"/>
<circle clip-path="url(#clip722)" cx="1710.1" cy="1401.3" r="7.2" fill="#008000" fill-rule="evenodd" fill-opacity="1" stroke="#000000" stroke-opacity="1" stroke-width="3.2"/>
<circle clip-path="url(#clip722)" cx="1724.65" cy="1401.79" r="7.2" fill="#008000" fill-rule="evenodd" fill-opacity="1" stroke="#000000" stroke-opacity="1" stroke-width="3.2"/>
<circle clip-path="url(#clip722)" cx="1739.2" cy="1390.17" r="7.2" fill="#008000" fill-rule="evenodd" fill-opacity="1" stroke="#000000" stroke-opacity="1" stroke-width="3.2"/>
<circle clip-path="url(#clip722)" cx="1753.75" cy="1365.87" r="7.2" fill="#008000" fill-rule="evenodd" fill-opacity="1" stroke="#000000" stroke-opacity="1" stroke-width="3.2"/>
<circle clip-path="url(#clip722)" cx="1768.3" cy="1334.26" r="7.2" fill="#008000" fill-rule="evenodd" fill-opacity="1" stroke="#000000" stroke-opacity="1" stroke-width="3.2"/>
<circle clip-path="url(#clip722)" cx="1782.85" cy="1299.02" r="7.2" fill="#008000" fill-rule="evenodd" fill-opacity="1" stroke="#000000" stroke-opacity="1" stroke-width="3.2"/>
<circle clip-path="url(#clip722)" cx="1797.4" cy="1266.88" r="7.2" fill="#008000" fill-rule="evenodd" fill-opacity="1" stroke="#000000" stroke-opacity="1" stroke-width="3.2"/>
<circle clip-path="url(#clip722)" cx="1811.95" cy="1241.99" r="7.2" fill="#008000" fill-rule="evenodd" fill-opacity="1" stroke="#000000" stroke-opacity="1" stroke-width="3.2"/>
<circle clip-path="url(#clip722)" cx="1826.5" cy="1222.75" r="7.2" fill="#008000" fill-rule="evenodd" fill-opacity="1" stroke="#000000" stroke-opacity="1" stroke-width="3.2"/>
<circle clip-path="url(#clip722)" cx="1841.05" cy="1205.72" r="7.2" fill="#008000" fill-rule="evenodd" fill-opacity="1" stroke="#000000" stroke-opacity="1" stroke-width="3.2"/>
<circle clip-path="url(#clip722)" cx="1855.6" cy="1185.67" r="7.2" fill="#008000" fill-rule="evenodd" fill-opacity="1" stroke="#000000" stroke-opacity="1" stroke-width="3.2"/>
<circle clip-path="url(#clip722)" cx="1870.15" cy="1161.85" r="7.2" fill="#008000" fill-rule="evenodd" fill-opacity="1" stroke="#000000" stroke-opacity="1" stroke-width="3.2"/>
<circle clip-path="url(#clip722)" cx="1884.7" cy="1137" r="7.2" fill="#008000" fill-rule="evenodd" fill-opacity="1" stroke="#000000" stroke-opacity="1" stroke-width="3.2"/>
<circle clip-path="url(#clip722)" cx="1899.25" cy="1114.11" r="7.2" fill="#008000" fill-rule="evenodd" fill-opacity="1" stroke="#000000" stroke-opacity="1" stroke-width="3.2"/>
<circle clip-path="url(#clip722)" cx="1913.8" cy="1098.7" r="7.2" fill="#008000" fill-rule="evenodd" fill-opacity="1" stroke="#000000" stroke-opacity="1" stroke-width="3.2"/>
<circle clip-path="url(#clip722)" cx="1928.35" cy="1090.23" r="7.2" fill="#008000" fill-rule="evenodd" fill-opacity="1" stroke="#000000" stroke-opacity="1" stroke-width="3.2"/>
<circle clip-path="url(#clip722)" cx="1942.9" cy="1087.41" r="7.2" fill="#008000" fill-rule="evenodd" fill-opacity="1" stroke="#000000" stroke-opacity="1" stroke-width="3.2"/>
<circle clip-path="url(#clip722)" cx="1957.45" cy="1089.41" r="7.2" fill="#008000" fill-rule="evenodd" fill-opacity="1" stroke="#000000" stroke-opacity="1" stroke-width="3.2"/>
<circle clip-path="url(#clip722)" cx="1971.99" cy="1092.65" r="7.2" fill="#008000" fill-rule="evenodd" fill-opacity="1" stroke="#000000" stroke-opacity="1" stroke-width="3.2"/>
<circle clip-path="url(#clip722)" cx="1986.54" cy="1097.76" r="7.2" fill="#008000" fill-rule="evenodd" fill-opacity="1" stroke="#000000" stroke-opacity="1" stroke-width="3.2"/>
<circle clip-path="url(#clip722)" cx="2001.09" cy="1106.01" r="7.2" fill="#008000" fill-rule="evenodd" fill-opacity="1" stroke="#000000" stroke-opacity="1" stroke-width="3.2"/>
<circle clip-path="url(#clip722)" cx="2015.64" cy="1116.86" r="7.2" fill="#008000" fill-rule="evenodd" fill-opacity="1" stroke="#000000" stroke-opacity="1" stroke-width="3.2"/>
<circle clip-path="url(#clip722)" cx="2030.19" cy="1127.82" r="7.2" fill="#008000" fill-rule="evenodd" fill-opacity="1" stroke="#000000" stroke-opacity="1" stroke-width="3.2"/>
<circle clip-path="url(#clip722)" cx="2044.74" cy="1137.64" r="7.2" fill="#008000" fill-rule="evenodd" fill-opacity="1" stroke="#000000" stroke-opacity="1" stroke-width="3.2"/>
<circle clip-path="url(#clip722)" cx="2059.29" cy="1144.25" r="7.2" fill="#008000" fill-rule="evenodd" fill-opacity="1" stroke="#000000" stroke-opacity="1" stroke-width="3.2"/>
<circle clip-path="url(#clip722)" cx="2073.84" cy="1146.67" r="7.2" fill="#008000" fill-rule="evenodd" fill-opacity="1" stroke="#000000" stroke-opacity="1" stroke-width="3.2"/>
<circle clip-path="url(#clip722)" cx="2088.39" cy="1146.72" r="7.2" fill="#008000" fill-rule="evenodd" fill-opacity="1" stroke="#000000" stroke-opacity="1" stroke-width="3.2"/>
<circle clip-path="url(#clip722)" cx="2102.94" cy="1146.84" r="7.2" fill="#008000" fill-rule="evenodd" fill-opacity="1" stroke="#000000" stroke-opacity="1" stroke-width="3.2"/>
<circle clip-path="url(#clip722)" cx="2117.49" cy="1146.53" r="7.2" fill="#008000" fill-rule="evenodd" fill-opacity="1" stroke="#000000" stroke-opacity="1" stroke-width="3.2"/>
<circle clip-path="url(#clip722)" cx="2132.04" cy="1145.35" r="7.2" fill="#008000" fill-rule="evenodd" fill-opacity="1" stroke="#000000" stroke-opacity="1" stroke-width="3.2"/>
<circle clip-path="url(#clip722)" cx="2146.59" cy="1142.14" r="7.2" fill="#008000" fill-rule="evenodd" fill-opacity="1" stroke="#000000" stroke-opacity="1" stroke-width="3.2"/>
<circle clip-path="url(#clip722)" cx="2161.14" cy="1137.06" r="7.2" fill="#008000" fill-rule="evenodd" fill-opacity="1" stroke="#000000" stroke-opacity="1" stroke-width="3.2"/>
<circle clip-path="url(#clip722)" cx="2175.69" cy="1131.7" r="7.2" fill="#008000" fill-rule="evenodd" fill-opacity="1" stroke="#000000" stroke-opacity="1" stroke-width="3.2"/>
<circle clip-path="url(#clip722)" cx="2190.24" cy="1127.67" r="7.2" fill="#008000" fill-rule="evenodd" fill-opacity="1" stroke="#000000" stroke-opacity="1" stroke-width="3.2"/>
<circle clip-path="url(#clip722)" cx="2204.79" cy="1126.47" r="7.2" fill="#008000" fill-rule="evenodd" fill-opacity="1" stroke="#000000" stroke-opacity="1" stroke-width="3.2"/>
<circle clip-path="url(#clip722)" cx="2219.34" cy="1127.53" r="7.2" fill="#008000" fill-rule="evenodd" fill-opacity="1" stroke="#000000" stroke-opacity="1" stroke-width="3.2"/>
<circle clip-path="url(#clip722)" cx="2233.89" cy="1127.98" r="7.2" fill="#008000" fill-rule="evenodd" fill-opacity="1" stroke="#000000" stroke-opacity="1" stroke-width="3.2"/>
<circle clip-path="url(#clip722)" cx="2248.44" cy="1125.88" r="7.2" fill="#008000" fill-rule="evenodd" fill-opacity="1" stroke="#000000" stroke-opacity="1" stroke-width="3.2"/>
<circle clip-path="url(#clip722)" cx="2262.99" cy="1120.54" r="7.2" fill="#008000" fill-rule="evenodd" fill-opacity="1" stroke="#000000" stroke-opacity="1" stroke-width="3.2"/>
<circle clip-path="url(#clip722)" cx="2277.53" cy="1113.37" r="7.2" fill="#008000" fill-rule="evenodd" fill-opacity="1" stroke="#000000" stroke-opacity="1" stroke-width="3.2"/>
<circle clip-path="url(#clip722)" cx="2292.08" cy="1106.8" r="7.2" fill="#008000" fill-rule="evenodd" fill-opacity="1" stroke="#000000" stroke-opacity="1" stroke-width="3.2"/>
</svg>
