<?xml version="1.0" encoding="utf-8"?>
<svg xmlns="http://www.w3.org/2000/svg" xmlns:xlink="http://www.w3.org/1999/xlink" width="600" height="400" viewBox="0 0 2400 1600">
<defs>
  <clipPath id="clip440">
    <rect x="0" y="0" width="2400" height="1600"/>
  </clipPath>
</defs>
<path clip-path="url(#clip440)" d="M0 1600 L2400 1600 L2400 8.88178e-14 L0 8.88178e-14  Z" fill="#ffffff" fill-rule="evenodd" fill-opacity="1"/>
<defs>
  <clipPath id="clip441">
    <rect x="480" y="0" width="1681" height="1600"/>
  </clipPath>
</defs>
<path clip-path="url(#clip440)" d="M239.19 1486.45 L2352.76 1486.45 L2352.76 47.2441 L239.19 47.2441  Z" fill="#ffffff" fill-rule="evenodd" fill-opacity="1"/>
<defs>
  <clipPath id="clip442">
    <rect x="239" y="47" width="2115" height="1440"/>
  </clipPath>
</defs>
<polyline clip-path="url(#clip440)" style="stroke:#000000; stroke-linecap:round; stroke-linejoin:round; stroke-width:4; stroke-opacity:1; fill:none" points="239.19,1486.45 2352.76,1486.45 "/>
<polyline clip-path="url(#clip440)" style="stroke:#000000; stroke-linecap:round; stroke-linejoin:round; stroke-width:4; stroke-opacity:1; fill:none" points="284.663,1486.45 284.663,1467.55 "/>
<polyline clip-path="url(#clip440)" style="stroke:#000000; stroke-linecap:round; stroke-linejoin:round; stroke-width:4; stroke-opacity:1; fill:none" points="643.284,1486.45 643.284,1467.55 "/>
<polyline clip-path="url(#clip440)" style="stroke:#000000; stroke-linecap:round; stroke-linejoin:round; stroke-width:4; stroke-opacity:1; fill:none" points="1001.9,1486.45 1001.9,1467.55 "/>
<polyline clip-path="url(#clip440)" style="stroke:#000000; stroke-linecap:round; stroke-linejoin:round; stroke-width:4; stroke-opacity:1; fill:none" points="1360.52,1486.45 1360.52,1467.55 "/>
<polyline clip-path="url(#clip440)" style="stroke:#000000; stroke-linecap:round; stroke-linejoin:round; stroke-width:4; stroke-opacity:1; fill:none" points="1719.15,1486.45 1719.15,1467.55 "/>
<polyline clip-path="url(#clip440)" style="stroke:#000000; stroke-linecap:round; stroke-linejoin:round; stroke-width:4; stroke-opacity:1; fill:none" points="2077.77,1486.45 2077.77,1467.55 "/>
<path clip-path="url(#clip440)" d="M284.663 1517.37 Q281.052 1517.37 279.224 1520.93 Q277.418 1524.47 277.418 1531.6 Q277.418 1538.71 279.224 1542.27 Q281.052 1545.82 284.663 1545.82 Q288.298 1545.82 290.103 1542.27 Q291.932 1538.71 291.932 1531.6 Q291.932 1524.47 290.103 1520.93 Q288.298 1517.37 284.663 1517.37 M284.663 1513.66 Q290.474 1513.66 293.529 1518.27 Q296.608 1522.85 296.608 1531.6 Q296.608 1540.33 293.529 1544.94 Q290.474 1549.52 284.663 1549.52 Q278.853 1549.52 275.775 1544.94 Q272.719 1540.33 272.719 1531.6 Q272.719 1522.85 275.775 1518.27 Q278.853 1513.66 284.663 1513.66 Z" fill="#000000" fill-rule="nonzero" fill-opacity="1" /><path clip-path="url(#clip440)" d="M622.555 1544.91 L638.874 1544.91 L638.874 1548.85 L616.93 1548.85 L616.93 1544.91 Q619.592 1542.16 624.175 1537.53 Q628.782 1532.88 629.962 1531.53 Q632.208 1529.01 633.087 1527.27 Q633.99 1525.51 633.99 1523.82 Q633.99 1521.07 632.046 1519.33 Q630.124 1517.6 627.022 1517.6 Q624.823 1517.6 622.37 1518.36 Q619.939 1519.13 617.161 1520.68 L617.161 1515.95 Q619.985 1514.82 622.439 1514.24 Q624.893 1513.66 626.93 1513.66 Q632.3 1513.66 635.495 1516.35 Q638.689 1519.03 638.689 1523.52 Q638.689 1525.65 637.879 1527.57 Q637.092 1529.47 634.985 1532.07 Q634.407 1532.74 631.305 1535.95 Q628.203 1539.15 622.555 1544.91 Z" fill="#000000" fill-rule="nonzero" fill-opacity="1" /><path clip-path="url(#clip440)" d="M648.735 1514.29 L667.092 1514.29 L667.092 1518.22 L653.018 1518.22 L653.018 1526.7 Q654.036 1526.35 655.055 1526.19 Q656.073 1526 657.092 1526 Q662.879 1526 666.258 1529.17 Q669.638 1532.34 669.638 1537.76 Q669.638 1543.34 666.166 1546.44 Q662.694 1549.52 656.374 1549.52 Q654.198 1549.52 651.93 1549.15 Q649.684 1548.78 647.277 1548.04 L647.277 1543.34 Q649.36 1544.47 651.582 1545.03 Q653.805 1545.58 656.282 1545.58 Q660.286 1545.58 662.624 1543.48 Q664.962 1541.37 664.962 1537.76 Q664.962 1534.15 662.624 1532.04 Q660.286 1529.94 656.282 1529.94 Q654.407 1529.94 652.532 1530.35 Q650.68 1530.77 648.735 1531.65 L648.735 1514.29 Z" fill="#000000" fill-rule="nonzero" fill-opacity="1" /><path clip-path="url(#clip440)" d="M976.604 1514.29 L994.96 1514.29 L994.96 1518.22 L980.886 1518.22 L980.886 1526.7 Q981.904 1526.35 982.923 1526.19 Q983.942 1526 984.96 1526 Q990.747 1526 994.127 1529.17 Q997.506 1532.34 997.506 1537.76 Q997.506 1543.34 994.034 1546.44 Q990.562 1549.52 984.242 1549.52 Q982.067 1549.52 979.798 1549.15 Q977.553 1548.78 975.145 1548.04 L975.145 1543.34 Q977.229 1544.47 979.451 1545.03 Q981.673 1545.58 984.15 1545.58 Q988.154 1545.58 990.492 1543.48 Q992.83 1541.37 992.83 1537.76 Q992.83 1534.15 990.492 1532.04 Q988.154 1529.94 984.15 1529.94 Q982.275 1529.94 980.4 1530.35 Q978.548 1530.77 976.604 1531.65 L976.604 1514.29 Z" fill="#000000" fill-rule="nonzero" fill-opacity="1" /><path clip-path="url(#clip440)" d="M1016.72 1517.37 Q1013.11 1517.37 1011.28 1520.93 Q1009.47 1524.47 1009.47 1531.6 Q1009.47 1538.71 1011.28 1542.27 Q1013.11 1545.82 1016.72 1545.82 Q1020.35 1545.82 1022.16 1542.27 Q1023.99 1538.71 1023.99 1531.6 Q1023.99 1524.47 1022.16 1520.93 Q1020.35 1517.37 1016.72 1517.37 M1016.72 1513.66 Q1022.53 1513.66 1025.58 1518.27 Q1028.66 1522.85 1028.66 1531.6 Q1028.66 1540.33 1025.58 1544.94 Q1022.53 1549.52 1016.72 1549.52 Q1010.91 1549.52 1007.83 1544.94 Q1004.77 1540.33 1004.77 1531.6 Q1004.77 1522.85 1007.83 1518.27 Q1010.91 1513.66 1016.72 1513.66 Z" fill="#000000" fill-rule="nonzero" fill-opacity="1" /><path clip-path="url(#clip440)" d="M1334.38 1514.29 L1356.6 1514.29 L1356.6 1516.28 L1344.06 1548.85 L1339.17 1548.85 L1350.98 1518.22 L1334.38 1518.22 L1334.38 1514.29 Z" fill="#000000" fill-rule="nonzero" fill-opacity="1" /><path clip-path="url(#clip440)" d="M1365.77 1514.29 L1384.12 1514.29 L1384.12 1518.22 L1370.05 1518.22 L1370.05 1526.7 Q1371.07 1526.35 1372.09 1526.19 Q1373.11 1526 1374.12 1526 Q1379.91 1526 1383.29 1529.17 Q1386.67 1532.34 1386.67 1537.76 Q1386.67 1543.34 1383.2 1546.44 Q1379.73 1549.52 1373.41 1549.52 Q1371.23 1549.52 1368.96 1549.15 Q1366.72 1548.78 1364.31 1548.04 L1364.31 1543.34 Q1366.39 1544.47 1368.62 1545.03 Q1370.84 1545.58 1373.31 1545.58 Q1377.32 1545.58 1379.66 1543.48 Q1381.99 1541.37 1381.99 1537.76 Q1381.99 1534.15 1379.66 1532.04 Q1377.32 1529.94 1373.31 1529.94 Q1371.44 1529.94 1369.56 1530.35 Q1367.71 1530.77 1365.77 1531.65 L1365.77 1514.29 Z" fill="#000000" fill-rule="nonzero" fill-opacity="1" /><path clip-path="url(#clip440)" d="M1678.75 1544.91 L1686.39 1544.91 L1686.39 1518.55 L1678.08 1520.21 L1678.08 1515.95 L1686.34 1514.29 L1691.02 1514.29 L1691.02 1544.91 L1698.66 1544.91 L1698.66 1548.85 L1678.75 1548.85 L1678.75 1544.91 Z" fill="#000000" fill-rule="nonzero" fill-opacity="1" /><path clip-path="url(#clip440)" d="M1718.1 1517.37 Q1714.49 1517.37 1712.66 1520.93 Q1710.86 1524.47 1710.86 1531.6 Q1710.86 1538.71 1712.66 1542.27 Q1714.49 1545.82 1718.1 1545.82 Q1721.74 1545.82 1723.54 1542.27 Q1725.37 1538.71 1725.37 1531.6 Q1725.37 1524.47 1723.54 1520.93 Q1721.74 1517.37 1718.1 1517.37 M1718.1 1513.66 Q1723.91 1513.66 1726.97 1518.27 Q1730.05 1522.85 1730.05 1531.6 Q1730.05 1540.33 1726.97 1544.94 Q1723.91 1549.52 1718.1 1549.52 Q1712.29 1549.52 1709.21 1544.94 Q1706.16 1540.33 1706.16 1531.6 Q1706.16 1522.85 1709.21 1518.27 Q1712.29 1513.66 1718.1 1513.66 Z" fill="#000000" fill-rule="nonzero" fill-opacity="1" /><path clip-path="url(#clip440)" d="M1748.27 1517.37 Q1744.65 1517.37 1742.83 1520.93 Q1741.02 1524.47 1741.02 1531.6 Q1741.02 1538.71 1742.83 1542.27 Q1744.65 1545.82 1748.27 1545.82 Q1751.9 1545.82 1753.71 1542.27 Q1755.53 1538.71 1755.53 1531.6 Q1755.53 1524.47 1753.71 1520.93 Q1751.9 1517.37 1748.27 1517.37 M1748.27 1513.66 Q1754.08 1513.66 1757.13 1518.27 Q1760.21 1522.85 1760.21 1531.6 Q1760.21 1540.33 1757.13 1544.94 Q1754.08 1549.52 1748.27 1549.52 Q1742.46 1549.52 1739.38 1544.94 Q1736.32 1540.33 1736.32 1531.6 Q1736.32 1522.85 1739.38 1518.27 Q1742.46 1513.66 1748.27 1513.66 Z" fill="#000000" fill-rule="nonzero" fill-opacity="1" /><path clip-path="url(#clip440)" d="M2037.87 1544.91 L2045.51 1544.91 L2045.51 1518.55 L2037.2 1520.21 L2037.2 1515.95 L2045.46 1514.29 L2050.14 1514.29 L2050.14 1544.91 L2057.78 1544.91 L2057.78 1548.85 L2037.87 1548.85 L2037.87 1544.91 Z" fill="#000000" fill-rule="nonzero" fill-opacity="1" /><path clip-path="url(#clip440)" d="M2071.25 1544.91 L2087.57 1544.91 L2087.57 1548.85 L2065.62 1548.85 L2065.62 1544.91 Q2068.29 1542.16 2072.87 1537.53 Q2077.48 1532.88 2078.66 1531.53 Q2080.9 1529.01 2081.78 1527.27 Q2082.68 1525.51 2082.68 1523.82 Q2082.68 1521.07 2080.74 1519.33 Q2078.82 1517.6 2075.72 1517.6 Q2073.52 1517.6 2071.06 1518.36 Q2068.63 1519.13 2065.86 1520.68 L2065.86 1515.95 Q2068.68 1514.82 2071.13 1514.24 Q2073.59 1513.66 2075.62 1513.66 Q2080.99 1513.66 2084.19 1516.35 Q2087.38 1519.03 2087.38 1523.52 Q2087.38 1525.65 2086.57 1527.57 Q2085.79 1529.47 2083.68 1532.07 Q2083.1 1532.74 2080 1535.95 Q2076.9 1539.15 2071.25 1544.91 Z" fill="#000000" fill-rule="nonzero" fill-opacity="1" /><path clip-path="url(#clip440)" d="M2097.43 1514.29 L2115.79 1514.29 L2115.79 1518.22 L2101.71 1518.22 L2101.71 1526.7 Q2102.73 1526.35 2103.75 1526.19 Q2104.77 1526 2105.79 1526 Q2111.57 1526 2114.95 1529.17 Q2118.33 1532.34 2118.33 1537.76 Q2118.33 1543.34 2114.86 1546.44 Q2111.39 1549.52 2105.07 1549.52 Q2102.89 1549.52 2100.62 1549.15 Q2098.38 1548.78 2095.97 1548.04 L2095.97 1543.34 Q2098.05 1544.47 2100.28 1545.03 Q2102.5 1545.58 2104.98 1545.58 Q2108.98 1545.58 2111.32 1543.48 Q2113.66 1541.37 2113.66 1537.76 Q2113.66 1534.15 2111.32 1532.04 Q2108.98 1529.94 2104.98 1529.94 Q2103.1 1529.94 2101.23 1530.35 Q2099.37 1530.77 2097.43 1531.65 L2097.43 1514.29 Z" fill="#000000" fill-rule="nonzero" fill-opacity="1" /><polyline clip-path="url(#clip440)" style="stroke:#000000; stroke-linecap:round; stroke-linejoin:round; stroke-width:4; stroke-opacity:1; fill:none" points="239.19,1486.45 239.19,47.2441 "/>
<polyline clip-path="url(#clip440)" style="stroke:#000000; stroke-linecap:round; stroke-linejoin:round; stroke-width:4; stroke-opacity:1; fill:none" points="239.19,1373.69 258.088,1373.69 "/>
<polyline clip-path="url(#clip440)" style="stroke:#000000; stroke-linecap:round; stroke-linejoin:round; stroke-width:4; stroke-opacity:1; fill:none" points="239.19,1176.09 258.088,1176.09 "/>
<polyline clip-path="url(#clip440)" style="stroke:#000000; stroke-linecap:round; stroke-linejoin:round; stroke-width:4; stroke-opacity:1; fill:none" points="239.19,978.503 258.088,978.503 "/>
<polyline clip-path="url(#clip440)" style="stroke:#000000; stroke-linecap:round; stroke-linejoin:round; stroke-width:4; stroke-opacity:1; fill:none" points="239.19,780.911 258.088,780.911 "/>
<polyline clip-path="url(#clip440)" style="stroke:#000000; stroke-linecap:round; stroke-linejoin:round; stroke-width:4; stroke-opacity:1; fill:none" points="239.19,583.32 258.088,583.32 "/>
<polyline clip-path="url(#clip440)" style="stroke:#000000; stroke-linecap:round; stroke-linejoin:round; stroke-width:4; stroke-opacity:1; fill:none" points="239.19,385.728 258.088,385.728 "/>
<polyline clip-path="url(#clip440)" style="stroke:#000000; stroke-linecap:round; stroke-linejoin:round; stroke-width:4; stroke-opacity:1; fill:none" points="239.19,188.137 258.088,188.137 "/>
<path clip-path="url(#clip440)" d="M50.9921 1374.14 L80.6679 1374.14 L80.6679 1378.07 L50.9921 1378.07 L50.9921 1374.14 Z" fill="#000000" fill-rule="nonzero" fill-opacity="1" /><path clip-path="url(#clip440)" d="M91.5706 1387.03 L99.2095 1387.03 L99.2095 1360.66 L90.8993 1362.33 L90.8993 1358.07 L99.1632 1356.41 L103.839 1356.41 L103.839 1387.03 L111.478 1387.03 L111.478 1390.97 L91.5706 1390.97 L91.5706 1387.03 Z" fill="#000000" fill-rule="nonzero" fill-opacity="1" /><path clip-path="url(#clip440)" d="M130.922 1359.48 Q127.311 1359.48 125.482 1363.05 Q123.677 1366.59 123.677 1373.72 Q123.677 1380.83 125.482 1384.39 Q127.311 1387.93 130.922 1387.93 Q134.556 1387.93 136.362 1384.39 Q138.191 1380.83 138.191 1373.72 Q138.191 1366.59 136.362 1363.05 Q134.556 1359.48 130.922 1359.48 M130.922 1355.78 Q136.732 1355.78 139.788 1360.39 Q142.867 1364.97 142.867 1373.72 Q142.867 1382.45 139.788 1387.05 Q136.732 1391.64 130.922 1391.64 Q125.112 1391.64 122.033 1387.05 Q118.978 1382.45 118.978 1373.72 Q118.978 1364.97 122.033 1360.39 Q125.112 1355.78 130.922 1355.78 Z" fill="#000000" fill-rule="nonzero" fill-opacity="1" /><path clip-path="url(#clip440)" d="M161.084 1359.48 Q157.473 1359.48 155.644 1363.05 Q153.839 1366.59 153.839 1373.72 Q153.839 1380.83 155.644 1384.39 Q157.473 1387.93 161.084 1387.93 Q164.718 1387.93 166.524 1384.39 Q168.353 1380.83 168.353 1373.72 Q168.353 1366.59 166.524 1363.05 Q164.718 1359.48 161.084 1359.48 M161.084 1355.78 Q166.894 1355.78 169.95 1360.39 Q173.029 1364.97 173.029 1373.72 Q173.029 1382.45 169.95 1387.05 Q166.894 1391.64 161.084 1391.64 Q155.274 1391.64 152.195 1387.05 Q149.14 1382.45 149.14 1373.72 Q149.14 1364.97 152.195 1360.39 Q155.274 1355.78 161.084 1355.78 Z" fill="#000000" fill-rule="nonzero" fill-opacity="1" /><path clip-path="url(#clip440)" d="M191.246 1359.48 Q187.635 1359.48 185.806 1363.05 Q184.001 1366.59 184.001 1373.72 Q184.001 1380.83 185.806 1384.39 Q187.635 1387.93 191.246 1387.93 Q194.88 1387.93 196.686 1384.39 Q198.514 1380.83 198.514 1373.72 Q198.514 1366.59 196.686 1363.05 Q194.88 1359.48 191.246 1359.48 M191.246 1355.78 Q197.056 1355.78 200.112 1360.39 Q203.19 1364.97 203.19 1373.72 Q203.19 1382.45 200.112 1387.05 Q197.056 1391.64 191.246 1391.64 Q185.436 1391.64 182.357 1387.05 Q179.302 1382.45 179.302 1373.72 Q179.302 1364.97 182.357 1360.39 Q185.436 1355.78 191.246 1355.78 Z" fill="#000000" fill-rule="nonzero" fill-opacity="1" /><path clip-path="url(#clip440)" d="M81.154 1176.55 L110.83 1176.55 L110.83 1180.48 L81.154 1180.48 L81.154 1176.55 Z" fill="#000000" fill-rule="nonzero" fill-opacity="1" /><path clip-path="url(#clip440)" d="M130.922 1176.96 Q127.589 1176.96 125.668 1178.74 Q123.77 1180.53 123.77 1183.65 Q123.77 1186.78 125.668 1188.56 Q127.589 1190.34 130.922 1190.34 Q134.256 1190.34 136.177 1188.56 Q138.098 1186.75 138.098 1183.65 Q138.098 1180.53 136.177 1178.74 Q134.279 1176.96 130.922 1176.96 M126.246 1174.97 Q123.237 1174.23 121.547 1172.17 Q119.881 1170.11 119.881 1167.15 Q119.881 1163 122.82 1160.6 Q125.783 1158.19 130.922 1158.19 Q136.084 1158.19 139.024 1160.6 Q141.964 1163 141.964 1167.15 Q141.964 1170.11 140.274 1172.17 Q138.607 1174.23 135.621 1174.97 Q139.001 1175.76 140.876 1178.05 Q142.774 1180.34 142.774 1183.65 Q142.774 1188.68 139.695 1191.36 Q136.64 1194.05 130.922 1194.05 Q125.205 1194.05 122.126 1191.36 Q119.07 1188.68 119.07 1183.65 Q119.07 1180.34 120.969 1178.05 Q122.867 1175.76 126.246 1174.97 M124.533 1167.59 Q124.533 1170.27 126.2 1171.78 Q127.89 1173.28 130.922 1173.28 Q133.931 1173.28 135.621 1171.78 Q137.334 1170.27 137.334 1167.59 Q137.334 1164.9 135.621 1163.4 Q133.931 1161.89 130.922 1161.89 Q127.89 1161.89 126.2 1163.4 Q124.533 1164.9 124.533 1167.59 Z" fill="#000000" fill-rule="nonzero" fill-opacity="1" /><path clip-path="url(#clip440)" d="M161.084 1161.89 Q157.473 1161.89 155.644 1165.46 Q153.839 1169 153.839 1176.13 Q153.839 1183.24 155.644 1186.8 Q157.473 1190.34 161.084 1190.34 Q164.718 1190.34 166.524 1186.8 Q168.353 1183.24 168.353 1176.13 Q168.353 1169 166.524 1165.46 Q164.718 1161.89 161.084 1161.89 M161.084 1158.19 Q166.894 1158.19 169.95 1162.8 Q173.029 1167.38 173.029 1176.13 Q173.029 1184.86 169.95 1189.46 Q166.894 1194.05 161.084 1194.05 Q155.274 1194.05 152.195 1189.46 Q149.14 1184.86 149.14 1176.13 Q149.14 1167.38 152.195 1162.8 Q155.274 1158.19 161.084 1158.19 Z" fill="#000000" fill-rule="nonzero" fill-opacity="1" /><path clip-path="url(#clip440)" d="M191.246 1161.89 Q187.635 1161.89 185.806 1165.46 Q184.001 1169 184.001 1176.13 Q184.001 1183.24 185.806 1186.8 Q187.635 1190.34 191.246 1190.34 Q194.88 1190.34 196.686 1186.8 Q198.514 1183.24 198.514 1176.13 Q198.514 1169 196.686 1165.46 Q194.88 1161.89 191.246 1161.89 M191.246 1158.19 Q197.056 1158.19 200.112 1162.8 Q203.19 1167.38 203.19 1176.13 Q203.19 1184.86 200.112 1189.46 Q197.056 1194.05 191.246 1194.05 Q185.436 1194.05 182.357 1189.46 Q179.302 1184.86 179.302 1176.13 Q179.302 1167.38 182.357 1162.8 Q185.436 1158.19 191.246 1158.19 Z" fill="#000000" fill-rule="nonzero" fill-opacity="1" /><path clip-path="url(#clip440)" d="M81.154 978.954 L110.83 978.954 L110.83 982.889 L81.154 982.889 L81.154 978.954 Z" fill="#000000" fill-rule="nonzero" fill-opacity="1" /><path clip-path="url(#clip440)" d="M131.501 976.639 Q128.353 976.639 126.501 978.792 Q124.672 980.945 124.672 984.695 Q124.672 988.422 126.501 990.598 Q128.353 992.75 131.501 992.75 Q134.649 992.75 136.478 990.598 Q138.33 988.422 138.33 984.695 Q138.33 980.945 136.478 978.792 Q134.649 976.639 131.501 976.639 M140.783 961.987 L140.783 966.246 Q139.024 965.412 137.219 964.973 Q135.436 964.533 133.677 964.533 Q129.047 964.533 126.594 967.658 Q124.163 970.783 123.816 977.102 Q125.182 975.088 127.242 974.024 Q129.302 972.936 131.779 972.936 Q136.987 972.936 139.996 976.107 Q143.029 979.255 143.029 984.695 Q143.029 990.019 139.881 993.236 Q136.732 996.454 131.501 996.454 Q125.506 996.454 122.334 991.871 Q119.163 987.264 119.163 978.537 Q119.163 970.343 123.052 965.482 Q126.941 960.598 133.492 960.598 Q135.251 960.598 137.033 960.945 Q138.839 961.292 140.783 961.987 Z" fill="#000000" fill-rule="nonzero" fill-opacity="1" /><path clip-path="url(#clip440)" d="M161.084 964.301 Q157.473 964.301 155.644 967.866 Q153.839 971.408 153.839 978.537 Q153.839 985.644 155.644 989.209 Q157.473 992.75 161.084 992.75 Q164.718 992.75 166.524 989.209 Q168.353 985.644 168.353 978.537 Q168.353 971.408 166.524 967.866 Q164.718 964.301 161.084 964.301 M161.084 960.598 Q166.894 960.598 169.95 965.204 Q173.029 969.787 173.029 978.537 Q173.029 987.264 169.95 991.871 Q166.894 996.454 161.084 996.454 Q155.274 996.454 152.195 991.871 Q149.14 987.264 149.14 978.537 Q149.14 969.787 152.195 965.204 Q155.274 960.598 161.084 960.598 Z" fill="#000000" fill-rule="nonzero" fill-opacity="1" /><path clip-path="url(#clip440)" d="M191.246 964.301 Q187.635 964.301 185.806 967.866 Q184.001 971.408 184.001 978.537 Q184.001 985.644 185.806 989.209 Q187.635 992.75 191.246 992.75 Q194.88 992.75 196.686 989.209 Q198.514 985.644 198.514 978.537 Q198.514 971.408 196.686 967.866 Q194.88 964.301 191.246 964.301 M191.246 960.598 Q197.056 960.598 200.112 965.204 Q203.19 969.787 203.19 978.537 Q203.19 987.264 200.112 991.871 Q197.056 996.454 191.246 996.454 Q185.436 996.454 182.357 991.871 Q179.302 987.264 179.302 978.537 Q179.302 969.787 182.357 965.204 Q185.436 960.598 191.246 960.598 Z" fill="#000000" fill-rule="nonzero" fill-opacity="1" /><path clip-path="url(#clip440)" d="M81.154 781.363 L110.83 781.363 L110.83 785.298 L81.154 785.298 L81.154 781.363 Z" fill="#000000" fill-rule="nonzero" fill-opacity="1" /><path clip-path="url(#clip440)" d="M133.769 767.705 L121.964 786.154 L133.769 786.154 L133.769 767.705 M132.543 763.631 L138.422 763.631 L138.422 786.154 L143.353 786.154 L143.353 790.043 L138.422 790.043 L138.422 798.191 L133.769 798.191 L133.769 790.043 L118.168 790.043 L118.168 785.529 L132.543 763.631 Z" fill="#000000" fill-rule="nonzero" fill-opacity="1" /><path clip-path="url(#clip440)" d="M161.084 766.71 Q157.473 766.71 155.644 770.275 Q153.839 773.816 153.839 780.946 Q153.839 788.052 155.644 791.617 Q157.473 795.159 161.084 795.159 Q164.718 795.159 166.524 791.617 Q168.353 788.052 168.353 780.946 Q168.353 773.816 166.524 770.275 Q164.718 766.71 161.084 766.71 M161.084 763.006 Q166.894 763.006 169.95 767.613 Q173.029 772.196 173.029 780.946 Q173.029 789.673 169.95 794.279 Q166.894 798.862 161.084 798.862 Q155.274 798.862 152.195 794.279 Q149.14 789.673 149.14 780.946 Q149.14 772.196 152.195 767.613 Q155.274 763.006 161.084 763.006 Z" fill="#000000" fill-rule="nonzero" fill-opacity="1" /><path clip-path="url(#clip440)" d="M191.246 766.71 Q187.635 766.71 185.806 770.275 Q184.001 773.816 184.001 780.946 Q184.001 788.052 185.806 791.617 Q187.635 795.159 191.246 795.159 Q194.88 795.159 196.686 791.617 Q198.514 788.052 198.514 780.946 Q198.514 773.816 196.686 770.275 Q194.88 766.71 191.246 766.71 M191.246 763.006 Q197.056 763.006 200.112 767.613 Q203.19 772.196 203.19 780.946 Q203.19 789.673 200.112 794.279 Q197.056 798.862 191.246 798.862 Q185.436 798.862 182.357 794.279 Q179.302 789.673 179.302 780.946 Q179.302 772.196 182.357 767.613 Q185.436 763.006 191.246 763.006 Z" fill="#000000" fill-rule="nonzero" fill-opacity="1" /><path clip-path="url(#clip440)" d="M81.154 583.771 L110.83 583.771 L110.83 587.706 L81.154 587.706 L81.154 583.771 Z" fill="#000000" fill-rule="nonzero" fill-opacity="1" /><path clip-path="url(#clip440)" d="M124.95 596.664 L141.269 596.664 L141.269 600.6 L119.325 600.6 L119.325 596.664 Q121.987 593.91 126.57 589.28 Q131.177 584.628 132.357 583.285 Q134.603 580.762 135.482 579.026 Q136.385 577.266 136.385 575.577 Q136.385 572.822 134.441 571.086 Q132.519 569.35 129.418 569.35 Q127.219 569.35 124.765 570.114 Q122.334 570.878 119.557 572.428 L119.557 567.706 Q122.381 566.572 124.834 565.993 Q127.288 565.415 129.325 565.415 Q134.695 565.415 137.89 568.1 Q141.084 570.785 141.084 575.276 Q141.084 577.405 140.274 579.327 Q139.487 581.225 137.381 583.817 Q136.802 584.489 133.7 587.706 Q130.598 590.901 124.95 596.664 Z" fill="#000000" fill-rule="nonzero" fill-opacity="1" /><path clip-path="url(#clip440)" d="M161.084 569.118 Q157.473 569.118 155.644 572.683 Q153.839 576.225 153.839 583.354 Q153.839 590.461 155.644 594.026 Q157.473 597.567 161.084 597.567 Q164.718 597.567 166.524 594.026 Q168.353 590.461 168.353 583.354 Q168.353 576.225 166.524 572.683 Q164.718 569.118 161.084 569.118 M161.084 565.415 Q166.894 565.415 169.95 570.021 Q173.029 574.604 173.029 583.354 Q173.029 592.081 169.95 596.688 Q166.894 601.271 161.084 601.271 Q155.274 601.271 152.195 596.688 Q149.14 592.081 149.14 583.354 Q149.14 574.604 152.195 570.021 Q155.274 565.415 161.084 565.415 Z" fill="#000000" fill-rule="nonzero" fill-opacity="1" /><path clip-path="url(#clip440)" d="M191.246 569.118 Q187.635 569.118 185.806 572.683 Q184.001 576.225 184.001 583.354 Q184.001 590.461 185.806 594.026 Q187.635 597.567 191.246 597.567 Q194.88 597.567 196.686 594.026 Q198.514 590.461 198.514 583.354 Q198.514 576.225 196.686 572.683 Q194.88 569.118 191.246 569.118 M191.246 565.415 Q197.056 565.415 200.112 570.021 Q203.19 574.604 203.19 583.354 Q203.19 592.081 200.112 596.688 Q197.056 601.271 191.246 601.271 Q185.436 601.271 182.357 596.688 Q179.302 592.081 179.302 583.354 Q179.302 574.604 182.357 570.021 Q185.436 565.415 191.246 565.415 Z" fill="#000000" fill-rule="nonzero" fill-opacity="1" /><path clip-path="url(#clip440)" d="M191.246 371.527 Q187.635 371.527 185.806 375.092 Q184.001 378.633 184.001 385.763 Q184.001 392.869 185.806 396.434 Q187.635 399.976 191.246 399.976 Q194.88 399.976 196.686 396.434 Q198.514 392.869 198.514 385.763 Q198.514 378.633 196.686 375.092 Q194.88 371.527 191.246 371.527 M191.246 367.823 Q197.056 367.823 200.112 372.43 Q203.19 377.013 203.19 385.763 Q203.19 394.49 200.112 399.096 Q197.056 403.679 191.246 403.679 Q185.436 403.679 182.357 399.096 Q179.302 394.49 179.302 385.763 Q179.302 377.013 182.357 372.43 Q185.436 367.823 191.246 367.823 Z" fill="#000000" fill-rule="nonzero" fill-opacity="1" /><path clip-path="url(#clip440)" d="M124.95 201.481 L141.269 201.481 L141.269 205.417 L119.325 205.417 L119.325 201.481 Q121.987 198.727 126.57 194.097 Q131.177 189.444 132.357 188.102 Q134.603 185.579 135.482 183.843 Q136.385 182.083 136.385 180.394 Q136.385 177.639 134.441 175.903 Q132.519 174.167 129.418 174.167 Q127.219 174.167 124.765 174.931 Q122.334 175.695 119.557 177.245 L119.557 172.523 Q122.381 171.389 124.834 170.81 Q127.288 170.232 129.325 170.232 Q134.695 170.232 137.89 172.917 Q141.084 175.602 141.084 180.093 Q141.084 182.222 140.274 184.144 Q139.487 186.042 137.381 188.634 Q136.802 189.306 133.7 192.523 Q130.598 195.718 124.95 201.481 Z" fill="#000000" fill-rule="nonzero" fill-opacity="1" /><path clip-path="url(#clip440)" d="M161.084 173.935 Q157.473 173.935 155.644 177.5 Q153.839 181.042 153.839 188.171 Q153.839 195.278 155.644 198.843 Q157.473 202.384 161.084 202.384 Q164.718 202.384 166.524 198.843 Q168.353 195.278 168.353 188.171 Q168.353 181.042 166.524 177.5 Q164.718 173.935 161.084 173.935 M161.084 170.232 Q166.894 170.232 169.95 174.838 Q173.029 179.421 173.029 188.171 Q173.029 196.898 169.95 201.505 Q166.894 206.088 161.084 206.088 Q155.274 206.088 152.195 201.505 Q149.14 196.898 149.14 188.171 Q149.14 179.421 152.195 174.838 Q155.274 170.232 161.084 170.232 Z" fill="#000000" fill-rule="nonzero" fill-opacity="1" /><path clip-path="url(#clip440)" d="M191.246 173.935 Q187.635 173.935 185.806 177.5 Q184.001 181.042 184.001 188.171 Q184.001 195.278 185.806 198.843 Q187.635 202.384 191.246 202.384 Q194.88 202.384 196.686 198.843 Q198.514 195.278 198.514 188.171 Q198.514 181.042 196.686 177.5 Q194.88 173.935 191.246 173.935 M191.246 170.232 Q197.056 170.232 200.112 174.838 Q203.19 179.421 203.19 188.171 Q203.19 196.898 200.112 201.505 Q197.056 206.088 191.246 206.088 Q185.436 206.088 182.357 201.505 Q179.302 196.898 179.302 188.171 Q179.302 179.421 182.357 174.838 Q185.436 170.232 191.246 170.232 Z" fill="#000000" fill-rule="nonzero" fill-opacity="1" /><path clip-path="url(#clip442)" d="M299.008 385.979 L313.353 385.97 L327.698 385.984 L342.043 385.979 L356.388 385.973 L370.732 385.979 L385.077 386.001 L399.422 386.032 L413.767 386.083 L428.112 386.116 L442.456 386.159 L456.801 386.195 L471.146 386.31 L485.491 386.492 L499.836 386.752 L514.181 386.972 L528.525 387.211 L542.87 387.404 L557.215 387.783 L571.56 388.192 L585.905 388.401 L600.249 388.994 L614.594 389.649 L628.939 390.166 L643.284 390.96 L657.629 391.706 L671.974 392.96 L686.318 394.845 L700.663 397.408 L715.008 398.48 L729.353 402.61 L743.698 405.954 L758.042 410.41 L772.387 415.424 L786.732 418.146 L801.077 419.942 L815.422 427.343 L829.767 437.112 L844.111 447.037 L858.456 454.361 L872.801 463.177 L887.146 477.04 L901.491 485.455 L915.835 498.995 L930.18 513.234 L944.525 527.44 L958.87 538.899 L973.215 560.075 L987.56 575.94 L1001.9 595.081 L1016.25 617.118 L1030.59 634.018 L1044.94 671.372 L1059.28 700.795 L1073.63 725.479 L1087.97 754.189 L1102.32 785.881 L1116.66 803.436 L1131.01 830.319 L1145.35 850.907 L1159.7 877.402 L1174.04 906.499 L1188.39 936.698 L1202.73 973.255 L1217.08 1009.66 L1231.42 1039.64 L1245.77 1072.22 L1260.11 1101.95 L1274.46 1129.49 L1288.8 1160.66 L1303.15 1200.35 L1317.49 1229.64 L1331.84 1255.79 L1346.18 1260.98 L1360.52 1300.62 L1374.87 1323.43 L1389.21 1353.12 L1403.56 1366.01 L1417.9 1392.59 L1432.25 1405.57 L1446.59 1418.98 L1460.94 1445.72 L1475.28 1439.89 L1489.63 1431.38 L1503.97 1417.3 L1518.32 1408.57 L1532.66 1402.43 L1547.01 1378.95 L1561.35 1373.53 L1575.7 1358.89 L1590.04 1337.45 L1604.39 1302.57 L1618.73 1279.91 L1633.08 1247.37 L1647.42 1212.41 L1661.77 1186.12 L1676.11 1176.24 L1690.46 1124.64 L1704.8 1077.2 L1719.15 1047.09 L1733.49 1008.91 L1747.83 970.136 L1762.18 923.338 L1776.52 908.435 L1790.87 865.55 L1805.21 842.46 L1819.56 813.9 L1833.9 790.694 L1848.25 757.248 L1862.59 728.667 L1876.94 708.118 L1891.28 680.663 L1905.63 663.181 L1919.97 634.259 L1934.32 602.577 L1948.66 587.599 L1963.01 574.209 L1977.35 551.673 L1991.7 524.154 L2006.04 503.654 L2020.39 487.988 L2034.73 470.771 L2049.08 453.227 L2063.42 437.64 L2077.77 425.683 L2092.11 416.635 L2106.46 408.839 L2120.8 401.195 L2135.15 397.024 L2149.49 394.112 L2163.83 390.318 L2178.18 389.085 L2192.52 387.081 L2206.87 386.595 L2221.21 386.982 L2235.56 387.547 L2249.9 387.835 L2264.25 389.648 L2278.59 391.372 L2292.94 392.715 L2292.94 349.443 L2278.59 348.733 L2264.25 349.825 L2249.9 351.252 L2235.56 350.969 L2221.21 352.119 L2206.87 354.478 L2192.52 354.781 L2178.18 354.158 L2163.83 354.132 L2149.49 353.348 L2135.15 353.165 L2120.8 353.631 L2106.46 352.18 L2092.11 350.052 L2077.77 347.383 L2063.42 344.484 L2049.08 343.807 L2034.73 340.868 L2020.39 340.119 L2006.04 338.236 L1991.7 333.984 L1977.35 328.641 L1963.01 326.969 L1948.66 329.604 L1934.32 332.315 L1919.97 329.494 L1905.63 325.986 L1891.28 333.07 L1876.94 336.728 L1862.59 340.555 L1848.25 345.942 L1833.9 353.213 L1819.56 355.96 L1805.21 360.798 L1790.87 362.07 L1776.52 371.985 L1762.18 375.325 L1747.83 373.242 L1733.49 383.169 L1719.15 394.057 L1704.8 394.4 L1690.46 402.485 L1676.11 407.887 L1661.77 424.62 L1647.42 434.537 L1633.08 449.609 L1618.73 473.141 L1604.39 477.76 L1590.04 484.818 L1575.7 487.894 L1561.35 487.383 L1547.01 503.089 L1532.66 511.05 L1518.32 512.37 L1503.97 521.111 L1489.63 531.143 L1475.28 543.089 L1460.94 556.913 L1446.59 561.201 L1432.25 558.604 L1417.9 558.751 L1403.56 564.431 L1389.21 563.059 L1374.87 561.449 L1360.52 562.577 L1346.18 564.709 L1331.84 565.081 L1317.49 568.568 L1303.15 557.284 L1288.8 563.251 L1274.46 551.455 L1260.11 540.79 L1245.77 523.942 L1231.42 509.536 L1217.08 501.617 L1202.73 482.8 L1188.39 467.123 L1174.04 457.479 L1159.7 440.197 L1145.35 419.437 L1131.01 404.023 L1116.66 391.712 L1102.32 380.55 L1087.97 377.572 L1073.63 373.276 L1059.28 368.373 L1044.94 364.247 L1030.59 359.165 L1016.25 354.961 L1001.9 351.741 L987.56 351.164 L973.215 348.169 L958.87 349.299 L944.525 347.824 L930.18 345.972 L915.835 344.855 L901.491 347.11 L887.146 347.946 L872.801 353.014 L858.456 354.455 L844.111 356.021 L829.767 360.594 L815.422 364.865 L801.077 367.778 L786.732 367.503 L772.387 368.4 L758.042 371.088 L743.698 373.331 L729.353 374.764 L715.008 377.124 L700.663 377.609 L686.318 379.363 L671.974 380.664 L657.629 381.312 L643.284 381.773 L628.939 382.392 L614.594 382.768 L600.249 383.251 L585.905 383.616 L571.56 383.729 L557.215 383.932 L542.87 384.16 L528.525 384.258 L514.181 384.431 L499.836 384.655 L485.491 384.793 L471.146 384.919 L456.801 385.017 L442.456 385.062 L428.112 385.058 L413.767 385.099 L399.422 385.154 L385.077 385.191 L370.732 385.2 L356.388 385.211 L342.043 385.221 L327.698 385.231 L313.353 385.222 L299.008 385.222  Z" fill="#009af9" fill-rule="evenodd" fill-opacity="0.5"/>
<polyline clip-path="url(#clip442)" style="stroke:#009af9; stroke-linecap:round; stroke-linejoin:round; stroke-width:4; stroke-opacity:0.2; fill:none" points="299.008,385.6 313.353,385.596 327.698,385.607 342.043,385.6 356.388,385.592 370.732,385.589 385.077,385.596 399.422,385.593 413.767,385.591 428.112,385.587 442.456,385.61 456.801,385.606 471.146,385.614 485.491,385.643 499.836,385.703 514.181,385.701 528.525,385.734 542.87,385.782 557.215,385.858 571.56,385.96 585.905,386.008 600.249,386.122 614.594,386.208 628.939,386.279 643.284,386.367 657.629,386.509 671.974,386.812 686.318,387.104 700.663,387.509 715.008,387.802 729.353,388.687 743.698,389.643 758.042,390.749 772.387,391.912 786.732,392.825 801.077,393.86 815.422,396.104 829.767,398.853 844.111,401.529 858.456,404.408 872.801,408.095 887.146,412.493 901.491,416.282 915.835,421.925 930.18,429.603 944.525,437.632 958.87,444.099 973.215,454.122 987.56,463.552 1001.9,473.411 1016.25,486.04 1030.59,496.592 1044.94,517.81 1059.28,534.584 1073.63,549.377 1087.97,565.881 1102.32,583.215 1116.66,597.574 1131.01,617.171 1145.35,635.172 1159.7,658.8 1174.04,681.989 1188.39,701.911 1202.73,728.028 1217.08,755.638 1231.42,774.587 1245.77,798.081 1260.11,821.372 1274.46,840.473 1288.8,861.955 1303.15,878.819 1317.49,899.105 1331.84,910.434 1346.18,912.843 1360.52,931.596 1374.87,942.438 1389.21,958.089 1403.56,965.222 1417.9,975.67 1432.25,982.089 1446.59,990.092 1460.94,1001.31 1475.28,991.489 1489.63,981.26 1503.97,969.207 1518.32,960.472 1532.66,956.739 1547.01,941.018 1561.35,930.455 1575.7,923.392 1590.04,911.135 1604.39,890.164 1618.73,876.527 1633.08,848.491 1647.42,823.473 1661.77,805.37 1676.11,792.061 1690.46,763.564 1704.8,735.801 1719.15,720.572 1733.49,696.04 1747.83,671.689 1762.18,649.331 1776.52,640.21 1790.87,613.81 1805.21,601.629 1819.56,584.93 1833.9,571.954 1848.25,551.595 1862.59,534.611 1876.94,522.423 1891.28,506.866 1905.63,494.583 1919.97,481.877 1934.32,467.446 1948.66,458.602 1963.01,450.589 1977.35,440.157 1991.7,429.069 2006.04,420.945 2020.39,414.054 2034.73,405.819 2049.08,398.517 2063.42,391.062 2077.77,386.533 2092.11,383.344 2106.46,380.51 2120.8,377.413 2135.15,375.095 2149.49,373.73 2163.83,372.225 2178.18,371.621 2192.52,370.931 2206.87,370.537 2221.21,369.55 2235.56,369.258 2249.9,369.543 2264.25,369.736 2278.59,370.052 2292.94,371.079 "/>
<path clip-path="url(#clip442)" d="M299.008 386.179 L313.353 386.205 L327.698 386.227 L342.043 386.244 L356.388 386.271 L370.732 386.294 L385.077 386.334 L399.422 386.369 L413.767 386.378 L428.112 386.437 L442.456 386.479 L456.801 386.467 L471.146 386.565 L485.491 386.704 L499.836 387.026 L514.181 387.243 L528.525 387.543 L542.87 387.665 L557.215 387.899 L571.56 388.071 L585.905 387.902 L600.249 388.169 L614.594 388.409 L628.939 388.451 L643.284 388.911 L657.629 389.162 L671.974 389.577 L686.318 390.307 L700.663 391.834 L715.008 391.613 L729.353 393.365 L743.698 394.44 L758.042 396.417 L772.387 399.077 L786.732 397.412 L801.077 395.669 L815.422 398.025 L829.767 402.757 L844.111 406.011 L858.456 404.715 L872.801 406.406 L887.146 411.812 L901.491 412.05 L915.835 410.985 L930.18 412.76 L944.525 411.029 L958.87 408.8 L973.215 408.768 L987.56 408.747 L1001.9 410.673 L1016.25 411.546 L1030.59 412.267 L1044.94 413.929 L1059.28 416.825 L1073.63 420.102 L1087.97 423.186 L1102.32 428.685 L1116.66 438.993 L1131.01 448.309 L1145.35 456.092 L1159.7 467.838 L1174.04 483.085 L1188.39 495.344 L1202.73 507.717 L1217.08 521.399 L1231.42 531.344 L1245.77 549.697 L1260.11 567.96 L1274.46 582.658 L1288.8 595.975 L1303.15 607.546 L1317.49 628.666 L1331.84 639.051 L1346.18 652.347 L1360.52 665.356 L1374.87 678.913 L1389.21 693.723 L1403.56 709.441 L1417.9 729.517 L1432.25 752.249 L1446.59 783.513 L1460.94 825.864 L1475.28 845.302 L1489.63 876.557 L1503.97 898.18 L1518.32 922.072 L1532.66 935.905 L1547.01 950.882 L1561.35 967.593 L1575.7 986.935 L1590.04 1008.23 L1604.39 1014.52 L1618.73 1013.28 L1633.08 1014.23 L1647.42 1014.88 L1661.77 1013.07 L1676.11 1015.91 L1690.46 1001.04 L1704.8 988.386 L1719.15 985.053 L1733.49 968.635 L1747.83 953.249 L1762.18 946.457 L1776.52 948.97 L1790.87 929.146 L1805.21 919.465 L1819.56 907.476 L1833.9 896.711 L1848.25 872.312 L1862.59 851.651 L1876.94 838.518 L1891.28 814.859 L1905.63 800.356 L1919.97 777.53 L1934.32 748.19 L1948.66 734.442 L1963.01 722.255 L1977.35 700.83 L1991.7 672.034 L2006.04 656.137 L2020.39 640.671 L2034.73 621.501 L2049.08 600.948 L2063.42 582.568 L2077.77 568.13 L2092.11 558.207 L2106.46 549.809 L2120.8 540.644 L2135.15 532.882 L2149.49 530.027 L2163.83 521.805 L2178.18 517.808 L2192.52 514.609 L2206.87 515.448 L2221.21 517.128 L2235.56 520.579 L2249.9 516.322 L2264.25 519.6 L2278.59 520.396 L2292.94 516.109 L2292.94 386.399 L2278.59 383.731 L2264.25 384.468 L2249.9 386.939 L2235.56 385.762 L2221.21 387.981 L2206.87 389.513 L2192.52 390.282 L2178.18 388.629 L2163.83 387.301 L2149.49 387.074 L2135.15 387.39 L2120.8 387.65 L2106.46 387.533 L2092.11 385.379 L2077.77 381.043 L2063.42 378.721 L2049.08 378.595 L2034.73 375.777 L2020.39 375.995 L2006.04 374.956 L1991.7 371.122 L1977.35 363.486 L1963.01 360.88 L1948.66 360.406 L1934.32 365.4 L1919.97 367.16 L1905.63 367.483 L1891.28 371.667 L1876.94 375.852 L1862.59 373.637 L1848.25 380.253 L1833.9 384.378 L1819.56 386.325 L1805.21 388.513 L1790.87 391.104 L1776.52 395.187 L1762.18 403.587 L1747.83 411.02 L1733.49 413.727 L1719.15 417.307 L1704.8 421.726 L1690.46 424.915 L1676.11 427.608 L1661.77 432.684 L1647.42 433.026 L1633.08 434.443 L1618.73 446.84 L1604.39 434.969 L1590.04 438.338 L1575.7 434.896 L1561.35 418.684 L1547.01 412.692 L1532.66 406.684 L1518.32 389.189 L1503.97 381.983 L1489.63 371.255 L1475.28 360.912 L1460.94 348.074 L1446.59 324.406 L1432.25 306.863 L1417.9 297.051 L1403.56 279.523 L1389.21 259.997 L1374.87 238.916 L1360.52 224.235 L1346.18 209.612 L1331.84 200.439 L1317.49 179.269 L1303.15 167.617 L1288.8 155.061 L1274.46 134.885 L1260.11 120.876 L1245.77 112.09 L1231.42 103.263 L1217.08 89.4946 L1202.73 87.9763 L1188.39 91.2391 L1174.04 98.9398 L1159.7 98.6434 L1145.35 103.371 L1131.01 102.793 L1116.66 111.627 L1102.32 112.464 L1087.97 119.876 L1073.63 128.061 L1059.28 137.939 L1044.94 146.605 L1030.59 166.67 L1016.25 172.424 L1001.9 184.346 L987.56 196.35 L973.215 206.598 L958.87 220.186 L944.525 229.296 L930.18 242.285 L915.835 257.344 L901.491 266.797 L887.146 276.276 L872.801 291.581 L858.456 303.567 L844.111 308.83 L829.767 318.012 L815.422 329.342 L801.077 338.506 L786.732 339.359 L772.387 341.784 L758.042 348.983 L743.698 354.248 L729.353 358.036 L715.008 363.479 L700.663 365.13 L686.318 369.45 L671.974 372.553 L657.629 374.125 L643.284 375.449 L628.939 376.974 L614.594 377.749 L600.249 378.877 L585.905 379.824 L571.56 379.857 L557.215 380.552 L542.87 381.161 L528.525 381.632 L514.181 382.349 L499.836 383.008 L485.491 383.721 L471.146 384.13 L456.801 384.441 L442.456 384.525 L428.112 384.655 L413.767 384.833 L399.422 384.924 L385.077 385.016 L370.732 385.118 L356.388 385.165 L342.043 385.206 L327.698 385.262 L313.353 385.302 L299.008 385.294  Z" fill="#e26f46" fill-rule="evenodd" fill-opacity="0.5"/>
<polyline clip-path="url(#clip442)" style="stroke:#e26f46; stroke-linecap:round; stroke-linejoin:round; stroke-width:4; stroke-opacity:0.2; fill:none" points="299.008,385.737 313.353,385.753 327.698,385.744 342.043,385.725 356.388,385.718 370.732,385.706 385.077,385.675 399.422,385.647 413.767,385.606 428.112,385.546 442.456,385.502 456.801,385.454 471.146,385.348 485.491,385.212 499.836,385.017 514.181,384.796 528.525,384.588 542.87,384.413 557.215,384.225 571.56,383.964 585.905,383.863 600.249,383.523 614.594,383.079 628.939,382.712 643.284,382.18 657.629,381.643 671.974,381.065 686.318,379.878 700.663,378.482 715.008,377.546 729.353,375.701 743.698,374.344 758.042,372.7 772.387,370.431 786.732,368.386 801.077,367.087 815.422,363.683 829.767,360.384 844.111,357.42 858.456,354.141 872.801,348.994 887.146,344.044 901.491,339.423 915.835,334.164 930.18,327.522 944.525,320.163 958.87,314.493 973.215,307.683 987.56,302.548 1001.9,297.509 1016.25,291.985 1030.59,289.468 1044.94,280.267 1059.28,277.382 1073.63,274.081 1087.97,271.531 1102.32,270.575 1116.66,275.31 1131.01,275.551 1145.35,279.732 1159.7,283.241 1174.04,291.012 1188.39,293.292 1202.73,297.846 1217.08,305.447 1231.42,317.303 1245.77,330.894 1260.11,344.418 1274.46,358.772 1288.8,375.518 1303.15,387.582 1317.49,403.967 1331.84,419.745 1346.18,430.979 1360.52,444.795 1374.87,458.915 1389.21,476.86 1403.56,494.482 1417.9,513.284 1432.25,529.556 1446.59,553.959 1460.94,586.969 1475.28,603.107 1489.63,623.906 1503.97,640.082 1518.32,655.631 1532.66,671.295 1547.01,681.787 1561.35,693.139 1575.7,710.916 1590.04,723.283 1604.39,724.745 1618.73,730.058 1633.08,724.337 1647.42,723.954 1661.77,722.874 1676.11,721.761 1690.46,712.98 1704.8,705.056 1719.15,701.18 1733.49,691.181 1747.83,682.135 1762.18,675.022 1776.52,672.078 1790.87,660.125 1805.21,653.989 1819.56,646.9 1833.9,640.545 1848.25,626.283 1862.59,612.644 1876.94,607.185 1891.28,593.263 1905.63,583.919 1919.97,572.345 1934.32,556.795 1948.66,547.424 1963.01,541.568 1977.35,532.158 1991.7,521.578 2006.04,515.546 2020.39,508.333 2034.73,498.639 2049.08,489.771 2063.42,480.644 2077.77,474.587 2092.11,471.793 2106.46,468.671 2120.8,464.147 2135.15,460.136 2149.49,458.55 2163.83,454.553 2178.18,453.219 2192.52,452.446 2206.87,452.481 2221.21,452.555 2235.56,453.171 2249.9,451.631 2264.25,452.034 2278.59,452.063 2292.94,451.254 "/>
<circle clip-path="url(#clip442)" cx="299.008" cy="386.225" r="7.2" fill="#008000" fill-rule="evenodd" fill-opacity="1" stroke="#000000" stroke-opacity="1" stroke-width="3.2"/>
<circle clip-path="url(#clip442)" cx="313.353" cy="385.821" r="7.2" fill="#008000" fill-rule="evenodd" fill-opacity="1" stroke="#000000" stroke-opacity="1" stroke-width="3.2"/>
<circle clip-path="url(#clip442)" cx="327.698" cy="385.693" r="7.2" fill="#008000" fill-rule="evenodd" fill-opacity="1" stroke="#000000" stroke-opacity="1" stroke-width="3.2"/>
<circle clip-path="url(#clip442)" cx="342.043" cy="385.678" r="7.2" fill="#008000" fill-rule="evenodd" fill-opacity="1" stroke="#000000" stroke-opacity="1" stroke-width="3.2"/>
<circle clip-path="url(#clip442)" cx="356.388" cy="385.696" r="7.2" fill="#008000" fill-rule="evenodd" fill-opacity="1" stroke="#000000" stroke-opacity="1" stroke-width="3.2"/>
<circle clip-path="url(#clip442)" cx="370.732" cy="385.608" r="7.2" fill="#008000" fill-rule="evenodd" fill-opacity="1" stroke="#000000" stroke-opacity="1" stroke-width="3.2"/>
<circle clip-path="url(#clip442)" cx="385.077" cy="385.308" r="7.2" fill="#008000" fill-rule="evenodd" fill-opacity="1" stroke="#000000" stroke-opacity="1" stroke-width="3.2"/>
<circle clip-path="url(#clip442)" cx="399.422" cy="384.819" r="7.2" fill="#008000" fill-rule="evenodd" fill-opacity="1" stroke="#000000" stroke-opacity="1" stroke-width="3.2"/>
<circle clip-path="url(#clip442)" cx="413.767" cy="384.546" r="7.2" fill="#008000" fill-rule="evenodd" fill-opacity="1" stroke="#000000" stroke-opacity="1" stroke-width="3.2"/>
<circle clip-path="url(#clip442)" cx="428.112" cy="384.598" r="7.2" fill="#008000" fill-rule="evenodd" fill-opacity="1" stroke="#000000" stroke-opacity="1" stroke-width="3.2"/>
<circle clip-path="url(#clip442)" cx="442.456" cy="385.097" r="7.2" fill="#008000" fill-rule="evenodd" fill-opacity="1" stroke="#000000" stroke-opacity="1" stroke-width="3.2"/>
<circle clip-path="url(#clip442)" cx="456.801" cy="386.06" r="7.2" fill="#008000" fill-rule="evenodd" fill-opacity="1" stroke="#000000" stroke-opacity="1" stroke-width="3.2"/>
<circle clip-path="url(#clip442)" cx="471.146" cy="386.89" r="7.2" fill="#008000" fill-rule="evenodd" fill-opacity="1" stroke="#000000" stroke-opacity="1" stroke-width="3.2"/>
<circle clip-path="url(#clip442)" cx="485.491" cy="387.591" r="7.2" fill="#008000" fill-rule="evenodd" fill-opacity="1" stroke="#000000" stroke-opacity="1" stroke-width="3.2"/>
<circle clip-path="url(#clip442)" cx="499.836" cy="387.543" r="7.2" fill="#008000" fill-rule="evenodd" fill-opacity="1" stroke="#000000" stroke-opacity="1" stroke-width="3.2"/>
<circle clip-path="url(#clip442)" cx="514.181" cy="387.151" r="7.2" fill="#008000" fill-rule="evenodd" fill-opacity="1" stroke="#000000" stroke-opacity="1" stroke-width="3.2"/>
<circle clip-path="url(#clip442)" cx="528.525" cy="386.392" r="7.2" fill="#008000" fill-rule="evenodd" fill-opacity="1" stroke="#000000" stroke-opacity="1" stroke-width="3.2"/>
<circle clip-path="url(#clip442)" cx="542.87" cy="385.855" r="7.2" fill="#008000" fill-rule="evenodd" fill-opacity="1" stroke="#000000" stroke-opacity="1" stroke-width="3.2"/>
<circle clip-path="url(#clip442)" cx="557.215" cy="385.556" r="7.2" fill="#008000" fill-rule="evenodd" fill-opacity="1" stroke="#000000" stroke-opacity="1" stroke-width="3.2"/>
<circle clip-path="url(#clip442)" cx="571.56" cy="385.481" r="7.2" fill="#008000" fill-rule="evenodd" fill-opacity="1" stroke="#000000" stroke-opacity="1" stroke-width="3.2"/>
<circle clip-path="url(#clip442)" cx="585.905" cy="385.488" r="7.2" fill="#008000" fill-rule="evenodd" fill-opacity="1" stroke="#000000" stroke-opacity="1" stroke-width="3.2"/>
<circle clip-path="url(#clip442)" cx="600.249" cy="385.108" r="7.2" fill="#008000" fill-rule="evenodd" fill-opacity="1" stroke="#000000" stroke-opacity="1" stroke-width="3.2"/>
<circle clip-path="url(#clip442)" cx="614.594" cy="384.483" r="7.2" fill="#008000" fill-rule="evenodd" fill-opacity="1" stroke="#000000" stroke-opacity="1" stroke-width="3.2"/>
<circle clip-path="url(#clip442)" cx="628.939" cy="383.852" r="7.2" fill="#008000" fill-rule="evenodd" fill-opacity="1" stroke="#000000" stroke-opacity="1" stroke-width="3.2"/>
<circle clip-path="url(#clip442)" cx="643.284" cy="383.723" r="7.2" fill="#008000" fill-rule="evenodd" fill-opacity="1" stroke="#000000" stroke-opacity="1" stroke-width="3.2"/>
<circle clip-path="url(#clip442)" cx="657.629" cy="384.032" r="7.2" fill="#008000" fill-rule="evenodd" fill-opacity="1" stroke="#000000" stroke-opacity="1" stroke-width="3.2"/>
<circle clip-path="url(#clip442)" cx="671.974" cy="384.831" r="7.2" fill="#008000" fill-rule="evenodd" fill-opacity="1" stroke="#000000" stroke-opacity="1" stroke-width="3.2"/>
<circle clip-path="url(#clip442)" cx="686.318" cy="385.749" r="7.2" fill="#008000" fill-rule="evenodd" fill-opacity="1" stroke="#000000" stroke-opacity="1" stroke-width="3.2"/>
<circle clip-path="url(#clip442)" cx="700.663" cy="386.457" r="7.2" fill="#008000" fill-rule="evenodd" fill-opacity="1" stroke="#000000" stroke-opacity="1" stroke-width="3.2"/>
<circle clip-path="url(#clip442)" cx="715.008" cy="387.021" r="7.2" fill="#008000" fill-rule="evenodd" fill-opacity="1" stroke="#000000" stroke-opacity="1" stroke-width="3.2"/>
<circle clip-path="url(#clip442)" cx="729.353" cy="387.011" r="7.2" fill="#008000" fill-rule="evenodd" fill-opacity="1" stroke="#000000" stroke-opacity="1" stroke-width="3.2"/>
<circle clip-path="url(#clip442)" cx="743.698" cy="386.801" r="7.2" fill="#008000" fill-rule="evenodd" fill-opacity="1" stroke="#000000" stroke-opacity="1" stroke-width="3.2"/>
<circle clip-path="url(#clip442)" cx="758.042" cy="386.107" r="7.2" fill="#008000" fill-rule="evenodd" fill-opacity="1" stroke="#000000" stroke-opacity="1" stroke-width="3.2"/>
<circle clip-path="url(#clip442)" cx="772.387" cy="385.318" r="7.2" fill="#008000" fill-rule="evenodd" fill-opacity="1" stroke="#000000" stroke-opacity="1" stroke-width="3.2"/>
<circle clip-path="url(#clip442)" cx="786.732" cy="384.828" r="7.2" fill="#008000" fill-rule="evenodd" fill-opacity="1" stroke="#000000" stroke-opacity="1" stroke-width="3.2"/>
<circle clip-path="url(#clip442)" cx="801.077" cy="385.314" r="7.2" fill="#008000" fill-rule="evenodd" fill-opacity="1" stroke="#000000" stroke-opacity="1" stroke-width="3.2"/>
<circle clip-path="url(#clip442)" cx="815.422" cy="387.365" r="7.2" fill="#008000" fill-rule="evenodd" fill-opacity="1" stroke="#000000" stroke-opacity="1" stroke-width="3.2"/>
<circle clip-path="url(#clip442)" cx="829.767" cy="391.019" r="7.2" fill="#008000" fill-rule="evenodd" fill-opacity="1" stroke="#000000" stroke-opacity="1" stroke-width="3.2"/>
<circle clip-path="url(#clip442)" cx="844.111" cy="395.023" r="7.2" fill="#008000" fill-rule="evenodd" fill-opacity="1" stroke="#000000" stroke-opacity="1" stroke-width="3.2"/>
<circle clip-path="url(#clip442)" cx="858.456" cy="398.576" r="7.2" fill="#008000" fill-rule="evenodd" fill-opacity="1" stroke="#000000" stroke-opacity="1" stroke-width="3.2"/>
<circle clip-path="url(#clip442)" cx="872.801" cy="400.356" r="7.2" fill="#008000" fill-rule="evenodd" fill-opacity="1" stroke="#000000" stroke-opacity="1" stroke-width="3.2"/>
<circle clip-path="url(#clip442)" cx="887.146" cy="400.463" r="7.2" fill="#008000" fill-rule="evenodd" fill-opacity="1" stroke="#000000" stroke-opacity="1" stroke-width="3.2"/>
<circle clip-path="url(#clip442)" cx="901.491" cy="398.634" r="7.2" fill="#008000" fill-rule="evenodd" fill-opacity="1" stroke="#000000" stroke-opacity="1" stroke-width="3.2"/>
<circle clip-path="url(#clip442)" cx="915.835" cy="397.435" r="7.2" fill="#008000" fill-rule="evenodd" fill-opacity="1" stroke="#000000" stroke-opacity="1" stroke-width="3.2"/>
<circle clip-path="url(#clip442)" cx="930.18" cy="396.387" r="7.2" fill="#008000" fill-rule="evenodd" fill-opacity="1" stroke="#000000" stroke-opacity="1" stroke-width="3.2"/>
<circle clip-path="url(#clip442)" cx="944.525" cy="395.403" r="7.2" fill="#008000" fill-rule="evenodd" fill-opacity="1" stroke="#000000" stroke-opacity="1" stroke-width="3.2"/>
<circle clip-path="url(#clip442)" cx="958.87" cy="395.686" r="7.2" fill="#008000" fill-rule="evenodd" fill-opacity="1" stroke="#000000" stroke-opacity="1" stroke-width="3.2"/>
<circle clip-path="url(#clip442)" cx="973.215" cy="397.534" r="7.2" fill="#008000" fill-rule="evenodd" fill-opacity="1" stroke="#000000" stroke-opacity="1" stroke-width="3.2"/>
<circle clip-path="url(#clip442)" cx="987.56" cy="397.945" r="7.2" fill="#008000" fill-rule="evenodd" fill-opacity="1" stroke="#000000" stroke-opacity="1" stroke-width="3.2"/>
<circle clip-path="url(#clip442)" cx="1001.9" cy="398.971" r="7.2" fill="#008000" fill-rule="evenodd" fill-opacity="1" stroke="#000000" stroke-opacity="1" stroke-width="3.2"/>
<circle clip-path="url(#clip442)" cx="1016.25" cy="402.378" r="7.2" fill="#008000" fill-rule="evenodd" fill-opacity="1" stroke="#000000" stroke-opacity="1" stroke-width="3.2"/>
<circle clip-path="url(#clip442)" cx="1030.59" cy="407.935" r="7.2" fill="#008000" fill-rule="evenodd" fill-opacity="1" stroke="#000000" stroke-opacity="1" stroke-width="3.2"/>
<circle clip-path="url(#clip442)" cx="1044.94" cy="415.514" r="7.2" fill="#008000" fill-rule="evenodd" fill-opacity="1" stroke="#000000" stroke-opacity="1" stroke-width="3.2"/>
<circle clip-path="url(#clip442)" cx="1059.28" cy="428.531" r="7.2" fill="#008000" fill-rule="evenodd" fill-opacity="1" stroke="#000000" stroke-opacity="1" stroke-width="3.2"/>
<circle clip-path="url(#clip442)" cx="1073.63" cy="445.42" r="7.2" fill="#008000" fill-rule="evenodd" fill-opacity="1" stroke="#000000" stroke-opacity="1" stroke-width="3.2"/>
<circle clip-path="url(#clip442)" cx="1087.97" cy="467.291" r="7.2" fill="#008000" fill-rule="evenodd" fill-opacity="1" stroke="#000000" stroke-opacity="1" stroke-width="3.2"/>
<circle clip-path="url(#clip442)" cx="1102.32" cy="498.216" r="7.2" fill="#008000" fill-rule="evenodd" fill-opacity="1" stroke="#000000" stroke-opacity="1" stroke-width="3.2"/>
<circle clip-path="url(#clip442)" cx="1116.66" cy="535.954" r="7.2" fill="#008000" fill-rule="evenodd" fill-opacity="1" stroke="#000000" stroke-opacity="1" stroke-width="3.2"/>
<circle clip-path="url(#clip442)" cx="1131.01" cy="578.78" r="7.2" fill="#008000" fill-rule="evenodd" fill-opacity="1" stroke="#000000" stroke-opacity="1" stroke-width="3.2"/>
<circle clip-path="url(#clip442)" cx="1145.35" cy="624.212" r="7.2" fill="#008000" fill-rule="evenodd" fill-opacity="1" stroke="#000000" stroke-opacity="1" stroke-width="3.2"/>
<circle clip-path="url(#clip442)" cx="1159.7" cy="670.442" r="7.2" fill="#008000" fill-rule="evenodd" fill-opacity="1" stroke="#000000" stroke-opacity="1" stroke-width="3.2"/>
<circle clip-path="url(#clip442)" cx="1174.04" cy="715.399" r="7.2" fill="#008000" fill-rule="evenodd" fill-opacity="1" stroke="#000000" stroke-opacity="1" stroke-width="3.2"/>
<circle clip-path="url(#clip442)" cx="1188.39" cy="759.125" r="7.2" fill="#008000" fill-rule="evenodd" fill-opacity="1" stroke="#000000" stroke-opacity="1" stroke-width="3.2"/>
<circle clip-path="url(#clip442)" cx="1202.73" cy="803.202" r="7.2" fill="#008000" fill-rule="evenodd" fill-opacity="1" stroke="#000000" stroke-opacity="1" stroke-width="3.2"/>
<circle clip-path="url(#clip442)" cx="1217.08" cy="845.287" r="7.2" fill="#008000" fill-rule="evenodd" fill-opacity="1" stroke="#000000" stroke-opacity="1" stroke-width="3.2"/>
<circle clip-path="url(#clip442)" cx="1231.42" cy="884.879" r="7.2" fill="#008000" fill-rule="evenodd" fill-opacity="1" stroke="#000000" stroke-opacity="1" stroke-width="3.2"/>
<circle clip-path="url(#clip442)" cx="1245.77" cy="923.003" r="7.2" fill="#008000" fill-rule="evenodd" fill-opacity="1" stroke="#000000" stroke-opacity="1" stroke-width="3.2"/>
<circle clip-path="url(#clip442)" cx="1260.11" cy="953.218" r="7.2" fill="#008000" fill-rule="evenodd" fill-opacity="1" stroke="#000000" stroke-opacity="1" stroke-width="3.2"/>
<circle clip-path="url(#clip442)" cx="1274.46" cy="976.65" r="7.2" fill="#008000" fill-rule="evenodd" fill-opacity="1" stroke="#000000" stroke-opacity="1" stroke-width="3.2"/>
<circle clip-path="url(#clip442)" cx="1288.8" cy="994.594" r="7.2" fill="#008000" fill-rule="evenodd" fill-opacity="1" stroke="#000000" stroke-opacity="1" stroke-width="3.2"/>
<circle clip-path="url(#clip442)" cx="1303.15" cy="1010.21" r="7.2" fill="#008000" fill-rule="evenodd" fill-opacity="1" stroke="#000000" stroke-opacity="1" stroke-width="3.2"/>
<circle clip-path="url(#clip442)" cx="1317.49" cy="1025.34" r="7.2" fill="#008000" fill-rule="evenodd" fill-opacity="1" stroke="#000000" stroke-opacity="1" stroke-width="3.2"/>
<circle clip-path="url(#clip442)" cx="1331.84" cy="1043.27" r="7.2" fill="#008000" fill-rule="evenodd" fill-opacity="1" stroke="#000000" stroke-opacity="1" stroke-width="3.2"/>
<circle clip-path="url(#clip442)" cx="1346.18" cy="1065.16" r="7.2" fill="#008000" fill-rule="evenodd" fill-opacity="1" stroke="#000000" stroke-opacity="1" stroke-width="3.2"/>
<circle clip-path="url(#clip442)" cx="1360.52" cy="1084.61" r="7.2" fill="#008000" fill-rule="evenodd" fill-opacity="1" stroke="#000000" stroke-opacity="1" stroke-width="3.2"/>
<circle clip-path="url(#clip442)" cx="1374.87" cy="1098.2" r="7.2" fill="#008000" fill-rule="evenodd" fill-opacity="1" stroke="#000000" stroke-opacity="1" stroke-width="3.2"/>
<circle clip-path="url(#clip442)" cx="1389.21" cy="1104.64" r="7.2" fill="#008000" fill-rule="evenodd" fill-opacity="1" stroke="#000000" stroke-opacity="1" stroke-width="3.2"/>
<circle clip-path="url(#clip442)" cx="1403.56" cy="1097.23" r="7.2" fill="#008000" fill-rule="evenodd" fill-opacity="1" stroke="#000000" stroke-opacity="1" stroke-width="3.2"/>
<circle clip-path="url(#clip442)" cx="1417.9" cy="1079.15" r="7.2" fill="#008000" fill-rule="evenodd" fill-opacity="1" stroke="#000000" stroke-opacity="1" stroke-width="3.2"/>
<circle clip-path="url(#clip442)" cx="1432.25" cy="1056.84" r="7.2" fill="#008000" fill-rule="evenodd" fill-opacity="1" stroke="#000000" stroke-opacity="1" stroke-width="3.2"/>
<circle clip-path="url(#clip442)" cx="1446.59" cy="1033.56" r="7.2" fill="#008000" fill-rule="evenodd" fill-opacity="1" stroke="#000000" stroke-opacity="1" stroke-width="3.2"/>
<circle clip-path="url(#clip442)" cx="1460.94" cy="1016.71" r="7.2" fill="#008000" fill-rule="evenodd" fill-opacity="1" stroke="#000000" stroke-opacity="1" stroke-width="3.2"/>
<circle clip-path="url(#clip442)" cx="1475.28" cy="1010.26" r="7.2" fill="#008000" fill-rule="evenodd" fill-opacity="1" stroke="#000000" stroke-opacity="1" stroke-width="3.2"/>
<circle clip-path="url(#clip442)" cx="1489.63" cy="1010.99" r="7.2" fill="#008000" fill-rule="evenodd" fill-opacity="1" stroke="#000000" stroke-opacity="1" stroke-width="3.2"/>
<circle clip-path="url(#clip442)" cx="1503.97" cy="1010.94" r="7.2" fill="#008000" fill-rule="evenodd" fill-opacity="1" stroke="#000000" stroke-opacity="1" stroke-width="3.2"/>
<circle clip-path="url(#clip442)" cx="1518.32" cy="1003.29" r="7.2" fill="#008000" fill-rule="evenodd" fill-opacity="1" stroke="#000000" stroke-opacity="1" stroke-width="3.2"/>
<circle clip-path="url(#clip442)" cx="1532.66" cy="983.203" r="7.2" fill="#008000" fill-rule="evenodd" fill-opacity="1" stroke="#000000" stroke-opacity="1" stroke-width="3.2"/>
<circle clip-path="url(#clip442)" cx="1547.01" cy="947.806" r="7.2" fill="#008000" fill-rule="evenodd" fill-opacity="1" stroke="#000000" stroke-opacity="1" stroke-width="3.2"/>
<circle clip-path="url(#clip442)" cx="1561.35" cy="902.274" r="7.2" fill="#008000" fill-rule="evenodd" fill-opacity="1" stroke="#000000" stroke-opacity="1" stroke-width="3.2"/>
<circle clip-path="url(#clip442)" cx="1575.7" cy="855.187" r="7.2" fill="#008000" fill-rule="evenodd" fill-opacity="1" stroke="#000000" stroke-opacity="1" stroke-width="3.2"/>
<circle clip-path="url(#clip442)" cx="1590.04" cy="807.374" r="7.2" fill="#008000" fill-rule="evenodd" fill-opacity="1" stroke="#000000" stroke-opacity="1" stroke-width="3.2"/>
<circle clip-path="url(#clip442)" cx="1604.39" cy="766.155" r="7.2" fill="#008000" fill-rule="evenodd" fill-opacity="1" stroke="#000000" stroke-opacity="1" stroke-width="3.2"/>
<circle clip-path="url(#clip442)" cx="1618.73" cy="732.708" r="7.2" fill="#008000" fill-rule="evenodd" fill-opacity="1" stroke="#000000" stroke-opacity="1" stroke-width="3.2"/>
<circle clip-path="url(#clip442)" cx="1633.08" cy="703.609" r="7.2" fill="#008000" fill-rule="evenodd" fill-opacity="1" stroke="#000000" stroke-opacity="1" stroke-width="3.2"/>
<circle clip-path="url(#clip442)" cx="1647.42" cy="677.244" r="7.2" fill="#008000" fill-rule="evenodd" fill-opacity="1" stroke="#000000" stroke-opacity="1" stroke-width="3.2"/>
<circle clip-path="url(#clip442)" cx="1661.77" cy="652.121" r="7.2" fill="#008000" fill-rule="evenodd" fill-opacity="1" stroke="#000000" stroke-opacity="1" stroke-width="3.2"/>
<circle clip-path="url(#clip442)" cx="1676.11" cy="626.042" r="7.2" fill="#008000" fill-rule="evenodd" fill-opacity="1" stroke="#000000" stroke-opacity="1" stroke-width="3.2"/>
<circle clip-path="url(#clip442)" cx="1690.46" cy="598.332" r="7.2" fill="#008000" fill-rule="evenodd" fill-opacity="1" stroke="#000000" stroke-opacity="1" stroke-width="3.2"/>
<circle clip-path="url(#clip442)" cx="1704.8" cy="571.458" r="7.2" fill="#008000" fill-rule="evenodd" fill-opacity="1" stroke="#000000" stroke-opacity="1" stroke-width="3.2"/>
<circle clip-path="url(#clip442)" cx="1719.15" cy="547.692" r="7.2" fill="#008000" fill-rule="evenodd" fill-opacity="1" stroke="#000000" stroke-opacity="1" stroke-width="3.2"/>
<circle clip-path="url(#clip442)" cx="1733.49" cy="523.248" r="7.2" fill="#008000" fill-rule="evenodd" fill-opacity="1" stroke="#000000" stroke-opacity="1" stroke-width="3.2"/>
<circle clip-path="url(#clip442)" cx="1747.83" cy="502.783" r="7.2" fill="#008000" fill-rule="evenodd" fill-opacity="1" stroke="#000000" stroke-opacity="1" stroke-width="3.2"/>
<circle clip-path="url(#clip442)" cx="1762.18" cy="484.995" r="7.2" fill="#008000" fill-rule="evenodd" fill-opacity="1" stroke="#000000" stroke-opacity="1" stroke-width="3.2"/>
<circle clip-path="url(#clip442)" cx="1776.52" cy="466.361" r="7.2" fill="#008000" fill-rule="evenodd" fill-opacity="1" stroke="#000000" stroke-opacity="1" stroke-width="3.2"/>
<circle clip-path="url(#clip442)" cx="1790.87" cy="446.458" r="7.2" fill="#008000" fill-rule="evenodd" fill-opacity="1" stroke="#000000" stroke-opacity="1" stroke-width="3.2"/>
<circle clip-path="url(#clip442)" cx="1805.21" cy="423.832" r="7.2" fill="#008000" fill-rule="evenodd" fill-opacity="1" stroke="#000000" stroke-opacity="1" stroke-width="3.2"/>
<circle clip-path="url(#clip442)" cx="1819.56" cy="396.088" r="7.2" fill="#008000" fill-rule="evenodd" fill-opacity="1" stroke="#000000" stroke-opacity="1" stroke-width="3.2"/>
<circle clip-path="url(#clip442)" cx="1833.9" cy="366.006" r="7.2" fill="#008000" fill-rule="evenodd" fill-opacity="1" stroke="#000000" stroke-opacity="1" stroke-width="3.2"/>
<circle clip-path="url(#clip442)" cx="1848.25" cy="336.317" r="7.2" fill="#008000" fill-rule="evenodd" fill-opacity="1" stroke="#000000" stroke-opacity="1" stroke-width="3.2"/>
<circle clip-path="url(#clip442)" cx="1862.59" cy="310.065" r="7.2" fill="#008000" fill-rule="evenodd" fill-opacity="1" stroke="#000000" stroke-opacity="1" stroke-width="3.2"/>
<circle clip-path="url(#clip442)" cx="1876.94" cy="287.117" r="7.2" fill="#008000" fill-rule="evenodd" fill-opacity="1" stroke="#000000" stroke-opacity="1" stroke-width="3.2"/>
<circle clip-path="url(#clip442)" cx="1891.28" cy="270.163" r="7.2" fill="#008000" fill-rule="evenodd" fill-opacity="1" stroke="#000000" stroke-opacity="1" stroke-width="3.2"/>
<circle clip-path="url(#clip442)" cx="1905.63" cy="258.24" r="7.2" fill="#008000" fill-rule="evenodd" fill-opacity="1" stroke="#000000" stroke-opacity="1" stroke-width="3.2"/>
<circle clip-path="url(#clip442)" cx="1919.97" cy="249.486" r="7.2" fill="#008000" fill-rule="evenodd" fill-opacity="1" stroke="#000000" stroke-opacity="1" stroke-width="3.2"/>
<circle clip-path="url(#clip442)" cx="1934.32" cy="243.926" r="7.2" fill="#008000" fill-rule="evenodd" fill-opacity="1" stroke="#000000" stroke-opacity="1" stroke-width="3.2"/>
<circle clip-path="url(#clip442)" cx="1948.66" cy="241.233" r="7.2" fill="#008000" fill-rule="evenodd" fill-opacity="1" stroke="#000000" stroke-opacity="1" stroke-width="3.2"/>
<circle clip-path="url(#clip442)" cx="1963.01" cy="240.117" r="7.2" fill="#008000" fill-rule="evenodd" fill-opacity="1" stroke="#000000" stroke-opacity="1" stroke-width="3.2"/>
<circle clip-path="url(#clip442)" cx="1977.35" cy="241.99" r="7.2" fill="#008000" fill-rule="evenodd" fill-opacity="1" stroke="#000000" stroke-opacity="1" stroke-width="3.2"/>
<circle clip-path="url(#clip442)" cx="1991.7" cy="246.379" r="7.2" fill="#008000" fill-rule="evenodd" fill-opacity="1" stroke="#000000" stroke-opacity="1" stroke-width="3.2"/>
<circle clip-path="url(#clip442)" cx="2006.04" cy="251.639" r="7.2" fill="#008000" fill-rule="evenodd" fill-opacity="1" stroke="#000000" stroke-opacity="1" stroke-width="3.2"/>
<circle clip-path="url(#clip442)" cx="2020.39" cy="255.684" r="7.2" fill="#008000" fill-rule="evenodd" fill-opacity="1" stroke="#000000" stroke-opacity="1" stroke-width="3.2"/>
<circle clip-path="url(#clip442)" cx="2034.73" cy="258.568" r="7.2" fill="#008000" fill-rule="evenodd" fill-opacity="1" stroke="#000000" stroke-opacity="1" stroke-width="3.2"/>
<circle clip-path="url(#clip442)" cx="2049.08" cy="258.986" r="7.2" fill="#008000" fill-rule="evenodd" fill-opacity="1" stroke="#000000" stroke-opacity="1" stroke-width="3.2"/>
<circle clip-path="url(#clip442)" cx="2063.42" cy="257.449" r="7.2" fill="#008000" fill-rule="evenodd" fill-opacity="1" stroke="#000000" stroke-opacity="1" stroke-width="3.2"/>
<circle clip-path="url(#clip442)" cx="2077.77" cy="256.383" r="7.2" fill="#008000" fill-rule="evenodd" fill-opacity="1" stroke="#000000" stroke-opacity="1" stroke-width="3.2"/>
<circle clip-path="url(#clip442)" cx="2092.11" cy="257.655" r="7.2" fill="#008000" fill-rule="evenodd" fill-opacity="1" stroke="#000000" stroke-opacity="1" stroke-width="3.2"/>
<circle clip-path="url(#clip442)" cx="2106.46" cy="261.95" r="7.2" fill="#008000" fill-rule="evenodd" fill-opacity="1" stroke="#000000" stroke-opacity="1" stroke-width="3.2"/>
<circle clip-path="url(#clip442)" cx="2120.8" cy="269.964" r="7.2" fill="#008000" fill-rule="evenodd" fill-opacity="1" stroke="#000000" stroke-opacity="1" stroke-width="3.2"/>
<circle clip-path="url(#clip442)" cx="2135.15" cy="280.781" r="7.2" fill="#008000" fill-rule="evenodd" fill-opacity="1" stroke="#000000" stroke-opacity="1" stroke-width="3.2"/>
<circle clip-path="url(#clip442)" cx="2149.49" cy="292.624" r="7.2" fill="#008000" fill-rule="evenodd" fill-opacity="1" stroke="#000000" stroke-opacity="1" stroke-width="3.2"/>
<circle clip-path="url(#clip442)" cx="2163.83" cy="305.32" r="7.2" fill="#008000" fill-rule="evenodd" fill-opacity="1" stroke="#000000" stroke-opacity="1" stroke-width="3.2"/>
<circle clip-path="url(#clip442)" cx="2178.18" cy="316.111" r="7.2" fill="#008000" fill-rule="evenodd" fill-opacity="1" stroke="#000000" stroke-opacity="1" stroke-width="3.2"/>
<circle clip-path="url(#clip442)" cx="2192.52" cy="323.281" r="7.2" fill="#008000" fill-rule="evenodd" fill-opacity="1" stroke="#000000" stroke-opacity="1" stroke-width="3.2"/>
<circle clip-path="url(#clip442)" cx="2206.87" cy="327.007" r="7.2" fill="#008000" fill-rule="evenodd" fill-opacity="1" stroke="#000000" stroke-opacity="1" stroke-width="3.2"/>
<circle clip-path="url(#clip442)" cx="2221.21" cy="327.172" r="7.2" fill="#008000" fill-rule="evenodd" fill-opacity="1" stroke="#000000" stroke-opacity="1" stroke-width="3.2"/>
<circle clip-path="url(#clip442)" cx="2235.56" cy="325.648" r="7.2" fill="#008000" fill-rule="evenodd" fill-opacity="1" stroke="#000000" stroke-opacity="1" stroke-width="3.2"/>
<circle clip-path="url(#clip442)" cx="2249.9" cy="324.111" r="7.2" fill="#008000" fill-rule="evenodd" fill-opacity="1" stroke="#000000" stroke-opacity="1" stroke-width="3.2"/>
<circle clip-path="url(#clip442)" cx="2264.25" cy="324.355" r="7.2" fill="#008000" fill-rule="evenodd" fill-opacity="1" stroke="#000000" stroke-opacity="1" stroke-width="3.2"/>
<circle clip-path="url(#clip442)" cx="2278.59" cy="327.883" r="7.2" fill="#008000" fill-rule="evenodd" fill-opacity="1" stroke="#000000" stroke-opacity="1" stroke-width="3.2"/>
<circle clip-path="url(#clip442)" cx="2292.94" cy="335.038" r="7.2" fill="#008000" fill-rule="evenodd" fill-opacity="1" stroke="#000000" stroke-opacity="1" stroke-width="3.2"/>
<circle clip-path="url(#clip442)" cx="299.008" cy="383.959" r="7.2" fill="#008000" fill-rule="evenodd" fill-opacity="1" stroke="#000000" stroke-opacity="1" stroke-width="3.2"/>
<circle clip-path="url(#clip442)" cx="313.353" cy="384.312" r="7.2" fill="#008000" fill-rule="evenodd" fill-opacity="1" stroke="#000000" stroke-opacity="1" stroke-width="3.2"/>
<circle clip-path="url(#clip442)" cx="327.698" cy="385.044" r="7.2" fill="#008000" fill-rule="evenodd" fill-opacity="1" stroke="#000000" stroke-opacity="1" stroke-width="3.2"/>
<circle clip-path="url(#clip442)" cx="342.043" cy="385.785" r="7.2" fill="#008000" fill-rule="evenodd" fill-opacity="1" stroke="#000000" stroke-opacity="1" stroke-width="3.2"/>
<circle clip-path="url(#clip442)" cx="356.388" cy="386.05" r="7.2" fill="#008000" fill-rule="evenodd" fill-opacity="1" stroke="#000000" stroke-opacity="1" stroke-width="3.2"/>
<circle clip-path="url(#clip442)" cx="370.732" cy="385.915" r="7.2" fill="#008000" fill-rule="evenodd" fill-opacity="1" stroke="#000000" stroke-opacity="1" stroke-width="3.2"/>
<circle clip-path="url(#clip442)" cx="385.077" cy="385.641" r="7.2" fill="#008000" fill-rule="evenodd" fill-opacity="1" stroke="#000000" stroke-opacity="1" stroke-width="3.2"/>
<circle clip-path="url(#clip442)" cx="399.422" cy="385.577" r="7.2" fill="#008000" fill-rule="evenodd" fill-opacity="1" stroke="#000000" stroke-opacity="1" stroke-width="3.2"/>
<circle clip-path="url(#clip442)" cx="413.767" cy="385.748" r="7.2" fill="#008000" fill-rule="evenodd" fill-opacity="1" stroke="#000000" stroke-opacity="1" stroke-width="3.2"/>
<circle clip-path="url(#clip442)" cx="428.112" cy="386.015" r="7.2" fill="#008000" fill-rule="evenodd" fill-opacity="1" stroke="#000000" stroke-opacity="1" stroke-width="3.2"/>
<circle clip-path="url(#clip442)" cx="442.456" cy="385.839" r="7.2" fill="#008000" fill-rule="evenodd" fill-opacity="1" stroke="#000000" stroke-opacity="1" stroke-width="3.2"/>
<circle clip-path="url(#clip442)" cx="456.801" cy="385.361" r="7.2" fill="#008000" fill-rule="evenodd" fill-opacity="1" stroke="#000000" stroke-opacity="1" stroke-width="3.2"/>
<circle clip-path="url(#clip442)" cx="471.146" cy="384.726" r="7.2" fill="#008000" fill-rule="evenodd" fill-opacity="1" stroke="#000000" stroke-opacity="1" stroke-width="3.2"/>
<circle clip-path="url(#clip442)" cx="485.491" cy="384.862" r="7.2" fill="#008000" fill-rule="evenodd" fill-opacity="1" stroke="#000000" stroke-opacity="1" stroke-width="3.2"/>
<circle clip-path="url(#clip442)" cx="499.836" cy="386.24" r="7.2" fill="#008000" fill-rule="evenodd" fill-opacity="1" stroke="#000000" stroke-opacity="1" stroke-width="3.2"/>
<circle clip-path="url(#clip442)" cx="514.181" cy="389.03" r="7.2" fill="#008000" fill-rule="evenodd" fill-opacity="1" stroke="#000000" stroke-opacity="1" stroke-width="3.2"/>
<circle clip-path="url(#clip442)" cx="528.525" cy="392.007" r="7.2" fill="#008000" fill-rule="evenodd" fill-opacity="1" stroke="#000000" stroke-opacity="1" stroke-width="3.2"/>
<circle clip-path="url(#clip442)" cx="542.87" cy="394.103" r="7.2" fill="#008000" fill-rule="evenodd" fill-opacity="1" stroke="#000000" stroke-opacity="1" stroke-width="3.2"/>
<circle clip-path="url(#clip442)" cx="557.215" cy="394.197" r="7.2" fill="#008000" fill-rule="evenodd" fill-opacity="1" stroke="#000000" stroke-opacity="1" stroke-width="3.2"/>
<circle clip-path="url(#clip442)" cx="571.56" cy="392.391" r="7.2" fill="#008000" fill-rule="evenodd" fill-opacity="1" stroke="#000000" stroke-opacity="1" stroke-width="3.2"/>
<circle clip-path="url(#clip442)" cx="585.905" cy="389.478" r="7.2" fill="#008000" fill-rule="evenodd" fill-opacity="1" stroke="#000000" stroke-opacity="1" stroke-width="3.2"/>
<circle clip-path="url(#clip442)" cx="600.249" cy="386.727" r="7.2" fill="#008000" fill-rule="evenodd" fill-opacity="1" stroke="#000000" stroke-opacity="1" stroke-width="3.2"/>
<circle clip-path="url(#clip442)" cx="614.594" cy="384.731" r="7.2" fill="#008000" fill-rule="evenodd" fill-opacity="1" stroke="#000000" stroke-opacity="1" stroke-width="3.2"/>
<circle clip-path="url(#clip442)" cx="628.939" cy="383.852" r="7.2" fill="#008000" fill-rule="evenodd" fill-opacity="1" stroke="#000000" stroke-opacity="1" stroke-width="3.2"/>
<circle clip-path="url(#clip442)" cx="643.284" cy="383.352" r="7.2" fill="#008000" fill-rule="evenodd" fill-opacity="1" stroke="#000000" stroke-opacity="1" stroke-width="3.2"/>
<circle clip-path="url(#clip442)" cx="657.629" cy="382.616" r="7.2" fill="#008000" fill-rule="evenodd" fill-opacity="1" stroke="#000000" stroke-opacity="1" stroke-width="3.2"/>
<circle clip-path="url(#clip442)" cx="671.974" cy="381.266" r="7.2" fill="#008000" fill-rule="evenodd" fill-opacity="1" stroke="#000000" stroke-opacity="1" stroke-width="3.2"/>
<circle clip-path="url(#clip442)" cx="686.318" cy="379.454" r="7.2" fill="#008000" fill-rule="evenodd" fill-opacity="1" stroke="#000000" stroke-opacity="1" stroke-width="3.2"/>
<circle clip-path="url(#clip442)" cx="700.663" cy="378.312" r="7.2" fill="#008000" fill-rule="evenodd" fill-opacity="1" stroke="#000000" stroke-opacity="1" stroke-width="3.2"/>
<circle clip-path="url(#clip442)" cx="715.008" cy="378.681" r="7.2" fill="#008000" fill-rule="evenodd" fill-opacity="1" stroke="#000000" stroke-opacity="1" stroke-width="3.2"/>
<circle clip-path="url(#clip442)" cx="729.353" cy="381.143" r="7.2" fill="#008000" fill-rule="evenodd" fill-opacity="1" stroke="#000000" stroke-opacity="1" stroke-width="3.2"/>
<circle clip-path="url(#clip442)" cx="743.698" cy="385.188" r="7.2" fill="#008000" fill-rule="evenodd" fill-opacity="1" stroke="#000000" stroke-opacity="1" stroke-width="3.2"/>
<circle clip-path="url(#clip442)" cx="758.042" cy="389.767" r="7.2" fill="#008000" fill-rule="evenodd" fill-opacity="1" stroke="#000000" stroke-opacity="1" stroke-width="3.2"/>
<circle clip-path="url(#clip442)" cx="772.387" cy="392.741" r="7.2" fill="#008000" fill-rule="evenodd" fill-opacity="1" stroke="#000000" stroke-opacity="1" stroke-width="3.2"/>
<circle clip-path="url(#clip442)" cx="786.732" cy="393.091" r="7.2" fill="#008000" fill-rule="evenodd" fill-opacity="1" stroke="#000000" stroke-opacity="1" stroke-width="3.2"/>
<circle clip-path="url(#clip442)" cx="801.077" cy="390.351" r="7.2" fill="#008000" fill-rule="evenodd" fill-opacity="1" stroke="#000000" stroke-opacity="1" stroke-width="3.2"/>
<circle clip-path="url(#clip442)" cx="815.422" cy="385.719" r="7.2" fill="#008000" fill-rule="evenodd" fill-opacity="1" stroke="#000000" stroke-opacity="1" stroke-width="3.2"/>
<circle clip-path="url(#clip442)" cx="829.767" cy="380.975" r="7.2" fill="#008000" fill-rule="evenodd" fill-opacity="1" stroke="#000000" stroke-opacity="1" stroke-width="3.2"/>
<circle clip-path="url(#clip442)" cx="844.111" cy="378.372" r="7.2" fill="#008000" fill-rule="evenodd" fill-opacity="1" stroke="#000000" stroke-opacity="1" stroke-width="3.2"/>
<circle clip-path="url(#clip442)" cx="858.456" cy="378.072" r="7.2" fill="#008000" fill-rule="evenodd" fill-opacity="1" stroke="#000000" stroke-opacity="1" stroke-width="3.2"/>
<circle clip-path="url(#clip442)" cx="872.801" cy="378.997" r="7.2" fill="#008000" fill-rule="evenodd" fill-opacity="1" stroke="#000000" stroke-opacity="1" stroke-width="3.2"/>
<circle clip-path="url(#clip442)" cx="887.146" cy="379.81" r="7.2" fill="#008000" fill-rule="evenodd" fill-opacity="1" stroke="#000000" stroke-opacity="1" stroke-width="3.2"/>
<circle clip-path="url(#clip442)" cx="901.491" cy="379.245" r="7.2" fill="#008000" fill-rule="evenodd" fill-opacity="1" stroke="#000000" stroke-opacity="1" stroke-width="3.2"/>
<circle clip-path="url(#clip442)" cx="915.835" cy="376.407" r="7.2" fill="#008000" fill-rule="evenodd" fill-opacity="1" stroke="#000000" stroke-opacity="1" stroke-width="3.2"/>
<circle clip-path="url(#clip442)" cx="930.18" cy="372.488" r="7.2" fill="#008000" fill-rule="evenodd" fill-opacity="1" stroke="#000000" stroke-opacity="1" stroke-width="3.2"/>
<circle clip-path="url(#clip442)" cx="944.525" cy="368.463" r="7.2" fill="#008000" fill-rule="evenodd" fill-opacity="1" stroke="#000000" stroke-opacity="1" stroke-width="3.2"/>
<circle clip-path="url(#clip442)" cx="958.87" cy="365.303" r="7.2" fill="#008000" fill-rule="evenodd" fill-opacity="1" stroke="#000000" stroke-opacity="1" stroke-width="3.2"/>
<circle clip-path="url(#clip442)" cx="973.215" cy="363.408" r="7.2" fill="#008000" fill-rule="evenodd" fill-opacity="1" stroke="#000000" stroke-opacity="1" stroke-width="3.2"/>
<circle clip-path="url(#clip442)" cx="987.56" cy="361.219" r="7.2" fill="#008000" fill-rule="evenodd" fill-opacity="1" stroke="#000000" stroke-opacity="1" stroke-width="3.2"/>
<circle clip-path="url(#clip442)" cx="1001.9" cy="357.679" r="7.2" fill="#008000" fill-rule="evenodd" fill-opacity="1" stroke="#000000" stroke-opacity="1" stroke-width="3.2"/>
<circle clip-path="url(#clip442)" cx="1016.25" cy="351.407" r="7.2" fill="#008000" fill-rule="evenodd" fill-opacity="1" stroke="#000000" stroke-opacity="1" stroke-width="3.2"/>
<circle clip-path="url(#clip442)" cx="1030.59" cy="342.193" r="7.2" fill="#008000" fill-rule="evenodd" fill-opacity="1" stroke="#000000" stroke-opacity="1" stroke-width="3.2"/>
<circle clip-path="url(#clip442)" cx="1044.94" cy="330.237" r="7.2" fill="#008000" fill-rule="evenodd" fill-opacity="1" stroke="#000000" stroke-opacity="1" stroke-width="3.2"/>
<circle clip-path="url(#clip442)" cx="1059.28" cy="317.613" r="7.2" fill="#008000" fill-rule="evenodd" fill-opacity="1" stroke="#000000" stroke-opacity="1" stroke-width="3.2"/>
<circle clip-path="url(#clip442)" cx="1073.63" cy="306.258" r="7.2" fill="#008000" fill-rule="evenodd" fill-opacity="1" stroke="#000000" stroke-opacity="1" stroke-width="3.2"/>
<circle clip-path="url(#clip442)" cx="1087.97" cy="298.396" r="7.2" fill="#008000" fill-rule="evenodd" fill-opacity="1" stroke="#000000" stroke-opacity="1" stroke-width="3.2"/>
<circle clip-path="url(#clip442)" cx="1102.32" cy="295.925" r="7.2" fill="#008000" fill-rule="evenodd" fill-opacity="1" stroke="#000000" stroke-opacity="1" stroke-width="3.2"/>
<circle clip-path="url(#clip442)" cx="1116.66" cy="299.989" r="7.2" fill="#008000" fill-rule="evenodd" fill-opacity="1" stroke="#000000" stroke-opacity="1" stroke-width="3.2"/>
<circle clip-path="url(#clip442)" cx="1131.01" cy="307.802" r="7.2" fill="#008000" fill-rule="evenodd" fill-opacity="1" stroke="#000000" stroke-opacity="1" stroke-width="3.2"/>
<circle clip-path="url(#clip442)" cx="1145.35" cy="317.378" r="7.2" fill="#008000" fill-rule="evenodd" fill-opacity="1" stroke="#000000" stroke-opacity="1" stroke-width="3.2"/>
<circle clip-path="url(#clip442)" cx="1159.7" cy="326.135" r="7.2" fill="#008000" fill-rule="evenodd" fill-opacity="1" stroke="#000000" stroke-opacity="1" stroke-width="3.2"/>
<circle clip-path="url(#clip442)" cx="1174.04" cy="331.767" r="7.2" fill="#008000" fill-rule="evenodd" fill-opacity="1" stroke="#000000" stroke-opacity="1" stroke-width="3.2"/>
<circle clip-path="url(#clip442)" cx="1188.39" cy="333.253" r="7.2" fill="#008000" fill-rule="evenodd" fill-opacity="1" stroke="#000000" stroke-opacity="1" stroke-width="3.2"/>
<circle clip-path="url(#clip442)" cx="1202.73" cy="333.656" r="7.2" fill="#008000" fill-rule="evenodd" fill-opacity="1" stroke="#000000" stroke-opacity="1" stroke-width="3.2"/>
<circle clip-path="url(#clip442)" cx="1217.08" cy="335.111" r="7.2" fill="#008000" fill-rule="evenodd" fill-opacity="1" stroke="#000000" stroke-opacity="1" stroke-width="3.2"/>
<circle clip-path="url(#clip442)" cx="1231.42" cy="340.971" r="7.2" fill="#008000" fill-rule="evenodd" fill-opacity="1" stroke="#000000" stroke-opacity="1" stroke-width="3.2"/>
<circle clip-path="url(#clip442)" cx="1245.77" cy="354.078" r="7.2" fill="#008000" fill-rule="evenodd" fill-opacity="1" stroke="#000000" stroke-opacity="1" stroke-width="3.2"/>
<circle clip-path="url(#clip442)" cx="1260.11" cy="374.039" r="7.2" fill="#008000" fill-rule="evenodd" fill-opacity="1" stroke="#000000" stroke-opacity="1" stroke-width="3.2"/>
<circle clip-path="url(#clip442)" cx="1274.46" cy="398.256" r="7.2" fill="#008000" fill-rule="evenodd" fill-opacity="1" stroke="#000000" stroke-opacity="1" stroke-width="3.2"/>
<circle clip-path="url(#clip442)" cx="1288.8" cy="423.385" r="7.2" fill="#008000" fill-rule="evenodd" fill-opacity="1" stroke="#000000" stroke-opacity="1" stroke-width="3.2"/>
<circle clip-path="url(#clip442)" cx="1303.15" cy="447.485" r="7.2" fill="#008000" fill-rule="evenodd" fill-opacity="1" stroke="#000000" stroke-opacity="1" stroke-width="3.2"/>
<circle clip-path="url(#clip442)" cx="1317.49" cy="468.441" r="7.2" fill="#008000" fill-rule="evenodd" fill-opacity="1" stroke="#000000" stroke-opacity="1" stroke-width="3.2"/>
<circle clip-path="url(#clip442)" cx="1331.84" cy="486.265" r="7.2" fill="#008000" fill-rule="evenodd" fill-opacity="1" stroke="#000000" stroke-opacity="1" stroke-width="3.2"/>
<circle clip-path="url(#clip442)" cx="1346.18" cy="505.252" r="7.2" fill="#008000" fill-rule="evenodd" fill-opacity="1" stroke="#000000" stroke-opacity="1" stroke-width="3.2"/>
<circle clip-path="url(#clip442)" cx="1360.52" cy="524.974" r="7.2" fill="#008000" fill-rule="evenodd" fill-opacity="1" stroke="#000000" stroke-opacity="1" stroke-width="3.2"/>
<circle clip-path="url(#clip442)" cx="1374.87" cy="545.765" r="7.2" fill="#008000" fill-rule="evenodd" fill-opacity="1" stroke="#000000" stroke-opacity="1" stroke-width="3.2"/>
<circle clip-path="url(#clip442)" cx="1389.21" cy="568.714" r="7.2" fill="#008000" fill-rule="evenodd" fill-opacity="1" stroke="#000000" stroke-opacity="1" stroke-width="3.2"/>
<circle clip-path="url(#clip442)" cx="1403.56" cy="589.571" r="7.2" fill="#008000" fill-rule="evenodd" fill-opacity="1" stroke="#000000" stroke-opacity="1" stroke-width="3.2"/>
<circle clip-path="url(#clip442)" cx="1417.9" cy="606.924" r="7.2" fill="#008000" fill-rule="evenodd" fill-opacity="1" stroke="#000000" stroke-opacity="1" stroke-width="3.2"/>
<circle clip-path="url(#clip442)" cx="1432.25" cy="620.851" r="7.2" fill="#008000" fill-rule="evenodd" fill-opacity="1" stroke="#000000" stroke-opacity="1" stroke-width="3.2"/>
<circle clip-path="url(#clip442)" cx="1446.59" cy="634.532" r="7.2" fill="#008000" fill-rule="evenodd" fill-opacity="1" stroke="#000000" stroke-opacity="1" stroke-width="3.2"/>
<circle clip-path="url(#clip442)" cx="1460.94" cy="650.667" r="7.2" fill="#008000" fill-rule="evenodd" fill-opacity="1" stroke="#000000" stroke-opacity="1" stroke-width="3.2"/>
<circle clip-path="url(#clip442)" cx="1475.28" cy="672.626" r="7.2" fill="#008000" fill-rule="evenodd" fill-opacity="1" stroke="#000000" stroke-opacity="1" stroke-width="3.2"/>
<circle clip-path="url(#clip442)" cx="1489.63" cy="702.886" r="7.2" fill="#008000" fill-rule="evenodd" fill-opacity="1" stroke="#000000" stroke-opacity="1" stroke-width="3.2"/>
<circle clip-path="url(#clip442)" cx="1503.97" cy="736.41" r="7.2" fill="#008000" fill-rule="evenodd" fill-opacity="1" stroke="#000000" stroke-opacity="1" stroke-width="3.2"/>
<circle clip-path="url(#clip442)" cx="1518.32" cy="769.413" r="7.2" fill="#008000" fill-rule="evenodd" fill-opacity="1" stroke="#000000" stroke-opacity="1" stroke-width="3.2"/>
<circle clip-path="url(#clip442)" cx="1532.66" cy="798.482" r="7.2" fill="#008000" fill-rule="evenodd" fill-opacity="1" stroke="#000000" stroke-opacity="1" stroke-width="3.2"/>
<circle clip-path="url(#clip442)" cx="1547.01" cy="816.939" r="7.2" fill="#008000" fill-rule="evenodd" fill-opacity="1" stroke="#000000" stroke-opacity="1" stroke-width="3.2"/>
<circle clip-path="url(#clip442)" cx="1561.35" cy="826.291" r="7.2" fill="#008000" fill-rule="evenodd" fill-opacity="1" stroke="#000000" stroke-opacity="1" stroke-width="3.2"/>
<circle clip-path="url(#clip442)" cx="1575.7" cy="829.753" r="7.2" fill="#008000" fill-rule="evenodd" fill-opacity="1" stroke="#000000" stroke-opacity="1" stroke-width="3.2"/>
<circle clip-path="url(#clip442)" cx="1590.04" cy="830.652" r="7.2" fill="#008000" fill-rule="evenodd" fill-opacity="1" stroke="#000000" stroke-opacity="1" stroke-width="3.2"/>
<circle clip-path="url(#clip442)" cx="1604.39" cy="833.919" r="7.2" fill="#008000" fill-rule="evenodd" fill-opacity="1" stroke="#000000" stroke-opacity="1" stroke-width="3.2"/>
<circle clip-path="url(#clip442)" cx="1618.73" cy="842.452" r="7.2" fill="#008000" fill-rule="evenodd" fill-opacity="1" stroke="#000000" stroke-opacity="1" stroke-width="3.2"/>
<circle clip-path="url(#clip442)" cx="1633.08" cy="854.074" r="7.2" fill="#008000" fill-rule="evenodd" fill-opacity="1" stroke="#000000" stroke-opacity="1" stroke-width="3.2"/>
<circle clip-path="url(#clip442)" cx="1647.42" cy="863.401" r="7.2" fill="#008000" fill-rule="evenodd" fill-opacity="1" stroke="#000000" stroke-opacity="1" stroke-width="3.2"/>
<circle clip-path="url(#clip442)" cx="1661.77" cy="864.981" r="7.2" fill="#008000" fill-rule="evenodd" fill-opacity="1" stroke="#000000" stroke-opacity="1" stroke-width="3.2"/>
<circle clip-path="url(#clip442)" cx="1676.11" cy="856.531" r="7.2" fill="#008000" fill-rule="evenodd" fill-opacity="1" stroke="#000000" stroke-opacity="1" stroke-width="3.2"/>
<circle clip-path="url(#clip442)" cx="1690.46" cy="835.251" r="7.2" fill="#008000" fill-rule="evenodd" fill-opacity="1" stroke="#000000" stroke-opacity="1" stroke-width="3.2"/>
<circle clip-path="url(#clip442)" cx="1704.8" cy="803.748" r="7.2" fill="#008000" fill-rule="evenodd" fill-opacity="1" stroke="#000000" stroke-opacity="1" stroke-width="3.2"/>
<circle clip-path="url(#clip442)" cx="1719.15" cy="769.235" r="7.2" fill="#008000" fill-rule="evenodd" fill-opacity="1" stroke="#000000" stroke-opacity="1" stroke-width="3.2"/>
<circle clip-path="url(#clip442)" cx="1733.49" cy="734.645" r="7.2" fill="#008000" fill-rule="evenodd" fill-opacity="1" stroke="#000000" stroke-opacity="1" stroke-width="3.2"/>
<circle clip-path="url(#clip442)" cx="1747.83" cy="704.61" r="7.2" fill="#008000" fill-rule="evenodd" fill-opacity="1" stroke="#000000" stroke-opacity="1" stroke-width="3.2"/>
<circle clip-path="url(#clip442)" cx="1762.18" cy="680.967" r="7.2" fill="#008000" fill-rule="evenodd" fill-opacity="1" stroke="#000000" stroke-opacity="1" stroke-width="3.2"/>
<circle clip-path="url(#clip442)" cx="1776.52" cy="662.373" r="7.2" fill="#008000" fill-rule="evenodd" fill-opacity="1" stroke="#000000" stroke-opacity="1" stroke-width="3.2"/>
<circle clip-path="url(#clip442)" cx="1790.87" cy="646.151" r="7.2" fill="#008000" fill-rule="evenodd" fill-opacity="1" stroke="#000000" stroke-opacity="1" stroke-width="3.2"/>
<circle clip-path="url(#clip442)" cx="1805.21" cy="630.448" r="7.2" fill="#008000" fill-rule="evenodd" fill-opacity="1" stroke="#000000" stroke-opacity="1" stroke-width="3.2"/>
<circle clip-path="url(#clip442)" cx="1819.56" cy="615.138" r="7.2" fill="#008000" fill-rule="evenodd" fill-opacity="1" stroke="#000000" stroke-opacity="1" stroke-width="3.2"/>
<circle clip-path="url(#clip442)" cx="1833.9" cy="599.413" r="7.2" fill="#008000" fill-rule="evenodd" fill-opacity="1" stroke="#000000" stroke-opacity="1" stroke-width="3.2"/>
<circle clip-path="url(#clip442)" cx="1848.25" cy="585.127" r="7.2" fill="#008000" fill-rule="evenodd" fill-opacity="1" stroke="#000000" stroke-opacity="1" stroke-width="3.2"/>
<circle clip-path="url(#clip442)" cx="1862.59" cy="574.67" r="7.2" fill="#008000" fill-rule="evenodd" fill-opacity="1" stroke="#000000" stroke-opacity="1" stroke-width="3.2"/>
<circle clip-path="url(#clip442)" cx="1876.94" cy="564.54" r="7.2" fill="#008000" fill-rule="evenodd" fill-opacity="1" stroke="#000000" stroke-opacity="1" stroke-width="3.2"/>
<circle clip-path="url(#clip442)" cx="1891.28" cy="557.163" r="7.2" fill="#008000" fill-rule="evenodd" fill-opacity="1" stroke="#000000" stroke-opacity="1" stroke-width="3.2"/>
<circle clip-path="url(#clip442)" cx="1905.63" cy="551.136" r="7.2" fill="#008000" fill-rule="evenodd" fill-opacity="1" stroke="#000000" stroke-opacity="1" stroke-width="3.2"/>
<circle clip-path="url(#clip442)" cx="1919.97" cy="543.67" r="7.2" fill="#008000" fill-rule="evenodd" fill-opacity="1" stroke="#000000" stroke-opacity="1" stroke-width="3.2"/>
<circle clip-path="url(#clip442)" cx="1934.32" cy="535.049" r="7.2" fill="#008000" fill-rule="evenodd" fill-opacity="1" stroke="#000000" stroke-opacity="1" stroke-width="3.2"/>
<circle clip-path="url(#clip442)" cx="1948.66" cy="525.726" r="7.2" fill="#008000" fill-rule="evenodd" fill-opacity="1" stroke="#000000" stroke-opacity="1" stroke-width="3.2"/>
<circle clip-path="url(#clip442)" cx="1963.01" cy="515.281" r="7.2" fill="#008000" fill-rule="evenodd" fill-opacity="1" stroke="#000000" stroke-opacity="1" stroke-width="3.2"/>
<circle clip-path="url(#clip442)" cx="1977.35" cy="505.023" r="7.2" fill="#008000" fill-rule="evenodd" fill-opacity="1" stroke="#000000" stroke-opacity="1" stroke-width="3.2"/>
<circle clip-path="url(#clip442)" cx="1991.7" cy="496.286" r="7.2" fill="#008000" fill-rule="evenodd" fill-opacity="1" stroke="#000000" stroke-opacity="1" stroke-width="3.2"/>
<circle clip-path="url(#clip442)" cx="2006.04" cy="489.446" r="7.2" fill="#008000" fill-rule="evenodd" fill-opacity="1" stroke="#000000" stroke-opacity="1" stroke-width="3.2"/>
<circle clip-path="url(#clip442)" cx="2020.39" cy="482.324" r="7.2" fill="#008000" fill-rule="evenodd" fill-opacity="1" stroke="#000000" stroke-opacity="1" stroke-width="3.2"/>
<circle clip-path="url(#clip442)" cx="2034.73" cy="475.579" r="7.2" fill="#008000" fill-rule="evenodd" fill-opacity="1" stroke="#000000" stroke-opacity="1" stroke-width="3.2"/>
<circle clip-path="url(#clip442)" cx="2049.08" cy="468.441" r="7.2" fill="#008000" fill-rule="evenodd" fill-opacity="1" stroke="#000000" stroke-opacity="1" stroke-width="3.2"/>
<circle clip-path="url(#clip442)" cx="2063.42" cy="460.265" r="7.2" fill="#008000" fill-rule="evenodd" fill-opacity="1" stroke="#000000" stroke-opacity="1" stroke-width="3.2"/>
<circle clip-path="url(#clip442)" cx="2077.77" cy="451.313" r="7.2" fill="#008000" fill-rule="evenodd" fill-opacity="1" stroke="#000000" stroke-opacity="1" stroke-width="3.2"/>
<circle clip-path="url(#clip442)" cx="2092.11" cy="442.227" r="7.2" fill="#008000" fill-rule="evenodd" fill-opacity="1" stroke="#000000" stroke-opacity="1" stroke-width="3.2"/>
<circle clip-path="url(#clip442)" cx="2106.46" cy="434.132" r="7.2" fill="#008000" fill-rule="evenodd" fill-opacity="1" stroke="#000000" stroke-opacity="1" stroke-width="3.2"/>
<circle clip-path="url(#clip442)" cx="2120.8" cy="427.796" r="7.2" fill="#008000" fill-rule="evenodd" fill-opacity="1" stroke="#000000" stroke-opacity="1" stroke-width="3.2"/>
<circle clip-path="url(#clip442)" cx="2135.15" cy="424.044" r="7.2" fill="#008000" fill-rule="evenodd" fill-opacity="1" stroke="#000000" stroke-opacity="1" stroke-width="3.2"/>
<circle clip-path="url(#clip442)" cx="2149.49" cy="422.74" r="7.2" fill="#008000" fill-rule="evenodd" fill-opacity="1" stroke="#000000" stroke-opacity="1" stroke-width="3.2"/>
<circle clip-path="url(#clip442)" cx="2163.83" cy="421.938" r="7.2" fill="#008000" fill-rule="evenodd" fill-opacity="1" stroke="#000000" stroke-opacity="1" stroke-width="3.2"/>
<circle clip-path="url(#clip442)" cx="2178.18" cy="421.719" r="7.2" fill="#008000" fill-rule="evenodd" fill-opacity="1" stroke="#000000" stroke-opacity="1" stroke-width="3.2"/>
<circle clip-path="url(#clip442)" cx="2192.52" cy="421.494" r="7.2" fill="#008000" fill-rule="evenodd" fill-opacity="1" stroke="#000000" stroke-opacity="1" stroke-width="3.2"/>
<circle clip-path="url(#clip442)" cx="2206.87" cy="420.744" r="7.2" fill="#008000" fill-rule="evenodd" fill-opacity="1" stroke="#000000" stroke-opacity="1" stroke-width="3.2"/>
<circle clip-path="url(#clip442)" cx="2221.21" cy="420.417" r="7.2" fill="#008000" fill-rule="evenodd" fill-opacity="1" stroke="#000000" stroke-opacity="1" stroke-width="3.2"/>
<circle clip-path="url(#clip442)" cx="2235.56" cy="421.541" r="7.2" fill="#008000" fill-rule="evenodd" fill-opacity="1" stroke="#000000" stroke-opacity="1" stroke-width="3.2"/>
<circle clip-path="url(#clip442)" cx="2249.9" cy="423.876" r="7.2" fill="#008000" fill-rule="evenodd" fill-opacity="1" stroke="#000000" stroke-opacity="1" stroke-width="3.2"/>
<circle clip-path="url(#clip442)" cx="2264.25" cy="427.302" r="7.2" fill="#008000" fill-rule="evenodd" fill-opacity="1" stroke="#000000" stroke-opacity="1" stroke-width="3.2"/>
<circle clip-path="url(#clip442)" cx="2278.59" cy="431.147" r="7.2" fill="#008000" fill-rule="evenodd" fill-opacity="1" stroke="#000000" stroke-opacity="1" stroke-width="3.2"/>
<circle clip-path="url(#clip442)" cx="2292.94" cy="433.929" r="7.2" fill="#008000" fill-rule="evenodd" fill-opacity="1" stroke="#000000" stroke-opacity="1" stroke-width="3.2"/>
</svg>
