<?xml version="1.0" encoding="utf-8"?>
<svg xmlns="http://www.w3.org/2000/svg" xmlns:xlink="http://www.w3.org/1999/xlink" width="600" height="400" viewBox="0 0 2400 1600">
<defs>
  <clipPath id="clip350">
    <rect x="0" y="0" width="2400" height="1600"/>
  </clipPath>
</defs>
<path clip-path="url(#clip350)" d="M0 1600 L2400 1600 L2400 8.88178e-14 L0 8.88178e-14  Z" fill="#ffffff" fill-rule="evenodd" fill-opacity="1"/>
<defs>
  <clipPath id="clip351">
    <rect x="480" y="0" width="1681" height="1600"/>
  </clipPath>
</defs>
<path clip-path="url(#clip350)" d="M209.029 1486.45 L2352.76 1486.45 L2352.76 47.2441 L209.029 47.2441  Z" fill="#ffffff" fill-rule="evenodd" fill-opacity="1"/>
<defs>
  <clipPath id="clip352">
    <rect x="209" y="47" width="2145" height="1440"/>
  </clipPath>
</defs>
<polyline clip-path="url(#clip350)" style="stroke:#000000; stroke-linecap:round; stroke-linejoin:round; stroke-width:4; stroke-opacity:1; fill:none" points="209.029,1486.45 2352.76,1486.45 "/>
<polyline clip-path="url(#clip350)" style="stroke:#000000; stroke-linecap:round; stroke-linejoin:round; stroke-width:4; stroke-opacity:1; fill:none" points="255.151,1486.45 255.151,1467.55 "/>
<polyline clip-path="url(#clip350)" style="stroke:#000000; stroke-linecap:round; stroke-linejoin:round; stroke-width:4; stroke-opacity:1; fill:none" points="618.889,1486.45 618.889,1467.55 "/>
<polyline clip-path="url(#clip350)" style="stroke:#000000; stroke-linecap:round; stroke-linejoin:round; stroke-width:4; stroke-opacity:1; fill:none" points="982.627,1486.45 982.627,1467.55 "/>
<polyline clip-path="url(#clip350)" style="stroke:#000000; stroke-linecap:round; stroke-linejoin:round; stroke-width:4; stroke-opacity:1; fill:none" points="1346.37,1486.45 1346.37,1467.55 "/>
<polyline clip-path="url(#clip350)" style="stroke:#000000; stroke-linecap:round; stroke-linejoin:round; stroke-width:4; stroke-opacity:1; fill:none" points="1710.1,1486.45 1710.1,1467.55 "/>
<polyline clip-path="url(#clip350)" style="stroke:#000000; stroke-linecap:round; stroke-linejoin:round; stroke-width:4; stroke-opacity:1; fill:none" points="2073.84,1486.45 2073.84,1467.55 "/>
<path clip-path="url(#clip350)" d="M255.151 1517.37 Q251.539 1517.37 249.711 1520.93 Q247.905 1524.47 247.905 1531.6 Q247.905 1538.71 249.711 1542.27 Q251.539 1545.82 255.151 1545.82 Q258.785 1545.82 260.59 1542.27 Q262.419 1538.71 262.419 1531.6 Q262.419 1524.47 260.59 1520.93 Q258.785 1517.37 255.151 1517.37 M255.151 1513.66 Q260.961 1513.66 264.016 1518.27 Q267.095 1522.85 267.095 1531.6 Q267.095 1540.33 264.016 1544.94 Q260.961 1549.52 255.151 1549.52 Q249.34 1549.52 246.262 1544.94 Q243.206 1540.33 243.206 1531.6 Q243.206 1522.85 246.262 1518.27 Q249.34 1513.66 255.151 1513.66 Z" fill="#000000" fill-rule="nonzero" fill-opacity="1" /><path clip-path="url(#clip350)" d="M598.16 1544.91 L614.479 1544.91 L614.479 1548.85 L592.535 1548.85 L592.535 1544.91 Q595.197 1542.16 599.78 1537.53 Q604.386 1532.88 605.567 1531.53 Q607.812 1529.01 608.692 1527.27 Q609.595 1525.51 609.595 1523.82 Q609.595 1521.07 607.65 1519.33 Q605.729 1517.6 602.627 1517.6 Q600.428 1517.6 597.974 1518.36 Q595.544 1519.13 592.766 1520.68 L592.766 1515.95 Q595.59 1514.82 598.044 1514.24 Q600.498 1513.66 602.535 1513.66 Q607.905 1513.66 611.099 1516.35 Q614.294 1519.03 614.294 1523.52 Q614.294 1525.65 613.484 1527.57 Q612.697 1529.47 610.59 1532.07 Q610.011 1532.74 606.91 1535.95 Q603.808 1539.15 598.16 1544.91 Z" fill="#000000" fill-rule="nonzero" fill-opacity="1" /><path clip-path="url(#clip350)" d="M624.34 1514.29 L642.696 1514.29 L642.696 1518.22 L628.622 1518.22 L628.622 1526.7 Q629.641 1526.35 630.659 1526.19 Q631.678 1526 632.696 1526 Q638.484 1526 641.863 1529.17 Q645.243 1532.34 645.243 1537.76 Q645.243 1543.34 641.771 1546.44 Q638.298 1549.52 631.979 1549.52 Q629.803 1549.52 627.534 1549.15 Q625.289 1548.78 622.882 1548.04 L622.882 1543.34 Q624.965 1544.47 627.187 1545.03 Q629.409 1545.58 631.886 1545.58 Q635.891 1545.58 638.229 1543.48 Q640.567 1541.37 640.567 1537.76 Q640.567 1534.15 638.229 1532.04 Q635.891 1529.94 631.886 1529.94 Q630.011 1529.94 628.136 1530.35 Q626.284 1530.77 624.34 1531.65 L624.34 1514.29 Z" fill="#000000" fill-rule="nonzero" fill-opacity="1" /><path clip-path="url(#clip350)" d="M957.326 1514.29 L975.682 1514.29 L975.682 1518.22 L961.608 1518.22 L961.608 1526.7 Q962.627 1526.35 963.646 1526.19 Q964.664 1526 965.683 1526 Q971.47 1526 974.849 1529.17 Q978.229 1532.34 978.229 1537.76 Q978.229 1543.34 974.757 1546.44 Q971.284 1549.52 964.965 1549.52 Q962.789 1549.52 960.521 1549.15 Q958.275 1548.78 955.868 1548.04 L955.868 1543.34 Q957.951 1544.47 960.173 1545.03 Q962.396 1545.58 964.872 1545.58 Q968.877 1545.58 971.215 1543.48 Q973.553 1541.37 973.553 1537.76 Q973.553 1534.15 971.215 1532.04 Q968.877 1529.94 964.872 1529.94 Q962.997 1529.94 961.122 1530.35 Q959.271 1530.77 957.326 1531.65 L957.326 1514.29 Z" fill="#000000" fill-rule="nonzero" fill-opacity="1" /><path clip-path="url(#clip350)" d="M997.442 1517.37 Q993.831 1517.37 992.002 1520.93 Q990.196 1524.47 990.196 1531.6 Q990.196 1538.71 992.002 1542.27 Q993.831 1545.82 997.442 1545.82 Q1001.08 1545.82 1002.88 1542.27 Q1004.71 1538.71 1004.71 1531.6 Q1004.71 1524.47 1002.88 1520.93 Q1001.08 1517.37 997.442 1517.37 M997.442 1513.66 Q1003.25 1513.66 1006.31 1518.27 Q1009.39 1522.85 1009.39 1531.6 Q1009.39 1540.33 1006.31 1544.94 Q1003.25 1549.52 997.442 1549.52 Q991.631 1549.52 988.553 1544.94 Q985.497 1540.33 985.497 1531.6 Q985.497 1522.85 988.553 1518.27 Q991.631 1513.66 997.442 1513.66 Z" fill="#000000" fill-rule="nonzero" fill-opacity="1" /><path clip-path="url(#clip350)" d="M1320.22 1514.29 L1342.44 1514.29 L1342.44 1516.28 L1329.9 1548.85 L1325.01 1548.85 L1336.82 1518.22 L1320.22 1518.22 L1320.22 1514.29 Z" fill="#000000" fill-rule="nonzero" fill-opacity="1" /><path clip-path="url(#clip350)" d="M1351.61 1514.29 L1369.96 1514.29 L1369.96 1518.22 L1355.89 1518.22 L1355.89 1526.7 Q1356.91 1526.35 1357.93 1526.19 Q1358.95 1526 1359.96 1526 Q1365.75 1526 1369.13 1529.17 Q1372.51 1532.34 1372.51 1537.76 Q1372.51 1543.34 1369.04 1546.44 Q1365.57 1549.52 1359.25 1549.52 Q1357.07 1549.52 1354.8 1549.15 Q1352.56 1548.78 1350.15 1548.04 L1350.15 1543.34 Q1352.23 1544.47 1354.46 1545.03 Q1356.68 1545.58 1359.15 1545.58 Q1363.16 1545.58 1365.5 1543.48 Q1367.83 1541.37 1367.83 1537.76 Q1367.83 1534.15 1365.5 1532.04 Q1363.16 1529.94 1359.15 1529.94 Q1357.28 1529.94 1355.4 1530.35 Q1353.55 1530.77 1351.61 1531.65 L1351.61 1514.29 Z" fill="#000000" fill-rule="nonzero" fill-opacity="1" /><path clip-path="url(#clip350)" d="M1669.71 1544.91 L1677.35 1544.91 L1677.35 1518.55 L1669.04 1520.21 L1669.04 1515.95 L1677.3 1514.29 L1681.98 1514.29 L1681.98 1544.91 L1689.62 1544.91 L1689.62 1548.85 L1669.71 1548.85 L1669.71 1544.91 Z" fill="#000000" fill-rule="nonzero" fill-opacity="1" /><path clip-path="url(#clip350)" d="M1709.06 1517.37 Q1705.45 1517.37 1703.62 1520.93 Q1701.82 1524.47 1701.82 1531.6 Q1701.82 1538.71 1703.62 1542.27 Q1705.45 1545.82 1709.06 1545.82 Q1712.7 1545.82 1714.5 1542.27 Q1716.33 1538.71 1716.33 1531.6 Q1716.33 1524.47 1714.5 1520.93 Q1712.7 1517.37 1709.06 1517.37 M1709.06 1513.66 Q1714.87 1513.66 1717.93 1518.27 Q1721.01 1522.85 1721.01 1531.6 Q1721.01 1540.33 1717.93 1544.94 Q1714.87 1549.52 1709.06 1549.52 Q1703.25 1549.52 1700.17 1544.94 Q1697.12 1540.33 1697.12 1531.6 Q1697.12 1522.85 1700.17 1518.27 Q1703.25 1513.66 1709.06 1513.66 Z" fill="#000000" fill-rule="nonzero" fill-opacity="1" /><path clip-path="url(#clip350)" d="M1739.22 1517.37 Q1735.61 1517.37 1733.78 1520.93 Q1731.98 1524.47 1731.98 1531.6 Q1731.98 1538.71 1733.78 1542.27 Q1735.61 1545.82 1739.22 1545.82 Q1742.86 1545.82 1744.66 1542.27 Q1746.49 1538.71 1746.49 1531.6 Q1746.49 1524.47 1744.66 1520.93 Q1742.86 1517.37 1739.22 1517.37 M1739.22 1513.66 Q1745.03 1513.66 1748.09 1518.27 Q1751.17 1522.85 1751.17 1531.6 Q1751.17 1540.33 1748.09 1544.94 Q1745.03 1549.52 1739.22 1549.52 Q1733.41 1549.52 1730.33 1544.94 Q1727.28 1540.33 1727.28 1531.6 Q1727.28 1522.85 1730.33 1518.27 Q1733.41 1513.66 1739.22 1513.66 Z" fill="#000000" fill-rule="nonzero" fill-opacity="1" /><path clip-path="url(#clip350)" d="M2033.95 1544.91 L2041.58 1544.91 L2041.58 1518.55 L2033.27 1520.21 L2033.27 1515.95 L2041.54 1514.29 L2046.21 1514.29 L2046.21 1544.91 L2053.85 1544.91 L2053.85 1548.85 L2033.95 1548.85 L2033.95 1544.91 Z" fill="#000000" fill-rule="nonzero" fill-opacity="1" /><path clip-path="url(#clip350)" d="M2067.33 1544.91 L2083.64 1544.91 L2083.64 1548.85 L2061.7 1548.85 L2061.7 1544.91 Q2064.36 1542.16 2068.95 1537.53 Q2073.55 1532.88 2074.73 1531.53 Q2076.98 1529.01 2077.86 1527.27 Q2078.76 1525.51 2078.76 1523.82 Q2078.76 1521.07 2076.82 1519.33 Q2074.89 1517.6 2071.79 1517.6 Q2069.59 1517.6 2067.14 1518.36 Q2064.71 1519.13 2061.93 1520.68 L2061.93 1515.95 Q2064.76 1514.82 2067.21 1514.24 Q2069.66 1513.66 2071.7 1513.66 Q2077.07 1513.66 2080.27 1516.35 Q2083.46 1519.03 2083.46 1523.52 Q2083.46 1525.65 2082.65 1527.57 Q2081.86 1529.47 2079.76 1532.07 Q2079.18 1532.74 2076.08 1535.95 Q2072.97 1539.15 2067.33 1544.91 Z" fill="#000000" fill-rule="nonzero" fill-opacity="1" /><path clip-path="url(#clip350)" d="M2093.51 1514.29 L2111.86 1514.29 L2111.86 1518.22 L2097.79 1518.22 L2097.79 1526.7 Q2098.81 1526.35 2099.83 1526.19 Q2100.84 1526 2101.86 1526 Q2107.65 1526 2111.03 1529.17 Q2114.41 1532.34 2114.41 1537.76 Q2114.41 1543.34 2110.94 1546.44 Q2107.46 1549.52 2101.14 1549.52 Q2098.97 1549.52 2096.7 1549.15 Q2094.45 1548.78 2092.05 1548.04 L2092.05 1543.34 Q2094.13 1544.47 2096.35 1545.03 Q2098.58 1545.58 2101.05 1545.58 Q2105.06 1545.58 2107.39 1543.48 Q2109.73 1541.37 2109.73 1537.76 Q2109.73 1534.15 2107.39 1532.04 Q2105.06 1529.94 2101.05 1529.94 Q2099.18 1529.94 2097.3 1530.35 Q2095.45 1530.77 2093.51 1531.65 L2093.51 1514.29 Z" fill="#000000" fill-rule="nonzero" fill-opacity="1" /><polyline clip-path="url(#clip350)" style="stroke:#000000; stroke-linecap:round; stroke-linejoin:round; stroke-width:4; stroke-opacity:1; fill:none" points="209.029,1486.45 209.029,47.2441 "/>
<polyline clip-path="url(#clip350)" style="stroke:#000000; stroke-linecap:round; stroke-linejoin:round; stroke-width:4; stroke-opacity:1; fill:none" points="209.029,1299.57 227.926,1299.57 "/>
<polyline clip-path="url(#clip350)" style="stroke:#000000; stroke-linecap:round; stroke-linejoin:round; stroke-width:4; stroke-opacity:1; fill:none" points="209.029,1108 227.926,1108 "/>
<polyline clip-path="url(#clip350)" style="stroke:#000000; stroke-linecap:round; stroke-linejoin:round; stroke-width:4; stroke-opacity:1; fill:none" points="209.029,916.431 227.926,916.431 "/>
<polyline clip-path="url(#clip350)" style="stroke:#000000; stroke-linecap:round; stroke-linejoin:round; stroke-width:4; stroke-opacity:1; fill:none" points="209.029,724.861 227.926,724.861 "/>
<polyline clip-path="url(#clip350)" style="stroke:#000000; stroke-linecap:round; stroke-linejoin:round; stroke-width:4; stroke-opacity:1; fill:none" points="209.029,533.29 227.926,533.29 "/>
<polyline clip-path="url(#clip350)" style="stroke:#000000; stroke-linecap:round; stroke-linejoin:round; stroke-width:4; stroke-opacity:1; fill:none" points="209.029,341.719 227.926,341.719 "/>
<polyline clip-path="url(#clip350)" style="stroke:#000000; stroke-linecap:round; stroke-linejoin:round; stroke-width:4; stroke-opacity:1; fill:none" points="209.029,150.148 227.926,150.148 "/>
<path clip-path="url(#clip350)" d="M50.9921 1300.02 L80.6679 1300.02 L80.6679 1303.96 L50.9921 1303.96 L50.9921 1300.02 Z" fill="#000000" fill-rule="nonzero" fill-opacity="1" /><path clip-path="url(#clip350)" d="M89.5799 1282.29 L111.802 1282.29 L111.802 1284.28 L99.2558 1316.85 L94.3715 1316.85 L106.177 1286.23 L89.5799 1286.23 L89.5799 1282.29 Z" fill="#000000" fill-rule="nonzero" fill-opacity="1" /><path clip-path="url(#clip350)" d="M120.969 1282.29 L139.325 1282.29 L139.325 1286.23 L125.251 1286.23 L125.251 1294.7 Q126.27 1294.35 127.288 1294.19 Q128.307 1294.01 129.325 1294.01 Q135.112 1294.01 138.492 1297.18 Q141.871 1300.35 141.871 1305.76 Q141.871 1311.34 138.399 1314.45 Q134.927 1317.52 128.607 1317.52 Q126.432 1317.52 124.163 1317.15 Q121.918 1316.78 119.51 1316.04 L119.51 1311.34 Q121.594 1312.48 123.816 1313.03 Q126.038 1313.59 128.515 1313.59 Q132.519 1313.59 134.857 1311.48 Q137.195 1309.38 137.195 1305.76 Q137.195 1302.15 134.857 1300.05 Q132.519 1297.94 128.515 1297.94 Q126.64 1297.94 124.765 1298.36 Q122.913 1298.77 120.969 1299.65 L120.969 1282.29 Z" fill="#000000" fill-rule="nonzero" fill-opacity="1" /><path clip-path="url(#clip350)" d="M161.084 1285.37 Q157.473 1285.37 155.644 1288.94 Q153.839 1292.48 153.839 1299.61 Q153.839 1306.71 155.644 1310.28 Q157.473 1313.82 161.084 1313.82 Q164.718 1313.82 166.524 1310.28 Q168.353 1306.71 168.353 1299.61 Q168.353 1292.48 166.524 1288.94 Q164.718 1285.37 161.084 1285.37 M161.084 1281.67 Q166.894 1281.67 169.95 1286.27 Q173.029 1290.86 173.029 1299.61 Q173.029 1308.33 169.95 1312.94 Q166.894 1317.52 161.084 1317.52 Q155.274 1317.52 152.195 1312.94 Q149.14 1308.33 149.14 1299.61 Q149.14 1290.86 152.195 1286.27 Q155.274 1281.67 161.084 1281.67 Z" fill="#000000" fill-rule="nonzero" fill-opacity="1" /><path clip-path="url(#clip350)" d="M50.9921 1108.45 L80.6679 1108.45 L80.6679 1112.39 L50.9921 1112.39 L50.9921 1108.45 Z" fill="#000000" fill-rule="nonzero" fill-opacity="1" /><path clip-path="url(#clip350)" d="M90.8067 1090.72 L109.163 1090.72 L109.163 1094.66 L95.0891 1094.66 L95.0891 1103.13 Q96.1076 1102.78 97.1261 1102.62 Q98.1447 1102.44 99.1632 1102.44 Q104.95 1102.44 108.33 1105.61 Q111.709 1108.78 111.709 1114.19 Q111.709 1119.77 108.237 1122.87 Q104.765 1125.95 98.4456 1125.95 Q96.2697 1125.95 94.0012 1125.58 Q91.7558 1125.21 89.3484 1124.47 L89.3484 1119.77 Q91.4317 1120.91 93.6539 1121.46 Q95.8761 1122.02 98.353 1122.02 Q102.358 1122.02 104.696 1119.91 Q107.033 1117.81 107.033 1114.19 Q107.033 1110.58 104.696 1108.48 Q102.358 1106.37 98.353 1106.37 Q96.478 1106.37 94.603 1106.79 Q92.7512 1107.2 90.8067 1108.08 L90.8067 1090.72 Z" fill="#000000" fill-rule="nonzero" fill-opacity="1" /><path clip-path="url(#clip350)" d="M130.922 1093.8 Q127.311 1093.8 125.482 1097.37 Q123.677 1100.91 123.677 1108.04 Q123.677 1115.14 125.482 1118.71 Q127.311 1122.25 130.922 1122.25 Q134.556 1122.25 136.362 1118.71 Q138.191 1115.14 138.191 1108.04 Q138.191 1100.91 136.362 1097.37 Q134.556 1093.8 130.922 1093.8 M130.922 1090.1 Q136.732 1090.1 139.788 1094.7 Q142.867 1099.29 142.867 1108.04 Q142.867 1116.76 139.788 1121.37 Q136.732 1125.95 130.922 1125.95 Q125.112 1125.95 122.033 1121.37 Q118.978 1116.76 118.978 1108.04 Q118.978 1099.29 122.033 1094.7 Q125.112 1090.1 130.922 1090.1 Z" fill="#000000" fill-rule="nonzero" fill-opacity="1" /><path clip-path="url(#clip350)" d="M161.084 1093.8 Q157.473 1093.8 155.644 1097.37 Q153.839 1100.91 153.839 1108.04 Q153.839 1115.14 155.644 1118.71 Q157.473 1122.25 161.084 1122.25 Q164.718 1122.25 166.524 1118.71 Q168.353 1115.14 168.353 1108.04 Q168.353 1100.91 166.524 1097.37 Q164.718 1093.8 161.084 1093.8 M161.084 1090.1 Q166.894 1090.1 169.95 1094.7 Q173.029 1099.29 173.029 1108.04 Q173.029 1116.76 169.95 1121.37 Q166.894 1125.95 161.084 1125.95 Q155.274 1125.95 152.195 1121.37 Q149.14 1116.76 149.14 1108.04 Q149.14 1099.29 152.195 1094.7 Q155.274 1090.1 161.084 1090.1 Z" fill="#000000" fill-rule="nonzero" fill-opacity="1" /><path clip-path="url(#clip350)" d="M50.9921 916.883 L80.6679 916.883 L80.6679 920.818 L50.9921 920.818 L50.9921 916.883 Z" fill="#000000" fill-rule="nonzero" fill-opacity="1" /><path clip-path="url(#clip350)" d="M94.7882 929.776 L111.108 929.776 L111.108 933.711 L89.1632 933.711 L89.1632 929.776 Q91.8252 927.022 96.4085 922.392 Q101.015 917.739 102.196 916.397 Q104.441 913.874 105.321 912.137 Q106.223 910.378 106.223 908.688 Q106.223 905.934 104.279 904.198 Q102.358 902.462 99.2558 902.462 Q97.0567 902.462 94.603 903.225 Q92.1725 903.989 89.3947 905.54 L89.3947 900.818 Q92.2188 899.684 94.6724 899.105 Q97.1261 898.526 99.1632 898.526 Q104.534 898.526 107.728 901.212 Q110.922 903.897 110.922 908.387 Q110.922 910.517 110.112 912.438 Q109.325 914.336 107.219 916.929 Q106.64 917.6 103.538 920.818 Q100.436 924.012 94.7882 929.776 Z" fill="#000000" fill-rule="nonzero" fill-opacity="1" /><path clip-path="url(#clip350)" d="M120.969 899.151 L139.325 899.151 L139.325 903.087 L125.251 903.087 L125.251 911.559 Q126.27 911.211 127.288 911.049 Q128.307 910.864 129.325 910.864 Q135.112 910.864 138.492 914.036 Q141.871 917.207 141.871 922.623 Q141.871 928.202 138.399 931.304 Q134.927 934.383 128.607 934.383 Q126.432 934.383 124.163 934.012 Q121.918 933.642 119.51 932.901 L119.51 928.202 Q121.594 929.336 123.816 929.892 Q126.038 930.448 128.515 930.448 Q132.519 930.448 134.857 928.341 Q137.195 926.235 137.195 922.623 Q137.195 919.012 134.857 916.906 Q132.519 914.799 128.515 914.799 Q126.64 914.799 124.765 915.216 Q122.913 915.633 120.969 916.512 L120.969 899.151 Z" fill="#000000" fill-rule="nonzero" fill-opacity="1" /><path clip-path="url(#clip350)" d="M161.084 902.23 Q157.473 902.23 155.644 905.795 Q153.839 909.337 153.839 916.466 Q153.839 923.573 155.644 927.137 Q157.473 930.679 161.084 930.679 Q164.718 930.679 166.524 927.137 Q168.353 923.573 168.353 916.466 Q168.353 909.337 166.524 905.795 Q164.718 902.23 161.084 902.23 M161.084 898.526 Q166.894 898.526 169.95 903.133 Q173.029 907.716 173.029 916.466 Q173.029 925.193 169.95 929.799 Q166.894 934.383 161.084 934.383 Q155.274 934.383 152.195 929.799 Q149.14 925.193 149.14 916.466 Q149.14 907.716 152.195 903.133 Q155.274 898.526 161.084 898.526 Z" fill="#000000" fill-rule="nonzero" fill-opacity="1" /><path clip-path="url(#clip350)" d="M161.084 710.659 Q157.473 710.659 155.644 714.224 Q153.839 717.766 153.839 724.895 Q153.839 732.002 155.644 735.567 Q157.473 739.108 161.084 739.108 Q164.718 739.108 166.524 735.567 Q168.353 732.002 168.353 724.895 Q168.353 717.766 166.524 714.224 Q164.718 710.659 161.084 710.659 M161.084 706.956 Q166.894 706.956 169.95 711.562 Q173.029 716.145 173.029 724.895 Q173.029 733.622 169.95 738.229 Q166.894 742.812 161.084 742.812 Q155.274 742.812 152.195 738.229 Q149.14 733.622 149.14 724.895 Q149.14 716.145 152.195 711.562 Q155.274 706.956 161.084 706.956 Z" fill="#000000" fill-rule="nonzero" fill-opacity="1" /><path clip-path="url(#clip350)" d="M94.7882 546.635 L111.108 546.635 L111.108 550.57 L89.1632 550.57 L89.1632 546.635 Q91.8252 543.88 96.4085 539.25 Q101.015 534.598 102.196 533.255 Q104.441 530.732 105.321 528.996 Q106.223 527.237 106.223 525.547 Q106.223 522.792 104.279 521.056 Q102.358 519.32 99.2558 519.32 Q97.0567 519.32 94.603 520.084 Q92.1725 520.848 89.3947 522.399 L89.3947 517.677 Q92.2188 516.542 94.6724 515.964 Q97.1261 515.385 99.1632 515.385 Q104.534 515.385 107.728 518.07 Q110.922 520.755 110.922 525.246 Q110.922 527.376 110.112 529.297 Q109.325 531.195 107.219 533.788 Q106.64 534.459 103.538 537.676 Q100.436 540.871 94.7882 546.635 Z" fill="#000000" fill-rule="nonzero" fill-opacity="1" /><path clip-path="url(#clip350)" d="M120.969 516.01 L139.325 516.01 L139.325 519.945 L125.251 519.945 L125.251 528.417 Q126.27 528.07 127.288 527.908 Q128.307 527.723 129.325 527.723 Q135.112 527.723 138.492 530.894 Q141.871 534.065 141.871 539.482 Q141.871 545.061 138.399 548.162 Q134.927 551.241 128.607 551.241 Q126.432 551.241 124.163 550.871 Q121.918 550.5 119.51 549.76 L119.51 545.061 Q121.594 546.195 123.816 546.75 Q126.038 547.306 128.515 547.306 Q132.519 547.306 134.857 545.2 Q137.195 543.093 137.195 539.482 Q137.195 535.871 134.857 533.764 Q132.519 531.658 128.515 531.658 Q126.64 531.658 124.765 532.075 Q122.913 532.491 120.969 533.371 L120.969 516.01 Z" fill="#000000" fill-rule="nonzero" fill-opacity="1" /><path clip-path="url(#clip350)" d="M161.084 519.089 Q157.473 519.089 155.644 522.653 Q153.839 526.195 153.839 533.325 Q153.839 540.431 155.644 543.996 Q157.473 547.537 161.084 547.537 Q164.718 547.537 166.524 543.996 Q168.353 540.431 168.353 533.325 Q168.353 526.195 166.524 522.653 Q164.718 519.089 161.084 519.089 M161.084 515.385 Q166.894 515.385 169.95 519.991 Q173.029 524.575 173.029 533.325 Q173.029 542.051 169.95 546.658 Q166.894 551.241 161.084 551.241 Q155.274 551.241 152.195 546.658 Q149.14 542.051 149.14 533.325 Q149.14 524.575 152.195 519.991 Q155.274 515.385 161.084 515.385 Z" fill="#000000" fill-rule="nonzero" fill-opacity="1" /><path clip-path="url(#clip350)" d="M90.8067 324.439 L109.163 324.439 L109.163 328.374 L95.0891 328.374 L95.0891 336.846 Q96.1076 336.499 97.1261 336.337 Q98.1447 336.152 99.1632 336.152 Q104.95 336.152 108.33 339.323 Q111.709 342.495 111.709 347.911 Q111.709 353.49 108.237 356.592 Q104.765 359.67 98.4456 359.67 Q96.2697 359.67 94.0012 359.3 Q91.7558 358.93 89.3484 358.189 L89.3484 353.49 Q91.4317 354.624 93.6539 355.18 Q95.8761 355.735 98.353 355.735 Q102.358 355.735 104.696 353.629 Q107.033 351.522 107.033 347.911 Q107.033 344.3 104.696 342.194 Q102.358 340.087 98.353 340.087 Q96.478 340.087 94.603 340.504 Q92.7512 340.921 90.8067 341.8 L90.8067 324.439 Z" fill="#000000" fill-rule="nonzero" fill-opacity="1" /><path clip-path="url(#clip350)" d="M130.922 327.518 Q127.311 327.518 125.482 331.083 Q123.677 334.624 123.677 341.754 Q123.677 348.86 125.482 352.425 Q127.311 355.967 130.922 355.967 Q134.556 355.967 136.362 352.425 Q138.191 348.86 138.191 341.754 Q138.191 334.624 136.362 331.083 Q134.556 327.518 130.922 327.518 M130.922 323.814 Q136.732 323.814 139.788 328.421 Q142.867 333.004 142.867 341.754 Q142.867 350.481 139.788 355.087 Q136.732 359.67 130.922 359.67 Q125.112 359.67 122.033 355.087 Q118.978 350.481 118.978 341.754 Q118.978 333.004 122.033 328.421 Q125.112 323.814 130.922 323.814 Z" fill="#000000" fill-rule="nonzero" fill-opacity="1" /><path clip-path="url(#clip350)" d="M161.084 327.518 Q157.473 327.518 155.644 331.083 Q153.839 334.624 153.839 341.754 Q153.839 348.86 155.644 352.425 Q157.473 355.967 161.084 355.967 Q164.718 355.967 166.524 352.425 Q168.353 348.86 168.353 341.754 Q168.353 334.624 166.524 331.083 Q164.718 327.518 161.084 327.518 M161.084 323.814 Q166.894 323.814 169.95 328.421 Q173.029 333.004 173.029 341.754 Q173.029 350.481 169.95 355.087 Q166.894 359.67 161.084 359.67 Q155.274 359.67 152.195 355.087 Q149.14 350.481 149.14 341.754 Q149.14 333.004 152.195 328.421 Q155.274 323.814 161.084 323.814 Z" fill="#000000" fill-rule="nonzero" fill-opacity="1" /><path clip-path="url(#clip350)" d="M89.5799 132.868 L111.802 132.868 L111.802 134.859 L99.2558 167.428 L94.3715 167.428 L106.177 136.804 L89.5799 136.804 L89.5799 132.868 Z" fill="#000000" fill-rule="nonzero" fill-opacity="1" /><path clip-path="url(#clip350)" d="M120.969 132.868 L139.325 132.868 L139.325 136.804 L125.251 136.804 L125.251 145.276 Q126.27 144.928 127.288 144.766 Q128.307 144.581 129.325 144.581 Q135.112 144.581 138.492 147.753 Q141.871 150.924 141.871 156.34 Q141.871 161.919 138.399 165.021 Q134.927 168.1 128.607 168.1 Q126.432 168.1 124.163 167.729 Q121.918 167.359 119.51 166.618 L119.51 161.919 Q121.594 163.053 123.816 163.609 Q126.038 164.164 128.515 164.164 Q132.519 164.164 134.857 162.058 Q137.195 159.952 137.195 156.34 Q137.195 152.729 134.857 150.623 Q132.519 148.516 128.515 148.516 Q126.64 148.516 124.765 148.933 Q122.913 149.35 120.969 150.229 L120.969 132.868 Z" fill="#000000" fill-rule="nonzero" fill-opacity="1" /><path clip-path="url(#clip350)" d="M161.084 135.947 Q157.473 135.947 155.644 139.512 Q153.839 143.053 153.839 150.183 Q153.839 157.29 155.644 160.854 Q157.473 164.396 161.084 164.396 Q164.718 164.396 166.524 160.854 Q168.353 157.29 168.353 150.183 Q168.353 143.053 166.524 139.512 Q164.718 135.947 161.084 135.947 M161.084 132.243 Q166.894 132.243 169.95 136.85 Q173.029 141.433 173.029 150.183 Q173.029 158.91 169.95 163.516 Q166.894 168.1 161.084 168.1 Q155.274 168.1 152.195 163.516 Q149.14 158.91 149.14 150.183 Q149.14 141.433 152.195 136.85 Q155.274 132.243 161.084 132.243 Z" fill="#000000" fill-rule="nonzero" fill-opacity="1" /><path clip-path="url(#clip352)" d="M269.7 725.039 L284.25 725.03 L298.799 725.019 L313.349 725.011 L327.898 724.999 L342.448 724.984 L356.997 724.965 L371.547 724.95 L386.096 724.938 L400.646 724.925 L415.195 724.904 L429.745 724.892 L444.294 724.888 L458.844 724.895 L473.393 724.92 L487.943 724.981 L502.492 725.162 L517.042 725.304 L531.592 725.791 L546.141 726.022 L560.691 726.603 L575.24 726.955 L589.79 727.512 L604.339 727.793 L618.889 728.306 L633.438 729.31 L647.988 729.877 L662.537 731.349 L677.087 732.86 L691.636 734.022 L706.186 736.754 L720.735 738.56 L735.285 739.861 L749.834 743.705 L764.384 743.212 L778.934 744.134 L793.483 748.874 L808.033 752.615 L822.582 756.365 L837.132 761.452 L851.681 762.974 L866.231 764.829 L880.78 766.369 L895.33 765.858 L909.879 765.536 L924.429 762.428 L938.978 762.777 L953.528 761.237 L968.077 759.796 L982.627 757.739 L997.176 757.154 L1011.73 756.407 L1026.28 757.917 L1040.83 757.807 L1055.37 764.655 L1069.92 771.996 L1084.47 782.194 L1099.02 798.468 L1113.57 810.771 L1128.12 823.589 L1142.67 839.832 L1157.22 856.14 L1171.77 868.145 L1186.32 882.819 L1200.87 899.131 L1215.42 924.74 L1229.97 950.176 L1244.52 971.497 L1259.07 990.017 L1273.62 1017.89 L1288.17 1042.63 L1302.72 1072.09 L1317.27 1095.8 L1331.82 1118.19 L1346.37 1143.48 L1360.91 1154.04 L1375.46 1176.03 L1390.01 1190 L1404.56 1196.73 L1419.11 1216.16 L1433.66 1234.95 L1448.21 1243.01 L1462.76 1257.6 L1477.31 1275.51 L1491.86 1296.68 L1506.41 1316.32 L1520.96 1331.36 L1535.51 1339.18 L1550.06 1355.74 L1564.61 1380.54 L1579.16 1386.45 L1593.71 1397.07 L1608.26 1408.3 L1622.81 1421.42 L1637.36 1427.81 L1651.91 1427.53 L1666.45 1427.05 L1681 1445.72 L1695.55 1439.46 L1710.1 1429.03 L1724.65 1421.84 L1739.2 1423.96 L1753.75 1423.91 L1768.3 1420.52 L1782.85 1426.42 L1797.4 1428.44 L1811.95 1421.83 L1826.5 1411.93 L1841.05 1416.42 L1855.6 1418.81 L1870.15 1421.62 L1884.7 1397.79 L1899.25 1363.63 L1913.8 1338.4 L1928.35 1307.78 L1942.9 1288.48 L1957.45 1260.78 L1971.99 1244.05 L1986.54 1225.36 L2001.09 1200.22 L2015.64 1172.52 L2030.19 1140.29 L2044.74 1111.95 L2059.29 1096.49 L2073.84 1081.81 L2088.39 1054.37 L2102.94 1020.47 L2117.49 992.86 L2132.04 960.304 L2146.59 936.547 L2161.14 915.172 L2175.69 901.266 L2190.24 882.411 L2204.79 871.56 L2219.34 854.996 L2233.89 843.438 L2248.44 824.446 L2262.99 789.009 L2277.53 766.833 L2292.08 752.122 L2292.08 679.426 L2277.53 675.176 L2262.99 667.317 L2248.44 651.906 L2233.89 647.8 L2219.34 648.163 L2204.79 646.925 L2190.24 652.638 L2175.69 655.336 L2161.14 663.052 L2146.59 666.994 L2132.04 668.207 L2117.49 668.446 L2102.94 672.333 L2088.39 670.777 L2073.84 677.418 L2059.29 689.827 L2044.74 704.035 L2030.19 712.417 L2015.64 722.066 L2001.09 731.584 L1986.54 736.571 L1971.99 746.788 L1957.45 764.718 L1942.9 772.582 L1928.35 786.356 L1913.8 805.755 L1899.25 822.025 L1884.7 831.854 L1870.15 851.242 L1855.6 873.558 L1841.05 890.485 L1826.5 901.096 L1811.95 914.295 L1797.4 929.171 L1782.85 945.004 L1768.3 961.109 L1753.75 986.848 L1739.2 1009.05 L1724.65 1024 L1710.1 1040.08 L1695.55 1054.45 L1681 1065.84 L1666.45 1073.97 L1651.91 1084.92 L1637.36 1085.05 L1622.81 1084.75 L1608.26 1080.49 L1593.71 1074.29 L1579.16 1058.4 L1564.61 1047.9 L1550.06 1027.57 L1535.51 1009.02 L1520.96 981.403 L1506.41 954.905 L1491.86 920.317 L1477.31 887.002 L1462.76 856.174 L1448.21 818.773 L1433.66 774.83 L1419.11 736.99 L1404.56 700.364 L1390.01 659.092 L1375.46 619.613 L1360.91 586.363 L1346.37 555.834 L1331.82 542.846 L1317.27 518.286 L1302.72 504.282 L1288.17 495.477 L1273.62 485.8 L1259.07 476.774 L1244.52 457.794 L1229.97 446.754 L1215.42 448.029 L1200.87 445.557 L1186.32 445.198 L1171.77 437.312 L1157.22 434.19 L1142.67 437.506 L1128.12 435.565 L1113.57 443.857 L1099.02 448.918 L1084.47 460.726 L1069.92 462.122 L1055.37 465.686 L1040.83 483.788 L1026.28 495.942 L1011.73 497.889 L997.176 509.279 L982.627 522.765 L968.077 534.006 L953.528 545.063 L938.978 551.952 L924.429 568.498 L909.879 578.914 L895.33 587.015 L880.78 595.816 L866.231 606.786 L851.681 620.374 L837.132 630.256 L822.582 645.029 L808.033 654.992 L793.483 664.865 L778.934 675.818 L764.384 679.836 L749.834 681.899 L735.285 689.735 L720.735 693.575 L706.186 698.34 L691.636 704.302 L677.087 707.524 L662.537 710.816 L647.988 713.94 L633.438 715.382 L618.889 717.572 L604.339 718.726 L589.79 719.358 L575.24 720.446 L560.691 721.238 L546.141 722.3 L531.592 722.778 L517.042 723.623 L502.492 723.911 L487.943 724.248 L473.393 724.419 L458.844 724.5 L444.294 724.556 L429.745 724.589 L415.195 724.606 L400.646 724.613 L386.096 724.612 L371.547 724.621 L356.997 724.617 L342.448 724.606 L327.898 724.6 L313.349 724.6 L298.799 724.59 L284.25 724.589 L269.7 724.584  Z" fill="#009af9" fill-rule="evenodd" fill-opacity="0.5"/>
<polyline clip-path="url(#clip352)" style="stroke:#009af9; stroke-linecap:round; stroke-linejoin:round; stroke-width:4; stroke-opacity:0.2; fill:none" points="269.7,724.811 284.25,724.809 298.799,724.804 313.349,724.806 327.898,724.8 342.448,724.795 356.997,724.791 371.547,724.786 386.096,724.775 400.646,724.769 415.195,724.755 429.745,724.741 444.294,724.722 458.844,724.698 473.393,724.669 487.943,724.615 502.492,724.536 517.042,724.463 531.592,724.284 546.141,724.161 560.691,723.92 575.24,723.701 589.79,723.435 604.339,723.26 618.889,722.939 633.438,722.346 647.988,721.908 662.537,721.083 677.087,720.192 691.636,719.162 706.186,717.547 720.735,716.068 735.285,714.798 749.834,712.802 764.384,711.524 778.934,709.976 793.483,706.87 808.033,703.804 822.582,700.697 837.132,695.854 851.681,691.674 866.231,685.808 880.78,681.093 895.33,676.436 909.879,672.225 924.429,665.463 938.978,657.364 953.528,653.15 968.077,646.901 982.627,640.252 997.176,633.217 1011.73,627.148 1026.28,626.929 1040.83,620.798 1055.37,615.17 1069.92,617.059 1084.47,621.46 1099.02,623.693 1113.57,627.314 1128.12,629.577 1142.67,638.669 1157.22,645.165 1171.77,652.728 1186.32,664.009 1200.87,672.344 1215.42,686.384 1229.97,698.465 1244.52,714.646 1259.07,733.395 1273.62,751.843 1288.17,769.054 1302.72,788.188 1317.27,807.044 1331.82,830.517 1346.37,849.655 1360.91,870.204 1375.46,897.82 1390.01,924.546 1404.56,948.548 1419.11,976.573 1433.66,1004.89 1448.21,1030.89 1462.76,1056.89 1477.31,1081.25 1491.86,1108.5 1506.41,1135.61 1520.96,1156.38 1535.51,1174.1 1550.06,1191.65 1564.61,1214.22 1579.16,1222.42 1593.71,1235.68 1608.26,1244.4 1622.81,1253.09 1637.36,1256.43 1651.91,1256.23 1666.45,1250.51 1681,1255.78 1695.55,1246.95 1710.1,1234.55 1724.65,1222.92 1739.2,1216.5 1753.75,1205.38 1768.3,1190.82 1782.85,1185.71 1797.4,1178.8 1811.95,1168.06 1826.5,1156.51 1841.05,1153.45 1855.6,1146.18 1870.15,1136.43 1884.7,1114.82 1899.25,1092.83 1913.8,1072.08 1928.35,1047.07 1942.9,1030.53 1957.45,1012.75 1971.99,995.419 1986.54,980.966 2001.09,965.901 2015.64,947.292 2030.19,926.353 2044.74,907.991 2059.29,893.161 2073.84,879.612 2088.39,862.573 2102.94,846.4 2117.49,830.653 2132.04,814.256 2146.59,801.771 2161.14,789.112 2175.69,778.301 2190.24,767.525 2204.79,759.242 2219.34,751.579 2233.89,745.619 2248.44,738.176 2262.99,728.163 2277.53,721.005 2292.08,715.774 "/>
<path clip-path="url(#clip352)" d="M269.7 725.121 L284.25 725.122 L298.799 725.131 L313.349 725.137 L327.898 725.14 L342.448 725.143 L356.997 725.151 L371.547 725.161 L386.096 725.176 L400.646 725.197 L415.195 725.232 L429.745 725.303 L444.294 725.385 L458.844 725.513 L473.393 725.581 L487.943 725.745 L502.492 725.916 L517.042 726.06 L531.592 726.249 L546.141 726.366 L560.691 726.69 L575.24 726.9 L589.79 727.496 L604.339 727.967 L618.889 728.189 L633.438 728.514 L647.988 728.814 L662.537 729.04 L677.087 729.242 L691.636 729.674 L706.186 730.11 L720.735 731.019 L735.285 731.666 L749.834 732.261 L764.384 733.267 L778.934 733.729 L793.483 735.493 L808.033 736.27 L822.582 738.295 L837.132 739.547 L851.681 739.668 L866.231 740.349 L880.78 741.538 L895.33 742.171 L909.879 742.957 L924.429 744.42 L938.978 746.917 L953.528 742.357 L968.077 738.263 L982.627 737.01 L997.176 733.298 L1011.73 731.261 L1026.28 723.957 L1040.83 717.767 L1055.37 708.411 L1069.92 701.116 L1084.47 689.354 L1099.02 677.19 L1113.57 661.901 L1128.12 643.801 L1142.67 630.255 L1157.22 614.908 L1171.77 604.032 L1186.32 590.26 L1200.87 576.707 L1215.42 558.808 L1229.97 547.529 L1244.52 534.785 L1259.07 527.901 L1273.62 527.225 L1288.17 527.6 L1302.72 530.959 L1317.27 533.297 L1331.82 540.801 L1346.37 546.889 L1360.91 557.293 L1375.46 573.084 L1390.01 593.161 L1404.56 609.391 L1419.11 630.399 L1433.66 653.888 L1448.21 676.975 L1462.76 708.505 L1477.31 733.974 L1491.86 763.577 L1506.41 796.554 L1520.96 826.746 L1535.51 857.675 L1550.06 884.663 L1564.61 909.566 L1579.16 940.253 L1593.71 976.799 L1608.26 1002.91 L1622.81 1028.01 L1637.36 1049.58 L1651.91 1066.88 L1666.45 1083.49 L1681 1094.94 L1695.55 1114.45 L1710.1 1130.36 L1724.65 1135.19 L1739.2 1136.8 L1753.75 1141.47 L1768.3 1136.74 L1782.85 1138.58 L1797.4 1138.78 L1811.95 1136.97 L1826.5 1138.25 L1841.05 1145.97 L1855.6 1157.57 L1870.15 1167.63 L1884.7 1162.52 L1899.25 1171.4 L1913.8 1168.75 L1928.35 1161.61 L1942.9 1168.49 L1957.45 1169.56 L1971.99 1163.55 L1986.54 1163.52 L2001.09 1161.56 L2015.64 1152.66 L2030.19 1142.16 L2044.74 1132.29 L2059.29 1128.21 L2073.84 1125.98 L2088.39 1120.74 L2102.94 1111.68 L2117.49 1105.06 L2132.04 1087.47 L2146.59 1076.54 L2161.14 1067.41 L2175.69 1058.36 L2190.24 1050.14 L2204.79 1043.06 L2219.34 1030.32 L2233.89 1020.75 L2248.44 1006.98 L2262.99 981.545 L2277.53 963.059 L2292.08 953.142 L2292.08 761.338 L2277.53 760.858 L2262.99 759.989 L2248.44 752.991 L2233.89 751.04 L2219.34 754.413 L2204.79 758.003 L2190.24 768.059 L2175.69 776.005 L2161.14 786.136 L2146.59 793.237 L2132.04 797.639 L2117.49 804.241 L2102.94 815.144 L2088.39 823.188 L2073.84 832.816 L2059.29 842.748 L2044.74 855.262 L2030.19 863.582 L2015.64 871.985 L2001.09 873.412 L1986.54 880.762 L1971.99 882.471 L1957.45 886.612 L1942.9 887.745 L1928.35 896.717 L1913.8 887.194 L1899.25 883.4 L1884.7 870.781 L1870.15 858.909 L1855.6 844.542 L1841.05 823.325 L1826.5 794.947 L1811.95 760.149 L1797.4 721.825 L1782.85 692.91 L1768.3 659.687 L1753.75 622.253 L1739.2 580.137 L1724.65 538.992 L1710.1 510.356 L1695.55 476.257 L1681 434.635 L1666.45 396.4 L1651.91 365.684 L1637.36 328.784 L1622.81 296.22 L1608.26 266.204 L1593.71 227.959 L1579.16 204.998 L1564.61 180.735 L1550.06 158.772 L1535.51 152.659 L1520.96 135.861 L1506.41 120.385 L1491.86 111.36 L1477.31 102.107 L1462.76 101.182 L1448.21 97.9668 L1433.66 94.0021 L1419.11 87.9763 L1404.56 95.0233 L1390.01 96.5323 L1375.46 110.438 L1360.91 123.031 L1346.37 140.526 L1331.82 161.615 L1317.27 178.506 L1302.72 190.765 L1288.17 208.481 L1273.62 223.884 L1259.07 239.63 L1244.52 251.383 L1229.97 266.988 L1215.42 283.276 L1200.87 298.083 L1186.32 311.685 L1171.77 324.652 L1157.22 335.611 L1142.67 351.197 L1128.12 365.323 L1113.57 382.284 L1099.02 402.786 L1084.47 428.138 L1069.92 452.991 L1055.37 470.688 L1040.83 494.914 L1026.28 510.418 L1011.73 520.411 L997.176 550.888 L982.627 568.225 L968.077 591.559 L953.528 604.989 L938.978 616.691 L924.429 638.677 L909.879 653.329 L895.33 664.791 L880.78 674.669 L866.231 684.822 L851.681 691.72 L837.132 695.542 L822.582 701.055 L808.033 707.249 L793.483 709.661 L778.934 714.562 L764.384 716.232 L749.834 718.371 L735.285 719.708 L720.735 720.79 L706.186 722.098 L691.636 722.723 L677.087 723.25 L662.537 723.454 L647.988 723.607 L633.438 723.82 L618.889 723.903 L604.339 723.92 L589.79 724.14 L575.24 724.448 L560.691 724.494 L546.141 724.597 L531.592 724.615 L517.042 724.685 L502.492 724.718 L487.943 724.789 L473.393 724.853 L458.844 724.871 L444.294 724.91 L429.745 724.923 L415.195 724.934 L400.646 724.929 L386.096 724.917 L371.547 724.906 L356.997 724.882 L342.448 724.87 L327.898 724.856 L313.349 724.853 L298.799 724.848 L284.25 724.837 L269.7 724.829  Z" fill="#e26f46" fill-rule="evenodd" fill-opacity="0.5"/>
<polyline clip-path="url(#clip352)" style="stroke:#e26f46; stroke-linecap:round; stroke-linejoin:round; stroke-width:4; stroke-opacity:0.2; fill:none" points="269.7,724.975 284.25,724.98 298.799,724.99 313.349,724.995 327.898,724.998 342.448,725.006 356.997,725.016 371.547,725.034 386.096,725.046 400.646,725.063 415.195,725.083 429.745,725.113 444.294,725.148 458.844,725.192 473.393,725.217 487.943,725.267 502.492,725.317 517.042,725.372 531.592,725.432 546.141,725.482 560.691,725.592 575.24,725.674 589.79,725.818 604.339,725.944 618.889,726.046 633.438,726.167 647.988,726.211 662.537,726.247 677.087,726.246 691.636,726.198 706.186,726.104 720.735,725.904 735.285,725.687 749.834,725.316 764.384,724.75 778.934,724.146 793.483,722.577 808.033,721.759 822.582,719.675 837.132,717.544 851.681,715.694 866.231,712.585 880.78,708.104 895.33,703.481 909.879,698.143 924.429,691.549 938.978,681.804 953.528,673.673 968.077,664.911 982.627,652.618 997.176,642.093 1011.73,625.836 1026.28,617.187 1040.83,606.34 1055.37,589.549 1069.92,577.053 1084.47,558.746 1099.02,539.988 1113.57,522.092 1128.12,504.562 1142.67,490.726 1157.22,475.259 1171.77,464.342 1186.32,450.972 1200.87,437.395 1215.42,421.042 1229.97,407.259 1244.52,393.084 1259.07,383.765 1273.62,375.554 1288.17,368.04 1302.72,360.862 1317.27,355.901 1331.82,351.208 1346.37,343.708 1360.91,340.162 1375.46,341.761 1390.01,344.847 1404.56,352.207 1419.11,359.187 1433.66,373.945 1448.21,387.471 1462.76,404.843 1477.31,418.041 1491.86,437.469 1506.41,458.47 1520.96,481.304 1535.51,505.167 1550.06,521.717 1564.61,545.15 1579.16,572.626 1593.71,602.379 1608.26,634.556 1622.81,662.114 1637.36,689.181 1651.91,716.283 1666.45,739.944 1681,764.786 1695.55,795.356 1710.1,820.356 1724.65,837.09 1739.2,858.469 1753.75,881.861 1768.3,898.211 1782.85,915.745 1797.4,930.303 1811.95,948.561 1826.5,966.599 1841.05,984.648 1855.6,1001.06 1870.15,1013.27 1884.7,1016.65 1899.25,1027.4 1913.8,1027.97 1928.35,1029.16 1942.9,1028.12 1957.45,1028.09 1971.99,1023.01 1986.54,1022.14 2001.09,1017.48 2015.64,1012.32 2030.19,1002.87 2044.74,993.775 2059.29,985.477 2073.84,979.396 2088.39,971.966 2102.94,963.414 2117.49,954.65 2132.04,942.554 2146.59,934.886 2161.14,926.771 2175.69,917.185 2190.24,909.098 2204.79,900.534 2219.34,892.367 2233.89,885.895 2248.44,879.985 2262.99,870.767 2277.53,861.959 2292.08,857.24 "/>
<circle clip-path="url(#clip352)" cx="269.7" cy="724.425" r="7.2" fill="#008000" fill-rule="evenodd" fill-opacity="1" stroke="#000000" stroke-opacity="1" stroke-width="3.2"/>
<circle clip-path="url(#clip352)" cx="284.25" cy="724.364" r="7.2" fill="#008000" fill-rule="evenodd" fill-opacity="1" stroke="#000000" stroke-opacity="1" stroke-width="3.2"/>
<circle clip-path="url(#clip352)" cx="298.799" cy="724.806" r="7.2" fill="#008000" fill-rule="evenodd" fill-opacity="1" stroke="#000000" stroke-opacity="1" stroke-width="3.2"/>
<circle clip-path="url(#clip352)" cx="313.349" cy="725.545" r="7.2" fill="#008000" fill-rule="evenodd" fill-opacity="1" stroke="#000000" stroke-opacity="1" stroke-width="3.2"/>
<circle clip-path="url(#clip352)" cx="327.898" cy="726.091" r="7.2" fill="#008000" fill-rule="evenodd" fill-opacity="1" stroke="#000000" stroke-opacity="1" stroke-width="3.2"/>
<circle clip-path="url(#clip352)" cx="342.448" cy="726.516" r="7.2" fill="#008000" fill-rule="evenodd" fill-opacity="1" stroke="#000000" stroke-opacity="1" stroke-width="3.2"/>
<circle clip-path="url(#clip352)" cx="356.997" cy="726.291" r="7.2" fill="#008000" fill-rule="evenodd" fill-opacity="1" stroke="#000000" stroke-opacity="1" stroke-width="3.2"/>
<circle clip-path="url(#clip352)" cx="371.547" cy="725.716" r="7.2" fill="#008000" fill-rule="evenodd" fill-opacity="1" stroke="#000000" stroke-opacity="1" stroke-width="3.2"/>
<circle clip-path="url(#clip352)" cx="386.096" cy="724.828" r="7.2" fill="#008000" fill-rule="evenodd" fill-opacity="1" stroke="#000000" stroke-opacity="1" stroke-width="3.2"/>
<circle clip-path="url(#clip352)" cx="400.646" cy="723.952" r="7.2" fill="#008000" fill-rule="evenodd" fill-opacity="1" stroke="#000000" stroke-opacity="1" stroke-width="3.2"/>
<circle clip-path="url(#clip352)" cx="415.195" cy="723.499" r="7.2" fill="#008000" fill-rule="evenodd" fill-opacity="1" stroke="#000000" stroke-opacity="1" stroke-width="3.2"/>
<circle clip-path="url(#clip352)" cx="429.745" cy="723.551" r="7.2" fill="#008000" fill-rule="evenodd" fill-opacity="1" stroke="#000000" stroke-opacity="1" stroke-width="3.2"/>
<circle clip-path="url(#clip352)" cx="444.294" cy="724.276" r="7.2" fill="#008000" fill-rule="evenodd" fill-opacity="1" stroke="#000000" stroke-opacity="1" stroke-width="3.2"/>
<circle clip-path="url(#clip352)" cx="458.844" cy="725.227" r="7.2" fill="#008000" fill-rule="evenodd" fill-opacity="1" stroke="#000000" stroke-opacity="1" stroke-width="3.2"/>
<circle clip-path="url(#clip352)" cx="473.393" cy="726.021" r="7.2" fill="#008000" fill-rule="evenodd" fill-opacity="1" stroke="#000000" stroke-opacity="1" stroke-width="3.2"/>
<circle clip-path="url(#clip352)" cx="487.943" cy="726.083" r="7.2" fill="#008000" fill-rule="evenodd" fill-opacity="1" stroke="#000000" stroke-opacity="1" stroke-width="3.2"/>
<circle clip-path="url(#clip352)" cx="502.492" cy="725.091" r="7.2" fill="#008000" fill-rule="evenodd" fill-opacity="1" stroke="#000000" stroke-opacity="1" stroke-width="3.2"/>
<circle clip-path="url(#clip352)" cx="517.042" cy="723.17" r="7.2" fill="#008000" fill-rule="evenodd" fill-opacity="1" stroke="#000000" stroke-opacity="1" stroke-width="3.2"/>
<circle clip-path="url(#clip352)" cx="531.592" cy="720.737" r="7.2" fill="#008000" fill-rule="evenodd" fill-opacity="1" stroke="#000000" stroke-opacity="1" stroke-width="3.2"/>
<circle clip-path="url(#clip352)" cx="546.141" cy="718.593" r="7.2" fill="#008000" fill-rule="evenodd" fill-opacity="1" stroke="#000000" stroke-opacity="1" stroke-width="3.2"/>
<circle clip-path="url(#clip352)" cx="560.691" cy="717.57" r="7.2" fill="#008000" fill-rule="evenodd" fill-opacity="1" stroke="#000000" stroke-opacity="1" stroke-width="3.2"/>
<circle clip-path="url(#clip352)" cx="575.24" cy="718.085" r="7.2" fill="#008000" fill-rule="evenodd" fill-opacity="1" stroke="#000000" stroke-opacity="1" stroke-width="3.2"/>
<circle clip-path="url(#clip352)" cx="589.79" cy="720.036" r="7.2" fill="#008000" fill-rule="evenodd" fill-opacity="1" stroke="#000000" stroke-opacity="1" stroke-width="3.2"/>
<circle clip-path="url(#clip352)" cx="604.339" cy="722.718" r="7.2" fill="#008000" fill-rule="evenodd" fill-opacity="1" stroke="#000000" stroke-opacity="1" stroke-width="3.2"/>
<circle clip-path="url(#clip352)" cx="618.889" cy="725.072" r="7.2" fill="#008000" fill-rule="evenodd" fill-opacity="1" stroke="#000000" stroke-opacity="1" stroke-width="3.2"/>
<circle clip-path="url(#clip352)" cx="633.438" cy="726.326" r="7.2" fill="#008000" fill-rule="evenodd" fill-opacity="1" stroke="#000000" stroke-opacity="1" stroke-width="3.2"/>
<circle clip-path="url(#clip352)" cx="647.988" cy="726.392" r="7.2" fill="#008000" fill-rule="evenodd" fill-opacity="1" stroke="#000000" stroke-opacity="1" stroke-width="3.2"/>
<circle clip-path="url(#clip352)" cx="662.537" cy="725.44" r="7.2" fill="#008000" fill-rule="evenodd" fill-opacity="1" stroke="#000000" stroke-opacity="1" stroke-width="3.2"/>
<circle clip-path="url(#clip352)" cx="677.087" cy="724.481" r="7.2" fill="#008000" fill-rule="evenodd" fill-opacity="1" stroke="#000000" stroke-opacity="1" stroke-width="3.2"/>
<circle clip-path="url(#clip352)" cx="691.636" cy="723.843" r="7.2" fill="#008000" fill-rule="evenodd" fill-opacity="1" stroke="#000000" stroke-opacity="1" stroke-width="3.2"/>
<circle clip-path="url(#clip352)" cx="706.186" cy="723.909" r="7.2" fill="#008000" fill-rule="evenodd" fill-opacity="1" stroke="#000000" stroke-opacity="1" stroke-width="3.2"/>
<circle clip-path="url(#clip352)" cx="720.735" cy="724.415" r="7.2" fill="#008000" fill-rule="evenodd" fill-opacity="1" stroke="#000000" stroke-opacity="1" stroke-width="3.2"/>
<circle clip-path="url(#clip352)" cx="735.285" cy="724.933" r="7.2" fill="#008000" fill-rule="evenodd" fill-opacity="1" stroke="#000000" stroke-opacity="1" stroke-width="3.2"/>
<circle clip-path="url(#clip352)" cx="749.834" cy="725.261" r="7.2" fill="#008000" fill-rule="evenodd" fill-opacity="1" stroke="#000000" stroke-opacity="1" stroke-width="3.2"/>
<circle clip-path="url(#clip352)" cx="764.384" cy="725.251" r="7.2" fill="#008000" fill-rule="evenodd" fill-opacity="1" stroke="#000000" stroke-opacity="1" stroke-width="3.2"/>
<circle clip-path="url(#clip352)" cx="778.934" cy="725.056" r="7.2" fill="#008000" fill-rule="evenodd" fill-opacity="1" stroke="#000000" stroke-opacity="1" stroke-width="3.2"/>
<circle clip-path="url(#clip352)" cx="793.483" cy="724.837" r="7.2" fill="#008000" fill-rule="evenodd" fill-opacity="1" stroke="#000000" stroke-opacity="1" stroke-width="3.2"/>
<circle clip-path="url(#clip352)" cx="808.033" cy="725.109" r="7.2" fill="#008000" fill-rule="evenodd" fill-opacity="1" stroke="#000000" stroke-opacity="1" stroke-width="3.2"/>
<circle clip-path="url(#clip352)" cx="822.582" cy="725.54" r="7.2" fill="#008000" fill-rule="evenodd" fill-opacity="1" stroke="#000000" stroke-opacity="1" stroke-width="3.2"/>
<circle clip-path="url(#clip352)" cx="837.132" cy="725.598" r="7.2" fill="#008000" fill-rule="evenodd" fill-opacity="1" stroke="#000000" stroke-opacity="1" stroke-width="3.2"/>
<circle clip-path="url(#clip352)" cx="851.681" cy="725.645" r="7.2" fill="#008000" fill-rule="evenodd" fill-opacity="1" stroke="#000000" stroke-opacity="1" stroke-width="3.2"/>
<circle clip-path="url(#clip352)" cx="866.231" cy="725.3" r="7.2" fill="#008000" fill-rule="evenodd" fill-opacity="1" stroke="#000000" stroke-opacity="1" stroke-width="3.2"/>
<circle clip-path="url(#clip352)" cx="880.78" cy="724.104" r="7.2" fill="#008000" fill-rule="evenodd" fill-opacity="1" stroke="#000000" stroke-opacity="1" stroke-width="3.2"/>
<circle clip-path="url(#clip352)" cx="895.33" cy="722.731" r="7.2" fill="#008000" fill-rule="evenodd" fill-opacity="1" stroke="#000000" stroke-opacity="1" stroke-width="3.2"/>
<circle clip-path="url(#clip352)" cx="909.879" cy="721.974" r="7.2" fill="#008000" fill-rule="evenodd" fill-opacity="1" stroke="#000000" stroke-opacity="1" stroke-width="3.2"/>
<circle clip-path="url(#clip352)" cx="924.429" cy="720.856" r="7.2" fill="#008000" fill-rule="evenodd" fill-opacity="1" stroke="#000000" stroke-opacity="1" stroke-width="3.2"/>
<circle clip-path="url(#clip352)" cx="938.978" cy="718.816" r="7.2" fill="#008000" fill-rule="evenodd" fill-opacity="1" stroke="#000000" stroke-opacity="1" stroke-width="3.2"/>
<circle clip-path="url(#clip352)" cx="953.528" cy="716.537" r="7.2" fill="#008000" fill-rule="evenodd" fill-opacity="1" stroke="#000000" stroke-opacity="1" stroke-width="3.2"/>
<circle clip-path="url(#clip352)" cx="968.077" cy="711.606" r="7.2" fill="#008000" fill-rule="evenodd" fill-opacity="1" stroke="#000000" stroke-opacity="1" stroke-width="3.2"/>
<circle clip-path="url(#clip352)" cx="982.627" cy="705.043" r="7.2" fill="#008000" fill-rule="evenodd" fill-opacity="1" stroke="#000000" stroke-opacity="1" stroke-width="3.2"/>
<circle clip-path="url(#clip352)" cx="997.176" cy="696.539" r="7.2" fill="#008000" fill-rule="evenodd" fill-opacity="1" stroke="#000000" stroke-opacity="1" stroke-width="3.2"/>
<circle clip-path="url(#clip352)" cx="1011.73" cy="686.752" r="7.2" fill="#008000" fill-rule="evenodd" fill-opacity="1" stroke="#000000" stroke-opacity="1" stroke-width="3.2"/>
<circle clip-path="url(#clip352)" cx="1026.28" cy="676.095" r="7.2" fill="#008000" fill-rule="evenodd" fill-opacity="1" stroke="#000000" stroke-opacity="1" stroke-width="3.2"/>
<circle clip-path="url(#clip352)" cx="1040.83" cy="663.281" r="7.2" fill="#008000" fill-rule="evenodd" fill-opacity="1" stroke="#000000" stroke-opacity="1" stroke-width="3.2"/>
<circle clip-path="url(#clip352)" cx="1055.37" cy="646.248" r="7.2" fill="#008000" fill-rule="evenodd" fill-opacity="1" stroke="#000000" stroke-opacity="1" stroke-width="3.2"/>
<circle clip-path="url(#clip352)" cx="1069.92" cy="624.136" r="7.2" fill="#008000" fill-rule="evenodd" fill-opacity="1" stroke="#000000" stroke-opacity="1" stroke-width="3.2"/>
<circle clip-path="url(#clip352)" cx="1084.47" cy="597.6" r="7.2" fill="#008000" fill-rule="evenodd" fill-opacity="1" stroke="#000000" stroke-opacity="1" stroke-width="3.2"/>
<circle clip-path="url(#clip352)" cx="1099.02" cy="568.958" r="7.2" fill="#008000" fill-rule="evenodd" fill-opacity="1" stroke="#000000" stroke-opacity="1" stroke-width="3.2"/>
<circle clip-path="url(#clip352)" cx="1113.57" cy="543.174" r="7.2" fill="#008000" fill-rule="evenodd" fill-opacity="1" stroke="#000000" stroke-opacity="1" stroke-width="3.2"/>
<circle clip-path="url(#clip352)" cx="1128.12" cy="526.828" r="7.2" fill="#008000" fill-rule="evenodd" fill-opacity="1" stroke="#000000" stroke-opacity="1" stroke-width="3.2"/>
<circle clip-path="url(#clip352)" cx="1142.67" cy="521.705" r="7.2" fill="#008000" fill-rule="evenodd" fill-opacity="1" stroke="#000000" stroke-opacity="1" stroke-width="3.2"/>
<circle clip-path="url(#clip352)" cx="1157.22" cy="527.603" r="7.2" fill="#008000" fill-rule="evenodd" fill-opacity="1" stroke="#000000" stroke-opacity="1" stroke-width="3.2"/>
<circle clip-path="url(#clip352)" cx="1171.77" cy="541.679" r="7.2" fill="#008000" fill-rule="evenodd" fill-opacity="1" stroke="#000000" stroke-opacity="1" stroke-width="3.2"/>
<circle clip-path="url(#clip352)" cx="1186.32" cy="558.422" r="7.2" fill="#008000" fill-rule="evenodd" fill-opacity="1" stroke="#000000" stroke-opacity="1" stroke-width="3.2"/>
<circle clip-path="url(#clip352)" cx="1200.87" cy="572.173" r="7.2" fill="#008000" fill-rule="evenodd" fill-opacity="1" stroke="#000000" stroke-opacity="1" stroke-width="3.2"/>
<circle clip-path="url(#clip352)" cx="1215.42" cy="582.565" r="7.2" fill="#008000" fill-rule="evenodd" fill-opacity="1" stroke="#000000" stroke-opacity="1" stroke-width="3.2"/>
<circle clip-path="url(#clip352)" cx="1229.97" cy="591.07" r="7.2" fill="#008000" fill-rule="evenodd" fill-opacity="1" stroke="#000000" stroke-opacity="1" stroke-width="3.2"/>
<circle clip-path="url(#clip352)" cx="1244.52" cy="599.813" r="7.2" fill="#008000" fill-rule="evenodd" fill-opacity="1" stroke="#000000" stroke-opacity="1" stroke-width="3.2"/>
<circle clip-path="url(#clip352)" cx="1259.07" cy="613.344" r="7.2" fill="#008000" fill-rule="evenodd" fill-opacity="1" stroke="#000000" stroke-opacity="1" stroke-width="3.2"/>
<circle clip-path="url(#clip352)" cx="1273.62" cy="632.164" r="7.2" fill="#008000" fill-rule="evenodd" fill-opacity="1" stroke="#000000" stroke-opacity="1" stroke-width="3.2"/>
<circle clip-path="url(#clip352)" cx="1288.17" cy="656.47" r="7.2" fill="#008000" fill-rule="evenodd" fill-opacity="1" stroke="#000000" stroke-opacity="1" stroke-width="3.2"/>
<circle clip-path="url(#clip352)" cx="1302.72" cy="683.168" r="7.2" fill="#008000" fill-rule="evenodd" fill-opacity="1" stroke="#000000" stroke-opacity="1" stroke-width="3.2"/>
<circle clip-path="url(#clip352)" cx="1317.27" cy="712.548" r="7.2" fill="#008000" fill-rule="evenodd" fill-opacity="1" stroke="#000000" stroke-opacity="1" stroke-width="3.2"/>
<circle clip-path="url(#clip352)" cx="1331.82" cy="744.408" r="7.2" fill="#008000" fill-rule="evenodd" fill-opacity="1" stroke="#000000" stroke-opacity="1" stroke-width="3.2"/>
<circle clip-path="url(#clip352)" cx="1346.37" cy="777.211" r="7.2" fill="#008000" fill-rule="evenodd" fill-opacity="1" stroke="#000000" stroke-opacity="1" stroke-width="3.2"/>
<circle clip-path="url(#clip352)" cx="1360.91" cy="813.387" r="7.2" fill="#008000" fill-rule="evenodd" fill-opacity="1" stroke="#000000" stroke-opacity="1" stroke-width="3.2"/>
<circle clip-path="url(#clip352)" cx="1375.46" cy="850.403" r="7.2" fill="#008000" fill-rule="evenodd" fill-opacity="1" stroke="#000000" stroke-opacity="1" stroke-width="3.2"/>
<circle clip-path="url(#clip352)" cx="1390.01" cy="884.596" r="7.2" fill="#008000" fill-rule="evenodd" fill-opacity="1" stroke="#000000" stroke-opacity="1" stroke-width="3.2"/>
<circle clip-path="url(#clip352)" cx="1404.56" cy="917.508" r="7.2" fill="#008000" fill-rule="evenodd" fill-opacity="1" stroke="#000000" stroke-opacity="1" stroke-width="3.2"/>
<circle clip-path="url(#clip352)" cx="1419.11" cy="945.541" r="7.2" fill="#008000" fill-rule="evenodd" fill-opacity="1" stroke="#000000" stroke-opacity="1" stroke-width="3.2"/>
<circle clip-path="url(#clip352)" cx="1433.66" cy="968.568" r="7.2" fill="#008000" fill-rule="evenodd" fill-opacity="1" stroke="#000000" stroke-opacity="1" stroke-width="3.2"/>
<circle clip-path="url(#clip352)" cx="1448.21" cy="987.748" r="7.2" fill="#008000" fill-rule="evenodd" fill-opacity="1" stroke="#000000" stroke-opacity="1" stroke-width="3.2"/>
<circle clip-path="url(#clip352)" cx="1462.76" cy="1007.46" r="7.2" fill="#008000" fill-rule="evenodd" fill-opacity="1" stroke="#000000" stroke-opacity="1" stroke-width="3.2"/>
<circle clip-path="url(#clip352)" cx="1477.31" cy="1029.6" r="7.2" fill="#008000" fill-rule="evenodd" fill-opacity="1" stroke="#000000" stroke-opacity="1" stroke-width="3.2"/>
<circle clip-path="url(#clip352)" cx="1491.86" cy="1055.83" r="7.2" fill="#008000" fill-rule="evenodd" fill-opacity="1" stroke="#000000" stroke-opacity="1" stroke-width="3.2"/>
<circle clip-path="url(#clip352)" cx="1506.41" cy="1088.96" r="7.2" fill="#008000" fill-rule="evenodd" fill-opacity="1" stroke="#000000" stroke-opacity="1" stroke-width="3.2"/>
<circle clip-path="url(#clip352)" cx="1520.96" cy="1125" r="7.2" fill="#008000" fill-rule="evenodd" fill-opacity="1" stroke="#000000" stroke-opacity="1" stroke-width="3.2"/>
<circle clip-path="url(#clip352)" cx="1535.51" cy="1157.9" r="7.2" fill="#008000" fill-rule="evenodd" fill-opacity="1" stroke="#000000" stroke-opacity="1" stroke-width="3.2"/>
<circle clip-path="url(#clip352)" cx="1550.06" cy="1187.8" r="7.2" fill="#008000" fill-rule="evenodd" fill-opacity="1" stroke="#000000" stroke-opacity="1" stroke-width="3.2"/>
<circle clip-path="url(#clip352)" cx="1564.61" cy="1208.1" r="7.2" fill="#008000" fill-rule="evenodd" fill-opacity="1" stroke="#000000" stroke-opacity="1" stroke-width="3.2"/>
<circle clip-path="url(#clip352)" cx="1579.16" cy="1216.81" r="7.2" fill="#008000" fill-rule="evenodd" fill-opacity="1" stroke="#000000" stroke-opacity="1" stroke-width="3.2"/>
<circle clip-path="url(#clip352)" cx="1593.71" cy="1218.03" r="7.2" fill="#008000" fill-rule="evenodd" fill-opacity="1" stroke="#000000" stroke-opacity="1" stroke-width="3.2"/>
<circle clip-path="url(#clip352)" cx="1608.26" cy="1215.85" r="7.2" fill="#008000" fill-rule="evenodd" fill-opacity="1" stroke="#000000" stroke-opacity="1" stroke-width="3.2"/>
<circle clip-path="url(#clip352)" cx="1622.81" cy="1216.07" r="7.2" fill="#008000" fill-rule="evenodd" fill-opacity="1" stroke="#000000" stroke-opacity="1" stroke-width="3.2"/>
<circle clip-path="url(#clip352)" cx="1637.36" cy="1224.55" r="7.2" fill="#008000" fill-rule="evenodd" fill-opacity="1" stroke="#000000" stroke-opacity="1" stroke-width="3.2"/>
<circle clip-path="url(#clip352)" cx="1651.91" cy="1243.57" r="7.2" fill="#008000" fill-rule="evenodd" fill-opacity="1" stroke="#000000" stroke-opacity="1" stroke-width="3.2"/>
<circle clip-path="url(#clip352)" cx="1666.45" cy="1269.12" r="7.2" fill="#008000" fill-rule="evenodd" fill-opacity="1" stroke="#000000" stroke-opacity="1" stroke-width="3.2"/>
<circle clip-path="url(#clip352)" cx="1681" cy="1294.3" r="7.2" fill="#008000" fill-rule="evenodd" fill-opacity="1" stroke="#000000" stroke-opacity="1" stroke-width="3.2"/>
<circle clip-path="url(#clip352)" cx="1695.55" cy="1315.75" r="7.2" fill="#008000" fill-rule="evenodd" fill-opacity="1" stroke="#000000" stroke-opacity="1" stroke-width="3.2"/>
<circle clip-path="url(#clip352)" cx="1710.1" cy="1325.56" r="7.2" fill="#008000" fill-rule="evenodd" fill-opacity="1" stroke="#000000" stroke-opacity="1" stroke-width="3.2"/>
<circle clip-path="url(#clip352)" cx="1724.65" cy="1321.15" r="7.2" fill="#008000" fill-rule="evenodd" fill-opacity="1" stroke="#000000" stroke-opacity="1" stroke-width="3.2"/>
<circle clip-path="url(#clip352)" cx="1739.2" cy="1307.85" r="7.2" fill="#008000" fill-rule="evenodd" fill-opacity="1" stroke="#000000" stroke-opacity="1" stroke-width="3.2"/>
<circle clip-path="url(#clip352)" cx="1753.75" cy="1287.88" r="7.2" fill="#008000" fill-rule="evenodd" fill-opacity="1" stroke="#000000" stroke-opacity="1" stroke-width="3.2"/>
<circle clip-path="url(#clip352)" cx="1768.3" cy="1267.82" r="7.2" fill="#008000" fill-rule="evenodd" fill-opacity="1" stroke="#000000" stroke-opacity="1" stroke-width="3.2"/>
<circle clip-path="url(#clip352)" cx="1782.85" cy="1253.59" r="7.2" fill="#008000" fill-rule="evenodd" fill-opacity="1" stroke="#000000" stroke-opacity="1" stroke-width="3.2"/>
<circle clip-path="url(#clip352)" cx="1797.4" cy="1246.1" r="7.2" fill="#008000" fill-rule="evenodd" fill-opacity="1" stroke="#000000" stroke-opacity="1" stroke-width="3.2"/>
<circle clip-path="url(#clip352)" cx="1811.95" cy="1242.73" r="7.2" fill="#008000" fill-rule="evenodd" fill-opacity="1" stroke="#000000" stroke-opacity="1" stroke-width="3.2"/>
<circle clip-path="url(#clip352)" cx="1826.5" cy="1240.01" r="7.2" fill="#008000" fill-rule="evenodd" fill-opacity="1" stroke="#000000" stroke-opacity="1" stroke-width="3.2"/>
<circle clip-path="url(#clip352)" cx="1841.05" cy="1235.05" r="7.2" fill="#008000" fill-rule="evenodd" fill-opacity="1" stroke="#000000" stroke-opacity="1" stroke-width="3.2"/>
<circle clip-path="url(#clip352)" cx="1855.6" cy="1222.85" r="7.2" fill="#008000" fill-rule="evenodd" fill-opacity="1" stroke="#000000" stroke-opacity="1" stroke-width="3.2"/>
<circle clip-path="url(#clip352)" cx="1870.15" cy="1203.09" r="7.2" fill="#008000" fill-rule="evenodd" fill-opacity="1" stroke="#000000" stroke-opacity="1" stroke-width="3.2"/>
<circle clip-path="url(#clip352)" cx="1884.7" cy="1180.95" r="7.2" fill="#008000" fill-rule="evenodd" fill-opacity="1" stroke="#000000" stroke-opacity="1" stroke-width="3.2"/>
<circle clip-path="url(#clip352)" cx="1899.25" cy="1156.17" r="7.2" fill="#008000" fill-rule="evenodd" fill-opacity="1" stroke="#000000" stroke-opacity="1" stroke-width="3.2"/>
<circle clip-path="url(#clip352)" cx="1913.8" cy="1133.55" r="7.2" fill="#008000" fill-rule="evenodd" fill-opacity="1" stroke="#000000" stroke-opacity="1" stroke-width="3.2"/>
<circle clip-path="url(#clip352)" cx="1928.35" cy="1116.83" r="7.2" fill="#008000" fill-rule="evenodd" fill-opacity="1" stroke="#000000" stroke-opacity="1" stroke-width="3.2"/>
<circle clip-path="url(#clip352)" cx="1942.9" cy="1103.63" r="7.2" fill="#008000" fill-rule="evenodd" fill-opacity="1" stroke="#000000" stroke-opacity="1" stroke-width="3.2"/>
<circle clip-path="url(#clip352)" cx="1957.45" cy="1090.93" r="7.2" fill="#008000" fill-rule="evenodd" fill-opacity="1" stroke="#000000" stroke-opacity="1" stroke-width="3.2"/>
<circle clip-path="url(#clip352)" cx="1971.99" cy="1075.38" r="7.2" fill="#008000" fill-rule="evenodd" fill-opacity="1" stroke="#000000" stroke-opacity="1" stroke-width="3.2"/>
<circle clip-path="url(#clip352)" cx="1986.54" cy="1053.51" r="7.2" fill="#008000" fill-rule="evenodd" fill-opacity="1" stroke="#000000" stroke-opacity="1" stroke-width="3.2"/>
<circle clip-path="url(#clip352)" cx="2001.09" cy="1024.12" r="7.2" fill="#008000" fill-rule="evenodd" fill-opacity="1" stroke="#000000" stroke-opacity="1" stroke-width="3.2"/>
<circle clip-path="url(#clip352)" cx="2015.64" cy="989.737" r="7.2" fill="#008000" fill-rule="evenodd" fill-opacity="1" stroke="#000000" stroke-opacity="1" stroke-width="3.2"/>
<circle clip-path="url(#clip352)" cx="2030.19" cy="956.326" r="7.2" fill="#008000" fill-rule="evenodd" fill-opacity="1" stroke="#000000" stroke-opacity="1" stroke-width="3.2"/>
<circle clip-path="url(#clip352)" cx="2044.74" cy="924.368" r="7.2" fill="#008000" fill-rule="evenodd" fill-opacity="1" stroke="#000000" stroke-opacity="1" stroke-width="3.2"/>
<circle clip-path="url(#clip352)" cx="2059.29" cy="898.03" r="7.2" fill="#008000" fill-rule="evenodd" fill-opacity="1" stroke="#000000" stroke-opacity="1" stroke-width="3.2"/>
<circle clip-path="url(#clip352)" cx="2073.84" cy="879.833" r="7.2" fill="#008000" fill-rule="evenodd" fill-opacity="1" stroke="#000000" stroke-opacity="1" stroke-width="3.2"/>
<circle clip-path="url(#clip352)" cx="2088.39" cy="865.835" r="7.2" fill="#008000" fill-rule="evenodd" fill-opacity="1" stroke="#000000" stroke-opacity="1" stroke-width="3.2"/>
<circle clip-path="url(#clip352)" cx="2102.94" cy="854.155" r="7.2" fill="#008000" fill-rule="evenodd" fill-opacity="1" stroke="#000000" stroke-opacity="1" stroke-width="3.2"/>
<circle clip-path="url(#clip352)" cx="2117.49" cy="842.9" r="7.2" fill="#008000" fill-rule="evenodd" fill-opacity="1" stroke="#000000" stroke-opacity="1" stroke-width="3.2"/>
<circle clip-path="url(#clip352)" cx="2132.04" cy="829.73" r="7.2" fill="#008000" fill-rule="evenodd" fill-opacity="1" stroke="#000000" stroke-opacity="1" stroke-width="3.2"/>
<circle clip-path="url(#clip352)" cx="2146.59" cy="815.096" r="7.2" fill="#008000" fill-rule="evenodd" fill-opacity="1" stroke="#000000" stroke-opacity="1" stroke-width="3.2"/>
<circle clip-path="url(#clip352)" cx="2161.14" cy="800.542" r="7.2" fill="#008000" fill-rule="evenodd" fill-opacity="1" stroke="#000000" stroke-opacity="1" stroke-width="3.2"/>
<circle clip-path="url(#clip352)" cx="2175.69" cy="787.419" r="7.2" fill="#008000" fill-rule="evenodd" fill-opacity="1" stroke="#000000" stroke-opacity="1" stroke-width="3.2"/>
<circle clip-path="url(#clip352)" cx="2190.24" cy="772.708" r="7.2" fill="#008000" fill-rule="evenodd" fill-opacity="1" stroke="#000000" stroke-opacity="1" stroke-width="3.2"/>
<circle clip-path="url(#clip352)" cx="2204.79" cy="756.713" r="7.2" fill="#008000" fill-rule="evenodd" fill-opacity="1" stroke="#000000" stroke-opacity="1" stroke-width="3.2"/>
<circle clip-path="url(#clip352)" cx="2219.34" cy="738.677" r="7.2" fill="#008000" fill-rule="evenodd" fill-opacity="1" stroke="#000000" stroke-opacity="1" stroke-width="3.2"/>
<circle clip-path="url(#clip352)" cx="2233.89" cy="718.147" r="7.2" fill="#008000" fill-rule="evenodd" fill-opacity="1" stroke="#000000" stroke-opacity="1" stroke-width="3.2"/>
<circle clip-path="url(#clip352)" cx="2248.44" cy="698.037" r="7.2" fill="#008000" fill-rule="evenodd" fill-opacity="1" stroke="#000000" stroke-opacity="1" stroke-width="3.2"/>
<circle clip-path="url(#clip352)" cx="2262.99" cy="681.019" r="7.2" fill="#008000" fill-rule="evenodd" fill-opacity="1" stroke="#000000" stroke-opacity="1" stroke-width="3.2"/>
<circle clip-path="url(#clip352)" cx="2277.53" cy="668.751" r="7.2" fill="#008000" fill-rule="evenodd" fill-opacity="1" stroke="#000000" stroke-opacity="1" stroke-width="3.2"/>
<circle clip-path="url(#clip352)" cx="2292.08" cy="661.582" r="7.2" fill="#008000" fill-rule="evenodd" fill-opacity="1" stroke="#000000" stroke-opacity="1" stroke-width="3.2"/>
<circle clip-path="url(#clip352)" cx="269.7" cy="724.514" r="7.2" fill="#008000" fill-rule="evenodd" fill-opacity="1" stroke="#000000" stroke-opacity="1" stroke-width="3.2"/>
<circle clip-path="url(#clip352)" cx="284.25" cy="725.256" r="7.2" fill="#008000" fill-rule="evenodd" fill-opacity="1" stroke="#000000" stroke-opacity="1" stroke-width="3.2"/>
<circle clip-path="url(#clip352)" cx="298.799" cy="725.977" r="7.2" fill="#008000" fill-rule="evenodd" fill-opacity="1" stroke="#000000" stroke-opacity="1" stroke-width="3.2"/>
<circle clip-path="url(#clip352)" cx="313.349" cy="726.447" r="7.2" fill="#008000" fill-rule="evenodd" fill-opacity="1" stroke="#000000" stroke-opacity="1" stroke-width="3.2"/>
<circle clip-path="url(#clip352)" cx="327.898" cy="726.186" r="7.2" fill="#008000" fill-rule="evenodd" fill-opacity="1" stroke="#000000" stroke-opacity="1" stroke-width="3.2"/>
<circle clip-path="url(#clip352)" cx="342.448" cy="725.412" r="7.2" fill="#008000" fill-rule="evenodd" fill-opacity="1" stroke="#000000" stroke-opacity="1" stroke-width="3.2"/>
<circle clip-path="url(#clip352)" cx="356.997" cy="724.345" r="7.2" fill="#008000" fill-rule="evenodd" fill-opacity="1" stroke="#000000" stroke-opacity="1" stroke-width="3.2"/>
<circle clip-path="url(#clip352)" cx="371.547" cy="723.584" r="7.2" fill="#008000" fill-rule="evenodd" fill-opacity="1" stroke="#000000" stroke-opacity="1" stroke-width="3.2"/>
<circle clip-path="url(#clip352)" cx="386.096" cy="723.488" r="7.2" fill="#008000" fill-rule="evenodd" fill-opacity="1" stroke="#000000" stroke-opacity="1" stroke-width="3.2"/>
<circle clip-path="url(#clip352)" cx="400.646" cy="724.207" r="7.2" fill="#008000" fill-rule="evenodd" fill-opacity="1" stroke="#000000" stroke-opacity="1" stroke-width="3.2"/>
<circle clip-path="url(#clip352)" cx="415.195" cy="725.209" r="7.2" fill="#008000" fill-rule="evenodd" fill-opacity="1" stroke="#000000" stroke-opacity="1" stroke-width="3.2"/>
<circle clip-path="url(#clip352)" cx="429.745" cy="725.934" r="7.2" fill="#008000" fill-rule="evenodd" fill-opacity="1" stroke="#000000" stroke-opacity="1" stroke-width="3.2"/>
<circle clip-path="url(#clip352)" cx="444.294" cy="725.923" r="7.2" fill="#008000" fill-rule="evenodd" fill-opacity="1" stroke="#000000" stroke-opacity="1" stroke-width="3.2"/>
<circle clip-path="url(#clip352)" cx="458.844" cy="725.246" r="7.2" fill="#008000" fill-rule="evenodd" fill-opacity="1" stroke="#000000" stroke-opacity="1" stroke-width="3.2"/>
<circle clip-path="url(#clip352)" cx="473.393" cy="724.489" r="7.2" fill="#008000" fill-rule="evenodd" fill-opacity="1" stroke="#000000" stroke-opacity="1" stroke-width="3.2"/>
<circle clip-path="url(#clip352)" cx="487.943" cy="724.034" r="7.2" fill="#008000" fill-rule="evenodd" fill-opacity="1" stroke="#000000" stroke-opacity="1" stroke-width="3.2"/>
<circle clip-path="url(#clip352)" cx="502.492" cy="724.194" r="7.2" fill="#008000" fill-rule="evenodd" fill-opacity="1" stroke="#000000" stroke-opacity="1" stroke-width="3.2"/>
<circle clip-path="url(#clip352)" cx="517.042" cy="724.701" r="7.2" fill="#008000" fill-rule="evenodd" fill-opacity="1" stroke="#000000" stroke-opacity="1" stroke-width="3.2"/>
<circle clip-path="url(#clip352)" cx="531.592" cy="725.019" r="7.2" fill="#008000" fill-rule="evenodd" fill-opacity="1" stroke="#000000" stroke-opacity="1" stroke-width="3.2"/>
<circle clip-path="url(#clip352)" cx="546.141" cy="724.855" r="7.2" fill="#008000" fill-rule="evenodd" fill-opacity="1" stroke="#000000" stroke-opacity="1" stroke-width="3.2"/>
<circle clip-path="url(#clip352)" cx="560.691" cy="724.188" r="7.2" fill="#008000" fill-rule="evenodd" fill-opacity="1" stroke="#000000" stroke-opacity="1" stroke-width="3.2"/>
<circle clip-path="url(#clip352)" cx="575.24" cy="723.45" r="7.2" fill="#008000" fill-rule="evenodd" fill-opacity="1" stroke="#000000" stroke-opacity="1" stroke-width="3.2"/>
<circle clip-path="url(#clip352)" cx="589.79" cy="723.202" r="7.2" fill="#008000" fill-rule="evenodd" fill-opacity="1" stroke="#000000" stroke-opacity="1" stroke-width="3.2"/>
<circle clip-path="url(#clip352)" cx="604.339" cy="723.572" r="7.2" fill="#008000" fill-rule="evenodd" fill-opacity="1" stroke="#000000" stroke-opacity="1" stroke-width="3.2"/>
<circle clip-path="url(#clip352)" cx="618.889" cy="724.561" r="7.2" fill="#008000" fill-rule="evenodd" fill-opacity="1" stroke="#000000" stroke-opacity="1" stroke-width="3.2"/>
<circle clip-path="url(#clip352)" cx="633.438" cy="725.464" r="7.2" fill="#008000" fill-rule="evenodd" fill-opacity="1" stroke="#000000" stroke-opacity="1" stroke-width="3.2"/>
<circle clip-path="url(#clip352)" cx="647.988" cy="726.001" r="7.2" fill="#008000" fill-rule="evenodd" fill-opacity="1" stroke="#000000" stroke-opacity="1" stroke-width="3.2"/>
<circle clip-path="url(#clip352)" cx="662.537" cy="725.913" r="7.2" fill="#008000" fill-rule="evenodd" fill-opacity="1" stroke="#000000" stroke-opacity="1" stroke-width="3.2"/>
<circle clip-path="url(#clip352)" cx="677.087" cy="725.535" r="7.2" fill="#008000" fill-rule="evenodd" fill-opacity="1" stroke="#000000" stroke-opacity="1" stroke-width="3.2"/>
<circle clip-path="url(#clip352)" cx="691.636" cy="725.181" r="7.2" fill="#008000" fill-rule="evenodd" fill-opacity="1" stroke="#000000" stroke-opacity="1" stroke-width="3.2"/>
<circle clip-path="url(#clip352)" cx="706.186" cy="725.035" r="7.2" fill="#008000" fill-rule="evenodd" fill-opacity="1" stroke="#000000" stroke-opacity="1" stroke-width="3.2"/>
<circle clip-path="url(#clip352)" cx="720.735" cy="725.119" r="7.2" fill="#008000" fill-rule="evenodd" fill-opacity="1" stroke="#000000" stroke-opacity="1" stroke-width="3.2"/>
<circle clip-path="url(#clip352)" cx="735.285" cy="725.284" r="7.2" fill="#008000" fill-rule="evenodd" fill-opacity="1" stroke="#000000" stroke-opacity="1" stroke-width="3.2"/>
<circle clip-path="url(#clip352)" cx="749.834" cy="725.342" r="7.2" fill="#008000" fill-rule="evenodd" fill-opacity="1" stroke="#000000" stroke-opacity="1" stroke-width="3.2"/>
<circle clip-path="url(#clip352)" cx="764.384" cy="725.45" r="7.2" fill="#008000" fill-rule="evenodd" fill-opacity="1" stroke="#000000" stroke-opacity="1" stroke-width="3.2"/>
<circle clip-path="url(#clip352)" cx="778.934" cy="725.341" r="7.2" fill="#008000" fill-rule="evenodd" fill-opacity="1" stroke="#000000" stroke-opacity="1" stroke-width="3.2"/>
<circle clip-path="url(#clip352)" cx="793.483" cy="725.198" r="7.2" fill="#008000" fill-rule="evenodd" fill-opacity="1" stroke="#000000" stroke-opacity="1" stroke-width="3.2"/>
<circle clip-path="url(#clip352)" cx="808.033" cy="725.089" r="7.2" fill="#008000" fill-rule="evenodd" fill-opacity="1" stroke="#000000" stroke-opacity="1" stroke-width="3.2"/>
<circle clip-path="url(#clip352)" cx="822.582" cy="725.153" r="7.2" fill="#008000" fill-rule="evenodd" fill-opacity="1" stroke="#000000" stroke-opacity="1" stroke-width="3.2"/>
<circle clip-path="url(#clip352)" cx="837.132" cy="725.303" r="7.2" fill="#008000" fill-rule="evenodd" fill-opacity="1" stroke="#000000" stroke-opacity="1" stroke-width="3.2"/>
<circle clip-path="url(#clip352)" cx="851.681" cy="725.94" r="7.2" fill="#008000" fill-rule="evenodd" fill-opacity="1" stroke="#000000" stroke-opacity="1" stroke-width="3.2"/>
<circle clip-path="url(#clip352)" cx="866.231" cy="726.517" r="7.2" fill="#008000" fill-rule="evenodd" fill-opacity="1" stroke="#000000" stroke-opacity="1" stroke-width="3.2"/>
<circle clip-path="url(#clip352)" cx="880.78" cy="726.016" r="7.2" fill="#008000" fill-rule="evenodd" fill-opacity="1" stroke="#000000" stroke-opacity="1" stroke-width="3.2"/>
<circle clip-path="url(#clip352)" cx="895.33" cy="724.1" r="7.2" fill="#008000" fill-rule="evenodd" fill-opacity="1" stroke="#000000" stroke-opacity="1" stroke-width="3.2"/>
<circle clip-path="url(#clip352)" cx="909.879" cy="721.614" r="7.2" fill="#008000" fill-rule="evenodd" fill-opacity="1" stroke="#000000" stroke-opacity="1" stroke-width="3.2"/>
<circle clip-path="url(#clip352)" cx="924.429" cy="716.873" r="7.2" fill="#008000" fill-rule="evenodd" fill-opacity="1" stroke="#000000" stroke-opacity="1" stroke-width="3.2"/>
<circle clip-path="url(#clip352)" cx="938.978" cy="710.865" r="7.2" fill="#008000" fill-rule="evenodd" fill-opacity="1" stroke="#000000" stroke-opacity="1" stroke-width="3.2"/>
<circle clip-path="url(#clip352)" cx="953.528" cy="707.063" r="7.2" fill="#008000" fill-rule="evenodd" fill-opacity="1" stroke="#000000" stroke-opacity="1" stroke-width="3.2"/>
<circle clip-path="url(#clip352)" cx="968.077" cy="703.407" r="7.2" fill="#008000" fill-rule="evenodd" fill-opacity="1" stroke="#000000" stroke-opacity="1" stroke-width="3.2"/>
<circle clip-path="url(#clip352)" cx="982.627" cy="700.559" r="7.2" fill="#008000" fill-rule="evenodd" fill-opacity="1" stroke="#000000" stroke-opacity="1" stroke-width="3.2"/>
<circle clip-path="url(#clip352)" cx="997.176" cy="699.465" r="7.2" fill="#008000" fill-rule="evenodd" fill-opacity="1" stroke="#000000" stroke-opacity="1" stroke-width="3.2"/>
<circle clip-path="url(#clip352)" cx="1011.73" cy="698.658" r="7.2" fill="#008000" fill-rule="evenodd" fill-opacity="1" stroke="#000000" stroke-opacity="1" stroke-width="3.2"/>
<circle clip-path="url(#clip352)" cx="1026.28" cy="694.977" r="7.2" fill="#008000" fill-rule="evenodd" fill-opacity="1" stroke="#000000" stroke-opacity="1" stroke-width="3.2"/>
<circle clip-path="url(#clip352)" cx="1040.83" cy="685.278" r="7.2" fill="#008000" fill-rule="evenodd" fill-opacity="1" stroke="#000000" stroke-opacity="1" stroke-width="3.2"/>
<circle clip-path="url(#clip352)" cx="1055.37" cy="666.351" r="7.2" fill="#008000" fill-rule="evenodd" fill-opacity="1" stroke="#000000" stroke-opacity="1" stroke-width="3.2"/>
<circle clip-path="url(#clip352)" cx="1069.92" cy="634.697" r="7.2" fill="#008000" fill-rule="evenodd" fill-opacity="1" stroke="#000000" stroke-opacity="1" stroke-width="3.2"/>
<circle clip-path="url(#clip352)" cx="1084.47" cy="591.408" r="7.2" fill="#008000" fill-rule="evenodd" fill-opacity="1" stroke="#000000" stroke-opacity="1" stroke-width="3.2"/>
<circle clip-path="url(#clip352)" cx="1099.02" cy="541.217" r="7.2" fill="#008000" fill-rule="evenodd" fill-opacity="1" stroke="#000000" stroke-opacity="1" stroke-width="3.2"/>
<circle clip-path="url(#clip352)" cx="1113.57" cy="486.871" r="7.2" fill="#008000" fill-rule="evenodd" fill-opacity="1" stroke="#000000" stroke-opacity="1" stroke-width="3.2"/>
<circle clip-path="url(#clip352)" cx="1128.12" cy="437.619" r="7.2" fill="#008000" fill-rule="evenodd" fill-opacity="1" stroke="#000000" stroke-opacity="1" stroke-width="3.2"/>
<circle clip-path="url(#clip352)" cx="1142.67" cy="398.393" r="7.2" fill="#008000" fill-rule="evenodd" fill-opacity="1" stroke="#000000" stroke-opacity="1" stroke-width="3.2"/>
<circle clip-path="url(#clip352)" cx="1157.22" cy="371.343" r="7.2" fill="#008000" fill-rule="evenodd" fill-opacity="1" stroke="#000000" stroke-opacity="1" stroke-width="3.2"/>
<circle clip-path="url(#clip352)" cx="1171.77" cy="354.01" r="7.2" fill="#008000" fill-rule="evenodd" fill-opacity="1" stroke="#000000" stroke-opacity="1" stroke-width="3.2"/>
<circle clip-path="url(#clip352)" cx="1186.32" cy="341.569" r="7.2" fill="#008000" fill-rule="evenodd" fill-opacity="1" stroke="#000000" stroke-opacity="1" stroke-width="3.2"/>
<circle clip-path="url(#clip352)" cx="1200.87" cy="328.374" r="7.2" fill="#008000" fill-rule="evenodd" fill-opacity="1" stroke="#000000" stroke-opacity="1" stroke-width="3.2"/>
<circle clip-path="url(#clip352)" cx="1215.42" cy="310.235" r="7.2" fill="#008000" fill-rule="evenodd" fill-opacity="1" stroke="#000000" stroke-opacity="1" stroke-width="3.2"/>
<circle clip-path="url(#clip352)" cx="1229.97" cy="288.206" r="7.2" fill="#008000" fill-rule="evenodd" fill-opacity="1" stroke="#000000" stroke-opacity="1" stroke-width="3.2"/>
<circle clip-path="url(#clip352)" cx="1244.52" cy="265.912" r="7.2" fill="#008000" fill-rule="evenodd" fill-opacity="1" stroke="#000000" stroke-opacity="1" stroke-width="3.2"/>
<circle clip-path="url(#clip352)" cx="1259.07" cy="243.845" r="7.2" fill="#008000" fill-rule="evenodd" fill-opacity="1" stroke="#000000" stroke-opacity="1" stroke-width="3.2"/>
<circle clip-path="url(#clip352)" cx="1273.62" cy="228.01" r="7.2" fill="#008000" fill-rule="evenodd" fill-opacity="1" stroke="#000000" stroke-opacity="1" stroke-width="3.2"/>
<circle clip-path="url(#clip352)" cx="1288.17" cy="220.617" r="7.2" fill="#008000" fill-rule="evenodd" fill-opacity="1" stroke="#000000" stroke-opacity="1" stroke-width="3.2"/>
<circle clip-path="url(#clip352)" cx="1302.72" cy="218.238" r="7.2" fill="#008000" fill-rule="evenodd" fill-opacity="1" stroke="#000000" stroke-opacity="1" stroke-width="3.2"/>
<circle clip-path="url(#clip352)" cx="1317.27" cy="218.886" r="7.2" fill="#008000" fill-rule="evenodd" fill-opacity="1" stroke="#000000" stroke-opacity="1" stroke-width="3.2"/>
<circle clip-path="url(#clip352)" cx="1331.82" cy="220.325" r="7.2" fill="#008000" fill-rule="evenodd" fill-opacity="1" stroke="#000000" stroke-opacity="1" stroke-width="3.2"/>
<circle clip-path="url(#clip352)" cx="1346.37" cy="218.251" r="7.2" fill="#008000" fill-rule="evenodd" fill-opacity="1" stroke="#000000" stroke-opacity="1" stroke-width="3.2"/>
<circle clip-path="url(#clip352)" cx="1360.91" cy="212.654" r="7.2" fill="#008000" fill-rule="evenodd" fill-opacity="1" stroke="#000000" stroke-opacity="1" stroke-width="3.2"/>
<circle clip-path="url(#clip352)" cx="1375.46" cy="206.345" r="7.2" fill="#008000" fill-rule="evenodd" fill-opacity="1" stroke="#000000" stroke-opacity="1" stroke-width="3.2"/>
<circle clip-path="url(#clip352)" cx="1390.01" cy="202.14" r="7.2" fill="#008000" fill-rule="evenodd" fill-opacity="1" stroke="#000000" stroke-opacity="1" stroke-width="3.2"/>
<circle clip-path="url(#clip352)" cx="1404.56" cy="202.727" r="7.2" fill="#008000" fill-rule="evenodd" fill-opacity="1" stroke="#000000" stroke-opacity="1" stroke-width="3.2"/>
<circle clip-path="url(#clip352)" cx="1419.11" cy="212.908" r="7.2" fill="#008000" fill-rule="evenodd" fill-opacity="1" stroke="#000000" stroke-opacity="1" stroke-width="3.2"/>
<circle clip-path="url(#clip352)" cx="1433.66" cy="231.935" r="7.2" fill="#008000" fill-rule="evenodd" fill-opacity="1" stroke="#000000" stroke-opacity="1" stroke-width="3.2"/>
<circle clip-path="url(#clip352)" cx="1448.21" cy="254.95" r="7.2" fill="#008000" fill-rule="evenodd" fill-opacity="1" stroke="#000000" stroke-opacity="1" stroke-width="3.2"/>
<circle clip-path="url(#clip352)" cx="1462.76" cy="281.85" r="7.2" fill="#008000" fill-rule="evenodd" fill-opacity="1" stroke="#000000" stroke-opacity="1" stroke-width="3.2"/>
<circle clip-path="url(#clip352)" cx="1477.31" cy="308.67" r="7.2" fill="#008000" fill-rule="evenodd" fill-opacity="1" stroke="#000000" stroke-opacity="1" stroke-width="3.2"/>
<circle clip-path="url(#clip352)" cx="1491.86" cy="331.999" r="7.2" fill="#008000" fill-rule="evenodd" fill-opacity="1" stroke="#000000" stroke-opacity="1" stroke-width="3.2"/>
<circle clip-path="url(#clip352)" cx="1506.41" cy="355.428" r="7.2" fill="#008000" fill-rule="evenodd" fill-opacity="1" stroke="#000000" stroke-opacity="1" stroke-width="3.2"/>
<circle clip-path="url(#clip352)" cx="1520.96" cy="381.866" r="7.2" fill="#008000" fill-rule="evenodd" fill-opacity="1" stroke="#000000" stroke-opacity="1" stroke-width="3.2"/>
<circle clip-path="url(#clip352)" cx="1535.51" cy="411.922" r="7.2" fill="#008000" fill-rule="evenodd" fill-opacity="1" stroke="#000000" stroke-opacity="1" stroke-width="3.2"/>
<circle clip-path="url(#clip352)" cx="1550.06" cy="448.317" r="7.2" fill="#008000" fill-rule="evenodd" fill-opacity="1" stroke="#000000" stroke-opacity="1" stroke-width="3.2"/>
<circle clip-path="url(#clip352)" cx="1564.61" cy="489.5" r="7.2" fill="#008000" fill-rule="evenodd" fill-opacity="1" stroke="#000000" stroke-opacity="1" stroke-width="3.2"/>
<circle clip-path="url(#clip352)" cx="1579.16" cy="531.264" r="7.2" fill="#008000" fill-rule="evenodd" fill-opacity="1" stroke="#000000" stroke-opacity="1" stroke-width="3.2"/>
<circle clip-path="url(#clip352)" cx="1593.71" cy="568.506" r="7.2" fill="#008000" fill-rule="evenodd" fill-opacity="1" stroke="#000000" stroke-opacity="1" stroke-width="3.2"/>
<circle clip-path="url(#clip352)" cx="1608.26" cy="604.745" r="7.2" fill="#008000" fill-rule="evenodd" fill-opacity="1" stroke="#000000" stroke-opacity="1" stroke-width="3.2"/>
<circle clip-path="url(#clip352)" cx="1622.81" cy="639.551" r="7.2" fill="#008000" fill-rule="evenodd" fill-opacity="1" stroke="#000000" stroke-opacity="1" stroke-width="3.2"/>
<circle clip-path="url(#clip352)" cx="1637.36" cy="673.532" r="7.2" fill="#008000" fill-rule="evenodd" fill-opacity="1" stroke="#000000" stroke-opacity="1" stroke-width="3.2"/>
<circle clip-path="url(#clip352)" cx="1651.91" cy="712.659" r="7.2" fill="#008000" fill-rule="evenodd" fill-opacity="1" stroke="#000000" stroke-opacity="1" stroke-width="3.2"/>
<circle clip-path="url(#clip352)" cx="1666.45" cy="756.6" r="7.2" fill="#008000" fill-rule="evenodd" fill-opacity="1" stroke="#000000" stroke-opacity="1" stroke-width="3.2"/>
<circle clip-path="url(#clip352)" cx="1681" cy="801.929" r="7.2" fill="#008000" fill-rule="evenodd" fill-opacity="1" stroke="#000000" stroke-opacity="1" stroke-width="3.2"/>
<circle clip-path="url(#clip352)" cx="1695.55" cy="850.728" r="7.2" fill="#008000" fill-rule="evenodd" fill-opacity="1" stroke="#000000" stroke-opacity="1" stroke-width="3.2"/>
<circle clip-path="url(#clip352)" cx="1710.1" cy="897.263" r="7.2" fill="#008000" fill-rule="evenodd" fill-opacity="1" stroke="#000000" stroke-opacity="1" stroke-width="3.2"/>
<circle clip-path="url(#clip352)" cx="1724.65" cy="938.661" r="7.2" fill="#008000" fill-rule="evenodd" fill-opacity="1" stroke="#000000" stroke-opacity="1" stroke-width="3.2"/>
<circle clip-path="url(#clip352)" cx="1739.2" cy="973.87" r="7.2" fill="#008000" fill-rule="evenodd" fill-opacity="1" stroke="#000000" stroke-opacity="1" stroke-width="3.2"/>
<circle clip-path="url(#clip352)" cx="1753.75" cy="1006.78" r="7.2" fill="#008000" fill-rule="evenodd" fill-opacity="1" stroke="#000000" stroke-opacity="1" stroke-width="3.2"/>
<circle clip-path="url(#clip352)" cx="1768.3" cy="1038.65" r="7.2" fill="#008000" fill-rule="evenodd" fill-opacity="1" stroke="#000000" stroke-opacity="1" stroke-width="3.2"/>
<circle clip-path="url(#clip352)" cx="1782.85" cy="1072.27" r="7.2" fill="#008000" fill-rule="evenodd" fill-opacity="1" stroke="#000000" stroke-opacity="1" stroke-width="3.2"/>
<circle clip-path="url(#clip352)" cx="1797.4" cy="1111.25" r="7.2" fill="#008000" fill-rule="evenodd" fill-opacity="1" stroke="#000000" stroke-opacity="1" stroke-width="3.2"/>
<circle clip-path="url(#clip352)" cx="1811.95" cy="1152.47" r="7.2" fill="#008000" fill-rule="evenodd" fill-opacity="1" stroke="#000000" stroke-opacity="1" stroke-width="3.2"/>
<circle clip-path="url(#clip352)" cx="1826.5" cy="1190.97" r="7.2" fill="#008000" fill-rule="evenodd" fill-opacity="1" stroke="#000000" stroke-opacity="1" stroke-width="3.2"/>
<circle clip-path="url(#clip352)" cx="1841.05" cy="1225.11" r="7.2" fill="#008000" fill-rule="evenodd" fill-opacity="1" stroke="#000000" stroke-opacity="1" stroke-width="3.2"/>
<circle clip-path="url(#clip352)" cx="1855.6" cy="1247.3" r="7.2" fill="#008000" fill-rule="evenodd" fill-opacity="1" stroke="#000000" stroke-opacity="1" stroke-width="3.2"/>
<circle clip-path="url(#clip352)" cx="1870.15" cy="1254.95" r="7.2" fill="#008000" fill-rule="evenodd" fill-opacity="1" stroke="#000000" stroke-opacity="1" stroke-width="3.2"/>
<circle clip-path="url(#clip352)" cx="1884.7" cy="1251.94" r="7.2" fill="#008000" fill-rule="evenodd" fill-opacity="1" stroke="#000000" stroke-opacity="1" stroke-width="3.2"/>
<circle clip-path="url(#clip352)" cx="1899.25" cy="1243.03" r="7.2" fill="#008000" fill-rule="evenodd" fill-opacity="1" stroke="#000000" stroke-opacity="1" stroke-width="3.2"/>
<circle clip-path="url(#clip352)" cx="1913.8" cy="1233.46" r="7.2" fill="#008000" fill-rule="evenodd" fill-opacity="1" stroke="#000000" stroke-opacity="1" stroke-width="3.2"/>
<circle clip-path="url(#clip352)" cx="1928.35" cy="1228.49" r="7.2" fill="#008000" fill-rule="evenodd" fill-opacity="1" stroke="#000000" stroke-opacity="1" stroke-width="3.2"/>
<circle clip-path="url(#clip352)" cx="1942.9" cy="1229.95" r="7.2" fill="#008000" fill-rule="evenodd" fill-opacity="1" stroke="#000000" stroke-opacity="1" stroke-width="3.2"/>
<circle clip-path="url(#clip352)" cx="1957.45" cy="1233.4" r="7.2" fill="#008000" fill-rule="evenodd" fill-opacity="1" stroke="#000000" stroke-opacity="1" stroke-width="3.2"/>
<circle clip-path="url(#clip352)" cx="1971.99" cy="1233.63" r="7.2" fill="#008000" fill-rule="evenodd" fill-opacity="1" stroke="#000000" stroke-opacity="1" stroke-width="3.2"/>
<circle clip-path="url(#clip352)" cx="1986.54" cy="1228.57" r="7.2" fill="#008000" fill-rule="evenodd" fill-opacity="1" stroke="#000000" stroke-opacity="1" stroke-width="3.2"/>
<circle clip-path="url(#clip352)" cx="2001.09" cy="1214.47" r="7.2" fill="#008000" fill-rule="evenodd" fill-opacity="1" stroke="#000000" stroke-opacity="1" stroke-width="3.2"/>
<circle clip-path="url(#clip352)" cx="2015.64" cy="1190.56" r="7.2" fill="#008000" fill-rule="evenodd" fill-opacity="1" stroke="#000000" stroke-opacity="1" stroke-width="3.2"/>
<circle clip-path="url(#clip352)" cx="2030.19" cy="1163.3" r="7.2" fill="#008000" fill-rule="evenodd" fill-opacity="1" stroke="#000000" stroke-opacity="1" stroke-width="3.2"/>
<circle clip-path="url(#clip352)" cx="2044.74" cy="1133.98" r="7.2" fill="#008000" fill-rule="evenodd" fill-opacity="1" stroke="#000000" stroke-opacity="1" stroke-width="3.2"/>
<circle clip-path="url(#clip352)" cx="2059.29" cy="1106.8" r="7.2" fill="#008000" fill-rule="evenodd" fill-opacity="1" stroke="#000000" stroke-opacity="1" stroke-width="3.2"/>
<circle clip-path="url(#clip352)" cx="2073.84" cy="1085.8" r="7.2" fill="#008000" fill-rule="evenodd" fill-opacity="1" stroke="#000000" stroke-opacity="1" stroke-width="3.2"/>
<circle clip-path="url(#clip352)" cx="2088.39" cy="1069.57" r="7.2" fill="#008000" fill-rule="evenodd" fill-opacity="1" stroke="#000000" stroke-opacity="1" stroke-width="3.2"/>
<circle clip-path="url(#clip352)" cx="2102.94" cy="1056.05" r="7.2" fill="#008000" fill-rule="evenodd" fill-opacity="1" stroke="#000000" stroke-opacity="1" stroke-width="3.2"/>
<circle clip-path="url(#clip352)" cx="2117.49" cy="1043.7" r="7.2" fill="#008000" fill-rule="evenodd" fill-opacity="1" stroke="#000000" stroke-opacity="1" stroke-width="3.2"/>
<circle clip-path="url(#clip352)" cx="2132.04" cy="1029.77" r="7.2" fill="#008000" fill-rule="evenodd" fill-opacity="1" stroke="#000000" stroke-opacity="1" stroke-width="3.2"/>
<circle clip-path="url(#clip352)" cx="2146.59" cy="1012.48" r="7.2" fill="#008000" fill-rule="evenodd" fill-opacity="1" stroke="#000000" stroke-opacity="1" stroke-width="3.2"/>
<circle clip-path="url(#clip352)" cx="2161.14" cy="992.748" r="7.2" fill="#008000" fill-rule="evenodd" fill-opacity="1" stroke="#000000" stroke-opacity="1" stroke-width="3.2"/>
<circle clip-path="url(#clip352)" cx="2175.69" cy="974.191" r="7.2" fill="#008000" fill-rule="evenodd" fill-opacity="1" stroke="#000000" stroke-opacity="1" stroke-width="3.2"/>
<circle clip-path="url(#clip352)" cx="2190.24" cy="954.625" r="7.2" fill="#008000" fill-rule="evenodd" fill-opacity="1" stroke="#000000" stroke-opacity="1" stroke-width="3.2"/>
<circle clip-path="url(#clip352)" cx="2204.79" cy="936.041" r="7.2" fill="#008000" fill-rule="evenodd" fill-opacity="1" stroke="#000000" stroke-opacity="1" stroke-width="3.2"/>
<circle clip-path="url(#clip352)" cx="2219.34" cy="918.71" r="7.2" fill="#008000" fill-rule="evenodd" fill-opacity="1" stroke="#000000" stroke-opacity="1" stroke-width="3.2"/>
<circle clip-path="url(#clip352)" cx="2233.89" cy="899.867" r="7.2" fill="#008000" fill-rule="evenodd" fill-opacity="1" stroke="#000000" stroke-opacity="1" stroke-width="3.2"/>
<circle clip-path="url(#clip352)" cx="2248.44" cy="878.919" r="7.2" fill="#008000" fill-rule="evenodd" fill-opacity="1" stroke="#000000" stroke-opacity="1" stroke-width="3.2"/>
<circle clip-path="url(#clip352)" cx="2262.99" cy="855.434" r="7.2" fill="#008000" fill-rule="evenodd" fill-opacity="1" stroke="#000000" stroke-opacity="1" stroke-width="3.2"/>
<circle clip-path="url(#clip352)" cx="2277.53" cy="829.861" r="7.2" fill="#008000" fill-rule="evenodd" fill-opacity="1" stroke="#000000" stroke-opacity="1" stroke-width="3.2"/>
<circle clip-path="url(#clip352)" cx="2292.08" cy="804.018" r="7.2" fill="#008000" fill-rule="evenodd" fill-opacity="1" stroke="#000000" stroke-opacity="1" stroke-width="3.2"/>
</svg>
