<?xml version="1.0" encoding="utf-8"?>
<svg xmlns="http://www.w3.org/2000/svg" xmlns:xlink="http://www.w3.org/1999/xlink" width="600" height="400" viewBox="0 0 2400 1600">
<defs>
  <clipPath id="clip260">
    <rect x="0" y="0" width="2400" height="1600"/>
  </clipPath>
</defs>
<path clip-path="url(#clip260)" d="M0 1600 L2400 1600 L2400 8.88178e-14 L0 8.88178e-14  Z" fill="#ffffff" fill-rule="evenodd" fill-opacity="1"/>
<defs>
  <clipPath id="clip261">
    <rect x="480" y="0" width="1681" height="1600"/>
  </clipPath>
</defs>
<path clip-path="url(#clip260)" d="M209.029 1486.45 L2352.76 1486.45 L2352.76 47.2441 L209.029 47.2441  Z" fill="#ffffff" fill-rule="evenodd" fill-opacity="1"/>
<defs>
  <clipPath id="clip262">
    <rect x="209" y="47" width="2145" height="1440"/>
  </clipPath>
</defs>
<polyline clip-path="url(#clip260)" style="stroke:#000000; stroke-linecap:round; stroke-linejoin:round; stroke-width:4; stroke-opacity:1; fill:none" points="209.029,1486.45 2352.76,1486.45 "/>
<polyline clip-path="url(#clip260)" style="stroke:#000000; stroke-linecap:round; stroke-linejoin:round; stroke-width:4; stroke-opacity:1; fill:none" points="255.151,1486.45 255.151,1467.55 "/>
<polyline clip-path="url(#clip260)" style="stroke:#000000; stroke-linecap:round; stroke-linejoin:round; stroke-width:4; stroke-opacity:1; fill:none" points="618.889,1486.45 618.889,1467.55 "/>
<polyline clip-path="url(#clip260)" style="stroke:#000000; stroke-linecap:round; stroke-linejoin:round; stroke-width:4; stroke-opacity:1; fill:none" points="982.627,1486.45 982.627,1467.55 "/>
<polyline clip-path="url(#clip260)" style="stroke:#000000; stroke-linecap:round; stroke-linejoin:round; stroke-width:4; stroke-opacity:1; fill:none" points="1346.37,1486.45 1346.37,1467.55 "/>
<polyline clip-path="url(#clip260)" style="stroke:#000000; stroke-linecap:round; stroke-linejoin:round; stroke-width:4; stroke-opacity:1; fill:none" points="1710.1,1486.45 1710.1,1467.55 "/>
<polyline clip-path="url(#clip260)" style="stroke:#000000; stroke-linecap:round; stroke-linejoin:round; stroke-width:4; stroke-opacity:1; fill:none" points="2073.84,1486.45 2073.84,1467.55 "/>
<path clip-path="url(#clip260)" d="M255.151 1517.37 Q251.539 1517.37 249.711 1520.93 Q247.905 1524.47 247.905 1531.6 Q247.905 1538.71 249.711 1542.27 Q251.539 1545.82 255.151 1545.82 Q258.785 1545.82 260.59 1542.27 Q262.419 1538.71 262.419 1531.6 Q262.419 1524.47 260.59 1520.93 Q258.785 1517.37 255.151 1517.37 M255.151 1513.66 Q260.961 1513.66 264.016 1518.27 Q267.095 1522.85 267.095 1531.6 Q267.095 1540.33 264.016 1544.94 Q260.961 1549.52 255.151 1549.52 Q249.34 1549.52 246.262 1544.94 Q243.206 1540.33 243.206 1531.6 Q243.206 1522.85 246.262 1518.27 Q249.34 1513.66 255.151 1513.66 Z" fill="#000000" fill-rule="nonzero" fill-opacity="1" /><path clip-path="url(#clip260)" d="M598.16 1544.91 L614.479 1544.91 L614.479 1548.85 L592.535 1548.85 L592.535 1544.91 Q595.197 1542.16 599.78 1537.53 Q604.386 1532.88 605.567 1531.53 Q607.812 1529.01 608.692 1527.27 Q609.595 1525.51 609.595 1523.82 Q609.595 1521.07 607.65 1519.33 Q605.729 1517.6 602.627 1517.6 Q600.428 1517.6 597.974 1518.36 Q595.544 1519.13 592.766 1520.68 L592.766 1515.95 Q595.59 1514.82 598.044 1514.24 Q600.498 1513.66 602.535 1513.66 Q607.905 1513.66 611.099 1516.35 Q614.294 1519.03 614.294 1523.52 Q614.294 1525.65 613.484 1527.57 Q612.697 1529.47 610.59 1532.07 Q610.011 1532.74 606.91 1535.95 Q603.808 1539.15 598.16 1544.91 Z" fill="#000000" fill-rule="nonzero" fill-opacity="1" /><path clip-path="url(#clip260)" d="M624.34 1514.29 L642.696 1514.29 L642.696 1518.22 L628.622 1518.22 L628.622 1526.7 Q629.641 1526.35 630.659 1526.19 Q631.678 1526 632.696 1526 Q638.484 1526 641.863 1529.17 Q645.243 1532.34 645.243 1537.76 Q645.243 1543.34 641.771 1546.44 Q638.298 1549.52 631.979 1549.52 Q629.803 1549.52 627.534 1549.15 Q625.289 1548.78 622.882 1548.04 L622.882 1543.34 Q624.965 1544.47 627.187 1545.03 Q629.409 1545.58 631.886 1545.58 Q635.891 1545.58 638.229 1543.48 Q640.567 1541.37 640.567 1537.76 Q640.567 1534.15 638.229 1532.04 Q635.891 1529.94 631.886 1529.94 Q630.011 1529.94 628.136 1530.35 Q626.284 1530.77 624.34 1531.65 L624.34 1514.29 Z" fill="#000000" fill-rule="nonzero" fill-opacity="1" /><path clip-path="url(#clip260)" d="M957.326 1514.29 L975.682 1514.29 L975.682 1518.22 L961.608 1518.22 L961.608 1526.7 Q962.627 1526.35 963.646 1526.19 Q964.664 1526 965.683 1526 Q971.47 1526 974.849 1529.17 Q978.229 1532.34 978.229 1537.76 Q978.229 1543.34 974.757 1546.44 Q971.284 1549.52 964.965 1549.52 Q962.789 1549.52 960.521 1549.15 Q958.275 1548.78 955.868 1548.04 L955.868 1543.34 Q957.951 1544.47 960.173 1545.03 Q962.396 1545.58 964.872 1545.58 Q968.877 1545.58 971.215 1543.48 Q973.553 1541.37 973.553 1537.76 Q973.553 1534.15 971.215 1532.04 Q968.877 1529.94 964.872 1529.94 Q962.997 1529.94 961.122 1530.35 Q959.271 1530.77 957.326 1531.65 L957.326 1514.29 Z" fill="#000000" fill-rule="nonzero" fill-opacity="1" /><path clip-path="url(#clip260)" d="M997.442 1517.37 Q993.831 1517.37 992.002 1520.93 Q990.196 1524.47 990.196 1531.6 Q990.196 1538.71 992.002 1542.27 Q993.831 1545.82 997.442 1545.82 Q1001.08 1545.82 1002.88 1542.27 Q1004.71 1538.71 1004.71 1531.6 Q1004.71 1524.47 1002.88 1520.93 Q1001.08 1517.37 997.442 1517.37 M997.442 1513.66 Q1003.25 1513.66 1006.31 1518.27 Q1009.39 1522.85 1009.39 1531.6 Q1009.39 1540.33 1006.31 1544.94 Q1003.25 1549.52 997.442 1549.52 Q991.631 1549.52 988.553 1544.94 Q985.497 1540.33 985.497 1531.6 Q985.497 1522.85 988.553 1518.27 Q991.631 1513.66 997.442 1513.66 Z" fill="#000000" fill-rule="nonzero" fill-opacity="1" /><path clip-path="url(#clip260)" d="M1320.22 1514.29 L1342.44 1514.29 L1342.44 1516.28 L1329.9 1548.85 L1325.01 1548.85 L1336.82 1518.22 L1320.22 1518.22 L1320.22 1514.29 Z" fill="#000000" fill-rule="nonzero" fill-opacity="1" /><path clip-path="url(#clip260)" d="M1351.61 1514.29 L1369.96 1514.29 L1369.96 1518.22 L1355.89 1518.22 L1355.89 1526.7 Q1356.91 1526.35 1357.93 1526.19 Q1358.95 1526 1359.96 1526 Q1365.75 1526 1369.13 1529.17 Q1372.51 1532.34 1372.51 1537.76 Q1372.51 1543.34 1369.04 1546.44 Q1365.57 1549.52 1359.25 1549.52 Q1357.07 1549.52 1354.8 1549.15 Q1352.56 1548.78 1350.15 1548.04 L1350.15 1543.34 Q1352.23 1544.47 1354.46 1545.03 Q1356.68 1545.58 1359.15 1545.58 Q1363.16 1545.58 1365.5 1543.48 Q1367.83 1541.37 1367.83 1537.76 Q1367.83 1534.15 1365.5 1532.04 Q1363.16 1529.94 1359.15 1529.94 Q1357.28 1529.94 1355.4 1530.35 Q1353.55 1530.77 1351.61 1531.65 L1351.61 1514.29 Z" fill="#000000" fill-rule="nonzero" fill-opacity="1" /><path clip-path="url(#clip260)" d="M1669.71 1544.91 L1677.35 1544.91 L1677.35 1518.55 L1669.04 1520.21 L1669.04 1515.95 L1677.3 1514.29 L1681.98 1514.29 L1681.98 1544.91 L1689.62 1544.91 L1689.62 1548.85 L1669.71 1548.85 L1669.71 1544.91 Z" fill="#000000" fill-rule="nonzero" fill-opacity="1" /><path clip-path="url(#clip260)" d="M1709.06 1517.37 Q1705.45 1517.37 1703.62 1520.93 Q1701.82 1524.47 1701.82 1531.6 Q1701.82 1538.71 1703.62 1542.27 Q1705.45 1545.82 1709.06 1545.82 Q1712.7 1545.82 1714.5 1542.27 Q1716.33 1538.71 1716.33 1531.6 Q1716.33 1524.47 1714.5 1520.93 Q1712.7 1517.37 1709.06 1517.37 M1709.06 1513.66 Q1714.87 1513.66 1717.93 1518.27 Q1721.01 1522.85 1721.01 1531.6 Q1721.01 1540.33 1717.93 1544.94 Q1714.87 1549.52 1709.06 1549.52 Q1703.25 1549.52 1700.17 1544.94 Q1697.12 1540.33 1697.12 1531.6 Q1697.12 1522.85 1700.17 1518.27 Q1703.25 1513.66 1709.06 1513.66 Z" fill="#000000" fill-rule="nonzero" fill-opacity="1" /><path clip-path="url(#clip260)" d="M1739.22 1517.37 Q1735.61 1517.37 1733.78 1520.93 Q1731.98 1524.47 1731.98 1531.6 Q1731.98 1538.71 1733.78 1542.27 Q1735.61 1545.82 1739.22 1545.82 Q1742.86 1545.82 1744.66 1542.27 Q1746.49 1538.71 1746.49 1531.6 Q1746.49 1524.47 1744.66 1520.93 Q1742.86 1517.37 1739.22 1517.37 M1739.22 1513.66 Q1745.03 1513.66 1748.09 1518.27 Q1751.17 1522.85 1751.17 1531.6 Q1751.17 1540.33 1748.09 1544.94 Q1745.03 1549.52 1739.22 1549.52 Q1733.41 1549.52 1730.33 1544.94 Q1727.28 1540.33 1727.28 1531.6 Q1727.28 1522.85 1730.33 1518.27 Q1733.41 1513.66 1739.22 1513.66 Z" fill="#000000" fill-rule="nonzero" fill-opacity="1" /><path clip-path="url(#clip260)" d="M2033.95 1544.91 L2041.58 1544.91 L2041.58 1518.55 L2033.27 1520.21 L2033.27 1515.95 L2041.54 1514.29 L2046.21 1514.29 L2046.21 1544.91 L2053.85 1544.91 L2053.85 1548.85 L2033.95 1548.85 L2033.95 1544.91 Z" fill="#000000" fill-rule="nonzero" fill-opacity="1" /><path clip-path="url(#clip260)" d="M2067.33 1544.91 L2083.64 1544.91 L2083.64 1548.85 L2061.7 1548.85 L2061.7 1544.91 Q2064.36 1542.16 2068.95 1537.53 Q2073.55 1532.88 2074.73 1531.53 Q2076.98 1529.01 2077.86 1527.27 Q2078.76 1525.51 2078.76 1523.82 Q2078.76 1521.07 2076.82 1519.33 Q2074.89 1517.6 2071.79 1517.6 Q2069.59 1517.6 2067.14 1518.36 Q2064.71 1519.13 2061.93 1520.68 L2061.93 1515.95 Q2064.76 1514.82 2067.21 1514.24 Q2069.66 1513.66 2071.7 1513.66 Q2077.07 1513.66 2080.27 1516.35 Q2083.46 1519.03 2083.46 1523.52 Q2083.46 1525.65 2082.65 1527.57 Q2081.86 1529.47 2079.76 1532.07 Q2079.18 1532.74 2076.08 1535.95 Q2072.97 1539.15 2067.33 1544.91 Z" fill="#000000" fill-rule="nonzero" fill-opacity="1" /><path clip-path="url(#clip260)" d="M2093.51 1514.29 L2111.86 1514.29 L2111.86 1518.22 L2097.79 1518.22 L2097.79 1526.7 Q2098.81 1526.35 2099.83 1526.19 Q2100.84 1526 2101.86 1526 Q2107.65 1526 2111.03 1529.17 Q2114.41 1532.34 2114.41 1537.76 Q2114.41 1543.34 2110.94 1546.44 Q2107.46 1549.52 2101.14 1549.52 Q2098.97 1549.52 2096.7 1549.15 Q2094.45 1548.78 2092.05 1548.04 L2092.05 1543.34 Q2094.13 1544.47 2096.35 1545.03 Q2098.58 1545.58 2101.05 1545.58 Q2105.06 1545.58 2107.39 1543.48 Q2109.73 1541.37 2109.73 1537.76 Q2109.73 1534.15 2107.39 1532.04 Q2105.06 1529.94 2101.05 1529.94 Q2099.18 1529.94 2097.3 1530.35 Q2095.45 1530.77 2093.51 1531.65 L2093.51 1514.29 Z" fill="#000000" fill-rule="nonzero" fill-opacity="1" /><polyline clip-path="url(#clip260)" style="stroke:#000000; stroke-linecap:round; stroke-linejoin:round; stroke-width:4; stroke-opacity:1; fill:none" points="209.029,1486.45 209.029,47.2441 "/>
<polyline clip-path="url(#clip260)" style="stroke:#000000; stroke-linecap:round; stroke-linejoin:round; stroke-width:4; stroke-opacity:1; fill:none" points="209.029,1359.54 227.926,1359.54 "/>
<polyline clip-path="url(#clip260)" style="stroke:#000000; stroke-linecap:round; stroke-linejoin:round; stroke-width:4; stroke-opacity:1; fill:none" points="209.029,1091.55 227.926,1091.55 "/>
<polyline clip-path="url(#clip260)" style="stroke:#000000; stroke-linecap:round; stroke-linejoin:round; stroke-width:4; stroke-opacity:1; fill:none" points="209.029,823.565 227.926,823.565 "/>
<polyline clip-path="url(#clip260)" style="stroke:#000000; stroke-linecap:round; stroke-linejoin:round; stroke-width:4; stroke-opacity:1; fill:none" points="209.029,555.577 227.926,555.577 "/>
<polyline clip-path="url(#clip260)" style="stroke:#000000; stroke-linecap:round; stroke-linejoin:round; stroke-width:4; stroke-opacity:1; fill:none" points="209.029,287.59 227.926,287.59 "/>
<path clip-path="url(#clip260)" d="M50.9921 1359.99 L80.6679 1359.99 L80.6679 1363.93 L50.9921 1363.93 L50.9921 1359.99 Z" fill="#000000" fill-rule="nonzero" fill-opacity="1" /><path clip-path="url(#clip260)" d="M94.7882 1372.88 L111.108 1372.88 L111.108 1376.82 L89.1632 1376.82 L89.1632 1372.88 Q91.8252 1370.13 96.4085 1365.5 Q101.015 1360.85 102.196 1359.5 Q104.441 1356.98 105.321 1355.25 Q106.223 1353.49 106.223 1351.8 Q106.223 1349.04 104.279 1347.31 Q102.358 1345.57 99.2558 1345.57 Q97.0567 1345.57 94.603 1346.33 Q92.1725 1347.1 89.3947 1348.65 L89.3947 1343.93 Q92.2188 1342.79 94.6724 1342.21 Q97.1261 1341.63 99.1632 1341.63 Q104.534 1341.63 107.728 1344.32 Q110.922 1347 110.922 1351.5 Q110.922 1353.62 110.112 1355.55 Q109.325 1357.44 107.219 1360.04 Q106.64 1360.71 103.538 1363.93 Q100.436 1367.12 94.7882 1372.88 Z" fill="#000000" fill-rule="nonzero" fill-opacity="1" /><path clip-path="url(#clip260)" d="M130.922 1345.34 Q127.311 1345.34 125.482 1348.9 Q123.677 1352.44 123.677 1359.57 Q123.677 1366.68 125.482 1370.25 Q127.311 1373.79 130.922 1373.79 Q134.556 1373.79 136.362 1370.25 Q138.191 1366.68 138.191 1359.57 Q138.191 1352.44 136.362 1348.9 Q134.556 1345.34 130.922 1345.34 M130.922 1341.63 Q136.732 1341.63 139.788 1346.24 Q142.867 1350.82 142.867 1359.57 Q142.867 1368.3 139.788 1372.91 Q136.732 1377.49 130.922 1377.49 Q125.112 1377.49 122.033 1372.91 Q118.978 1368.3 118.978 1359.57 Q118.978 1350.82 122.033 1346.24 Q125.112 1341.63 130.922 1341.63 Z" fill="#000000" fill-rule="nonzero" fill-opacity="1" /><path clip-path="url(#clip260)" d="M161.084 1345.34 Q157.473 1345.34 155.644 1348.9 Q153.839 1352.44 153.839 1359.57 Q153.839 1366.68 155.644 1370.25 Q157.473 1373.79 161.084 1373.79 Q164.718 1373.79 166.524 1370.25 Q168.353 1366.68 168.353 1359.57 Q168.353 1352.44 166.524 1348.9 Q164.718 1345.34 161.084 1345.34 M161.084 1341.63 Q166.894 1341.63 169.95 1346.24 Q173.029 1350.82 173.029 1359.57 Q173.029 1368.3 169.95 1372.91 Q166.894 1377.49 161.084 1377.49 Q155.274 1377.49 152.195 1372.91 Q149.14 1368.3 149.14 1359.57 Q149.14 1350.82 152.195 1346.24 Q155.274 1341.63 161.084 1341.63 Z" fill="#000000" fill-rule="nonzero" fill-opacity="1" /><path clip-path="url(#clip260)" d="M161.084 1077.35 Q157.473 1077.35 155.644 1080.92 Q153.839 1084.46 153.839 1091.59 Q153.839 1098.69 155.644 1102.26 Q157.473 1105.8 161.084 1105.8 Q164.718 1105.8 166.524 1102.26 Q168.353 1098.69 168.353 1091.59 Q168.353 1084.46 166.524 1080.92 Q164.718 1077.35 161.084 1077.35 M161.084 1073.65 Q166.894 1073.65 169.95 1078.25 Q173.029 1082.84 173.029 1091.59 Q173.029 1100.31 169.95 1104.92 Q166.894 1109.5 161.084 1109.5 Q155.274 1109.5 152.195 1104.92 Q149.14 1100.31 149.14 1091.59 Q149.14 1082.84 152.195 1078.25 Q155.274 1073.65 161.084 1073.65 Z" fill="#000000" fill-rule="nonzero" fill-opacity="1" /><path clip-path="url(#clip260)" d="M94.7882 836.909 L111.108 836.909 L111.108 840.845 L89.1632 840.845 L89.1632 836.909 Q91.8252 834.155 96.4085 829.525 Q101.015 824.873 102.196 823.53 Q104.441 821.007 105.321 819.271 Q106.223 817.511 106.223 815.822 Q106.223 813.067 104.279 811.331 Q102.358 809.595 99.2558 809.595 Q97.0567 809.595 94.603 810.359 Q92.1725 811.123 89.3947 812.674 L89.3947 807.951 Q92.2188 806.817 94.6724 806.238 Q97.1261 805.66 99.1632 805.66 Q104.534 805.66 107.728 808.345 Q110.922 811.03 110.922 815.521 Q110.922 817.65 110.112 819.572 Q109.325 821.47 107.219 824.062 Q106.64 824.734 103.538 827.951 Q100.436 831.146 94.7882 836.909 Z" fill="#000000" fill-rule="nonzero" fill-opacity="1" /><path clip-path="url(#clip260)" d="M130.922 809.363 Q127.311 809.363 125.482 812.928 Q123.677 816.47 123.677 823.599 Q123.677 830.706 125.482 834.271 Q127.311 837.812 130.922 837.812 Q134.556 837.812 136.362 834.271 Q138.191 830.706 138.191 823.599 Q138.191 816.47 136.362 812.928 Q134.556 809.363 130.922 809.363 M130.922 805.66 Q136.732 805.66 139.788 810.266 Q142.867 814.849 142.867 823.599 Q142.867 832.326 139.788 836.933 Q136.732 841.516 130.922 841.516 Q125.112 841.516 122.033 836.933 Q118.978 832.326 118.978 823.599 Q118.978 814.849 122.033 810.266 Q125.112 805.66 130.922 805.66 Z" fill="#000000" fill-rule="nonzero" fill-opacity="1" /><path clip-path="url(#clip260)" d="M161.084 809.363 Q157.473 809.363 155.644 812.928 Q153.839 816.47 153.839 823.599 Q153.839 830.706 155.644 834.271 Q157.473 837.812 161.084 837.812 Q164.718 837.812 166.524 834.271 Q168.353 830.706 168.353 823.599 Q168.353 816.47 166.524 812.928 Q164.718 809.363 161.084 809.363 M161.084 805.66 Q166.894 805.66 169.95 810.266 Q173.029 814.849 173.029 823.599 Q173.029 832.326 169.95 836.933 Q166.894 841.516 161.084 841.516 Q155.274 841.516 152.195 836.933 Q149.14 832.326 149.14 823.599 Q149.14 814.849 152.195 810.266 Q155.274 805.66 161.084 805.66 Z" fill="#000000" fill-rule="nonzero" fill-opacity="1" /><path clip-path="url(#clip260)" d="M103.608 542.371 L91.8021 560.82 L103.608 560.82 L103.608 542.371 M102.381 538.297 L108.26 538.297 L108.26 560.82 L113.191 560.82 L113.191 564.709 L108.26 564.709 L108.26 572.857 L103.608 572.857 L103.608 564.709 L88.0058 564.709 L88.0058 560.195 L102.381 538.297 Z" fill="#000000" fill-rule="nonzero" fill-opacity="1" /><path clip-path="url(#clip260)" d="M130.922 541.376 Q127.311 541.376 125.482 544.941 Q123.677 548.483 123.677 555.612 Q123.677 562.719 125.482 566.283 Q127.311 569.825 130.922 569.825 Q134.556 569.825 136.362 566.283 Q138.191 562.719 138.191 555.612 Q138.191 548.483 136.362 544.941 Q134.556 541.376 130.922 541.376 M130.922 537.672 Q136.732 537.672 139.788 542.279 Q142.867 546.862 142.867 555.612 Q142.867 564.339 139.788 568.945 Q136.732 573.529 130.922 573.529 Q125.112 573.529 122.033 568.945 Q118.978 564.339 118.978 555.612 Q118.978 546.862 122.033 542.279 Q125.112 537.672 130.922 537.672 Z" fill="#000000" fill-rule="nonzero" fill-opacity="1" /><path clip-path="url(#clip260)" d="M161.084 541.376 Q157.473 541.376 155.644 544.941 Q153.839 548.483 153.839 555.612 Q153.839 562.719 155.644 566.283 Q157.473 569.825 161.084 569.825 Q164.718 569.825 166.524 566.283 Q168.353 562.719 168.353 555.612 Q168.353 548.483 166.524 544.941 Q164.718 541.376 161.084 541.376 M161.084 537.672 Q166.894 537.672 169.95 542.279 Q173.029 546.862 173.029 555.612 Q173.029 564.339 169.95 568.945 Q166.894 573.529 161.084 573.529 Q155.274 573.529 152.195 568.945 Q149.14 564.339 149.14 555.612 Q149.14 546.862 152.195 542.279 Q155.274 537.672 161.084 537.672 Z" fill="#000000" fill-rule="nonzero" fill-opacity="1" /><path clip-path="url(#clip260)" d="M101.339 285.727 Q98.1909 285.727 96.3391 287.879 Q94.5104 290.032 94.5104 293.782 Q94.5104 297.509 96.3391 299.685 Q98.1909 301.838 101.339 301.838 Q104.487 301.838 106.316 299.685 Q108.168 297.509 108.168 293.782 Q108.168 290.032 106.316 287.879 Q104.487 285.727 101.339 285.727 M110.621 271.074 L110.621 275.333 Q108.862 274.5 107.057 274.06 Q105.274 273.62 103.515 273.62 Q98.8854 273.62 96.4317 276.745 Q94.0012 279.87 93.6539 286.19 Q95.0197 284.176 97.0798 283.111 Q99.14 282.023 101.617 282.023 Q106.825 282.023 109.834 285.194 Q112.867 288.342 112.867 293.782 Q112.867 299.106 109.719 302.324 Q106.571 305.541 101.339 305.541 Q95.3437 305.541 92.1725 300.958 Q89.0012 296.352 89.0012 287.625 Q89.0012 279.43 92.89 274.569 Q96.7789 269.685 103.33 269.685 Q105.089 269.685 106.871 270.032 Q108.677 270.38 110.621 271.074 Z" fill="#000000" fill-rule="nonzero" fill-opacity="1" /><path clip-path="url(#clip260)" d="M130.922 273.389 Q127.311 273.389 125.482 276.954 Q123.677 280.495 123.677 287.625 Q123.677 294.731 125.482 298.296 Q127.311 301.838 130.922 301.838 Q134.556 301.838 136.362 298.296 Q138.191 294.731 138.191 287.625 Q138.191 280.495 136.362 276.954 Q134.556 273.389 130.922 273.389 M130.922 269.685 Q136.732 269.685 139.788 274.292 Q142.867 278.875 142.867 287.625 Q142.867 296.352 139.788 300.958 Q136.732 305.541 130.922 305.541 Q125.112 305.541 122.033 300.958 Q118.978 296.352 118.978 287.625 Q118.978 278.875 122.033 274.292 Q125.112 269.685 130.922 269.685 Z" fill="#000000" fill-rule="nonzero" fill-opacity="1" /><path clip-path="url(#clip260)" d="M161.084 273.389 Q157.473 273.389 155.644 276.954 Q153.839 280.495 153.839 287.625 Q153.839 294.731 155.644 298.296 Q157.473 301.838 161.084 301.838 Q164.718 301.838 166.524 298.296 Q168.353 294.731 168.353 287.625 Q168.353 280.495 166.524 276.954 Q164.718 273.389 161.084 273.389 M161.084 269.685 Q166.894 269.685 169.95 274.292 Q173.029 278.875 173.029 287.625 Q173.029 296.352 169.95 300.958 Q166.894 305.541 161.084 305.541 Q155.274 305.541 152.195 300.958 Q149.14 296.352 149.14 287.625 Q149.14 278.875 152.195 274.292 Q155.274 269.685 161.084 269.685 Z" fill="#000000" fill-rule="nonzero" fill-opacity="1" /><path clip-path="url(#clip262)" d="M269.7 1091.96 L284.25 1091.95 L298.799 1091.93 L313.349 1091.9 L327.898 1091.87 L342.448 1091.85 L356.997 1091.81 L371.547 1091.75 L386.096 1091.74 L400.646 1091.8 L415.195 1091.86 L429.745 1091.93 L444.294 1092.02 L458.844 1092.1 L473.393 1092.26 L487.943 1092.58 L502.492 1093.07 L517.042 1093.16 L531.592 1093.5 L546.141 1093.89 L560.691 1094.29 L575.24 1094.68 L589.79 1095.35 L604.339 1095.61 L618.889 1096.1 L633.438 1096.89 L647.988 1097.83 L662.537 1098.91 L677.087 1100.15 L691.636 1101.52 L706.186 1103.48 L720.735 1104.96 L735.285 1106.63 L749.834 1109.3 L764.384 1111.2 L778.934 1115.01 L793.483 1116.77 L808.033 1120.94 L822.582 1123.18 L837.132 1127.25 L851.681 1131.91 L866.231 1139.68 L880.78 1145.34 L895.33 1148.69 L909.879 1148.96 L924.429 1146.82 L938.978 1147.53 L953.528 1144.1 L968.077 1140.35 L982.627 1135.76 L997.176 1126.44 L1011.73 1129.47 L1026.28 1118.42 L1040.83 1111.84 L1055.37 1099.97 L1069.92 1090.54 L1084.47 1076.39 L1099.02 1061.43 L1113.57 1052.96 L1128.12 1039.46 L1142.67 1021.15 L1157.22 1004.05 L1171.77 988.997 L1186.32 978.988 L1200.87 959.417 L1215.42 943.505 L1229.97 920.573 L1244.52 880.6 L1259.07 863.304 L1273.62 832.503 L1288.17 801.043 L1302.72 766.68 L1317.27 740.01 L1331.82 729.608 L1346.37 712.478 L1360.91 700.981 L1375.46 698.031 L1390.01 697.646 L1404.56 703.008 L1419.11 707.981 L1433.66 709.184 L1448.21 715.294 L1462.76 719.733 L1477.31 728.718 L1491.86 727.471 L1506.41 740.301 L1520.96 749.252 L1535.51 757.121 L1550.06 769.427 L1564.61 781.788 L1579.16 793.105 L1593.71 808.468 L1608.26 820.476 L1622.81 834.839 L1637.36 846.278 L1651.91 862.428 L1666.45 880.351 L1681 893.322 L1695.55 909.341 L1710.1 922.327 L1724.65 930.221 L1739.2 942.898 L1753.75 950.442 L1768.3 956.554 L1782.85 968.158 L1797.4 978.156 L1811.95 990.377 L1826.5 998.281 L1841.05 1001.49 L1855.6 1010.28 L1870.15 1013.49 L1884.7 1020.16 L1899.25 1028.69 L1913.8 1036.69 L1928.35 1041.95 L1942.9 1048.47 L1957.45 1054.33 L1971.99 1061.21 L1986.54 1066.75 L2001.09 1069.68 L2015.64 1077.88 L2030.19 1080.95 L2044.74 1085.99 L2059.29 1090.85 L2073.84 1096.93 L2088.39 1102.63 L2102.94 1105.85 L2117.49 1109.01 L2132.04 1114.04 L2146.59 1116.62 L2161.14 1119.93 L2175.69 1122.17 L2190.24 1125.3 L2204.79 1127.42 L2219.34 1132.12 L2233.89 1135.63 L2248.44 1138.96 L2262.99 1142.84 L2277.53 1145.39 L2292.08 1148.04 L2292.08 1069.58 L2277.53 1065.05 L2262.99 1059.34 L2248.44 1053.68 L2233.89 1047.54 L2219.34 1038.65 L2204.79 1033.47 L2190.24 1024.67 L2175.69 1016.03 L2161.14 1007.88 L2146.59 998.661 L2132.04 989.629 L2117.49 979.367 L2102.94 966.4 L2088.39 950.293 L2073.84 941.57 L2059.29 933.021 L2044.74 922 L2030.19 912.56 L2015.64 896.31 L2001.09 885.397 L1986.54 865.698 L1971.99 854.58 L1957.45 842.315 L1942.9 825.419 L1928.35 809.765 L1913.8 792.985 L1899.25 778.855 L1884.7 764.476 L1870.15 741.206 L1855.6 714.129 L1841.05 696.604 L1826.5 671.378 L1811.95 649.898 L1797.4 637.836 L1782.85 626.992 L1768.3 602.353 L1753.75 582.224 L1739.2 547.804 L1724.65 534.69 L1710.1 517.708 L1695.55 501.243 L1681 489.724 L1666.45 479.786 L1651.91 467.577 L1637.36 467.02 L1622.81 458.532 L1608.26 445.527 L1593.71 436.149 L1579.16 427.808 L1564.61 426.109 L1550.06 430.628 L1535.51 430.568 L1520.96 425.913 L1506.41 422.667 L1491.86 414.619 L1477.31 410.802 L1462.76 406.039 L1448.21 403.905 L1433.66 397.397 L1419.11 394.938 L1404.56 388.005 L1390.01 386.442 L1375.46 386.712 L1360.91 398.219 L1346.37 399.665 L1331.82 401.635 L1317.27 403.363 L1302.72 430.967 L1288.17 440.396 L1273.62 448.702 L1259.07 446.995 L1244.52 450.249 L1229.97 461.747 L1215.42 473.096 L1200.87 484.814 L1186.32 487.514 L1171.77 506.984 L1157.22 518.503 L1142.67 524.249 L1128.12 538.206 L1113.57 551.343 L1099.02 577.697 L1084.47 596.406 L1069.92 617.194 L1055.37 626.186 L1040.83 626.237 L1026.28 638.622 L1011.73 649.271 L997.176 690.03 L982.627 706.325 L968.077 727.772 L953.528 746.991 L938.978 767.08 L924.429 790.593 L909.879 809.357 L895.33 828.195 L880.78 856.455 L866.231 878.678 L851.681 911.807 L837.132 933.772 L822.582 952.873 L808.033 965.047 L793.483 980.469 L778.934 994.216 L764.384 1008.98 L749.834 1020.1 L735.285 1030.04 L720.735 1039.24 L706.186 1044.64 L691.636 1052.26 L677.087 1056.89 L662.537 1062.08 L647.988 1066.78 L633.438 1070.7 L618.889 1074.39 L604.339 1076.67 L589.79 1077.66 L575.24 1079.66 L560.691 1081.27 L546.141 1082.8 L531.592 1083.94 L517.042 1085.25 L502.492 1085.76 L487.943 1087.04 L473.393 1087.83 L458.844 1088.45 L444.294 1088.83 L429.745 1089.2 L415.195 1089.65 L400.646 1089.88 L386.096 1090.05 L371.547 1090.21 L356.997 1090.3 L342.448 1090.37 L327.898 1090.49 L313.349 1090.57 L298.799 1090.6 L284.25 1090.67 L269.7 1090.73  Z" fill="#009af9" fill-rule="evenodd" fill-opacity="0.5"/>
<polyline clip-path="url(#clip262)" style="stroke:#009af9; stroke-linecap:round; stroke-linejoin:round; stroke-width:4; stroke-opacity:0.2; fill:none" points="269.7,1091.34 284.25,1091.31 298.799,1091.27 313.349,1091.23 327.898,1091.18 342.448,1091.11 356.997,1091.05 371.547,1090.98 386.096,1090.9 400.646,1090.84 415.195,1090.75 429.745,1090.56 444.294,1090.42 458.844,1090.28 473.393,1090.05 487.943,1089.81 502.492,1089.41 517.042,1089.2 531.592,1088.72 546.141,1088.35 560.691,1087.78 575.24,1087.17 589.79,1086.51 604.339,1086.14 618.889,1085.24 633.438,1083.79 647.988,1082.3 662.537,1080.49 677.087,1078.52 691.636,1076.89 706.186,1074.06 720.735,1072.1 735.285,1068.33 749.834,1064.7 764.384,1060.09 778.934,1054.61 793.483,1048.62 808.033,1042.99 822.582,1038.03 837.132,1030.51 851.681,1021.86 866.231,1009.18 880.78,1000.9 895.33,988.443 909.879,979.157 924.429,968.708 938.978,957.305 953.528,945.543 968.077,934.061 982.627,921.04 997.176,908.233 1011.73,889.371 1026.28,878.522 1040.83,869.04 1055.37,863.078 1069.92,853.866 1084.47,836.399 1099.02,819.565 1113.57,802.15 1128.12,788.832 1142.67,772.697 1157.22,761.279 1171.77,747.991 1186.32,733.251 1200.87,722.116 1215.42,708.301 1229.97,691.16 1244.52,665.424 1259.07,655.149 1273.62,640.602 1288.17,620.719 1302.72,598.823 1317.27,571.686 1331.82,565.621 1346.37,556.072 1360.91,549.6 1375.46,542.371 1390.01,542.044 1404.56,545.506 1419.11,551.46 1433.66,553.291 1448.21,559.599 1462.76,562.886 1477.31,569.76 1491.86,571.045 1506.41,581.484 1520.96,587.582 1535.51,593.844 1550.06,600.028 1564.61,603.949 1579.16,610.457 1593.71,622.309 1608.26,633.002 1622.81,646.685 1637.36,656.649 1651.91,665.002 1666.45,680.068 1681,691.523 1695.55,705.292 1710.1,720.017 1724.65,732.455 1739.2,745.351 1753.75,766.333 1768.3,779.453 1782.85,797.575 1797.4,807.996 1811.95,820.138 1826.5,834.829 1841.05,849.046 1855.6,862.205 1870.15,877.35 1884.7,892.319 1899.25,903.773 1913.8,914.835 1928.35,925.859 1942.9,936.945 1957.45,948.324 1971.99,957.896 1986.54,966.226 2001.09,977.537 2015.64,987.094 2030.19,996.753 2044.74,1003.99 2059.29,1011.94 2073.84,1019.25 2088.39,1026.46 2102.94,1036.13 2117.49,1044.19 2132.04,1051.84 2146.59,1057.64 2161.14,1063.91 2175.69,1069.1 2190.24,1074.98 2204.79,1080.45 2219.34,1085.38 2233.89,1091.58 2248.44,1096.32 2262.99,1101.09 2277.53,1105.22 2292.08,1108.81 "/>
<path clip-path="url(#clip262)" d="M269.7 1092.34 L284.25 1092.38 L298.799 1092.41 L313.349 1092.43 L327.898 1092.47 L342.448 1092.5 L356.997 1092.54 L371.547 1092.59 L386.096 1092.63 L400.646 1092.67 L415.195 1092.71 L429.745 1092.77 L444.294 1092.8 L458.844 1092.83 L473.393 1092.89 L487.943 1092.96 L502.492 1093.02 L517.042 1093.1 L531.592 1093.22 L546.141 1093.33 L560.691 1093.46 L575.24 1093.68 L589.79 1093.87 L604.339 1094.04 L618.889 1094.19 L633.438 1094.59 L647.988 1095.04 L662.537 1095.52 L677.087 1096.09 L691.636 1096.42 L706.186 1097.4 L720.735 1098.02 L735.285 1098.87 L749.834 1100.01 L764.384 1101.17 L778.934 1102.55 L793.483 1104.21 L808.033 1105.89 L822.582 1108.2 L837.132 1110.35 L851.681 1113.6 L866.231 1117.94 L880.78 1120.84 L895.33 1126.05 L909.879 1131.07 L924.429 1134.95 L938.978 1140.86 L953.528 1144.06 L968.077 1149.25 L982.627 1154.27 L997.176 1159.32 L1011.73 1170.66 L1026.28 1174.96 L1040.83 1180.96 L1055.37 1181.85 L1069.92 1196.4 L1084.47 1200.79 L1099.02 1210.7 L1113.57 1225.2 L1128.12 1229.71 L1142.67 1232.29 L1157.22 1235.51 L1171.77 1236.93 L1186.32 1244.38 L1200.87 1240.08 L1215.42 1242.55 L1229.97 1245.52 L1244.52 1246.61 L1259.07 1256.58 L1273.62 1246.1 L1288.17 1243.07 L1302.72 1242.77 L1317.27 1244.36 L1331.82 1242.2 L1346.37 1239.5 L1360.91 1238.77 L1375.46 1237.28 L1390.01 1231.6 L1404.56 1231.44 L1419.11 1224.26 L1433.66 1218.93 L1448.21 1211.73 L1462.76 1206.86 L1477.31 1205.89 L1491.86 1201.91 L1506.41 1203.02 L1520.96 1201.41 L1535.51 1203.66 L1550.06 1209.14 L1564.61 1224.86 L1579.16 1234.15 L1593.71 1238.51 L1608.26 1241.97 L1622.81 1250.31 L1637.36 1256.06 L1651.91 1268.91 L1666.45 1270.94 L1681 1272.45 L1695.55 1281.32 L1710.1 1278.65 L1724.65 1278.28 L1739.2 1273.89 L1753.75 1265.49 L1768.3 1263.81 L1782.85 1259.47 L1797.4 1258.71 L1811.95 1256.74 L1826.5 1251.62 L1841.05 1243.99 L1855.6 1240.79 L1870.15 1230.9 L1884.7 1229.92 L1899.25 1225.98 L1913.8 1222.61 L1928.35 1218.38 L1942.9 1214.48 L1957.45 1210.46 L1971.99 1208.48 L1986.54 1206.49 L2001.09 1200.64 L2015.64 1198.62 L2030.19 1196.91 L2044.74 1197.48 L2059.29 1194.38 L2073.84 1195.33 L2088.39 1195.47 L2102.94 1190.98 L2117.49 1188.26 L2132.04 1186.99 L2146.59 1187.05 L2161.14 1185.35 L2175.69 1183.77 L2190.24 1183.4 L2204.79 1182.52 L2219.34 1182.84 L2233.89 1182.95 L2248.44 1182.11 L2262.99 1181.15 L2277.53 1179.69 L2292.08 1177.11 L2292.08 1124.22 L2277.53 1124.39 L2262.99 1123.89 L2248.44 1124.02 L2233.89 1123.92 L2219.34 1123.25 L2204.79 1124.11 L2190.24 1123.95 L2175.69 1124.51 L2161.14 1124.97 L2146.59 1124.3 L2132.04 1124.7 L2117.49 1125.03 L2102.94 1124.89 L2088.39 1124.1 L2073.84 1123.67 L2059.29 1123.63 L2044.74 1122.48 L2030.19 1122.97 L2015.64 1122.82 L2001.09 1122.47 L1986.54 1121.9 L1971.99 1121.04 L1957.45 1121.37 L1942.9 1120.99 L1928.35 1119.12 L1913.8 1116.78 L1899.25 1116.71 L1884.7 1115.64 L1870.15 1115.85 L1855.6 1111.65 L1841.05 1111.17 L1826.5 1108.28 L1811.95 1106.22 L1797.4 1105.7 L1782.85 1106.19 L1768.3 1104.96 L1753.75 1103.89 L1739.2 1100.67 L1724.65 1100.3 L1710.1 1100.12 L1695.55 1099.82 L1681 1106.33 L1666.45 1106.84 L1651.91 1109.24 L1637.36 1116.65 L1622.81 1118.77 L1608.26 1122.33 L1593.71 1123.83 L1579.16 1125.58 L1564.61 1127.81 L1550.06 1131.53 L1535.51 1129.26 L1520.96 1128.95 L1506.41 1120.01 L1491.86 1119.77 L1477.31 1106.35 L1462.76 1096.23 L1448.21 1082.34 L1433.66 1065.38 L1419.11 1049.17 L1404.56 1036.97 L1390.01 1033.83 L1375.46 1019.19 L1360.91 1008.99 L1346.37 1001.33 L1331.82 988.865 L1317.27 978.875 L1302.72 968.086 L1288.17 958.677 L1273.62 943.231 L1259.07 920.871 L1244.52 928.541 L1229.97 922.517 L1215.42 923.176 L1200.87 921.164 L1186.32 912.505 L1171.77 920.378 L1157.22 918.024 L1142.67 920.742 L1128.12 924.573 L1113.57 928.249 L1099.02 947.115 L1084.47 960.262 L1069.92 963.46 L1055.37 986.081 L1040.83 987.112 L1026.28 993.876 L1011.73 999.644 L997.176 1013.9 L982.627 1021.67 L968.077 1028.03 L953.528 1034.54 L938.978 1037.8 L924.429 1045.73 L909.879 1049.77 L895.33 1056.95 L880.78 1062.88 L866.231 1065.7 L851.681 1069.89 L837.132 1073.35 L822.582 1075.15 L808.033 1078.19 L793.483 1079.82 L778.934 1081.56 L764.384 1082.65 L749.834 1083.87 L735.285 1085.08 L720.735 1085.86 L706.186 1086.79 L691.636 1087.79 L677.087 1088.02 L662.537 1088.68 L647.988 1089.15 L633.438 1089.71 L618.889 1090.12 L604.339 1090.26 L589.79 1090.56 L575.24 1090.82 L560.691 1091.09 L546.141 1091.2 L531.592 1091.3 L517.042 1091.43 L502.492 1091.49 L487.943 1091.55 L473.393 1091.58 L458.844 1091.58 L444.294 1091.59 L429.745 1091.59 L415.195 1091.59 L400.646 1091.57 L386.096 1091.55 L371.547 1091.52 L356.997 1091.48 L342.448 1091.43 L327.898 1091.39 L313.349 1091.33 L298.799 1091.27 L284.25 1091.2 L269.7 1091.09  Z" fill="#e26f46" fill-rule="evenodd" fill-opacity="0.5"/>
<polyline clip-path="url(#clip262)" style="stroke:#e26f46; stroke-linecap:round; stroke-linejoin:round; stroke-width:4; stroke-opacity:0.2; fill:none" points="269.7,1091.71 284.25,1091.79 298.799,1091.84 313.349,1091.88 327.898,1091.93 342.448,1091.97 356.997,1092.01 371.547,1092.06 386.096,1092.09 400.646,1092.12 415.195,1092.15 429.745,1092.18 444.294,1092.19 458.844,1092.21 473.393,1092.24 487.943,1092.25 502.492,1092.26 517.042,1092.26 531.592,1092.26 546.141,1092.26 560.691,1092.27 575.24,1092.25 589.79,1092.22 604.339,1092.15 618.889,1092.16 633.438,1092.15 647.988,1092.09 662.537,1092.1 677.087,1092.06 691.636,1092.1 706.186,1092.1 720.735,1091.94 735.285,1091.98 749.834,1091.94 764.384,1091.91 778.934,1092.06 793.483,1092.01 808.033,1092.04 822.582,1091.67 837.132,1091.85 851.681,1091.74 866.231,1091.82 880.78,1091.86 895.33,1091.5 909.879,1090.42 924.429,1090.34 938.978,1089.33 953.528,1089.3 968.077,1088.64 982.627,1087.97 997.176,1086.61 1011.73,1085.15 1026.28,1084.42 1040.83,1084.04 1055.37,1083.96 1069.92,1079.93 1084.47,1080.53 1099.02,1078.91 1113.57,1076.72 1128.12,1077.14 1142.67,1076.52 1157.22,1076.77 1171.77,1078.65 1186.32,1078.44 1200.87,1080.62 1215.42,1082.86 1229.97,1084.02 1244.52,1087.57 1259.07,1088.73 1273.62,1094.67 1288.17,1100.87 1302.72,1105.43 1317.27,1111.62 1331.82,1115.53 1346.37,1120.42 1360.91,1123.88 1375.46,1128.23 1390.01,1132.71 1404.56,1134.21 1419.11,1136.72 1433.66,1142.16 1448.21,1147.03 1462.76,1151.55 1477.31,1156.12 1491.86,1160.84 1506.41,1161.51 1520.96,1165.18 1535.51,1166.46 1550.06,1170.34 1564.61,1176.33 1579.16,1179.86 1593.71,1181.17 1608.26,1182.15 1622.81,1184.54 1637.36,1186.36 1651.91,1189.08 1666.45,1188.89 1681,1189.39 1695.55,1190.57 1710.1,1189.38 1724.65,1189.29 1739.2,1187.28 1753.75,1184.69 1768.3,1184.38 1782.85,1182.83 1797.4,1182.2 1811.95,1181.48 1826.5,1179.95 1841.05,1177.58 1855.6,1176.22 1870.15,1173.37 1884.7,1172.78 1899.25,1171.35 1913.8,1169.69 1928.35,1168.75 1942.9,1167.74 1957.45,1165.91 1971.99,1164.76 1986.54,1164.19 2001.09,1161.55 2015.64,1160.72 2030.19,1159.94 2044.74,1159.98 2059.29,1159.01 2073.84,1159.5 2088.39,1159.78 2102.94,1157.93 2117.49,1156.65 2132.04,1155.84 2146.59,1155.67 2161.14,1155.16 2175.69,1154.14 2190.24,1153.67 2204.79,1153.31 2219.34,1153.05 2233.89,1153.43 2248.44,1153.06 2262.99,1152.52 2277.53,1152.04 2292.08,1150.67 "/>
<circle clip-path="url(#clip262)" cx="269.7" cy="1091.94" r="7.2" fill="#008000" fill-rule="evenodd" fill-opacity="1" stroke="#000000" stroke-opacity="1" stroke-width="3.2"/>
<circle clip-path="url(#clip262)" cx="284.25" cy="1093.29" r="7.2" fill="#008000" fill-rule="evenodd" fill-opacity="1" stroke="#000000" stroke-opacity="1" stroke-width="3.2"/>
<circle clip-path="url(#clip262)" cx="298.799" cy="1093.54" r="7.2" fill="#008000" fill-rule="evenodd" fill-opacity="1" stroke="#000000" stroke-opacity="1" stroke-width="3.2"/>
<circle clip-path="url(#clip262)" cx="313.349" cy="1093.04" r="7.2" fill="#008000" fill-rule="evenodd" fill-opacity="1" stroke="#000000" stroke-opacity="1" stroke-width="3.2"/>
<circle clip-path="url(#clip262)" cx="327.898" cy="1091.85" r="7.2" fill="#008000" fill-rule="evenodd" fill-opacity="1" stroke="#000000" stroke-opacity="1" stroke-width="3.2"/>
<circle clip-path="url(#clip262)" cx="342.448" cy="1090.73" r="7.2" fill="#008000" fill-rule="evenodd" fill-opacity="1" stroke="#000000" stroke-opacity="1" stroke-width="3.2"/>
<circle clip-path="url(#clip262)" cx="356.997" cy="1090.14" r="7.2" fill="#008000" fill-rule="evenodd" fill-opacity="1" stroke="#000000" stroke-opacity="1" stroke-width="3.2"/>
<circle clip-path="url(#clip262)" cx="371.547" cy="1090.14" r="7.2" fill="#008000" fill-rule="evenodd" fill-opacity="1" stroke="#000000" stroke-opacity="1" stroke-width="3.2"/>
<circle clip-path="url(#clip262)" cx="386.096" cy="1090.72" r="7.2" fill="#008000" fill-rule="evenodd" fill-opacity="1" stroke="#000000" stroke-opacity="1" stroke-width="3.2"/>
<circle clip-path="url(#clip262)" cx="400.646" cy="1091.4" r="7.2" fill="#008000" fill-rule="evenodd" fill-opacity="1" stroke="#000000" stroke-opacity="1" stroke-width="3.2"/>
<circle clip-path="url(#clip262)" cx="415.195" cy="1091.72" r="7.2" fill="#008000" fill-rule="evenodd" fill-opacity="1" stroke="#000000" stroke-opacity="1" stroke-width="3.2"/>
<circle clip-path="url(#clip262)" cx="429.745" cy="1091.93" r="7.2" fill="#008000" fill-rule="evenodd" fill-opacity="1" stroke="#000000" stroke-opacity="1" stroke-width="3.2"/>
<circle clip-path="url(#clip262)" cx="444.294" cy="1091.95" r="7.2" fill="#008000" fill-rule="evenodd" fill-opacity="1" stroke="#000000" stroke-opacity="1" stroke-width="3.2"/>
<circle clip-path="url(#clip262)" cx="458.844" cy="1092.13" r="7.2" fill="#008000" fill-rule="evenodd" fill-opacity="1" stroke="#000000" stroke-opacity="1" stroke-width="3.2"/>
<circle clip-path="url(#clip262)" cx="473.393" cy="1092.37" r="7.2" fill="#008000" fill-rule="evenodd" fill-opacity="1" stroke="#000000" stroke-opacity="1" stroke-width="3.2"/>
<circle clip-path="url(#clip262)" cx="487.943" cy="1092.54" r="7.2" fill="#008000" fill-rule="evenodd" fill-opacity="1" stroke="#000000" stroke-opacity="1" stroke-width="3.2"/>
<circle clip-path="url(#clip262)" cx="502.492" cy="1092.61" r="7.2" fill="#008000" fill-rule="evenodd" fill-opacity="1" stroke="#000000" stroke-opacity="1" stroke-width="3.2"/>
<circle clip-path="url(#clip262)" cx="517.042" cy="1092.41" r="7.2" fill="#008000" fill-rule="evenodd" fill-opacity="1" stroke="#000000" stroke-opacity="1" stroke-width="3.2"/>
<circle clip-path="url(#clip262)" cx="531.592" cy="1091.7" r="7.2" fill="#008000" fill-rule="evenodd" fill-opacity="1" stroke="#000000" stroke-opacity="1" stroke-width="3.2"/>
<circle clip-path="url(#clip262)" cx="546.141" cy="1090.88" r="7.2" fill="#008000" fill-rule="evenodd" fill-opacity="1" stroke="#000000" stroke-opacity="1" stroke-width="3.2"/>
<circle clip-path="url(#clip262)" cx="560.691" cy="1090.09" r="7.2" fill="#008000" fill-rule="evenodd" fill-opacity="1" stroke="#000000" stroke-opacity="1" stroke-width="3.2"/>
<circle clip-path="url(#clip262)" cx="575.24" cy="1089.9" r="7.2" fill="#008000" fill-rule="evenodd" fill-opacity="1" stroke="#000000" stroke-opacity="1" stroke-width="3.2"/>
<circle clip-path="url(#clip262)" cx="589.79" cy="1090.42" r="7.2" fill="#008000" fill-rule="evenodd" fill-opacity="1" stroke="#000000" stroke-opacity="1" stroke-width="3.2"/>
<circle clip-path="url(#clip262)" cx="604.339" cy="1091.62" r="7.2" fill="#008000" fill-rule="evenodd" fill-opacity="1" stroke="#000000" stroke-opacity="1" stroke-width="3.2"/>
<circle clip-path="url(#clip262)" cx="618.889" cy="1092.88" r="7.2" fill="#008000" fill-rule="evenodd" fill-opacity="1" stroke="#000000" stroke-opacity="1" stroke-width="3.2"/>
<circle clip-path="url(#clip262)" cx="633.438" cy="1093.36" r="7.2" fill="#008000" fill-rule="evenodd" fill-opacity="1" stroke="#000000" stroke-opacity="1" stroke-width="3.2"/>
<circle clip-path="url(#clip262)" cx="647.988" cy="1092.64" r="7.2" fill="#008000" fill-rule="evenodd" fill-opacity="1" stroke="#000000" stroke-opacity="1" stroke-width="3.2"/>
<circle clip-path="url(#clip262)" cx="662.537" cy="1090.93" r="7.2" fill="#008000" fill-rule="evenodd" fill-opacity="1" stroke="#000000" stroke-opacity="1" stroke-width="3.2"/>
<circle clip-path="url(#clip262)" cx="677.087" cy="1089.17" r="7.2" fill="#008000" fill-rule="evenodd" fill-opacity="1" stroke="#000000" stroke-opacity="1" stroke-width="3.2"/>
<circle clip-path="url(#clip262)" cx="691.636" cy="1088.56" r="7.2" fill="#008000" fill-rule="evenodd" fill-opacity="1" stroke="#000000" stroke-opacity="1" stroke-width="3.2"/>
<circle clip-path="url(#clip262)" cx="706.186" cy="1089.12" r="7.2" fill="#008000" fill-rule="evenodd" fill-opacity="1" stroke="#000000" stroke-opacity="1" stroke-width="3.2"/>
<circle clip-path="url(#clip262)" cx="720.735" cy="1090.78" r="7.2" fill="#008000" fill-rule="evenodd" fill-opacity="1" stroke="#000000" stroke-opacity="1" stroke-width="3.2"/>
<circle clip-path="url(#clip262)" cx="735.285" cy="1092.46" r="7.2" fill="#008000" fill-rule="evenodd" fill-opacity="1" stroke="#000000" stroke-opacity="1" stroke-width="3.2"/>
<circle clip-path="url(#clip262)" cx="749.834" cy="1093.32" r="7.2" fill="#008000" fill-rule="evenodd" fill-opacity="1" stroke="#000000" stroke-opacity="1" stroke-width="3.2"/>
<circle clip-path="url(#clip262)" cx="764.384" cy="1093.4" r="7.2" fill="#008000" fill-rule="evenodd" fill-opacity="1" stroke="#000000" stroke-opacity="1" stroke-width="3.2"/>
<circle clip-path="url(#clip262)" cx="778.934" cy="1092.53" r="7.2" fill="#008000" fill-rule="evenodd" fill-opacity="1" stroke="#000000" stroke-opacity="1" stroke-width="3.2"/>
<circle clip-path="url(#clip262)" cx="793.483" cy="1092.02" r="7.2" fill="#008000" fill-rule="evenodd" fill-opacity="1" stroke="#000000" stroke-opacity="1" stroke-width="3.2"/>
<circle clip-path="url(#clip262)" cx="808.033" cy="1091.87" r="7.2" fill="#008000" fill-rule="evenodd" fill-opacity="1" stroke="#000000" stroke-opacity="1" stroke-width="3.2"/>
<circle clip-path="url(#clip262)" cx="822.582" cy="1092.05" r="7.2" fill="#008000" fill-rule="evenodd" fill-opacity="1" stroke="#000000" stroke-opacity="1" stroke-width="3.2"/>
<circle clip-path="url(#clip262)" cx="837.132" cy="1092.93" r="7.2" fill="#008000" fill-rule="evenodd" fill-opacity="1" stroke="#000000" stroke-opacity="1" stroke-width="3.2"/>
<circle clip-path="url(#clip262)" cx="851.681" cy="1093.32" r="7.2" fill="#008000" fill-rule="evenodd" fill-opacity="1" stroke="#000000" stroke-opacity="1" stroke-width="3.2"/>
<circle clip-path="url(#clip262)" cx="866.231" cy="1092.37" r="7.2" fill="#008000" fill-rule="evenodd" fill-opacity="1" stroke="#000000" stroke-opacity="1" stroke-width="3.2"/>
<circle clip-path="url(#clip262)" cx="880.78" cy="1091.02" r="7.2" fill="#008000" fill-rule="evenodd" fill-opacity="1" stroke="#000000" stroke-opacity="1" stroke-width="3.2"/>
<circle clip-path="url(#clip262)" cx="895.33" cy="1089.78" r="7.2" fill="#008000" fill-rule="evenodd" fill-opacity="1" stroke="#000000" stroke-opacity="1" stroke-width="3.2"/>
<circle clip-path="url(#clip262)" cx="909.879" cy="1087.25" r="7.2" fill="#008000" fill-rule="evenodd" fill-opacity="1" stroke="#000000" stroke-opacity="1" stroke-width="3.2"/>
<circle clip-path="url(#clip262)" cx="924.429" cy="1083.34" r="7.2" fill="#008000" fill-rule="evenodd" fill-opacity="1" stroke="#000000" stroke-opacity="1" stroke-width="3.2"/>
<circle clip-path="url(#clip262)" cx="938.978" cy="1080.21" r="7.2" fill="#008000" fill-rule="evenodd" fill-opacity="1" stroke="#000000" stroke-opacity="1" stroke-width="3.2"/>
<circle clip-path="url(#clip262)" cx="953.528" cy="1075.1" r="7.2" fill="#008000" fill-rule="evenodd" fill-opacity="1" stroke="#000000" stroke-opacity="1" stroke-width="3.2"/>
<circle clip-path="url(#clip262)" cx="968.077" cy="1065.66" r="7.2" fill="#008000" fill-rule="evenodd" fill-opacity="1" stroke="#000000" stroke-opacity="1" stroke-width="3.2"/>
<circle clip-path="url(#clip262)" cx="982.627" cy="1057.53" r="7.2" fill="#008000" fill-rule="evenodd" fill-opacity="1" stroke="#000000" stroke-opacity="1" stroke-width="3.2"/>
<circle clip-path="url(#clip262)" cx="997.176" cy="1045.65" r="7.2" fill="#008000" fill-rule="evenodd" fill-opacity="1" stroke="#000000" stroke-opacity="1" stroke-width="3.2"/>
<circle clip-path="url(#clip262)" cx="1011.73" cy="1030.73" r="7.2" fill="#008000" fill-rule="evenodd" fill-opacity="1" stroke="#000000" stroke-opacity="1" stroke-width="3.2"/>
<circle clip-path="url(#clip262)" cx="1026.28" cy="1015.16" r="7.2" fill="#008000" fill-rule="evenodd" fill-opacity="1" stroke="#000000" stroke-opacity="1" stroke-width="3.2"/>
<circle clip-path="url(#clip262)" cx="1040.83" cy="998.439" r="7.2" fill="#008000" fill-rule="evenodd" fill-opacity="1" stroke="#000000" stroke-opacity="1" stroke-width="3.2"/>
<circle clip-path="url(#clip262)" cx="1055.37" cy="977.96" r="7.2" fill="#008000" fill-rule="evenodd" fill-opacity="1" stroke="#000000" stroke-opacity="1" stroke-width="3.2"/>
<circle clip-path="url(#clip262)" cx="1069.92" cy="949.43" r="7.2" fill="#008000" fill-rule="evenodd" fill-opacity="1" stroke="#000000" stroke-opacity="1" stroke-width="3.2"/>
<circle clip-path="url(#clip262)" cx="1084.47" cy="907.889" r="7.2" fill="#008000" fill-rule="evenodd" fill-opacity="1" stroke="#000000" stroke-opacity="1" stroke-width="3.2"/>
<circle clip-path="url(#clip262)" cx="1099.02" cy="847.911" r="7.2" fill="#008000" fill-rule="evenodd" fill-opacity="1" stroke="#000000" stroke-opacity="1" stroke-width="3.2"/>
<circle clip-path="url(#clip262)" cx="1113.57" cy="768.756" r="7.2" fill="#008000" fill-rule="evenodd" fill-opacity="1" stroke="#000000" stroke-opacity="1" stroke-width="3.2"/>
<circle clip-path="url(#clip262)" cx="1128.12" cy="680.728" r="7.2" fill="#008000" fill-rule="evenodd" fill-opacity="1" stroke="#000000" stroke-opacity="1" stroke-width="3.2"/>
<circle clip-path="url(#clip262)" cx="1142.67" cy="588.224" r="7.2" fill="#008000" fill-rule="evenodd" fill-opacity="1" stroke="#000000" stroke-opacity="1" stroke-width="3.2"/>
<circle clip-path="url(#clip262)" cx="1157.22" cy="507.022" r="7.2" fill="#008000" fill-rule="evenodd" fill-opacity="1" stroke="#000000" stroke-opacity="1" stroke-width="3.2"/>
<circle clip-path="url(#clip262)" cx="1171.77" cy="447.237" r="7.2" fill="#008000" fill-rule="evenodd" fill-opacity="1" stroke="#000000" stroke-opacity="1" stroke-width="3.2"/>
<circle clip-path="url(#clip262)" cx="1186.32" cy="410.789" r="7.2" fill="#008000" fill-rule="evenodd" fill-opacity="1" stroke="#000000" stroke-opacity="1" stroke-width="3.2"/>
<circle clip-path="url(#clip262)" cx="1200.87" cy="393.08" r="7.2" fill="#008000" fill-rule="evenodd" fill-opacity="1" stroke="#000000" stroke-opacity="1" stroke-width="3.2"/>
<circle clip-path="url(#clip262)" cx="1215.42" cy="383.466" r="7.2" fill="#008000" fill-rule="evenodd" fill-opacity="1" stroke="#000000" stroke-opacity="1" stroke-width="3.2"/>
<circle clip-path="url(#clip262)" cx="1229.97" cy="370.953" r="7.2" fill="#008000" fill-rule="evenodd" fill-opacity="1" stroke="#000000" stroke-opacity="1" stroke-width="3.2"/>
<circle clip-path="url(#clip262)" cx="1244.52" cy="345.348" r="7.2" fill="#008000" fill-rule="evenodd" fill-opacity="1" stroke="#000000" stroke-opacity="1" stroke-width="3.2"/>
<circle clip-path="url(#clip262)" cx="1259.07" cy="306.111" r="7.2" fill="#008000" fill-rule="evenodd" fill-opacity="1" stroke="#000000" stroke-opacity="1" stroke-width="3.2"/>
<circle clip-path="url(#clip262)" cx="1273.62" cy="264.944" r="7.2" fill="#008000" fill-rule="evenodd" fill-opacity="1" stroke="#000000" stroke-opacity="1" stroke-width="3.2"/>
<circle clip-path="url(#clip262)" cx="1288.17" cy="225.027" r="7.2" fill="#008000" fill-rule="evenodd" fill-opacity="1" stroke="#000000" stroke-opacity="1" stroke-width="3.2"/>
<circle clip-path="url(#clip262)" cx="1302.72" cy="198.315" r="7.2" fill="#008000" fill-rule="evenodd" fill-opacity="1" stroke="#000000" stroke-opacity="1" stroke-width="3.2"/>
<circle clip-path="url(#clip262)" cx="1317.27" cy="194.601" r="7.2" fill="#008000" fill-rule="evenodd" fill-opacity="1" stroke="#000000" stroke-opacity="1" stroke-width="3.2"/>
<circle clip-path="url(#clip262)" cx="1331.82" cy="206.246" r="7.2" fill="#008000" fill-rule="evenodd" fill-opacity="1" stroke="#000000" stroke-opacity="1" stroke-width="3.2"/>
<circle clip-path="url(#clip262)" cx="1346.37" cy="224.912" r="7.2" fill="#008000" fill-rule="evenodd" fill-opacity="1" stroke="#000000" stroke-opacity="1" stroke-width="3.2"/>
<circle clip-path="url(#clip262)" cx="1360.91" cy="239.914" r="7.2" fill="#008000" fill-rule="evenodd" fill-opacity="1" stroke="#000000" stroke-opacity="1" stroke-width="3.2"/>
<circle clip-path="url(#clip262)" cx="1375.46" cy="238.839" r="7.2" fill="#008000" fill-rule="evenodd" fill-opacity="1" stroke="#000000" stroke-opacity="1" stroke-width="3.2"/>
<circle clip-path="url(#clip262)" cx="1390.01" cy="215.486" r="7.2" fill="#008000" fill-rule="evenodd" fill-opacity="1" stroke="#000000" stroke-opacity="1" stroke-width="3.2"/>
<circle clip-path="url(#clip262)" cx="1404.56" cy="175.113" r="7.2" fill="#008000" fill-rule="evenodd" fill-opacity="1" stroke="#000000" stroke-opacity="1" stroke-width="3.2"/>
<circle clip-path="url(#clip262)" cx="1419.11" cy="132.415" r="7.2" fill="#008000" fill-rule="evenodd" fill-opacity="1" stroke="#000000" stroke-opacity="1" stroke-width="3.2"/>
<circle clip-path="url(#clip262)" cx="1433.66" cy="98.0075" r="7.2" fill="#008000" fill-rule="evenodd" fill-opacity="1" stroke="#000000" stroke-opacity="1" stroke-width="3.2"/>
<circle clip-path="url(#clip262)" cx="1448.21" cy="87.9763" r="7.2" fill="#008000" fill-rule="evenodd" fill-opacity="1" stroke="#000000" stroke-opacity="1" stroke-width="3.2"/>
<circle clip-path="url(#clip262)" cx="1462.76" cy="108.926" r="7.2" fill="#008000" fill-rule="evenodd" fill-opacity="1" stroke="#000000" stroke-opacity="1" stroke-width="3.2"/>
<circle clip-path="url(#clip262)" cx="1477.31" cy="148.755" r="7.2" fill="#008000" fill-rule="evenodd" fill-opacity="1" stroke="#000000" stroke-opacity="1" stroke-width="3.2"/>
<circle clip-path="url(#clip262)" cx="1491.86" cy="197.149" r="7.2" fill="#008000" fill-rule="evenodd" fill-opacity="1" stroke="#000000" stroke-opacity="1" stroke-width="3.2"/>
<circle clip-path="url(#clip262)" cx="1506.41" cy="238.717" r="7.2" fill="#008000" fill-rule="evenodd" fill-opacity="1" stroke="#000000" stroke-opacity="1" stroke-width="3.2"/>
<circle clip-path="url(#clip262)" cx="1520.96" cy="257.432" r="7.2" fill="#008000" fill-rule="evenodd" fill-opacity="1" stroke="#000000" stroke-opacity="1" stroke-width="3.2"/>
<circle clip-path="url(#clip262)" cx="1535.51" cy="254.967" r="7.2" fill="#008000" fill-rule="evenodd" fill-opacity="1" stroke="#000000" stroke-opacity="1" stroke-width="3.2"/>
<circle clip-path="url(#clip262)" cx="1550.06" cy="241.533" r="7.2" fill="#008000" fill-rule="evenodd" fill-opacity="1" stroke="#000000" stroke-opacity="1" stroke-width="3.2"/>
<circle clip-path="url(#clip262)" cx="1564.61" cy="231.503" r="7.2" fill="#008000" fill-rule="evenodd" fill-opacity="1" stroke="#000000" stroke-opacity="1" stroke-width="3.2"/>
<circle clip-path="url(#clip262)" cx="1579.16" cy="235.239" r="7.2" fill="#008000" fill-rule="evenodd" fill-opacity="1" stroke="#000000" stroke-opacity="1" stroke-width="3.2"/>
<circle clip-path="url(#clip262)" cx="1593.71" cy="259.556" r="7.2" fill="#008000" fill-rule="evenodd" fill-opacity="1" stroke="#000000" stroke-opacity="1" stroke-width="3.2"/>
<circle clip-path="url(#clip262)" cx="1608.26" cy="302.814" r="7.2" fill="#008000" fill-rule="evenodd" fill-opacity="1" stroke="#000000" stroke-opacity="1" stroke-width="3.2"/>
<circle clip-path="url(#clip262)" cx="1622.81" cy="350.622" r="7.2" fill="#008000" fill-rule="evenodd" fill-opacity="1" stroke="#000000" stroke-opacity="1" stroke-width="3.2"/>
<circle clip-path="url(#clip262)" cx="1637.36" cy="401.129" r="7.2" fill="#008000" fill-rule="evenodd" fill-opacity="1" stroke="#000000" stroke-opacity="1" stroke-width="3.2"/>
<circle clip-path="url(#clip262)" cx="1651.91" cy="449.43" r="7.2" fill="#008000" fill-rule="evenodd" fill-opacity="1" stroke="#000000" stroke-opacity="1" stroke-width="3.2"/>
<circle clip-path="url(#clip262)" cx="1666.45" cy="487.888" r="7.2" fill="#008000" fill-rule="evenodd" fill-opacity="1" stroke="#000000" stroke-opacity="1" stroke-width="3.2"/>
<circle clip-path="url(#clip262)" cx="1681" cy="520.244" r="7.2" fill="#008000" fill-rule="evenodd" fill-opacity="1" stroke="#000000" stroke-opacity="1" stroke-width="3.2"/>
<circle clip-path="url(#clip262)" cx="1695.55" cy="547.386" r="7.2" fill="#008000" fill-rule="evenodd" fill-opacity="1" stroke="#000000" stroke-opacity="1" stroke-width="3.2"/>
<circle clip-path="url(#clip262)" cx="1710.1" cy="572.471" r="7.2" fill="#008000" fill-rule="evenodd" fill-opacity="1" stroke="#000000" stroke-opacity="1" stroke-width="3.2"/>
<circle clip-path="url(#clip262)" cx="1724.65" cy="601.56" r="7.2" fill="#008000" fill-rule="evenodd" fill-opacity="1" stroke="#000000" stroke-opacity="1" stroke-width="3.2"/>
<circle clip-path="url(#clip262)" cx="1739.2" cy="639.799" r="7.2" fill="#008000" fill-rule="evenodd" fill-opacity="1" stroke="#000000" stroke-opacity="1" stroke-width="3.2"/>
<circle clip-path="url(#clip262)" cx="1753.75" cy="693.239" r="7.2" fill="#008000" fill-rule="evenodd" fill-opacity="1" stroke="#000000" stroke-opacity="1" stroke-width="3.2"/>
<circle clip-path="url(#clip262)" cx="1768.3" cy="756.629" r="7.2" fill="#008000" fill-rule="evenodd" fill-opacity="1" stroke="#000000" stroke-opacity="1" stroke-width="3.2"/>
<circle clip-path="url(#clip262)" cx="1782.85" cy="827.991" r="7.2" fill="#008000" fill-rule="evenodd" fill-opacity="1" stroke="#000000" stroke-opacity="1" stroke-width="3.2"/>
<circle clip-path="url(#clip262)" cx="1797.4" cy="897.654" r="7.2" fill="#008000" fill-rule="evenodd" fill-opacity="1" stroke="#000000" stroke-opacity="1" stroke-width="3.2"/>
<circle clip-path="url(#clip262)" cx="1811.95" cy="952.237" r="7.2" fill="#008000" fill-rule="evenodd" fill-opacity="1" stroke="#000000" stroke-opacity="1" stroke-width="3.2"/>
<circle clip-path="url(#clip262)" cx="1826.5" cy="990.492" r="7.2" fill="#008000" fill-rule="evenodd" fill-opacity="1" stroke="#000000" stroke-opacity="1" stroke-width="3.2"/>
<circle clip-path="url(#clip262)" cx="1841.05" cy="1012.49" r="7.2" fill="#008000" fill-rule="evenodd" fill-opacity="1" stroke="#000000" stroke-opacity="1" stroke-width="3.2"/>
<circle clip-path="url(#clip262)" cx="1855.6" cy="1021.76" r="7.2" fill="#008000" fill-rule="evenodd" fill-opacity="1" stroke="#000000" stroke-opacity="1" stroke-width="3.2"/>
<circle clip-path="url(#clip262)" cx="1870.15" cy="1024.81" r="7.2" fill="#008000" fill-rule="evenodd" fill-opacity="1" stroke="#000000" stroke-opacity="1" stroke-width="3.2"/>
<circle clip-path="url(#clip262)" cx="1884.7" cy="1026.34" r="7.2" fill="#008000" fill-rule="evenodd" fill-opacity="1" stroke="#000000" stroke-opacity="1" stroke-width="3.2"/>
<circle clip-path="url(#clip262)" cx="1899.25" cy="1027.09" r="7.2" fill="#008000" fill-rule="evenodd" fill-opacity="1" stroke="#000000" stroke-opacity="1" stroke-width="3.2"/>
<circle clip-path="url(#clip262)" cx="1913.8" cy="1027.18" r="7.2" fill="#008000" fill-rule="evenodd" fill-opacity="1" stroke="#000000" stroke-opacity="1" stroke-width="3.2"/>
<circle clip-path="url(#clip262)" cx="1928.35" cy="1030.7" r="7.2" fill="#008000" fill-rule="evenodd" fill-opacity="1" stroke="#000000" stroke-opacity="1" stroke-width="3.2"/>
<circle clip-path="url(#clip262)" cx="1942.9" cy="1038.98" r="7.2" fill="#008000" fill-rule="evenodd" fill-opacity="1" stroke="#000000" stroke-opacity="1" stroke-width="3.2"/>
<circle clip-path="url(#clip262)" cx="1957.45" cy="1049.27" r="7.2" fill="#008000" fill-rule="evenodd" fill-opacity="1" stroke="#000000" stroke-opacity="1" stroke-width="3.2"/>
<circle clip-path="url(#clip262)" cx="1971.99" cy="1064.39" r="7.2" fill="#008000" fill-rule="evenodd" fill-opacity="1" stroke="#000000" stroke-opacity="1" stroke-width="3.2"/>
<circle clip-path="url(#clip262)" cx="1986.54" cy="1079.55" r="7.2" fill="#008000" fill-rule="evenodd" fill-opacity="1" stroke="#000000" stroke-opacity="1" stroke-width="3.2"/>
<circle clip-path="url(#clip262)" cx="2001.09" cy="1090.66" r="7.2" fill="#008000" fill-rule="evenodd" fill-opacity="1" stroke="#000000" stroke-opacity="1" stroke-width="3.2"/>
<circle clip-path="url(#clip262)" cx="2015.64" cy="1096.6" r="7.2" fill="#008000" fill-rule="evenodd" fill-opacity="1" stroke="#000000" stroke-opacity="1" stroke-width="3.2"/>
<circle clip-path="url(#clip262)" cx="2030.19" cy="1098.25" r="7.2" fill="#008000" fill-rule="evenodd" fill-opacity="1" stroke="#000000" stroke-opacity="1" stroke-width="3.2"/>
<circle clip-path="url(#clip262)" cx="2044.74" cy="1095.85" r="7.2" fill="#008000" fill-rule="evenodd" fill-opacity="1" stroke="#000000" stroke-opacity="1" stroke-width="3.2"/>
<circle clip-path="url(#clip262)" cx="2059.29" cy="1092.32" r="7.2" fill="#008000" fill-rule="evenodd" fill-opacity="1" stroke="#000000" stroke-opacity="1" stroke-width="3.2"/>
<circle clip-path="url(#clip262)" cx="2073.84" cy="1089.39" r="7.2" fill="#008000" fill-rule="evenodd" fill-opacity="1" stroke="#000000" stroke-opacity="1" stroke-width="3.2"/>
<circle clip-path="url(#clip262)" cx="2088.39" cy="1088.65" r="7.2" fill="#008000" fill-rule="evenodd" fill-opacity="1" stroke="#000000" stroke-opacity="1" stroke-width="3.2"/>
<circle clip-path="url(#clip262)" cx="2102.94" cy="1089.03" r="7.2" fill="#008000" fill-rule="evenodd" fill-opacity="1" stroke="#000000" stroke-opacity="1" stroke-width="3.2"/>
<circle clip-path="url(#clip262)" cx="2117.49" cy="1090.64" r="7.2" fill="#008000" fill-rule="evenodd" fill-opacity="1" stroke="#000000" stroke-opacity="1" stroke-width="3.2"/>
<circle clip-path="url(#clip262)" cx="2132.04" cy="1092.54" r="7.2" fill="#008000" fill-rule="evenodd" fill-opacity="1" stroke="#000000" stroke-opacity="1" stroke-width="3.2"/>
<circle clip-path="url(#clip262)" cx="2146.59" cy="1094.03" r="7.2" fill="#008000" fill-rule="evenodd" fill-opacity="1" stroke="#000000" stroke-opacity="1" stroke-width="3.2"/>
<circle clip-path="url(#clip262)" cx="2161.14" cy="1094.93" r="7.2" fill="#008000" fill-rule="evenodd" fill-opacity="1" stroke="#000000" stroke-opacity="1" stroke-width="3.2"/>
<circle clip-path="url(#clip262)" cx="2175.69" cy="1095.04" r="7.2" fill="#008000" fill-rule="evenodd" fill-opacity="1" stroke="#000000" stroke-opacity="1" stroke-width="3.2"/>
<circle clip-path="url(#clip262)" cx="2190.24" cy="1093.49" r="7.2" fill="#008000" fill-rule="evenodd" fill-opacity="1" stroke="#000000" stroke-opacity="1" stroke-width="3.2"/>
<circle clip-path="url(#clip262)" cx="2204.79" cy="1091.1" r="7.2" fill="#008000" fill-rule="evenodd" fill-opacity="1" stroke="#000000" stroke-opacity="1" stroke-width="3.2"/>
<circle clip-path="url(#clip262)" cx="2219.34" cy="1089.37" r="7.2" fill="#008000" fill-rule="evenodd" fill-opacity="1" stroke="#000000" stroke-opacity="1" stroke-width="3.2"/>
<circle clip-path="url(#clip262)" cx="2233.89" cy="1089.8" r="7.2" fill="#008000" fill-rule="evenodd" fill-opacity="1" stroke="#000000" stroke-opacity="1" stroke-width="3.2"/>
<circle clip-path="url(#clip262)" cx="2248.44" cy="1092.58" r="7.2" fill="#008000" fill-rule="evenodd" fill-opacity="1" stroke="#000000" stroke-opacity="1" stroke-width="3.2"/>
<circle clip-path="url(#clip262)" cx="2262.99" cy="1096.97" r="7.2" fill="#008000" fill-rule="evenodd" fill-opacity="1" stroke="#000000" stroke-opacity="1" stroke-width="3.2"/>
<circle clip-path="url(#clip262)" cx="2277.53" cy="1100.84" r="7.2" fill="#008000" fill-rule="evenodd" fill-opacity="1" stroke="#000000" stroke-opacity="1" stroke-width="3.2"/>
<circle clip-path="url(#clip262)" cx="2292.08" cy="1102.8" r="7.2" fill="#008000" fill-rule="evenodd" fill-opacity="1" stroke="#000000" stroke-opacity="1" stroke-width="3.2"/>
<circle clip-path="url(#clip262)" cx="269.7" cy="1090.64" r="7.2" fill="#008000" fill-rule="evenodd" fill-opacity="1" stroke="#000000" stroke-opacity="1" stroke-width="3.2"/>
<circle clip-path="url(#clip262)" cx="284.25" cy="1090.93" r="7.2" fill="#008000" fill-rule="evenodd" fill-opacity="1" stroke="#000000" stroke-opacity="1" stroke-width="3.2"/>
<circle clip-path="url(#clip262)" cx="298.799" cy="1092.04" r="7.2" fill="#008000" fill-rule="evenodd" fill-opacity="1" stroke="#000000" stroke-opacity="1" stroke-width="3.2"/>
<circle clip-path="url(#clip262)" cx="313.349" cy="1093.04" r="7.2" fill="#008000" fill-rule="evenodd" fill-opacity="1" stroke="#000000" stroke-opacity="1" stroke-width="3.2"/>
<circle clip-path="url(#clip262)" cx="327.898" cy="1093.36" r="7.2" fill="#008000" fill-rule="evenodd" fill-opacity="1" stroke="#000000" stroke-opacity="1" stroke-width="3.2"/>
<circle clip-path="url(#clip262)" cx="342.448" cy="1092.35" r="7.2" fill="#008000" fill-rule="evenodd" fill-opacity="1" stroke="#000000" stroke-opacity="1" stroke-width="3.2"/>
<circle clip-path="url(#clip262)" cx="356.997" cy="1090.71" r="7.2" fill="#008000" fill-rule="evenodd" fill-opacity="1" stroke="#000000" stroke-opacity="1" stroke-width="3.2"/>
<circle clip-path="url(#clip262)" cx="371.547" cy="1089.4" r="7.2" fill="#008000" fill-rule="evenodd" fill-opacity="1" stroke="#000000" stroke-opacity="1" stroke-width="3.2"/>
<circle clip-path="url(#clip262)" cx="386.096" cy="1089.48" r="7.2" fill="#008000" fill-rule="evenodd" fill-opacity="1" stroke="#000000" stroke-opacity="1" stroke-width="3.2"/>
<circle clip-path="url(#clip262)" cx="400.646" cy="1090.65" r="7.2" fill="#008000" fill-rule="evenodd" fill-opacity="1" stroke="#000000" stroke-opacity="1" stroke-width="3.2"/>
<circle clip-path="url(#clip262)" cx="415.195" cy="1092.46" r="7.2" fill="#008000" fill-rule="evenodd" fill-opacity="1" stroke="#000000" stroke-opacity="1" stroke-width="3.2"/>
<circle clip-path="url(#clip262)" cx="429.745" cy="1093.72" r="7.2" fill="#008000" fill-rule="evenodd" fill-opacity="1" stroke="#000000" stroke-opacity="1" stroke-width="3.2"/>
<circle clip-path="url(#clip262)" cx="444.294" cy="1093.66" r="7.2" fill="#008000" fill-rule="evenodd" fill-opacity="1" stroke="#000000" stroke-opacity="1" stroke-width="3.2"/>
<circle clip-path="url(#clip262)" cx="458.844" cy="1092.56" r="7.2" fill="#008000" fill-rule="evenodd" fill-opacity="1" stroke="#000000" stroke-opacity="1" stroke-width="3.2"/>
<circle clip-path="url(#clip262)" cx="473.393" cy="1090.54" r="7.2" fill="#008000" fill-rule="evenodd" fill-opacity="1" stroke="#000000" stroke-opacity="1" stroke-width="3.2"/>
<circle clip-path="url(#clip262)" cx="487.943" cy="1088.79" r="7.2" fill="#008000" fill-rule="evenodd" fill-opacity="1" stroke="#000000" stroke-opacity="1" stroke-width="3.2"/>
<circle clip-path="url(#clip262)" cx="502.492" cy="1087.86" r="7.2" fill="#008000" fill-rule="evenodd" fill-opacity="1" stroke="#000000" stroke-opacity="1" stroke-width="3.2"/>
<circle clip-path="url(#clip262)" cx="517.042" cy="1088.5" r="7.2" fill="#008000" fill-rule="evenodd" fill-opacity="1" stroke="#000000" stroke-opacity="1" stroke-width="3.2"/>
<circle clip-path="url(#clip262)" cx="531.592" cy="1090.83" r="7.2" fill="#008000" fill-rule="evenodd" fill-opacity="1" stroke="#000000" stroke-opacity="1" stroke-width="3.2"/>
<circle clip-path="url(#clip262)" cx="546.141" cy="1094.58" r="7.2" fill="#008000" fill-rule="evenodd" fill-opacity="1" stroke="#000000" stroke-opacity="1" stroke-width="3.2"/>
<circle clip-path="url(#clip262)" cx="560.691" cy="1098.51" r="7.2" fill="#008000" fill-rule="evenodd" fill-opacity="1" stroke="#000000" stroke-opacity="1" stroke-width="3.2"/>
<circle clip-path="url(#clip262)" cx="575.24" cy="1101.22" r="7.2" fill="#008000" fill-rule="evenodd" fill-opacity="1" stroke="#000000" stroke-opacity="1" stroke-width="3.2"/>
<circle clip-path="url(#clip262)" cx="589.79" cy="1101.19" r="7.2" fill="#008000" fill-rule="evenodd" fill-opacity="1" stroke="#000000" stroke-opacity="1" stroke-width="3.2"/>
<circle clip-path="url(#clip262)" cx="604.339" cy="1097.95" r="7.2" fill="#008000" fill-rule="evenodd" fill-opacity="1" stroke="#000000" stroke-opacity="1" stroke-width="3.2"/>
<circle clip-path="url(#clip262)" cx="618.889" cy="1092.6" r="7.2" fill="#008000" fill-rule="evenodd" fill-opacity="1" stroke="#000000" stroke-opacity="1" stroke-width="3.2"/>
<circle clip-path="url(#clip262)" cx="633.438" cy="1087.12" r="7.2" fill="#008000" fill-rule="evenodd" fill-opacity="1" stroke="#000000" stroke-opacity="1" stroke-width="3.2"/>
<circle clip-path="url(#clip262)" cx="647.988" cy="1083.75" r="7.2" fill="#008000" fill-rule="evenodd" fill-opacity="1" stroke="#000000" stroke-opacity="1" stroke-width="3.2"/>
<circle clip-path="url(#clip262)" cx="662.537" cy="1083.07" r="7.2" fill="#008000" fill-rule="evenodd" fill-opacity="1" stroke="#000000" stroke-opacity="1" stroke-width="3.2"/>
<circle clip-path="url(#clip262)" cx="677.087" cy="1084.72" r="7.2" fill="#008000" fill-rule="evenodd" fill-opacity="1" stroke="#000000" stroke-opacity="1" stroke-width="3.2"/>
<circle clip-path="url(#clip262)" cx="691.636" cy="1087.2" r="7.2" fill="#008000" fill-rule="evenodd" fill-opacity="1" stroke="#000000" stroke-opacity="1" stroke-width="3.2"/>
<circle clip-path="url(#clip262)" cx="706.186" cy="1089.47" r="7.2" fill="#008000" fill-rule="evenodd" fill-opacity="1" stroke="#000000" stroke-opacity="1" stroke-width="3.2"/>
<circle clip-path="url(#clip262)" cx="720.735" cy="1091.78" r="7.2" fill="#008000" fill-rule="evenodd" fill-opacity="1" stroke="#000000" stroke-opacity="1" stroke-width="3.2"/>
<circle clip-path="url(#clip262)" cx="735.285" cy="1094.15" r="7.2" fill="#008000" fill-rule="evenodd" fill-opacity="1" stroke="#000000" stroke-opacity="1" stroke-width="3.2"/>
<circle clip-path="url(#clip262)" cx="749.834" cy="1096.86" r="7.2" fill="#008000" fill-rule="evenodd" fill-opacity="1" stroke="#000000" stroke-opacity="1" stroke-width="3.2"/>
<circle clip-path="url(#clip262)" cx="764.384" cy="1099.45" r="7.2" fill="#008000" fill-rule="evenodd" fill-opacity="1" stroke="#000000" stroke-opacity="1" stroke-width="3.2"/>
<circle clip-path="url(#clip262)" cx="778.934" cy="1100.08" r="7.2" fill="#008000" fill-rule="evenodd" fill-opacity="1" stroke="#000000" stroke-opacity="1" stroke-width="3.2"/>
<circle clip-path="url(#clip262)" cx="793.483" cy="1098.13" r="7.2" fill="#008000" fill-rule="evenodd" fill-opacity="1" stroke="#000000" stroke-opacity="1" stroke-width="3.2"/>
<circle clip-path="url(#clip262)" cx="808.033" cy="1093.46" r="7.2" fill="#008000" fill-rule="evenodd" fill-opacity="1" stroke="#000000" stroke-opacity="1" stroke-width="3.2"/>
<circle clip-path="url(#clip262)" cx="822.582" cy="1088.3" r="7.2" fill="#008000" fill-rule="evenodd" fill-opacity="1" stroke="#000000" stroke-opacity="1" stroke-width="3.2"/>
<circle clip-path="url(#clip262)" cx="837.132" cy="1084.77" r="7.2" fill="#008000" fill-rule="evenodd" fill-opacity="1" stroke="#000000" stroke-opacity="1" stroke-width="3.2"/>
<circle clip-path="url(#clip262)" cx="851.681" cy="1085.08" r="7.2" fill="#008000" fill-rule="evenodd" fill-opacity="1" stroke="#000000" stroke-opacity="1" stroke-width="3.2"/>
<circle clip-path="url(#clip262)" cx="866.231" cy="1089.91" r="7.2" fill="#008000" fill-rule="evenodd" fill-opacity="1" stroke="#000000" stroke-opacity="1" stroke-width="3.2"/>
<circle clip-path="url(#clip262)" cx="880.78" cy="1097.43" r="7.2" fill="#008000" fill-rule="evenodd" fill-opacity="1" stroke="#000000" stroke-opacity="1" stroke-width="3.2"/>
<circle clip-path="url(#clip262)" cx="895.33" cy="1105.57" r="7.2" fill="#008000" fill-rule="evenodd" fill-opacity="1" stroke="#000000" stroke-opacity="1" stroke-width="3.2"/>
<circle clip-path="url(#clip262)" cx="909.879" cy="1110.74" r="7.2" fill="#008000" fill-rule="evenodd" fill-opacity="1" stroke="#000000" stroke-opacity="1" stroke-width="3.2"/>
<circle clip-path="url(#clip262)" cx="924.429" cy="1112.32" r="7.2" fill="#008000" fill-rule="evenodd" fill-opacity="1" stroke="#000000" stroke-opacity="1" stroke-width="3.2"/>
<circle clip-path="url(#clip262)" cx="938.978" cy="1111.39" r="7.2" fill="#008000" fill-rule="evenodd" fill-opacity="1" stroke="#000000" stroke-opacity="1" stroke-width="3.2"/>
<circle clip-path="url(#clip262)" cx="953.528" cy="1110.57" r="7.2" fill="#008000" fill-rule="evenodd" fill-opacity="1" stroke="#000000" stroke-opacity="1" stroke-width="3.2"/>
<circle clip-path="url(#clip262)" cx="968.077" cy="1111.85" r="7.2" fill="#008000" fill-rule="evenodd" fill-opacity="1" stroke="#000000" stroke-opacity="1" stroke-width="3.2"/>
<circle clip-path="url(#clip262)" cx="982.627" cy="1117.56" r="7.2" fill="#008000" fill-rule="evenodd" fill-opacity="1" stroke="#000000" stroke-opacity="1" stroke-width="3.2"/>
<circle clip-path="url(#clip262)" cx="997.176" cy="1125.74" r="7.2" fill="#008000" fill-rule="evenodd" fill-opacity="1" stroke="#000000" stroke-opacity="1" stroke-width="3.2"/>
<circle clip-path="url(#clip262)" cx="1011.73" cy="1133.4" r="7.2" fill="#008000" fill-rule="evenodd" fill-opacity="1" stroke="#000000" stroke-opacity="1" stroke-width="3.2"/>
<circle clip-path="url(#clip262)" cx="1026.28" cy="1137.11" r="7.2" fill="#008000" fill-rule="evenodd" fill-opacity="1" stroke="#000000" stroke-opacity="1" stroke-width="3.2"/>
<circle clip-path="url(#clip262)" cx="1040.83" cy="1133.98" r="7.2" fill="#008000" fill-rule="evenodd" fill-opacity="1" stroke="#000000" stroke-opacity="1" stroke-width="3.2"/>
<circle clip-path="url(#clip262)" cx="1055.37" cy="1125.93" r="7.2" fill="#008000" fill-rule="evenodd" fill-opacity="1" stroke="#000000" stroke-opacity="1" stroke-width="3.2"/>
<circle clip-path="url(#clip262)" cx="1069.92" cy="1114.64" r="7.2" fill="#008000" fill-rule="evenodd" fill-opacity="1" stroke="#000000" stroke-opacity="1" stroke-width="3.2"/>
<circle clip-path="url(#clip262)" cx="1084.47" cy="1101.62" r="7.2" fill="#008000" fill-rule="evenodd" fill-opacity="1" stroke="#000000" stroke-opacity="1" stroke-width="3.2"/>
<circle clip-path="url(#clip262)" cx="1099.02" cy="1089.3" r="7.2" fill="#008000" fill-rule="evenodd" fill-opacity="1" stroke="#000000" stroke-opacity="1" stroke-width="3.2"/>
<circle clip-path="url(#clip262)" cx="1113.57" cy="1077.66" r="7.2" fill="#008000" fill-rule="evenodd" fill-opacity="1" stroke="#000000" stroke-opacity="1" stroke-width="3.2"/>
<circle clip-path="url(#clip262)" cx="1128.12" cy="1065.19" r="7.2" fill="#008000" fill-rule="evenodd" fill-opacity="1" stroke="#000000" stroke-opacity="1" stroke-width="3.2"/>
<circle clip-path="url(#clip262)" cx="1142.67" cy="1053.81" r="7.2" fill="#008000" fill-rule="evenodd" fill-opacity="1" stroke="#000000" stroke-opacity="1" stroke-width="3.2"/>
<circle clip-path="url(#clip262)" cx="1157.22" cy="1045.93" r="7.2" fill="#008000" fill-rule="evenodd" fill-opacity="1" stroke="#000000" stroke-opacity="1" stroke-width="3.2"/>
<circle clip-path="url(#clip262)" cx="1171.77" cy="1044.1" r="7.2" fill="#008000" fill-rule="evenodd" fill-opacity="1" stroke="#000000" stroke-opacity="1" stroke-width="3.2"/>
<circle clip-path="url(#clip262)" cx="1186.32" cy="1050.11" r="7.2" fill="#008000" fill-rule="evenodd" fill-opacity="1" stroke="#000000" stroke-opacity="1" stroke-width="3.2"/>
<circle clip-path="url(#clip262)" cx="1200.87" cy="1064.78" r="7.2" fill="#008000" fill-rule="evenodd" fill-opacity="1" stroke="#000000" stroke-opacity="1" stroke-width="3.2"/>
<circle clip-path="url(#clip262)" cx="1215.42" cy="1085.31" r="7.2" fill="#008000" fill-rule="evenodd" fill-opacity="1" stroke="#000000" stroke-opacity="1" stroke-width="3.2"/>
<circle clip-path="url(#clip262)" cx="1229.97" cy="1108.37" r="7.2" fill="#008000" fill-rule="evenodd" fill-opacity="1" stroke="#000000" stroke-opacity="1" stroke-width="3.2"/>
<circle clip-path="url(#clip262)" cx="1244.52" cy="1131.68" r="7.2" fill="#008000" fill-rule="evenodd" fill-opacity="1" stroke="#000000" stroke-opacity="1" stroke-width="3.2"/>
<circle clip-path="url(#clip262)" cx="1259.07" cy="1154.38" r="7.2" fill="#008000" fill-rule="evenodd" fill-opacity="1" stroke="#000000" stroke-opacity="1" stroke-width="3.2"/>
<circle clip-path="url(#clip262)" cx="1273.62" cy="1175" r="7.2" fill="#008000" fill-rule="evenodd" fill-opacity="1" stroke="#000000" stroke-opacity="1" stroke-width="3.2"/>
<circle clip-path="url(#clip262)" cx="1288.17" cy="1195.08" r="7.2" fill="#008000" fill-rule="evenodd" fill-opacity="1" stroke="#000000" stroke-opacity="1" stroke-width="3.2"/>
<circle clip-path="url(#clip262)" cx="1302.72" cy="1212.63" r="7.2" fill="#008000" fill-rule="evenodd" fill-opacity="1" stroke="#000000" stroke-opacity="1" stroke-width="3.2"/>
<circle clip-path="url(#clip262)" cx="1317.27" cy="1227.29" r="7.2" fill="#008000" fill-rule="evenodd" fill-opacity="1" stroke="#000000" stroke-opacity="1" stroke-width="3.2"/>
<circle clip-path="url(#clip262)" cx="1331.82" cy="1238.44" r="7.2" fill="#008000" fill-rule="evenodd" fill-opacity="1" stroke="#000000" stroke-opacity="1" stroke-width="3.2"/>
<circle clip-path="url(#clip262)" cx="1346.37" cy="1248.02" r="7.2" fill="#008000" fill-rule="evenodd" fill-opacity="1" stroke="#000000" stroke-opacity="1" stroke-width="3.2"/>
<circle clip-path="url(#clip262)" cx="1360.91" cy="1258.76" r="7.2" fill="#008000" fill-rule="evenodd" fill-opacity="1" stroke="#000000" stroke-opacity="1" stroke-width="3.2"/>
<circle clip-path="url(#clip262)" cx="1375.46" cy="1271.69" r="7.2" fill="#008000" fill-rule="evenodd" fill-opacity="1" stroke="#000000" stroke-opacity="1" stroke-width="3.2"/>
<circle clip-path="url(#clip262)" cx="1390.01" cy="1288.37" r="7.2" fill="#008000" fill-rule="evenodd" fill-opacity="1" stroke="#000000" stroke-opacity="1" stroke-width="3.2"/>
<circle clip-path="url(#clip262)" cx="1404.56" cy="1306.61" r="7.2" fill="#008000" fill-rule="evenodd" fill-opacity="1" stroke="#000000" stroke-opacity="1" stroke-width="3.2"/>
<circle clip-path="url(#clip262)" cx="1419.11" cy="1322.48" r="7.2" fill="#008000" fill-rule="evenodd" fill-opacity="1" stroke="#000000" stroke-opacity="1" stroke-width="3.2"/>
<circle clip-path="url(#clip262)" cx="1433.66" cy="1337.08" r="7.2" fill="#008000" fill-rule="evenodd" fill-opacity="1" stroke="#000000" stroke-opacity="1" stroke-width="3.2"/>
<circle clip-path="url(#clip262)" cx="1448.21" cy="1348.48" r="7.2" fill="#008000" fill-rule="evenodd" fill-opacity="1" stroke="#000000" stroke-opacity="1" stroke-width="3.2"/>
<circle clip-path="url(#clip262)" cx="1462.76" cy="1358.02" r="7.2" fill="#008000" fill-rule="evenodd" fill-opacity="1" stroke="#000000" stroke-opacity="1" stroke-width="3.2"/>
<circle clip-path="url(#clip262)" cx="1477.31" cy="1369.21" r="7.2" fill="#008000" fill-rule="evenodd" fill-opacity="1" stroke="#000000" stroke-opacity="1" stroke-width="3.2"/>
<circle clip-path="url(#clip262)" cx="1491.86" cy="1383.98" r="7.2" fill="#008000" fill-rule="evenodd" fill-opacity="1" stroke="#000000" stroke-opacity="1" stroke-width="3.2"/>
<circle clip-path="url(#clip262)" cx="1506.41" cy="1402.11" r="7.2" fill="#008000" fill-rule="evenodd" fill-opacity="1" stroke="#000000" stroke-opacity="1" stroke-width="3.2"/>
<circle clip-path="url(#clip262)" cx="1520.96" cy="1420.75" r="7.2" fill="#008000" fill-rule="evenodd" fill-opacity="1" stroke="#000000" stroke-opacity="1" stroke-width="3.2"/>
<circle clip-path="url(#clip262)" cx="1535.51" cy="1436.79" r="7.2" fill="#008000" fill-rule="evenodd" fill-opacity="1" stroke="#000000" stroke-opacity="1" stroke-width="3.2"/>
<circle clip-path="url(#clip262)" cx="1550.06" cy="1445.72" r="7.2" fill="#008000" fill-rule="evenodd" fill-opacity="1" stroke="#000000" stroke-opacity="1" stroke-width="3.2"/>
<circle clip-path="url(#clip262)" cx="1564.61" cy="1443.43" r="7.2" fill="#008000" fill-rule="evenodd" fill-opacity="1" stroke="#000000" stroke-opacity="1" stroke-width="3.2"/>
<circle clip-path="url(#clip262)" cx="1579.16" cy="1432.3" r="7.2" fill="#008000" fill-rule="evenodd" fill-opacity="1" stroke="#000000" stroke-opacity="1" stroke-width="3.2"/>
<circle clip-path="url(#clip262)" cx="1593.71" cy="1413.64" r="7.2" fill="#008000" fill-rule="evenodd" fill-opacity="1" stroke="#000000" stroke-opacity="1" stroke-width="3.2"/>
<circle clip-path="url(#clip262)" cx="1608.26" cy="1391.87" r="7.2" fill="#008000" fill-rule="evenodd" fill-opacity="1" stroke="#000000" stroke-opacity="1" stroke-width="3.2"/>
<circle clip-path="url(#clip262)" cx="1622.81" cy="1374.64" r="7.2" fill="#008000" fill-rule="evenodd" fill-opacity="1" stroke="#000000" stroke-opacity="1" stroke-width="3.2"/>
<circle clip-path="url(#clip262)" cx="1637.36" cy="1363.86" r="7.2" fill="#008000" fill-rule="evenodd" fill-opacity="1" stroke="#000000" stroke-opacity="1" stroke-width="3.2"/>
<circle clip-path="url(#clip262)" cx="1651.91" cy="1361.41" r="7.2" fill="#008000" fill-rule="evenodd" fill-opacity="1" stroke="#000000" stroke-opacity="1" stroke-width="3.2"/>
<circle clip-path="url(#clip262)" cx="1666.45" cy="1367.56" r="7.2" fill="#008000" fill-rule="evenodd" fill-opacity="1" stroke="#000000" stroke-opacity="1" stroke-width="3.2"/>
<circle clip-path="url(#clip262)" cx="1681" cy="1379.66" r="7.2" fill="#008000" fill-rule="evenodd" fill-opacity="1" stroke="#000000" stroke-opacity="1" stroke-width="3.2"/>
<circle clip-path="url(#clip262)" cx="1695.55" cy="1392.43" r="7.2" fill="#008000" fill-rule="evenodd" fill-opacity="1" stroke="#000000" stroke-opacity="1" stroke-width="3.2"/>
<circle clip-path="url(#clip262)" cx="1710.1" cy="1401.3" r="7.2" fill="#008000" fill-rule="evenodd" fill-opacity="1" stroke="#000000" stroke-opacity="1" stroke-width="3.2"/>
<circle clip-path="url(#clip262)" cx="1724.65" cy="1401.79" r="7.2" fill="#008000" fill-rule="evenodd" fill-opacity="1" stroke="#000000" stroke-opacity="1" stroke-width="3.2"/>
<circle clip-path="url(#clip262)" cx="1739.2" cy="1390.17" r="7.2" fill="#008000" fill-rule="evenodd" fill-opacity="1" stroke="#000000" stroke-opacity="1" stroke-width="3.2"/>
<circle clip-path="url(#clip262)" cx="1753.75" cy="1365.87" r="7.2" fill="#008000" fill-rule="evenodd" fill-opacity="1" stroke="#000000" stroke-opacity="1" stroke-width="3.2"/>
<circle clip-path="url(#clip262)" cx="1768.3" cy="1334.26" r="7.2" fill="#008000" fill-rule="evenodd" fill-opacity="1" stroke="#000000" stroke-opacity="1" stroke-width="3.2"/>
<circle clip-path="url(#clip262)" cx="1782.85" cy="1299.02" r="7.2" fill="#008000" fill-rule="evenodd" fill-opacity="1" stroke="#000000" stroke-opacity="1" stroke-width="3.2"/>
<circle clip-path="url(#clip262)" cx="1797.4" cy="1266.88" r="7.2" fill="#008000" fill-rule="evenodd" fill-opacity="1" stroke="#000000" stroke-opacity="1" stroke-width="3.2"/>
<circle clip-path="url(#clip262)" cx="1811.95" cy="1241.99" r="7.2" fill="#008000" fill-rule="evenodd" fill-opacity="1" stroke="#000000" stroke-opacity="1" stroke-width="3.2"/>
<circle clip-path="url(#clip262)" cx="1826.5" cy="1222.75" r="7.2" fill="#008000" fill-rule="evenodd" fill-opacity="1" stroke="#000000" stroke-opacity="1" stroke-width="3.2"/>
<circle clip-path="url(#clip262)" cx="1841.05" cy="1205.72" r="7.2" fill="#008000" fill-rule="evenodd" fill-opacity="1" stroke="#000000" stroke-opacity="1" stroke-width="3.2"/>
<circle clip-path="url(#clip262)" cx="1855.6" cy="1185.67" r="7.2" fill="#008000" fill-rule="evenodd" fill-opacity="1" stroke="#000000" stroke-opacity="1" stroke-width="3.2"/>
<circle clip-path="url(#clip262)" cx="1870.15" cy="1161.85" r="7.2" fill="#008000" fill-rule="evenodd" fill-opacity="1" stroke="#000000" stroke-opacity="1" stroke-width="3.2"/>
<circle clip-path="url(#clip262)" cx="1884.7" cy="1137" r="7.2" fill="#008000" fill-rule="evenodd" fill-opacity="1" stroke="#000000" stroke-opacity="1" stroke-width="3.2"/>
<circle clip-path="url(#clip262)" cx="1899.25" cy="1114.11" r="7.2" fill="#008000" fill-rule="evenodd" fill-opacity="1" stroke="#000000" stroke-opacity="1" stroke-width="3.2"/>
<circle clip-path="url(#clip262)" cx="1913.8" cy="1098.7" r="7.2" fill="#008000" fill-rule="evenodd" fill-opacity="1" stroke="#000000" stroke-opacity="1" stroke-width="3.2"/>
<circle clip-path="url(#clip262)" cx="1928.35" cy="1090.23" r="7.2" fill="#008000" fill-rule="evenodd" fill-opacity="1" stroke="#000000" stroke-opacity="1" stroke-width="3.2"/>
<circle clip-path="url(#clip262)" cx="1942.9" cy="1087.41" r="7.2" fill="#008000" fill-rule="evenodd" fill-opacity="1" stroke="#000000" stroke-opacity="1" stroke-width="3.2"/>
<circle clip-path="url(#clip262)" cx="1957.45" cy="1089.41" r="7.2" fill="#008000" fill-rule="evenodd" fill-opacity="1" stroke="#000000" stroke-opacity="1" stroke-width="3.2"/>
<circle clip-path="url(#clip262)" cx="1971.99" cy="1092.65" r="7.2" fill="#008000" fill-rule="evenodd" fill-opacity="1" stroke="#000000" stroke-opacity="1" stroke-width="3.2"/>
<circle clip-path="url(#clip262)" cx="1986.54" cy="1097.76" r="7.2" fill="#008000" fill-rule="evenodd" fill-opacity="1" stroke="#000000" stroke-opacity="1" stroke-width="3.2"/>
<circle clip-path="url(#clip262)" cx="2001.09" cy="1106.01" r="7.2" fill="#008000" fill-rule="evenodd" fill-opacity="1" stroke="#000000" stroke-opacity="1" stroke-width="3.2"/>
<circle clip-path="url(#clip262)" cx="2015.64" cy="1116.86" r="7.2" fill="#008000" fill-rule="evenodd" fill-opacity="1" stroke="#000000" stroke-opacity="1" stroke-width="3.2"/>
<circle clip-path="url(#clip262)" cx="2030.19" cy="1127.82" r="7.2" fill="#008000" fill-rule="evenodd" fill-opacity="1" stroke="#000000" stroke-opacity="1" stroke-width="3.2"/>
<circle clip-path="url(#clip262)" cx="2044.74" cy="1137.64" r="7.2" fill="#008000" fill-rule="evenodd" fill-opacity="1" stroke="#000000" stroke-opacity="1" stroke-width="3.2"/>
<circle clip-path="url(#clip262)" cx="2059.29" cy="1144.25" r="7.2" fill="#008000" fill-rule="evenodd" fill-opacity="1" stroke="#000000" stroke-opacity="1" stroke-width="3.2"/>
<circle clip-path="url(#clip262)" cx="2073.84" cy="1146.67" r="7.2" fill="#008000" fill-rule="evenodd" fill-opacity="1" stroke="#000000" stroke-opacity="1" stroke-width="3.2"/>
<circle clip-path="url(#clip262)" cx="2088.39" cy="1146.72" r="7.2" fill="#008000" fill-rule="evenodd" fill-opacity="1" stroke="#000000" stroke-opacity="1" stroke-width="3.2"/>
<circle clip-path="url(#clip262)" cx="2102.94" cy="1146.84" r="7.2" fill="#008000" fill-rule="evenodd" fill-opacity="1" stroke="#000000" stroke-opacity="1" stroke-width="3.2"/>
<circle clip-path="url(#clip262)" cx="2117.49" cy="1146.53" r="7.2" fill="#008000" fill-rule="evenodd" fill-opacity="1" stroke="#000000" stroke-opacity="1" stroke-width="3.2"/>
<circle clip-path="url(#clip262)" cx="2132.04" cy="1145.35" r="7.2" fill="#008000" fill-rule="evenodd" fill-opacity="1" stroke="#000000" stroke-opacity="1" stroke-width="3.2"/>
<circle clip-path="url(#clip262)" cx="2146.59" cy="1142.14" r="7.2" fill="#008000" fill-rule="evenodd" fill-opacity="1" stroke="#000000" stroke-opacity="1" stroke-width="3.2"/>
<circle clip-path="url(#clip262)" cx="2161.14" cy="1137.06" r="7.2" fill="#008000" fill-rule="evenodd" fill-opacity="1" stroke="#000000" stroke-opacity="1" stroke-width="3.2"/>
<circle clip-path="url(#clip262)" cx="2175.69" cy="1131.7" r="7.2" fill="#008000" fill-rule="evenodd" fill-opacity="1" stroke="#000000" stroke-opacity="1" stroke-width="3.2"/>
<circle clip-path="url(#clip262)" cx="2190.24" cy="1127.67" r="7.2" fill="#008000" fill-rule="evenodd" fill-opacity="1" stroke="#000000" stroke-opacity="1" stroke-width="3.2"/>
<circle clip-path="url(#clip262)" cx="2204.79" cy="1126.47" r="7.2" fill="#008000" fill-rule="evenodd" fill-opacity="1" stroke="#000000" stroke-opacity="1" stroke-width="3.2"/>
<circle clip-path="url(#clip262)" cx="2219.34" cy="1127.53" r="7.2" fill="#008000" fill-rule="evenodd" fill-opacity="1" stroke="#000000" stroke-opacity="1" stroke-width="3.2"/>
<circle clip-path="url(#clip262)" cx="2233.89" cy="1127.98" r="7.2" fill="#008000" fill-rule="evenodd" fill-opacity="1" stroke="#000000" stroke-opacity="1" stroke-width="3.2"/>
<circle clip-path="url(#clip262)" cx="2248.44" cy="1125.88" r="7.2" fill="#008000" fill-rule="evenodd" fill-opacity="1" stroke="#000000" stroke-opacity="1" stroke-width="3.2"/>
<circle clip-path="url(#clip262)" cx="2262.99" cy="1120.54" r="7.2" fill="#008000" fill-rule="evenodd" fill-opacity="1" stroke="#000000" stroke-opacity="1" stroke-width="3.2"/>
<circle clip-path="url(#clip262)" cx="2277.53" cy="1113.37" r="7.2" fill="#008000" fill-rule="evenodd" fill-opacity="1" stroke="#000000" stroke-opacity="1" stroke-width="3.2"/>
<circle clip-path="url(#clip262)" cx="2292.08" cy="1106.8" r="7.2" fill="#008000" fill-rule="evenodd" fill-opacity="1" stroke="#000000" stroke-opacity="1" stroke-width="3.2"/>
</svg>
