<?xml version="1.0" encoding="utf-8"?>
<svg xmlns="http://www.w3.org/2000/svg" xmlns:xlink="http://www.w3.org/1999/xlink" width="600" height="400" viewBox="0 0 2400 1600">
<defs>
  <clipPath id="clip220">
    <rect x="0" y="0" width="2400" height="1600"/>
  </clipPath>
</defs>
<path clip-path="url(#clip220)" d="M0 1600 L2400 1600 L2400 8.88178e-14 L0 8.88178e-14  Z" fill="#ffffff" fill-rule="evenodd" fill-opacity="1"/>
<defs>
  <clipPath id="clip221">
    <rect x="480" y="0" width="1681" height="1600"/>
  </clipPath>
</defs>
<path clip-path="url(#clip220)" d="M239.19 1486.45 L2352.76 1486.45 L2352.76 47.2441 L239.19 47.2441  Z" fill="#ffffff" fill-rule="evenodd" fill-opacity="1"/>
<defs>
  <clipPath id="clip222">
    <rect x="239" y="47" width="2115" height="1440"/>
  </clipPath>
</defs>
<polyline clip-path="url(#clip220)" style="stroke:#000000; stroke-linecap:round; stroke-linejoin:round; stroke-width:4; stroke-opacity:1; fill:none" points="239.19,1486.45 2352.76,1486.45 "/>
<polyline clip-path="url(#clip220)" style="stroke:#000000; stroke-linecap:round; stroke-linejoin:round; stroke-width:4; stroke-opacity:1; fill:none" points="284.663,1486.45 284.663,1467.55 "/>
<polyline clip-path="url(#clip220)" style="stroke:#000000; stroke-linecap:round; stroke-linejoin:round; stroke-width:4; stroke-opacity:1; fill:none" points="643.284,1486.45 643.284,1467.55 "/>
<polyline clip-path="url(#clip220)" style="stroke:#000000; stroke-linecap:round; stroke-linejoin:round; stroke-width:4; stroke-opacity:1; fill:none" points="1001.9,1486.45 1001.9,1467.55 "/>
<polyline clip-path="url(#clip220)" style="stroke:#000000; stroke-linecap:round; stroke-linejoin:round; stroke-width:4; stroke-opacity:1; fill:none" points="1360.52,1486.45 1360.52,1467.55 "/>
<polyline clip-path="url(#clip220)" style="stroke:#000000; stroke-linecap:round; stroke-linejoin:round; stroke-width:4; stroke-opacity:1; fill:none" points="1719.15,1486.45 1719.15,1467.55 "/>
<polyline clip-path="url(#clip220)" style="stroke:#000000; stroke-linecap:round; stroke-linejoin:round; stroke-width:4; stroke-opacity:1; fill:none" points="2077.77,1486.45 2077.77,1467.55 "/>
<path clip-path="url(#clip220)" d="M284.663 1517.37 Q281.052 1517.37 279.224 1520.93 Q277.418 1524.47 277.418 1531.6 Q277.418 1538.71 279.224 1542.27 Q281.052 1545.82 284.663 1545.82 Q288.298 1545.82 290.103 1542.27 Q291.932 1538.71 291.932 1531.6 Q291.932 1524.47 290.103 1520.93 Q288.298 1517.37 284.663 1517.37 M284.663 1513.66 Q290.474 1513.66 293.529 1518.27 Q296.608 1522.85 296.608 1531.6 Q296.608 1540.33 293.529 1544.94 Q290.474 1549.52 284.663 1549.52 Q278.853 1549.52 275.775 1544.94 Q272.719 1540.33 272.719 1531.6 Q272.719 1522.85 275.775 1518.27 Q278.853 1513.66 284.663 1513.66 Z" fill="#000000" fill-rule="nonzero" fill-opacity="1" /><path clip-path="url(#clip220)" d="M622.555 1544.91 L638.874 1544.91 L638.874 1548.85 L616.93 1548.85 L616.93 1544.91 Q619.592 1542.16 624.175 1537.53 Q628.782 1532.88 629.962 1531.53 Q632.208 1529.01 633.087 1527.27 Q633.99 1525.51 633.99 1523.82 Q633.99 1521.07 632.046 1519.33 Q630.124 1517.6 627.022 1517.6 Q624.823 1517.6 622.37 1518.36 Q619.939 1519.13 617.161 1520.68 L617.161 1515.95 Q619.985 1514.82 622.439 1514.24 Q624.893 1513.66 626.93 1513.66 Q632.3 1513.66 635.495 1516.35 Q638.689 1519.03 638.689 1523.52 Q638.689 1525.65 637.879 1527.57 Q637.092 1529.47 634.985 1532.07 Q634.407 1532.74 631.305 1535.95 Q628.203 1539.15 622.555 1544.91 Z" fill="#000000" fill-rule="nonzero" fill-opacity="1" /><path clip-path="url(#clip220)" d="M648.735 1514.29 L667.092 1514.29 L667.092 1518.22 L653.018 1518.22 L653.018 1526.7 Q654.036 1526.35 655.055 1526.19 Q656.073 1526 657.092 1526 Q662.879 1526 666.258 1529.17 Q669.638 1532.34 669.638 1537.76 Q669.638 1543.34 666.166 1546.44 Q662.694 1549.52 656.374 1549.52 Q654.198 1549.52 651.93 1549.15 Q649.684 1548.78 647.277 1548.04 L647.277 1543.34 Q649.36 1544.47 651.582 1545.03 Q653.805 1545.58 656.282 1545.58 Q660.286 1545.58 662.624 1543.48 Q664.962 1541.37 664.962 1537.76 Q664.962 1534.15 662.624 1532.04 Q660.286 1529.94 656.282 1529.94 Q654.407 1529.94 652.532 1530.35 Q650.68 1530.77 648.735 1531.65 L648.735 1514.29 Z" fill="#000000" fill-rule="nonzero" fill-opacity="1" /><path clip-path="url(#clip220)" d="M976.604 1514.29 L994.96 1514.29 L994.96 1518.22 L980.886 1518.22 L980.886 1526.7 Q981.904 1526.35 982.923 1526.19 Q983.942 1526 984.96 1526 Q990.747 1526 994.127 1529.17 Q997.506 1532.34 997.506 1537.76 Q997.506 1543.34 994.034 1546.44 Q990.562 1549.52 984.242 1549.52 Q982.067 1549.52 979.798 1549.15 Q977.553 1548.78 975.145 1548.04 L975.145 1543.34 Q977.229 1544.47 979.451 1545.03 Q981.673 1545.58 984.15 1545.58 Q988.154 1545.58 990.492 1543.48 Q992.83 1541.37 992.83 1537.76 Q992.83 1534.15 990.492 1532.04 Q988.154 1529.94 984.15 1529.94 Q982.275 1529.94 980.4 1530.35 Q978.548 1530.77 976.604 1531.65 L976.604 1514.29 Z" fill="#000000" fill-rule="nonzero" fill-opacity="1" /><path clip-path="url(#clip220)" d="M1016.72 1517.37 Q1013.11 1517.37 1011.28 1520.93 Q1009.47 1524.47 1009.47 1531.6 Q1009.47 1538.71 1011.28 1542.27 Q1013.11 1545.82 1016.72 1545.82 Q1020.35 1545.82 1022.16 1542.27 Q1023.99 1538.71 1023.99 1531.6 Q1023.99 1524.47 1022.16 1520.93 Q1020.35 1517.37 1016.72 1517.37 M1016.72 1513.66 Q1022.53 1513.66 1025.58 1518.27 Q1028.66 1522.85 1028.66 1531.6 Q1028.66 1540.33 1025.58 1544.94 Q1022.53 1549.52 1016.72 1549.52 Q1010.91 1549.52 1007.83 1544.94 Q1004.77 1540.33 1004.77 1531.6 Q1004.77 1522.85 1007.83 1518.27 Q1010.91 1513.66 1016.72 1513.66 Z" fill="#000000" fill-rule="nonzero" fill-opacity="1" /><path clip-path="url(#clip220)" d="M1334.38 1514.29 L1356.6 1514.29 L1356.6 1516.28 L1344.06 1548.85 L1339.17 1548.85 L1350.98 1518.22 L1334.38 1518.22 L1334.38 1514.29 Z" fill="#000000" fill-rule="nonzero" fill-opacity="1" /><path clip-path="url(#clip220)" d="M1365.77 1514.29 L1384.12 1514.29 L1384.12 1518.22 L1370.05 1518.22 L1370.05 1526.7 Q1371.07 1526.35 1372.09 1526.19 Q1373.11 1526 1374.12 1526 Q1379.91 1526 1383.29 1529.17 Q1386.67 1532.34 1386.67 1537.76 Q1386.67 1543.34 1383.2 1546.44 Q1379.73 1549.52 1373.41 1549.52 Q1371.23 1549.52 1368.96 1549.15 Q1366.72 1548.78 1364.31 1548.04 L1364.31 1543.34 Q1366.39 1544.47 1368.62 1545.03 Q1370.84 1545.58 1373.31 1545.58 Q1377.32 1545.58 1379.66 1543.48 Q1381.99 1541.37 1381.99 1537.76 Q1381.99 1534.15 1379.66 1532.04 Q1377.32 1529.94 1373.31 1529.94 Q1371.44 1529.94 1369.56 1530.35 Q1367.71 1530.77 1365.77 1531.65 L1365.77 1514.29 Z" fill="#000000" fill-rule="nonzero" fill-opacity="1" /><path clip-path="url(#clip220)" d="M1678.75 1544.91 L1686.39 1544.91 L1686.39 1518.55 L1678.08 1520.21 L1678.08 1515.95 L1686.34 1514.29 L1691.02 1514.29 L1691.02 1544.91 L1698.66 1544.91 L1698.66 1548.85 L1678.75 1548.85 L1678.75 1544.91 Z" fill="#000000" fill-rule="nonzero" fill-opacity="1" /><path clip-path="url(#clip220)" d="M1718.1 1517.37 Q1714.49 1517.37 1712.66 1520.93 Q1710.86 1524.47 1710.86 1531.6 Q1710.86 1538.71 1712.66 1542.27 Q1714.49 1545.82 1718.1 1545.82 Q1721.74 1545.82 1723.54 1542.27 Q1725.37 1538.71 1725.37 1531.6 Q1725.37 1524.47 1723.54 1520.93 Q1721.74 1517.37 1718.1 1517.37 M1718.1 1513.66 Q1723.91 1513.66 1726.97 1518.27 Q1730.05 1522.85 1730.05 1531.6 Q1730.05 1540.33 1726.97 1544.94 Q1723.91 1549.52 1718.1 1549.52 Q1712.29 1549.52 1709.21 1544.94 Q1706.16 1540.33 1706.16 1531.6 Q1706.16 1522.85 1709.21 1518.27 Q1712.29 1513.66 1718.1 1513.66 Z" fill="#000000" fill-rule="nonzero" fill-opacity="1" /><path clip-path="url(#clip220)" d="M1748.27 1517.37 Q1744.65 1517.37 1742.83 1520.93 Q1741.02 1524.47 1741.02 1531.6 Q1741.02 1538.71 1742.83 1542.27 Q1744.65 1545.82 1748.27 1545.82 Q1751.9 1545.82 1753.71 1542.27 Q1755.53 1538.71 1755.53 1531.6 Q1755.53 1524.47 1753.71 1520.93 Q1751.9 1517.37 1748.27 1517.37 M1748.27 1513.66 Q1754.08 1513.66 1757.13 1518.27 Q1760.21 1522.85 1760.21 1531.6 Q1760.21 1540.33 1757.13 1544.94 Q1754.08 1549.52 1748.27 1549.52 Q1742.46 1549.52 1739.38 1544.94 Q1736.32 1540.33 1736.32 1531.6 Q1736.32 1522.85 1739.38 1518.27 Q1742.46 1513.66 1748.27 1513.66 Z" fill="#000000" fill-rule="nonzero" fill-opacity="1" /><path clip-path="url(#clip220)" d="M2037.87 1544.91 L2045.51 1544.91 L2045.51 1518.55 L2037.2 1520.21 L2037.2 1515.95 L2045.46 1514.29 L2050.14 1514.29 L2050.14 1544.91 L2057.78 1544.91 L2057.78 1548.85 L2037.87 1548.85 L2037.87 1544.91 Z" fill="#000000" fill-rule="nonzero" fill-opacity="1" /><path clip-path="url(#clip220)" d="M2071.25 1544.91 L2087.57 1544.91 L2087.57 1548.85 L2065.62 1548.85 L2065.62 1544.91 Q2068.29 1542.16 2072.87 1537.53 Q2077.48 1532.88 2078.66 1531.53 Q2080.9 1529.01 2081.78 1527.27 Q2082.68 1525.51 2082.68 1523.82 Q2082.68 1521.07 2080.74 1519.33 Q2078.82 1517.6 2075.72 1517.6 Q2073.52 1517.6 2071.06 1518.36 Q2068.63 1519.13 2065.86 1520.68 L2065.86 1515.95 Q2068.68 1514.82 2071.13 1514.24 Q2073.59 1513.66 2075.62 1513.66 Q2080.99 1513.66 2084.19 1516.35 Q2087.38 1519.03 2087.38 1523.52 Q2087.38 1525.65 2086.57 1527.57 Q2085.79 1529.47 2083.68 1532.07 Q2083.1 1532.74 2080 1535.95 Q2076.9 1539.15 2071.25 1544.91 Z" fill="#000000" fill-rule="nonzero" fill-opacity="1" /><path clip-path="url(#clip220)" d="M2097.43 1514.29 L2115.79 1514.29 L2115.79 1518.22 L2101.71 1518.22 L2101.71 1526.7 Q2102.73 1526.35 2103.75 1526.19 Q2104.77 1526 2105.79 1526 Q2111.57 1526 2114.95 1529.17 Q2118.33 1532.34 2118.33 1537.76 Q2118.33 1543.34 2114.86 1546.44 Q2111.39 1549.52 2105.07 1549.52 Q2102.89 1549.52 2100.62 1549.15 Q2098.38 1548.78 2095.97 1548.04 L2095.97 1543.34 Q2098.05 1544.47 2100.28 1545.03 Q2102.5 1545.58 2104.98 1545.58 Q2108.98 1545.58 2111.32 1543.48 Q2113.66 1541.37 2113.66 1537.76 Q2113.66 1534.15 2111.32 1532.04 Q2108.98 1529.94 2104.98 1529.94 Q2103.1 1529.94 2101.23 1530.35 Q2099.37 1530.77 2097.43 1531.65 L2097.43 1514.29 Z" fill="#000000" fill-rule="nonzero" fill-opacity="1" /><polyline clip-path="url(#clip220)" style="stroke:#000000; stroke-linecap:round; stroke-linejoin:round; stroke-width:4; stroke-opacity:1; fill:none" points="239.19,1486.45 239.19,47.2441 "/>
<polyline clip-path="url(#clip220)" style="stroke:#000000; stroke-linecap:round; stroke-linejoin:round; stroke-width:4; stroke-opacity:1; fill:none" points="239.19,1398.88 258.088,1398.88 "/>
<polyline clip-path="url(#clip220)" style="stroke:#000000; stroke-linecap:round; stroke-linejoin:round; stroke-width:4; stroke-opacity:1; fill:none" points="239.19,1199.37 258.088,1199.37 "/>
<polyline clip-path="url(#clip220)" style="stroke:#000000; stroke-linecap:round; stroke-linejoin:round; stroke-width:4; stroke-opacity:1; fill:none" points="239.19,999.866 258.088,999.866 "/>
<polyline clip-path="url(#clip220)" style="stroke:#000000; stroke-linecap:round; stroke-linejoin:round; stroke-width:4; stroke-opacity:1; fill:none" points="239.19,800.357 258.088,800.357 "/>
<polyline clip-path="url(#clip220)" style="stroke:#000000; stroke-linecap:round; stroke-linejoin:round; stroke-width:4; stroke-opacity:1; fill:none" points="239.19,600.849 258.088,600.849 "/>
<polyline clip-path="url(#clip220)" style="stroke:#000000; stroke-linecap:round; stroke-linejoin:round; stroke-width:4; stroke-opacity:1; fill:none" points="239.19,401.341 258.088,401.341 "/>
<polyline clip-path="url(#clip220)" style="stroke:#000000; stroke-linecap:round; stroke-linejoin:round; stroke-width:4; stroke-opacity:1; fill:none" points="239.19,201.832 258.088,201.832 "/>
<path clip-path="url(#clip220)" d="M50.9921 1399.33 L80.6679 1399.33 L80.6679 1403.27 L50.9921 1403.27 L50.9921 1399.33 Z" fill="#000000" fill-rule="nonzero" fill-opacity="1" /><path clip-path="url(#clip220)" d="M91.5706 1412.23 L99.2095 1412.23 L99.2095 1385.86 L90.8993 1387.53 L90.8993 1383.27 L99.1632 1381.6 L103.839 1381.6 L103.839 1412.23 L111.478 1412.23 L111.478 1416.16 L91.5706 1416.16 L91.5706 1412.23 Z" fill="#000000" fill-rule="nonzero" fill-opacity="1" /><path clip-path="url(#clip220)" d="M124.95 1412.23 L141.269 1412.23 L141.269 1416.16 L119.325 1416.16 L119.325 1412.23 Q121.987 1409.47 126.57 1404.84 Q131.177 1400.19 132.357 1398.85 Q134.603 1396.32 135.482 1394.59 Q136.385 1392.83 136.385 1391.14 Q136.385 1388.39 134.441 1386.65 Q132.519 1384.91 129.418 1384.91 Q127.219 1384.91 124.765 1385.68 Q122.334 1386.44 119.557 1387.99 L119.557 1383.27 Q122.381 1382.14 124.834 1381.56 Q127.288 1380.98 129.325 1380.98 Q134.695 1380.98 137.89 1383.66 Q141.084 1386.35 141.084 1390.84 Q141.084 1392.97 140.274 1394.89 Q139.487 1396.79 137.381 1399.38 Q136.802 1400.05 133.7 1403.27 Q130.598 1406.46 124.95 1412.23 Z" fill="#000000" fill-rule="nonzero" fill-opacity="1" /><path clip-path="url(#clip220)" d="M151.13 1381.6 L169.487 1381.6 L169.487 1385.54 L155.413 1385.54 L155.413 1394.01 Q156.431 1393.66 157.45 1393.5 Q158.468 1393.32 159.487 1393.32 Q165.274 1393.32 168.654 1396.49 Q172.033 1399.66 172.033 1405.07 Q172.033 1410.65 168.561 1413.76 Q165.089 1416.83 158.769 1416.83 Q156.593 1416.83 154.325 1416.46 Q152.08 1416.09 149.672 1415.35 L149.672 1410.65 Q151.755 1411.79 153.978 1412.34 Q156.2 1412.9 158.677 1412.9 Q162.681 1412.9 165.019 1410.79 Q167.357 1408.69 167.357 1405.07 Q167.357 1401.46 165.019 1399.36 Q162.681 1397.25 158.677 1397.25 Q156.802 1397.25 154.927 1397.67 Q153.075 1398.08 151.13 1398.96 L151.13 1381.6 Z" fill="#000000" fill-rule="nonzero" fill-opacity="1" /><path clip-path="url(#clip220)" d="M191.246 1384.68 Q187.635 1384.68 185.806 1388.25 Q184.001 1391.79 184.001 1398.92 Q184.001 1406.02 185.806 1409.59 Q187.635 1413.13 191.246 1413.13 Q194.88 1413.13 196.686 1409.59 Q198.514 1406.02 198.514 1398.92 Q198.514 1391.79 196.686 1388.25 Q194.88 1384.68 191.246 1384.68 M191.246 1380.98 Q197.056 1380.98 200.112 1385.58 Q203.19 1390.17 203.19 1398.92 Q203.19 1407.64 200.112 1412.25 Q197.056 1416.83 191.246 1416.83 Q185.436 1416.83 182.357 1412.25 Q179.302 1407.64 179.302 1398.92 Q179.302 1390.17 182.357 1385.58 Q185.436 1380.98 191.246 1380.98 Z" fill="#000000" fill-rule="nonzero" fill-opacity="1" /><path clip-path="url(#clip220)" d="M50.9921 1199.83 L80.6679 1199.83 L80.6679 1203.76 L50.9921 1203.76 L50.9921 1199.83 Z" fill="#000000" fill-rule="nonzero" fill-opacity="1" /><path clip-path="url(#clip220)" d="M91.5706 1212.72 L99.2095 1212.72 L99.2095 1186.35 L90.8993 1188.02 L90.8993 1183.76 L99.1632 1182.09 L103.839 1182.09 L103.839 1212.72 L111.478 1212.72 L111.478 1216.65 L91.5706 1216.65 L91.5706 1212.72 Z" fill="#000000" fill-rule="nonzero" fill-opacity="1" /><path clip-path="url(#clip220)" d="M130.922 1185.17 Q127.311 1185.17 125.482 1188.74 Q123.677 1192.28 123.677 1199.41 Q123.677 1206.52 125.482 1210.08 Q127.311 1213.62 130.922 1213.62 Q134.556 1213.62 136.362 1210.08 Q138.191 1206.52 138.191 1199.41 Q138.191 1192.28 136.362 1188.74 Q134.556 1185.17 130.922 1185.17 M130.922 1181.47 Q136.732 1181.47 139.788 1186.08 Q142.867 1190.66 142.867 1199.41 Q142.867 1208.14 139.788 1212.74 Q136.732 1217.33 130.922 1217.33 Q125.112 1217.33 122.033 1212.74 Q118.978 1208.14 118.978 1199.41 Q118.978 1190.66 122.033 1186.08 Q125.112 1181.47 130.922 1181.47 Z" fill="#000000" fill-rule="nonzero" fill-opacity="1" /><path clip-path="url(#clip220)" d="M161.084 1185.17 Q157.473 1185.17 155.644 1188.74 Q153.839 1192.28 153.839 1199.41 Q153.839 1206.52 155.644 1210.08 Q157.473 1213.62 161.084 1213.62 Q164.718 1213.62 166.524 1210.08 Q168.353 1206.52 168.353 1199.41 Q168.353 1192.28 166.524 1188.74 Q164.718 1185.17 161.084 1185.17 M161.084 1181.47 Q166.894 1181.47 169.95 1186.08 Q173.029 1190.66 173.029 1199.41 Q173.029 1208.14 169.95 1212.74 Q166.894 1217.33 161.084 1217.33 Q155.274 1217.33 152.195 1212.74 Q149.14 1208.14 149.14 1199.41 Q149.14 1190.66 152.195 1186.08 Q155.274 1181.47 161.084 1181.47 Z" fill="#000000" fill-rule="nonzero" fill-opacity="1" /><path clip-path="url(#clip220)" d="M191.246 1185.17 Q187.635 1185.17 185.806 1188.74 Q184.001 1192.28 184.001 1199.41 Q184.001 1206.52 185.806 1210.08 Q187.635 1213.62 191.246 1213.62 Q194.88 1213.62 196.686 1210.08 Q198.514 1206.52 198.514 1199.41 Q198.514 1192.28 196.686 1188.74 Q194.88 1185.17 191.246 1185.17 M191.246 1181.47 Q197.056 1181.47 200.112 1186.08 Q203.19 1190.66 203.19 1199.41 Q203.19 1208.14 200.112 1212.74 Q197.056 1217.33 191.246 1217.33 Q185.436 1217.33 182.357 1212.74 Q179.302 1208.14 179.302 1199.41 Q179.302 1190.66 182.357 1186.08 Q185.436 1181.47 191.246 1181.47 Z" fill="#000000" fill-rule="nonzero" fill-opacity="1" /><path clip-path="url(#clip220)" d="M81.154 1000.32 L110.83 1000.32 L110.83 1004.25 L81.154 1004.25 L81.154 1000.32 Z" fill="#000000" fill-rule="nonzero" fill-opacity="1" /><path clip-path="url(#clip220)" d="M119.742 982.586 L141.964 982.586 L141.964 984.577 L129.418 1017.15 L124.533 1017.15 L136.339 986.521 L119.742 986.521 L119.742 982.586 Z" fill="#000000" fill-rule="nonzero" fill-opacity="1" /><path clip-path="url(#clip220)" d="M151.13 982.586 L169.487 982.586 L169.487 986.521 L155.413 986.521 L155.413 994.993 Q156.431 994.646 157.45 994.484 Q158.468 994.299 159.487 994.299 Q165.274 994.299 168.654 997.47 Q172.033 1000.64 172.033 1006.06 Q172.033 1011.64 168.561 1014.74 Q165.089 1017.82 158.769 1017.82 Q156.593 1017.82 154.325 1017.45 Q152.08 1017.08 149.672 1016.34 L149.672 1011.64 Q151.755 1012.77 153.978 1013.33 Q156.2 1013.88 158.677 1013.88 Q162.681 1013.88 165.019 1011.78 Q167.357 1009.67 167.357 1006.06 Q167.357 1002.45 165.019 1000.34 Q162.681 998.234 158.677 998.234 Q156.802 998.234 154.927 998.651 Q153.075 999.067 151.13 999.947 L151.13 982.586 Z" fill="#000000" fill-rule="nonzero" fill-opacity="1" /><path clip-path="url(#clip220)" d="M191.246 985.665 Q187.635 985.665 185.806 989.229 Q184.001 992.771 184.001 999.901 Q184.001 1007.01 185.806 1010.57 Q187.635 1014.11 191.246 1014.11 Q194.88 1014.11 196.686 1010.57 Q198.514 1007.01 198.514 999.901 Q198.514 992.771 196.686 989.229 Q194.88 985.665 191.246 985.665 M191.246 981.961 Q197.056 981.961 200.112 986.567 Q203.19 991.151 203.19 999.901 Q203.19 1008.63 200.112 1013.23 Q197.056 1017.82 191.246 1017.82 Q185.436 1017.82 182.357 1013.23 Q179.302 1008.63 179.302 999.901 Q179.302 991.151 182.357 986.567 Q185.436 981.961 191.246 981.961 Z" fill="#000000" fill-rule="nonzero" fill-opacity="1" /><path clip-path="url(#clip220)" d="M81.154 800.809 L110.83 800.809 L110.83 804.744 L81.154 804.744 L81.154 800.809 Z" fill="#000000" fill-rule="nonzero" fill-opacity="1" /><path clip-path="url(#clip220)" d="M120.969 783.077 L139.325 783.077 L139.325 787.013 L125.251 787.013 L125.251 795.485 Q126.27 795.138 127.288 794.976 Q128.307 794.79 129.325 794.79 Q135.112 794.79 138.492 797.962 Q141.871 801.133 141.871 806.55 Q141.871 812.128 138.399 815.23 Q134.927 818.309 128.607 818.309 Q126.432 818.309 124.163 817.938 Q121.918 817.568 119.51 816.827 L119.51 812.128 Q121.594 813.263 123.816 813.818 Q126.038 814.374 128.515 814.374 Q132.519 814.374 134.857 812.267 Q137.195 810.161 137.195 806.55 Q137.195 802.938 134.857 800.832 Q132.519 798.726 128.515 798.726 Q126.64 798.726 124.765 799.142 Q122.913 799.559 120.969 800.439 L120.969 783.077 Z" fill="#000000" fill-rule="nonzero" fill-opacity="1" /><path clip-path="url(#clip220)" d="M161.084 786.156 Q157.473 786.156 155.644 789.721 Q153.839 793.263 153.839 800.392 Q153.839 807.499 155.644 811.063 Q157.473 814.605 161.084 814.605 Q164.718 814.605 166.524 811.063 Q168.353 807.499 168.353 800.392 Q168.353 793.263 166.524 789.721 Q164.718 786.156 161.084 786.156 M161.084 782.452 Q166.894 782.452 169.95 787.059 Q173.029 791.642 173.029 800.392 Q173.029 809.119 169.95 813.725 Q166.894 818.309 161.084 818.309 Q155.274 818.309 152.195 813.725 Q149.14 809.119 149.14 800.392 Q149.14 791.642 152.195 787.059 Q155.274 782.452 161.084 782.452 Z" fill="#000000" fill-rule="nonzero" fill-opacity="1" /><path clip-path="url(#clip220)" d="M191.246 786.156 Q187.635 786.156 185.806 789.721 Q184.001 793.263 184.001 800.392 Q184.001 807.499 185.806 811.063 Q187.635 814.605 191.246 814.605 Q194.88 814.605 196.686 811.063 Q198.514 807.499 198.514 800.392 Q198.514 793.263 196.686 789.721 Q194.88 786.156 191.246 786.156 M191.246 782.452 Q197.056 782.452 200.112 787.059 Q203.19 791.642 203.19 800.392 Q203.19 809.119 200.112 813.725 Q197.056 818.309 191.246 818.309 Q185.436 818.309 182.357 813.725 Q179.302 809.119 179.302 800.392 Q179.302 791.642 182.357 787.059 Q185.436 782.452 191.246 782.452 Z" fill="#000000" fill-rule="nonzero" fill-opacity="1" /><path clip-path="url(#clip220)" d="M81.154 601.3 L110.83 601.3 L110.83 605.236 L81.154 605.236 L81.154 601.3 Z" fill="#000000" fill-rule="nonzero" fill-opacity="1" /><path clip-path="url(#clip220)" d="M124.95 614.194 L141.269 614.194 L141.269 618.129 L119.325 618.129 L119.325 614.194 Q121.987 611.439 126.57 606.81 Q131.177 602.157 132.357 600.814 Q134.603 598.291 135.482 596.555 Q136.385 594.796 136.385 593.106 Q136.385 590.351 134.441 588.615 Q132.519 586.879 129.418 586.879 Q127.219 586.879 124.765 587.643 Q122.334 588.407 119.557 589.958 L119.557 585.236 Q122.381 584.101 124.834 583.523 Q127.288 582.944 129.325 582.944 Q134.695 582.944 137.89 585.629 Q141.084 588.314 141.084 592.805 Q141.084 594.935 140.274 596.856 Q139.487 598.754 137.381 601.347 Q136.802 602.018 133.7 605.236 Q130.598 608.43 124.95 614.194 Z" fill="#000000" fill-rule="nonzero" fill-opacity="1" /><path clip-path="url(#clip220)" d="M151.13 583.569 L169.487 583.569 L169.487 587.504 L155.413 587.504 L155.413 595.976 Q156.431 595.629 157.45 595.467 Q158.468 595.282 159.487 595.282 Q165.274 595.282 168.654 598.453 Q172.033 601.625 172.033 607.041 Q172.033 612.62 168.561 615.722 Q165.089 618.8 158.769 618.8 Q156.593 618.8 154.325 618.43 Q152.08 618.06 149.672 617.319 L149.672 612.62 Q151.755 613.754 153.978 614.31 Q156.2 614.865 158.677 614.865 Q162.681 614.865 165.019 612.759 Q167.357 610.652 167.357 607.041 Q167.357 603.43 165.019 601.324 Q162.681 599.217 158.677 599.217 Q156.802 599.217 154.927 599.634 Q153.075 600.05 151.13 600.93 L151.13 583.569 Z" fill="#000000" fill-rule="nonzero" fill-opacity="1" /><path clip-path="url(#clip220)" d="M191.246 586.648 Q187.635 586.648 185.806 590.213 Q184.001 593.754 184.001 600.884 Q184.001 607.99 185.806 611.555 Q187.635 615.097 191.246 615.097 Q194.88 615.097 196.686 611.555 Q198.514 607.99 198.514 600.884 Q198.514 593.754 196.686 590.213 Q194.88 586.648 191.246 586.648 M191.246 582.944 Q197.056 582.944 200.112 587.551 Q203.19 592.134 203.19 600.884 Q203.19 609.611 200.112 614.217 Q197.056 618.8 191.246 618.8 Q185.436 618.8 182.357 614.217 Q179.302 609.611 179.302 600.884 Q179.302 592.134 182.357 587.551 Q185.436 582.944 191.246 582.944 Z" fill="#000000" fill-rule="nonzero" fill-opacity="1" /><path clip-path="url(#clip220)" d="M191.246 387.139 Q187.635 387.139 185.806 390.704 Q184.001 394.246 184.001 401.375 Q184.001 408.482 185.806 412.047 Q187.635 415.588 191.246 415.588 Q194.88 415.588 196.686 412.047 Q198.514 408.482 198.514 401.375 Q198.514 394.246 196.686 390.704 Q194.88 387.139 191.246 387.139 M191.246 383.436 Q197.056 383.436 200.112 388.042 Q203.19 392.625 203.19 401.375 Q203.19 410.102 200.112 414.709 Q197.056 419.292 191.246 419.292 Q185.436 419.292 182.357 414.709 Q179.302 410.102 179.302 401.375 Q179.302 392.625 182.357 388.042 Q185.436 383.436 191.246 383.436 Z" fill="#000000" fill-rule="nonzero" fill-opacity="1" /><path clip-path="url(#clip220)" d="M124.95 215.177 L141.269 215.177 L141.269 219.112 L119.325 219.112 L119.325 215.177 Q121.987 212.422 126.57 207.793 Q131.177 203.14 132.357 201.797 Q134.603 199.274 135.482 197.538 Q136.385 195.779 136.385 194.089 Q136.385 191.335 134.441 189.598 Q132.519 187.862 129.418 187.862 Q127.219 187.862 124.765 188.626 Q122.334 189.39 119.557 190.941 L119.557 186.219 Q122.381 185.085 124.834 184.506 Q127.288 183.927 129.325 183.927 Q134.695 183.927 137.89 186.612 Q141.084 189.298 141.084 193.788 Q141.084 195.918 140.274 197.839 Q139.487 199.737 137.381 202.33 Q136.802 203.001 133.7 206.219 Q130.598 209.413 124.95 215.177 Z" fill="#000000" fill-rule="nonzero" fill-opacity="1" /><path clip-path="url(#clip220)" d="M151.13 184.552 L169.487 184.552 L169.487 188.487 L155.413 188.487 L155.413 196.96 Q156.431 196.612 157.45 196.45 Q158.468 196.265 159.487 196.265 Q165.274 196.265 168.654 199.436 Q172.033 202.608 172.033 208.024 Q172.033 213.603 168.561 216.705 Q165.089 219.783 158.769 219.783 Q156.593 219.783 154.325 219.413 Q152.08 219.043 149.672 218.302 L149.672 213.603 Q151.755 214.737 153.978 215.293 Q156.2 215.848 158.677 215.848 Q162.681 215.848 165.019 213.742 Q167.357 211.635 167.357 208.024 Q167.357 204.413 165.019 202.307 Q162.681 200.2 158.677 200.2 Q156.802 200.2 154.927 200.617 Q153.075 201.034 151.13 201.913 L151.13 184.552 Z" fill="#000000" fill-rule="nonzero" fill-opacity="1" /><path clip-path="url(#clip220)" d="M191.246 187.631 Q187.635 187.631 185.806 191.196 Q184.001 194.737 184.001 201.867 Q184.001 208.973 185.806 212.538 Q187.635 216.08 191.246 216.08 Q194.88 216.08 196.686 212.538 Q198.514 208.973 198.514 201.867 Q198.514 194.737 196.686 191.196 Q194.88 187.631 191.246 187.631 M191.246 183.927 Q197.056 183.927 200.112 188.534 Q203.19 193.117 203.19 201.867 Q203.19 210.594 200.112 215.2 Q197.056 219.783 191.246 219.783 Q185.436 219.783 182.357 215.2 Q179.302 210.594 179.302 201.867 Q179.302 193.117 182.357 188.534 Q185.436 183.927 191.246 183.927 Z" fill="#000000" fill-rule="nonzero" fill-opacity="1" /><path clip-path="url(#clip222)" d="M299.008 401.368 L313.353 401.376 L327.698 401.38 L342.043 401.365 L356.388 401.348 L370.732 401.345 L385.077 401.356 L399.422 401.378 L413.767 401.372 L428.112 401.375 L442.456 401.415 L456.801 401.435 L471.146 401.445 L485.491 401.493 L499.836 401.526 L514.181 401.591 L528.525 401.665 L542.87 401.736 L557.215 401.824 L571.56 401.948 L585.905 402.146 L600.249 402.288 L614.594 402.493 L628.939 402.679 L643.284 402.913 L657.629 403.25 L671.974 403.733 L686.318 404.172 L700.663 404.829 L715.008 405.331 L729.353 406.203 L743.698 407.614 L758.042 408.917 L772.387 410.276 L786.732 412.481 L801.077 414.691 L815.422 417.469 L829.767 420.096 L844.111 424.454 L858.456 428.942 L872.801 435.885 L887.146 442.116 L901.491 449.816 L915.835 460.571 L930.18 470.891 L944.525 484.039 L958.87 495.37 L973.215 511.607 L987.56 524.853 L1001.9 540.28 L1016.25 555.907 L1030.59 572.857 L1044.94 594.335 L1059.28 615.877 L1073.63 638.062 L1087.97 662.527 L1102.32 682.621 L1116.66 705.766 L1131.01 722.741 L1145.35 744.709 L1159.7 769.077 L1174.04 792.942 L1188.39 808.269 L1202.73 835.973 L1217.08 860.711 L1231.42 887.294 L1245.77 911.196 L1260.11 930.281 L1274.46 969.525 L1288.8 1001.15 L1303.15 1043.85 L1317.49 1076.71 L1331.84 1108.21 L1346.18 1136.25 L1360.52 1158.48 L1374.87 1175.04 L1389.21 1212.17 L1403.56 1255.59 L1417.9 1286.03 L1432.25 1311.39 L1446.59 1327.18 L1460.94 1342.51 L1475.28 1354.7 L1489.63 1383.8 L1503.97 1412.7 L1518.32 1445.72 L1532.66 1442.25 L1547.01 1436.21 L1561.35 1420.6 L1575.7 1391.9 L1590.04 1372.47 L1604.39 1352.16 L1618.73 1293.94 L1633.08 1263.15 L1647.42 1226.26 L1661.77 1201.24 L1676.11 1175.88 L1690.46 1177.5 L1704.8 1150.29 L1719.15 1138.45 L1733.49 1139.52 L1747.83 1105.29 L1762.18 1097.6 L1776.52 1087.75 L1790.87 1082.73 L1805.21 1069.61 L1819.56 1066.78 L1833.9 1050.25 L1848.25 1020.76 L1862.59 969.401 L1876.94 942.036 L1891.28 908.169 L1905.63 876.144 L1919.97 845.382 L1934.32 814.504 L1948.66 788.92 L1963.01 773.031 L1977.35 735.549 L1991.7 701.525 L2006.04 685.156 L2020.39 656.701 L2034.73 623.055 L2049.08 609.428 L2063.42 571.982 L2077.77 554.108 L2092.11 534.998 L2106.46 521.373 L2120.8 479.764 L2135.15 455.546 L2149.49 445.001 L2163.83 437.143 L2178.18 428.711 L2192.52 422.683 L2206.87 415.992 L2221.21 410.294 L2235.56 407.772 L2249.9 405.355 L2264.25 405.576 L2278.59 403.438 L2292.94 404.279 L2292.94 383.948 L2278.59 384.4 L2264.25 381.781 L2249.9 380.081 L2235.56 377.793 L2221.21 377.212 L2206.87 372.773 L2192.52 369.017 L2178.18 365.589 L2163.83 362.355 L2149.49 357.813 L2135.15 353.137 L2120.8 341.594 L2106.46 321.936 L2092.11 317.803 L2077.77 308.757 L2063.42 304.072 L2049.08 286.614 L2034.73 282.28 L2020.39 271.059 L2006.04 264.251 L1991.7 260.637 L1977.35 262.98 L1963.01 257.108 L1948.66 263.358 L1934.32 266.01 L1919.97 269.113 L1905.63 274.24 L1891.28 277.818 L1876.94 276.842 L1862.59 290.421 L1848.25 287.002 L1833.9 293.042 L1819.56 310.7 L1805.21 327.17 L1790.87 335.686 L1776.52 351.167 L1762.18 372.375 L1747.83 389.894 L1733.49 402.177 L1719.15 426.831 L1704.8 456.423 L1690.46 480.281 L1676.11 485.684 L1661.77 486.897 L1647.42 501.181 L1633.08 516.779 L1618.73 518.731 L1604.39 528.68 L1590.04 534.246 L1575.7 540.829 L1561.35 557.7 L1547.01 575.757 L1532.66 584.404 L1518.32 596.148 L1503.97 626.705 L1489.63 640.673 L1475.28 665.56 L1460.94 662.521 L1446.59 654.592 L1432.25 641.98 L1417.9 635.497 L1403.56 643.983 L1389.21 648.584 L1374.87 647.181 L1360.52 632.035 L1346.18 624.761 L1331.84 620.602 L1317.49 613.057 L1303.15 593.896 L1288.8 589.651 L1274.46 577.334 L1260.11 562.527 L1245.77 540.787 L1231.42 523.972 L1217.08 509.927 L1202.73 501.504 L1188.39 485.368 L1174.04 477.568 L1159.7 465.099 L1145.35 448.356 L1131.01 437.183 L1116.66 424.42 L1102.32 413.789 L1087.97 398.135 L1073.63 390.045 L1059.28 383.947 L1044.94 377.033 L1030.59 370.163 L1016.25 372.531 L1001.9 370.849 L987.56 374.97 L973.215 379.627 L958.87 378.71 L944.525 379.272 L930.18 379.458 L915.835 380.063 L901.491 380.261 L887.146 383.944 L872.801 384.56 L858.456 386.928 L844.111 389.796 L829.767 392.342 L815.422 392.552 L801.077 393.868 L786.732 394.135 L772.387 395.152 L758.042 396.139 L743.698 396.93 L729.353 397.984 L715.008 398.296 L700.663 398.537 L686.318 398.993 L671.974 399.263 L657.629 399.613 L643.284 399.841 L628.939 399.881 L614.594 400.043 L600.249 400.213 L585.905 400.267 L571.56 400.442 L557.215 400.499 L542.87 400.537 L528.525 400.605 L514.181 400.652 L499.836 400.727 L485.491 400.773 L471.146 400.819 L456.801 400.803 L442.456 400.841 L428.112 400.895 L413.767 400.872 L399.422 400.881 L385.077 400.875 L370.732 400.878 L356.388 400.872 L342.043 400.869 L327.698 400.861 L313.353 400.853 L299.008 400.846  Z" fill="#009af9" fill-rule="evenodd" fill-opacity="0.5"/>
<polyline clip-path="url(#clip222)" style="stroke:#009af9; stroke-linecap:round; stroke-linejoin:round; stroke-width:4; stroke-opacity:0.2; fill:none" points="299.008,401.107 313.353,401.115 327.698,401.121 342.043,401.117 356.388,401.11 370.732,401.112 385.077,401.116 399.422,401.13 413.767,401.122 428.112,401.135 442.456,401.128 456.801,401.119 471.146,401.132 485.491,401.133 499.836,401.126 514.181,401.121 528.525,401.135 542.87,401.136 557.215,401.161 571.56,401.195 585.905,401.206 600.249,401.251 614.594,401.268 628.939,401.28 643.284,401.377 657.629,401.431 671.974,401.498 686.318,401.582 700.663,401.683 715.008,401.813 729.353,402.094 743.698,402.272 758.042,402.528 772.387,402.714 786.732,403.308 801.077,404.28 815.422,405.01 829.767,406.219 844.111,407.125 858.456,407.935 872.801,410.222 887.146,413.03 901.491,415.038 915.835,420.317 930.18,425.175 944.525,431.656 958.87,437.04 973.215,445.617 987.56,449.912 1001.9,455.564 1016.25,464.219 1030.59,471.51 1044.94,485.684 1059.28,499.912 1073.63,514.053 1087.97,530.331 1102.32,548.205 1116.66,565.093 1131.01,579.962 1145.35,596.533 1159.7,617.088 1174.04,635.255 1188.39,646.819 1202.73,668.739 1217.08,685.319 1231.42,705.633 1245.77,725.991 1260.11,746.404 1274.46,773.43 1288.8,795.403 1303.15,818.875 1317.49,844.882 1331.84,864.408 1346.18,880.505 1360.52,895.256 1374.87,911.108 1389.21,930.379 1403.56,949.788 1417.9,960.765 1432.25,976.687 1446.59,990.886 1460.94,1002.51 1475.28,1010.13 1489.63,1012.23 1503.97,1019.7 1518.32,1020.93 1532.66,1013.33 1547.01,1005.98 1561.35,989.151 1575.7,966.364 1590.04,953.36 1604.39,940.422 1618.73,906.336 1633.08,889.966 1647.42,863.72 1661.77,844.07 1676.11,830.781 1690.46,828.889 1704.8,803.355 1719.15,782.638 1733.49,770.847 1747.83,747.589 1762.18,734.986 1776.52,719.46 1790.87,709.21 1805.21,698.39 1819.56,688.739 1833.9,671.648 1848.25,653.881 1862.59,629.911 1876.94,609.439 1891.28,592.993 1905.63,575.192 1919.97,557.247 1934.32,540.257 1948.66,526.139 1963.01,515.069 1977.35,499.265 1991.7,481.081 2006.04,474.704 2020.39,463.88 2034.73,452.668 2049.08,448.021 2063.42,438.027 2077.77,431.433 2092.11,426.401 2106.46,421.655 2120.8,410.679 2135.15,404.341 2149.49,401.407 2163.83,399.749 2178.18,397.15 2192.52,395.85 2206.87,394.383 2221.21,393.753 2235.56,392.782 2249.9,392.718 2264.25,393.678 2278.59,393.919 2292.94,394.113 "/>
<path clip-path="url(#clip222)" d="M299.008 401.717 L313.353 401.732 L327.698 401.749 L342.043 401.773 L356.388 401.791 L370.732 401.821 L385.077 401.826 L399.422 401.832 L413.767 401.865 L428.112 401.883 L442.456 401.894 L456.801 401.918 L471.146 401.966 L485.491 401.996 L499.836 402.029 L514.181 402.081 L528.525 402.161 L542.87 402.232 L557.215 402.25 L571.56 402.253 L585.905 402.261 L600.249 402.288 L614.594 402.347 L628.939 402.402 L643.284 402.555 L657.629 402.652 L671.974 402.919 L686.318 402.923 L700.663 402.724 L715.008 402.559 L729.353 402.282 L743.698 402.62 L758.042 402.852 L772.387 403.052 L786.732 402.508 L801.077 403.383 L815.422 403.052 L829.767 403.544 L844.111 404.872 L858.456 406.11 L872.801 406.399 L887.146 407.774 L901.491 408.574 L915.835 408.336 L930.18 411.824 L944.525 410.167 L958.87 411.869 L973.215 412.114 L987.56 413.049 L1001.9 412.184 L1016.25 408.731 L1030.59 410.247 L1044.94 409.661 L1059.28 410.075 L1073.63 410.84 L1087.97 409.385 L1102.32 417.164 L1116.66 422.373 L1131.01 430.45 L1145.35 436.921 L1159.7 449.125 L1174.04 460.677 L1188.39 470.985 L1202.73 483.749 L1217.08 498.904 L1231.42 515.749 L1245.77 537.334 L1260.11 551.729 L1274.46 569.728 L1288.8 586.976 L1303.15 609.897 L1317.49 629.737 L1331.84 647.744 L1346.18 670.414 L1360.52 689.25 L1374.87 713.744 L1389.21 737.518 L1403.56 764.611 L1417.9 793.829 L1432.25 822.64 L1446.59 859.381 L1460.94 892.296 L1475.28 915.085 L1489.63 947.21 L1503.97 966.569 L1518.32 998.122 L1532.66 1023.37 L1547.01 1039.1 L1561.35 1052.21 L1575.7 1060.75 L1590.04 1074.96 L1604.39 1089.35 L1618.73 1079.01 L1633.08 1079.89 L1647.42 1074.29 L1661.77 1065.35 L1676.11 1065.44 L1690.46 1072.44 L1704.8 1050.58 L1719.15 1044.03 L1733.49 1041.01 L1747.83 1016.62 L1762.18 1022.44 L1776.52 1010.98 L1790.87 1020.24 L1805.21 1016.4 L1819.56 1024.86 L1833.9 1014.54 L1848.25 1009.63 L1862.59 979.578 L1876.94 962.465 L1891.28 934.024 L1905.63 905.454 L1919.97 883.447 L1934.32 854.395 L1948.66 832.217 L1963.01 823.768 L1977.35 796.774 L1991.7 765.51 L2006.04 757.566 L2020.39 736.051 L2034.73 710.372 L2049.08 703.979 L2063.42 671.513 L2077.77 657.946 L2092.11 641.277 L2106.46 627.102 L2120.8 582.296 L2135.15 556.211 L2149.49 543.785 L2163.83 535.463 L2178.18 525.341 L2192.52 518.833 L2206.87 509.678 L2221.21 502.045 L2235.56 498.637 L2249.9 494.888 L2264.25 495.61 L2278.59 487.827 L2292.94 484.197 L2292.94 421.977 L2278.59 421.752 L2264.25 416.891 L2249.9 416.872 L2235.56 414.157 L2221.21 413.182 L2206.87 410.63 L2192.52 406.301 L2178.18 403.506 L2163.83 399.233 L2149.49 396.422 L2135.15 392.574 L2120.8 380.92 L2106.46 361.453 L2092.11 358.606 L2077.77 352.928 L2063.42 352.819 L2049.08 338.736 L2034.73 338.849 L2020.39 334.809 L2006.04 332.885 L1991.7 335.203 L1977.35 338.5 L1963.01 338.225 L1948.66 347.319 L1934.32 351.884 L1919.97 357.141 L1905.63 367.22 L1891.28 373.467 L1876.94 371.67 L1862.59 388.604 L1848.25 386.43 L1833.9 398.704 L1819.56 415.571 L1805.21 427.683 L1790.87 431.47 L1776.52 440.212 L1762.18 452.615 L1747.83 465.575 L1733.49 465.545 L1719.15 471.557 L1704.8 478.596 L1690.46 485.548 L1676.11 477.117 L1661.77 467.395 L1647.42 465.289 L1633.08 466.914 L1618.73 449.178 L1604.39 440.701 L1590.04 427.687 L1575.7 415.626 L1561.35 406.6 L1547.01 397.025 L1532.66 377.638 L1518.32 353.556 L1503.97 338.784 L1489.63 307.571 L1475.28 299.905 L1460.94 272.719 L1446.59 253.737 L1432.25 229.189 L1417.9 218.806 L1403.56 199.615 L1389.21 183.325 L1374.87 171.095 L1360.52 170.574 L1346.18 157.301 L1331.84 137.227 L1317.49 127.617 L1303.15 123.452 L1288.8 109.574 L1274.46 100.652 L1260.11 96.1107 L1245.77 89.3554 L1231.42 87.9763 L1217.08 93.2853 L1202.73 99.6671 L1188.39 103.241 L1174.04 99.284 L1159.7 108.967 L1145.35 121.221 L1131.01 130.038 L1116.66 136.157 L1102.32 138.696 L1087.97 145.64 L1073.63 155.916 L1059.28 166.19 L1044.94 174.967 L1030.59 190.681 L1016.25 201.688 L1001.9 216.704 L987.56 227.34 L973.215 236.132 L958.87 248.958 L944.525 261.482 L930.18 268.238 L915.835 286.357 L901.491 300.014 L887.146 313.291 L872.801 321.279 L858.456 331.326 L844.111 341.219 L829.767 349.875 L815.422 357.257 L801.077 361.981 L786.732 368.818 L772.387 372.348 L758.042 376.192 L743.698 380.082 L729.353 383.812 L715.008 385.252 L700.663 386.55 L686.318 388.192 L671.974 389.787 L657.629 391.72 L643.284 393.004 L628.939 394.538 L614.594 395.541 L600.249 396.301 L585.905 396.88 L571.56 397.344 L557.215 397.788 L542.87 398.242 L528.525 398.666 L514.181 399.077 L499.836 399.45 L485.491 399.703 L471.146 399.973 L456.801 400.167 L442.456 400.297 L428.112 400.443 L413.767 400.551 L399.422 400.674 L385.077 400.752 L370.732 400.837 L356.388 400.923 L342.043 400.999 L327.698 401.058 L313.353 401.085 L299.008 401.106  Z" fill="#e26f46" fill-rule="evenodd" fill-opacity="0.5"/>
<polyline clip-path="url(#clip222)" style="stroke:#e26f46; stroke-linecap:round; stroke-linejoin:round; stroke-width:4; stroke-opacity:0.2; fill:none" points="299.008,401.412 313.353,401.409 327.698,401.404 342.043,401.386 356.388,401.357 370.732,401.329 385.077,401.289 399.422,401.253 413.767,401.208 428.112,401.163 442.456,401.095 456.801,401.042 471.146,400.969 485.491,400.849 499.836,400.739 514.181,400.579 528.525,400.413 542.87,400.237 557.215,400.019 571.56,399.799 585.905,399.57 600.249,399.294 614.594,398.944 628.939,398.47 643.284,397.78 657.629,397.186 671.974,396.353 686.318,395.558 700.663,394.637 715.008,393.905 729.353,393.047 743.698,391.351 758.042,389.522 772.387,387.7 786.732,385.663 801.077,382.682 815.422,380.155 829.767,376.709 844.111,373.045 858.456,368.718 872.801,363.839 887.146,360.532 901.491,354.294 915.835,347.346 930.18,340.031 944.525,335.824 958.87,330.413 973.215,324.123 987.56,320.194 1001.9,314.444 1016.25,305.209 1030.59,300.464 1044.94,292.314 1059.28,288.132 1073.63,283.378 1087.97,277.512 1102.32,277.93 1116.66,279.265 1131.01,280.244 1145.35,279.071 1159.7,279.046 1174.04,279.98 1188.39,287.113 1202.73,291.708 1217.08,296.094 1231.42,301.862 1245.77,313.344 1260.11,323.92 1274.46,335.19 1288.8,348.275 1303.15,366.675 1317.49,378.677 1331.84,392.485 1346.18,413.857 1360.52,429.912 1374.87,442.42 1389.21,460.421 1403.56,482.113 1417.9,506.317 1432.25,525.915 1446.59,556.559 1460.94,582.507 1475.28,607.495 1489.63,627.39 1503.97,652.676 1518.32,675.839 1532.66,700.502 1547.01,718.061 1561.35,729.405 1575.7,738.187 1590.04,751.325 1604.39,765.024 1618.73,764.092 1633.08,773.401 1647.42,769.788 1661.77,766.373 1676.11,771.278 1690.46,778.994 1704.8,764.59 1719.15,757.795 1733.49,753.278 1747.83,741.095 1762.18,737.528 1776.52,725.594 1790.87,725.854 1805.21,722.039 1819.56,720.218 1833.9,706.623 1848.25,698.028 1862.59,684.091 1876.94,667.067 1891.28,653.745 1905.63,636.337 1919.97,620.294 1934.32,603.139 1948.66,589.768 1963.01,580.997 1977.35,567.637 1991.7,550.356 2006.04,545.226 2020.39,535.43 2034.73,524.611 2049.08,521.357 2063.42,512.166 2077.77,505.437 2092.11,499.942 2106.46,494.277 2120.8,481.608 2135.15,474.393 2149.49,470.103 2163.83,467.348 2178.18,464.424 2192.52,462.567 2206.87,460.154 2221.21,457.614 2235.56,456.397 2249.9,455.88 2264.25,456.251 2278.59,454.789 2292.94,453.087 "/>
<polyline clip-path="url(#clip222)" style="stroke:#ff0000; stroke-linecap:round; stroke-linejoin:round; stroke-width:8; stroke-opacity:1; fill:none" points="299.008,401.742 313.353,401.415 327.698,401.312 342.043,401.3 356.388,401.314 370.732,401.243 385.077,401.001 399.422,400.606 413.767,400.386 428.112,400.428 442.456,400.831 456.801,401.609 471.146,402.279 485.491,402.846 499.836,402.806 514.181,402.49 528.525,401.877 542.87,401.443 557.215,401.201 571.56,401.141 585.905,401.147 600.249,400.84 614.594,400.335 628.939,399.825 643.284,399.721 657.629,399.97 671.974,400.616 686.318,401.357 700.663,401.93 715.008,402.385 729.353,402.377 743.698,402.208 758.042,401.646 772.387,401.009 786.732,400.613 801.077,401.006 815.422,402.663 829.767,405.615 844.111,408.848 858.456,411.718 872.801,413.157 887.146,413.243 901.491,411.765 915.835,410.797 930.18,409.95 944.525,409.156 958.87,409.384 973.215,410.877 987.56,411.209 1001.9,412.038 1016.25,414.79 1030.59,419.278 1044.94,425.4 1059.28,435.915 1073.63,449.558 1087.97,467.224 1102.32,492.204 1116.66,522.687 1131.01,557.281 1145.35,593.979 1159.7,631.322 1174.04,667.636 1188.39,702.956 1202.73,738.559 1217.08,772.554 1231.42,804.536 1245.77,835.33 1260.11,859.737 1274.46,878.665 1288.8,893.159 1303.15,905.776 1317.49,917.993 1331.84,932.48 1346.18,950.157 1360.52,965.868 1374.87,976.851 1389.21,982.051 1403.56,976.065 1417.9,961.457 1432.25,943.437 1446.59,924.637 1460.94,911.02 1475.28,905.811 1489.63,906.402 1503.97,906.362 1518.32,900.18 1532.66,883.958 1547.01,855.366 1561.35,818.586 1575.7,780.552 1590.04,741.93 1604.39,708.635 1618.73,681.618 1633.08,658.113 1647.42,636.816 1661.77,616.522 1676.11,595.457 1690.46,573.074 1704.8,551.366 1719.15,532.169 1733.49,512.424 1747.83,495.893 1762.18,481.524 1776.52,466.472 1790.87,450.396 1805.21,432.12 1819.56,409.709 1833.9,385.41 1848.25,361.428 1862.59,340.223 1876.94,321.686 1891.28,307.992 1905.63,298.361 1919.97,291.289 1934.32,286.798 1948.66,284.623 1963.01,283.721 1977.35,285.234 1991.7,288.78 2006.04,293.029 2020.39,296.296 2034.73,298.625 2049.08,298.964 2063.42,297.722 2077.77,296.861 2092.11,297.888 2106.46,301.358 2120.8,307.831 2135.15,316.568 2149.49,326.134 2163.83,336.39 2178.18,345.106 2192.52,350.898 2206.87,353.908 2221.21,354.041 2235.56,352.81 2249.9,351.569 2264.25,351.766 2278.59,354.616 2292.94,360.395 "/>
<polyline clip-path="url(#clip222)" style="stroke:#ff0000; stroke-linecap:round; stroke-linejoin:round; stroke-width:8; stroke-opacity:1; fill:none" points="299.008,399.912 313.353,400.197 327.698,400.788 342.043,401.387 356.388,401.601 370.732,401.492 385.077,401.271 399.422,401.219 413.767,401.357 428.112,401.573 442.456,401.431 456.801,401.044 471.146,400.531 485.491,400.641 499.836,401.754 514.181,404.008 528.525,406.413 542.87,408.105 557.215,408.182 571.56,406.722 585.905,404.37 600.249,402.147 614.594,400.535 628.939,399.826 643.284,399.421 657.629,398.827 671.974,397.736 686.318,396.273 700.663,395.35 715.008,395.648 729.353,397.637 743.698,400.905 758.042,404.603 772.387,407.005 786.732,407.288 801.077,405.075 815.422,401.333 829.767,397.501 844.111,395.398 858.456,395.156 872.801,395.904 887.146,396.56 901.491,396.104 915.835,393.811 930.18,390.646 944.525,387.394 958.87,384.842 973.215,383.311 987.56,381.543 1001.9,378.684 1016.25,373.617 1030.59,366.175 1044.94,356.517 1059.28,346.32 1073.63,337.148 1087.97,330.797 1102.32,328.801 1116.66,332.084 1131.01,338.395 1145.35,346.13 1159.7,353.203 1174.04,357.753 1188.39,358.953 1202.73,359.279 1217.08,360.454 1231.42,365.188 1245.77,375.775 1260.11,391.898 1274.46,411.46 1288.8,431.758 1303.15,451.226 1317.49,468.153 1331.84,482.55 1346.18,497.887 1360.52,513.818 1374.87,530.612 1389.21,549.15 1403.56,565.997 1417.9,580.014 1432.25,591.263 1446.59,602.314 1460.94,615.348 1475.28,633.086 1489.63,657.528 1503.97,684.608 1518.32,711.266 1532.66,734.747 1547.01,749.656 1561.35,757.21 1575.7,760.007 1590.04,760.733 1604.39,763.371 1618.73,770.265 1633.08,779.653 1647.42,787.186 1661.77,788.462 1676.11,781.637 1690.46,764.448 1704.8,739.001 1719.15,711.122 1733.49,683.182 1747.83,658.921 1762.18,639.823 1776.52,624.804 1790.87,611.7 1805.21,599.016 1819.56,586.649 1833.9,573.947 1848.25,562.408 1862.59,553.96 1876.94,545.778 1891.28,539.819 1905.63,534.951 1919.97,528.92 1934.32,521.956 1948.66,514.425 1963.01,505.989 1977.35,497.702 1991.7,490.645 2006.04,485.12 2020.39,479.367 2034.73,473.918 2049.08,468.153 2063.42,461.549 2077.77,454.318 2092.11,446.978 2106.46,440.44 2120.8,435.322 2135.15,432.29 2149.49,431.237 2163.83,430.59 2178.18,430.413 2192.52,430.231 2206.87,429.625 2221.21,429.361 2235.56,430.269 2249.9,432.155 2264.25,434.922 2278.59,438.028 2292.94,440.276 "/>
<path clip-path="url(#clip220)" d="M309.643 250.738 L750.512 250.738 L750.512 95.2176 L309.643 95.2176  Z" fill="#ffffff" fill-rule="evenodd" fill-opacity="1"/>
<polyline clip-path="url(#clip220)" style="stroke:#000000; stroke-linecap:round; stroke-linejoin:round; stroke-width:4; stroke-opacity:1; fill:none" points="309.643,250.738 750.512,250.738 750.512,95.2176 309.643,95.2176 309.643,250.738 "/>
<polyline clip-path="url(#clip220)" style="stroke:#009af9; stroke-linecap:round; stroke-linejoin:round; stroke-width:4; stroke-opacity:0.2; fill:none" points="333.127,147.058 474.031,147.058 "/>
<path clip-path="url(#clip220)" d="M501.797 160.449 L501.797 174.199 L497.515 174.199 L497.515 138.412 L501.797 138.412 L501.797 142.347 Q503.14 140.032 505.177 138.921 Q507.237 137.787 510.084 137.787 Q514.807 137.787 517.746 141.537 Q520.709 145.287 520.709 151.398 Q520.709 157.509 517.746 161.259 Q514.807 165.009 510.084 165.009 Q507.237 165.009 505.177 163.898 Q503.14 162.763 501.797 160.449 M516.288 151.398 Q516.288 146.699 514.344 144.037 Q512.422 141.352 509.043 141.352 Q505.663 141.352 503.719 144.037 Q501.797 146.699 501.797 151.398 Q501.797 156.097 503.719 158.782 Q505.663 161.444 509.043 161.444 Q512.422 161.444 514.344 158.782 Q516.288 156.097 516.288 151.398 Z" fill="#000000" fill-rule="nonzero" fill-opacity="1" /><path clip-path="url(#clip220)" d="M542.793 142.393 Q542.075 141.977 541.219 141.791 Q540.385 141.583 539.367 141.583 Q535.756 141.583 533.811 143.944 Q531.89 146.282 531.89 150.68 L531.89 164.338 L527.607 164.338 L527.607 138.412 L531.89 138.412 L531.89 142.44 Q533.232 140.078 535.385 138.944 Q537.538 137.787 540.617 137.787 Q541.056 137.787 541.589 137.856 Q542.121 137.903 542.769 138.018 L542.793 142.393 Z" fill="#000000" fill-rule="nonzero" fill-opacity="1" /><path clip-path="url(#clip220)" d="M568.394 150.31 L568.394 152.393 L548.811 152.393 Q549.089 156.791 551.45 159.106 Q553.834 161.398 558.07 161.398 Q560.524 161.398 562.816 160.796 Q565.13 160.194 567.399 158.99 L567.399 163.018 Q565.107 163.99 562.7 164.5 Q560.293 165.009 557.816 165.009 Q551.612 165.009 547.978 161.398 Q544.367 157.787 544.367 151.629 Q544.367 145.264 547.793 141.537 Q551.242 137.787 557.075 137.787 Q562.306 137.787 565.339 141.166 Q568.394 144.523 568.394 150.31 M564.135 149.06 Q564.089 145.565 562.167 143.481 Q560.269 141.398 557.121 141.398 Q553.556 141.398 551.404 143.412 Q549.274 145.426 548.95 149.083 L564.135 149.06 Z" fill="#000000" fill-rule="nonzero" fill-opacity="1" /><path clip-path="url(#clip220)" d="M592.445 142.347 L592.445 128.319 L596.704 128.319 L596.704 164.338 L592.445 164.338 L592.445 160.449 Q591.103 162.763 589.042 163.898 Q587.005 165.009 584.135 165.009 Q579.436 165.009 576.473 161.259 Q573.533 157.509 573.533 151.398 Q573.533 145.287 576.473 141.537 Q579.436 137.787 584.135 137.787 Q587.005 137.787 589.042 138.921 Q591.103 140.032 592.445 142.347 M577.931 151.398 Q577.931 156.097 579.853 158.782 Q581.797 161.444 585.177 161.444 Q588.556 161.444 590.501 158.782 Q592.445 156.097 592.445 151.398 Q592.445 146.699 590.501 144.037 Q588.556 141.352 585.177 141.352 Q581.797 141.352 579.853 144.037 Q577.931 146.699 577.931 151.398 Z" fill="#000000" fill-rule="nonzero" fill-opacity="1" /><path clip-path="url(#clip220)" d="M605.477 138.412 L609.737 138.412 L609.737 164.338 L605.477 164.338 L605.477 138.412 M605.477 128.319 L609.737 128.319 L609.737 133.713 L605.477 133.713 L605.477 128.319 Z" fill="#000000" fill-rule="nonzero" fill-opacity="1" /><path clip-path="url(#clip220)" d="M637.306 139.407 L637.306 143.389 Q635.5 142.393 633.672 141.907 Q631.866 141.398 630.014 141.398 Q625.871 141.398 623.579 144.037 Q621.288 146.652 621.288 151.398 Q621.288 156.143 623.579 158.782 Q625.871 161.398 630.014 161.398 Q631.866 161.398 633.672 160.912 Q635.5 160.402 637.306 159.407 L637.306 163.342 Q635.524 164.176 633.602 164.592 Q631.704 165.009 629.551 165.009 Q623.695 165.009 620.246 161.328 Q616.797 157.648 616.797 151.398 Q616.797 145.055 620.269 141.421 Q623.764 137.787 629.829 137.787 Q631.797 137.787 633.672 138.203 Q635.547 138.597 637.306 139.407 Z" fill="#000000" fill-rule="nonzero" fill-opacity="1" /><path clip-path="url(#clip220)" d="M648.926 131.051 L648.926 138.412 L657.699 138.412 L657.699 141.722 L648.926 141.722 L648.926 155.796 Q648.926 158.967 649.783 159.87 Q650.662 160.773 653.324 160.773 L657.699 160.773 L657.699 164.338 L653.324 164.338 Q648.394 164.338 646.519 162.509 Q644.644 160.657 644.644 155.796 L644.644 141.722 L641.519 141.722 L641.519 138.412 L644.644 138.412 L644.644 131.051 L648.926 131.051 Z" fill="#000000" fill-rule="nonzero" fill-opacity="1" /><path clip-path="url(#clip220)" d="M663.301 138.412 L667.56 138.412 L667.56 164.338 L663.301 164.338 L663.301 138.412 M663.301 128.319 L667.56 128.319 L667.56 133.713 L663.301 133.713 L663.301 128.319 Z" fill="#000000" fill-rule="nonzero" fill-opacity="1" /><path clip-path="url(#clip220)" d="M686.519 141.398 Q683.093 141.398 681.102 144.083 Q679.111 146.745 679.111 151.398 Q679.111 156.051 681.079 158.736 Q683.07 161.398 686.519 161.398 Q689.921 161.398 691.912 158.713 Q693.903 156.027 693.903 151.398 Q693.903 146.791 691.912 144.106 Q689.921 141.398 686.519 141.398 M686.519 137.787 Q692.074 137.787 695.245 141.398 Q698.417 145.009 698.417 151.398 Q698.417 157.764 695.245 161.398 Q692.074 165.009 686.519 165.009 Q680.94 165.009 677.769 161.398 Q674.621 157.764 674.621 151.398 Q674.621 145.009 677.769 141.398 Q680.94 137.787 686.519 137.787 Z" fill="#000000" fill-rule="nonzero" fill-opacity="1" /><path clip-path="url(#clip220)" d="M727.028 148.689 L727.028 164.338 L722.768 164.338 L722.768 148.828 Q722.768 145.148 721.333 143.319 Q719.898 141.49 717.028 141.49 Q713.579 141.49 711.588 143.69 Q709.597 145.889 709.597 149.685 L709.597 164.338 L705.315 164.338 L705.315 138.412 L709.597 138.412 L709.597 142.44 Q711.125 140.102 713.185 138.944 Q715.269 137.787 717.977 137.787 Q722.444 137.787 724.736 140.565 Q727.028 143.319 727.028 148.689 Z" fill="#000000" fill-rule="nonzero" fill-opacity="1" /><polyline clip-path="url(#clip220)" style="stroke:#ff0000; stroke-linecap:round; stroke-linejoin:round; stroke-width:8; stroke-opacity:1; fill:none" points="333.127,198.898 474.031,198.898 "/>
<path clip-path="url(#clip220)" d="M497.515 181.618 L526.751 181.618 L526.751 185.553 L514.483 185.553 L514.483 216.178 L509.784 216.178 L509.784 185.553 L497.515 185.553 L497.515 181.618 Z" fill="#000000" fill-rule="nonzero" fill-opacity="1" /><path clip-path="url(#clip220)" d="M539.135 194.233 Q538.418 193.817 537.561 193.631 Q536.728 193.423 535.709 193.423 Q532.098 193.423 530.154 195.784 Q528.232 198.122 528.232 202.52 L528.232 216.178 L523.95 216.178 L523.95 190.252 L528.232 190.252 L528.232 194.28 Q529.575 191.918 531.728 190.784 Q533.881 189.627 536.959 189.627 Q537.399 189.627 537.932 189.696 Q538.464 189.743 539.112 189.858 L539.135 194.233 Z" fill="#000000" fill-rule="nonzero" fill-opacity="1" /><path clip-path="url(#clip220)" d="M543.163 205.946 L543.163 190.252 L547.422 190.252 L547.422 205.784 Q547.422 209.465 548.857 211.316 Q550.293 213.145 553.163 213.145 Q556.612 213.145 558.603 210.946 Q560.617 208.747 560.617 204.951 L560.617 190.252 L564.876 190.252 L564.876 216.178 L560.617 216.178 L560.617 212.196 Q559.066 214.557 557.005 215.715 Q554.968 216.849 552.26 216.849 Q547.793 216.849 545.478 214.071 Q543.163 211.293 543.163 205.946 M553.88 189.627 L553.88 189.627 Z" fill="#000000" fill-rule="nonzero" fill-opacity="1" /><path clip-path="url(#clip220)" d="M595.825 202.15 L595.825 204.233 L576.241 204.233 Q576.519 208.631 578.88 210.946 Q581.265 213.238 585.501 213.238 Q587.954 213.238 590.246 212.636 Q592.561 212.034 594.829 210.83 L594.829 214.858 Q592.538 215.83 590.13 216.34 Q587.723 216.849 585.246 216.849 Q579.042 216.849 575.408 213.238 Q571.797 209.627 571.797 203.469 Q571.797 197.104 575.223 193.377 Q578.672 189.627 584.505 189.627 Q589.737 189.627 592.769 193.006 Q595.825 196.363 595.825 202.15 M591.565 200.9 Q591.519 197.405 589.598 195.321 Q587.7 193.238 584.552 193.238 Q580.987 193.238 578.834 195.252 Q576.704 197.266 576.38 200.923 L591.565 200.9 Z" fill="#000000" fill-rule="nonzero" fill-opacity="1" /></svg>
